#VRML V2.0 utf8
# 3D model generated by easyeda2kicad.py (https://github.com/uPesy/easyeda2kicad.py)

Shape{
    appearance Appearance {
        material  Material 	{
            diffuseColor 1.0 0.9529411764705882 0.792156862745098
            specularColor 0.30196078431372547 0.28627450980392155 0.23921568627450981
            ambientIntensity 0.9487
            transparency 0.0
            shininess 0.5
        }
    }
    geometry IndexedFaceSet {
        ccw TRUE
        solid FALSE
        coord DEF co Coordinate {
            point [
                0.1032 -0.4075 0.0039, -0.0408 -0.4075 0.0039, -0.0408 -0.2413 0.0039, 0.7746 -0.8199 0.0039, 0.6496 -0.8199 0.0039, 0.5758 -0.6137 0.0039, -1.1319 -0.2894 0.0039, -1.1319 -0.2413 0.0039, -0.9532 -0.2894 0.0039, -0.9532 -0.2413 0.0039, -0.9153 -0.2894 0.0039, -0.5758 -0.2413 0.0039, -0.9153 -0.6137 0.0039, -0.5758 -0.6137 0.0039, -0.6496 -0.8199 0.0039, -0.6496 -1.0079 0.0039, -0.5758 -1.0669 0.0039, -0.7746 -1.0079 0.0039, -0.9153 -1.0669 0.0039, -0.7746 -0.8199 0.0039, 0.5758 -1.0669 0.0039, 0.6496 -1.0079 0.0039, 0.9154 -1.0669 0.0039, 0.7746 -1.0079 0.0039, 0.9154 -0.6137 0.0039, 1.1319 -0.2413 0.0039, 1.1319 -0.2894 0.0039, 0.9154 -0.2894 0.0039, 0.502 -0.4075 0.0039, 0.5758 -0.2413 0.0039, 0.502 -0.6137 0.0039, 0.502 -1.0079 0.0039, 0.2773 -1.0079 0.0039, 0.2773 -1.0669 0.0039, 0.1032 -1.0079 0.0039, 0.1032 -1.0669 0.0039, -0.0408 -1.0079 0.0039, -0.0408 -1.0669 0.0039, -0.2256 -1.0079 0.0039, -0.2256 -1.0669 0.0039, -0.4562 -1.0079 0.0039, -0.4562 -1.0669 0.0039, -0.5019 -1.0079 0.0039, -0.5019 -0.6137 0.0039, -0.5019 -0.4075 0.0039, -0.4562 -0.4075 0.0039, -0.4562 -0.2413 0.0039, -0.2256 -0.4075 0.0039, -0.2256 -0.2413 0.0039, 0.1766 -0.2425 0.0039, 0.1882 -0.2413 0.0039, 0.2773 -0.4075 0.0039, 0.1225 -0.2299 0.0039, 0.1032 -0.2413 0.0039, 0.1225 -0.2083 0.0039, 0.1032 -0.042 0.0039, 0.1434 -0.2385 0.0039, 0.1633 -0.2413 0.0039, 0.1712 -0.2424 0.0039, 0.1514 -0.042 0.0039, 0.1452 -0.0424 0.0039, 0.1225 -0.0486 0.0039, 0.1225 -0.075 0.0039, 0.1446 -0.0655 0.0039, 0.126 -0.2102 0.0039, 0.1686 -0.0624 0.0039, 0.1879 -0.0646 0.0039, 0.2027 -0.0699 0.0039, 0.2163 -0.079 0.0039, 0.2282 -0.0922 0.0039, 0.2425 -0.1437 0.0039, 0.2405 -0.1651 0.0039, 0.2351 -0.182 0.0039, 0.1913 -0.2188 0.0039, 0.173 -0.2209 0.0039, 0.2057 -0.2135 0.0039, 0.2178 -0.2054 0.0039, 0.227 -0.1956 0.0039, 0.1468 -0.218 0.0039, 0.2363 -0.1074 0.0039, 0.2415 -0.1284 0.0039, 0.1688 -0.0408 0.0039, 0.1032 0.1289 0.0039, 0.1835 -0.042 0.0039, 0.2773 0.1289 0.0039, 0.2585 -0.0951 0.0039, 0.247 -0.0767 0.0039, 0.2773 -0.042 0.0039, 0.22 -0.2334 0.0039, 0.2358 -0.2233 0.0039, 0.2773 -0.2413 0.0039, 0.2506 -0.2077 0.0039, 0.2611 -0.189 0.0039, 0.2009 -0.24 0.0039, 0.2292 -0.0596 0.0039, 0.2105 -0.0488 0.0039, 0.1885 -0.0424 0.0039, 0.267 -0.1682 0.0039, 0.2689 -0.1454 0.0039, 0.2661 -0.1174 0.0039, -0.9153 -1.126 0.0039, -0.5758 -1.126 0.0039, -0.4562 -1.126 0.0039, -0.2256 -1.126 0.0039, -0.0408 -1.126 0.0039, 0.1032 -1.126 0.0039, 0.2773 -1.126 0.0039, 0.5758 -1.126 0.0039, 0.9154 -1.126 0.0039, 0.5758 -0.042 0.0039, 1.1319 -0.042 0.0039, 0.2857 -0.2185 0.0039, 0.2857 -0.2401 0.0039, 0.3865 -0.2401 0.0039, 0.3601 -0.2185 0.0039, 0.3601 -0.0432 0.0039, 0.3865 -0.0432 0.0039, -0.0168 -0.0432 0.0039, -0.0408 -0.042 0.0039, 0.084 -0.2401 0.0039, 0.084 -0.0432 0.0039, -0.0168 -0.0648 0.0039, -0.0216 -0.2185 0.0039, -0.0216 -0.2401 0.0039, 0.0576 -0.1512 0.0039, 0.0576 -0.2185 0.0039, -0.012 -0.1512 0.0039, -0.012 -0.1296 0.0039, 0.0576 -0.1296 0.0039, 0.0576 -0.0648 0.0039, -0.2086 -0.1861 0.0039, -0.2157 -0.1655 0.0039, -0.2184 -0.1392 0.0039, -0.144 -0.0463 0.0039, -0.2256 -0.042 0.0039, -0.1155 -0.0432 0.0039, -0.1973 -0.2037 0.0039, -0.1811 -0.2192 0.0039, -0.1606 -0.2312 0.0039, -0.167 -0.0543 0.0039, -0.1884 -0.0687 0.0039, -0.1886 -0.0689 0.0039, -0.2026 -0.0843 0.0039, -0.2117 -0.1012 0.0039, -0.217 -0.1206 0.0039, -0.1379 -0.2379 0.0039, -0.1135 -0.2401 0.0039, -0.06 -0.2401 0.0039, -0.06 -0.0432 0.0039, -0.2616 -0.2401 0.0039, -0.2328 -0.2401 0.0039, -0.3337 -0.0432 0.0039, -0.4105 -0.2401 0.0039, -0.3817 -0.2401 0.0039, -0.3618 -0.1849 0.0039, -0.2804 -0.1849 0.0039, -1.1319 -0.042 0.0039, -0.9532 -0.042 0.0039, -0.5758 -0.042 0.0039, -0.4562 -0.042 0.0039, -0.3073 -0.0432 0.0039, 0.5758 0.1289 0.0039, 1.1319 0.1289 0.0039, -1.1319 0.1289 0.0039, -0.9532 0.1289 0.0039, -0.5758 0.1289 0.0039, -0.4562 0.1289 0.0039, -0.2256 0.1289 0.0039, -0.0408 0.1289 0.0039, 0.2146 -0.2697 0.4173, 0.2146 -0.2894 0.4173, 0.2776 -0.2697 0.4173, 0.2776 -0.2894 0.4173, 0.6201 -0.2894 1.5394, 0.6201 -0.2894 0.4173, 0.561 -0.2894 1.5984, 0.3366 -0.2894 0.4173, 0.3366 -0.2894 1.5984, 0.2776 -0.2894 1.5984, 0.2146 -0.2894 1.5984, 0.2894 0.3504 0.4173, 0.7973 0.3504 0.4173, 0.2894 0.3504 1.5394, 0.7973 0.3504 1.5394, 0.8563 0.4095 1.5984, 0.2894 0.4095 1.5984, -0.2775 -0.2697 0.4173, -0.2775 -0.2894 0.4173, -0.2145 -0.2697 0.4173, -0.2145 -0.2894 0.4173, 0.1555 -0.2894 0.4173, -0.1555 -0.2894 0.4173, 0.1555 -0.2894 1.5984, -0.1555 -0.2894 1.5984, -0.2145 -0.2894 1.5984, -0.2775 -0.2894 1.5984, 0.2028 0.3504 1.5394, -0.2027 0.3504 1.5394, 0.2028 0.3504 0.4173, -0.2027 0.3504 0.4173, -0.2027 0.4095 1.5984, 0.2028 0.4095 1.5984, 0.9547 0.5079 0.8012, 0.9154 0.5472 0.8012, 0.9547 0.3504 0.8012, 0.9154 0.311 0.8012, 1.0925 0.3504 0.8012, 1.1319 0.311 0.8012, 1.0925 0.5079 0.8012, 1.1319 0.5472 0.8012, 0.9154 -0.2894 1.3622, 0.9547 -0.25 1.3622, 0.9547 0.0144 1.3622, 1.0925 -0.25 1.3622, 1.1319 -0.2894 1.3622, 1.0925 0.0144 1.3622, 1.1319 0.311 1.3622, 0.9154 0.311 1.3622, 1.1319 -0.2894 1.5984, 1.1319 -1.126 1.5984, 1.1319 -0.2894 0.2402, 1.1319 0.5472 0.122, 1.1319 0.1289 0.122, 1.1319 -0.8898 0.8012, 1.1319 -0.8898 0.2402, 1.1319 -1.126 0.8012, -1.1319 0.5472 0.122, -1.1319 0.5472 0.8012, -0.9153 0.5472 0.8012, 0.9154 0.5472 1.5984, -0.9153 0.5472 1.5984, 0.9154 -1.126 0.8012, -1.1319 -1.126 1.5984, -1.1319 -1.126 0.8012, -0.9153 -1.126 0.8012, -0.5019 -0.3484 1.5984, 0.502 -0.3484 1.5984, 1.0138 -1.0079 1.5984, 0.6201 -1.0079 1.5984, 0.502 -1.0669 1.5984, 0.6201 -0.8012 1.5984, 1.0138 -0.8012 1.5984, 0.9154 -0.2894 1.5984, 0.2776 -0.2185 1.5984, 0.3366 -0.2185 1.5984, 0.561 -0.5059 1.5984, 0.8563 -0.5059 1.5984, -0.1555 -0.2185 1.5984, -0.2145 -0.2185 1.5984, 0.1555 -0.2185 1.5984, 0.2146 -0.2185 1.5984, -0.2775 -0.2185 1.5984, -0.3366 -0.2185 1.5984, -0.3366 -0.2894 1.5984, -0.561 -0.2894 1.5984, -0.561 -0.5059 1.5984, -0.5019 -1.0669 1.5984, -0.6201 -0.8012 1.5984, -1.0138 -0.8012 1.5984, -0.8563 -0.5059 1.5984, -0.9153 -0.2894 1.5984, -0.8563 0.4095 1.5984, -0.6201 -1.0079 1.5984, -1.0138 -1.0079 1.5984, -1.1319 -0.2894 1.5984, -0.2894 0.4095 1.5984, 0.502 -0.4075 1.5394, 0.187 -0.4075 1.5394, 0.187 -0.4075 1.2244, -0.187 -0.4075 1.5394, -0.5019 -0.4075 1.5394, -0.187 -0.4075 1.2244, -1.1319 -0.2894 0.2402, -1.1319 -0.8898 0.2402, -1.1319 -0.8898 0.8012, -1.1319 0.1289 0.122, -1.1319 -0.2894 1.3622, -1.1319 0.311 1.3622, -1.1319 0.311 0.8012, -0.5019 -1.0079 1.5394, 0.502 -1.0079 1.5394, -0.6201 -0.8012 1.2047, -0.6201 -1.0079 1.2047, -1.0138 -1.0079 1.2047, -1.0138 -0.8012 1.2047, 0.6201 -1.0079 1.2047, 0.6201 -0.8012 1.2047, 1.0138 -0.8012 1.2047, 1.0138 -1.0079 1.2047, -0.9153 -0.2894 0.2402, -1.0138 -0.2933 0.2402, -1.0138 -0.8898 0.2402, -0.9153 -0.8898 0.2402, -0.935 -0.8898 0.2402, -0.935 -0.2933 0.2402, -0.935 -0.8898 0.7972, -0.9153 -0.8898 0.8012, -1.0138 -0.8898 0.7972, -0.9153 -0.2894 1.3622, -1.0925 -0.25 1.3622, -1.0925 0.0144 1.3622, -0.9547 -0.25 1.3622, -0.9547 0.0144 1.3622, -0.9153 0.311 1.3622, -0.9153 0.311 0.8012, -1.0925 0.5079 0.8012, -1.0925 0.3504 0.8012, -0.9547 0.3504 0.8012, -0.9547 0.5079 0.8012, 0.7973 -0.4468 1.5394, 0.7973 -0.4468 0.4173, 0.6201 -0.4468 1.5394, 0.6201 -0.4468 0.4173, -0.6201 -0.2894 0.4173, -0.6201 -0.2894 1.5394, -0.3366 -0.2894 0.4173, -0.6201 -0.4468 1.5394, -0.6201 -0.4468 0.4173, -0.7972 -0.4468 1.5394, -0.7972 -0.4468 0.4173, -0.7972 0.3504 1.5394, -0.7972 0.3504 0.4173, -0.2894 0.3504 1.5394, -0.2894 0.3504 0.4173, 0.2067 -0.1713 0.4173, 0.2067 0.3898 0.4173, 0.1555 -0.1713 0.4173, -0.1555 -0.1713 0.4173, 0.3366 -0.1713 0.4173, 0.2855 -0.1713 0.4173, 0.2855 0.3898 0.4173, 0.2894 0.4095 0.4173, 0.2028 0.4095 0.4173, -0.2067 -0.1713 0.4173, -0.2067 0.3898 0.4173, -0.2027 0.4095 0.4173, -0.2854 0.3898 0.4173, -0.2894 0.4095 0.4173, -0.3366 -0.1713 0.4173, -0.2854 -0.1713 0.4173, -0.187 -0.5893 1.2244, 0.187 -0.5893 1.2244
            ]
        }
        coordIndex [
            0,1,2,-1,3,4,5,-1,6,7,8,-1,8,7,9,-1,8,9,10,-1,10,9,11,-1,10,11,12,-1,12,11,13,-1,14,13,15,-1,15,13,16,-1,15,16,17,-1,17,16,18,-1,17,18,19,-1,19,18,12,-1,19,12,14,-1,14,12,13,-1,5,4,20,-1,20,4,21,-1,20,21,22,-1,22,21,23,-1,22,23,24,-1,25,26,27,-1,28,29,30,-1,30,29,5,-1,30,5,31,-1,31,5,20,-1,31,20,32,-1,32,20,33,-1,32,33,34,-1,34,33,35,-1,34,35,36,-1,36,35,37,-1,36,37,38,-1,38,37,39,-1,38,39,40,-1,40,39,41,-1,40,41,42,-1,42,41,16,-1,42,16,43,-1,43,16,13,-1,43,13,44,-1,44,13,11,-1,44,11,45,-1,45,11,46,-1,45,46,47,-1,2,1,48,-1,49,50,0,-1,0,50,51,-1,52,53,54,-1,54,53,55,-1,52,56,53,-1,53,56,57,-1,53,57,0,-1,0,57,58,-1,0,58,49,-1,55,59,60,-1,60,61,55,-1,55,61,62,-1,55,62,54,-1,54,62,63,-1,54,63,64,-1,64,63,65,-1,64,65,66,-1,66,67,64,-1,64,67,68,-1,64,68,69,-1,70,71,64,-1,64,71,72,-1,73,74,75,-1,75,74,76,-1,72,77,64,-1,64,77,76,-1,64,76,78,-1,78,76,74,-1,69,79,64,-1,64,79,80,-1,64,80,70,-1,81,82,83,-1,83,82,84,-1,85,86,87,-1,88,89,90,-1,90,89,91,-1,90,91,92,-1,51,50,90,-1,90,50,93,-1,90,93,88,-1,86,94,87,-1,87,94,95,-1,87,95,96,-1,92,97,90,-1,90,97,98,-1,90,98,87,-1,87,98,99,-1,87,99,85,-1,100,18,101,-1,101,18,16,-1,101,16,102,-1,102,16,41,-1,102,41,103,-1,103,41,39,-1,103,39,104,-1,104,39,37,-1,104,37,105,-1,105,37,35,-1,105,35,106,-1,106,35,33,-1,106,33,107,-1,107,33,20,-1,107,20,108,-1,108,20,22,-1,23,3,24,-1,24,3,5,-1,24,5,27,-1,27,5,29,-1,27,29,25,-1,25,29,109,-1,25,109,110,-1,87,111,90,-1,90,111,112,-1,90,112,113,-1,114,111,115,-1,115,111,87,-1,115,87,116,-1,116,87,109,-1,116,109,113,-1,113,109,29,-1,113,29,90,-1,90,29,28,-1,90,28,51,-1,117,118,55,-1,0,2,53,-1,53,2,119,-1,53,119,55,-1,55,119,120,-1,55,120,117,-1,117,121,118,-1,118,121,122,-1,118,122,2,-1,2,122,123,-1,2,123,119,-1,124,125,126,-1,126,125,122,-1,126,122,127,-1,127,122,121,-1,127,121,128,-1,128,121,129,-1,130,48,131,-1,131,48,132,-1,133,134,135,-1,135,134,118,-1,130,136,48,-1,48,136,137,-1,48,137,138,-1,133,139,134,-1,134,139,140,-1,134,140,141,-1,141,142,134,-1,134,142,143,-1,134,143,144,-1,138,145,48,-1,48,145,146,-1,48,146,2,-1,2,146,147,-1,2,147,118,-1,118,147,148,-1,118,148,135,-1,149,150,48,-1,48,150,134,-1,48,134,132,-1,132,134,144,-1,151,152,46,-1,46,152,153,-1,154,155,153,-1,153,155,149,-1,153,149,46,-1,46,149,48,-1,46,48,47,-1,47,48,1,-1,7,156,9,-1,9,156,157,-1,9,157,11,-1,11,157,158,-1,11,158,46,-1,46,158,159,-1,46,159,151,-1,151,159,134,-1,151,134,160,-1,160,134,150,-1,96,83,87,-1,87,83,84,-1,87,84,109,-1,109,84,161,-1,109,161,110,-1,110,161,162,-1,156,163,157,-1,157,163,164,-1,157,164,158,-1,158,164,165,-1,158,165,159,-1,159,165,166,-1,159,166,134,-1,134,166,167,-1,134,167,118,-1,118,167,168,-1,118,168,55,-1,55,168,82,-1,55,82,59,-1,59,82,81,-1,169,170,171,-1,171,170,172,-1,173,174,175,-1,175,174,176,-1,175,176,177,-1,172,170,178,-1,178,170,179,-1,180,181,182,-1,182,181,183,-1,183,184,182,-1,182,184,185,-1,186,187,188,-1,188,187,189,-1,190,191,192,-1,192,191,193,-1,189,187,194,-1,194,187,195,-1,196,197,198,-1,198,197,199,-1,200,197,201,-1,201,197,196,-1,202,203,204,-1,204,203,205,-1,204,205,206,-1,206,205,207,-1,206,207,208,-1,208,207,209,-1,208,209,202,-1,202,209,203,-1,210,211,212,-1,211,210,213,-1,213,210,214,-1,213,214,215,-1,215,214,216,-1,215,216,212,-1,212,216,217,-1,212,217,210,-1,214,218,219,-1,220,26,162,-1,221,209,222,-1,222,209,207,-1,162,222,220,-1,220,222,223,-1,220,223,224,-1,225,223,219,-1,219,223,222,-1,219,222,214,-1,214,222,207,-1,214,207,216,-1,226,227,221,-1,221,227,228,-1,209,221,203,-1,203,221,228,-1,203,228,229,-1,229,228,230,-1,231,225,219,-1,232,233,234,-1,100,108,234,-1,234,108,231,-1,234,231,232,-1,232,231,219,-1,235,236,177,-1,177,236,175,-1,237,238,239,-1,239,238,240,-1,239,240,236,-1,219,218,241,-1,241,218,242,-1,179,235,178,-1,178,235,177,-1,178,177,243,-1,243,177,244,-1,175,236,245,-1,245,236,240,-1,245,240,246,-1,193,247,248,-1,194,195,235,-1,248,194,193,-1,193,194,235,-1,193,235,192,-1,192,235,179,-1,192,179,249,-1,249,179,250,-1,251,252,195,-1,195,252,253,-1,195,253,235,-1,235,253,254,-1,235,254,255,-1,256,235,257,-1,257,235,255,-1,257,255,258,-1,258,255,259,-1,258,259,260,-1,260,259,261,-1,260,261,230,-1,256,232,239,-1,239,232,219,-1,239,219,237,-1,237,219,241,-1,257,262,256,-1,256,262,263,-1,256,263,232,-1,232,263,258,-1,232,258,264,-1,264,258,260,-1,201,229,200,-1,200,229,230,-1,200,230,265,-1,265,230,261,-1,240,241,246,-1,246,241,242,-1,246,242,184,-1,184,242,229,-1,184,229,185,-1,185,229,201,-1,266,267,268,-1,269,270,271,-1,271,270,44,-1,271,44,268,-1,268,44,28,-1,268,28,266,-1,272,273,274,-1,163,6,275,-1,275,6,272,-1,276,277,278,-1,232,264,276,-1,233,232,274,-1,274,232,276,-1,274,276,272,-1,272,276,278,-1,272,278,275,-1,275,278,227,-1,275,227,226,-1,235,256,279,-1,42,44,279,-1,279,44,270,-1,279,270,235,-1,239,236,266,-1,28,31,266,-1,266,31,280,-1,266,280,239,-1,280,31,279,-1,279,31,42,-1,281,282,257,-1,257,282,262,-1,282,283,262,-1,262,283,263,-1,283,284,263,-1,263,284,258,-1,284,281,258,-1,258,281,257,-1,284,283,281,-1,281,283,282,-1,285,286,238,-1,238,286,240,-1,286,287,240,-1,240,287,241,-1,287,288,241,-1,241,288,237,-1,288,285,237,-1,237,285,238,-1,288,287,285,-1,285,287,286,-1,10,289,6,-1,6,289,272,-1,290,291,273,-1,289,292,293,-1,293,294,289,-1,289,294,290,-1,289,290,272,-1,272,290,273,-1,293,292,295,-1,295,292,296,-1,295,296,297,-1,297,296,274,-1,297,274,291,-1,291,274,273,-1,296,234,274,-1,274,234,233,-1,289,10,292,-1,292,10,100,-1,292,100,296,-1,296,100,234,-1,260,298,264,-1,264,298,276,-1,276,299,300,-1,299,276,301,-1,301,276,298,-1,301,298,302,-1,302,298,303,-1,302,303,300,-1,300,303,277,-1,300,277,276,-1,303,304,277,-1,277,304,278,-1,305,227,306,-1,306,227,278,-1,306,278,307,-1,307,278,304,-1,307,304,308,-1,308,304,228,-1,308,228,305,-1,305,228,227,-1,298,260,303,-1,303,260,230,-1,303,230,304,-1,304,230,228,-1,183,181,309,-1,309,181,310,-1,309,310,311,-1,311,310,312,-1,311,312,173,-1,173,312,174,-1,313,314,315,-1,315,314,254,-1,315,254,253,-1,314,313,316,-1,316,313,317,-1,316,317,318,-1,318,317,319,-1,318,319,320,-1,320,319,321,-1,322,320,323,-1,323,320,321,-1,198,324,325,-1,324,198,326,-1,327,191,190,-1,328,181,329,-1,329,181,180,-1,329,180,330,-1,330,180,331,-1,330,331,325,-1,325,331,332,-1,325,332,198,-1,312,310,174,-1,174,310,181,-1,174,181,176,-1,176,181,328,-1,321,319,313,-1,313,319,317,-1,190,326,327,-1,327,326,198,-1,327,198,333,-1,333,198,199,-1,333,199,334,-1,334,199,335,-1,334,335,336,-1,336,335,337,-1,336,337,323,-1,313,315,321,-1,321,315,338,-1,321,338,323,-1,323,338,339,-1,323,339,336,-1,340,269,271,-1,340,271,341,-1,341,271,268,-1,267,341,268,-1,269,340,267,-1,267,340,341,-1,
        ]
    }
}
Shape{
    appearance Appearance {
        material  Material 	{
            diffuseColor 0.8509803921568627 0.8509803921568627 0.8509803921568627
            specularColor 0.4235294117647059 0.4235294117647059 0.4235294117647059
            ambientIntensity 0.851
            transparency 0.0
            shininess 0.5
        }
    }
    geometry IndexedFaceSet {
        ccw TRUE
        solid FALSE
        coord DEF co Coordinate {
            point [
                -1.0138 -0.2933 0.0591, -1.0138 -0.2933 0.2402, -0.935 -0.2933 0.0591, -0.935 -0.2933 0.2402, -0.935 -0.2948 0.0459, -1.0138 -0.2948 0.0459, -0.935 -0.2992 0.0334, -1.0138 -0.2992 0.0334, -0.935 -0.3062 0.0222, -1.0138 -0.3062 0.0222, -0.935 -0.3155 0.0129, -1.0138 -0.3155 0.0129, -0.935 -0.3267 0.0058, -1.0138 -0.3267 0.0058, -0.935 -0.3392 0.0015, -1.0138 -0.3392 0.0015, -0.935 -0.3524 0.0, -1.0138 -0.3524 0.0, -1.0138 -1.0709 0.0, -0.935 -1.0709 0.0, -0.935 -1.084 0.0015, -1.0138 -1.084 0.0015, -0.935 -1.0965 0.0058, -1.0138 -1.0965 0.0058, -0.935 -1.1077 0.0129, -1.0138 -1.1077 0.0129, -0.935 -1.117 0.0222, -1.0138 -1.117 0.0222, -0.935 -1.1241 0.0334, -1.0138 -1.1241 0.0334, -0.935 -1.1284 0.0459, -1.0138 -1.1284 0.0459, -0.935 -1.1299 0.0591, -1.0138 -1.1299 0.0591, -1.0138 -1.1299 0.7382, -0.935 -1.1299 0.7382, -0.935 -1.1284 0.7513, -1.0138 -1.1284 0.7513, -0.935 -1.1241 0.7638, -1.0138 -1.1241 0.7638, -0.935 -1.117 0.775, -1.0138 -1.117 0.775, -0.935 -1.1077 0.7844, -1.0138 -1.1077 0.7844, -0.935 -1.0965 0.7914, -1.0138 -1.0965 0.7914, -0.935 -1.084 0.7958, -1.0138 -1.084 0.7958, -0.935 -1.0709 0.7972, -1.0138 -1.0709 0.7972, -1.0138 -0.8898 0.7972, -0.935 -0.8898 0.7972, -1.0138 -0.8898 0.2402, -0.935 -0.8898 0.2402
            ]
        }
        coordIndex [
            0,1,2,-1,2,1,3,-1,0,2,4,-1,0,4,5,-1,5,4,6,-1,5,6,7,-1,7,6,8,-1,7,8,9,-1,9,8,10,-1,9,10,11,-1,11,10,12,-1,11,12,13,-1,13,12,14,-1,13,14,15,-1,15,14,16,-1,15,16,17,-1,18,17,19,-1,19,17,16,-1,18,19,20,-1,18,20,21,-1,21,20,22,-1,21,22,23,-1,23,22,24,-1,23,24,25,-1,25,24,26,-1,25,26,27,-1,27,26,28,-1,27,28,29,-1,29,28,30,-1,29,30,31,-1,31,30,32,-1,31,32,33,-1,34,33,35,-1,35,33,32,-1,34,35,36,-1,34,36,37,-1,37,36,38,-1,37,38,39,-1,39,38,40,-1,39,40,41,-1,41,40,42,-1,41,42,43,-1,43,42,44,-1,43,44,45,-1,45,44,46,-1,45,46,47,-1,47,46,48,-1,47,48,49,-1,50,49,51,-1,51,49,48,-1,1,0,25,-1,29,31,52,-1,52,31,33,-1,52,33,50,-1,50,33,34,-1,50,34,49,-1,1,25,52,-1,52,25,27,-1,52,27,29,-1,21,23,18,-1,18,23,25,-1,18,25,17,-1,17,25,0,-1,0,5,17,-1,17,5,7,-1,17,7,9,-1,9,11,17,-1,17,11,13,-1,17,13,15,-1,43,45,41,-1,41,45,39,-1,34,37,49,-1,49,37,39,-1,49,39,47,-1,47,39,45,-1,2,3,53,-1,4,2,16,-1,19,24,20,-1,20,24,22,-1,51,48,32,-1,51,32,53,-1,53,32,30,-1,53,30,28,-1,10,8,6,-1,38,36,48,-1,48,36,35,-1,48,35,32,-1,28,26,53,-1,53,26,24,-1,53,24,2,-1,2,24,19,-1,2,19,16,-1,10,6,12,-1,4,16,6,-1,6,16,14,-1,6,14,12,-1,48,46,38,-1,38,46,44,-1,38,44,40,-1,40,44,42,-1,
        ]
    }
}
Shape{
    appearance Appearance {
        material  Material 	{
            diffuseColor 1.0 0.9529411764705882 0.792156862745098
            specularColor 0.30196078431372547 0.28627450980392155 0.23921568627450981
            ambientIntensity 0.9487
            transparency 0.0
            shininess 0.5
        }
    }
    geometry IndexedFaceSet {
        ccw TRUE
        solid FALSE
        coord DEF co Coordinate {
            point [
                -0.9547 0.3504 0.378, -0.9547 0.3504 0.8012, -0.9547 0.5079 0.378, -0.9547 0.5079 0.8012, -1.0925 0.3504 0.378, -1.0925 0.3504 0.8012, -1.0925 0.5079 0.378, -1.0925 0.5079 0.8012, -0.9547 0.0144 0.378, -0.9547 -0.25 0.378, -0.9547 0.0144 1.3622, -0.9547 -0.25 1.3622, -1.0925 -0.25 0.378, -1.0925 -0.25 1.3622, -1.0925 0.0144 0.378, -1.0925 0.0144 1.3622, -0.6201 -0.4468 1.5394, -0.561 -0.5059 1.5984, -0.6201 -0.2894 1.5394, -0.561 -0.2894 1.5984, -0.7972 -0.4468 1.5394, -0.8563 -0.5059 1.5984, -0.7972 0.3504 1.5394, -0.8563 0.4095 1.5984, -0.2894 0.4095 1.5984, -0.2894 0.3504 1.5394, 0.7973 -0.4468 1.5394, 0.8563 -0.5059 1.5984, 0.7973 0.3504 1.5394, 0.8563 0.4095 1.5984, 0.6201 -0.4468 1.5394, 0.561 -0.5059 1.5984, 0.561 -0.2894 1.5984, 0.6201 -0.2894 1.5394, 0.502 -1.0669 1.5984, 0.502 -1.0079 1.5394, -0.5019 -1.0669 1.5984, -0.5019 -1.0079 1.5394, 0.187 -0.4075 1.5394, 0.502 -0.4075 1.5394, 0.502 -0.3484 1.5984, -0.187 -0.4075 1.5394, -0.5019 -0.3484 1.5984, -0.5019 -0.4075 1.5394, -0.6496 -0.8199 0.3976, -0.7746 -0.8199 0.3976, -0.6496 -0.8199 0.0039, -0.7746 -0.8199 0.0039, -0.7746 -1.0079 0.3976, -0.7746 -1.0079 0.0039, -0.6496 -1.0079 0.3976, -0.6496 -1.0079 0.0039, 0.9154 -1.126 0.8012, 0.9154 -0.8898 0.8012, 1.1319 -1.126 0.8012, 1.1319 -0.8898 0.8012, 1.0138 -0.8898 0.7972, 1.0138 -0.8898 0.2402, 1.1319 -0.8898 0.2402, 0.9154 -0.8898 0.2402, 0.9351 -0.8898 0.2402, 0.9351 -0.8898 0.7972, 0.9351 -0.2933 0.2402, 0.9154 -0.2894 0.2402, 1.0138 -0.2933 0.2402, 1.1319 -0.2894 0.2402, 0.9154 -0.2894 0.0039, 1.1319 -0.2894 0.0039, 0.9154 -1.126 0.0039, 0.9154 0.311 0.8012, 0.9154 0.311 1.3622, 1.1319 0.311 0.8012, 1.1319 0.311 1.3622, 0.9154 -0.2894 1.3622, 0.9154 -0.2894 1.5984, 1.1319 -0.2894 1.3622, 1.1319 -0.2894 1.5984, 0.9154 0.5472 0.8012, 0.9154 0.5472 1.5984
            ]
        }
        coordIndex [
            0,1,2,-1,2,1,3,-1,4,5,0,-1,0,5,1,-1,6,7,4,-1,4,7,5,-1,2,3,6,-1,6,3,7,-1,6,4,2,-1,2,4,0,-1,8,9,10,-1,10,9,11,-1,9,12,11,-1,11,12,13,-1,12,14,13,-1,13,14,15,-1,14,8,15,-1,15,8,10,-1,14,12,8,-1,8,12,9,-1,16,17,18,-1,18,17,19,-1,20,21,16,-1,16,21,17,-1,22,23,20,-1,20,23,21,-1,23,22,24,-1,24,22,25,-1,26,27,28,-1,28,27,29,-1,30,31,26,-1,26,31,27,-1,31,30,32,-1,32,30,33,-1,34,35,36,-1,36,35,37,-1,38,39,40,-1,38,40,41,-1,41,40,42,-1,41,42,43,-1,44,45,46,-1,46,45,47,-1,45,48,47,-1,47,48,49,-1,48,50,49,-1,49,50,51,-1,50,44,51,-1,51,44,46,-1,50,48,44,-1,44,48,45,-1,52,53,54,-1,54,53,55,-1,56,57,58,-1,53,59,60,-1,60,61,53,-1,53,61,56,-1,53,56,55,-1,55,56,58,-1,60,59,62,-1,62,59,63,-1,62,63,64,-1,64,63,65,-1,64,65,57,-1,57,65,58,-1,63,66,65,-1,65,66,67,-1,53,52,59,-1,59,52,68,-1,59,68,63,-1,63,68,66,-1,69,70,71,-1,71,70,72,-1,73,74,75,-1,75,74,76,-1,69,77,70,-1,70,77,78,-1,70,78,73,-1,73,78,74,-1,
        ]
    }
}
Shape{
    appearance Appearance {
        material  Material 	{
            diffuseColor 0.8509803921568627 0.8509803921568627 0.8509803921568627
            specularColor 0.4235294117647059 0.4235294117647059 0.4235294117647059
            ambientIntensity 0.851
            transparency 0.0
            shininess 0.5
        }
    }
    geometry IndexedFaceSet {
        ccw TRUE
        solid FALSE
        coord DEF co Coordinate {
            point [
                1.0138 -1.0709 0.7972, 1.0138 -0.8898 0.7972, 0.9351 -1.0709 0.7972, 0.9351 -0.8898 0.7972, 0.9351 -1.084 0.7958, 1.0138 -1.084 0.7958, 0.9351 -1.0965 0.7914, 1.0138 -1.0965 0.7914, 0.9351 -1.1077 0.7844, 1.0138 -1.1077 0.7844, 0.9351 -1.117 0.775, 1.0138 -1.117 0.775, 0.9351 -1.1241 0.7638, 1.0138 -1.1241 0.7638, 0.9351 -1.1284 0.7513, 1.0138 -1.1284 0.7513, 0.9351 -1.1299 0.7382, 1.0138 -1.1299 0.7382, 1.0138 -1.1299 0.0591, 0.9351 -1.1299 0.0591, 0.9351 -1.1284 0.0459, 1.0138 -1.1284 0.0459, 0.9351 -1.1241 0.0334, 1.0138 -1.1241 0.0334, 0.9351 -1.117 0.0222, 1.0138 -1.117 0.0222, 0.9351 -1.1077 0.0129, 1.0138 -1.1077 0.0129, 0.9351 -1.0965 0.0058, 1.0138 -1.0965 0.0058, 0.9351 -1.084 0.0015, 1.0138 -1.084 0.0015, 0.9351 -1.0709 0.0, 1.0138 -1.0709 0.0, 1.0138 -0.3524 0.0, 0.9351 -0.3524 0.0, 0.9351 -0.3392 0.0015, 1.0138 -0.3392 0.0015, 0.9351 -0.3267 0.0058, 1.0138 -0.3267 0.0058, 0.9351 -0.3155 0.0129, 1.0138 -0.3155 0.0129, 0.9351 -0.3062 0.0222, 1.0138 -0.3062 0.0222, 0.9351 -0.2992 0.0334, 1.0138 -0.2992 0.0334, 0.9351 -0.2948 0.0459, 1.0138 -0.2948 0.0459, 0.9351 -0.2933 0.0591, 1.0138 -0.2933 0.0591, 1.0138 -0.2933 0.2402, 0.9351 -0.2933 0.2402, 1.0138 -0.8898 0.2402, 0.9351 -0.8898 0.2402
            ]
        }
        coordIndex [
            0,1,2,-1,2,1,3,-1,0,2,4,-1,0,4,5,-1,5,4,6,-1,5,6,7,-1,7,6,8,-1,7,8,9,-1,9,8,10,-1,9,10,11,-1,11,10,12,-1,11,12,13,-1,13,12,14,-1,13,14,15,-1,15,14,16,-1,15,16,17,-1,18,17,19,-1,19,17,16,-1,18,19,20,-1,18,20,21,-1,21,20,22,-1,21,22,23,-1,23,22,24,-1,23,24,25,-1,25,24,26,-1,25,26,27,-1,27,26,28,-1,27,28,29,-1,29,28,30,-1,29,30,31,-1,31,30,32,-1,31,32,33,-1,34,33,35,-1,35,33,32,-1,34,35,36,-1,34,36,37,-1,37,36,38,-1,37,38,39,-1,39,38,40,-1,39,40,41,-1,41,40,42,-1,41,42,43,-1,43,42,44,-1,43,44,45,-1,45,44,46,-1,45,46,47,-1,47,46,48,-1,47,48,49,-1,50,49,51,-1,51,49,48,-1,49,50,52,-1,29,31,33,-1,15,17,0,-1,0,17,18,-1,0,18,1,-1,23,25,52,-1,52,25,27,-1,52,27,49,-1,1,18,52,-1,52,18,21,-1,52,21,23,-1,34,37,39,-1,39,41,34,-1,34,41,43,-1,34,43,45,-1,45,47,34,-1,34,47,49,-1,34,49,33,-1,33,49,27,-1,33,27,29,-1,9,0,7,-1,7,0,5,-1,9,11,0,-1,0,11,13,-1,0,13,15,-1,53,26,24,-1,3,53,2,-1,2,53,19,-1,2,19,16,-1,30,28,32,-1,32,28,26,-1,32,26,35,-1,24,22,53,-1,53,22,20,-1,53,20,19,-1,44,42,35,-1,53,51,26,-1,26,51,48,-1,26,48,35,-1,35,48,46,-1,35,46,44,-1,42,40,35,-1,35,40,38,-1,35,38,36,-1,16,14,2,-1,2,14,12,-1,2,12,10,-1,10,8,2,-1,2,8,6,-1,2,6,4,-1,
        ]
    }
}
Shape{
    appearance Appearance {
        material  Material 	{
            diffuseColor 1.0 0.9529411764705882 0.792156862745098
            specularColor 0.30196078431372547 0.28627450980392155 0.23921568627450981
            ambientIntensity 0.9487
            transparency 0.0
            shininess 0.5
        }
    }
    geometry IndexedFaceSet {
        ccw TRUE
        solid FALSE
        coord DEF co Coordinate {
            point [
                0.9547 -0.25 0.378, 0.9547 0.0144 0.378, 0.9547 -0.25 1.3622, 0.9547 0.0144 1.3622, 1.0925 0.0144 0.378, 1.0925 0.0144 1.3622, 1.0925 -0.25 0.378, 1.0925 -0.25 1.3622, 0.9547 0.5079 0.378, 0.9547 0.5079 0.8012, 0.9547 0.3504 0.378, 0.9547 0.3504 0.8012, 1.0925 0.5079 0.378, 1.0925 0.5079 0.8012, 1.0925 0.3504 0.378, 1.0925 0.3504 0.8012, 0.7746 -0.8199 0.3976, 0.6496 -0.8199 0.3976, 0.7746 -0.8199 0.0039, 0.6496 -0.8199 0.0039, 0.6496 -1.0079 0.3976, 0.6496 -1.0079 0.0039, 0.7746 -1.0079 0.3976, 0.7746 -1.0079 0.0039, -0.9532 0.1289 0.0039, -1.1319 0.1289 0.0039, -1.1319 0.1289 0.122, 1.1319 0.1289 0.122, 1.1319 0.1289 0.0039, 0.2855 0.1289 0.122, 0.5758 0.1289 0.0039, 0.2855 0.1289 0.0236, 0.2773 0.1289 0.0039, 0.2067 0.1289 0.0236, 0.1032 0.1289 0.0039, -0.5758 0.1289 0.0039, -0.2854 0.1289 0.122, -0.4562 0.1289 0.0039, -0.2854 0.1289 0.0236, -0.2256 0.1289 0.0039, -0.2067 0.1289 0.0236, -0.0408 0.1289 0.0039, -0.2067 0.1289 0.122, 0.2067 0.1289 0.122, -0.2854 0.3898 0.122, -1.1319 0.5472 0.122, -0.2067 0.3898 0.122, 1.1319 0.5472 0.122, 0.2855 0.3898 0.122, 0.2067 0.3898 0.122, -0.2027 0.4095 0.4173, -0.2027 0.3504 0.4173, -0.2027 0.4095 1.5984, -0.2027 0.3504 1.5394, -0.2894 0.4095 1.5984, -0.2894 0.4095 0.4173, -0.2894 0.3504 0.4173, -0.2894 0.3504 1.5394, -0.2775 -0.2687 1.4103, -0.2775 -0.2894 1.5984, -0.2775 -0.2697 1.4016, -0.2775 -0.2894 0.4173, -0.2775 -0.2697 0.4173, -0.2775 -0.2658 1.4187, -0.2775 -0.2611 1.4261, -0.2775 -0.2549 1.4324, -0.2775 -0.2474 1.437, -0.2775 -0.2391 1.44, -0.2775 -0.2185 1.5984, -0.2775 -0.2303 1.4409, -0.2775 -0.1713 1.5512, -0.2775 -0.1728 1.4409, -0.2775 -0.1713 1.4409, -0.2854 -0.1713 0.4173, -0.3366 -0.1713 0.4173, -0.2854 -0.1713 1.4409, -0.3366 -0.1713 1.5512, -0.3366 -0.2894 0.4173, -0.3366 -0.2894 1.5984, -0.3366 -0.2185 1.5984, -0.1555 -0.2185 1.5984, -0.1555 -0.2894 1.5984, -0.1555 -0.1713 1.5512, -0.1555 -0.2894 0.4173, -0.1555 -0.1713 0.4173, -0.2145 -0.1713 1.4409, -0.2145 -0.1713 1.5512, -0.2067 -0.1713 1.4409, -0.2067 -0.1713 0.4173, -0.2145 -0.2391 1.44, -0.2145 -0.2474 1.437, -0.2145 -0.2894 1.5984, -0.2145 -0.2549 1.4324, -0.2145 -0.2611 1.4261, -0.2145 -0.2658 1.4187, -0.2145 -0.2697 0.4173, -0.2145 -0.2894 0.4173, -0.2145 -0.2697 1.4016, -0.2145 -0.2687 1.4103, -0.2145 -0.2303 1.4409, -0.2145 -0.2185 1.5984, -0.2145 -0.1728 1.4409
            ]
        }
        coordIndex [
            0,1,2,-1,2,1,3,-1,1,4,3,-1,3,4,5,-1,4,6,5,-1,5,6,7,-1,6,0,7,-1,7,0,2,-1,6,4,0,-1,0,4,1,-1,8,9,10,-1,10,9,11,-1,12,13,8,-1,8,13,9,-1,14,15,12,-1,12,15,13,-1,10,11,14,-1,14,11,15,-1,14,12,10,-1,10,12,8,-1,16,17,18,-1,18,17,19,-1,17,20,19,-1,19,20,21,-1,20,22,21,-1,21,22,23,-1,22,16,23,-1,23,16,18,-1,22,20,16,-1,16,20,17,-1,24,25,26,-1,27,28,29,-1,29,28,30,-1,29,30,31,-1,31,30,32,-1,31,32,33,-1,33,32,34,-1,24,26,35,-1,35,26,36,-1,35,36,37,-1,37,36,38,-1,37,38,39,-1,39,38,40,-1,39,40,41,-1,41,40,42,-1,41,42,34,-1,34,42,43,-1,34,43,33,-1,36,26,44,-1,44,26,45,-1,44,45,46,-1,27,29,47,-1,47,29,48,-1,47,48,49,-1,43,42,49,-1,49,42,46,-1,49,46,47,-1,47,46,45,-1,50,51,52,-1,52,51,53,-1,54,55,52,-1,52,55,50,-1,56,55,57,-1,57,55,54,-1,58,59,60,-1,60,59,61,-1,60,61,62,-1,58,63,59,-1,59,63,64,-1,59,64,65,-1,65,66,59,-1,59,66,67,-1,59,67,68,-1,68,67,69,-1,68,69,70,-1,70,69,71,-1,70,71,72,-1,73,74,75,-1,75,74,76,-1,75,76,72,-1,72,76,70,-1,74,77,76,-1,76,77,78,-1,76,78,79,-1,80,81,82,-1,82,81,83,-1,82,83,84,-1,85,86,87,-1,87,86,82,-1,87,82,88,-1,88,82,84,-1,89,90,91,-1,90,92,91,-1,91,92,93,-1,91,93,94,-1,95,96,97,-1,97,96,91,-1,97,91,98,-1,98,91,94,-1,89,91,99,-1,99,91,100,-1,99,100,101,-1,101,100,86,-1,101,86,85,-1,76,79,70,-1,70,79,68,-1,86,100,82,-1,82,100,80,-1,
        ]
    }
}
Shape{
    appearance Appearance {
        material  Material 	{
            diffuseColor 0.8509803921568627 0.8509803921568627 0.8509803921568627
            specularColor 0.2549019607843137 0.2549019607843137 0.2549019607843137
            ambientIntensity 0.851
            transparency 0.0
            shininess 0.5
        }
    }
    geometry IndexedFaceSet {
        ccw TRUE
        solid FALSE
        coord DEF co Coordinate {
            point [
                -0.2854 -0.0499 1.3344, -0.2067 -0.0499 1.3344, -0.2067 -0.045 1.3284, -0.2854 -0.045 1.3284, -0.2067 -0.0414 1.3216, -0.2854 -0.0414 1.3216, -0.2067 -0.0391 1.3142, -0.2854 -0.0391 1.3142, -0.2067 -0.0384 1.3065, -0.2854 -0.0384 1.3065, -0.2067 -0.0384 0.6148, -0.2854 -0.0384 0.6148, -0.2854 -0.035 0.5894, -0.2067 -0.035 0.5894, -0.2854 -0.0252 0.5656, -0.2067 -0.0252 0.5656, -0.2854 -0.0096 0.5452, -0.2067 -0.0096 0.5452, -0.2854 0.0108 0.5296, -0.2067 0.0108 0.5296, -0.2854 0.0346 0.5198, -0.2067 0.0346 0.5198, -0.2854 0.06 0.5164, -0.2067 0.06 0.5164, -0.2854 0.0855 0.5198, -0.2067 0.0855 0.5198, -0.2854 0.1093 0.5296, -0.2067 0.1093 0.5296, -0.2854 0.1296 0.5452, -0.2067 0.1296 0.5452, -0.2854 0.1453 0.5656, -0.2067 0.1453 0.5656, -0.2854 0.1551 0.5894, -0.2067 0.1551 0.5894, -0.2854 0.1585 0.6148, -0.2067 0.1585 0.6148, -0.2067 0.1585 1.3065, -0.2854 0.1585 1.3065, -0.2067 0.1592 1.3142, -0.2854 0.1592 1.3142, -0.2067 0.1615 1.3216, -0.2854 0.1615 1.3216, -0.2067 0.1651 1.3284, -0.2854 0.1651 1.3284, -0.2067 0.17 1.3344, -0.2854 0.17 1.3344, -0.2067 0.265 1.4294, -0.2854 0.265 1.4294, -0.2067 0.271 1.4343, -0.2854 0.271 1.4343, -0.2067 0.2778 1.4379, -0.2854 0.2778 1.4379, -0.2067 0.2852 1.4402, -0.2854 0.2852 1.4402, -0.2067 0.2929 1.4409, -0.2854 0.2929 1.4409, -0.2067 0.3504 1.4409, -0.2854 0.3504 1.4409, -0.2067 0.3592 1.44, -0.2854 0.3592 1.44, -0.2067 0.3675 1.437, -0.2854 0.3675 1.437, -0.2067 0.3749 1.4324, -0.2854 0.3749 1.4324, -0.2067 0.3812 1.4261, -0.2854 0.3812 1.4261, -0.2067 0.3859 1.4187, -0.2854 0.3859 1.4187, -0.2067 0.3888 1.4103, -0.2854 0.3888 1.4103, -0.2067 0.3898 1.4016, -0.2854 0.3898 1.4016, -0.2067 -0.145 1.4294, -0.2854 -0.145 1.4294, -0.2145 -0.1713 1.4409, -0.2067 -0.1713 1.4409, -0.2067 -0.1651 1.4402, -0.2854 -0.1651 1.4402, -0.2854 -0.1713 1.4409, -0.2775 -0.1713 1.4409, -0.2775 -0.1728 1.4409, -0.2145 -0.1728 1.4409, -0.2067 -0.1577 1.4379, -0.2854 -0.1577 1.4379, -0.2067 -0.1509 1.4343, -0.2854 -0.1509 1.4343, -0.2775 -0.2303 1.4409, -0.2145 -0.2303 1.4409, -0.2775 -0.2697 1.4016, -0.2145 -0.2697 1.4016, -0.2145 -0.2687 1.4103, -0.2775 -0.2687 1.4103, -0.2145 -0.2658 1.4187, -0.2775 -0.2658 1.4187, -0.2145 -0.2611 1.4261, -0.2775 -0.2611 1.4261, -0.2145 -0.2549 1.4324, -0.2775 -0.2549 1.4324, -0.2145 -0.2474 1.437, -0.2775 -0.2474 1.437, -0.2145 -0.2391 1.44, -0.2775 -0.2391 1.44, -0.2775 -0.2697 0.4173, -0.2145 -0.2697 0.4173, -0.2067 0.3898 0.4173, -0.2067 -0.1713 0.4173, -0.2854 0.3898 0.4173, -0.2854 -0.1713 0.4173, -0.2854 0.8032 0.0, -0.2854 0.4248 0.0, -0.2854 0.8228 0.0197, -0.2854 0.1289 0.0236, -0.2854 0.1289 0.122, -0.2854 0.3012 0.0236, -0.2854 0.3898 0.122, -0.2854 0.8075 0.0005, -0.2854 0.8032 0.0996, -0.2854 0.513 0.0996, -0.2854 0.4211 0.0004, -0.2854 0.8202 0.0898, -0.2854 0.8222 0.085, -0.2854 0.8228 0.0799, -0.2854 0.8082 0.0989, -0.2854 0.813 0.097, -0.2854 0.8171 0.0938, -0.2854 0.8223 0.0153, -0.2854 0.8209 0.0111, -0.2854 0.8117 0.0019, -0.2854 0.8185 0.0074, -0.2854 0.8154 0.0043, -0.2067 0.3898 0.122, -0.2067 0.1289 0.122, -0.2067 0.1289 0.0236, -0.2067 0.4248 0.0, -0.2067 0.513 0.0996, -0.2067 0.4211 0.0004, -0.2067 0.3012 0.0236, -0.2067 0.8032 0.0, -0.2067 0.8228 0.0197, -0.2067 0.8075 0.0005, -0.2067 0.8223 0.0153, -0.2067 0.8154 0.0043, -0.2067 0.8185 0.0074, -0.2067 0.8209 0.0111, -0.2067 0.8228 0.0799, -0.2067 0.8032 0.0996, -0.2067 0.8222 0.085, -0.2067 0.8202 0.0898, -0.2067 0.8117 0.0019, -0.2067 0.8171 0.0938, -0.2067 0.813 0.097, -0.2067 0.8082 0.0989
            ]
        }
        coordIndex [
            0,1,2,-1,0,2,3,-1,3,2,4,-1,3,4,5,-1,5,4,6,-1,5,6,7,-1,7,6,8,-1,7,8,9,-1,10,11,8,-1,8,11,9,-1,11,10,12,-1,12,10,13,-1,12,13,14,-1,14,13,15,-1,14,15,16,-1,16,15,17,-1,16,17,18,-1,18,17,19,-1,18,19,20,-1,20,19,21,-1,20,21,22,-1,22,21,23,-1,22,23,24,-1,24,23,25,-1,24,25,26,-1,26,25,27,-1,26,27,28,-1,28,27,29,-1,28,29,30,-1,30,29,31,-1,30,31,32,-1,32,31,33,-1,32,33,34,-1,34,33,35,-1,36,37,35,-1,35,37,34,-1,37,36,38,-1,37,38,39,-1,39,38,40,-1,39,40,41,-1,41,40,42,-1,41,42,43,-1,43,42,44,-1,43,44,45,-1,46,47,44,-1,44,47,45,-1,47,46,48,-1,47,48,49,-1,49,48,50,-1,49,50,51,-1,51,50,52,-1,51,52,53,-1,53,52,54,-1,53,54,55,-1,56,57,54,-1,54,57,55,-1,57,56,58,-1,57,58,59,-1,59,58,60,-1,59,60,61,-1,61,60,62,-1,61,62,63,-1,63,62,64,-1,63,64,65,-1,65,64,66,-1,65,66,67,-1,67,66,68,-1,67,68,69,-1,69,68,70,-1,69,70,71,-1,1,0,72,-1,72,0,73,-1,74,75,76,-1,77,78,79,-1,79,80,81,-1,81,74,79,-1,79,74,76,-1,79,76,77,-1,77,76,82,-1,77,82,83,-1,83,82,84,-1,83,84,85,-1,85,84,72,-1,85,72,73,-1,86,87,80,-1,80,87,81,-1,88,89,90,-1,88,90,91,-1,91,90,92,-1,91,92,93,-1,93,92,94,-1,93,94,95,-1,95,94,96,-1,95,96,97,-1,97,96,98,-1,97,98,99,-1,99,98,100,-1,99,100,101,-1,101,100,87,-1,101,87,86,-1,102,103,88,-1,88,103,89,-1,33,31,104,-1,104,31,29,-1,104,29,27,-1,15,105,17,-1,17,105,19,-1,27,25,104,-1,104,25,23,-1,104,23,105,-1,105,23,21,-1,105,21,19,-1,58,56,70,-1,44,42,40,-1,1,72,75,-1,52,50,104,-1,40,38,44,-1,44,38,36,-1,44,36,104,-1,104,36,35,-1,104,35,33,-1,70,56,104,-1,104,56,54,-1,104,54,52,-1,50,48,104,-1,104,48,46,-1,104,46,44,-1,84,82,72,-1,72,82,76,-1,72,76,75,-1,15,13,105,-1,105,13,10,-1,105,10,75,-1,75,10,8,-1,75,8,1,-1,1,8,6,-1,1,6,2,-1,2,6,4,-1,64,62,66,-1,66,62,68,-1,68,62,70,-1,70,62,60,-1,70,60,58,-1,26,28,106,-1,11,12,107,-1,12,14,107,-1,107,14,16,-1,107,16,18,-1,28,30,106,-1,106,30,32,-1,106,32,34,-1,18,20,107,-1,107,20,22,-1,107,22,106,-1,106,22,24,-1,106,24,26,-1,34,37,45,-1,37,39,45,-1,45,39,41,-1,45,41,43,-1,49,51,106,-1,78,77,107,-1,107,77,83,-1,11,107,9,-1,9,107,0,-1,9,0,7,-1,7,0,3,-1,7,3,5,-1,34,45,106,-1,106,45,47,-1,106,47,49,-1,51,53,106,-1,106,53,55,-1,106,55,57,-1,83,85,107,-1,107,85,73,-1,107,73,0,-1,59,69,57,-1,57,69,71,-1,57,71,106,-1,65,67,63,-1,63,67,69,-1,63,69,61,-1,61,69,59,-1,71,70,106,-1,106,70,104,-1,108,109,110,-1,111,112,113,-1,113,112,114,-1,108,110,115,-1,116,110,117,-1,117,110,109,-1,117,109,114,-1,114,109,118,-1,114,118,113,-1,119,120,116,-1,116,120,121,-1,116,121,110,-1,122,123,116,-1,116,123,124,-1,116,124,119,-1,110,125,115,-1,115,125,126,-1,115,126,127,-1,127,126,128,-1,127,128,129,-1,130,131,132,-1,133,134,135,-1,135,134,130,-1,135,130,136,-1,136,130,132,-1,133,137,138,-1,138,137,139,-1,138,139,140,-1,141,142,143,-1,133,138,134,-1,134,138,144,-1,134,144,145,-1,145,144,146,-1,145,146,147,-1,140,139,143,-1,143,139,148,-1,143,148,141,-1,147,149,145,-1,145,149,150,-1,145,150,151,-1,134,117,130,-1,130,117,114,-1,145,116,134,-1,134,116,117,-1,116,145,151,-1,116,151,122,-1,122,151,150,-1,122,150,123,-1,123,150,149,-1,123,149,124,-1,124,149,147,-1,124,147,119,-1,119,147,146,-1,119,146,120,-1,120,146,144,-1,120,144,121,-1,138,110,144,-1,144,110,121,-1,110,138,140,-1,110,140,125,-1,125,140,143,-1,125,143,126,-1,126,143,142,-1,126,142,128,-1,128,142,141,-1,128,141,129,-1,129,141,148,-1,129,148,127,-1,127,148,139,-1,127,139,115,-1,115,139,137,-1,115,137,108,-1,133,109,137,-1,137,109,108,-1,133,135,109,-1,109,135,118,-1,136,113,135,-1,135,113,118,-1,132,111,136,-1,136,111,113,-1,
        ]
    }
}
Shape{
    appearance Appearance {
        material  Material 	{
            diffuseColor 1.0 0.9529411764705882 0.792156862745098
            specularColor 0.30196078431372547 0.28627450980392155 0.23921568627450981
            ambientIntensity 0.9487
            transparency 0.0
            shininess 0.5
        }
    }
    geometry IndexedFaceSet {
        ccw TRUE
        solid FALSE
        coord DEF co Coordinate {
            point [
                0.2894 0.4095 0.4173, 0.2894 0.3504 0.4173, 0.2894 0.4095 1.5984, 0.2894 0.3504 1.5394, 0.2028 0.4095 1.5984, 0.2028 0.4095 0.4173, 0.2028 0.3504 0.4173, 0.2028 0.3504 1.5394, 0.2146 -0.2687 1.4103, 0.2146 -0.2894 1.5984, 0.2146 -0.2697 1.4016, 0.2146 -0.2894 0.4173, 0.2146 -0.2697 0.4173, 0.2146 -0.2658 1.4187, 0.2146 -0.2611 1.4261, 0.2146 -0.2549 1.4324, 0.2146 -0.2474 1.437, 0.2146 -0.2391 1.44, 0.2146 -0.2185 1.5984, 0.2146 -0.2303 1.4409, 0.2146 -0.1713 1.5512, 0.2146 -0.1728 1.4409, 0.2146 -0.1713 1.4409, 0.2067 -0.1713 0.4173, 0.1555 -0.1713 0.4173, 0.2067 -0.1713 1.4409, 0.1555 -0.1713 1.5512, 0.1555 -0.2185 1.5984, 0.1555 -0.2894 0.4173, 0.1555 -0.2894 1.5984, 0.3366 -0.2185 1.5984, 0.3366 -0.2894 1.5984, 0.3366 -0.1713 1.5512, 0.3366 -0.2894 0.4173, 0.3366 -0.1713 0.4173, 0.2776 -0.1713 1.4409, 0.2776 -0.1713 1.5512, 0.2855 -0.1713 1.4409, 0.2855 -0.1713 0.4173, 0.2776 -0.2391 1.44, 0.2776 -0.2474 1.437, 0.2776 -0.2894 1.5984, 0.2776 -0.2549 1.4324, 0.2776 -0.2611 1.4261, 0.2776 -0.2658 1.4187, 0.2776 -0.2697 0.4173, 0.2776 -0.2894 0.4173, 0.2776 -0.2697 1.4016, 0.2776 -0.2687 1.4103, 0.2776 -0.2303 1.4409, 0.2776 -0.2185 1.5984, 0.2776 -0.1728 1.4409
            ]
        }
        coordIndex [
            0,1,2,-1,2,1,3,-1,4,5,2,-1,2,5,0,-1,6,5,7,-1,7,5,4,-1,8,9,10,-1,10,9,11,-1,10,11,12,-1,8,13,9,-1,9,13,14,-1,9,14,15,-1,15,16,9,-1,9,16,17,-1,9,17,18,-1,18,17,19,-1,18,19,20,-1,20,19,21,-1,20,21,22,-1,23,24,25,-1,25,24,26,-1,25,26,22,-1,22,26,20,-1,26,24,27,-1,27,24,28,-1,27,28,29,-1,30,31,32,-1,32,31,33,-1,32,33,34,-1,35,36,37,-1,37,36,32,-1,37,32,38,-1,38,32,34,-1,39,40,41,-1,40,42,41,-1,41,42,43,-1,41,43,44,-1,45,46,47,-1,47,46,41,-1,47,41,48,-1,48,41,44,-1,39,41,49,-1,49,41,50,-1,49,50,51,-1,51,50,36,-1,51,36,35,-1,26,27,20,-1,20,27,18,-1,36,50,32,-1,32,50,30,-1,
        ]
    }
}
Shape{
    appearance Appearance {
        material  Material 	{
            diffuseColor 0.8509803921568627 0.8509803921568627 0.8509803921568627
            specularColor 0.2549019607843137 0.2549019607843137 0.2549019607843137
            ambientIntensity 0.851
            transparency 0.0
            shininess 0.5
        }
    }
    geometry IndexedFaceSet {
        ccw TRUE
        solid FALSE
        coord DEF co Coordinate {
            point [
                0.2067 -0.0499 1.3344, 0.2855 -0.0499 1.3344, 0.2855 -0.045 1.3284, 0.2067 -0.045 1.3284, 0.2855 -0.0414 1.3216, 0.2067 -0.0414 1.3216, 0.2855 -0.0391 1.3142, 0.2067 -0.0391 1.3142, 0.2855 -0.0384 1.3065, 0.2067 -0.0384 1.3065, 0.2855 -0.0384 0.6148, 0.2067 -0.0384 0.6148, 0.2067 -0.035 0.5894, 0.2855 -0.035 0.5894, 0.2067 -0.0252 0.5656, 0.2855 -0.0252 0.5656, 0.2067 -0.0096 0.5452, 0.2855 -0.0096 0.5452, 0.2067 0.0108 0.5296, 0.2855 0.0108 0.5296, 0.2067 0.0346 0.5198, 0.2855 0.0346 0.5198, 0.2067 0.06 0.5164, 0.2855 0.06 0.5164, 0.2067 0.0855 0.5198, 0.2855 0.0855 0.5198, 0.2067 0.1093 0.5296, 0.2855 0.1093 0.5296, 0.2067 0.1296 0.5452, 0.2855 0.1296 0.5452, 0.2067 0.1453 0.5656, 0.2855 0.1453 0.5656, 0.2067 0.1551 0.5894, 0.2855 0.1551 0.5894, 0.2067 0.1585 0.6148, 0.2855 0.1585 0.6148, 0.2855 0.1585 1.3065, 0.2067 0.1585 1.3065, 0.2855 0.1592 1.3142, 0.2067 0.1592 1.3142, 0.2855 0.1615 1.3216, 0.2067 0.1615 1.3216, 0.2855 0.1651 1.3284, 0.2067 0.1651 1.3284, 0.2855 0.17 1.3344, 0.2067 0.17 1.3344, 0.2855 0.265 1.4294, 0.2067 0.265 1.4294, 0.2855 0.271 1.4343, 0.2067 0.271 1.4343, 0.2855 0.2778 1.4379, 0.2067 0.2778 1.4379, 0.2855 0.2852 1.4402, 0.2067 0.2852 1.4402, 0.2855 0.2929 1.4409, 0.2067 0.2929 1.4409, 0.2855 0.3504 1.4409, 0.2067 0.3504 1.4409, 0.2855 0.3592 1.44, 0.2067 0.3592 1.44, 0.2855 0.3675 1.437, 0.2067 0.3675 1.437, 0.2855 0.3749 1.4324, 0.2067 0.3749 1.4324, 0.2855 0.3812 1.4261, 0.2067 0.3812 1.4261, 0.2855 0.3859 1.4187, 0.2067 0.3859 1.4187, 0.2855 0.3888 1.4103, 0.2067 0.3888 1.4103, 0.2855 0.3898 1.4016, 0.2067 0.3898 1.4016, 0.2855 -0.145 1.4294, 0.2067 -0.145 1.4294, 0.2776 -0.1713 1.4409, 0.2855 -0.1713 1.4409, 0.2855 -0.1651 1.4402, 0.2067 -0.1651 1.4402, 0.2067 -0.1713 1.4409, 0.2146 -0.1713 1.4409, 0.2146 -0.1728 1.4409, 0.2776 -0.1728 1.4409, 0.2855 -0.1577 1.4379, 0.2067 -0.1577 1.4379, 0.2855 -0.1509 1.4343, 0.2067 -0.1509 1.4343, 0.2146 -0.2303 1.4409, 0.2776 -0.2303 1.4409, 0.2146 -0.2697 1.4016, 0.2776 -0.2697 1.4016, 0.2776 -0.2687 1.4103, 0.2146 -0.2687 1.4103, 0.2776 -0.2658 1.4187, 0.2146 -0.2658 1.4187, 0.2776 -0.2611 1.4261, 0.2146 -0.2611 1.4261, 0.2776 -0.2549 1.4324, 0.2146 -0.2549 1.4324, 0.2776 -0.2474 1.437, 0.2146 -0.2474 1.437, 0.2776 -0.2391 1.44, 0.2146 -0.2391 1.44, 0.2146 -0.2697 0.4173, 0.2776 -0.2697 0.4173, 0.2855 0.3898 0.4173, 0.2855 -0.1713 0.4173, 0.2067 0.3898 0.4173, 0.2067 -0.1713 0.4173, 0.2067 0.8032 0.0, 0.2067 0.4248 0.0, 0.2067 0.8228 0.0197, 0.2067 0.1289 0.0236, 0.2067 0.1289 0.122, 0.2067 0.3012 0.0236, 0.2067 0.3898 0.122, 0.2067 0.8075 0.0005, 0.2067 0.8032 0.0996, 0.2067 0.513 0.0996, 0.2067 0.4211 0.0004, 0.2067 0.8202 0.0898, 0.2067 0.8222 0.085, 0.2067 0.8228 0.0799, 0.2067 0.8082 0.0989, 0.2067 0.813 0.097, 0.2067 0.8171 0.0938, 0.2067 0.8223 0.0153, 0.2067 0.8209 0.0111, 0.2067 0.8117 0.0019, 0.2067 0.8185 0.0074, 0.2067 0.8154 0.0043, 0.2855 0.3898 0.122, 0.2855 0.1289 0.122, 0.2855 0.1289 0.0236, 0.2855 0.4248 0.0, 0.2855 0.513 0.0996, 0.2855 0.4211 0.0004, 0.2855 0.3012 0.0236, 0.2855 0.8032 0.0, 0.2855 0.8228 0.0197, 0.2855 0.8075 0.0005, 0.2855 0.8223 0.0153, 0.2855 0.8154 0.0043, 0.2855 0.8185 0.0074, 0.2855 0.8209 0.0111, 0.2855 0.8228 0.0799, 0.2855 0.8032 0.0996, 0.2855 0.8222 0.085, 0.2855 0.8202 0.0898, 0.2855 0.8117 0.0019, 0.2855 0.8171 0.0938, 0.2855 0.813 0.097, 0.2855 0.8082 0.0989
            ]
        }
        coordIndex [
            0,1,2,-1,0,2,3,-1,3,2,4,-1,3,4,5,-1,5,4,6,-1,5,6,7,-1,7,6,8,-1,7,8,9,-1,10,11,8,-1,8,11,9,-1,11,10,12,-1,12,10,13,-1,12,13,14,-1,14,13,15,-1,14,15,16,-1,16,15,17,-1,16,17,18,-1,18,17,19,-1,18,19,20,-1,20,19,21,-1,20,21,22,-1,22,21,23,-1,22,23,24,-1,24,23,25,-1,24,25,26,-1,26,25,27,-1,26,27,28,-1,28,27,29,-1,28,29,30,-1,30,29,31,-1,30,31,32,-1,32,31,33,-1,32,33,34,-1,34,33,35,-1,36,37,35,-1,35,37,34,-1,37,36,38,-1,37,38,39,-1,39,38,40,-1,39,40,41,-1,41,40,42,-1,41,42,43,-1,43,42,44,-1,43,44,45,-1,46,47,44,-1,44,47,45,-1,47,46,48,-1,47,48,49,-1,49,48,50,-1,49,50,51,-1,51,50,52,-1,51,52,53,-1,53,52,54,-1,53,54,55,-1,56,57,54,-1,54,57,55,-1,57,56,58,-1,57,58,59,-1,59,58,60,-1,59,60,61,-1,61,60,62,-1,61,62,63,-1,63,62,64,-1,63,64,65,-1,65,64,66,-1,65,66,67,-1,67,66,68,-1,67,68,69,-1,69,68,70,-1,69,70,71,-1,1,0,72,-1,72,0,73,-1,74,75,76,-1,77,78,79,-1,79,80,81,-1,81,74,79,-1,79,74,76,-1,79,76,77,-1,77,76,82,-1,77,82,83,-1,83,82,84,-1,83,84,85,-1,85,84,72,-1,85,72,73,-1,86,87,80,-1,80,87,81,-1,88,89,90,-1,88,90,91,-1,91,90,92,-1,91,92,93,-1,93,92,94,-1,93,94,95,-1,95,94,96,-1,95,96,97,-1,97,96,98,-1,97,98,99,-1,99,98,100,-1,99,100,101,-1,101,100,87,-1,101,87,86,-1,102,103,88,-1,88,103,89,-1,35,33,104,-1,35,104,36,-1,33,31,104,-1,104,31,29,-1,104,29,27,-1,15,105,17,-1,17,105,19,-1,27,25,104,-1,104,25,23,-1,104,23,105,-1,105,23,21,-1,105,21,19,-1,58,56,70,-1,40,38,36,-1,70,56,104,-1,104,56,54,-1,104,54,36,-1,15,13,105,-1,105,13,10,-1,105,10,75,-1,75,10,8,-1,54,52,50,-1,40,36,42,-1,1,6,2,-1,2,6,4,-1,72,75,1,-1,1,75,8,-1,1,8,6,-1,64,62,66,-1,66,62,68,-1,68,62,70,-1,70,62,60,-1,70,60,58,-1,50,48,54,-1,54,48,46,-1,54,46,36,-1,36,46,44,-1,36,44,42,-1,84,82,72,-1,72,82,76,-1,72,76,75,-1,26,28,106,-1,11,12,107,-1,12,14,107,-1,107,14,16,-1,107,16,18,-1,28,30,106,-1,106,30,32,-1,106,32,34,-1,18,20,107,-1,107,20,22,-1,107,22,106,-1,106,22,24,-1,106,24,26,-1,73,0,9,-1,34,37,45,-1,83,85,73,-1,37,39,45,-1,45,39,41,-1,45,41,43,-1,49,51,106,-1,9,0,7,-1,7,0,3,-1,7,3,5,-1,34,45,106,-1,106,45,47,-1,106,47,49,-1,51,53,106,-1,106,53,55,-1,106,55,57,-1,11,107,9,-1,9,107,78,-1,9,78,73,-1,73,78,77,-1,73,77,83,-1,59,69,57,-1,57,69,71,-1,57,71,106,-1,65,67,63,-1,63,67,69,-1,63,69,61,-1,61,69,59,-1,71,70,106,-1,106,70,104,-1,108,109,110,-1,111,112,113,-1,113,112,114,-1,108,110,115,-1,116,110,117,-1,117,110,109,-1,117,109,114,-1,114,109,118,-1,114,118,113,-1,119,120,116,-1,116,120,121,-1,116,121,110,-1,122,123,116,-1,116,123,124,-1,116,124,119,-1,110,125,115,-1,115,125,126,-1,115,126,127,-1,127,126,128,-1,127,128,129,-1,130,131,132,-1,133,134,135,-1,135,134,130,-1,135,130,136,-1,136,130,132,-1,133,137,138,-1,138,137,139,-1,138,139,140,-1,141,142,143,-1,133,138,134,-1,134,138,144,-1,134,144,145,-1,145,144,146,-1,145,146,147,-1,140,139,143,-1,143,139,148,-1,143,148,141,-1,147,149,145,-1,145,149,150,-1,145,150,151,-1,134,117,130,-1,130,117,114,-1,145,116,134,-1,134,116,117,-1,116,145,151,-1,116,151,122,-1,122,151,150,-1,122,150,123,-1,123,150,149,-1,123,149,124,-1,124,149,147,-1,124,147,119,-1,119,147,146,-1,119,146,120,-1,120,146,144,-1,120,144,121,-1,138,110,144,-1,144,110,121,-1,110,138,140,-1,110,140,125,-1,125,140,143,-1,125,143,126,-1,126,143,142,-1,126,142,128,-1,128,142,141,-1,128,141,129,-1,129,141,148,-1,129,148,127,-1,127,148,139,-1,127,139,115,-1,115,139,137,-1,115,137,108,-1,133,109,137,-1,137,109,108,-1,133,135,109,-1,109,135,118,-1,136,113,135,-1,135,113,118,-1,132,111,136,-1,136,111,113,-1,
        ]
    }
}
Shape{
    appearance Appearance {
        material  Material 	{
            diffuseColor 0.2235294117647059 0.2235294117647059 0.2235294117647059
            specularColor 0.11372549019607843 0.11372549019607843 0.11372549019607843
            ambientIntensity 0.2235
            transparency 0.0
            shininess 0.5
        }
    }
    geometry IndexedFaceSet {
        ccw TRUE
        solid FALSE
        coord DEF co Coordinate {
            point [
                -0.3337 -0.0432 0.0079, -0.4105 -0.2401 0.0079, -0.3337 -0.0432 0.0039, -0.4105 -0.2401 0.0039, -0.3817 -0.2401 0.0079, -0.3817 -0.2401 0.0039, -0.3618 -0.1849 0.0079, -0.3618 -0.1849 0.0039, -0.2804 -0.1849 0.0079, -0.2804 -0.1849 0.0039, -0.2616 -0.2401 0.0079, -0.2616 -0.2401 0.0039, -0.2328 -0.2401 0.0079, -0.2328 -0.2401 0.0039, -0.3073 -0.0432 0.0079, -0.3073 -0.0432 0.0039, -0.2871 -0.1632 0.0079, -0.3529 -0.1632 0.0079, -0.3164 -0.081 0.0079, -0.3183 -0.0742 0.0079, -0.3196 -0.0672 0.0079, -0.3202 -0.0672 0.0079, -0.3215 -0.0742 0.0079, -0.3233 -0.081 0.0079, -0.2871 -0.1632 0.0039, -0.3529 -0.1632 0.0039, -0.3164 -0.081 0.0039, -0.3183 -0.0742 0.0039, -0.3196 -0.0672 0.0039, -0.3202 -0.0672 0.0039, -0.3215 -0.0742 0.0039, -0.3233 -0.081 0.0039, -0.1135 -0.2401 0.0079, -0.06 -0.2401 0.0079, -0.1135 -0.2401 0.0039, -0.06 -0.2401 0.0039, -0.06 -0.0432 0.0079, -0.06 -0.0432 0.0039, -0.1155 -0.0432 0.0079, -0.1155 -0.0432 0.0039, -0.2184 -0.1392 0.0079, -0.2184 -0.1392 0.0039, -0.217 -0.1206 0.0039, -0.217 -0.1206 0.0079, -0.2117 -0.1012 0.0039, -0.2117 -0.1012 0.0079, -0.2026 -0.0843 0.0039, -0.2026 -0.0843 0.0079, -0.1886 -0.0689 0.0039, -0.1886 -0.0689 0.0079, -0.1884 -0.0687 0.0039, -0.1884 -0.0687 0.0079, -0.167 -0.0543 0.0039, -0.167 -0.0543 0.0079, -0.144 -0.0463 0.0039, -0.144 -0.0463 0.0079, -0.1379 -0.2379 0.0039, -0.1379 -0.2379 0.0079, -0.1606 -0.2312 0.0039, -0.1606 -0.2312 0.0079, -0.1811 -0.2192 0.0039, -0.1811 -0.2192 0.0079, -0.1973 -0.2037 0.0039, -0.1973 -0.2037 0.0079, -0.2086 -0.1861 0.0039, -0.2086 -0.1861 0.0079, -0.2157 -0.1655 0.0039, -0.2157 -0.1655 0.0079, -0.1789 -0.0924 0.0079, -0.1694 -0.0823 0.0079, -0.155 -0.073 0.0079, -0.1387 -0.0673 0.0079, -0.1154 -0.0648 0.0079, -0.0864 -0.0648 0.0079, -0.0864 -0.2185 0.0079, -0.1143 -0.2185 0.0079, -0.1351 -0.2165 0.0079, -0.1517 -0.2114 0.0079, -0.1651 -0.2034 0.0079, -0.1761 -0.1925 0.0079, -0.1844 -0.1789 0.0079, -0.1902 -0.1604 0.0079, -0.192 -0.1397 0.0079, -0.1904 -0.1201 0.0079, -0.1858 -0.1046 0.0079, -0.1154 -0.0648 0.0039, -0.0864 -0.0648 0.0039, -0.1387 -0.0673 0.0039, -0.155 -0.073 0.0039, -0.1694 -0.0823 0.0039, -0.1789 -0.0924 0.0039, -0.1858 -0.1046 0.0039, -0.1904 -0.1201 0.0039, -0.192 -0.1397 0.0039, -0.1902 -0.1604 0.0039, -0.1844 -0.1789 0.0039, -0.1761 -0.1925 0.0039, -0.1651 -0.2034 0.0039, -0.1517 -0.2114 0.0039, -0.1351 -0.2165 0.0039, -0.1143 -0.2185 0.0039, -0.0864 -0.2185 0.0039, -0.0216 -0.2185 0.0079, -0.0216 -0.2401 0.0079, -0.0216 -0.2185 0.0039, -0.0216 -0.2401 0.0039, 0.084 -0.2401 0.0079, 0.084 -0.2401 0.0039, 0.084 -0.0432 0.0079, 0.084 -0.0432 0.0039, -0.0168 -0.0432 0.0079, -0.0168 -0.0432 0.0039, -0.0168 -0.0648 0.0079, -0.0168 -0.0648 0.0039, 0.0576 -0.0648 0.0079, 0.0576 -0.0648 0.0039, 0.0576 -0.1296 0.0079, 0.0576 -0.1296 0.0039, -0.012 -0.1296 0.0079, -0.012 -0.1296 0.0039, -0.012 -0.1512 0.0079, -0.012 -0.1512 0.0039, 0.0576 -0.1512 0.0079, 0.0576 -0.1512 0.0039, 0.0576 -0.2185 0.0079, 0.0576 -0.2185 0.0039, 0.1225 -0.2083 0.0079, 0.1225 -0.2299 0.0079, 0.1225 -0.2083 0.0039, 0.1225 -0.2299 0.0039, 0.1434 -0.2385 0.0079, 0.1766 -0.2425 0.0079, 0.1766 -0.2425 0.0039, 0.1712 -0.2424 0.0039, 0.1712 -0.2424 0.0079, 0.1633 -0.2413 0.0039, 0.1434 -0.2385 0.0039, 0.2689 -0.1454 0.0079, 0.2689 -0.1454 0.0039, 0.267 -0.1682 0.0039, 0.267 -0.1682 0.0079, 0.2611 -0.189 0.0039, 0.2611 -0.189 0.0079, 0.2506 -0.2077 0.0039, 0.2506 -0.2077 0.0079, 0.2358 -0.2233 0.0039, 0.2358 -0.2233 0.0079, 0.22 -0.2334 0.0039, 0.22 -0.2334 0.0079, 0.2009 -0.24 0.0039, 0.2009 -0.24 0.0079, 0.1882 -0.2413 0.0039, 0.1688 -0.0408 0.0079, 0.1688 -0.0408 0.0039, 0.1885 -0.0424 0.0079, 0.1835 -0.042 0.0039, 0.1885 -0.0424 0.0039, 0.2105 -0.0488 0.0039, 0.2105 -0.0488 0.0079, 0.2292 -0.0596 0.0039, 0.2292 -0.0596 0.0079, 0.247 -0.0767 0.0039, 0.247 -0.0767 0.0079, 0.2585 -0.0951 0.0039, 0.2585 -0.0951 0.0079, 0.2661 -0.1174 0.0039, 0.2661 -0.1174 0.0079, 0.1514 -0.042 0.0039, 0.1452 -0.0424 0.0079, 0.1452 -0.0424 0.0039, 0.1225 -0.0486 0.0079, 0.1225 -0.0486 0.0039, 0.1225 -0.075 0.0079, 0.1225 -0.075 0.0039, 0.1686 -0.0624 0.0079, 0.1686 -0.0624 0.0039, 0.1446 -0.0655 0.0039, 0.1446 -0.0655 0.0079, 0.2425 -0.1437 0.0079, 0.2425 -0.1437 0.0039, 0.2415 -0.1284 0.0039, 0.2415 -0.1284 0.0079, 0.2363 -0.1074 0.0039, 0.2363 -0.1074 0.0079, 0.2282 -0.0922 0.0039, 0.2282 -0.0922 0.0079, 0.2163 -0.079 0.0039, 0.2163 -0.079 0.0079, 0.2027 -0.0699 0.0039, 0.2027 -0.0699 0.0079, 0.1879 -0.0646 0.0039, 0.1879 -0.0646 0.0079, 0.173 -0.2209 0.0079, 0.173 -0.2209 0.0039, 0.1913 -0.2188 0.0039, 0.1913 -0.2188 0.0079, 0.2057 -0.2135 0.0039, 0.2057 -0.2135 0.0079, 0.2178 -0.2054 0.0039, 0.2178 -0.2054 0.0079, 0.227 -0.1956 0.0039, 0.227 -0.1956 0.0079, 0.2351 -0.182 0.0039, 0.2351 -0.182 0.0079, 0.2405 -0.1651 0.0039, 0.2405 -0.1651 0.0079, 0.126 -0.2102 0.0039, 0.126 -0.2102 0.0079, 0.1468 -0.218 0.0039, 0.1468 -0.218 0.0079, 0.2857 -0.2185 0.0079, 0.2857 -0.2401 0.0079, 0.2857 -0.2185 0.0039, 0.2857 -0.2401 0.0039, 0.3865 -0.2401 0.0079, 0.3865 -0.2401 0.0039, 0.3865 -0.0432 0.0079, 0.3865 -0.0432 0.0039, 0.3601 -0.0432 0.0079, 0.3601 -0.0432 0.0039, 0.3601 -0.2185 0.0079, 0.3601 -0.2185 0.0039
            ]
        }
        coordIndex [
            0,1,2,-1,2,1,3,-1,1,4,3,-1,3,4,5,-1,4,6,5,-1,5,6,7,-1,6,8,7,-1,7,8,9,-1,8,10,9,-1,9,10,11,-1,10,12,11,-1,11,12,13,-1,12,14,13,-1,13,14,15,-1,14,0,15,-1,15,0,2,-1,16,8,17,-1,17,8,6,-1,18,14,16,-1,16,14,12,-1,16,12,8,-1,8,12,10,-1,18,19,14,-1,14,19,20,-1,14,20,0,-1,0,20,21,-1,0,21,22,-1,22,23,0,-1,0,23,17,-1,0,17,1,-1,1,17,6,-1,1,6,4,-1,16,17,24,-1,24,17,25,-1,18,16,26,-1,26,16,24,-1,18,26,27,-1,18,27,19,-1,19,27,28,-1,19,28,20,-1,21,20,29,-1,29,20,28,-1,21,29,30,-1,21,30,22,-1,22,30,31,-1,22,31,23,-1,17,23,25,-1,25,23,31,-1,32,33,34,-1,34,33,35,-1,33,36,35,-1,35,36,37,-1,36,38,37,-1,37,38,39,-1,40,41,42,-1,40,42,43,-1,43,42,44,-1,43,44,45,-1,45,44,46,-1,45,46,47,-1,47,46,48,-1,47,48,49,-1,49,48,50,-1,49,50,51,-1,51,50,52,-1,51,52,53,-1,53,52,54,-1,53,54,55,-1,55,54,39,-1,55,39,38,-1,32,34,56,-1,32,56,57,-1,57,56,58,-1,57,58,59,-1,59,58,60,-1,59,60,61,-1,61,60,62,-1,61,62,63,-1,63,62,64,-1,63,64,65,-1,65,64,66,-1,65,66,67,-1,67,66,41,-1,67,41,40,-1,45,47,68,-1,68,47,49,-1,68,49,69,-1,69,49,51,-1,69,51,70,-1,70,51,53,-1,70,53,71,-1,71,53,55,-1,71,55,72,-1,72,55,38,-1,72,38,73,-1,73,38,36,-1,73,36,74,-1,74,36,33,-1,74,33,75,-1,75,33,32,-1,75,32,76,-1,76,32,57,-1,76,57,77,-1,77,57,59,-1,77,59,78,-1,78,59,61,-1,78,61,79,-1,79,61,63,-1,79,63,80,-1,80,63,65,-1,80,65,81,-1,81,65,67,-1,81,67,82,-1,82,67,40,-1,82,40,83,-1,83,40,43,-1,83,43,84,-1,84,43,45,-1,84,45,68,-1,72,73,85,-1,85,73,86,-1,72,85,87,-1,72,87,71,-1,71,87,88,-1,71,88,70,-1,70,88,89,-1,70,89,69,-1,69,89,90,-1,69,90,68,-1,68,90,91,-1,68,91,84,-1,84,91,92,-1,84,92,83,-1,83,92,93,-1,83,93,82,-1,82,93,94,-1,82,94,81,-1,81,94,95,-1,81,95,80,-1,80,95,96,-1,80,96,79,-1,79,96,97,-1,79,97,78,-1,78,97,98,-1,78,98,77,-1,77,98,99,-1,77,99,76,-1,76,99,100,-1,76,100,75,-1,74,75,101,-1,101,75,100,-1,73,74,86,-1,86,74,101,-1,102,103,104,-1,104,103,105,-1,103,106,105,-1,105,106,107,-1,106,108,107,-1,107,108,109,-1,108,110,109,-1,109,110,111,-1,110,112,111,-1,111,112,113,-1,112,114,113,-1,113,114,115,-1,114,116,115,-1,115,116,117,-1,116,118,117,-1,117,118,119,-1,118,120,119,-1,119,120,121,-1,120,122,121,-1,121,122,123,-1,122,124,123,-1,123,124,125,-1,124,102,125,-1,125,102,104,-1,106,103,102,-1,102,124,106,-1,106,124,122,-1,106,122,108,-1,112,110,114,-1,114,110,108,-1,114,108,116,-1,116,108,122,-1,116,122,118,-1,118,122,120,-1,126,127,128,-1,128,127,129,-1,129,127,130,-1,131,132,133,-1,131,133,134,-1,134,133,135,-1,134,135,130,-1,130,135,136,-1,130,136,129,-1,137,138,139,-1,137,139,140,-1,140,139,141,-1,140,141,142,-1,142,141,143,-1,142,143,144,-1,144,143,145,-1,144,145,146,-1,146,145,147,-1,146,147,148,-1,148,147,149,-1,148,149,150,-1,150,149,131,-1,131,149,151,-1,131,151,132,-1,152,153,154,-1,154,153,155,-1,155,156,154,-1,154,156,157,-1,154,157,158,-1,158,157,159,-1,158,159,160,-1,160,159,161,-1,160,161,162,-1,162,161,163,-1,162,163,164,-1,164,163,165,-1,164,165,166,-1,166,165,138,-1,166,138,137,-1,153,152,167,-1,167,152,168,-1,167,168,169,-1,169,168,170,-1,169,170,171,-1,170,172,171,-1,171,172,173,-1,174,175,176,-1,174,176,177,-1,177,176,173,-1,177,173,172,-1,178,179,180,-1,178,180,181,-1,181,180,182,-1,181,182,183,-1,183,182,184,-1,183,184,185,-1,185,184,186,-1,185,186,187,-1,187,186,188,-1,187,188,189,-1,189,188,190,-1,189,190,191,-1,191,190,175,-1,191,175,174,-1,192,193,194,-1,192,194,195,-1,195,194,196,-1,195,196,197,-1,197,196,198,-1,197,198,199,-1,199,198,200,-1,199,200,201,-1,201,200,202,-1,201,202,203,-1,203,202,204,-1,203,204,205,-1,205,204,179,-1,205,179,178,-1,126,128,206,-1,126,206,207,-1,207,206,208,-1,207,208,209,-1,209,208,193,-1,209,193,192,-1,195,131,192,-1,192,131,134,-1,192,134,209,-1,209,134,130,-1,209,130,207,-1,207,130,127,-1,207,127,126,-1,172,170,177,-1,177,170,168,-1,177,168,174,-1,174,168,152,-1,174,152,191,-1,191,152,154,-1,191,154,189,-1,189,154,158,-1,189,158,187,-1,187,158,160,-1,187,160,185,-1,185,160,162,-1,185,162,183,-1,183,162,164,-1,183,164,181,-1,181,164,166,-1,181,166,178,-1,178,166,137,-1,178,137,205,-1,205,137,140,-1,205,140,203,-1,203,140,142,-1,203,142,201,-1,201,142,144,-1,201,144,199,-1,199,144,146,-1,199,146,197,-1,197,146,148,-1,197,148,195,-1,195,148,150,-1,195,150,131,-1,210,211,212,-1,212,211,213,-1,211,214,213,-1,213,214,215,-1,214,216,215,-1,215,216,217,-1,216,218,217,-1,217,218,219,-1,218,220,219,-1,219,220,221,-1,220,210,221,-1,221,210,212,-1,218,216,220,-1,220,216,214,-1,220,214,210,-1,210,214,211,-1,
        ]
    }
}
Shape{
    appearance Appearance {
        material  Material 	{
            diffuseColor 1.0 0.9529411764705882 0.792156862745098
            specularColor 0.30196078431372547 0.28627450980392155 0.23921568627450981
            ambientIntensity 0.9487
            transparency 0.0
            shininess 0.5
        }
    }
    geometry IndexedFaceSet {
        ccw TRUE
        solid FALSE
        coord DEF co Coordinate {
            point [
                -0.2871 -0.1632 0.0039, -0.3529 -0.1632 0.0039, -0.3164 -0.081 0.0039, -0.3233 -0.081 0.0039, -0.3183 -0.0742 0.0039, -0.3215 -0.0742 0.0039, -0.3196 -0.0672 0.0039, -0.3202 -0.0672 0.0039, -0.0864 -0.0648 0.0039, -0.0864 -0.2185 0.0039, -0.1154 -0.0648 0.0039, -0.1143 -0.2185 0.0039, -0.1351 -0.2165 0.0039, -0.192 -0.1397 0.0039, -0.1904 -0.1201 0.0039, -0.1858 -0.1046 0.0039, -0.1387 -0.0673 0.0039, -0.1517 -0.2114 0.0039, -0.1651 -0.2034 0.0039, -0.1761 -0.1925 0.0039, -0.1844 -0.1789 0.0039, -0.1902 -0.1604 0.0039, -0.1789 -0.0924 0.0039, -0.1694 -0.0823 0.0039, -0.155 -0.073 0.0039
            ]
        }
        coordIndex [
            0,1,2,-1,2,1,3,-1,2,3,4,-1,4,3,5,-1,4,5,6,-1,6,5,7,-1,8,9,10,-1,10,9,11,-1,10,11,12,-1,13,14,10,-1,10,14,15,-1,10,15,16,-1,12,17,10,-1,10,17,18,-1,10,18,19,-1,19,20,10,-1,10,20,21,-1,10,21,13,-1,22,23,15,-1,15,23,24,-1,15,24,16,-1,
        ]
    }
}