#VRML V2.0 utf8
# 3D model generated by easyeda2kicad.py (https://github.com/uPesy/easyeda2kicad.py)

Shape{
    appearance Appearance {
        material  Material 	{
            diffuseColor 0.20784313725490197 0.20784313725490197 0.20784313725490197
            specularColor 0.01568627450980392 0.01568627450980392 0.01568627450980392
            ambientIntensity 0.298
            transparency 0.0
            shininess 0.5
        }
    }
    geometry IndexedFaceSet {
        ccw TRUE
        solid FALSE
        coord DEF co Coordinate {
            point [
                0.1142 -0.2575 0.0118, 0.1142 -0.2913 0.0118, 0.081 -0.2913 0.0118, -0.0236 -0.2575 0.0118, -0.0236 -0.2913 0.0118, -0.0451 -0.2913 0.0118, 0.0338 -0.1705 0.0118, 0.0376 -0.1709 0.0118, 0.0252 -0.2001 0.0118, 0.0245 -0.1997 0.0118, 0.0245 -0.204 0.0118, 0.0207 -0.2063 0.0118, 0.0287 -0.2057 0.0118, 0.0327 -0.2063 0.0118, 0.0291 -0.1665 0.0118, 0.0245 -0.1677 0.0118, 0.0207 -0.154 0.0118, 0.0245 -0.173 0.0118, 0.029 -0.1711 0.0118, 0.0402 -0.206 0.0118, 0.044 -0.2047 0.0118, 0.0555 -0.2063 0.0118, 0.0472 -0.2027 0.0118, 0.0502 -0.1996 0.0118, 0.0533 -0.1815 0.0118, 0.0517 -0.177 0.0118, 0.0555 -0.154 0.0118, 0.0494 -0.1733 0.0118, 0.0459 -0.1699 0.0118, 0.0406 -0.172 0.0118, 0.0433 -0.1738 0.0118, 0.0457 -0.1764 0.0118, 0.0485 -0.1868 0.0118, 0.0481 -0.191 0.0118, 0.0471 -0.1944 0.0118, 0.0383 -0.2018 0.0118, 0.0346 -0.2022 0.0118, 0.0412 -0.2007 0.0118, 0.0436 -0.1991 0.0118, 0.0454 -0.1971 0.0118, 0.0294 -0.2016 0.0118, 0.0473 -0.1795 0.0118, 0.0484 -0.1837 0.0118, 0.0523 -0.1958 0.0118, 0.0534 -0.1916 0.0118, 0.0538 -0.1871 0.0118, 0.0421 -0.1678 0.0118, 0.0378 -0.1665 0.0118, 0.0338 -0.1662 0.0118, 0.0377 -0.2063 0.0118, 0.0237 -0.2575 0.0118, 0.0354 -0.2065 0.0118, 0.4843 -0.2063 0.0118, 0.4843 -0.2756 0.0118, 0.4567 -0.2913 0.0118, 0.4567 -0.2182 0.0118, 0.3623 -0.2182 0.0118, 0.3376 -0.2063 0.0118, 0.4686 -0.2913 0.0118, 0.4838 -0.2797 0.0118, 0.4822 -0.2835 0.0118, 0.4797 -0.2867 0.0118, 0.4764 -0.2892 0.0118, 0.4726 -0.2908 0.0118, 0.3623 0.2182 0.0118, 0.4567 0.2182 0.0118, 0.4843 0.0 0.0118, 0.4567 0.2913 0.0118, 0.4686 0.2913 0.0118, 0.4726 0.2908 0.0118, 0.4822 0.2835 0.0118, 0.4838 0.2797 0.0118, 0.4843 0.2756 0.0118, 0.4764 0.2892 0.0118, 0.4797 0.2867 0.0118, 0.081 0.2913 0.0118, 0.1142 0.2913 0.0118, 0.1142 0.2575 0.0118, 0.2717 0.2913 0.0118, 0.3376 0.2913 0.0118, 0.2717 0.2575 0.0118, 0.3376 0.0 0.0118, 0.0847 0.1417 0.0118, 0.0847 0.0315 0.0118, 0.081 0.0 0.0118, 0.0965 0.0197 0.0118, 0.1792 0.0197 0.0118, 0.1822 0.0201 0.0118, 0.1851 0.0213 0.0118, 0.1875 0.0231 0.0118, 0.191 0.1417 0.0118, 0.191 0.0315 0.0118, 0.1894 0.0256 0.0118, 0.1906 0.0284 0.0118, 0.0207 0.0197 0.0118, 0.0414 0.0197 0.0118, 0.0555 0.0 0.0118, 0.0532 0.0315 0.0118, 0.0532 0.1417 0.0118, 0.0555 0.2913 0.0118, 0.0237 0.2913 0.0118, 0.0237 0.2575 0.0118, 0.0207 0.2575 0.0118, 0.0207 0.1417 0.0118, -0.0081 0.1417 0.0118, -0.0451 0.1417 0.0118, -0.0236 0.2575 0.0118, -0.0081 0.2575 0.0118, -0.4685 0.2913 0.0118, -0.4566 0.2913 0.0118, -0.4566 0.2182 0.0118, -0.4725 0.2908 0.0118, -0.3622 0.2182 0.0118, -0.0676 0.0 0.0118, -0.4837 0.2797 0.0118, -0.4821 0.2835 0.0118, -0.1141 0.2913 0.0118, -0.0676 0.2913 0.0118, -0.1141 0.2575 0.0118, -0.2716 0.2575 0.0118, -0.2716 0.2913 0.0118, -0.3622 0.2913 0.0118, -0.4796 0.2867 0.0118, -0.4763 0.2892 0.0118, -0.2716 -0.2913 0.0118, -0.3622 -0.2913 0.0118, -0.2716 -0.2575 0.0118, -0.3622 -0.2182 0.0118, -0.4566 -0.2182 0.0118, -0.4566 -0.2913 0.0118, -0.4685 -0.2913 0.0118, -0.4763 -0.2892 0.0118, -0.4796 -0.2867 0.0118, -0.4821 -0.2835 0.0118, -0.1141 -0.2575 0.0118, -0.0676 -0.2063 0.0118, -0.4842 -0.2063 0.0118, -0.4842 -0.2756 0.0118, -0.4837 -0.2797 0.0118, -0.4725 -0.2908 0.0118, -0.0081 -0.2575 0.0118, -0.0451 -0.2063 0.0118, 0.2717 -0.2913 0.0118, 0.3376 -0.2913 0.0118, 0.3623 -0.2913 0.0118, 0.2717 -0.2575 0.0118, 0.081 -0.2063 0.0118, 0.0532 -0.0315 0.0118, 0.0532 -0.1417 0.0118, 0.0207 -0.1417 0.0118, -0.0081 -0.154 0.0118, -0.0081 -0.1417 0.0118, -0.0451 -0.154 0.0118, -0.0081 -0.0197 0.0118, -0.0413 -0.0197 0.0118, -0.0451 0.0 0.0118, -0.0451 -0.0235 0.0118, -0.0531 -0.0315 0.0118, -0.0676 -0.154 0.0118, -0.0531 -0.1417 0.0118, -0.0451 -0.1417 0.0118, -0.0451 0.0235 0.0118, -0.0531 0.0315 0.0118, -0.0531 0.1417 0.0118, -0.0451 0.2913 0.0118, -0.0236 0.2913 0.0118, 0.0414 -0.0197 0.0118, 0.0207 0.0 0.0118, -0.0081 0.0 0.0118, -0.0081 0.0197 0.0118, -0.0413 0.0197 0.0118, 0.0207 -0.0197 0.0118, -0.0676 -0.195 0.0118, -0.056 -0.195 0.0118, -0.0523 -0.206 0.0118, -0.0465 -0.206 0.0118, -0.0614 -0.1667 0.0118, -0.0667 -0.1667 0.0118, -0.0676 -0.1689 0.0118, -0.0723 -0.195 0.0118, -0.0763 -0.206 0.0118, -0.0821 -0.206 0.0118, -0.4842 -0.154 0.0118, -0.4842 0.0 0.0118, -0.1909 -0.0315 0.0118, -0.1909 -0.1417 0.0118, -0.0846 -0.1417 0.0118, -0.0846 -0.0315 0.0118, -0.0964 -0.0197 0.0118, -0.1791 -0.0197 0.0118, -0.1821 -0.0201 0.0118, -0.185 -0.0213 0.0118, -0.1874 -0.0231 0.0118, -0.1893 -0.0256 0.0118, -0.1905 -0.0284 0.0118, -0.4842 0.2756 0.0118, 0.081 -0.154 0.0118, -0.0417 -0.1952 0.0118, -0.0394 -0.1988 0.0118, -0.0362 -0.2019 0.0118, -0.0321 -0.2043 0.0118, -0.0275 -0.2056 0.0118, -0.0334 -0.1689 0.0118, -0.0376 -0.1718 0.0118, -0.0227 -0.206 0.0118, -0.012 -0.206 0.0118, -0.0081 -0.2063 0.0118, -0.012 -0.1667 0.0118, -0.0231 -0.1667 0.0118, -0.0288 -0.1673 0.0118, -0.0377 -0.1718 0.0118, -0.0405 -0.1749 0.0118, -0.0423 -0.1783 0.0118, 0.0207 -0.2575 0.0118, 0.0343 -0.2065 0.0118, -0.0434 -0.1821 0.0118, -0.0436 -0.1859 0.0118, -0.0431 -0.1911 0.0118, 0.0169 -0.1667 0.0118, -0.0033 -0.1667 0.0118, -0.0033 -0.171 0.0118, -0.0043 -0.2017 0.0118, -0.0043 -0.206 0.0118, 0.0169 -0.206 0.0118, 0.0116 -0.1883 0.0118, 0.0116 -0.2017 0.0118, -0.0024 -0.1883 0.0118, -0.0024 -0.1839 0.0118, 0.0116 -0.1839 0.0118, 0.0116 -0.171 0.0118, 0.0572 -0.2017 0.0118, 0.0572 -0.206 0.0118, 0.0773 -0.206 0.0118, 0.0773 -0.1667 0.0118, 0.0721 -0.2017 0.0118, 0.0721 -0.1667 0.0118, 0.3376 -0.154 0.0118, 0.4843 -0.154 0.0118, 0.3623 0.2913 0.0118, -0.0676 -0.2913 0.0118, -0.1141 -0.2913 0.0118, 0.0555 -0.2913 0.0118, 0.0237 -0.2913 0.0118, 0.4567 -0.2913 0.0236, 0.4686 -0.2913 0.2362, -0.3622 -0.2913 0.0236, -0.2716 -0.2913 0.0236, -0.4566 -0.2913 0.0236, -0.2027 -0.2913 0.1811, -0.2027 -0.2913 0.1969, -0.4685 -0.2913 0.2362, -0.2224 -0.2913 0.2362, -0.1141 -0.2913 0.0236, 0.2028 -0.2913 0.1811, 0.0237 -0.2913 0.0236, 0.1142 -0.2913 0.0236, -0.0236 -0.2913 0.0236, 0.2717 -0.2913 0.0236, 0.3623 -0.2913 0.0236, 0.2225 -0.2913 0.2362, 0.2028 -0.2913 0.1969, 0.2028 0.2913 0.1811, 0.2028 0.2913 0.1969, 0.2225 0.2913 0.2362, 0.1142 0.2913 0.0236, -0.1141 0.2913 0.0236, -0.2716 0.2913 0.0236, -0.4685 0.2913 0.2362, 0.3623 0.2913 0.0236, 0.4686 0.2913 0.2362, 0.4567 0.2913 0.0236, -0.0236 0.2913 0.0236, -0.2027 0.2913 0.1811, 0.0237 0.2913 0.0236, 0.2717 0.2913 0.0236, -0.2027 0.2913 0.1969, -0.2224 0.2913 0.2362, -0.4566 0.2913 0.0236, -0.3622 0.2913 0.0236, 0.315 -0.1732 0.0748, 0.315 -0.2126 0.0748, 0.3682 -0.2126 0.0748, 0.3682 -0.0996 0.0748, 0.3445 -0.0996 0.0748, 0.0867 -0.1732 0.0748, 0.229 -0.0807 0.0748, 0.0532 -0.0807 0.0748, 0.0532 -0.1417 0.0748, -0.0433 0.1732 0.0748, -0.2289 0.0807 0.0748, -0.0531 0.1417 0.0748, -0.0531 0.0807 0.0748, -0.3149 0.2126 0.0748, -0.3681 0.2126 0.0748, -0.3149 0.1732 0.0748, -0.3681 0.0996 0.0748, -0.3444 0.0996 0.0748, -0.0531 -0.0807 0.0748, -0.0846 -0.0807 0.0748, -0.0531 -0.1417 0.0748, -0.0846 -0.1417 0.0748, 0.0434 0.2126 0.0748, 0.0434 0.1732 0.0748, 0.0867 0.2126 0.0748, 0.0867 0.1732 0.0748, 0.0532 0.0807 0.0748, 0.0847 0.0807 0.0748, 0.0532 0.1417 0.0748, 0.0847 0.1417 0.0748, 0.191 0.1417 0.0748, 0.315 0.1732 0.0748, 0.0434 -0.2126 0.0748, 0.0867 -0.2126 0.0748, 0.0434 -0.1732 0.0748, 0.191 0.0807 0.0748, 0.229 0.0807 0.0748, 0.2408 0.0689 0.0748, -0.3681 -0.2126 0.0748, -0.3149 -0.2126 0.0748, -0.3681 -0.0996 0.0748, -0.3149 -0.1732 0.0748, -0.3444 -0.0996 0.0748, -0.0866 -0.1732 0.0748, 0.3682 0.2126 0.0748, 0.315 0.2126 0.0748, 0.3682 0.0996 0.0748, 0.3445 0.0996 0.0748, -0.0866 -0.2126 0.0748, -0.0433 -0.2126 0.0748, -0.0433 -0.1732 0.0748, 0.2408 -0.0689 0.0748, -0.1909 -0.1417 0.0748, -0.0433 0.2126 0.0748, -0.0866 0.2126 0.0748, -0.0866 0.1732 0.0748, -0.2407 0.0689 0.0748, -0.2407 -0.0689 0.0748, -0.2289 -0.0807 0.0748, -0.1909 -0.0807 0.0748, -0.0433 -0.252 0.1811, -0.0433 -0.2126 0.1811, -0.0866 -0.2126 0.1811, -0.2027 -0.252 0.1811, -0.0866 -0.252 0.1811, 0.2028 -0.252 0.1811, 0.0867 -0.252 0.1811, 0.0867 -0.2126 0.1811, 0.0434 -0.2126 0.1811, 0.0434 -0.252 0.1811, -0.2047 -0.2126 0.2008, -0.2027 -0.2126 0.1969, -0.3149 -0.2126 0.1969, -0.3681 -0.2126 0.2008, -0.2027 -0.2457 0.1877, -0.2027 -0.2381 0.1927, -0.2027 -0.2295 0.1958, -0.2027 -0.2205 0.1969, 0.2028 -0.2126 0.1969, 0.2048 -0.2126 0.2008, 0.315 -0.2126 0.1969, 0.3682 -0.2126 0.2008, -0.2027 0.2126 0.1969, -0.2047 0.2126 0.2008, -0.3149 0.2126 0.1969, -0.3681 0.2126 0.2008, 0.2048 0.2126 0.2008, 0.2028 0.2126 0.1969, 0.315 0.2126 0.1969, 0.3682 0.2126 0.2008, 0.0867 0.252 0.1811, 0.2028 0.252 0.1811, -0.0866 0.252 0.1811, -0.2027 0.252 0.1811, 0.0434 0.252 0.1811, 0.0434 0.2126 0.1811, 0.0867 0.2126 0.1811, -0.0433 0.252 0.1811, -0.0433 0.2126 0.1811, -0.0866 0.2126 0.1811, 0.2028 0.2457 0.1877, 0.2028 0.2381 0.1927, 0.2028 0.2295 0.1958, 0.2028 0.2205 0.1969, 0.3682 -0.0996 0.2008, -0.3681 -0.0996 0.2008, -0.3832 -0.1004 0.2126, -0.3831 -0.0996 0.2126, -0.4251 -0.1004 0.2126, -0.4259 -0.0996 0.2126, -0.4251 -0.1791 0.2126, -0.4259 -0.1783 0.2126, -0.4803 -0.1783 0.2126, -0.3831 0.0996 0.2126, -0.3832 0.1004 0.2126, -0.4259 0.0996 0.2126, -0.4251 0.1004 0.2126, -0.4259 0.1783 0.2126, -0.4251 0.1791 0.2126, -0.4803 0.1783 0.2126, -0.4842 0.1791 0.2126, -0.4842 -0.1791 0.2126, 0.4134 0.1004 0.2362, 0.4252 0.1004 0.2362, 0.4252 0.1791 0.2362, 0.2225 0.2579 0.2362, 0.4134 0.2579 0.2362, 0.4843 0.1791 0.2362, 0.4843 0.2756 0.2362, 0.4838 0.2797 0.2362, 0.4822 0.2835 0.2362, 0.4797 0.2867 0.2362, 0.4764 0.2892 0.2362, 0.4726 0.2908 0.2362, 0.4134 -0.2579 0.2362, 0.2225 -0.2579 0.2362, 0.4843 -0.2756 0.2362, 0.4843 -0.1791 0.2362, 0.4252 -0.1791 0.2362, 0.4838 -0.2797 0.2362, 0.4134 -0.1004 0.2362, 0.4252 -0.1004 0.2362, 0.4726 -0.2908 0.2362, 0.4764 -0.2892 0.2362, 0.4797 -0.2867 0.2362, 0.4822 -0.2835 0.2362, 0.3833 0.1004 0.2126, 0.3688 -0.0996 0.2013, 0.3832 0.0996 0.2126, 0.3688 0.0996 0.2013, 0.3682 0.0996 0.2008, 0.3832 -0.0996 0.2126, 0.3833 -0.1004 0.2126, 0.4252 0.1004 0.2126, 0.4252 0.1791 0.2126, 0.4252 -0.1004 0.2126, 0.4252 -0.1791 0.2126, 0.4843 -0.1791 0.2126, 0.4843 0.1791 0.2126, -0.2224 -0.2579 0.2362, -0.4133 -0.2579 0.2362, -0.4725 -0.2908 0.2362, -0.4842 -0.1791 0.2362, -0.4251 -0.1791 0.2362, -0.4133 -0.1004 0.2362, -0.4251 -0.1004 0.2362, -0.4842 -0.2756 0.2362, -0.4837 -0.2797 0.2362, -0.4821 -0.2835 0.2362, -0.4796 -0.2867 0.2362, -0.4763 -0.2892 0.2362, -0.2289 0.0807 0.1969, -0.0531 0.0807 0.1969, 0.229 0.0807 0.1969, 0.191 0.0807 0.1969, -0.0846 -0.0807 0.1969, -0.0531 -0.0807 0.1969, 0.229 -0.0807 0.1969, 0.0532 -0.0807 0.1969, -0.4133 0.2579 0.2362, -0.2224 0.2579 0.2362, -0.4842 0.2756 0.2362, -0.4842 0.1791 0.2362, -0.4251 0.1791 0.2362, -0.4837 0.2797 0.2362, -0.4133 0.1004 0.2362, -0.4251 0.1004 0.2362, -0.4725 0.2908 0.2362, -0.4763 0.2892 0.2362, -0.4796 0.2867 0.2362, -0.4821 0.2835 0.2362, -0.3681 0.0996 0.2008, -0.3687 0.0996 0.2013, -0.3687 -0.0996 0.2013, 0.2028 -0.2205 0.1969, 0.2028 -0.2295 0.1958, 0.2028 -0.2457 0.1877, 0.2028 -0.2381 0.1927, -0.2027 0.2205 0.1969, -0.2027 0.2295 0.1958, -0.2027 0.2457 0.1877, -0.2027 0.2381 0.1927, 0.2408 -0.0689 0.1969, 0.2408 0.0689 0.1969, 0.0532 0.0807 0.1969, 0.0847 0.0807 0.1969, -0.2407 -0.0689 0.1969, -0.2407 0.0689 0.1969, -0.2289 -0.0807 0.1969, -0.1909 -0.0807 0.1969, 0.0847 0.0315 0.1969, 0.0532 0.0315 0.1969, 0.0414 0.0197 0.1969, -0.0846 -0.0315 0.1969, -0.0531 -0.0315 0.1969, -0.0413 -0.0197 0.1969, 0.1822 0.0201 0.1969, 0.1792 0.0197 0.1969, 0.0532 -0.0315 0.1969, 0.0965 0.0197 0.1969, 0.0414 -0.0197 0.1969, 0.191 0.0315 0.1969, 0.1906 0.0284 0.1969, 0.1894 0.0256 0.1969, 0.1851 0.0213 0.1969, 0.1875 0.0231 0.1969, -0.1821 -0.0201 0.1969, -0.1791 -0.0197 0.1969, -0.0531 0.0315 0.1969, -0.0964 -0.0197 0.1969, -0.0413 0.0197 0.1969, -0.1909 -0.0315 0.1969, -0.1905 -0.0284 0.1969, -0.1893 -0.0256 0.1969, -0.185 -0.0213 0.1969, -0.1874 -0.0231 0.1969, -0.0295 -0.1417 0.0122, -0.0295 -0.1417 0.0358, 0.0296 -0.1417 0.0358, 0.0296 -0.1417 0.0122, -0.1673 -0.1417 0.0122, -0.1673 -0.1417 0.0358, -0.1082 -0.1417 0.0358, -0.1082 -0.1417 0.0122, 0.1674 0.1417 0.0122, 0.1674 0.1417 0.0358, 0.1083 0.1417 0.0358, 0.1083 0.1417 0.0122, 0.0296 0.1417 0.0122, 0.0296 0.1417 0.0358, -0.0295 0.1417 0.0358, -0.0295 0.1417 0.0122
            ]
        }
        coordIndex [
            0,1,2,-1,3,4,5,-1,6,7,8,-1,9,10,11,-1,11,10,12,-1,11,12,13,-1,14,15,16,-1,16,15,17,-1,6,8,18,-1,18,8,9,-1,18,9,17,-1,19,20,21,-1,21,20,22,-1,21,22,23,-1,24,25,26,-1,26,25,27,-1,26,27,28,-1,7,29,8,-1,8,29,30,-1,8,30,31,-1,32,33,8,-1,8,33,34,-1,35,36,37,-1,37,36,38,-1,34,39,8,-1,8,39,38,-1,8,38,40,-1,40,38,36,-1,31,41,8,-1,8,41,42,-1,8,42,32,-1,23,43,21,-1,21,43,44,-1,21,44,45,-1,28,46,26,-1,26,46,47,-1,26,47,16,-1,16,47,48,-1,16,48,14,-1,19,21,49,-1,49,21,50,-1,49,50,51,-1,52,53,54,-1,55,56,57,-1,54,53,58,-1,58,53,59,-1,58,59,60,-1,61,62,60,-1,60,62,63,-1,60,63,58,-1,64,65,66,-1,67,68,65,-1,65,68,69,-1,70,71,65,-1,65,71,72,-1,65,72,66,-1,69,73,65,-1,65,73,74,-1,65,74,70,-1,75,76,77,-1,78,79,80,-1,80,79,81,-1,82,83,84,-1,84,83,85,-1,86,87,81,-1,81,87,88,-1,81,88,89,-1,84,75,82,-1,82,75,77,-1,82,77,90,-1,90,77,80,-1,90,80,91,-1,91,80,81,-1,89,92,81,-1,81,92,93,-1,81,93,91,-1,94,95,96,-1,95,97,96,-1,96,97,98,-1,96,98,99,-1,100,99,101,-1,101,99,98,-1,101,98,102,-1,102,98,103,-1,102,103,104,-1,105,106,104,-1,104,106,107,-1,104,107,102,-1,108,109,110,-1,108,110,111,-1,110,112,113,-1,114,115,110,-1,116,117,118,-1,118,117,113,-1,118,113,119,-1,119,113,112,-1,119,112,120,-1,120,112,121,-1,115,122,110,-1,110,122,123,-1,110,123,111,-1,124,125,126,-1,126,125,127,-1,128,129,130,-1,131,132,133,-1,134,126,135,-1,135,126,127,-1,135,127,136,-1,136,127,128,-1,136,128,137,-1,137,128,130,-1,137,130,138,-1,138,130,133,-1,133,130,139,-1,133,139,131,-1,140,3,141,-1,142,57,143,-1,143,57,56,-1,143,56,144,-1,145,0,146,-1,96,26,147,-1,147,26,148,-1,149,150,151,-1,151,150,152,-1,153,154,155,-1,155,154,156,-1,155,156,113,-1,113,156,157,-1,113,157,158,-1,158,157,159,-1,158,159,152,-1,152,159,160,-1,152,160,151,-1,161,155,162,-1,162,155,113,-1,162,113,163,-1,163,113,117,-1,163,117,105,-1,105,117,164,-1,105,164,106,-1,106,164,165,-1,147,166,96,-1,96,166,167,-1,96,167,94,-1,94,167,168,-1,94,168,169,-1,169,168,170,-1,161,170,155,-1,155,170,168,-1,155,168,153,-1,153,168,167,-1,153,167,171,-1,171,167,166,-1,172,173,135,-1,135,173,174,-1,135,174,141,-1,141,174,175,-1,141,175,152,-1,152,175,176,-1,152,176,158,-1,158,176,177,-1,158,177,178,-1,179,172,180,-1,180,172,135,-1,180,135,181,-1,181,135,136,-1,181,136,178,-1,178,136,182,-1,178,182,158,-1,183,184,182,-1,182,184,185,-1,182,185,158,-1,158,185,186,-1,158,186,113,-1,113,186,187,-1,113,187,188,-1,189,190,183,-1,183,190,191,-1,183,191,192,-1,192,193,183,-1,183,193,194,-1,183,194,184,-1,188,189,113,-1,113,189,183,-1,113,183,110,-1,110,183,195,-1,110,195,114,-1,99,75,96,-1,96,75,84,-1,96,84,26,-1,26,84,196,-1,141,197,198,-1,198,199,141,-1,141,199,200,-1,141,200,201,-1,152,202,203,-1,204,205,206,-1,206,205,207,-1,206,207,150,-1,150,207,208,-1,150,208,152,-1,152,208,209,-1,152,209,202,-1,203,210,152,-1,152,210,211,-1,152,211,212,-1,201,204,141,-1,141,204,206,-1,141,206,140,-1,140,206,11,-1,140,11,213,-1,213,11,13,-1,213,13,50,-1,50,13,214,-1,50,214,51,-1,212,215,152,-1,152,215,216,-1,152,216,141,-1,141,216,217,-1,141,217,197,-1,17,9,16,-1,16,9,11,-1,16,11,218,-1,148,26,149,-1,149,26,16,-1,149,16,150,-1,150,16,218,-1,150,218,219,-1,219,220,150,-1,150,220,221,-1,150,221,206,-1,206,221,222,-1,206,222,11,-1,11,222,223,-1,11,223,218,-1,224,225,226,-1,226,225,221,-1,226,221,227,-1,227,221,220,-1,227,220,228,-1,228,220,229,-1,230,21,26,-1,26,21,45,-1,26,45,24,-1,230,231,21,-1,21,231,232,-1,21,232,146,-1,146,232,233,-1,234,230,235,-1,235,230,26,-1,235,26,233,-1,233,26,196,-1,233,196,146,-1,85,86,84,-1,84,86,81,-1,84,81,196,-1,196,81,236,-1,196,236,146,-1,146,236,57,-1,146,57,145,-1,145,57,142,-1,54,55,52,-1,52,55,57,-1,52,57,237,-1,237,57,236,-1,237,236,66,-1,66,236,81,-1,66,81,64,-1,64,81,79,-1,64,79,238,-1,3,5,141,-1,141,5,239,-1,141,239,135,-1,135,239,240,-1,135,240,134,-1,0,2,146,-1,146,2,241,-1,146,241,21,-1,21,241,242,-1,21,242,50,-1,54,58,243,-1,243,58,244,-1,125,124,245,-1,245,124,246,-1,130,129,247,-1,248,249,247,-1,130,247,250,-1,250,247,249,-1,250,249,251,-1,252,253,246,-1,246,253,248,-1,246,248,245,-1,245,248,247,-1,254,242,1,-1,1,255,254,-1,254,255,253,-1,254,253,256,-1,256,253,252,-1,256,252,4,-1,4,252,240,-1,142,144,257,-1,257,144,258,-1,244,259,243,-1,243,259,260,-1,243,260,258,-1,258,260,253,-1,258,253,257,-1,257,253,255,-1,261,262,263,-1,264,76,100,-1,265,266,267,-1,268,269,270,-1,270,269,68,-1,270,68,67,-1,271,272,273,-1,273,272,261,-1,273,261,269,-1,269,261,263,-1,238,78,268,-1,268,78,274,-1,268,274,269,-1,269,274,264,-1,269,264,273,-1,273,264,100,-1,165,116,271,-1,271,116,265,-1,271,265,272,-1,272,265,267,-1,272,267,275,-1,275,267,276,-1,109,108,277,-1,277,108,267,-1,277,267,278,-1,278,267,266,-1,278,266,121,-1,121,266,120,-1,279,280,281,-1,281,282,279,-1,279,282,283,-1,279,283,284,-1,285,286,287,-1,288,289,290,-1,290,289,291,-1,292,293,294,-1,294,293,295,-1,294,295,296,-1,297,298,299,-1,299,298,300,-1,301,302,303,-1,303,302,304,-1,305,306,307,-1,307,306,308,-1,309,310,304,-1,311,312,313,-1,313,312,284,-1,288,290,302,-1,302,290,307,-1,302,307,304,-1,304,307,308,-1,304,308,309,-1,309,314,310,-1,310,314,315,-1,310,315,316,-1,317,318,319,-1,319,318,320,-1,319,320,321,-1,321,320,322,-1,323,324,325,-1,325,324,310,-1,325,310,326,-1,326,310,316,-1,326,316,283,-1,327,328,322,-1,322,328,329,-1,316,330,283,-1,283,330,285,-1,283,285,284,-1,284,285,287,-1,284,287,313,-1,313,287,299,-1,313,299,329,-1,329,299,300,-1,329,300,322,-1,322,300,331,-1,322,331,321,-1,332,333,288,-1,288,333,334,-1,288,334,289,-1,289,334,294,-1,289,294,335,-1,335,294,296,-1,335,296,336,-1,336,296,321,-1,336,321,337,-1,337,321,331,-1,337,331,338,-1,339,340,341,-1,342,248,343,-1,343,248,253,-1,253,344,345,-1,346,347,345,-1,345,347,348,-1,345,348,253,-1,253,348,339,-1,253,339,343,-1,343,339,341,-1,349,350,351,-1,318,317,351,-1,351,317,352,-1,351,352,349,-1,248,342,249,-1,249,342,353,-1,353,354,249,-1,249,354,355,-1,249,355,356,-1,357,358,359,-1,359,358,360,-1,359,360,280,-1,280,360,281,-1,312,311,346,-1,346,311,347,-1,361,362,363,-1,363,362,364,-1,363,364,292,-1,292,364,293,-1,365,366,367,-1,324,323,367,-1,367,323,368,-1,367,368,365,-1,369,370,261,-1,261,272,371,-1,371,272,372,-1,373,374,375,-1,375,369,373,-1,373,369,261,-1,373,261,376,-1,376,261,371,-1,376,371,377,-1,377,371,378,-1,261,370,262,-1,262,370,379,-1,379,380,262,-1,262,380,381,-1,262,381,382,-1,375,374,303,-1,303,374,301,-1,281,360,282,-1,282,360,383,-1,352,317,384,-1,384,317,319,-1,385,386,387,-1,387,386,388,-1,387,388,389,-1,389,388,390,-1,389,390,391,-1,392,393,394,-1,394,393,395,-1,394,395,396,-1,396,395,397,-1,396,397,398,-1,398,397,399,-1,398,399,391,-1,391,399,400,-1,391,400,389,-1,401,402,403,-1,263,404,269,-1,269,404,405,-1,401,403,405,-1,405,403,406,-1,405,406,407,-1,407,408,405,-1,405,408,409,-1,405,409,410,-1,410,411,405,-1,405,411,412,-1,405,412,269,-1,413,414,259,-1,415,416,417,-1,418,415,413,-1,413,415,417,-1,413,417,419,-1,419,417,420,-1,259,244,413,-1,413,244,421,-1,413,421,422,-1,422,423,413,-1,413,423,424,-1,413,424,418,-1,425,401,405,-1,383,360,426,-1,426,360,413,-1,427,425,428,-1,428,425,405,-1,428,405,429,-1,429,405,368,-1,427,428,430,-1,430,428,426,-1,430,426,431,-1,431,426,413,-1,431,413,419,-1,432,433,402,-1,402,433,403,-1,420,417,434,-1,434,417,435,-1,416,415,436,-1,436,415,53,-1,436,53,437,-1,437,53,72,-1,437,72,406,-1,406,72,407,-1,251,438,250,-1,250,438,439,-1,250,439,440,-1,441,439,442,-1,442,439,443,-1,442,443,444,-1,441,445,439,-1,439,445,446,-1,439,446,447,-1,447,448,439,-1,439,448,449,-1,439,449,440,-1,387,389,444,-1,444,389,442,-1,450,451,289,-1,289,451,291,-1,315,314,452,-1,452,314,453,-1,298,297,454,-1,454,297,455,-1,456,457,285,-1,285,457,286,-1,458,459,276,-1,460,461,462,-1,463,460,458,-1,458,460,462,-1,458,462,464,-1,464,462,465,-1,276,267,458,-1,458,267,466,-1,458,466,467,-1,467,468,458,-1,458,468,469,-1,458,469,463,-1,333,332,378,-1,378,332,377,-1,459,458,362,-1,362,458,364,-1,365,368,404,-1,404,368,405,-1,349,352,438,-1,438,352,439,-1,461,460,399,-1,399,460,195,-1,399,195,400,-1,400,195,137,-1,400,137,441,-1,441,137,445,-1,407,72,71,-1,407,71,408,-1,408,71,70,-1,408,70,409,-1,409,70,74,-1,409,74,410,-1,410,74,73,-1,410,73,411,-1,411,73,69,-1,411,69,412,-1,412,69,68,-1,412,68,269,-1,244,58,63,-1,244,63,421,-1,421,63,62,-1,421,62,422,-1,422,62,61,-1,422,61,423,-1,423,61,60,-1,423,60,424,-1,424,60,59,-1,424,59,418,-1,418,59,53,-1,418,53,415,-1,445,137,138,-1,445,138,446,-1,446,138,133,-1,446,133,447,-1,447,133,132,-1,447,132,448,-1,448,132,131,-1,448,131,449,-1,449,131,139,-1,449,139,440,-1,440,139,130,-1,440,130,250,-1,267,108,111,-1,267,111,466,-1,466,111,123,-1,466,123,467,-1,467,123,122,-1,467,122,468,-1,468,122,115,-1,468,115,469,-1,469,115,114,-1,469,114,463,-1,463,114,195,-1,463,195,460,-1,429,368,325,-1,325,368,323,-1,341,340,327,-1,327,340,328,-1,295,293,470,-1,470,293,364,-1,385,443,439,-1,470,364,471,-1,471,364,458,-1,386,385,472,-1,472,385,439,-1,472,439,384,-1,384,439,352,-1,386,472,392,-1,392,472,471,-1,392,471,393,-1,393,471,458,-1,393,458,464,-1,414,413,358,-1,358,413,360,-1,260,473,474,-1,344,253,475,-1,475,253,260,-1,475,260,476,-1,476,260,474,-1,260,259,473,-1,473,259,414,-1,473,414,357,-1,357,414,358,-1,350,349,356,-1,356,349,438,-1,356,438,249,-1,249,438,251,-1,275,477,478,-1,372,272,479,-1,479,272,275,-1,479,275,480,-1,480,275,478,-1,366,365,382,-1,382,365,404,-1,382,404,262,-1,262,404,263,-1,275,276,477,-1,477,276,459,-1,477,459,361,-1,361,459,362,-1,330,316,481,-1,481,316,482,-1,483,484,305,-1,305,484,306,-1,485,486,336,-1,336,486,335,-1,337,338,487,-1,487,338,488,-1,484,483,489,-1,489,483,490,-1,489,490,491,-1,454,455,492,-1,492,455,493,-1,492,493,494,-1,495,496,497,-1,497,496,498,-1,497,498,499,-1,452,453,482,-1,482,453,500,-1,482,500,481,-1,481,500,501,-1,481,501,502,-1,497,457,495,-1,495,457,456,-1,495,456,503,-1,503,456,481,-1,503,481,504,-1,504,481,502,-1,505,506,507,-1,507,506,508,-1,507,508,509,-1,487,488,485,-1,485,488,510,-1,485,510,486,-1,486,510,511,-1,486,511,512,-1,507,451,505,-1,505,451,450,-1,505,450,513,-1,513,450,486,-1,513,486,514,-1,514,486,512,-1,508,492,509,-1,509,492,494,-1,509,494,491,-1,491,494,499,-1,491,499,489,-1,489,499,498,-1,515,159,516,-1,516,159,299,-1,516,299,517,-1,517,299,287,-1,517,287,518,-1,518,287,148,-1,518,148,515,-1,515,148,159,-1,457,497,286,-1,286,497,147,-1,286,147,287,-1,287,147,148,-1,299,159,297,-1,297,159,157,-1,297,157,455,-1,455,157,493,-1,499,494,166,-1,166,494,154,-1,519,185,520,-1,520,185,331,-1,520,331,521,-1,521,331,300,-1,521,300,522,-1,522,300,186,-1,522,186,519,-1,519,186,185,-1,454,492,298,-1,298,492,187,-1,298,187,300,-1,300,187,186,-1,331,185,338,-1,338,185,184,-1,338,184,488,-1,488,184,510,-1,189,188,506,-1,506,188,508,-1,492,508,187,-1,187,508,188,-1,497,499,147,-1,147,499,166,-1,494,493,154,-1,154,493,157,-1,510,184,511,-1,511,184,194,-1,511,194,512,-1,512,194,193,-1,512,193,514,-1,514,193,192,-1,514,192,513,-1,513,192,191,-1,513,191,505,-1,505,191,190,-1,505,190,506,-1,506,190,189,-1,500,91,501,-1,501,91,93,-1,501,93,502,-1,502,93,92,-1,502,92,504,-1,504,92,89,-1,504,89,503,-1,503,89,88,-1,503,88,495,-1,495,88,87,-1,495,87,496,-1,496,87,86,-1,309,90,314,-1,314,90,91,-1,314,91,453,-1,453,91,500,-1,523,90,524,-1,524,90,309,-1,524,309,525,-1,525,309,308,-1,525,308,526,-1,526,308,82,-1,526,82,523,-1,523,82,90,-1,484,489,306,-1,306,489,83,-1,306,83,308,-1,308,83,82,-1,489,498,83,-1,83,498,85,-1,86,85,496,-1,496,85,498,-1,507,509,162,-1,162,509,170,-1,451,507,291,-1,291,507,162,-1,291,162,290,-1,290,162,163,-1,527,98,528,-1,528,98,307,-1,528,307,529,-1,529,307,290,-1,529,290,530,-1,530,290,163,-1,530,163,527,-1,527,163,98,-1,307,98,305,-1,305,98,97,-1,305,97,483,-1,483,97,490,-1,491,490,95,-1,95,490,97,-1,509,491,170,-1,170,491,95,-1,
        ]
    }
}
Shape{
    appearance Appearance {
        material  Material 	{
            diffuseColor 0.8274509803921568 0.6666666666666666 0.12941176470588237
            specularColor 0.8274509803921568 0.6666666666666666 0.12941176470588237
            ambientIntensity 0.6535
            transparency 0.0
            shininess 0.5
        }
    }
    geometry IndexedFaceSet {
        ccw TRUE
        solid FALSE
        coord DEF co Coordinate {
            point [
                0.0296 -0.0714 0.1563, -0.0295 -0.0714 0.1563, 0.0296 -0.0721 0.1582, -0.0295 -0.0721 0.1582, 0.0296 -0.0723 0.1603, -0.0295 -0.0723 0.1603, 0.0296 -0.072 0.1623, -0.0295 -0.072 0.1623, 0.0296 -0.0712 0.1642, -0.0295 -0.0712 0.1642, 0.0296 -0.0699 0.1659, -0.0295 -0.0699 0.1659, 0.0296 -0.0683 0.1671, -0.0295 -0.0683 0.1671, 0.0296 -0.0664 0.1679, -0.0295 -0.0664 0.1679, 0.0296 -0.0643 0.1682, -0.0295 -0.0643 0.1682, 0.0296 -0.0623 0.1679, -0.0295 -0.0623 0.1679, 0.0296 -0.0563 0.1908, -0.0295 -0.0563 0.1908, -0.0295 -0.0644 0.1918, 0.0296 -0.0644 0.1918, -0.0295 -0.0725 0.1907, 0.0296 -0.0725 0.1907, -0.0295 -0.08 0.1876, 0.0296 -0.08 0.1876, -0.0295 -0.0865 0.1827, 0.0296 -0.0865 0.1827, -0.0295 -0.0915 0.1763, 0.0296 -0.0915 0.1763, -0.0295 -0.0947 0.1688, 0.0296 -0.0947 0.1688, -0.0295 -0.096 0.1608, 0.0296 -0.096 0.1608, -0.0295 -0.0951 0.1527, 0.0296 -0.0951 0.1527, -0.0295 -0.0922 0.1451, 0.0296 -0.0922 0.1451, 0.0296 -0.0851 0.1273, -0.0295 -0.0851 0.1273, 0.0296 -0.0825 0.1082, -0.0295 -0.0825 0.1082, 0.0296 -0.0844 0.0892, -0.0295 -0.0844 0.0892, 0.0296 -0.0908 0.0711, -0.0295 -0.0908 0.0711, 0.0296 -0.1013 0.055, -0.0295 -0.1013 0.055, 0.0296 -0.1153 0.0418, -0.0295 -0.1153 0.0418, 0.0296 -0.1209 0.0386, -0.0295 -0.1209 0.0386, 0.0296 -0.1271 0.0365, -0.0295 -0.1271 0.0365, 0.0296 -0.1336 0.0358, -0.0295 -0.1336 0.0358, 0.0296 -0.1417 0.0358, -0.0295 -0.1417 0.0358, 0.0296 -0.1336 0.0122, 0.0296 -0.1417 0.0122, -0.0295 -0.1336 0.0122, -0.0295 -0.1417 0.0122, -0.0295 -0.1221 0.0134, 0.0296 -0.1221 0.0134, -0.0295 -0.1112 0.017, 0.0296 -0.1112 0.017, -0.0295 -0.1013 0.0228, 0.0296 -0.1013 0.0228, -0.0295 -0.0855 0.0371, 0.0296 -0.0855 0.0371, -0.0295 -0.073 0.0544, 0.0296 -0.073 0.0544, -0.0295 -0.0642 0.0737, 0.0296 -0.0642 0.0737, -0.0295 -0.0596 0.0945, 0.0296 -0.0596 0.0945, -0.0295 -0.0593 0.1158, 0.0296 -0.0593 0.1158, -0.0295 -0.0632 0.1367, 0.0296 -0.0632 0.1367, -0.1082 -0.0714 0.1563, -0.1673 -0.0714 0.1563, -0.1082 -0.0721 0.1582, -0.1673 -0.0721 0.1582, -0.1082 -0.0723 0.1603, -0.1673 -0.0723 0.1603, -0.1082 -0.072 0.1623, -0.1673 -0.072 0.1623, -0.1082 -0.0712 0.1642, -0.1673 -0.0712 0.1642, -0.1082 -0.0699 0.1659, -0.1673 -0.0699 0.1659, -0.1082 -0.0683 0.1671, -0.1673 -0.0683 0.1671, -0.1082 -0.0664 0.1679, -0.1673 -0.0664 0.1679, -0.1082 -0.0643 0.1682, -0.1673 -0.0643 0.1682, -0.1082 -0.0623 0.1679, -0.1673 -0.0623 0.1679, -0.1082 -0.0563 0.1908, -0.1673 -0.0563 0.1908, -0.1673 -0.0644 0.1918, -0.1082 -0.0644 0.1918, -0.1673 -0.0725 0.1907, -0.1082 -0.0725 0.1907, -0.1673 -0.08 0.1876, -0.1082 -0.08 0.1876, -0.1673 -0.0865 0.1827, -0.1082 -0.0865 0.1827, -0.1673 -0.0915 0.1763, -0.1082 -0.0915 0.1763, -0.1673 -0.0947 0.1688, -0.1082 -0.0947 0.1688, -0.1673 -0.096 0.1608, -0.1082 -0.096 0.1608, -0.1673 -0.0951 0.1527, -0.1082 -0.0951 0.1527, -0.1673 -0.0922 0.1451, -0.1082 -0.0922 0.1451, -0.1082 -0.0851 0.1273, -0.1673 -0.0851 0.1273, -0.1082 -0.0825 0.1082, -0.1673 -0.0825 0.1082, -0.1082 -0.0844 0.0892, -0.1673 -0.0844 0.0892, -0.1082 -0.0908 0.0711, -0.1673 -0.0908 0.0711, -0.1082 -0.1013 0.055, -0.1673 -0.1013 0.055, -0.1082 -0.1153 0.0418, -0.1673 -0.1153 0.0418, -0.1082 -0.1209 0.0386, -0.1673 -0.1209 0.0386, -0.1082 -0.1271 0.0365, -0.1673 -0.1271 0.0365, -0.1082 -0.1336 0.0358, -0.1673 -0.1336 0.0358, -0.1082 -0.1417 0.0358, -0.1673 -0.1417 0.0358, -0.1082 -0.1336 0.0122, -0.1082 -0.1417 0.0122, -0.1673 -0.1336 0.0122, -0.1673 -0.1417 0.0122, -0.1673 -0.1221 0.0134, -0.1082 -0.1221 0.0134, -0.1673 -0.1112 0.017, -0.1082 -0.1112 0.017, -0.1673 -0.1013 0.0228, -0.1082 -0.1013 0.0228, -0.1673 -0.0855 0.0371, -0.1082 -0.0855 0.0371, -0.1673 -0.073 0.0544, -0.1082 -0.073 0.0544, -0.1673 -0.0642 0.0737, -0.1082 -0.0642 0.0737, -0.1673 -0.0596 0.0945, -0.1082 -0.0596 0.0945, -0.1673 -0.0593 0.1158, -0.1082 -0.0593 0.1158, -0.1673 -0.0632 0.1367, -0.1082 -0.0632 0.1367, 0.1083 0.0714 0.1563, 0.1674 0.0714 0.1563, 0.1083 0.0721 0.1582, 0.1674 0.0721 0.1582, 0.1083 0.0723 0.1603, 0.1674 0.0723 0.1603, 0.1083 0.072 0.1623, 0.1674 0.072 0.1623, 0.1083 0.0712 0.1642, 0.1674 0.0712 0.1642, 0.1083 0.0699 0.1659, 0.1674 0.0699 0.1659, 0.1083 0.0683 0.1671, 0.1674 0.0683 0.1671, 0.1083 0.0664 0.1679, 0.1674 0.0664 0.1679, 0.1083 0.0643 0.1682, 0.1674 0.0643 0.1682, 0.1083 0.0623 0.1679, 0.1674 0.0623 0.1679, 0.1083 0.0563 0.1908, 0.1674 0.0563 0.1908, 0.1674 0.0644 0.1918, 0.1083 0.0644 0.1918, 0.1674 0.0725 0.1907, 0.1083 0.0725 0.1907, 0.1674 0.08 0.1876, 0.1083 0.08 0.1876, 0.1674 0.0865 0.1827, 0.1083 0.0865 0.1827, 0.1674 0.0915 0.1763, 0.1083 0.0915 0.1763, 0.1674 0.0947 0.1688, 0.1083 0.0947 0.1688, 0.1674 0.096 0.1608, 0.1083 0.096 0.1608, 0.1674 0.0951 0.1527, 0.1083 0.0951 0.1527, 0.1674 0.0922 0.1451, 0.1083 0.0922 0.1451, 0.1083 0.0851 0.1273, 0.1674 0.0851 0.1273, 0.1083 0.0825 0.1082, 0.1674 0.0825 0.1082, 0.1083 0.0844 0.0892, 0.1674 0.0844 0.0892, 0.1083 0.0908 0.0711, 0.1674 0.0908 0.0711, 0.1083 0.1013 0.055, 0.1674 0.1013 0.055, 0.1083 0.1153 0.0418, 0.1674 0.1153 0.0418, 0.1083 0.1209 0.0386, 0.1674 0.1209 0.0386, 0.1083 0.1271 0.0365, 0.1674 0.1271 0.0365, 0.1083 0.1336 0.0358, 0.1674 0.1336 0.0358, 0.1083 0.1417 0.0358, 0.1674 0.1417 0.0358, 0.1083 0.1336 0.0122, 0.1083 0.1417 0.0122, 0.1674 0.1336 0.0122, 0.1674 0.1417 0.0122, 0.1674 0.1221 0.0134, 0.1083 0.1221 0.0134, 0.1674 0.1112 0.017, 0.1083 0.1112 0.017, 0.1674 0.1013 0.0228, 0.1083 0.1013 0.0228, 0.1083 0.0632 0.1367, 0.1083 0.0593 0.1158, 0.1083 0.0596 0.0945, 0.1083 0.0642 0.0737, 0.1083 0.0855 0.0371, 0.1083 0.073 0.0544, 0.1674 0.0855 0.0371, 0.1674 0.073 0.0544, 0.1674 0.0642 0.0737, 0.1674 0.0596 0.0945, 0.1674 0.0593 0.1158, 0.1674 0.0632 0.1367, -0.0295 0.0714 0.1563, 0.0296 0.0714 0.1563, -0.0295 0.0721 0.1582, 0.0296 0.0721 0.1582, -0.0295 0.0723 0.1603, 0.0296 0.0723 0.1603, -0.0295 0.072 0.1623, 0.0296 0.072 0.1623, -0.0295 0.0712 0.1642, 0.0296 0.0712 0.1642, -0.0295 0.0699 0.1659, 0.0296 0.0699 0.1659, -0.0295 0.0683 0.1671, 0.0296 0.0683 0.1671, -0.0295 0.0664 0.1679, 0.0296 0.0664 0.1679, -0.0295 0.0643 0.1682, 0.0296 0.0643 0.1682, -0.0295 0.0623 0.1679, 0.0296 0.0623 0.1679, -0.0295 0.0563 0.1908, 0.0296 0.0563 0.1908, 0.0296 0.0644 0.1918, -0.0295 0.0644 0.1918, 0.0296 0.0725 0.1907, -0.0295 0.0725 0.1907, 0.0296 0.08 0.1876, -0.0295 0.08 0.1876, 0.0296 0.0865 0.1827, -0.0295 0.0865 0.1827, 0.0296 0.0915 0.1763, -0.0295 0.0915 0.1763, 0.0296 0.0947 0.1688, -0.0295 0.0947 0.1688, 0.0296 0.096 0.1608, -0.0295 0.096 0.1608, 0.0296 0.0951 0.1527, -0.0295 0.0951 0.1527, 0.0296 0.0922 0.1451, -0.0295 0.0922 0.1451, -0.0295 0.0851 0.1273, 0.0296 0.0851 0.1273, -0.0295 0.0825 0.1082, 0.0296 0.0825 0.1082, -0.0295 0.0844 0.0892, 0.0296 0.0844 0.0892, -0.0295 0.0908 0.0711, 0.0296 0.0908 0.0711, -0.0295 0.1013 0.055, 0.0296 0.1013 0.055, -0.0295 0.1153 0.0418, 0.0296 0.1153 0.0418, -0.0295 0.1209 0.0386, 0.0296 0.1209 0.0386, -0.0295 0.1271 0.0365, 0.0296 0.1271 0.0365, -0.0295 0.1336 0.0358, 0.0296 0.1336 0.0358, -0.0295 0.1417 0.0358, 0.0296 0.1417 0.0358, -0.0295 0.1336 0.0122, -0.0295 0.1417 0.0122, 0.0296 0.1336 0.0122, 0.0296 0.1417 0.0122, 0.0296 0.1221 0.0134, -0.0295 0.1221 0.0134, 0.0296 0.1112 0.017, -0.0295 0.1112 0.017, 0.0296 0.1013 0.0228, -0.0295 0.1013 0.0228, -0.0295 0.0632 0.1367, -0.0295 0.0593 0.1158, -0.0295 0.0596 0.0945, -0.0295 0.0642 0.0737, -0.0295 0.0855 0.0371, -0.0295 0.073 0.0544, 0.0296 0.0855 0.0371, 0.0296 0.073 0.0544, 0.0296 0.0642 0.0737, 0.0296 0.0596 0.0945, 0.0296 0.0593 0.1158, 0.0296 0.0632 0.1367
            ]
        }
        coordIndex [
            0,1,2,-1,2,1,3,-1,2,3,4,-1,4,3,5,-1,4,5,6,-1,6,5,7,-1,6,7,8,-1,8,7,9,-1,8,9,10,-1,10,9,11,-1,10,11,12,-1,12,11,13,-1,12,13,14,-1,14,13,15,-1,14,15,16,-1,16,15,17,-1,16,17,18,-1,18,17,19,-1,20,18,21,-1,21,18,19,-1,20,21,22,-1,20,22,23,-1,23,22,24,-1,23,24,25,-1,25,24,26,-1,25,26,27,-1,27,26,28,-1,27,28,29,-1,29,28,30,-1,29,30,31,-1,31,30,32,-1,31,32,33,-1,33,32,34,-1,33,34,35,-1,35,34,36,-1,35,36,37,-1,37,36,38,-1,37,38,39,-1,39,38,40,-1,40,38,41,-1,40,41,42,-1,42,41,43,-1,42,43,44,-1,44,43,45,-1,44,45,46,-1,46,45,47,-1,46,47,48,-1,48,47,49,-1,48,49,50,-1,50,49,51,-1,50,51,52,-1,52,51,53,-1,52,53,54,-1,54,53,55,-1,54,55,56,-1,56,55,57,-1,58,56,59,-1,59,56,57,-1,60,61,62,-1,62,61,63,-1,60,62,64,-1,60,64,65,-1,65,64,66,-1,65,66,67,-1,67,66,68,-1,67,68,69,-1,69,68,70,-1,69,70,71,-1,71,70,72,-1,71,72,73,-1,73,72,74,-1,73,74,75,-1,75,74,76,-1,75,76,77,-1,77,76,78,-1,77,78,79,-1,79,78,80,-1,79,80,81,-1,81,80,1,-1,81,1,0,-1,46,75,44,-1,44,75,77,-1,44,77,42,-1,42,77,79,-1,42,79,40,-1,40,79,81,-1,40,81,39,-1,39,81,0,-1,39,0,37,-1,37,0,2,-1,37,2,35,-1,35,2,4,-1,35,4,33,-1,33,4,6,-1,33,6,31,-1,31,6,8,-1,31,8,29,-1,29,8,10,-1,29,10,27,-1,27,10,12,-1,27,12,25,-1,25,12,14,-1,25,14,23,-1,23,14,16,-1,23,16,20,-1,20,16,18,-1,58,61,56,-1,56,61,60,-1,56,60,54,-1,54,60,65,-1,54,65,52,-1,52,65,67,-1,52,67,50,-1,50,67,69,-1,50,69,48,-1,48,69,71,-1,48,71,46,-1,46,71,73,-1,46,73,75,-1,21,19,22,-1,22,19,17,-1,22,17,24,-1,24,17,15,-1,24,15,26,-1,26,15,13,-1,26,13,28,-1,28,13,11,-1,28,11,30,-1,30,11,9,-1,30,9,32,-1,32,9,7,-1,32,7,34,-1,34,7,5,-1,34,5,36,-1,36,5,3,-1,36,3,38,-1,38,3,1,-1,38,1,41,-1,41,1,80,-1,41,80,43,-1,43,80,78,-1,43,78,45,-1,78,76,45,-1,45,76,74,-1,45,74,47,-1,47,74,72,-1,47,72,49,-1,49,72,70,-1,49,70,51,-1,51,70,68,-1,51,68,53,-1,53,68,66,-1,53,66,55,-1,55,66,64,-1,55,64,57,-1,57,64,62,-1,57,62,59,-1,59,62,63,-1,82,83,84,-1,84,83,85,-1,84,85,86,-1,86,85,87,-1,86,87,88,-1,88,87,89,-1,88,89,90,-1,90,89,91,-1,90,91,92,-1,92,91,93,-1,92,93,94,-1,94,93,95,-1,94,95,96,-1,96,95,97,-1,96,97,98,-1,98,97,99,-1,98,99,100,-1,100,99,101,-1,102,100,103,-1,103,100,101,-1,102,103,104,-1,102,104,105,-1,105,104,106,-1,105,106,107,-1,107,106,108,-1,107,108,109,-1,109,108,110,-1,109,110,111,-1,111,110,112,-1,111,112,113,-1,113,112,114,-1,113,114,115,-1,115,114,116,-1,115,116,117,-1,117,116,118,-1,117,118,119,-1,119,118,120,-1,119,120,121,-1,121,120,122,-1,122,120,123,-1,122,123,124,-1,124,123,125,-1,124,125,126,-1,126,125,127,-1,126,127,128,-1,128,127,129,-1,128,129,130,-1,130,129,131,-1,130,131,132,-1,132,131,133,-1,132,133,134,-1,134,133,135,-1,134,135,136,-1,136,135,137,-1,136,137,138,-1,138,137,139,-1,140,138,141,-1,141,138,139,-1,142,143,144,-1,144,143,145,-1,142,144,146,-1,142,146,147,-1,147,146,148,-1,147,148,149,-1,149,148,150,-1,149,150,151,-1,151,150,152,-1,151,152,153,-1,153,152,154,-1,153,154,155,-1,155,154,156,-1,155,156,157,-1,157,156,158,-1,157,158,159,-1,159,158,160,-1,159,160,161,-1,161,160,162,-1,161,162,163,-1,163,162,83,-1,163,83,82,-1,128,157,126,-1,126,157,159,-1,126,159,124,-1,124,159,161,-1,124,161,122,-1,122,161,163,-1,122,163,121,-1,121,163,82,-1,121,82,119,-1,119,82,84,-1,119,84,117,-1,117,84,86,-1,117,86,115,-1,115,86,88,-1,115,88,113,-1,113,88,90,-1,113,90,111,-1,111,90,92,-1,111,92,109,-1,109,92,94,-1,109,94,107,-1,107,94,96,-1,107,96,105,-1,105,96,98,-1,105,98,102,-1,102,98,100,-1,140,143,138,-1,138,143,142,-1,138,142,136,-1,136,142,147,-1,136,147,134,-1,134,147,149,-1,134,149,132,-1,132,149,151,-1,132,151,130,-1,130,151,153,-1,130,153,128,-1,128,153,155,-1,128,155,157,-1,103,101,104,-1,104,101,99,-1,104,99,106,-1,106,99,97,-1,106,97,108,-1,108,97,95,-1,108,95,110,-1,110,95,93,-1,110,93,112,-1,112,93,91,-1,112,91,114,-1,114,91,89,-1,114,89,116,-1,116,89,87,-1,116,87,118,-1,118,87,85,-1,118,85,120,-1,120,85,83,-1,120,83,123,-1,123,83,162,-1,123,162,125,-1,125,162,160,-1,125,160,127,-1,160,158,127,-1,127,158,156,-1,127,156,129,-1,129,156,154,-1,129,154,131,-1,131,154,152,-1,131,152,133,-1,133,152,150,-1,133,150,135,-1,135,150,148,-1,135,148,137,-1,137,148,146,-1,137,146,139,-1,139,146,144,-1,139,144,141,-1,141,144,145,-1,164,165,166,-1,166,165,167,-1,166,167,168,-1,168,167,169,-1,168,169,170,-1,170,169,171,-1,170,171,172,-1,172,171,173,-1,172,173,174,-1,174,173,175,-1,174,175,176,-1,176,175,177,-1,176,177,178,-1,178,177,179,-1,178,179,180,-1,180,179,181,-1,180,181,182,-1,182,181,183,-1,184,182,185,-1,185,182,183,-1,184,185,186,-1,184,186,187,-1,187,186,188,-1,187,188,189,-1,189,188,190,-1,189,190,191,-1,191,190,192,-1,191,192,193,-1,193,192,194,-1,193,194,195,-1,195,194,196,-1,195,196,197,-1,197,196,198,-1,197,198,199,-1,199,198,200,-1,199,200,201,-1,201,200,202,-1,201,202,203,-1,203,202,204,-1,204,202,205,-1,204,205,206,-1,206,205,207,-1,206,207,208,-1,208,207,209,-1,208,209,210,-1,210,209,211,-1,210,211,212,-1,212,211,213,-1,212,213,214,-1,214,213,215,-1,214,215,216,-1,216,215,217,-1,216,217,218,-1,218,217,219,-1,218,219,220,-1,220,219,221,-1,222,220,223,-1,223,220,221,-1,224,225,226,-1,226,225,227,-1,224,226,228,-1,224,228,229,-1,229,228,230,-1,229,230,231,-1,231,230,232,-1,231,232,233,-1,182,184,180,-1,180,184,187,-1,180,187,178,-1,178,187,189,-1,178,189,176,-1,176,189,191,-1,176,191,174,-1,174,191,193,-1,174,193,172,-1,172,193,195,-1,172,195,170,-1,170,195,197,-1,170,197,168,-1,168,197,199,-1,168,199,166,-1,166,199,201,-1,166,201,164,-1,164,201,203,-1,164,203,234,-1,234,203,204,-1,234,204,235,-1,235,204,206,-1,235,206,236,-1,236,206,208,-1,236,208,237,-1,237,208,210,-1,222,225,220,-1,220,225,224,-1,220,224,218,-1,218,224,229,-1,218,229,216,-1,216,229,231,-1,216,231,214,-1,214,231,233,-1,214,233,212,-1,212,233,238,-1,212,238,210,-1,210,238,239,-1,210,239,237,-1,233,232,240,-1,233,240,238,-1,238,240,241,-1,238,241,239,-1,239,241,242,-1,239,242,237,-1,237,242,243,-1,237,243,236,-1,236,243,244,-1,236,244,235,-1,235,244,245,-1,235,245,234,-1,234,245,165,-1,234,165,164,-1,227,223,226,-1,226,223,221,-1,226,221,228,-1,228,221,219,-1,228,219,230,-1,230,219,217,-1,230,217,232,-1,232,217,215,-1,232,215,240,-1,240,215,213,-1,240,213,241,-1,241,213,211,-1,241,211,242,-1,242,211,209,-1,185,183,186,-1,186,183,181,-1,186,181,188,-1,188,181,179,-1,188,179,190,-1,190,179,177,-1,190,177,192,-1,192,177,175,-1,192,175,194,-1,194,175,173,-1,194,173,196,-1,196,173,171,-1,196,171,198,-1,198,171,169,-1,198,169,200,-1,200,169,167,-1,200,167,202,-1,202,167,165,-1,202,165,205,-1,205,165,245,-1,205,245,207,-1,207,245,244,-1,207,244,209,-1,209,244,243,-1,209,243,242,-1,246,247,248,-1,248,247,249,-1,248,249,250,-1,250,249,251,-1,250,251,252,-1,252,251,253,-1,252,253,254,-1,254,253,255,-1,254,255,256,-1,256,255,257,-1,256,257,258,-1,258,257,259,-1,258,259,260,-1,260,259,261,-1,260,261,262,-1,262,261,263,-1,262,263,264,-1,264,263,265,-1,266,264,267,-1,267,264,265,-1,266,267,268,-1,266,268,269,-1,269,268,270,-1,269,270,271,-1,271,270,272,-1,271,272,273,-1,273,272,274,-1,273,274,275,-1,275,274,276,-1,275,276,277,-1,277,276,278,-1,277,278,279,-1,279,278,280,-1,279,280,281,-1,281,280,282,-1,281,282,283,-1,283,282,284,-1,283,284,285,-1,285,284,286,-1,286,284,287,-1,286,287,288,-1,288,287,289,-1,288,289,290,-1,290,289,291,-1,290,291,292,-1,292,291,293,-1,292,293,294,-1,294,293,295,-1,294,295,296,-1,296,295,297,-1,296,297,298,-1,298,297,299,-1,298,299,300,-1,300,299,301,-1,300,301,302,-1,302,301,303,-1,304,302,305,-1,305,302,303,-1,306,307,308,-1,308,307,309,-1,306,308,310,-1,306,310,311,-1,311,310,312,-1,311,312,313,-1,313,312,314,-1,313,314,315,-1,264,266,262,-1,262,266,269,-1,262,269,260,-1,260,269,271,-1,260,271,258,-1,258,271,273,-1,258,273,256,-1,256,273,275,-1,256,275,254,-1,254,275,277,-1,254,277,252,-1,252,277,279,-1,252,279,250,-1,250,279,281,-1,250,281,248,-1,248,281,283,-1,248,283,246,-1,246,283,285,-1,246,285,316,-1,316,285,286,-1,316,286,317,-1,317,286,288,-1,317,288,318,-1,318,288,290,-1,318,290,319,-1,319,290,292,-1,304,307,302,-1,302,307,306,-1,302,306,300,-1,300,306,311,-1,300,311,298,-1,298,311,313,-1,298,313,296,-1,296,313,315,-1,296,315,294,-1,294,315,320,-1,294,320,292,-1,292,320,321,-1,292,321,319,-1,315,314,322,-1,315,322,320,-1,320,322,323,-1,320,323,321,-1,321,323,324,-1,321,324,319,-1,319,324,325,-1,319,325,318,-1,318,325,326,-1,318,326,317,-1,317,326,327,-1,317,327,316,-1,316,327,247,-1,316,247,246,-1,309,305,308,-1,308,305,303,-1,308,303,310,-1,310,303,301,-1,310,301,312,-1,312,301,299,-1,312,299,314,-1,314,299,297,-1,314,297,322,-1,322,297,295,-1,322,295,323,-1,323,295,293,-1,323,293,324,-1,324,293,291,-1,267,265,268,-1,268,265,263,-1,268,263,270,-1,270,263,261,-1,270,261,272,-1,272,261,259,-1,272,259,274,-1,274,259,257,-1,274,257,276,-1,276,257,255,-1,276,255,278,-1,278,255,253,-1,278,253,280,-1,280,253,251,-1,280,251,282,-1,282,251,249,-1,282,249,284,-1,284,249,247,-1,284,247,287,-1,287,247,327,-1,287,327,289,-1,289,327,326,-1,289,326,291,-1,291,326,325,-1,291,325,324,-1,
        ]
    }
}
Shape{
    appearance Appearance {
        material  Material 	{
            diffuseColor 0.20784313725490197 0.20784313725490197 0.20784313725490197
            specularColor 0.01568627450980392 0.01568627450980392 0.01568627450980392
            ambientIntensity 0.298
            transparency 0.0
            shininess 0.5
        }
    }
    geometry IndexedFaceSet {
        ccw TRUE
        solid FALSE
        coord DEF co Coordinate {
            point [
                -0.4251 -0.1791 0.2126, -0.4842 -0.1791 0.2126, -0.4251 -0.1791 0.2362, -0.4842 -0.1791 0.2362, -0.4251 0.1791 0.2362, -0.4842 0.1791 0.2362, -0.4251 0.1791 0.2126, -0.4842 0.1791 0.2126, -0.4251 0.1004 0.2362, -0.4251 0.1004 0.2126, -0.4251 -0.1004 0.2126, -0.4251 -0.1004 0.2362, -0.3832 -0.1004 0.2126, -0.4133 -0.1004 0.2362, -0.4133 0.1004 0.2362, -0.3832 0.1004 0.2126, 0.4252 0.1791 0.2362, 0.4252 0.1791 0.2126, 0.4843 0.1791 0.2362, 0.4843 0.1791 0.2126, 0.4252 -0.1791 0.2126, 0.4252 -0.1791 0.2362, 0.4843 -0.1791 0.2126, 0.4843 -0.1791 0.2362, 0.3833 0.1004 0.2126, 0.3832 0.0996 0.2126, 0.4252 0.1004 0.2126, 0.426 0.0996 0.2126, 0.426 0.1783 0.2126, 0.4804 0.1783 0.2126, 0.3832 -0.0996 0.2126, 0.3833 -0.1004 0.2126, 0.426 -0.0996 0.2126, 0.4252 -0.1004 0.2126, 0.426 -0.1783 0.2126, 0.4804 -0.1783 0.2126, 0.4252 0.1004 0.2362, 0.4134 0.1004 0.2362, 0.4252 -0.1004 0.2362, 0.4134 -0.1004 0.2362
            ]
        }
        coordIndex [
            0,1,2,-1,2,1,3,-1,4,5,6,-1,6,5,7,-1,8,4,9,-1,9,4,6,-1,10,11,12,-1,12,11,13,-1,8,9,14,-1,14,9,15,-1,16,17,18,-1,18,17,19,-1,20,21,22,-1,22,21,23,-1,24,25,26,-1,26,25,27,-1,26,27,17,-1,17,27,28,-1,17,28,29,-1,30,31,32,-1,32,31,33,-1,32,33,34,-1,34,33,20,-1,34,20,35,-1,35,20,22,-1,35,22,29,-1,29,22,19,-1,29,19,17,-1,36,37,26,-1,26,37,24,-1,33,31,38,-1,38,31,39,-1,
        ]
    }
}
Shape{
    appearance Appearance {
        material  Material 	{
            diffuseColor 0.8274509803921568 0.6666666666666666 0.12941176470588237
            specularColor 0.8274509803921568 0.6666666666666666 0.12941176470588237
            ambientIntensity 0.6535
            transparency 0.0
            shininess 0.5
        }
    }
    geometry IndexedFaceSet {
        ccw TRUE
        solid FALSE
        coord DEF co Coordinate {
            point [
                -0.4259 0.1783 0.2362, -0.4259 0.0996 0.2362, -0.4259 0.1783 0.2126, -0.4259 0.0996 0.2126, -0.4803 0.1783 0.2362, -0.4803 0.1783 0.2126, -0.4803 -0.1783 0.2362, -0.4803 -0.1783 0.2126, -0.4259 -0.1783 0.2362, -0.4259 -0.1783 0.2126, -0.4259 -0.0996 0.2362, -0.4259 -0.0996 0.2126, -0.3681 -0.0996 0.2008, -0.3681 -0.0996 0.0748, -0.3444 -0.0996 0.0748, -0.3444 -0.0996 0.1969, -0.3454 -0.0996 0.2056, -0.3483 -0.0996 0.2139, -0.3687 -0.0996 0.2013, -0.3696 -0.0996 0.2037, -0.3716 -0.0996 0.2067, -0.353 -0.0996 0.2214, -0.3741 -0.0996 0.2093, -0.3593 -0.0996 0.2276, -0.3772 -0.0996 0.2111, -0.3667 -0.0996 0.2323, -0.3805 -0.0996 0.2123, -0.375 -0.0996 0.2352, -0.3831 -0.0996 0.2126, -0.3838 -0.0996 0.2362, -0.3444 0.0996 0.0748, -0.3681 0.0996 0.0748, -0.3444 0.0996 0.1969, -0.3681 0.0996 0.2008, -0.3454 0.0996 0.2056, -0.3483 0.0996 0.2139, -0.3831 0.0996 0.2126, -0.3838 0.0996 0.2362, -0.3805 0.0996 0.2123, -0.375 0.0996 0.2352, -0.3772 0.0996 0.2111, -0.3667 0.0996 0.2323, -0.3741 0.0996 0.2093, -0.3593 0.0996 0.2276, -0.3716 0.0996 0.2067, -0.353 0.0996 0.2214, -0.3696 0.0996 0.2037, -0.3687 0.0996 0.2013, 0.426 0.0996 0.2362, 0.426 0.1783 0.2362, 0.426 0.0996 0.2126, 0.426 0.1783 0.2126, 0.3682 0.0996 0.2008, 0.3682 0.0996 0.0748, 0.3445 0.0996 0.0748, 0.3445 0.0996 0.1969, 0.3455 0.0996 0.2056, 0.3484 0.0996 0.2139, 0.3688 0.0996 0.2013, 0.3697 0.0996 0.2037, 0.3717 0.0996 0.2067, 0.3531 0.0996 0.2214, 0.3742 0.0996 0.2093, 0.3594 0.0996 0.2276, 0.3773 0.0996 0.2111, 0.3668 0.0996 0.2323, 0.3806 0.0996 0.2123, 0.3751 0.0996 0.2352, 0.3832 0.0996 0.2126, 0.3839 0.0996 0.2362, 0.3445 -0.0996 0.0748, 0.3682 -0.0996 0.0748, 0.3445 -0.0996 0.1969, 0.3682 -0.0996 0.2008, 0.3455 -0.0996 0.2056, 0.3484 -0.0996 0.2139, 0.426 -0.0996 0.2126, 0.426 -0.0996 0.2362, 0.3832 -0.0996 0.2126, 0.3839 -0.0996 0.2362, 0.3806 -0.0996 0.2123, 0.3751 -0.0996 0.2352, 0.3773 -0.0996 0.2111, 0.3668 -0.0996 0.2323, 0.3742 -0.0996 0.2093, 0.3594 -0.0996 0.2276, 0.3717 -0.0996 0.2067, 0.3531 -0.0996 0.2214, 0.3697 -0.0996 0.2037, 0.3688 -0.0996 0.2013, 0.426 -0.1783 0.2362, 0.426 -0.1783 0.2126, 0.4804 -0.1783 0.2362, 0.4804 -0.1783 0.2126, 0.4804 0.1783 0.2362, 0.4804 0.1783 0.2126, 0.0434 0.252 0.1811, -0.0433 0.252 0.1811, -0.0433 0.2457 0.1877, 0.0434 0.2457 0.1877, -0.0433 0.2381 0.1927, 0.0434 0.2381 0.1927, -0.0433 0.2295 0.1958, 0.0434 0.2295 0.1958, -0.0433 0.2205 0.1969, 0.0434 0.2205 0.1969, 0.0434 0.2122 0.1969, -0.0433 0.2122 0.1969, -0.0433 0.2021 0.1955, 0.0434 0.2021 0.1955, -0.0433 0.1927 0.1916, 0.0434 0.1927 0.1916, -0.0433 0.1846 0.1854, 0.0434 0.1846 0.1854, -0.0433 0.1784 0.1774, 0.0434 0.1784 0.1774, -0.0433 0.1746 0.168, 0.0434 0.1746 0.168, -0.0433 0.1732 0.1579, 0.0434 0.1732 0.1579, 0.0434 0.1732 0.0748, -0.0433 0.1732 0.0748, 0.0434 0.2126 0.1811, 0.0434 0.2126 0.0748, -0.0433 0.2126 0.1811, -0.0433 0.2126 0.0748, 0.315 0.2126 0.0748, 0.315 0.2126 0.1969, 0.315 0.2122 0.1969, 0.315 0.1732 0.0748, 0.315 0.1732 0.1579, 0.315 0.1746 0.168, 0.315 0.2021 0.1955, 0.315 0.1927 0.1916, 0.315 0.1784 0.1774, 0.315 0.1846 0.1854, 0.2028 0.2126 0.1969, 0.2028 0.2205 0.1969, 0.0867 0.2205 0.1969, 0.0867 0.2122 0.1969, 0.2028 0.252 0.1811, 0.0867 0.252 0.1811, 0.0867 0.2457 0.1877, 0.2028 0.2457 0.1877, 0.0867 0.2381 0.1927, 0.2028 0.2381 0.1927, 0.0867 0.2295 0.1958, 0.2028 0.2295 0.1958, 0.0867 0.2021 0.1955, 0.0867 0.1927 0.1916, 0.0867 0.1846 0.1854, 0.0867 0.1784 0.1774, 0.0867 0.1746 0.168, 0.0867 0.1732 0.1579, 0.0867 0.1732 0.0748, 0.0867 0.2126 0.1811, 0.0867 0.2126 0.0748, -0.3149 0.2126 0.1969, -0.3149 0.2126 0.0748, -0.3149 0.2122 0.1969, -0.3149 0.1732 0.0748, -0.3149 0.1732 0.1579, -0.3149 0.1746 0.168, -0.3149 0.1784 0.1774, -0.3149 0.2021 0.1955, -0.3149 0.1846 0.1854, -0.3149 0.1927 0.1916, -0.2027 0.2126 0.1969, -0.0866 0.2122 0.1969, -0.2027 0.2205 0.1969, -0.0866 0.2205 0.1969, -0.0866 0.1732 0.1579, -0.0866 0.1732 0.0748, -0.0866 0.1746 0.168, -0.0866 0.1784 0.1774, -0.0866 0.1846 0.1854, -0.0866 0.1927 0.1916, -0.0866 0.2021 0.1955, -0.0866 0.2295 0.1958, -0.2027 0.2295 0.1958, -0.0866 0.2381 0.1927, -0.2027 0.2381 0.1927, -0.0866 0.2457 0.1877, -0.2027 0.2457 0.1877, -0.0866 0.252 0.1811, -0.2027 0.252 0.1811, -0.0866 0.2126 0.0748, -0.0866 0.2126 0.1811, 0.0434 -0.1732 0.1579, 0.0434 -0.1732 0.0748, -0.0433 -0.1732 0.1579, -0.0433 -0.1732 0.0748, -0.0433 -0.1746 0.168, 0.0434 -0.1746 0.168, -0.0433 -0.1784 0.1774, 0.0434 -0.1784 0.1774, -0.0433 -0.1846 0.1854, 0.0434 -0.1846 0.1854, -0.0433 -0.1927 0.1916, 0.0434 -0.1927 0.1916, -0.0433 -0.2021 0.1955, 0.0434 -0.2021 0.1955, -0.0433 -0.2122 0.1969, 0.0434 -0.2122 0.1969, 0.0434 -0.2205 0.1969, -0.0433 -0.2205 0.1969, -0.0433 -0.2295 0.1958, 0.0434 -0.2295 0.1958, -0.0433 -0.2381 0.1927, 0.0434 -0.2381 0.1927, -0.0433 -0.2457 0.1877, 0.0434 -0.2457 0.1877, -0.0433 -0.252 0.1811, 0.0434 -0.252 0.1811, 0.0434 -0.2126 0.1811, 0.0434 -0.2126 0.0748, -0.0433 -0.2126 0.0748, -0.0433 -0.2126 0.1811, 0.315 -0.2126 0.0748, 0.315 -0.1732 0.0748, 0.315 -0.2126 0.1969, 0.315 -0.1732 0.1579, 0.315 -0.2122 0.1969, 0.315 -0.1746 0.168, 0.315 -0.2021 0.1955, 0.315 -0.1927 0.1916, 0.315 -0.1784 0.1774, 0.315 -0.1846 0.1854, 0.2028 -0.2126 0.1969, 0.0867 -0.2122 0.1969, 0.2028 -0.2205 0.1969, 0.0867 -0.2205 0.1969, 0.0867 -0.2295 0.1958, 0.2028 -0.2295 0.1958, 0.0867 -0.2381 0.1927, 0.2028 -0.2381 0.1927, 0.0867 -0.2457 0.1877, 0.2028 -0.2457 0.1877, 0.0867 -0.252 0.1811, 0.2028 -0.252 0.1811, 0.0867 -0.1732 0.1579, 0.0867 -0.1732 0.0748, 0.0867 -0.1746 0.168, 0.0867 -0.1784 0.1774, 0.0867 -0.1846 0.1854, 0.0867 -0.1927 0.1916, 0.0867 -0.2021 0.1955, 0.0867 -0.2126 0.0748, 0.0867 -0.2126 0.1811, -0.3149 -0.2126 0.1969, -0.3149 -0.2122 0.1969, -0.3149 -0.2126 0.0748, -0.3149 -0.1732 0.1579, -0.3149 -0.1732 0.0748, -0.3149 -0.1927 0.1916, -0.3149 -0.1846 0.1854, -0.3149 -0.1784 0.1774, -0.3149 -0.2021 0.1955, -0.3149 -0.1746 0.168, -0.2027 -0.252 0.1811, -0.0866 -0.252 0.1811, -0.0866 -0.2457 0.1877, -0.2027 -0.2457 0.1877, -0.0866 -0.2381 0.1927, -0.2027 -0.2381 0.1927, -0.0866 -0.2295 0.1958, -0.2027 -0.2295 0.1958, -0.0866 -0.2205 0.1969, -0.2027 -0.2205 0.1969, -0.2027 -0.2126 0.1969, -0.0866 -0.2122 0.1969, -0.0866 -0.2021 0.1955, -0.0866 -0.1927 0.1916, -0.0866 -0.1846 0.1854, -0.0866 -0.1784 0.1774, -0.0866 -0.1746 0.168, -0.0866 -0.1732 0.1579, -0.0866 -0.1732 0.0748, -0.0866 -0.2126 0.1811, -0.0866 -0.2126 0.0748, 0.4567 0.2913 0.0236, 0.4567 0.2953 0.0236, 0.3623 0.2913 0.0236, 0.3623 0.2953 0.0236, 0.4567 0.2953 0.0, 0.4567 0.2913 0.0118, 0.4567 0.2362 0.0, 0.4567 0.2182 0.0118, 0.4567 0.2205 0.0079, 0.4567 0.2236 0.0046, 0.4567 0.2317 0.0005, 0.4567 0.2274 0.0021, 0.3623 0.2274 0.0021, 0.3623 0.2236 0.0046, 0.3623 0.2317 0.0005, 0.3623 0.2362 0.0, 0.3623 0.2913 0.0118, 0.3623 0.2953 0.0, 0.3623 0.2182 0.0118, 0.3623 0.2205 0.0079, 0.0237 0.2913 0.0236, 0.0237 0.2953 0.0236, -0.0236 0.2913 0.0236, -0.0236 0.2953 0.0236, 0.0237 0.2953 0.0, 0.0237 0.2913 0.0118, 0.0237 0.2756 0.0, 0.0237 0.2711 0.0005, 0.0237 0.2575 0.0118, 0.0237 0.2598 0.0079, 0.0237 0.263 0.0046, 0.0237 0.2668 0.0021, -0.0236 0.2913 0.0118, -0.0236 0.2953 0.0, -0.0236 0.2756 0.0, -0.0236 0.2711 0.0005, -0.0236 0.2668 0.0021, -0.0236 0.263 0.0046, -0.0236 0.2598 0.0079, -0.0236 0.2575 0.0118, 0.2717 0.2913 0.0236, 0.2717 0.2953 0.0236, 0.1142 0.2913 0.0236, 0.1142 0.2953 0.0236, 0.2717 0.2953 0.0, 0.2717 0.2913 0.0118, 0.2717 0.2756 0.0, 0.2717 0.2711 0.0005, 0.2717 0.2575 0.0118, 0.2717 0.2598 0.0079, 0.2717 0.263 0.0046, 0.2717 0.2668 0.0021, 0.1142 0.2913 0.0118, 0.1142 0.2953 0.0, 0.1142 0.2756 0.0, 0.1142 0.2711 0.0005, 0.1142 0.2668 0.0021, 0.1142 0.263 0.0046, 0.1142 0.2598 0.0079, 0.1142 0.2575 0.0118, -0.3622 0.2953 0.0236, -0.4566 0.2953 0.0236, -0.3622 0.2913 0.0236, -0.4566 0.2913 0.0236, -0.4566 0.2913 0.0118, -0.4566 0.2953 0.0, -0.4566 0.2182 0.0118, -0.4566 0.2362 0.0, -0.4566 0.2317 0.0005, -0.4566 0.2274 0.0021, -0.4566 0.2205 0.0079, -0.4566 0.2236 0.0046, -0.3622 0.2953 0.0, -0.3622 0.2913 0.0118, -0.3622 0.2362 0.0, -0.3622 0.2182 0.0118, -0.3622 0.2205 0.0079, -0.3622 0.2236 0.0046, -0.3622 0.2274 0.0021, -0.3622 0.2317 0.0005, -0.1141 0.2953 0.0236, -0.2716 0.2953 0.0236, -0.1141 0.2913 0.0236, -0.2716 0.2913 0.0236, -0.2716 0.2913 0.0118, -0.2716 0.2953 0.0, -0.2716 0.2756 0.0, -0.2716 0.2711 0.0005, -0.2716 0.2668 0.0021, -0.2716 0.263 0.0046, -0.2716 0.2598 0.0079, -0.2716 0.2575 0.0118, -0.1141 0.2953 0.0, -0.1141 0.2913 0.0118, -0.1141 0.2756 0.0, -0.1141 0.2711 0.0005, -0.1141 0.2575 0.0118, -0.1141 0.2598 0.0079, -0.1141 0.263 0.0046, -0.1141 0.2668 0.0021, -0.4566 -0.2913 0.0236, -0.4566 -0.2953 0.0236, -0.3622 -0.2913 0.0236, -0.3622 -0.2953 0.0236, -0.4566 -0.2953 0.0, -0.4566 -0.2362 0.0, -0.3622 -0.2953 0.0, -0.3622 -0.2362 0.0, -0.4566 -0.2182 0.0118, -0.3622 -0.2182 0.0118, -0.3622 -0.2205 0.0079, -0.4566 -0.2205 0.0079, -0.3622 -0.2236 0.0046, -0.4566 -0.2236 0.0046, -0.3622 -0.2274 0.0021, -0.4566 -0.2274 0.0021, -0.3622 -0.2317 0.0005, -0.4566 -0.2317 0.0005, -0.4566 -0.2913 0.0118, -0.3622 -0.2913 0.0118, -0.0236 -0.2913 0.0236, -0.0236 -0.2953 0.0236, 0.0237 -0.2913 0.0236, 0.0237 -0.2953 0.0236, -0.0236 -0.2953 0.0, -0.0236 -0.2756 0.0, 0.0237 -0.2953 0.0, 0.0237 -0.2756 0.0, -0.0236 -0.2575 0.0118, 0.0237 -0.2575 0.0118, 0.0237 -0.2598 0.0079, -0.0236 -0.2598 0.0079, 0.0237 -0.263 0.0046, -0.0236 -0.263 0.0046, 0.0237 -0.2668 0.0021, -0.0236 -0.2668 0.0021, 0.0237 -0.2711 0.0005, -0.0236 -0.2711 0.0005, -0.0236 -0.2913 0.0118, 0.0237 -0.2913 0.0118, -0.2716 -0.2913 0.0236, -0.2716 -0.2953 0.0236, -0.1141 -0.2913 0.0236, -0.1141 -0.2953 0.0236, -0.2716 -0.2953 0.0, -0.2716 -0.2756 0.0, -0.1141 -0.2953 0.0, -0.1141 -0.2756 0.0, -0.2716 -0.2575 0.0118, -0.1141 -0.2575 0.0118, -0.1141 -0.2598 0.0079, -0.2716 -0.2598 0.0079, -0.1141 -0.263 0.0046, -0.2716 -0.263 0.0046, -0.1141 -0.2668 0.0021, -0.2716 -0.2668 0.0021, -0.1141 -0.2711 0.0005, -0.2716 -0.2711 0.0005, -0.2716 -0.2913 0.0118, -0.1141 -0.2913 0.0118, 0.3623 -0.2953 0.0236, 0.4567 -0.2953 0.0236, 0.3623 -0.2913 0.0236, 0.4567 -0.2913 0.0236, 0.4567 -0.2362 0.0, 0.4567 -0.2953 0.0, 0.3623 -0.2362 0.0, 0.3623 -0.2953 0.0, 0.3623 -0.2317 0.0005, 0.4567 -0.2317 0.0005, 0.3623 -0.2274 0.0021, 0.4567 -0.2274 0.0021, 0.3623 -0.2236 0.0046, 0.4567 -0.2236 0.0046, 0.3623 -0.2205 0.0079, 0.4567 -0.2205 0.0079, 0.3623 -0.2182 0.0118, 0.4567 -0.2182 0.0118, 0.4567 -0.2913 0.0118, 0.3623 -0.2913 0.0118, 0.1142 -0.2953 0.0236, 0.2717 -0.2953 0.0236, 0.1142 -0.2913 0.0236, 0.2717 -0.2913 0.0236, 0.2717 -0.2756 0.0, 0.2717 -0.2953 0.0, 0.1142 -0.2756 0.0, 0.1142 -0.2953 0.0, 0.1142 -0.2711 0.0005, 0.2717 -0.2711 0.0005, 0.1142 -0.2668 0.0021, 0.2717 -0.2668 0.0021, 0.1142 -0.263 0.0046, 0.2717 -0.263 0.0046, 0.1142 -0.2598 0.0079, 0.2717 -0.2598 0.0079, 0.1142 -0.2575 0.0118, 0.2717 -0.2575 0.0118, 0.2717 -0.2913 0.0118, 0.1142 -0.2913 0.0118
            ]
        }
        coordIndex [
            0,1,2,-1,2,1,3,-1,4,0,5,-1,5,0,2,-1,6,4,7,-1,7,4,5,-1,8,6,9,-1,9,6,7,-1,10,8,11,-1,11,8,9,-1,12,13,14,-1,14,15,12,-1,12,15,16,-1,12,16,17,-1,18,12,19,-1,19,12,17,-1,19,17,20,-1,20,17,21,-1,20,21,22,-1,22,21,23,-1,22,23,24,-1,24,23,25,-1,24,25,26,-1,26,25,27,-1,26,27,28,-1,28,27,29,-1,28,29,11,-1,11,29,10,-1,30,31,32,-1,32,31,33,-1,32,33,34,-1,34,33,35,-1,3,1,36,-1,36,1,37,-1,36,37,38,-1,38,37,39,-1,38,39,40,-1,40,39,41,-1,40,41,42,-1,42,41,43,-1,42,43,44,-1,44,43,45,-1,44,45,46,-1,46,45,35,-1,46,35,47,-1,47,35,33,-1,4,6,10,-1,10,6,8,-1,0,4,1,-1,1,4,10,-1,1,10,37,-1,37,10,29,-1,47,18,46,-1,46,18,19,-1,46,19,44,-1,44,19,20,-1,44,20,42,-1,42,20,22,-1,42,22,40,-1,40,22,24,-1,40,24,38,-1,38,24,26,-1,38,26,36,-1,36,26,28,-1,37,29,27,-1,37,27,39,-1,39,27,25,-1,39,25,41,-1,41,25,23,-1,41,23,43,-1,43,23,21,-1,43,21,45,-1,45,21,17,-1,45,17,35,-1,35,17,16,-1,35,16,34,-1,34,16,15,-1,34,15,32,-1,30,32,14,-1,14,32,15,-1,48,49,50,-1,50,49,51,-1,52,53,54,-1,54,55,52,-1,52,55,56,-1,52,56,57,-1,58,52,59,-1,59,52,57,-1,59,57,60,-1,60,57,61,-1,60,61,62,-1,62,61,63,-1,62,63,64,-1,64,63,65,-1,64,65,66,-1,66,65,67,-1,66,67,68,-1,68,67,69,-1,68,69,50,-1,50,69,48,-1,70,71,72,-1,72,71,73,-1,72,73,74,-1,74,73,75,-1,76,77,78,-1,78,77,79,-1,78,79,80,-1,80,79,81,-1,80,81,82,-1,82,81,83,-1,82,83,84,-1,84,83,85,-1,84,85,86,-1,86,85,87,-1,86,87,88,-1,88,87,75,-1,88,75,89,-1,89,75,73,-1,90,77,91,-1,91,77,76,-1,92,90,93,-1,93,90,91,-1,94,92,95,-1,95,92,93,-1,49,94,51,-1,51,94,95,-1,77,90,92,-1,94,49,48,-1,69,79,48,-1,48,79,77,-1,48,77,94,-1,94,77,92,-1,55,54,72,-1,72,54,70,-1,55,72,74,-1,55,74,56,-1,56,74,75,-1,56,75,57,-1,57,75,87,-1,57,87,61,-1,61,87,85,-1,61,85,63,-1,63,85,83,-1,63,83,65,-1,65,83,81,-1,65,81,67,-1,67,81,79,-1,67,79,69,-1,68,78,66,-1,66,78,80,-1,66,80,64,-1,64,80,82,-1,64,82,62,-1,62,82,84,-1,62,84,60,-1,60,84,86,-1,60,86,59,-1,59,86,88,-1,59,88,58,-1,58,88,89,-1,96,97,98,-1,96,98,99,-1,99,98,100,-1,99,100,101,-1,101,100,102,-1,101,102,103,-1,103,102,104,-1,103,104,105,-1,106,105,107,-1,107,105,104,-1,106,107,108,-1,106,108,109,-1,109,108,110,-1,109,110,111,-1,111,110,112,-1,111,112,113,-1,113,112,114,-1,113,114,115,-1,115,114,116,-1,115,116,117,-1,117,116,118,-1,117,118,119,-1,120,119,121,-1,121,119,118,-1,103,105,122,-1,120,123,119,-1,119,123,122,-1,119,122,117,-1,105,106,122,-1,122,106,109,-1,122,109,111,-1,96,99,122,-1,122,99,101,-1,122,101,103,-1,111,113,122,-1,122,113,115,-1,122,115,117,-1,124,125,121,-1,108,107,124,-1,124,107,104,-1,124,104,102,-1,102,100,124,-1,124,100,98,-1,124,98,97,-1,121,118,124,-1,124,118,116,-1,124,116,114,-1,114,112,124,-1,124,112,110,-1,124,110,108,-1,126,127,128,-1,129,126,130,-1,130,126,128,-1,130,128,131,-1,128,132,131,-1,131,132,133,-1,131,133,134,-1,134,133,135,-1,136,137,138,-1,138,139,136,-1,136,139,128,-1,136,128,127,-1,140,141,142,-1,140,142,143,-1,143,142,144,-1,143,144,145,-1,145,144,146,-1,145,146,147,-1,147,146,138,-1,147,138,137,-1,128,139,148,-1,128,148,132,-1,132,148,149,-1,132,149,133,-1,133,149,150,-1,133,150,135,-1,135,150,151,-1,135,151,134,-1,134,151,152,-1,134,152,131,-1,131,152,153,-1,131,153,130,-1,129,130,154,-1,154,130,153,-1,155,156,154,-1,148,139,155,-1,155,139,138,-1,155,138,146,-1,146,144,155,-1,155,144,142,-1,155,142,141,-1,154,153,155,-1,155,153,152,-1,155,152,151,-1,151,150,155,-1,155,150,149,-1,155,149,148,-1,157,158,159,-1,159,158,160,-1,159,160,161,-1,161,162,159,-1,159,162,163,-1,159,163,164,-1,164,163,165,-1,164,165,166,-1,157,159,167,-1,167,159,168,-1,167,168,169,-1,169,168,170,-1,161,160,171,-1,171,160,172,-1,161,171,173,-1,161,173,162,-1,162,173,174,-1,162,174,163,-1,163,174,175,-1,163,175,165,-1,165,175,176,-1,165,176,166,-1,166,176,177,-1,166,177,164,-1,164,177,168,-1,164,168,159,-1,169,170,178,-1,169,178,179,-1,179,178,180,-1,179,180,181,-1,181,180,182,-1,181,182,183,-1,183,182,184,-1,183,184,185,-1,172,186,171,-1,171,186,187,-1,171,187,173,-1,173,187,174,-1,178,170,187,-1,187,170,168,-1,187,168,177,-1,184,182,187,-1,187,182,180,-1,187,180,178,-1,177,176,187,-1,187,176,175,-1,187,175,174,-1,188,189,190,-1,190,189,191,-1,188,190,192,-1,188,192,193,-1,193,192,194,-1,193,194,195,-1,195,194,196,-1,195,196,197,-1,197,196,198,-1,197,198,199,-1,199,198,200,-1,199,200,201,-1,201,200,202,-1,201,202,203,-1,204,203,205,-1,205,203,202,-1,204,205,206,-1,204,206,207,-1,207,206,208,-1,207,208,209,-1,209,208,210,-1,209,210,211,-1,211,210,212,-1,211,212,213,-1,214,215,189,-1,201,203,214,-1,214,203,204,-1,214,204,207,-1,207,209,214,-1,214,209,211,-1,214,211,213,-1,189,188,214,-1,214,188,193,-1,214,193,195,-1,195,197,214,-1,214,197,199,-1,214,199,201,-1,191,216,190,-1,190,216,217,-1,206,205,217,-1,217,205,202,-1,202,200,217,-1,217,200,198,-1,217,198,196,-1,212,210,217,-1,217,210,208,-1,217,208,206,-1,196,194,217,-1,217,194,192,-1,217,192,190,-1,218,219,220,-1,220,219,221,-1,220,221,222,-1,222,221,223,-1,222,223,224,-1,224,223,225,-1,225,223,226,-1,225,226,227,-1,220,222,228,-1,228,222,229,-1,228,229,230,-1,230,229,231,-1,230,231,232,-1,230,232,233,-1,233,232,234,-1,233,234,235,-1,235,234,236,-1,235,236,237,-1,237,236,238,-1,237,238,239,-1,221,219,240,-1,240,219,241,-1,221,240,242,-1,221,242,223,-1,223,242,243,-1,223,243,226,-1,226,243,244,-1,226,244,227,-1,227,244,245,-1,227,245,225,-1,225,245,246,-1,225,246,224,-1,224,246,229,-1,224,229,222,-1,241,247,240,-1,240,247,248,-1,232,231,248,-1,248,231,229,-1,229,246,248,-1,248,246,245,-1,248,245,244,-1,238,236,248,-1,248,236,234,-1,248,234,232,-1,244,243,248,-1,248,243,242,-1,248,242,240,-1,249,250,251,-1,251,250,252,-1,251,252,253,-1,254,255,256,-1,250,257,252,-1,252,257,254,-1,252,254,258,-1,258,254,256,-1,259,260,261,-1,259,261,262,-1,262,261,263,-1,262,263,264,-1,264,263,265,-1,264,265,266,-1,266,265,267,-1,266,267,268,-1,269,268,267,-1,267,270,269,-1,269,270,250,-1,269,250,249,-1,250,270,271,-1,250,271,257,-1,257,271,272,-1,257,272,254,-1,254,272,273,-1,254,273,255,-1,255,273,274,-1,255,274,256,-1,256,274,275,-1,256,275,258,-1,258,275,276,-1,258,276,252,-1,253,252,277,-1,277,252,276,-1,278,279,277,-1,271,270,278,-1,278,270,267,-1,278,267,265,-1,277,276,278,-1,278,276,275,-1,278,275,274,-1,265,263,278,-1,278,263,261,-1,278,261,260,-1,274,273,278,-1,278,273,272,-1,278,272,271,-1,280,281,282,-1,282,281,283,-1,281,280,284,-1,284,280,285,-1,284,285,286,-1,286,285,287,-1,287,288,286,-1,286,288,289,-1,286,289,290,-1,290,289,291,-1,292,293,294,-1,294,293,295,-1,282,283,296,-1,296,283,297,-1,296,297,298,-1,298,297,295,-1,298,295,299,-1,299,295,293,-1,284,286,297,-1,297,286,295,-1,281,284,283,-1,283,284,297,-1,287,298,299,-1,287,299,288,-1,288,299,293,-1,288,293,289,-1,289,293,292,-1,289,292,291,-1,291,292,294,-1,291,294,290,-1,290,294,295,-1,290,295,286,-1,300,301,302,-1,302,301,303,-1,301,300,304,-1,304,300,305,-1,304,305,306,-1,306,305,307,-1,305,308,309,-1,309,310,305,-1,305,310,311,-1,305,311,307,-1,302,303,312,-1,312,303,313,-1,313,314,312,-1,312,314,315,-1,312,315,316,-1,316,317,312,-1,312,317,318,-1,312,318,319,-1,304,306,313,-1,313,306,314,-1,301,304,303,-1,303,304,313,-1,308,319,318,-1,308,318,309,-1,309,318,317,-1,309,317,310,-1,310,317,316,-1,310,316,311,-1,311,316,315,-1,311,315,307,-1,307,315,314,-1,307,314,306,-1,320,321,322,-1,322,321,323,-1,321,320,324,-1,324,320,325,-1,324,325,326,-1,326,325,327,-1,325,328,329,-1,329,330,325,-1,325,330,331,-1,325,331,327,-1,322,323,332,-1,332,323,333,-1,333,334,332,-1,332,334,335,-1,332,335,336,-1,336,337,332,-1,332,337,338,-1,332,338,339,-1,324,326,333,-1,333,326,334,-1,321,324,323,-1,323,324,333,-1,328,339,338,-1,328,338,329,-1,329,338,337,-1,329,337,330,-1,330,337,336,-1,330,336,331,-1,331,336,335,-1,331,335,327,-1,327,335,334,-1,327,334,326,-1,340,341,342,-1,342,341,343,-1,343,341,344,-1,344,341,345,-1,344,345,346,-1,346,345,347,-1,347,348,346,-1,346,348,349,-1,346,349,350,-1,350,349,351,-1,340,342,352,-1,352,342,353,-1,352,353,354,-1,354,353,355,-1,354,355,356,-1,356,357,354,-1,354,357,358,-1,354,358,359,-1,347,345,354,-1,354,345,352,-1,347,354,359,-1,347,359,348,-1,348,359,358,-1,348,358,349,-1,349,358,357,-1,349,357,351,-1,351,357,356,-1,351,356,350,-1,350,356,355,-1,350,355,346,-1,345,341,352,-1,352,341,340,-1,360,361,362,-1,362,361,363,-1,363,361,364,-1,364,361,365,-1,365,366,364,-1,364,366,367,-1,364,367,368,-1,368,369,364,-1,364,369,370,-1,364,370,371,-1,360,362,372,-1,372,362,373,-1,372,373,374,-1,374,373,375,-1,373,376,377,-1,377,378,373,-1,373,378,379,-1,373,379,375,-1,366,365,374,-1,374,365,372,-1,366,374,375,-1,366,375,367,-1,367,375,379,-1,367,379,368,-1,368,379,378,-1,368,378,369,-1,369,378,377,-1,369,377,370,-1,370,377,376,-1,370,376,371,-1,365,361,372,-1,372,361,360,-1,380,381,382,-1,382,381,383,-1,384,385,386,-1,386,385,387,-1,381,384,383,-1,383,384,386,-1,388,389,390,-1,388,390,391,-1,391,390,392,-1,391,392,393,-1,393,392,394,-1,393,394,395,-1,395,394,396,-1,395,396,397,-1,397,396,387,-1,397,387,385,-1,381,380,384,-1,384,380,398,-1,384,398,385,-1,385,398,388,-1,388,391,385,-1,385,391,393,-1,385,393,397,-1,397,393,395,-1,394,392,396,-1,396,392,387,-1,382,383,399,-1,399,383,386,-1,399,386,389,-1,389,386,387,-1,389,387,390,-1,390,387,392,-1,400,401,402,-1,402,401,403,-1,404,405,406,-1,406,405,407,-1,401,404,403,-1,403,404,406,-1,408,409,410,-1,408,410,411,-1,411,410,412,-1,411,412,413,-1,413,412,414,-1,413,414,415,-1,415,414,416,-1,415,416,417,-1,417,416,407,-1,417,407,405,-1,401,400,404,-1,404,400,418,-1,408,411,418,-1,418,411,413,-1,418,413,415,-1,415,417,418,-1,418,417,405,-1,418,405,404,-1,402,403,419,-1,419,403,406,-1,406,407,419,-1,419,407,416,-1,419,416,414,-1,414,412,419,-1,419,412,410,-1,419,410,409,-1,420,421,422,-1,422,421,423,-1,424,425,426,-1,426,425,427,-1,421,424,423,-1,423,424,426,-1,428,429,430,-1,428,430,431,-1,431,430,432,-1,431,432,433,-1,433,432,434,-1,433,434,435,-1,435,434,436,-1,435,436,437,-1,437,436,427,-1,437,427,425,-1,421,420,424,-1,424,420,438,-1,428,431,438,-1,438,431,433,-1,438,433,435,-1,435,437,438,-1,438,437,425,-1,438,425,424,-1,422,423,439,-1,439,423,426,-1,426,427,439,-1,439,427,436,-1,439,436,434,-1,434,432,439,-1,439,432,430,-1,439,430,429,-1,440,441,442,-1,442,441,443,-1,444,445,446,-1,446,445,447,-1,444,446,448,-1,444,448,449,-1,449,448,450,-1,449,450,451,-1,451,450,452,-1,451,452,453,-1,453,452,454,-1,453,454,455,-1,455,454,456,-1,455,456,457,-1,445,441,447,-1,447,441,440,-1,453,444,451,-1,451,444,449,-1,443,441,458,-1,458,441,445,-1,458,445,457,-1,457,445,444,-1,457,444,455,-1,455,444,453,-1,440,442,447,-1,447,442,459,-1,447,459,446,-1,446,459,456,-1,446,456,454,-1,454,452,446,-1,446,452,450,-1,446,450,448,-1,460,461,462,-1,462,461,463,-1,464,465,466,-1,466,465,467,-1,464,466,468,-1,464,468,469,-1,469,468,470,-1,469,470,471,-1,471,470,472,-1,471,472,473,-1,473,472,474,-1,473,474,475,-1,475,474,476,-1,475,476,477,-1,465,461,467,-1,467,461,460,-1,478,463,461,-1,475,477,478,-1,461,465,478,-1,478,465,464,-1,478,464,469,-1,469,471,478,-1,478,471,473,-1,478,473,475,-1,460,462,467,-1,467,462,479,-1,467,479,466,-1,476,474,479,-1,479,474,472,-1,472,470,479,-1,479,470,468,-1,479,468,466,-1,
        ]
    }
}
Shape{
    appearance Appearance {
        material  Material 	{
            diffuseColor 0.20784313725490197 0.20784313725490197 0.20784313725490197
            specularColor 0.01568627450980392 0.01568627450980392 0.01568627450980392
            ambientIntensity 0.298
            transparency 0.0
            shininess 0.5
        }
    }
    geometry IndexedFaceSet {
        ccw TRUE
        solid FALSE
        coord DEF co Coordinate {
            point [
                0.229 -0.0807 0.0748, 0.2408 -0.0689 0.0748, 0.229 -0.0807 0.1969, 0.2408 -0.0689 0.1969, 0.2408 0.0689 0.0748, 0.229 0.0807 0.0748, 0.2408 0.0689 0.1969, 0.229 0.0807 0.1969, -0.2407 -0.0689 0.0748, -0.2289 -0.0807 0.0748, -0.2407 -0.0689 0.1969, -0.2289 -0.0807 0.1969, -0.2289 0.0807 0.0748, -0.2407 0.0689 0.0748, -0.2289 0.0807 0.1969, -0.2407 0.0689 0.1969
            ]
        }
        coordIndex [
            0,1,2,-1,2,1,3,-1,4,5,6,-1,6,5,7,-1,8,9,10,-1,10,9,11,-1,12,13,14,-1,14,13,15,-1,
        ]
    }
}
Shape{
    appearance Appearance {
        material  Material 	{
            diffuseColor 1.0 1.0 1.0
            specularColor 0.8784313725490196 0.8784313725490196 0.8784313725490196
            ambientIntensity 1.0
            transparency 0.0
            shininess 0.5
        }
    }
    geometry IndexedFaceSet {
        ccw TRUE
        solid FALSE
        coord DEF co Coordinate {
            point [
                -0.0821 -0.206 0.0157, -0.0821 -0.206 0.0118, -0.0667 -0.1667 0.0157, -0.0676 -0.1689 0.0118, -0.0667 -0.1667 0.0118, -0.0763 -0.206 0.0157, -0.0763 -0.206 0.0118, -0.0723 -0.195 0.0157, -0.0723 -0.195 0.0118, -0.056 -0.195 0.0157, -0.056 -0.195 0.0118, -0.0676 -0.195 0.0118, -0.0523 -0.206 0.0157, -0.0523 -0.206 0.0118, -0.0465 -0.206 0.0157, -0.0465 -0.206 0.0118, -0.0614 -0.1667 0.0157, -0.0614 -0.1667 0.0118, -0.0574 -0.1907 0.0157, -0.0705 -0.1907 0.0157, -0.0632 -0.1742 0.0157, -0.0636 -0.1729 0.0157, -0.0639 -0.1715 0.0157, -0.064 -0.1715 0.0157, -0.0643 -0.1729 0.0157, -0.0646 -0.1742 0.0157, -0.0574 -0.1907 0.0118, -0.0705 -0.1907 0.0118, -0.0632 -0.1742 0.0118, -0.0636 -0.1729 0.0118, -0.0639 -0.1715 0.0118, -0.064 -0.1715 0.0118, -0.0643 -0.1729 0.0118, -0.0646 -0.1742 0.0118, -0.0227 -0.206 0.0157, -0.012 -0.206 0.0157, -0.0227 -0.206 0.0118, -0.012 -0.206 0.0118, -0.012 -0.1667 0.0157, -0.012 -0.1667 0.0118, -0.0231 -0.1667 0.0157, -0.0231 -0.1667 0.0118, -0.0436 -0.1859 0.0157, -0.0436 -0.1859 0.0118, -0.0434 -0.1821 0.0118, -0.0434 -0.1821 0.0157, -0.0423 -0.1783 0.0118, -0.0423 -0.1783 0.0157, -0.0405 -0.1749 0.0118, -0.0405 -0.1749 0.0157, -0.0377 -0.1718 0.0118, -0.0377 -0.1718 0.0157, -0.0376 -0.1718 0.0118, -0.0376 -0.1718 0.0157, -0.0334 -0.1689 0.0118, -0.0334 -0.1689 0.0157, -0.0288 -0.1673 0.0118, -0.0288 -0.1673 0.0157, -0.0275 -0.2056 0.0118, -0.0275 -0.2056 0.0157, -0.0321 -0.2043 0.0118, -0.0321 -0.2043 0.0157, -0.0362 -0.2019 0.0118, -0.0362 -0.2019 0.0157, -0.0394 -0.1988 0.0118, -0.0394 -0.1988 0.0157, -0.0417 -0.1952 0.0118, -0.0417 -0.1952 0.0157, -0.0431 -0.1911 0.0118, -0.0431 -0.1911 0.0157, -0.0357 -0.1765 0.0157, -0.0338 -0.1745 0.0157, -0.031 -0.1726 0.0157, -0.0277 -0.1715 0.0157, -0.023 -0.171 0.0157, -0.0172 -0.171 0.0157, -0.0172 -0.2017 0.0157, -0.0228 -0.2017 0.0157, -0.027 -0.2013 0.0157, -0.0303 -0.2003 0.0157, -0.033 -0.1987 0.0157, -0.0352 -0.1965 0.0157, -0.0368 -0.1938 0.0157, -0.038 -0.1901 0.0157, -0.0384 -0.186 0.0157, -0.038 -0.182 0.0157, -0.0371 -0.1789 0.0157, -0.023 -0.171 0.0118, -0.0172 -0.171 0.0118, -0.0277 -0.1715 0.0118, -0.031 -0.1726 0.0118, -0.0338 -0.1745 0.0118, -0.0357 -0.1765 0.0118, -0.0371 -0.1789 0.0118, -0.038 -0.182 0.0118, -0.0384 -0.186 0.0118, -0.038 -0.1901 0.0118, -0.0368 -0.1938 0.0118, -0.0352 -0.1965 0.0118, -0.033 -0.1987 0.0118, -0.0303 -0.2003 0.0118, -0.027 -0.2013 0.0118, -0.0228 -0.2017 0.0118, -0.0172 -0.2017 0.0118, -0.0043 -0.2017 0.0157, -0.0043 -0.206 0.0157, -0.0043 -0.2017 0.0118, -0.0043 -0.206 0.0118, 0.0169 -0.206 0.0157, 0.0169 -0.206 0.0118, 0.0169 -0.1667 0.0157, 0.0169 -0.1667 0.0118, -0.0033 -0.1667 0.0157, -0.0033 -0.1667 0.0118, -0.0033 -0.171 0.0157, -0.0033 -0.171 0.0118, 0.0116 -0.171 0.0157, 0.0116 -0.171 0.0118, 0.0116 -0.1839 0.0157, 0.0116 -0.1839 0.0118, -0.0024 -0.1839 0.0157, -0.0024 -0.1839 0.0118, -0.0024 -0.1883 0.0157, -0.0024 -0.1883 0.0118, 0.0116 -0.1883 0.0157, 0.0116 -0.1883 0.0118, 0.0116 -0.2017 0.0157, 0.0116 -0.2017 0.0118, 0.0245 -0.1997 0.0157, 0.0245 -0.204 0.0157, 0.0245 -0.1997 0.0118, 0.0245 -0.204 0.0118, 0.0287 -0.2057 0.0157, 0.0354 -0.2065 0.0157, 0.0354 -0.2065 0.0118, 0.0343 -0.2065 0.0118, 0.0343 -0.2065 0.0157, 0.0327 -0.2063 0.0118, 0.0287 -0.2057 0.0118, 0.0538 -0.1871 0.0157, 0.0538 -0.1871 0.0118, 0.0534 -0.1916 0.0118, 0.0534 -0.1916 0.0157, 0.0523 -0.1958 0.0118, 0.0523 -0.1958 0.0157, 0.0502 -0.1996 0.0118, 0.0502 -0.1996 0.0157, 0.0472 -0.2027 0.0118, 0.0472 -0.2027 0.0157, 0.044 -0.2047 0.0118, 0.044 -0.2047 0.0157, 0.0402 -0.206 0.0118, 0.0402 -0.206 0.0157, 0.0377 -0.2063 0.0118, 0.0338 -0.1662 0.0157, 0.0338 -0.1662 0.0118, 0.0378 -0.1665 0.0118, 0.0378 -0.1665 0.0157, 0.0421 -0.1678 0.0118, 0.0421 -0.1678 0.0157, 0.0459 -0.1699 0.0118, 0.0459 -0.1699 0.0157, 0.0494 -0.1733 0.0118, 0.0494 -0.1733 0.0157, 0.0517 -0.177 0.0118, 0.0517 -0.177 0.0157, 0.0533 -0.1815 0.0118, 0.0533 -0.1815 0.0157, 0.0245 -0.1677 0.0157, 0.0245 -0.1677 0.0118, 0.0291 -0.1665 0.0118, 0.0291 -0.1665 0.0157, 0.0245 -0.173 0.0157, 0.0245 -0.173 0.0118, 0.0338 -0.1705 0.0157, 0.0338 -0.1705 0.0118, 0.029 -0.1711 0.0118, 0.029 -0.1711 0.0157, 0.0485 -0.1868 0.0157, 0.0485 -0.1868 0.0118, 0.0484 -0.1837 0.0118, 0.0484 -0.1837 0.0157, 0.0473 -0.1795 0.0118, 0.0473 -0.1795 0.0157, 0.0457 -0.1764 0.0118, 0.0457 -0.1764 0.0157, 0.0433 -0.1738 0.0118, 0.0433 -0.1738 0.0157, 0.0406 -0.172 0.0118, 0.0406 -0.172 0.0157, 0.0376 -0.1709 0.0118, 0.0376 -0.1709 0.0157, 0.0346 -0.2022 0.0157, 0.0346 -0.2022 0.0118, 0.0383 -0.2018 0.0118, 0.0383 -0.2018 0.0157, 0.0412 -0.2007 0.0118, 0.0412 -0.2007 0.0157, 0.0436 -0.1991 0.0118, 0.0436 -0.1991 0.0157, 0.0454 -0.1971 0.0118, 0.0454 -0.1971 0.0157, 0.0471 -0.1944 0.0118, 0.0471 -0.1944 0.0157, 0.0481 -0.191 0.0118, 0.0481 -0.191 0.0157, 0.0252 -0.2001 0.0118, 0.0252 -0.2001 0.0157, 0.0294 -0.2016 0.0118, 0.0294 -0.2016 0.0157, 0.0572 -0.2017 0.0157, 0.0572 -0.206 0.0157, 0.0572 -0.2017 0.0118, 0.0572 -0.206 0.0118, 0.0773 -0.206 0.0157, 0.0773 -0.206 0.0118, 0.0773 -0.1667 0.0157, 0.0773 -0.1667 0.0118, 0.0721 -0.1667 0.0157, 0.0721 -0.1667 0.0118, 0.0721 -0.2017 0.0157, 0.0721 -0.2017 0.0118
            ]
        }
        coordIndex [
            0,1,2,-1,2,1,3,-1,2,3,4,-1,0,5,1,-1,1,5,6,-1,5,7,6,-1,6,7,8,-1,9,10,7,-1,7,10,11,-1,7,11,8,-1,9,12,10,-1,10,12,13,-1,12,14,13,-1,13,14,15,-1,14,16,15,-1,15,16,17,-1,16,2,17,-1,17,2,4,-1,18,9,19,-1,19,9,7,-1,20,16,18,-1,18,16,14,-1,18,14,9,-1,9,14,12,-1,20,21,16,-1,16,21,22,-1,16,22,2,-1,2,22,23,-1,2,23,24,-1,24,25,2,-1,2,25,19,-1,2,19,0,-1,0,19,7,-1,0,7,5,-1,18,19,26,-1,26,19,27,-1,20,18,28,-1,28,18,26,-1,20,28,29,-1,20,29,21,-1,21,29,30,-1,21,30,22,-1,23,22,31,-1,31,22,30,-1,23,31,32,-1,23,32,24,-1,24,32,33,-1,24,33,25,-1,19,25,27,-1,27,25,33,-1,34,35,36,-1,36,35,37,-1,35,38,37,-1,37,38,39,-1,38,40,39,-1,39,40,41,-1,42,43,44,-1,42,44,45,-1,45,44,46,-1,45,46,47,-1,47,46,48,-1,47,48,49,-1,49,48,50,-1,49,50,51,-1,51,50,52,-1,51,52,53,-1,53,52,54,-1,53,54,55,-1,55,54,56,-1,55,56,57,-1,57,56,41,-1,57,41,40,-1,34,36,58,-1,34,58,59,-1,59,58,60,-1,59,60,61,-1,61,60,62,-1,61,62,63,-1,63,62,64,-1,63,64,65,-1,65,64,66,-1,65,66,67,-1,67,66,68,-1,67,68,69,-1,69,68,43,-1,69,43,42,-1,47,49,70,-1,70,49,51,-1,70,51,71,-1,71,51,53,-1,71,53,72,-1,72,53,55,-1,72,55,73,-1,73,55,57,-1,73,57,74,-1,74,57,40,-1,74,40,75,-1,75,40,38,-1,75,38,76,-1,76,38,35,-1,76,35,77,-1,77,35,34,-1,77,34,78,-1,78,34,59,-1,78,59,79,-1,79,59,61,-1,79,61,80,-1,80,61,63,-1,80,63,81,-1,81,63,65,-1,81,65,82,-1,82,65,67,-1,82,67,83,-1,83,67,69,-1,83,69,84,-1,84,69,42,-1,84,42,85,-1,85,42,45,-1,85,45,86,-1,86,45,47,-1,86,47,70,-1,74,75,87,-1,87,75,88,-1,74,87,89,-1,74,89,73,-1,73,89,90,-1,73,90,72,-1,72,90,91,-1,72,91,71,-1,71,91,92,-1,71,92,70,-1,70,92,93,-1,70,93,86,-1,86,93,94,-1,86,94,85,-1,85,94,95,-1,85,95,84,-1,84,95,96,-1,84,96,83,-1,83,96,97,-1,83,97,82,-1,82,97,98,-1,82,98,81,-1,81,98,99,-1,81,99,80,-1,80,99,100,-1,80,100,79,-1,79,100,101,-1,79,101,78,-1,78,101,102,-1,78,102,77,-1,76,77,103,-1,103,77,102,-1,75,76,88,-1,88,76,103,-1,104,105,106,-1,106,105,107,-1,105,108,107,-1,107,108,109,-1,108,110,109,-1,109,110,111,-1,110,112,111,-1,111,112,113,-1,112,114,113,-1,113,114,115,-1,114,116,115,-1,115,116,117,-1,116,118,117,-1,117,118,119,-1,118,120,119,-1,119,120,121,-1,120,122,121,-1,121,122,123,-1,122,124,123,-1,123,124,125,-1,124,126,125,-1,125,126,127,-1,126,104,127,-1,127,104,106,-1,108,105,104,-1,104,126,108,-1,108,126,124,-1,108,124,110,-1,114,112,116,-1,116,112,110,-1,116,110,118,-1,118,110,124,-1,118,124,120,-1,120,124,122,-1,128,129,130,-1,130,129,131,-1,131,129,132,-1,133,134,135,-1,133,135,136,-1,136,135,137,-1,136,137,132,-1,132,137,138,-1,132,138,131,-1,139,140,141,-1,139,141,142,-1,142,141,143,-1,142,143,144,-1,144,143,145,-1,144,145,146,-1,146,145,147,-1,146,147,148,-1,148,147,149,-1,148,149,150,-1,150,149,151,-1,150,151,152,-1,152,151,133,-1,133,151,153,-1,133,153,134,-1,154,155,156,-1,154,156,157,-1,157,156,158,-1,157,158,159,-1,159,158,160,-1,159,160,161,-1,161,160,162,-1,161,162,163,-1,163,162,164,-1,163,164,165,-1,165,164,166,-1,165,166,167,-1,167,166,140,-1,167,140,139,-1,168,169,170,-1,168,170,171,-1,171,170,155,-1,171,155,154,-1,168,172,169,-1,169,172,173,-1,174,175,176,-1,174,176,177,-1,177,176,173,-1,177,173,172,-1,178,179,180,-1,178,180,181,-1,181,180,182,-1,181,182,183,-1,183,182,184,-1,183,184,185,-1,185,184,186,-1,185,186,187,-1,187,186,188,-1,187,188,189,-1,189,188,190,-1,189,190,191,-1,191,190,175,-1,191,175,174,-1,192,193,194,-1,192,194,195,-1,195,194,196,-1,195,196,197,-1,197,196,198,-1,197,198,199,-1,199,198,200,-1,199,200,201,-1,201,200,202,-1,201,202,203,-1,203,202,204,-1,203,204,205,-1,205,204,179,-1,205,179,178,-1,128,130,206,-1,128,206,207,-1,207,206,208,-1,207,208,209,-1,209,208,193,-1,209,193,192,-1,195,133,192,-1,192,133,136,-1,192,136,209,-1,209,136,132,-1,209,132,207,-1,207,132,129,-1,207,129,128,-1,172,168,177,-1,177,168,171,-1,177,171,174,-1,174,171,154,-1,174,154,191,-1,191,154,157,-1,191,157,189,-1,189,157,159,-1,189,159,187,-1,187,159,161,-1,187,161,185,-1,185,161,163,-1,185,163,183,-1,183,163,165,-1,183,165,181,-1,181,165,167,-1,181,167,178,-1,178,167,139,-1,178,139,205,-1,205,139,142,-1,205,142,203,-1,203,142,144,-1,203,144,201,-1,201,144,146,-1,201,146,199,-1,199,146,148,-1,199,148,197,-1,197,148,150,-1,197,150,195,-1,195,150,152,-1,195,152,133,-1,210,211,212,-1,212,211,213,-1,211,214,213,-1,213,214,215,-1,214,216,215,-1,215,216,217,-1,216,218,217,-1,217,218,219,-1,218,220,219,-1,219,220,221,-1,220,210,221,-1,221,210,212,-1,218,216,220,-1,220,216,214,-1,220,214,210,-1,210,214,211,-1,
        ]
    }
}
Shape{
    appearance Appearance {
        material  Material 	{
            diffuseColor 0.20784313725490197 0.20784313725490197 0.20784313725490197
            specularColor 0.01568627450980392 0.01568627450980392 0.01568627450980392
            ambientIntensity 0.298
            transparency 0.0
            shininess 0.5
        }
    }
    geometry IndexedFaceSet {
        ccw TRUE
        solid FALSE
        coord DEF co Coordinate {
            point [
                -0.0574 -0.1907 0.0118, -0.0705 -0.1907 0.0118, -0.0632 -0.1742 0.0118, -0.0646 -0.1742 0.0118, -0.0636 -0.1729 0.0118, -0.0643 -0.1729 0.0118, -0.0639 -0.1715 0.0118, -0.064 -0.1715 0.0118, -0.0172 -0.171 0.0118, -0.0172 -0.2017 0.0118, -0.023 -0.171 0.0118, -0.0228 -0.2017 0.0118, -0.027 -0.2013 0.0118, -0.0384 -0.186 0.0118, -0.038 -0.182 0.0118, -0.0371 -0.1789 0.0118, -0.0277 -0.1715 0.0118, -0.0303 -0.2003 0.0118, -0.033 -0.1987 0.0118, -0.0352 -0.1965 0.0118, -0.0368 -0.1938 0.0118, -0.038 -0.1901 0.0118, -0.0357 -0.1765 0.0118, -0.0338 -0.1745 0.0118, -0.031 -0.1726 0.0118
            ]
        }
        coordIndex [
            0,1,2,-1,2,1,3,-1,2,3,4,-1,4,3,5,-1,4,5,6,-1,6,5,7,-1,8,9,10,-1,10,9,11,-1,10,11,12,-1,13,14,10,-1,10,14,15,-1,10,15,16,-1,12,17,10,-1,10,17,18,-1,10,18,19,-1,19,20,10,-1,10,20,21,-1,10,21,13,-1,22,23,15,-1,15,23,24,-1,15,24,16,-1,
        ]
    }
}