#VRML V2.0 utf8
# 3D model generated by easyeda2kicad.py (https://github.com/uPesy/easyeda2kicad.py)

Shape{
    appearance Appearance {
        material  Material 	{
            diffuseColor 0.20784313725490197 0.20784313725490197 0.20784313725490197
            specularColor 0.01568627450980392 0.01568627450980392 0.01568627450980392
            ambientIntensity 0.298
            transparency 0.0
            shininess 0.5
        }
    }
    geometry IndexedFaceSet {
        ccw TRUE
        solid FALSE
        coord DEF co Coordinate {
            point [
                0.0093 -0.248 0.0683, 0.0093 -0.248 0.0547, 0.0423 -0.248 0.0547, 0.0093 -0.248 0.1228, 0.0093 -0.248 0.1127, 0.0423 -0.248 0.1127, 0.0798 -0.248 0.1534, 0.0798 -0.248 0.1424, 0.0891 -0.248 0.1424, 0.1228 -0.248 0.099, 0.1228 -0.248 0.088, 0.1292 -0.248 0.088, 0.0745 -0.248 0.0684, 0.0734 -0.248 0.0688, 0.0734 -0.248 0.0683, 0.082 -0.248 0.0685, 0.0805 -0.248 0.0683, 0.0891 -0.248 0.0683, 0.1527 -0.248 0.1324, 0.1401 -0.248 0.1324, 0.1562 -0.248 0.1231, 0.1401 -0.248 0.1228, 0.1611 -0.248 0.1231, 0.9843 -0.248 0.1228, 0.9843 -0.248 0.1577, 0.148 -0.248 0.1574, 0.1401 -0.248 0.1577, 0.1384 -0.248 0.1324, 0.1351 -0.248 0.1231, 0.1292 -0.248 0.1228, 0.1302 -0.248 0.1231, 0.1292 -0.248 0.1577, 0.1401 -0.248 0.149, 0.1432 -0.248 0.1574, 0.0734 -0.248 0.1577, 0.0639 -0.248 0.1577, 0.0651 -0.248 0.1576, 0.0685 -0.248 0.1566, 0.0685 -0.248 0.1519, 0.0734 -0.248 0.1228, 0.0685 -0.248 0.1287, 0.0685 -0.248 0.1245, 0.0679 -0.248 0.1242, 0.0643 -0.248 0.123, 0.0621 -0.248 0.1228, 0.0612 -0.248 0.1265, 0.0651 -0.248 0.1272, 0.0475 -0.248 0.1395, 0.0475 -0.248 0.1398, 0.0507 -0.248 0.1497, 0.0491 -0.248 0.1472, 0.048 -0.248 0.1442, 0.0645 -0.248 0.1535, 0.0604 -0.248 0.154, 0.0589 -0.248 0.1539, 0.056 -0.248 0.1533, 0.048 -0.248 0.1353, 0.0491 -0.248 0.1325, 0.0508 -0.248 0.13, 0.054 -0.248 0.1277, 0.0565 -0.248 0.1268, 0.0597 -0.248 0.1264, 0.068 -0.248 0.1522, 0.0533 -0.248 0.152, 0.0511 -0.248 0.1501, 0.0517 -0.248 0.1292, 0.0577 -0.248 0.1577, 0.0604 -0.248 0.158, 0.0444 -0.248 0.3937, 0.0734 -0.248 0.3937, 0.0607 -0.248 0.158, 0.0444 -0.248 0.1577, 0.056 -0.248 0.1575, 0.0523 -0.248 0.1562, 0.0454 -0.248 0.1498, 0.0478 -0.248 0.1529, 0.0489 -0.248 0.1539, 0.0444 -0.248 0.1317, 0.0433 -0.248 0.1348, 0.0423 -0.248 0.1228, 0.0428 -0.248 0.1396, 0.0429 -0.248 0.1415, 0.0423 -0.248 0.1577, 0.0437 -0.248 0.146, 0.0444 -0.248 0.1475, 0.0501 -0.248 0.1248, 0.0472 -0.248 0.1272, 0.0444 -0.248 0.1228, 0.0465 -0.248 0.128, 0.0446 -0.248 0.131, 0.059 -0.248 0.1225, 0.0571 -0.248 0.1226, 0.0444 -0.248 0.1127, 0.0561 -0.248 0.1228, 0.0533 -0.248 0.1233, 0.1093 -0.248 0.0931, 0.1137 -0.248 0.0931, 0.1161 -0.248 0.1127, 0.1014 -0.248 0.0747, 0.1019 -0.248 0.0727, 0.1021 -0.248 0.0727, 0.0971 -0.248 0.1127, 0.0971 -0.248 0.0872, 0.1026 -0.248 0.0747, 0.1023 -0.248 0.0735, 0.0902 -0.248 0.0931, 0.0891 -0.248 0.1127, 0.0971 -0.248 0.0756, 0.095 -0.248 0.0931, 0.0971 -0.248 0.0683, 0.0997 -0.248 0.0683, 0.0998 -0.248 0.0687, 0.0971 -0.248 0.0627, 0.0971 -0.248 0.0627, 0.0979 -0.248 0.0642, 0.0891 -0.248 0.0547, 0.0911 -0.248 0.0574, 0.0911 -0.248 0.0612, 0.0935 -0.248 0.0608, 0.0946 -0.248 0.0609, 0.0971 -0.248 0.0578, 0.0956 -0.248 0.0573, 0.0971 -0.248 0.0547, 0.0939 -0.248 0.0571, 0.0929 -0.248 0.0571, 0.0955 -0.248 0.0612, 0.0963 -0.248 0.0618, 0.1026 -0.248 0.0649, 0.1007 -0.248 0.0611, 0.1161 -0.248 0.0547, 0.104 -0.248 0.0683, 0.0991 -0.248 0.0592, 0.0988 -0.248 0.059, 0.0973 -0.248 0.0579, 0.0865 -0.248 0.0793, 0.0873 -0.248 0.0782, 0.0868 -0.248 0.0884, 0.0729 -0.248 0.0906, 0.0734 -0.248 0.091, 0.0734 -0.248 0.1127, 0.0742 -0.248 0.0917, 0.0755 -0.248 0.0925, 0.0872 -0.248 0.0722, 0.0864 -0.248 0.0711, 0.0778 -0.248 0.0933, 0.081 -0.248 0.0937, 0.0878 -0.248 0.0769, 0.088 -0.248 0.0753, 0.0878 -0.248 0.0736, 0.0868 -0.248 0.0926, 0.0834 -0.248 0.0935, 0.0852 -0.248 0.07, 0.0842 -0.248 0.0694, 0.0806 -0.248 0.0902, 0.0793 -0.248 0.0901, 0.0759 -0.248 0.0869, 0.0781 -0.248 0.0898, 0.0772 -0.248 0.0893, 0.0759 -0.248 0.0863, 0.0761 -0.248 0.0857, 0.0764 -0.248 0.0851, 0.0768 -0.248 0.0846, 0.0783 -0.248 0.0837, 0.0834 -0.248 0.0899, 0.081 -0.248 0.0825, 0.0858 -0.248 0.089, 0.0827 -0.248 0.0818, 0.0855 -0.248 0.0803, 0.0765 -0.248 0.0887, 0.0762 -0.248 0.0882, 0.076 -0.248 0.0876, 0.0476 -0.248 0.0803, 0.0483 -0.248 0.0872, 0.0468 -0.248 0.0791, 0.0462 -0.248 0.0776, 0.0714 -0.248 0.0739, 0.0656 -0.248 0.0844, 0.0714 -0.248 0.0695, 0.0656 -0.248 0.0686, 0.0592 -0.248 0.0699, 0.0576 -0.248 0.0689, 0.0613 -0.248 0.0686, 0.056 -0.248 0.0683, 0.0444 -0.248 0.0683, 0.0466 -0.248 0.0718, 0.0461 -0.248 0.0732, 0.0444 -0.248 0.0547, 0.0512 -0.248 0.0683, 0.0511 -0.248 0.0683, 0.0495 -0.248 0.069, 0.0526 -0.248 0.0932, 0.0494 -0.248 0.092, 0.0483 -0.248 0.0914, 0.049 -0.248 0.0814, 0.0508 -0.248 0.0824, 0.0511 -0.248 0.089, 0.054 -0.248 0.0832, 0.0578 -0.248 0.09, 0.0563 -0.248 0.0902, 0.0537 -0.248 0.0899, 0.048 -0.248 0.07, 0.0475 -0.248 0.0705, 0.0731 -0.248 0.0729, 0.0734 -0.248 0.0728, 0.0734 -0.248 0.0819, 0.0613 -0.248 0.0724, 0.0612 -0.248 0.0724, 0.0605 -0.248 0.0714, 0.0653 -0.248 0.0877, 0.0716 -0.248 0.0848, 0.0716 -0.248 0.0881, 0.0721 -0.248 0.0894, 0.0637 -0.248 0.091, 0.0567 -0.248 0.0937, 0.0593 -0.248 0.0935, 0.0611 -0.248 0.0929, 0.0459 -0.248 0.0752, 0.0459 -0.248 0.0757, 0.0646 -0.248 0.0896, 0.0714 -0.248 0.0865, 0.0626 -0.248 0.0921, 0.0613 -0.248 0.0842, 0.0611 -0.248 0.0861, 0.0607 -0.248 0.0876, 0.0602 -0.248 0.0885, 0.0734 -0.248 0.0819, 0.0727 -0.248 0.0826, 0.0721 -0.248 0.0835, 0.0595 -0.248 0.0892, 0.0588 -0.248 0.0897, 0.0758 -0.248 0.0719, 0.078 -0.248 0.0794, 0.0754 -0.248 0.0806, 0.0785 -0.248 0.0715, 0.0787 -0.248 0.0715, 0.0808 -0.248 0.0782, 0.0809 -0.248 0.0718, 0.0836 -0.248 0.0749, 0.0835 -0.248 0.0754, 0.082 -0.248 0.0722, 0.0824 -0.248 0.0724, 0.0829 -0.248 0.0729, 0.0833 -0.248 0.0734, 0.0835 -0.248 0.074, 0.0833 -0.248 0.0761, 0.083 -0.248 0.0766, 0.0825 -0.248 0.0772, 0.0752 -0.248 0.0683, 0.0734 -0.248 0.0547, 0.0781 -0.248 0.068, 0.092 -0.248 0.061, 0.0559 -0.248 0.0683, 0.0537 -0.248 0.068, -0.0205 -0.248 0.1306, -0.0139 -0.248 0.125, 0.0093 -0.248 0.1577, -0.0477 -0.248 0.1577, -0.0421 -0.248 0.1539, -0.034 -0.248 0.1446, -0.0289 -0.248 0.1346, -0.0278 -0.248 0.1342, -0.0874 -0.248 0.1651, -0.0753 -0.248 0.1666, 0.0093 -0.248 0.3937, -0.0652 -0.248 0.1655, -0.053 -0.248 0.1612, -0.0986 -0.248 0.1608, -0.5723 -0.248 0.3937, -0.1036 -0.248 0.1577, -0.5723 -0.248 0.1577, -0.1046 -0.248 0.1571, -0.1305 -0.248 0.1456, -0.1209 -0.248 0.1468, -0.1103 -0.248 0.1522, -0.1181 -0.248 0.1467, -0.1153 -0.248 0.1463, -0.149 -0.248 0.1351, -0.1473 -0.248 0.1367, -0.1396 -0.248 0.1421, -0.5723 -0.248 0.1228, -0.5723 -0.248 0.1127, -0.1598 -0.248 0.1127, -0.1587 -0.248 0.1188, -0.157 -0.248 0.1228, -0.1549 -0.248 0.1276, -0.1338 -0.248 0.0699, -0.1426 -0.248 0.0742, -0.5723 -0.248 0.0683, -0.1502 -0.248 0.0807, -0.1558 -0.248 0.0886, -0.1593 -0.248 0.0977, -0.1604 -0.248 0.1073, -0.1604 -0.248 0.1096, -0.1307 -0.248 0.069, -0.1304 -0.248 0.0683, -0.1282 -0.248 0.0637, -0.1246 -0.248 0.0593, -0.0974 -0.248 0.0547, -0.1016 -0.248 0.0531, 0.0093 -0.248 0.0, -0.1075 -0.248 0.0524, -0.1084 -0.248 0.0524, -0.5723 -0.248 0.0, -0.1142 -0.248 0.0533, -0.5723 -0.248 0.0547, -0.1176 -0.248 0.0547, -0.1198 -0.248 0.0557, -0.0846 -0.248 0.0683, -0.0847 -0.248 0.0682, -0.0876 -0.248 0.0627, -0.0913 -0.248 0.0586, -0.0961 -0.248 0.0552, -0.0059 -0.248 0.1107, -0.0048 -0.248 0.1027, -0.0535 -0.248 0.0827, -0.0518 -0.248 0.0834, -0.0489 -0.248 0.0973, -0.0138 -0.248 0.0795, -0.0204 -0.248 0.0739, -0.0892 -0.248 0.0931, -0.0565 -0.248 0.1102, -0.0935 -0.248 0.097, -0.0987 -0.248 0.0998, -0.055 -0.248 0.0817, -0.0089 -0.248 0.0862, -0.0059 -0.248 0.094, -0.0499 -0.248 0.0836, -0.0497 -0.248 0.0836, -0.0489 -0.248 0.0834, -0.143 -0.248 0.098, -0.1401 -0.248 0.0931, -0.1278 -0.248 0.0906, -0.1358 -0.248 0.0886, -0.1304 -0.248 0.0853, -0.1187 -0.248 0.0986, -0.1445 -0.248 0.1127, -0.1237 -0.248 0.0952, -0.1451 -0.248 0.1078, -0.1448 -0.248 0.104, -0.1133 -0.248 0.1007, -0.1075 -0.248 0.1014, -0.1045 -0.248 0.1013, -0.0575 -0.248 0.0761, -0.0574 -0.248 0.077, -0.0831 -0.248 0.0792, -0.0569 -0.248 0.0789, -0.056 -0.248 0.0805, -0.0518 -0.248 0.0687, -0.0534 -0.248 0.0694, -0.055 -0.248 0.0705, -0.0555 -0.248 0.0711, -0.0566 -0.248 0.0726, -0.0572 -0.248 0.0742, -0.0832 -0.248 0.0742, -0.0831 -0.248 0.0768, -0.0245 -0.248 0.0899, -0.0219 -0.248 0.0938, -0.0204 -0.248 0.0982, -0.0199 -0.248 0.1024, -0.02 -0.248 0.1045, -0.0279 -0.248 0.0702, -0.036 -0.248 0.0685, -0.0504 -0.248 0.0685, -0.0485 -0.248 0.0834, -0.0375 -0.248 0.0834, -0.0348 -0.248 0.0838, -0.0303 -0.248 0.0854, -0.0264 -0.248 0.088, -0.0389 -0.248 0.1214, -0.0409 -0.248 0.1214, -0.023 -0.248 0.1127, -0.0348 -0.248 0.121, -0.0212 -0.248 0.1092, -0.1443 -0.248 0.1137, -0.1422 -0.248 0.1191, -0.0234 -0.248 0.1135, -0.0266 -0.248 0.1169, -0.0305 -0.248 0.1195, -0.0462 -0.248 0.1362, -0.0517 -0.248 0.1427, -0.1077 -0.248 0.1285, -0.0522 -0.248 0.1432, -0.0591 -0.248 0.148, -0.104 -0.248 0.1363, -0.1397 -0.248 0.1228, -0.1094 -0.248 0.1294, -0.0412 -0.248 0.1228, -0.0424 -0.248 0.1283, -0.1149 -0.248 0.1315, -0.1207 -0.248 0.1322, -0.1233 -0.248 0.132, -0.0985 -0.248 0.1428, -0.0667 -0.248 0.1509, -0.092 -0.248 0.1475, -0.075 -0.248 0.1519, -0.084 -0.248 0.1508, -0.1293 -0.248 0.1306, -0.1347 -0.248 0.1277, -0.1389 -0.248 0.124, -0.0122 -0.248 0.1228, -0.0089 -0.248 0.1181, -0.0067 -0.248 0.1127, 0.1273 -0.248 0.1344, 0.1256 -0.248 0.1309, 0.1231 -0.248 0.1279, 0.1161 -0.248 0.1577, 0.1161 -0.248 0.1566, 0.1197 -0.248 0.1552, 0.1161 -0.248 0.124, 0.1161 -0.248 0.1228, 0.1194 -0.248 0.1253, 0.1227 -0.248 0.1275, 0.1231 -0.248 0.1528, 0.1245 -0.248 0.1514, 0.1266 -0.248 0.1483, 0.1278 -0.248 0.145, 0.1283 -0.248 0.1407, 0.1282 -0.248 0.1384, 0.0971 -0.248 0.1577, 0.1101 -0.248 0.1574, 0.1156 -0.248 0.1567, 0.1155 -0.248 0.1237, 0.1098 -0.248 0.1231, 0.0971 -0.248 0.1228, 0.1003 -0.248 0.1231, 0.1003 -0.248 0.1574, 0.1228 -0.248 0.0725, 0.1292 -0.248 0.0725, 0.1228 -0.248 0.0841, 0.1292 -0.248 0.0841, 0.136 -0.248 0.1029, 0.136 -0.248 0.099, 0.1401 -0.248 0.1127, 0.1368 -0.248 0.0725, 0.1401 -0.248 0.0683, 0.1368 -0.248 0.0686, 0.1292 -0.248 0.0683, 0.1351 -0.248 0.0841, 0.1351 -0.248 0.088, 0.1292 -0.248 0.099, 0.1292 -0.248 0.0686, 0.1184 -0.248 0.0686, 0.1161 -0.248 0.0683, 0.1184 -0.248 0.1029, 0.1292 -0.248 0.1029, 0.1292 -0.248 0.1127, 0.0798 -0.248 0.127, 0.0891 -0.248 0.127, 0.0798 -0.248 0.1385, 0.0891 -0.248 0.1385, 0.0891 -0.248 0.1577, 0.0931 -0.248 0.1574, 0.0891 -0.248 0.1574, 0.0921 -0.248 0.1385, 0.0939 -0.248 0.127, 0.0921 -0.248 0.1424, 0.0931 -0.248 0.1534, 0.0891 -0.248 0.1534, 0.0939 -0.248 0.1231, 0.0891 -0.248 0.1228, 0.0891 -0.248 0.1231, 0.0754 -0.248 0.1231, 0.0754 -0.248 0.1574, -0.9843 -0.248 0.0, -0.9843 -0.248 0.0547, -0.9843 -0.248 0.0683, -0.9843 -0.248 0.1127, -0.9843 -0.248 0.1228, -0.9843 -0.248 0.1577, -0.9843 -0.248 0.3937, 0.0414 -0.248 0.127, 0.0414 -0.248 0.1231, 0.0233 -0.248 0.1231, 0.0278 -0.248 0.1574, 0.0278 -0.248 0.127, 0.0233 -0.248 0.1574, 0.0423 -0.248 0.0683, 0.0418 -0.248 0.0686, 0.0233 -0.248 0.0686, 0.0418 -0.248 0.0725, 0.041 -0.248 0.099, 0.0278 -0.248 0.0841, 0.0278 -0.248 0.0725, 0.04 -0.248 0.0841, 0.04 -0.248 0.088, 0.0278 -0.248 0.088, 0.0278 -0.248 0.099, 0.0233 -0.248 0.1029, 0.041 -0.248 0.1029, 0.0423 -0.248 0.3937, 0.0891 -0.248 0.3937, 0.0971 -0.248 0.3937, 0.1161 -0.248 0.3937, 0.1292 -0.248 0.3937, 0.1401 -0.248 0.3937, 0.9843 -0.248 0.3937, 0.178 -0.248 0.0686, 0.1732 -0.248 0.0686, 0.1433 -0.248 0.1029, 0.1433 -0.248 0.0686, 0.1527 -0.248 0.0686, 0.1585 -0.248 0.0693, 0.9843 -0.248 0.1127, 0.191 -0.248 0.1029, 0.9843 -0.248 0.0683, 0.204 -0.248 0.0686, 0.1991 -0.248 0.0686, 0.1956 -0.248 0.078, 0.1813 -0.248 0.078, 0.1862 -0.248 0.1029, 0.1686 -0.248 0.0764, 0.1661 -0.248 0.0734, 0.1661 -0.248 0.0984, 0.1675 -0.248 0.097, 0.1696 -0.248 0.0939, 0.1708 -0.248 0.0906, 0.1657 -0.248 0.0731, 0.1624 -0.248 0.0708, 0.1531 -0.248 0.1029, 0.1586 -0.248 0.1023, 0.1627 -0.248 0.1007, 0.1713 -0.248 0.0862, 0.1711 -0.248 0.084, 0.1703 -0.248 0.08, 0.1292 -0.248 0.0547, 0.1401 -0.248 0.0547, 0.9843 -0.248 0.0547, 0.0423 -0.248 0.0, 0.0444 -0.248 0.0, 0.0734 -0.248 0.0, 0.0891 -0.248 0.0, 0.0971 -0.248 0.0, 0.1161 -0.248 0.0, 0.1292 -0.248 0.0, 0.1401 -0.248 0.0, 0.9843 -0.248 0.0
            ]
        }
        coordIndex [
            0,1,2,-1,3,4,5,-1,6,7,8,-1,9,10,11,-1,12,13,14,-1,15,16,17,-1,18,19,20,-1,20,19,21,-1,20,21,22,-1,23,24,25,-1,25,24,26,-1,19,27,21,-1,21,27,28,-1,21,28,29,-1,29,28,30,-1,29,30,31,-1,31,30,32,-1,31,32,26,-1,26,32,33,-1,26,33,25,-1,34,35,36,-1,36,37,34,-1,34,37,38,-1,34,38,39,-1,40,41,39,-1,41,42,39,-1,39,42,43,-1,39,43,44,-1,45,46,47,-1,47,46,40,-1,47,40,48,-1,49,50,40,-1,40,50,51,-1,40,51,48,-1,52,53,40,-1,40,53,54,-1,40,54,55,-1,56,57,58,-1,59,60,47,-1,47,60,61,-1,47,61,45,-1,39,38,40,-1,40,38,62,-1,40,62,52,-1,55,63,40,-1,40,63,64,-1,40,64,49,-1,56,58,47,-1,47,58,65,-1,47,65,59,-1,66,67,68,-1,68,67,69,-1,69,67,70,-1,69,70,35,-1,66,71,72,-1,72,71,73,-1,74,75,71,-1,71,75,76,-1,71,76,73,-1,77,78,79,-1,80,81,82,-1,82,81,83,-1,82,83,71,-1,71,83,84,-1,71,84,74,-1,85,86,87,-1,87,86,88,-1,87,88,89,-1,90,91,92,-1,92,91,93,-1,92,93,87,-1,87,93,94,-1,87,94,85,-1,95,96,97,-1,98,99,100,-1,97,101,95,-1,95,101,102,-1,95,102,103,-1,103,102,98,-1,103,98,104,-1,104,98,100,-1,105,106,17,-1,105,17,107,-1,106,105,101,-1,101,105,108,-1,101,108,102,-1,17,109,107,-1,107,109,110,-1,107,110,111,-1,112,113,109,-1,109,113,114,-1,109,114,110,-1,115,116,117,-1,109,118,119,-1,120,121,122,-1,122,121,123,-1,122,123,115,-1,115,123,124,-1,115,124,116,-1,119,125,109,-1,109,125,126,-1,109,126,112,-1,127,128,129,-1,127,129,130,-1,128,131,129,-1,129,131,132,-1,129,132,122,-1,122,132,133,-1,122,133,120,-1,134,135,136,-1,137,138,139,-1,139,138,140,-1,139,140,141,-1,17,142,143,-1,141,144,139,-1,139,144,145,-1,139,145,106,-1,146,147,17,-1,17,147,148,-1,17,148,142,-1,135,146,136,-1,136,146,17,-1,136,17,149,-1,149,17,106,-1,149,106,150,-1,150,106,145,-1,143,151,17,-1,17,151,152,-1,17,152,15,-1,153,154,155,-1,155,154,156,-1,155,156,157,-1,155,158,153,-1,153,158,159,-1,153,159,160,-1,160,161,153,-1,153,161,162,-1,153,162,163,-1,163,162,164,-1,163,164,165,-1,165,164,166,-1,165,166,136,-1,136,166,167,-1,136,167,134,-1,168,169,157,-1,157,169,170,-1,157,170,155,-1,171,172,173,-1,173,172,174,-1,175,176,177,-1,177,176,178,-1,177,178,13,-1,179,180,181,-1,181,180,182,-1,181,182,178,-1,183,184,185,-1,186,187,183,-1,183,187,188,-1,183,188,189,-1,190,92,191,-1,191,92,192,-1,171,193,172,-1,172,193,194,-1,172,194,195,-1,195,194,196,-1,197,198,196,-1,196,198,199,-1,196,199,195,-1,189,200,183,-1,183,200,201,-1,183,201,184,-1,202,203,204,-1,205,206,181,-1,181,206,207,-1,181,207,179,-1,208,176,209,-1,210,211,212,-1,190,213,92,-1,92,213,214,-1,92,214,215,-1,185,216,183,-1,183,216,217,-1,183,217,92,-1,92,217,174,-1,92,174,192,-1,192,174,172,-1,202,204,175,-1,212,218,210,-1,210,218,208,-1,210,208,219,-1,219,208,209,-1,44,90,139,-1,139,90,92,-1,139,92,137,-1,137,92,215,-1,137,215,211,-1,211,215,220,-1,211,220,212,-1,221,222,196,-1,196,222,223,-1,196,223,224,-1,204,225,175,-1,175,225,226,-1,175,226,176,-1,176,226,227,-1,176,227,209,-1,224,228,196,-1,196,228,229,-1,196,229,197,-1,230,231,203,-1,203,231,232,-1,203,232,204,-1,230,233,231,-1,231,233,234,-1,231,234,235,-1,235,234,236,-1,235,237,238,-1,236,239,235,-1,235,239,240,-1,235,240,241,-1,241,242,235,-1,235,242,243,-1,235,243,237,-1,238,244,235,-1,235,244,245,-1,235,245,246,-1,12,14,247,-1,247,14,248,-1,247,248,249,-1,249,248,16,-1,16,248,115,-1,16,115,17,-1,17,115,117,-1,17,117,109,-1,109,117,250,-1,109,250,118,-1,13,178,14,-1,14,178,182,-1,14,182,248,-1,248,182,251,-1,248,251,186,-1,186,251,252,-1,186,252,187,-1,253,254,255,-1,255,254,3,-1,256,257,255,-1,255,257,258,-1,258,259,255,-1,255,259,260,-1,255,260,253,-1,261,262,263,-1,263,262,264,-1,263,264,265,-1,261,263,266,-1,266,263,267,-1,266,267,268,-1,268,267,269,-1,268,269,270,-1,269,271,270,-1,270,271,272,-1,270,272,273,-1,273,272,274,-1,273,274,275,-1,276,277,269,-1,269,277,278,-1,269,278,271,-1,279,280,281,-1,281,282,279,-1,279,282,283,-1,279,283,269,-1,269,283,284,-1,269,284,276,-1,285,286,287,-1,287,286,288,-1,287,288,289,-1,289,290,287,-1,287,290,291,-1,287,291,280,-1,280,291,292,-1,280,292,281,-1,293,285,294,-1,294,285,287,-1,294,287,295,-1,295,287,296,-1,297,298,299,-1,298,300,299,-1,299,300,301,-1,299,301,302,-1,302,301,303,-1,302,303,304,-1,304,303,305,-1,304,305,287,-1,287,305,306,-1,287,306,296,-1,0,307,1,-1,1,307,308,-1,1,308,309,-1,309,310,1,-1,1,310,311,-1,1,311,297,-1,312,313,4,-1,314,315,316,-1,317,318,0,-1,319,320,321,-1,321,320,322,-1,314,316,323,-1,317,0,324,-1,4,313,0,-1,0,313,325,-1,0,325,324,-1,315,326,316,-1,316,326,327,-1,316,327,328,-1,329,330,331,-1,331,330,332,-1,331,332,333,-1,334,335,336,-1,336,335,337,-1,336,337,331,-1,331,337,338,-1,331,338,329,-1,334,339,335,-1,335,339,340,-1,335,340,320,-1,320,340,341,-1,320,341,322,-1,342,343,344,-1,344,343,345,-1,344,345,316,-1,316,345,346,-1,316,346,323,-1,347,348,307,-1,307,348,349,-1,307,349,350,-1,350,351,307,-1,307,351,352,-1,307,352,353,-1,353,352,342,-1,353,342,354,-1,354,342,344,-1,355,356,316,-1,316,356,357,-1,316,357,320,-1,320,357,358,-1,320,358,359,-1,318,360,0,-1,0,360,361,-1,0,361,307,-1,307,361,362,-1,307,362,347,-1,328,363,316,-1,316,363,364,-1,316,364,365,-1,365,366,316,-1,316,366,367,-1,316,367,355,-1,368,369,370,-1,368,370,371,-1,359,372,320,-1,320,372,370,-1,320,370,335,-1,335,370,369,-1,335,369,373,-1,373,369,374,-1,375,376,370,-1,370,376,377,-1,370,377,371,-1,378,379,380,-1,379,381,380,-1,380,381,382,-1,380,382,383,-1,384,380,385,-1,374,369,384,-1,384,369,386,-1,384,386,380,-1,380,386,387,-1,380,387,378,-1,385,388,384,-1,384,388,389,-1,384,389,390,-1,383,382,391,-1,391,382,392,-1,391,392,393,-1,393,392,394,-1,393,394,395,-1,396,397,390,-1,390,397,398,-1,390,398,384,-1,254,399,3,-1,3,399,400,-1,3,400,4,-1,4,400,401,-1,4,401,312,-1,402,403,29,-1,29,403,404,-1,405,406,31,-1,31,406,407,-1,408,409,410,-1,410,409,29,-1,410,29,411,-1,411,29,404,-1,407,412,31,-1,31,412,413,-1,31,413,414,-1,414,415,31,-1,31,415,416,-1,31,416,29,-1,29,416,417,-1,29,417,402,-1,418,419,405,-1,405,419,420,-1,405,420,406,-1,408,421,409,-1,409,421,422,-1,409,422,423,-1,423,422,424,-1,423,424,418,-1,418,424,425,-1,418,425,419,-1,426,427,428,-1,428,427,429,-1,430,431,432,-1,432,431,433,-1,432,433,434,-1,434,433,435,-1,434,435,436,-1,429,427,437,-1,437,427,433,-1,437,433,438,-1,438,433,431,-1,438,431,11,-1,11,431,439,-1,11,439,9,-1,435,440,436,-1,436,440,441,-1,436,441,442,-1,442,441,443,-1,430,432,444,-1,444,432,445,-1,444,445,443,-1,443,445,97,-1,443,97,442,-1,442,97,96,-1,442,96,130,-1,446,447,448,-1,448,447,449,-1,418,450,451,-1,451,450,452,-1,449,447,453,-1,453,447,454,-1,453,454,455,-1,455,454,456,-1,455,456,8,-1,8,456,457,-1,8,457,6,-1,451,456,418,-1,418,456,454,-1,418,454,423,-1,423,454,458,-1,423,458,459,-1,459,458,460,-1,459,460,461,-1,452,450,462,-1,462,450,34,-1,462,34,461,-1,461,34,39,-1,461,39,459,-1,463,302,464,-1,464,302,304,-1,464,304,465,-1,465,304,287,-1,465,287,466,-1,466,287,280,-1,466,280,467,-1,467,280,279,-1,467,279,468,-1,468,279,269,-1,468,269,469,-1,469,269,267,-1,470,471,79,-1,79,471,472,-1,473,82,255,-1,78,80,79,-1,79,80,82,-1,79,82,470,-1,470,82,473,-1,470,473,474,-1,5,79,3,-1,3,79,472,-1,3,472,255,-1,255,472,475,-1,255,475,473,-1,476,477,478,-1,477,476,479,-1,479,476,5,-1,479,5,480,-1,481,482,483,-1,483,482,479,-1,483,479,484,-1,484,479,480,-1,484,480,485,-1,485,480,486,-1,2,476,0,-1,0,476,478,-1,0,478,4,-1,4,478,487,-1,4,487,5,-1,5,487,488,-1,5,488,480,-1,66,68,71,-1,71,68,489,-1,71,489,82,-1,82,489,263,-1,82,263,255,-1,255,263,265,-1,255,265,256,-1,2,186,476,-1,476,186,183,-1,476,183,5,-1,5,183,92,-1,5,92,79,-1,79,92,87,-1,79,87,77,-1,77,87,89,-1,44,139,39,-1,39,139,106,-1,39,106,459,-1,459,106,101,-1,459,101,423,-1,423,101,97,-1,423,97,409,-1,409,97,445,-1,409,445,29,-1,29,445,432,-1,29,432,21,-1,35,34,69,-1,69,34,450,-1,69,450,490,-1,490,450,418,-1,490,418,491,-1,491,418,405,-1,491,405,492,-1,492,405,31,-1,492,31,493,-1,493,31,26,-1,493,26,494,-1,494,26,24,-1,494,24,495,-1,434,496,497,-1,498,432,499,-1,499,432,434,-1,499,434,500,-1,500,434,497,-1,500,497,501,-1,502,503,504,-1,504,503,505,-1,504,505,434,-1,434,505,506,-1,434,506,496,-1,496,506,507,-1,496,507,508,-1,25,22,23,-1,23,22,21,-1,23,21,502,-1,502,21,432,-1,502,432,503,-1,503,432,509,-1,497,510,511,-1,512,513,509,-1,509,513,514,-1,509,514,515,-1,511,516,497,-1,497,516,517,-1,497,517,501,-1,498,518,432,-1,432,518,519,-1,432,519,509,-1,509,519,520,-1,509,520,512,-1,515,521,509,-1,509,521,522,-1,509,522,497,-1,497,522,523,-1,497,523,510,-1,130,129,442,-1,442,129,524,-1,442,524,436,-1,436,524,525,-1,436,525,434,-1,434,525,526,-1,434,526,504,-1,297,299,1,-1,1,299,527,-1,1,527,2,-1,2,527,528,-1,2,528,186,-1,186,528,529,-1,186,529,248,-1,248,529,530,-1,248,530,115,-1,115,530,531,-1,115,531,122,-1,122,531,532,-1,122,532,129,-1,129,532,533,-1,129,533,524,-1,524,533,534,-1,524,534,525,-1,525,534,535,-1,525,535,526,-1,
        ]
    }
}
Shape{
    appearance Appearance {
        material  Material 	{
            diffuseColor 0.8274509803921568 0.6666666666666666 0.12941176470588237
            specularColor 0.8274509803921568 0.6666666666666666 0.12941176470588237
            ambientIntensity 0.6535
            transparency 0.0
            shininess 0.5
        }
    }
    geometry IndexedFaceSet {
        ccw TRUE
        solid FALSE
        coord DEF co Coordinate {
            point [
                0.7677 0.0217 -0.7087, 0.7283 0.061 -0.5617, 0.8071 0.0217 -0.7087, 0.8465 0.061 -0.5617, 0.7283 -0.0571 -0.5617, 0.7677 -0.0177 -0.7087, 0.8071 -0.0177 -0.7087, 0.8465 -0.0571 -0.5617, 0.8465 0.061 0.0, 0.8465 -0.0571 0.0, 0.7283 -0.0571 0.0, 0.7283 0.061 0.0, 0.374 0.0217 -0.7087, 0.3346 0.061 -0.5617, 0.4134 0.0217 -0.7087, 0.4528 0.061 -0.5617, 0.3346 -0.0571 -0.5617, 0.374 -0.0177 -0.7087, 0.4134 -0.0177 -0.7087, 0.4528 -0.0571 -0.5617, 0.4528 0.061 0.0, 0.4528 -0.0571 0.0, 0.3346 -0.0571 0.0, 0.3346 0.061 0.0, -0.0197 0.0217 -0.7087, -0.0591 0.061 -0.5617, 0.0197 0.0217 -0.7087, 0.0591 0.061 -0.5617, -0.0591 -0.0571 -0.5617, -0.0197 -0.0177 -0.7087, 0.0197 -0.0177 -0.7087, 0.0591 -0.0571 -0.5617, 0.0591 0.061 0.0, 0.0591 -0.0571 0.0, -0.0591 -0.0571 0.0, -0.0591 0.061 0.0, 0.8465 -0.0571 1.6444, 0.8071 -0.0177 1.7913, 0.7283 -0.0571 1.6444, 0.7677 -0.0177 1.7913, 0.8071 0.0217 1.7913, 0.8465 0.061 1.6444, 0.7283 0.061 1.6444, 0.7677 0.0217 1.7913, 0.8465 0.061 0.3937, 0.7283 0.061 0.3937, 0.7283 -0.0571 0.3937, 0.8465 -0.0571 0.3937, 0.4528 -0.0571 1.6444, 0.4134 -0.0177 1.7913, 0.3346 -0.0571 1.6444, 0.374 -0.0177 1.7913, 0.4134 0.0217 1.7913, 0.4528 0.061 1.6444, 0.3346 0.061 1.6444, 0.374 0.0217 1.7913, 0.4528 0.061 0.3937, 0.3346 0.061 0.3937, 0.3346 -0.0571 0.3937, 0.4528 -0.0571 0.3937, 0.0591 -0.0571 1.6444, 0.0197 -0.0177 1.7913, -0.0591 -0.0571 1.6444, -0.0197 -0.0177 1.7913, 0.0197 0.0217 1.7913, 0.0591 0.061 1.6444, -0.0591 0.061 1.6444, -0.0197 0.0217 1.7913, 0.0591 0.061 0.3937, -0.0591 0.061 0.3937, -0.0591 -0.0571 0.3937, 0.0591 -0.0571 0.3937
            ]
        }
        coordIndex [
            0,1,2,-1,2,1,3,-1,1,0,4,-1,4,0,5,-1,6,7,5,-1,5,7,4,-1,2,3,6,-1,6,3,7,-1,3,8,7,-1,7,8,9,-1,7,9,4,-1,4,9,10,-1,4,10,1,-1,1,10,11,-1,1,11,3,-1,3,11,8,-1,2,6,0,-1,0,6,5,-1,12,13,14,-1,14,13,15,-1,13,12,16,-1,16,12,17,-1,18,19,17,-1,17,19,16,-1,14,15,18,-1,18,15,19,-1,15,20,19,-1,19,20,21,-1,19,21,16,-1,16,21,22,-1,16,22,13,-1,13,22,23,-1,13,23,15,-1,15,23,20,-1,14,18,12,-1,12,18,17,-1,24,25,26,-1,26,25,27,-1,25,24,28,-1,28,24,29,-1,30,31,29,-1,29,31,28,-1,26,27,30,-1,30,27,31,-1,27,32,31,-1,31,32,33,-1,31,33,28,-1,28,33,34,-1,28,34,25,-1,25,34,35,-1,25,35,27,-1,27,35,32,-1,26,30,24,-1,24,30,29,-1,36,37,38,-1,38,37,39,-1,37,36,40,-1,40,36,41,-1,42,43,41,-1,41,43,40,-1,38,39,42,-1,42,39,43,-1,37,40,39,-1,39,40,43,-1,41,44,42,-1,42,44,45,-1,42,45,38,-1,38,45,46,-1,38,46,36,-1,36,46,47,-1,36,47,41,-1,41,47,44,-1,48,49,50,-1,50,49,51,-1,49,48,52,-1,52,48,53,-1,54,55,53,-1,53,55,52,-1,50,51,54,-1,54,51,55,-1,49,52,51,-1,51,52,55,-1,53,56,54,-1,54,56,57,-1,54,57,50,-1,50,57,58,-1,50,58,48,-1,48,58,59,-1,48,59,53,-1,53,59,56,-1,60,61,62,-1,62,61,63,-1,61,60,64,-1,64,60,65,-1,66,67,65,-1,65,67,64,-1,62,63,66,-1,66,63,67,-1,61,64,63,-1,63,64,67,-1,65,68,66,-1,66,68,69,-1,66,69,62,-1,62,69,70,-1,62,70,60,-1,60,70,71,-1,60,71,65,-1,65,71,68,-1,
        ]
    }
}
Shape{
    appearance Appearance {
        material  Material 	{
            diffuseColor 0.20784313725490197 0.20784313725490197 0.20784313725490197
            specularColor 0.01568627450980392 0.01568627450980392 0.01568627450980392
            ambientIntensity 0.298
            transparency 0.0
            shininess 0.5
        }
    }
    geometry IndexedFaceSet {
        ccw TRUE
        solid FALSE
        coord DEF co Coordinate {
            point [
                0.9843 0.252 0.0, 0.9843 0.252 0.3937, 0.9843 -0.1526 0.0, 0.9843 -0.1526 0.3937, 0.9843 -0.248 0.0, 0.9843 -0.248 0.3937, -0.9843 0.252 0.0, -0.9843 0.252 0.3937, 0.1969 0.252 0.0, 0.1969 0.252 0.3937, -0.9843 -0.248 0.0, -0.9843 -0.248 0.3937, -0.9843 -0.1526 0.0, -0.9843 -0.1526 0.3937, 0.7283 0.061 0.3937, 0.8465 0.061 0.3937, 0.1969 -0.248 0.3937, -0.0591 -0.0571 0.3937, -0.3346 0.061 0.3937, -0.3346 -0.0571 0.3937, -0.4528 -0.0571 0.3937, 0.1969 -0.1526 0.3937, -0.0591 0.061 0.3937, 0.0591 0.061 0.3937, 0.0591 -0.0571 0.3937, -0.4528 0.061 0.3937, -0.7283 0.061 0.3937, -0.7283 -0.0571 0.3937, -0.8465 -0.0571 0.3937, -0.8465 0.061 0.3937, 0.4528 -0.0571 0.3937, 0.3346 -0.0571 0.3937, 0.8465 -0.0571 0.3937, 0.7283 -0.0571 0.3937, 0.3346 0.061 0.3937, 0.4528 0.061 0.3937, -0.8465 -0.0571 0.0, -0.7283 -0.0571 0.0, -0.0591 0.061 0.0, -0.0591 -0.0571 0.0, -0.3346 0.061 0.0, 0.0591 -0.0571 0.0, 0.1969 -0.1526 0.0, -0.3346 -0.0571 0.0, 0.0591 0.061 0.0, -0.4528 0.061 0.0, -0.8465 0.061 0.0, -0.7283 0.061 0.0, -0.4528 -0.0571 0.0, 0.4528 0.061 0.0, 0.3346 0.061 0.0, 0.3346 -0.0571 0.0, 0.7283 -0.0571 0.0, 0.7283 0.061 0.0, 0.8465 0.061 0.0, 0.8465 -0.0571 0.0, 0.4528 -0.0571 0.0, 0.1969 -0.248 0.0
            ]
        }
        coordIndex [
            0,1,2,-1,2,1,3,-1,2,3,4,-1,4,3,5,-1,6,7,8,-1,8,7,9,-1,8,9,0,-1,0,9,1,-1,10,11,12,-1,12,11,13,-1,12,13,6,-1,6,13,7,-1,14,15,1,-1,16,5,3,-1,17,18,19,-1,19,20,13,-1,17,19,21,-1,21,19,13,-1,21,13,11,-1,7,22,9,-1,9,22,23,-1,9,23,21,-1,21,23,24,-1,21,24,17,-1,17,22,18,-1,18,22,7,-1,18,7,25,-1,25,7,26,-1,25,26,20,-1,20,26,27,-1,20,27,13,-1,13,27,28,-1,13,28,7,-1,7,28,29,-1,7,29,26,-1,30,31,21,-1,1,15,3,-1,3,15,32,-1,3,32,33,-1,21,31,9,-1,9,31,34,-1,9,34,35,-1,1,9,14,-1,14,9,35,-1,14,35,33,-1,33,35,30,-1,33,30,3,-1,3,30,21,-1,3,21,16,-1,16,21,11,-1,12,36,37,-1,38,39,40,-1,41,42,39,-1,39,42,43,-1,39,43,40,-1,41,44,8,-1,8,44,38,-1,8,38,6,-1,6,38,40,-1,6,40,45,-1,36,12,46,-1,46,12,6,-1,46,6,47,-1,47,6,45,-1,47,45,37,-1,37,45,48,-1,37,48,12,-1,49,50,8,-1,41,8,42,-1,42,8,50,-1,42,50,51,-1,52,49,53,-1,53,49,8,-1,53,8,54,-1,54,8,0,-1,54,0,55,-1,55,0,2,-1,55,2,52,-1,52,2,56,-1,52,56,49,-1,48,43,12,-1,12,43,42,-1,12,42,10,-1,10,42,57,-1,51,56,42,-1,42,56,2,-1,42,2,57,-1,57,2,4,-1,
        ]
    }
}
Shape{
    appearance Appearance {
        material  Material 	{
            diffuseColor 0.8274509803921568 0.6666666666666666 0.12941176470588237
            specularColor 0.8274509803921568 0.6666666666666666 0.12941176470588237
            ambientIntensity 0.6535
            transparency 0.0
            shininess 0.5
        }
    }
    geometry IndexedFaceSet {
        ccw TRUE
        solid FALSE
        coord DEF co Coordinate {
            point [
                -0.7677 0.0217 -0.7087, -0.7677 -0.0177 -0.7087, -0.8071 0.0217 -0.7087, -0.8071 -0.0177 -0.7087, -0.8465 0.061 -0.5617, -0.8465 0.061 0.0, -0.7283 0.061 -0.5617, -0.7283 0.061 0.0, -0.8465 -0.0571 -0.5617, -0.8465 -0.0571 0.0, -0.7283 -0.0571 -0.5617, -0.7283 -0.0571 0.0, -0.7283 -0.0571 1.6444, -0.7283 -0.0571 0.3937, -0.7283 0.061 1.6444, -0.7283 0.061 0.3937, -0.8465 -0.0571 1.6444, -0.8465 -0.0571 0.3937, -0.8465 0.061 1.6444, -0.8465 0.061 0.3937, -0.7677 -0.0177 1.7913, -0.7677 0.0217 1.7913, -0.8071 -0.0177 1.7913, -0.8071 0.0217 1.7913, -0.3346 -0.0571 1.6444, -0.3346 -0.0571 0.3937, -0.3346 0.061 1.6444, -0.3346 0.061 0.3937, -0.4528 -0.0571 1.6444, -0.4528 -0.0571 0.3937, -0.4528 0.061 1.6444, -0.4528 0.061 0.3937, -0.374 -0.0177 1.7913, -0.374 0.0217 1.7913, -0.4134 -0.0177 1.7913, -0.4134 0.0217 1.7913, -0.374 0.0217 -0.7087, -0.374 -0.0177 -0.7087, -0.4134 0.0217 -0.7087, -0.4134 -0.0177 -0.7087, -0.4528 0.061 -0.5617, -0.4528 0.061 0.0, -0.3346 0.061 -0.5617, -0.3346 0.061 0.0, -0.4528 -0.0571 -0.5617, -0.4528 -0.0571 0.0, -0.3346 -0.0571 -0.5617, -0.3346 -0.0571 0.0
            ]
        }
        coordIndex [
            0,1,2,-1,2,1,3,-1,4,5,6,-1,6,5,7,-1,8,9,4,-1,4,9,5,-1,10,11,8,-1,8,11,9,-1,6,7,10,-1,10,7,11,-1,12,13,14,-1,14,13,15,-1,16,17,12,-1,12,17,13,-1,18,19,16,-1,16,19,17,-1,14,15,18,-1,18,15,19,-1,20,21,22,-1,22,21,23,-1,1,10,3,-1,3,10,8,-1,0,6,1,-1,1,6,10,-1,4,2,8,-1,8,2,3,-1,2,4,0,-1,0,4,6,-1,18,23,14,-1,14,23,21,-1,16,22,18,-1,18,22,23,-1,20,12,21,-1,21,12,14,-1,12,20,16,-1,16,20,22,-1,24,25,26,-1,26,25,27,-1,28,29,24,-1,24,29,25,-1,30,31,28,-1,28,31,29,-1,26,27,30,-1,30,27,31,-1,32,33,34,-1,34,33,35,-1,28,34,30,-1,30,34,35,-1,30,35,26,-1,26,35,33,-1,32,24,33,-1,33,24,26,-1,24,32,28,-1,28,32,34,-1,36,37,38,-1,38,37,39,-1,40,41,42,-1,42,41,43,-1,44,45,40,-1,40,45,41,-1,46,47,44,-1,44,47,45,-1,42,43,46,-1,46,43,47,-1,36,42,37,-1,37,42,46,-1,37,46,39,-1,39,46,44,-1,40,38,44,-1,44,38,39,-1,38,40,36,-1,36,40,42,-1,
        ]
    }
}
Shape{
    appearance Appearance {
        material  Material 	{
            diffuseColor 1.0 1.0 1.0
            specularColor 0.5019607843137255 0.5019607843137255 0.5019607843137255
            ambientIntensity 1.0
            transparency 0.0
            shininess 0.5
        }
    }
    geometry IndexedFaceSet {
        ccw TRUE
        solid FALSE
        coord DEF co Coordinate {
            point [
                0.1665 -0.252 0.0841, 0.1711 -0.252 0.084, 0.1666 -0.252 0.0861, 0.1713 -0.252 0.0862, 0.1661 -0.252 0.0903, 0.1708 -0.252 0.0906, 0.1652 -0.252 0.0928, 0.1696 -0.252 0.0939, 0.1639 -0.252 0.0947, 0.1675 -0.252 0.097, 0.1628 -0.252 0.0958, 0.1661 -0.252 0.0984, 0.1602 -0.252 0.0975, 0.1627 -0.252 0.1007, 0.1572 -0.252 0.0985, 0.1586 -0.252 0.1023, 0.1529 -0.252 0.099, 0.1531 -0.252 0.1029, 0.1477 -0.252 0.099, 0.1433 -0.252 0.1029, 0.1477 -0.252 0.0725, 0.1433 -0.252 0.0686, 0.1527 -0.252 0.0725, 0.1527 -0.252 0.0686, 0.1571 -0.252 0.073, 0.1585 -0.252 0.0693, 0.16 -0.252 0.0741, 0.1624 -0.252 0.0708, 0.1623 -0.252 0.0755, 0.1657 -0.252 0.0731, 0.1629 -0.252 0.0761, 0.1661 -0.252 0.0734, 0.1647 -0.252 0.0784, 0.1686 -0.252 0.0764, 0.1659 -0.252 0.0809, 0.1703 -0.252 0.08, 0.1661 -0.248 0.0734, 0.1686 -0.248 0.0764, 0.1703 -0.248 0.08, 0.1711 -0.248 0.084, 0.1713 -0.248 0.0862, 0.1708 -0.248 0.0906, 0.1696 -0.248 0.0939, 0.1675 -0.248 0.097, 0.1661 -0.248 0.0984, 0.1627 -0.248 0.1007, 0.1586 -0.248 0.1023, 0.1531 -0.248 0.1029, 0.1433 -0.248 0.1029, 0.1433 -0.248 0.0686, 0.1527 -0.248 0.0686, 0.1585 -0.248 0.0693, 0.1624 -0.248 0.0708, 0.1657 -0.248 0.0731, 0.1628 -0.248 0.0958, 0.1639 -0.248 0.0947, 0.1652 -0.248 0.0928, 0.1661 -0.248 0.0903, 0.1666 -0.248 0.0861, 0.1529 -0.248 0.099, 0.1572 -0.248 0.0985, 0.1602 -0.248 0.0975, 0.1477 -0.248 0.099, 0.1477 -0.248 0.0725, 0.1527 -0.248 0.0725, 0.1629 -0.248 0.0761, 0.1623 -0.248 0.0755, 0.16 -0.248 0.0741, 0.1571 -0.248 0.073, 0.1665 -0.248 0.0841, 0.1659 -0.248 0.0809, 0.1647 -0.248 0.0784
            ]
        }
        coordIndex [
            0,1,2,-1,2,1,3,-1,2,3,4,-1,4,3,5,-1,4,5,6,-1,6,5,7,-1,6,7,8,-1,8,7,9,-1,8,9,10,-1,10,9,11,-1,10,11,12,-1,12,11,13,-1,12,13,14,-1,14,13,15,-1,14,15,16,-1,16,15,17,-1,16,17,18,-1,18,17,19,-1,18,19,20,-1,20,19,21,-1,20,21,22,-1,22,21,23,-1,22,23,24,-1,24,23,25,-1,24,25,26,-1,26,25,27,-1,26,27,28,-1,28,27,29,-1,28,29,30,-1,30,29,31,-1,30,31,32,-1,32,31,33,-1,32,33,34,-1,34,33,35,-1,34,35,0,-1,0,35,1,-1,31,36,37,-1,31,37,33,-1,33,37,38,-1,33,38,35,-1,35,38,39,-1,35,39,1,-1,1,39,40,-1,1,40,3,-1,3,40,41,-1,3,41,5,-1,5,41,42,-1,5,42,7,-1,7,42,43,-1,7,43,9,-1,9,43,44,-1,9,44,11,-1,11,44,45,-1,11,45,13,-1,13,45,46,-1,13,46,15,-1,15,46,47,-1,15,47,17,-1,19,17,48,-1,48,17,47,-1,21,19,49,-1,49,19,48,-1,23,21,50,-1,50,21,49,-1,23,50,51,-1,23,51,25,-1,25,51,52,-1,25,52,27,-1,27,52,53,-1,27,53,29,-1,29,53,36,-1,29,36,31,-1,10,54,55,-1,10,55,8,-1,8,55,56,-1,8,56,6,-1,6,56,57,-1,6,57,4,-1,4,57,58,-1,4,58,2,-1,16,59,60,-1,16,60,14,-1,14,60,61,-1,14,61,12,-1,12,61,54,-1,12,54,10,-1,16,18,59,-1,59,18,62,-1,18,20,62,-1,62,20,63,-1,20,22,63,-1,63,22,64,-1,30,65,66,-1,30,66,28,-1,28,66,67,-1,28,67,26,-1,26,67,68,-1,26,68,24,-1,24,68,64,-1,24,64,22,-1,2,58,69,-1,2,69,0,-1,0,69,70,-1,0,70,34,-1,34,70,71,-1,34,71,32,-1,32,71,65,-1,32,65,30,-1,
        ]
    }
}
Shape{
    appearance Appearance {
        material  Material 	{
            diffuseColor 0.20784313725490197 0.20784313725490197 0.20784313725490197
            specularColor 0.01568627450980392 0.01568627450980392 0.01568627450980392
            ambientIntensity 0.298
            transparency 0.0
            shininess 0.5
        }
    }
    geometry IndexedFaceSet {
        ccw TRUE
        solid FALSE
        coord DEF co Coordinate {
            point [
                0.1477 -0.248 0.099, 0.1477 -0.248 0.0725, 0.1529 -0.248 0.099, 0.1527 -0.248 0.0725, 0.1571 -0.248 0.073, 0.16 -0.248 0.0741, 0.1623 -0.248 0.0755, 0.1629 -0.248 0.0761, 0.1647 -0.248 0.0784, 0.1659 -0.248 0.0809, 0.1665 -0.248 0.0841, 0.1666 -0.248 0.0861, 0.1661 -0.248 0.0903, 0.1652 -0.248 0.0928, 0.1639 -0.248 0.0947, 0.1628 -0.248 0.0958, 0.1572 -0.248 0.0985, 0.1602 -0.248 0.0975
            ]
        }
        coordIndex [
            0,1,2,-1,2,1,3,-1,2,3,4,-1,4,5,2,-1,2,5,6,-1,2,6,7,-1,7,8,2,-1,2,8,9,-1,2,9,10,-1,10,11,2,-1,2,11,12,-1,2,12,13,-1,13,14,2,-1,2,14,15,-1,2,15,16,-1,16,15,17,-1,
        ]
    }
}
Shape{
    appearance Appearance {
        material  Material 	{
            diffuseColor 1.0 1.0 1.0
            specularColor 0.5019607843137255 0.5019607843137255 0.5019607843137255
            ambientIntensity 1.0
            transparency 0.0
            shininess 0.5
        }
    }
    geometry IndexedFaceSet {
        ccw TRUE
        solid FALSE
        coord DEF co Coordinate {
            point [
                0.1026 -0.252 0.0747, 0.1026 -0.248 0.0747, 0.1023 -0.248 0.0735, 0.1023 -0.252 0.0735, 0.1021 -0.248 0.0727, 0.1021 -0.252 0.0727, 0.1019 -0.252 0.0727, 0.1019 -0.248 0.0727, 0.1014 -0.252 0.0747, 0.1014 -0.248 0.0747, 0.095 -0.252 0.0931, 0.0971 -0.248 0.0872, 0.095 -0.248 0.0931, 0.0902 -0.252 0.0931, 0.0902 -0.248 0.0931, 0.0998 -0.252 0.0687, 0.0971 -0.248 0.0756, 0.0998 -0.248 0.0687, 0.0979 -0.248 0.0642, 0.0979 -0.252 0.0642, 0.0997 -0.248 0.0683, 0.0971 -0.248 0.0627, 0.0971 -0.248 0.0627, 0.0963 -0.252 0.0618, 0.0971 -0.252 0.0627, 0.0963 -0.248 0.0618, 0.0955 -0.248 0.0612, 0.0955 -0.252 0.0612, 0.0946 -0.248 0.0609, 0.0946 -0.252 0.0609, 0.0935 -0.248 0.0608, 0.0935 -0.252 0.0608, 0.092 -0.248 0.061, 0.092 -0.252 0.061, 0.0911 -0.248 0.0612, 0.0911 -0.252 0.0612, 0.0911 -0.252 0.0574, 0.0911 -0.248 0.0574, 0.0929 -0.248 0.0571, 0.0929 -0.252 0.0571, 0.0939 -0.248 0.0571, 0.0939 -0.252 0.0571, 0.0956 -0.248 0.0573, 0.0956 -0.252 0.0573, 0.0971 -0.248 0.0578, 0.0973 -0.252 0.0579, 0.0973 -0.248 0.0579, 0.0988 -0.248 0.059, 0.0988 -0.252 0.059, 0.0991 -0.248 0.0592, 0.0991 -0.252 0.0592, 0.1007 -0.248 0.0611, 0.1007 -0.252 0.0611, 0.1026 -0.248 0.0649, 0.1026 -0.252 0.0649, 0.1137 -0.248 0.0931, 0.1137 -0.252 0.0931, 0.104 -0.248 0.0683, 0.1093 -0.252 0.0931, 0.1093 -0.248 0.0931, 0.0781 -0.248 0.068, 0.0805 -0.248 0.0683, 0.0781 -0.252 0.068, 0.082 -0.252 0.0685, 0.082 -0.248 0.0685, 0.0842 -0.248 0.0694, 0.0842 -0.252 0.0694, 0.0852 -0.248 0.07, 0.0852 -0.252 0.07, 0.0864 -0.248 0.0711, 0.0864 -0.252 0.0711, 0.0872 -0.248 0.0722, 0.0872 -0.252 0.0722, 0.0878 -0.248 0.0736, 0.0878 -0.252 0.0736, 0.088 -0.248 0.0753, 0.088 -0.252 0.0753, 0.0878 -0.248 0.0769, 0.0878 -0.252 0.0769, 0.0873 -0.248 0.0782, 0.0873 -0.252 0.0782, 0.0865 -0.248 0.0793, 0.0865 -0.252 0.0793, 0.0855 -0.248 0.0803, 0.0855 -0.252 0.0803, 0.0827 -0.248 0.0818, 0.0827 -0.252 0.0818, 0.081 -0.248 0.0825, 0.081 -0.252 0.0825, 0.0783 -0.248 0.0837, 0.0783 -0.252 0.0837, 0.0768 -0.248 0.0846, 0.0768 -0.252 0.0846, 0.0764 -0.248 0.0851, 0.0764 -0.252 0.0851, 0.0761 -0.248 0.0857, 0.0761 -0.252 0.0857, 0.0759 -0.248 0.0863, 0.0759 -0.252 0.0863, 0.0759 -0.248 0.0869, 0.0759 -0.252 0.0869, 0.076 -0.248 0.0876, 0.076 -0.252 0.0876, 0.0762 -0.248 0.0882, 0.0762 -0.252 0.0882, 0.0765 -0.248 0.0887, 0.0765 -0.252 0.0887, 0.0772 -0.248 0.0893, 0.0772 -0.252 0.0893, 0.0781 -0.248 0.0898, 0.0781 -0.252 0.0898, 0.0793 -0.248 0.0901, 0.0793 -0.252 0.0901, 0.0806 -0.248 0.0902, 0.0806 -0.252 0.0902, 0.0834 -0.248 0.0899, 0.0834 -0.252 0.0899, 0.0858 -0.248 0.089, 0.0858 -0.252 0.089, 0.0868 -0.248 0.0884, 0.0868 -0.252 0.0884, 0.0868 -0.252 0.0926, 0.0868 -0.248 0.0926, 0.0834 -0.248 0.0935, 0.0834 -0.252 0.0935, 0.081 -0.248 0.0937, 0.081 -0.252 0.0937, 0.0778 -0.248 0.0933, 0.0778 -0.252 0.0933, 0.0755 -0.248 0.0925, 0.0755 -0.252 0.0925, 0.0742 -0.248 0.0917, 0.0742 -0.252 0.0917, 0.0734 -0.248 0.091, 0.0729 -0.252 0.0906, 0.0729 -0.248 0.0906, 0.0721 -0.248 0.0894, 0.0721 -0.252 0.0894, 0.0716 -0.248 0.0881, 0.0716 -0.252 0.0881, 0.0714 -0.248 0.0865, 0.0714 -0.252 0.0865, 0.0716 -0.248 0.0848, 0.0716 -0.252 0.0848, 0.0721 -0.248 0.0835, 0.0721 -0.252 0.0835, 0.0727 -0.248 0.0826, 0.0727 -0.252 0.0826, 0.078 -0.248 0.0794, 0.078 -0.252 0.0794, 0.0754 -0.252 0.0806, 0.0734 -0.248 0.0819, 0.0734 -0.252 0.0819, 0.0734 -0.248 0.0819, 0.0754 -0.248 0.0806, 0.0808 -0.248 0.0782, 0.0808 -0.252 0.0782, 0.0825 -0.248 0.0772, 0.0825 -0.252 0.0772, 0.083 -0.248 0.0766, 0.083 -0.252 0.0766, 0.0833 -0.248 0.0761, 0.0833 -0.252 0.0761, 0.0835 -0.248 0.0754, 0.0835 -0.252 0.0754, 0.0836 -0.248 0.0749, 0.0836 -0.252 0.0749, 0.0835 -0.248 0.074, 0.0835 -0.252 0.074, 0.0833 -0.248 0.0734, 0.0833 -0.252 0.0734, 0.0829 -0.248 0.0729, 0.0829 -0.252 0.0729, 0.0824 -0.248 0.0724, 0.0824 -0.252 0.0724, 0.082 -0.248 0.0722, 0.082 -0.252 0.0722, 0.0809 -0.248 0.0718, 0.0809 -0.252 0.0718, 0.0787 -0.248 0.0715, 0.0787 -0.252 0.0715, 0.0785 -0.248 0.0715, 0.0785 -0.252 0.0715, 0.0714 -0.248 0.0739, 0.0714 -0.252 0.0739, 0.0731 -0.252 0.0729, 0.0758 -0.248 0.0719, 0.0758 -0.252 0.0719, 0.0734 -0.248 0.0728, 0.0731 -0.248 0.0729, 0.0714 -0.252 0.0695, 0.0714 -0.248 0.0695, 0.0734 -0.248 0.0688, 0.0745 -0.252 0.0684, 0.0752 -0.248 0.0683, 0.0745 -0.248 0.0684, 0.0508 -0.252 0.0824, 0.052 -0.252 0.0791, 0.0531 -0.252 0.0796, 0.0612 -0.252 0.0724, 0.0613 -0.252 0.0724, 0.061 -0.252 0.0764, 0.0613 -0.252 0.0783, 0.0656 -0.252 0.0844, 0.0613 -0.252 0.0786, 0.0613 -0.252 0.0809, 0.0613 -0.252 0.0686, 0.0656 -0.252 0.0686, 0.054 -0.252 0.0832, 0.0556 -0.252 0.0801, 0.0613 -0.252 0.0842, 0.0611 -0.252 0.0861, 0.0653 -0.252 0.0877, 0.0607 -0.252 0.0876, 0.0646 -0.252 0.0896, 0.0602 -0.252 0.0885, 0.0637 -0.252 0.091, 0.0595 -0.252 0.0892, 0.0626 -0.252 0.0921, 0.0588 -0.252 0.0897, 0.0611 -0.252 0.0929, 0.0578 -0.252 0.09, 0.0593 -0.252 0.0935, 0.0563 -0.252 0.0902, 0.0567 -0.252 0.0937, 0.0537 -0.252 0.0899, 0.0526 -0.252 0.0932, 0.0511 -0.252 0.089, 0.0494 -0.252 0.092, 0.0483 -0.252 0.0872, 0.0483 -0.252 0.0914, 0.0604 -0.252 0.0748, 0.0595 -0.252 0.0736, 0.0605 -0.252 0.0714, 0.0589 -0.252 0.073, 0.0592 -0.252 0.0699, 0.0577 -0.252 0.0722, 0.0576 -0.252 0.0689, 0.0564 -0.252 0.0717, 0.0559 -0.252 0.0683, 0.0548 -0.252 0.0716, 0.0537 -0.252 0.068, 0.0533 -0.252 0.0717, 0.0511 -0.252 0.0683, 0.0524 -0.252 0.0721, 0.0495 -0.252 0.069, 0.0515 -0.252 0.0727, 0.048 -0.252 0.07, 0.0511 -0.252 0.073, 0.0514 -0.252 0.0786, 0.049 -0.252 0.0814, 0.0509 -0.252 0.078, 0.0476 -0.252 0.0803, 0.0505 -0.252 0.0772, 0.0468 -0.252 0.0791, 0.0503 -0.252 0.0762, 0.0462 -0.252 0.0776, 0.0459 -0.252 0.0757, 0.0503 -0.252 0.0755, 0.0459 -0.252 0.0752, 0.0504 -0.252 0.0745, 0.0461 -0.252 0.0732, 0.0507 -0.252 0.0738, 0.0466 -0.252 0.0718, 0.0475 -0.252 0.0705, 0.0563 -0.248 0.0902, 0.0578 -0.248 0.09, 0.0588 -0.248 0.0897, 0.0595 -0.248 0.0892, 0.0602 -0.248 0.0885, 0.0607 -0.248 0.0876, 0.0611 -0.248 0.0861, 0.0613 -0.248 0.0842, 0.054 -0.248 0.0832, 0.0508 -0.248 0.0824, 0.049 -0.248 0.0814, 0.0476 -0.248 0.0803, 0.0468 -0.248 0.0791, 0.0462 -0.248 0.0776, 0.0459 -0.248 0.0757, 0.0459 -0.248 0.0752, 0.0461 -0.248 0.0732, 0.0466 -0.248 0.0718, 0.0475 -0.248 0.0705, 0.048 -0.248 0.07, 0.0537 -0.248 0.068, 0.0512 -0.248 0.0683, 0.0511 -0.248 0.0683, 0.0495 -0.248 0.069, 0.0559 -0.248 0.0683, 0.056 -0.248 0.0683, 0.0576 -0.248 0.0689, 0.0592 -0.248 0.0699, 0.0605 -0.248 0.0714, 0.0612 -0.248 0.0724, 0.0613 -0.248 0.0724, 0.0613 -0.248 0.0686, 0.0656 -0.248 0.0686, 0.0656 -0.248 0.0844, 0.0653 -0.248 0.0877, 0.0646 -0.248 0.0896, 0.0637 -0.248 0.091, 0.0626 -0.248 0.0921, 0.0611 -0.248 0.0929, 0.0593 -0.248 0.0935, 0.0567 -0.248 0.0937, 0.0526 -0.248 0.0932, 0.0494 -0.248 0.092, 0.0483 -0.248 0.0914, 0.0483 -0.248 0.0872, 0.0511 -0.248 0.089, 0.0537 -0.248 0.0899, 0.0595 -0.248 0.0736, 0.0589 -0.248 0.073, 0.0577 -0.248 0.0722, 0.0564 -0.248 0.0717, 0.0548 -0.248 0.0716, 0.0613 -0.248 0.0786, 0.0613 -0.248 0.0783, 0.061 -0.248 0.0764, 0.0604 -0.248 0.0748, 0.0613 -0.248 0.0809, 0.0556 -0.248 0.0801, 0.0514 -0.248 0.0786, 0.052 -0.248 0.0791, 0.0531 -0.248 0.0796, 0.0503 -0.248 0.0755, 0.0503 -0.248 0.0762, 0.0505 -0.248 0.0772, 0.0509 -0.248 0.078, 0.0515 -0.248 0.0727, 0.0511 -0.248 0.073, 0.0507 -0.248 0.0738, 0.0504 -0.248 0.0745, 0.0533 -0.248 0.0717, 0.0524 -0.248 0.0721
            ]
        }
        coordIndex [
            0,1,2,-1,0,2,3,-1,3,2,4,-1,3,4,5,-1,6,5,7,-1,7,5,4,-1,8,6,9,-1,9,6,7,-1,8,9,10,-1,10,9,11,-1,10,11,12,-1,13,10,14,-1,14,10,12,-1,13,14,15,-1,15,14,16,-1,15,16,17,-1,18,19,20,-1,20,19,15,-1,20,15,17,-1,19,18,21,-1,22,23,21,-1,21,23,24,-1,21,24,19,-1,22,25,23,-1,23,25,26,-1,23,26,27,-1,27,26,28,-1,27,28,29,-1,29,28,30,-1,29,30,31,-1,31,30,32,-1,31,32,33,-1,33,32,34,-1,33,34,35,-1,36,35,37,-1,37,35,34,-1,36,37,38,-1,36,38,39,-1,39,38,40,-1,39,40,41,-1,41,40,42,-1,41,42,43,-1,43,42,44,-1,43,44,45,-1,44,46,45,-1,45,46,47,-1,45,47,48,-1,48,47,49,-1,48,49,50,-1,50,49,51,-1,50,51,52,-1,52,51,53,-1,52,53,54,-1,55,56,57,-1,57,56,54,-1,57,54,53,-1,58,56,59,-1,59,56,55,-1,0,58,1,-1,1,58,59,-1,3,5,54,-1,56,58,54,-1,54,58,0,-1,54,0,3,-1,10,13,8,-1,8,13,15,-1,8,15,6,-1,52,24,50,-1,50,24,23,-1,35,36,33,-1,33,36,39,-1,33,39,31,-1,31,39,41,-1,31,41,29,-1,29,41,43,-1,29,43,27,-1,27,43,45,-1,27,45,23,-1,23,45,48,-1,23,48,50,-1,5,6,54,-1,54,6,15,-1,54,15,52,-1,52,15,19,-1,52,19,24,-1,60,61,62,-1,62,61,63,-1,61,64,63,-1,63,64,65,-1,63,65,66,-1,66,65,67,-1,66,67,68,-1,68,67,69,-1,68,69,70,-1,70,69,71,-1,70,71,72,-1,72,71,73,-1,72,73,74,-1,74,73,75,-1,74,75,76,-1,76,75,77,-1,76,77,78,-1,78,77,79,-1,78,79,80,-1,80,79,81,-1,80,81,82,-1,82,81,83,-1,82,83,84,-1,84,83,85,-1,84,85,86,-1,86,85,87,-1,86,87,88,-1,88,87,89,-1,88,89,90,-1,90,89,91,-1,90,91,92,-1,92,91,93,-1,92,93,94,-1,94,93,95,-1,94,95,96,-1,96,95,97,-1,96,97,98,-1,98,97,99,-1,98,99,100,-1,100,99,101,-1,100,101,102,-1,102,101,103,-1,102,103,104,-1,104,103,105,-1,104,105,106,-1,106,105,107,-1,106,107,108,-1,108,107,109,-1,108,109,110,-1,110,109,111,-1,110,111,112,-1,112,111,113,-1,112,113,114,-1,114,113,115,-1,114,115,116,-1,116,115,117,-1,116,117,118,-1,118,117,119,-1,118,119,120,-1,121,120,122,-1,122,120,119,-1,121,122,123,-1,121,123,124,-1,124,123,125,-1,124,125,126,-1,126,125,127,-1,126,127,128,-1,128,127,129,-1,128,129,130,-1,130,129,131,-1,130,131,132,-1,131,133,132,-1,132,133,134,-1,133,135,134,-1,134,135,136,-1,134,136,137,-1,137,136,138,-1,137,138,139,-1,139,138,140,-1,139,140,141,-1,141,140,142,-1,141,142,143,-1,143,142,144,-1,143,144,145,-1,145,144,146,-1,145,146,147,-1,148,149,150,-1,147,146,151,-1,147,151,152,-1,152,151,153,-1,152,153,150,-1,150,153,154,-1,150,154,148,-1,149,148,155,-1,149,155,156,-1,156,155,157,-1,156,157,158,-1,158,157,159,-1,158,159,160,-1,160,159,161,-1,160,161,162,-1,162,161,163,-1,162,163,164,-1,164,163,165,-1,164,165,166,-1,166,165,167,-1,166,167,168,-1,168,167,169,-1,168,169,170,-1,170,169,171,-1,170,171,172,-1,172,171,173,-1,172,173,174,-1,174,173,175,-1,174,175,176,-1,176,175,177,-1,176,177,178,-1,178,177,179,-1,178,179,180,-1,180,179,181,-1,180,181,182,-1,183,184,185,-1,182,181,186,-1,182,186,187,-1,187,186,188,-1,187,188,185,-1,185,188,189,-1,185,189,183,-1,190,184,191,-1,191,184,183,-1,191,192,190,-1,190,192,193,-1,60,62,194,-1,194,62,193,-1,194,193,195,-1,195,193,192,-1,106,108,130,-1,130,108,128,-1,156,88,149,-1,149,88,90,-1,66,68,172,-1,172,68,70,-1,172,70,170,-1,170,70,72,-1,170,72,168,-1,168,72,74,-1,168,74,166,-1,166,74,76,-1,166,76,164,-1,164,76,78,-1,164,78,162,-1,162,78,80,-1,162,80,160,-1,160,80,82,-1,160,82,158,-1,158,82,84,-1,158,84,156,-1,156,84,86,-1,156,86,88,-1,62,182,193,-1,193,182,187,-1,193,187,190,-1,190,187,185,-1,190,185,184,-1,108,110,128,-1,128,110,112,-1,128,112,126,-1,126,112,114,-1,126,114,124,-1,124,114,116,-1,124,116,121,-1,121,116,118,-1,121,118,120,-1,172,174,66,-1,66,174,176,-1,66,176,63,-1,63,176,178,-1,63,178,62,-1,62,178,180,-1,62,180,182,-1,130,132,106,-1,106,132,134,-1,106,134,104,-1,104,134,137,-1,104,137,102,-1,102,137,139,-1,102,139,100,-1,100,139,141,-1,100,141,98,-1,98,141,143,-1,98,143,96,-1,96,143,145,-1,96,145,94,-1,94,145,147,-1,94,147,92,-1,92,147,152,-1,92,152,90,-1,90,152,150,-1,90,150,149,-1,196,197,198,-1,199,200,201,-1,202,203,204,-1,204,203,205,-1,206,207,200,-1,200,207,203,-1,200,203,201,-1,201,203,202,-1,196,198,208,-1,208,198,209,-1,208,209,210,-1,209,205,210,-1,210,205,203,-1,210,203,211,-1,211,203,212,-1,211,212,213,-1,213,212,214,-1,213,214,215,-1,215,214,216,-1,215,216,217,-1,217,216,218,-1,217,218,219,-1,219,218,220,-1,219,220,221,-1,221,220,222,-1,221,222,223,-1,223,222,224,-1,223,224,225,-1,225,224,226,-1,225,226,227,-1,227,226,228,-1,227,228,229,-1,229,228,230,-1,201,231,199,-1,199,231,232,-1,199,232,233,-1,233,232,234,-1,233,234,235,-1,235,234,236,-1,235,236,237,-1,237,236,238,-1,237,238,239,-1,239,238,240,-1,239,240,241,-1,241,240,242,-1,241,242,243,-1,243,242,244,-1,243,244,245,-1,245,244,246,-1,245,246,247,-1,247,246,248,-1,197,196,249,-1,249,196,250,-1,249,250,251,-1,251,250,252,-1,251,252,253,-1,253,252,254,-1,253,254,255,-1,254,256,255,-1,255,256,257,-1,255,257,258,-1,258,257,259,-1,258,259,260,-1,260,259,261,-1,260,261,262,-1,262,261,263,-1,262,263,248,-1,248,263,264,-1,248,264,247,-1,223,265,266,-1,223,266,221,-1,221,266,267,-1,221,267,219,-1,219,267,268,-1,219,268,217,-1,217,268,269,-1,217,269,215,-1,215,269,270,-1,215,270,213,-1,213,270,271,-1,213,271,211,-1,211,271,272,-1,211,272,210,-1,208,210,273,-1,273,210,272,-1,208,273,274,-1,208,274,196,-1,196,274,275,-1,196,275,250,-1,250,275,276,-1,250,276,252,-1,252,276,277,-1,252,277,254,-1,254,277,278,-1,254,278,256,-1,256,278,279,-1,256,279,257,-1,257,279,280,-1,257,280,259,-1,259,280,281,-1,259,281,261,-1,261,281,282,-1,261,282,263,-1,263,282,283,-1,263,283,264,-1,264,283,284,-1,264,284,247,-1,285,241,286,-1,286,241,243,-1,286,243,287,-1,287,243,245,-1,287,245,288,-1,288,245,247,-1,288,247,284,-1,241,285,289,-1,241,289,239,-1,239,289,290,-1,239,290,237,-1,290,291,237,-1,237,291,292,-1,237,292,235,-1,235,292,293,-1,235,293,233,-1,233,293,294,-1,233,294,199,-1,200,199,295,-1,295,199,294,-1,206,200,296,-1,296,200,295,-1,207,206,297,-1,297,206,296,-1,203,207,298,-1,298,207,297,-1,203,298,299,-1,203,299,212,-1,212,299,300,-1,212,300,214,-1,214,300,301,-1,214,301,216,-1,216,301,302,-1,216,302,218,-1,218,302,303,-1,218,303,220,-1,220,303,304,-1,220,304,222,-1,222,304,305,-1,222,305,224,-1,224,305,306,-1,224,306,226,-1,226,306,307,-1,226,307,228,-1,228,307,308,-1,228,308,230,-1,229,230,309,-1,309,230,308,-1,229,309,310,-1,229,310,227,-1,227,310,311,-1,227,311,225,-1,225,311,265,-1,225,265,223,-1,232,312,313,-1,232,313,234,-1,234,313,314,-1,234,314,236,-1,236,314,315,-1,236,315,238,-1,238,315,316,-1,238,316,240,-1,204,317,318,-1,204,318,202,-1,202,318,319,-1,202,319,201,-1,201,319,320,-1,201,320,231,-1,231,320,312,-1,231,312,232,-1,204,205,317,-1,317,205,321,-1,205,209,321,-1,321,209,322,-1,249,323,324,-1,249,324,197,-1,197,324,325,-1,197,325,198,-1,198,325,322,-1,198,322,209,-1,258,326,327,-1,258,327,255,-1,255,327,328,-1,255,328,253,-1,253,328,329,-1,253,329,251,-1,251,329,323,-1,251,323,249,-1,246,330,331,-1,246,331,248,-1,248,331,332,-1,248,332,262,-1,262,332,333,-1,262,333,260,-1,260,333,326,-1,260,326,258,-1,240,316,334,-1,240,334,242,-1,242,334,335,-1,242,335,244,-1,244,335,330,-1,244,330,246,-1,
        ]
    }
}
Shape{
    appearance Appearance {
        material  Material 	{
            diffuseColor 0.20784313725490197 0.20784313725490197 0.20784313725490197
            specularColor 0.01568627450980392 0.01568627450980392 0.01568627450980392
            ambientIntensity 0.298
            transparency 0.0
            shininess 0.5
        }
    }
    geometry IndexedFaceSet {
        ccw TRUE
        solid FALSE
        coord DEF co Coordinate {
            point [
                0.0613 -0.248 0.0809, 0.0556 -0.248 0.0801, 0.0613 -0.248 0.0786, 0.0531 -0.248 0.0796, 0.052 -0.248 0.0791, 0.0514 -0.248 0.0786, 0.0613 -0.248 0.0783, 0.061 -0.248 0.0764, 0.0509 -0.248 0.078, 0.0604 -0.248 0.0748, 0.0511 -0.248 0.073, 0.0515 -0.248 0.0727, 0.0589 -0.248 0.073, 0.0507 -0.248 0.0738, 0.0577 -0.248 0.0722, 0.0564 -0.248 0.0717, 0.0548 -0.248 0.0716, 0.0505 -0.248 0.0772, 0.0503 -0.248 0.0762, 0.0595 -0.248 0.0736, 0.0503 -0.248 0.0755, 0.0504 -0.248 0.0745, 0.0524 -0.248 0.0721, 0.0533 -0.248 0.0717
            ]
        }
        coordIndex [
            0,1,2,-1,2,1,3,-1,3,4,2,-1,2,4,5,-1,2,5,6,-1,6,5,7,-1,7,5,8,-1,7,8,9,-1,10,11,12,-1,10,12,13,-1,14,12,15,-1,15,12,16,-1,8,17,9,-1,9,17,18,-1,9,18,19,-1,19,18,20,-1,19,20,12,-1,12,20,21,-1,12,21,13,-1,11,22,12,-1,12,22,23,-1,12,23,16,-1,
        ]
    }
}
Shape{
    appearance Appearance {
        material  Material 	{
            diffuseColor 1.0 1.0 1.0
            specularColor 0.5019607843137255 0.5019607843137255 0.5019607843137255
            ambientIntensity 1.0
            transparency 0.0
            shininess 0.5
        }
    }
    geometry IndexedFaceSet {
        ccw TRUE
        solid FALSE
        coord DEF co Coordinate {
            point [
                -0.1347 -0.252 0.1277, -0.1293 -0.252 0.1306, -0.1305 -0.252 0.1456, -0.0876 -0.252 0.0627, -0.0847 -0.252 0.0682, -0.0832 -0.252 0.0742, -0.1153 -0.252 0.1463, -0.1077 -0.252 0.1285, -0.104 -0.252 0.1363, -0.1168 -0.252 0.0736, -0.1172 -0.252 0.0758, -0.1304 -0.252 0.0853, -0.1307 -0.252 0.069, -0.1338 -0.252 0.0699, -0.1358 -0.252 0.0886, -0.1209 -0.252 0.1468, -0.0489 -0.252 0.0973, -0.0565 -0.252 0.1102, -0.0831 -0.252 0.0792, -0.0892 -0.252 0.0931, -0.0831 -0.252 0.0768, -0.0961 -0.252 0.0552, -0.0913 -0.252 0.0586, -0.1158 -0.252 0.0715, -0.1246 -0.252 0.0593, -0.1282 -0.252 0.0637, -0.1103 -0.252 0.1522, -0.0985 -0.252 0.1428, -0.1046 -0.252 0.1571, -0.092 -0.252 0.1475, -0.0986 -0.252 0.1608, -0.1233 -0.252 0.132, -0.1207 -0.252 0.1322, -0.1181 -0.252 0.1467, -0.1149 -0.252 0.1315, -0.1094 -0.252 0.1294, -0.1 -0.252 0.071, -0.1013 -0.252 0.0695, -0.1032 -0.252 0.0682, -0.1016 -0.252 0.0531, -0.1053 -0.252 0.0673, -0.1075 -0.252 0.0524, -0.1077 -0.252 0.067, -0.1084 -0.252 0.0524, -0.1082 -0.252 0.067, -0.1142 -0.252 0.0533, -0.1103 -0.252 0.0674, -0.1198 -0.252 0.0557, -0.1126 -0.252 0.0683, -0.1144 -0.252 0.0698, -0.0988 -0.252 0.08, -0.0983 -0.252 0.0777, -0.0983 -0.252 0.0755, -0.0989 -0.252 0.0731, -0.0138 -0.252 0.0795, -0.0264 -0.252 0.088, -0.0204 -0.252 0.0739, -0.0303 -0.252 0.0854, -0.0279 -0.252 0.0702, -0.0348 -0.252 0.0838, -0.036 -0.252 0.0685, -0.0375 -0.252 0.0834, -0.0504 -0.252 0.0685, -0.0485 -0.252 0.0834, -0.0518 -0.252 0.0687, -0.1171 -0.252 0.0782, -0.1164 -0.252 0.0805, -0.1278 -0.252 0.0906, -0.1151 -0.252 0.0825, -0.1237 -0.252 0.0952, -0.1142 -0.252 0.0836, -0.1187 -0.252 0.0986, -0.1123 -0.252 0.0849, -0.1133 -0.252 0.1007, -0.1101 -0.252 0.0858, -0.1075 -0.252 0.1014, -0.1077 -0.252 0.0861, -0.1045 -0.252 0.1013, -0.1057 -0.252 0.0858, -0.0987 -0.252 0.0998, -0.1034 -0.252 0.085, -0.0935 -0.252 0.097, -0.1015 -0.252 0.0837, -0.0999 -0.252 0.082, -0.0409 -0.252 0.1214, -0.0389 -0.252 0.1214, -0.0289 -0.252 0.1346, -0.0348 -0.252 0.121, -0.0278 -0.252 0.1342, -0.0305 -0.252 0.1195, -0.0205 -0.252 0.1306, -0.0266 -0.252 0.1169, -0.0139 -0.252 0.125, -0.0234 -0.252 0.1135, -0.0089 -0.252 0.1181, -0.0212 -0.252 0.1092, -0.0059 -0.252 0.1107, -0.02 -0.252 0.1045, -0.0048 -0.252 0.1027, -0.0199 -0.252 0.1024, -0.0059 -0.252 0.094, -0.0204 -0.252 0.0982, -0.0089 -0.252 0.0862, -0.0219 -0.252 0.0938, -0.0245 -0.252 0.0899, -0.0421 -0.252 0.1539, -0.0517 -0.252 0.1427, -0.034 -0.252 0.1446, -0.0462 -0.252 0.1362, -0.0424 -0.252 0.1283, -0.1443 -0.252 0.1137, -0.1604 -0.252 0.1096, -0.1451 -0.252 0.1078, -0.1604 -0.252 0.1073, -0.1448 -0.252 0.104, -0.1593 -0.252 0.0977, -0.143 -0.252 0.098, -0.1558 -0.252 0.0886, -0.1401 -0.252 0.0931, -0.1502 -0.252 0.0807, -0.1426 -0.252 0.0742, -0.1396 -0.252 0.1421, -0.1473 -0.252 0.1367, -0.1389 -0.252 0.124, -0.149 -0.252 0.1351, -0.1422 -0.252 0.1191, -0.1549 -0.252 0.1276, -0.1587 -0.252 0.1188, -0.0874 -0.252 0.1651, -0.084 -0.252 0.1508, -0.0753 -0.252 0.1666, -0.075 -0.252 0.1519, -0.0652 -0.252 0.1655, -0.0667 -0.252 0.1509, -0.053 -0.252 0.1612, -0.0591 -0.252 0.148, -0.0522 -0.252 0.1432, -0.0497 -0.252 0.0836, -0.0555 -0.252 0.0711, -0.055 -0.252 0.0705, -0.0489 -0.252 0.0834, -0.0534 -0.252 0.0694, -0.0575 -0.252 0.0761, -0.0572 -0.252 0.0742, -0.0566 -0.252 0.0726, -0.0518 -0.252 0.0834, -0.0535 -0.252 0.0827, -0.0574 -0.252 0.077, -0.055 -0.252 0.0817, -0.056 -0.252 0.0805, -0.0569 -0.252 0.0789, -0.0499 -0.252 0.0836, -0.0122 -0.248 0.1228, -0.0089 -0.248 0.1181, -0.0067 -0.248 0.1127, -0.0059 -0.248 0.1107, -0.0048 -0.248 0.1027, -0.0139 -0.248 0.125, -0.0205 -0.248 0.1306, -0.0278 -0.248 0.1342, -0.0289 -0.248 0.1346, -0.034 -0.248 0.1446, -0.0421 -0.248 0.1539, -0.0477 -0.248 0.1577, -0.053 -0.248 0.1612, -0.0652 -0.248 0.1655, -0.0753 -0.248 0.1666, -0.1046 -0.248 0.1571, -0.1036 -0.248 0.1577, -0.0986 -0.248 0.1608, -0.0874 -0.248 0.1651, -0.1103 -0.248 0.1522, -0.1153 -0.248 0.1463, -0.1181 -0.248 0.1467, -0.1209 -0.248 0.1468, -0.1305 -0.248 0.1456, -0.1396 -0.248 0.1421, -0.1473 -0.248 0.1367, -0.149 -0.248 0.1351, -0.1549 -0.248 0.1276, -0.157 -0.248 0.1228, -0.1587 -0.248 0.1188, -0.1598 -0.248 0.1127, -0.1604 -0.248 0.1096, -0.1604 -0.248 0.1073, -0.1593 -0.248 0.0977, -0.1558 -0.248 0.0886, -0.1502 -0.248 0.0807, -0.1426 -0.248 0.0742, -0.1338 -0.248 0.0699, -0.1307 -0.248 0.069, -0.1304 -0.248 0.0683, -0.1282 -0.248 0.0637, -0.1246 -0.248 0.0593, -0.1198 -0.248 0.0557, -0.1176 -0.248 0.0547, -0.1142 -0.248 0.0533, -0.1084 -0.248 0.0524, -0.1075 -0.248 0.0524, -0.0831 -0.248 0.0768, -0.1016 -0.248 0.0531, -0.0974 -0.248 0.0547, -0.0961 -0.248 0.0552, -0.0913 -0.248 0.0586, -0.0876 -0.248 0.0627, -0.0847 -0.248 0.0682, -0.0846 -0.248 0.0683, -0.0832 -0.248 0.0742, -0.0831 -0.248 0.0792, -0.0489 -0.248 0.0973, -0.0565 -0.248 0.1102, -0.0892 -0.248 0.0931, -0.0935 -0.248 0.097, -0.0987 -0.248 0.0998, -0.1045 -0.248 0.1013, -0.1075 -0.248 0.1014, -0.1133 -0.248 0.1007, -0.1187 -0.248 0.0986, -0.1237 -0.248 0.0952, -0.1278 -0.248 0.0906, -0.1304 -0.248 0.0853, -0.1358 -0.248 0.0886, -0.1401 -0.248 0.0931, -0.143 -0.248 0.098, -0.1448 -0.248 0.104, -0.1451 -0.248 0.1078, -0.1445 -0.248 0.1127, -0.1443 -0.248 0.1137, -0.1422 -0.248 0.1191, -0.1397 -0.248 0.1228, -0.1389 -0.248 0.124, -0.1347 -0.248 0.1277, -0.1293 -0.248 0.1306, -0.1233 -0.248 0.132, -0.1207 -0.248 0.1322, -0.1149 -0.248 0.1315, -0.1094 -0.248 0.1294, -0.1077 -0.248 0.1285, -0.104 -0.248 0.1363, -0.0985 -0.248 0.1428, -0.092 -0.248 0.1475, -0.084 -0.248 0.1508, -0.075 -0.248 0.1519, -0.0409 -0.248 0.1214, -0.0412 -0.248 0.1228, -0.0424 -0.248 0.1283, -0.0462 -0.248 0.1362, -0.0517 -0.248 0.1427, -0.0522 -0.248 0.1432, -0.0591 -0.248 0.148, -0.0667 -0.248 0.1509, -0.0389 -0.248 0.1214, -0.0348 -0.248 0.121, -0.0305 -0.248 0.1195, -0.0266 -0.248 0.1169, -0.0234 -0.248 0.1135, -0.023 -0.248 0.1127, -0.0212 -0.248 0.1092, -0.02 -0.248 0.1045, -0.0199 -0.248 0.1024, -0.0204 -0.248 0.0982, -0.0219 -0.248 0.0938, -0.0245 -0.248 0.0899, -0.0264 -0.248 0.088, -0.0303 -0.248 0.0854, -0.0348 -0.248 0.0838, -0.0375 -0.248 0.0834, -0.0485 -0.248 0.0834, -0.0489 -0.248 0.0834, -0.0497 -0.248 0.0836, -0.0499 -0.248 0.0836, -0.0518 -0.248 0.0834, -0.0535 -0.248 0.0827, -0.055 -0.248 0.0817, -0.056 -0.248 0.0805, -0.0569 -0.248 0.0789, -0.0574 -0.248 0.077, -0.0575 -0.248 0.0761, -0.0572 -0.248 0.0742, -0.0566 -0.248 0.0726, -0.0555 -0.248 0.0711, -0.055 -0.248 0.0705, -0.0534 -0.248 0.0694, -0.0518 -0.248 0.0687, -0.0504 -0.248 0.0685, -0.036 -0.248 0.0685, -0.0279 -0.248 0.0702, -0.0204 -0.248 0.0739, -0.0138 -0.248 0.0795, -0.0089 -0.248 0.0862, -0.0059 -0.248 0.094, -0.1077 -0.248 0.0861, -0.1057 -0.248 0.0858, -0.1034 -0.248 0.085, -0.1015 -0.248 0.0837, -0.0999 -0.248 0.082, -0.0988 -0.248 0.08, -0.0983 -0.248 0.0777, -0.0983 -0.248 0.0755, -0.0989 -0.248 0.0731, -0.1 -0.248 0.071, -0.1013 -0.248 0.0695, -0.1032 -0.248 0.0682, -0.1053 -0.248 0.0673, -0.1077 -0.248 0.067, -0.1082 -0.248 0.067, -0.1103 -0.248 0.0674, -0.1126 -0.248 0.0683, -0.1144 -0.248 0.0698, -0.1158 -0.248 0.0715, -0.1168 -0.248 0.0736, -0.1172 -0.248 0.0758, -0.1171 -0.248 0.0782, -0.1164 -0.248 0.0805, -0.1151 -0.248 0.0825, -0.1142 -0.248 0.0836, -0.1123 -0.248 0.0849, -0.1101 -0.248 0.0858
            ]
        }
        coordIndex [
            0,1,2,-1,3,4,5,-1,6,7,8,-1,9,10,11,-1,12,11,13,-1,13,11,14,-1,2,1,15,-1,16,17,18,-1,18,17,19,-1,18,19,20,-1,20,19,21,-1,20,21,5,-1,5,21,22,-1,5,22,3,-1,23,9,24,-1,24,9,11,-1,24,11,25,-1,25,11,12,-1,6,8,26,-1,26,8,27,-1,26,27,28,-1,28,27,29,-1,28,29,30,-1,1,31,15,-1,15,31,32,-1,15,32,33,-1,33,32,34,-1,33,34,6,-1,6,34,35,-1,6,35,7,-1,36,37,21,-1,21,37,38,-1,21,38,39,-1,39,38,40,-1,39,40,41,-1,41,40,42,-1,41,42,43,-1,43,42,44,-1,43,44,45,-1,45,44,46,-1,45,46,47,-1,47,46,48,-1,47,48,24,-1,24,48,49,-1,24,49,23,-1,50,51,19,-1,19,51,52,-1,19,52,21,-1,21,52,53,-1,21,53,36,-1,54,55,56,-1,56,55,57,-1,56,57,58,-1,58,57,59,-1,58,59,60,-1,60,59,61,-1,60,61,62,-1,62,61,63,-1,62,63,64,-1,10,65,11,-1,11,65,66,-1,11,66,67,-1,67,66,68,-1,67,68,69,-1,69,68,70,-1,69,70,71,-1,71,70,72,-1,71,72,73,-1,73,72,74,-1,73,74,75,-1,75,74,76,-1,75,76,77,-1,77,76,78,-1,77,78,79,-1,79,78,80,-1,79,80,81,-1,81,80,82,-1,81,82,19,-1,19,82,83,-1,19,83,50,-1,84,85,86,-1,86,85,87,-1,86,87,88,-1,88,87,89,-1,88,89,90,-1,90,89,91,-1,90,91,92,-1,92,91,93,-1,92,93,94,-1,94,93,95,-1,94,95,96,-1,96,95,97,-1,96,97,98,-1,98,97,99,-1,98,99,100,-1,100,99,101,-1,100,101,102,-1,102,101,103,-1,102,103,54,-1,54,103,104,-1,54,104,55,-1,105,106,107,-1,107,106,108,-1,107,108,86,-1,86,108,109,-1,86,109,84,-1,110,111,112,-1,112,111,113,-1,112,113,114,-1,114,113,115,-1,114,115,116,-1,116,115,117,-1,116,117,118,-1,118,117,119,-1,118,119,14,-1,14,119,120,-1,14,120,13,-1,2,121,0,-1,0,121,122,-1,0,122,123,-1,123,122,124,-1,123,124,125,-1,125,124,126,-1,125,126,110,-1,110,126,127,-1,110,127,111,-1,30,29,128,-1,128,29,129,-1,128,129,130,-1,130,129,131,-1,130,131,132,-1,132,131,133,-1,132,133,134,-1,134,133,135,-1,134,135,105,-1,105,135,136,-1,105,136,106,-1,137,138,139,-1,63,140,64,-1,64,140,137,-1,64,137,141,-1,141,137,139,-1,142,143,137,-1,137,143,144,-1,137,144,138,-1,145,146,147,-1,146,148,147,-1,147,148,149,-1,147,149,150,-1,142,137,147,-1,147,137,151,-1,147,151,145,-1,152,92,153,-1,153,92,94,-1,153,94,154,-1,154,94,96,-1,154,96,155,-1,155,96,98,-1,155,98,156,-1,152,157,92,-1,92,157,158,-1,92,158,90,-1,90,158,159,-1,90,159,88,-1,88,159,160,-1,88,160,86,-1,86,160,161,-1,86,161,107,-1,107,161,162,-1,107,162,105,-1,105,162,134,-1,134,162,163,-1,163,164,134,-1,134,164,165,-1,134,165,132,-1,132,165,166,-1,132,166,130,-1,167,28,168,-1,168,28,30,-1,168,30,169,-1,169,30,128,-1,169,128,170,-1,170,128,130,-1,170,130,166,-1,28,167,171,-1,28,171,26,-1,26,171,172,-1,26,172,6,-1,6,172,173,-1,6,173,33,-1,33,173,174,-1,33,174,15,-1,15,174,175,-1,15,175,2,-1,2,175,176,-1,2,176,121,-1,121,176,177,-1,121,177,122,-1,122,177,178,-1,122,178,124,-1,127,126,179,-1,179,126,124,-1,179,124,178,-1,179,180,127,-1,127,180,181,-1,127,181,111,-1,111,181,182,-1,182,183,111,-1,111,183,184,-1,111,184,113,-1,113,184,185,-1,113,185,115,-1,115,185,186,-1,115,186,117,-1,117,186,187,-1,117,187,119,-1,119,187,188,-1,119,188,120,-1,120,188,189,-1,120,189,13,-1,13,189,190,-1,13,190,12,-1,12,190,191,-1,12,191,25,-1,191,192,25,-1,25,192,193,-1,25,193,24,-1,24,193,194,-1,24,194,47,-1,47,194,195,-1,47,195,45,-1,195,196,45,-1,45,196,197,-1,45,197,43,-1,43,197,198,-1,43,198,41,-1,199,20,5,-1,41,198,200,-1,41,200,39,-1,39,200,201,-1,39,201,21,-1,201,202,21,-1,21,202,203,-1,21,203,22,-1,22,203,204,-1,22,204,3,-1,3,204,205,-1,3,205,4,-1,4,205,206,-1,4,206,5,-1,5,206,207,-1,5,207,199,-1,18,20,208,-1,208,20,199,-1,16,18,209,-1,209,18,208,-1,17,16,210,-1,210,16,209,-1,19,17,211,-1,211,17,210,-1,19,211,212,-1,19,212,81,-1,81,212,213,-1,81,213,79,-1,79,213,214,-1,79,214,77,-1,77,214,215,-1,77,215,75,-1,75,215,216,-1,75,216,73,-1,73,216,217,-1,73,217,71,-1,71,217,218,-1,71,218,69,-1,69,218,219,-1,69,219,67,-1,67,219,220,-1,67,220,11,-1,11,220,221,-1,11,221,14,-1,14,221,222,-1,14,222,118,-1,118,222,223,-1,118,223,116,-1,116,223,224,-1,116,224,114,-1,114,224,225,-1,114,225,112,-1,225,226,112,-1,112,226,110,-1,226,227,110,-1,110,227,228,-1,110,228,125,-1,125,228,229,-1,125,229,123,-1,229,230,123,-1,123,230,231,-1,123,231,0,-1,0,231,232,-1,0,232,1,-1,1,232,233,-1,1,233,31,-1,31,233,234,-1,31,234,32,-1,32,234,235,-1,32,235,34,-1,34,235,236,-1,34,236,35,-1,35,236,237,-1,35,237,7,-1,7,237,238,-1,7,238,8,-1,8,238,239,-1,8,239,27,-1,27,239,240,-1,27,240,29,-1,29,240,241,-1,29,241,129,-1,129,241,242,-1,129,242,131,-1,243,84,244,-1,244,84,109,-1,244,109,245,-1,245,109,108,-1,245,108,246,-1,246,108,106,-1,246,106,247,-1,247,106,136,-1,247,136,248,-1,248,136,135,-1,248,135,249,-1,249,135,133,-1,249,133,250,-1,250,133,131,-1,250,131,242,-1,85,84,251,-1,251,84,243,-1,85,251,252,-1,85,252,87,-1,87,252,253,-1,87,253,89,-1,89,253,254,-1,89,254,91,-1,91,254,255,-1,91,255,93,-1,93,255,256,-1,93,256,95,-1,256,257,95,-1,95,257,258,-1,95,258,97,-1,97,258,259,-1,97,259,99,-1,99,259,260,-1,99,260,101,-1,101,260,261,-1,101,261,103,-1,103,261,262,-1,103,262,104,-1,104,262,263,-1,104,263,55,-1,55,263,264,-1,55,264,57,-1,57,264,265,-1,57,265,59,-1,59,265,266,-1,59,266,61,-1,63,61,267,-1,267,61,266,-1,63,267,268,-1,63,268,140,-1,140,268,269,-1,140,269,137,-1,137,269,270,-1,137,270,151,-1,151,270,271,-1,151,271,145,-1,145,271,272,-1,145,272,146,-1,146,272,273,-1,146,273,148,-1,148,273,274,-1,148,274,149,-1,149,274,275,-1,149,275,150,-1,150,275,276,-1,150,276,147,-1,147,276,277,-1,147,277,142,-1,142,277,278,-1,142,278,143,-1,143,278,279,-1,143,279,144,-1,144,279,280,-1,144,280,138,-1,138,280,281,-1,138,281,139,-1,139,281,282,-1,139,282,141,-1,141,282,283,-1,141,283,64,-1,64,283,284,-1,64,284,62,-1,60,62,285,-1,285,62,284,-1,60,285,286,-1,60,286,58,-1,58,286,287,-1,58,287,56,-1,56,287,288,-1,56,288,54,-1,54,288,289,-1,54,289,102,-1,102,289,290,-1,102,290,100,-1,100,290,156,-1,100,156,98,-1,76,291,292,-1,76,292,78,-1,78,292,293,-1,78,293,80,-1,80,293,294,-1,80,294,82,-1,82,294,295,-1,82,295,83,-1,83,295,296,-1,83,296,50,-1,50,296,297,-1,50,297,51,-1,51,297,298,-1,51,298,52,-1,52,298,299,-1,52,299,53,-1,53,299,300,-1,53,300,36,-1,36,300,301,-1,36,301,37,-1,37,301,302,-1,37,302,38,-1,38,302,303,-1,38,303,40,-1,40,303,304,-1,40,304,42,-1,42,304,305,-1,42,305,44,-1,44,305,306,-1,44,306,46,-1,46,306,307,-1,46,307,48,-1,48,307,308,-1,48,308,49,-1,49,308,309,-1,49,309,23,-1,23,309,310,-1,23,310,9,-1,9,310,311,-1,9,311,10,-1,10,311,312,-1,10,312,65,-1,65,312,313,-1,65,313,66,-1,66,313,314,-1,66,314,68,-1,68,314,315,-1,68,315,70,-1,70,315,316,-1,70,316,72,-1,72,316,317,-1,72,317,74,-1,74,317,291,-1,74,291,76,-1,
        ]
    }
}
Shape{
    appearance Appearance {
        material  Material 	{
            diffuseColor 0.20784313725490197 0.20784313725490197 0.20784313725490197
            specularColor 0.01568627450980392 0.01568627450980392 0.01568627450980392
            ambientIntensity 0.298
            transparency 0.0
            shininess 0.5
        }
    }
    geometry IndexedFaceSet {
        ccw TRUE
        solid FALSE
        coord DEF co Coordinate {
            point [
                -0.1082 -0.248 0.067, -0.1142 -0.248 0.0836, -0.1151 -0.248 0.0825, -0.1053 -0.248 0.0673, -0.1032 -0.248 0.0682, -0.1057 -0.248 0.0858, -0.1077 -0.248 0.0861, -0.1101 -0.248 0.0858, -0.1123 -0.248 0.0849, -0.1168 -0.248 0.0736, -0.1158 -0.248 0.0715, -0.1144 -0.248 0.0698, -0.1077 -0.248 0.067, -0.1164 -0.248 0.0805, -0.1171 -0.248 0.0782, -0.1172 -0.248 0.0758, -0.1126 -0.248 0.0683, -0.1103 -0.248 0.0674, -0.1013 -0.248 0.0695, -0.1 -0.248 0.071, -0.0989 -0.248 0.0731, -0.0983 -0.248 0.0755, -0.0983 -0.248 0.0777, -0.0988 -0.248 0.08, -0.0999 -0.248 0.082, -0.1015 -0.248 0.0837, -0.1034 -0.248 0.085
            ]
        }
        coordIndex [
            0,1,2,-1,3,4,5,-1,6,7,0,-1,0,7,8,-1,0,8,1,-1,9,10,2,-1,2,10,11,-1,6,0,5,-1,5,0,12,-1,5,12,3,-1,13,14,2,-1,2,14,15,-1,2,15,9,-1,11,16,2,-1,2,16,17,-1,2,17,0,-1,4,18,5,-1,5,18,19,-1,5,19,20,-1,20,21,5,-1,5,21,22,-1,5,22,23,-1,23,24,5,-1,5,24,25,-1,5,25,26,-1,
        ]
    }
}
Shape{
    appearance Appearance {
        material  Material 	{
            diffuseColor 1.0 1.0 1.0
            specularColor 0.5019607843137255 0.5019607843137255 0.5019607843137255
            ambientIntensity 1.0
            transparency 0.0
            shininess 0.5
        }
    }
    geometry IndexedFaceSet {
        ccw TRUE
        solid FALSE
        coord DEF co Coordinate {
            point [
                0.1235 -0.252 0.1386, 0.1282 -0.252 0.1384, 0.1236 -0.252 0.1405, 0.1283 -0.252 0.1407, 0.1231 -0.252 0.1447, 0.1278 -0.252 0.145, 0.1222 -0.252 0.1472, 0.1266 -0.252 0.1483, 0.1209 -0.252 0.1492, 0.1245 -0.252 0.1514, 0.1199 -0.252 0.1502, 0.1231 -0.252 0.1528, 0.1172 -0.252 0.1519, 0.1197 -0.252 0.1552, 0.1142 -0.252 0.153, 0.1156 -0.252 0.1567, 0.1099 -0.252 0.1534, 0.1101 -0.252 0.1574, 0.1048 -0.252 0.1534, 0.1003 -0.252 0.1574, 0.1048 -0.252 0.127, 0.1003 -0.252 0.1231, 0.1097 -0.252 0.127, 0.1098 -0.252 0.1231, 0.1141 -0.252 0.1274, 0.1155 -0.252 0.1237, 0.1171 -0.252 0.1285, 0.1194 -0.252 0.1253, 0.1193 -0.252 0.13, 0.1227 -0.252 0.1275, 0.1199 -0.252 0.1306, 0.1231 -0.252 0.1279, 0.1217 -0.252 0.1328, 0.1256 -0.252 0.1309, 0.1229 -0.252 0.1354, 0.1273 -0.252 0.1344, 0.1231 -0.248 0.1279, 0.1256 -0.248 0.1309, 0.1273 -0.248 0.1344, 0.1282 -0.248 0.1384, 0.1283 -0.248 0.1407, 0.1278 -0.248 0.145, 0.1266 -0.248 0.1483, 0.1245 -0.248 0.1514, 0.1231 -0.248 0.1528, 0.1101 -0.248 0.1574, 0.1197 -0.248 0.1552, 0.1161 -0.248 0.1566, 0.1156 -0.248 0.1567, 0.1003 -0.248 0.1574, 0.1003 -0.248 0.1231, 0.1098 -0.248 0.1231, 0.1155 -0.248 0.1237, 0.1161 -0.248 0.124, 0.1194 -0.248 0.1253, 0.1227 -0.248 0.1275, 0.1199 -0.248 0.1502, 0.1209 -0.248 0.1492, 0.1222 -0.248 0.1472, 0.1231 -0.248 0.1447, 0.1236 -0.248 0.1405, 0.1099 -0.248 0.1534, 0.1142 -0.248 0.153, 0.1172 -0.248 0.1519, 0.1048 -0.248 0.1534, 0.1048 -0.248 0.127, 0.1097 -0.248 0.127, 0.1199 -0.248 0.1306, 0.1193 -0.248 0.13, 0.1171 -0.248 0.1285, 0.1141 -0.248 0.1274, 0.1235 -0.248 0.1386, 0.1229 -0.248 0.1354, 0.1217 -0.248 0.1328
            ]
        }
        coordIndex [
            0,1,2,-1,2,1,3,-1,2,3,4,-1,4,3,5,-1,4,5,6,-1,6,5,7,-1,6,7,8,-1,8,7,9,-1,8,9,10,-1,10,9,11,-1,10,11,12,-1,12,11,13,-1,12,13,14,-1,14,13,15,-1,14,15,16,-1,16,15,17,-1,16,17,18,-1,18,17,19,-1,18,19,20,-1,20,19,21,-1,20,21,22,-1,22,21,23,-1,22,23,24,-1,24,23,25,-1,24,25,26,-1,26,25,27,-1,26,27,28,-1,28,27,29,-1,28,29,30,-1,30,29,31,-1,30,31,32,-1,32,31,33,-1,32,33,34,-1,34,33,35,-1,34,35,0,-1,0,35,1,-1,31,36,37,-1,31,37,33,-1,33,37,38,-1,33,38,35,-1,35,38,39,-1,35,39,1,-1,1,39,40,-1,1,40,3,-1,3,40,41,-1,3,41,5,-1,5,41,42,-1,5,42,7,-1,7,42,43,-1,7,43,9,-1,9,43,44,-1,9,44,11,-1,45,17,15,-1,11,44,46,-1,11,46,13,-1,13,46,47,-1,13,47,15,-1,15,47,48,-1,15,48,45,-1,19,17,49,-1,49,17,45,-1,21,19,50,-1,50,19,49,-1,23,21,51,-1,51,21,50,-1,23,51,52,-1,23,52,25,-1,25,52,53,-1,25,53,27,-1,53,54,27,-1,27,54,55,-1,27,55,29,-1,29,55,36,-1,29,36,31,-1,10,56,57,-1,10,57,8,-1,8,57,58,-1,8,58,6,-1,6,58,59,-1,6,59,4,-1,4,59,60,-1,4,60,2,-1,16,61,62,-1,16,62,14,-1,14,62,63,-1,14,63,12,-1,12,63,56,-1,12,56,10,-1,16,18,61,-1,61,18,64,-1,18,20,64,-1,64,20,65,-1,20,22,65,-1,65,22,66,-1,30,67,68,-1,30,68,28,-1,28,68,69,-1,28,69,26,-1,26,69,70,-1,26,70,24,-1,24,70,66,-1,24,66,22,-1,2,60,71,-1,2,71,0,-1,0,71,72,-1,0,72,34,-1,34,72,73,-1,34,73,32,-1,32,73,67,-1,32,67,30,-1,
        ]
    }
}
Shape{
    appearance Appearance {
        material  Material 	{
            diffuseColor 0.20784313725490197 0.20784313725490197 0.20784313725490197
            specularColor 0.01568627450980392 0.01568627450980392 0.01568627450980392
            ambientIntensity 0.298
            transparency 0.0
            shininess 0.5
        }
    }
    geometry IndexedFaceSet {
        ccw TRUE
        solid FALSE
        coord DEF co Coordinate {
            point [
                0.1048 -0.248 0.1534, 0.1048 -0.248 0.127, 0.1099 -0.248 0.1534, 0.1097 -0.248 0.127, 0.1141 -0.248 0.1274, 0.1171 -0.248 0.1285, 0.1193 -0.248 0.13, 0.1199 -0.248 0.1306, 0.1217 -0.248 0.1328, 0.1229 -0.248 0.1354, 0.1235 -0.248 0.1386, 0.1236 -0.248 0.1405, 0.1231 -0.248 0.1447, 0.1222 -0.248 0.1472, 0.1209 -0.248 0.1492, 0.1199 -0.248 0.1502, 0.1142 -0.248 0.153, 0.1172 -0.248 0.1519
            ]
        }
        coordIndex [
            0,1,2,-1,2,1,3,-1,2,3,4,-1,4,5,2,-1,2,5,6,-1,2,6,7,-1,7,8,2,-1,2,8,9,-1,2,9,10,-1,10,11,2,-1,2,11,12,-1,2,12,13,-1,13,14,2,-1,2,14,15,-1,2,15,16,-1,16,15,17,-1,
        ]
    }
}
Shape{
    appearance Appearance {
        material  Material 	{
            diffuseColor 1.0 1.0 1.0
            specularColor 0.5019607843137255 0.5019607843137255 0.5019607843137255
            ambientIntensity 1.0
            transparency 0.0
            shininess 0.5
        }
    }
    geometry IndexedFaceSet {
        ccw TRUE
        solid FALSE
        coord DEF co Coordinate {
            point [
                0.0597 -0.252 0.1264, 0.0597 -0.248 0.1264, 0.0565 -0.248 0.1268, 0.0565 -0.252 0.1268, 0.054 -0.248 0.1277, 0.054 -0.252 0.1277, 0.0517 -0.248 0.1292, 0.0517 -0.252 0.1292, 0.0508 -0.248 0.13, 0.0508 -0.252 0.13, 0.0491 -0.248 0.1325, 0.0491 -0.252 0.1325, 0.048 -0.248 0.1353, 0.048 -0.252 0.1353, 0.0475 -0.248 0.1395, 0.0475 -0.252 0.1395, 0.0475 -0.248 0.1398, 0.0475 -0.252 0.1398, 0.048 -0.248 0.1442, 0.048 -0.252 0.1442, 0.0491 -0.248 0.1472, 0.0491 -0.252 0.1472, 0.0507 -0.248 0.1497, 0.0507 -0.252 0.1497, 0.0511 -0.248 0.1501, 0.0511 -0.252 0.1501, 0.0533 -0.248 0.152, 0.0533 -0.252 0.152, 0.056 -0.248 0.1533, 0.056 -0.252 0.1533, 0.0589 -0.248 0.1539, 0.0589 -0.252 0.1539, 0.0604 -0.248 0.154, 0.0604 -0.252 0.154, 0.0645 -0.248 0.1535, 0.0645 -0.252 0.1535, 0.068 -0.248 0.1522, 0.068 -0.252 0.1522, 0.0685 -0.248 0.1519, 0.0685 -0.252 0.1519, 0.0685 -0.252 0.1566, 0.0685 -0.248 0.1566, 0.0604 -0.248 0.158, 0.0604 -0.252 0.158, 0.0607 -0.252 0.158, 0.0651 -0.248 0.1576, 0.0651 -0.252 0.1576, 0.0639 -0.248 0.1577, 0.0607 -0.248 0.158, 0.0577 -0.248 0.1577, 0.056 -0.252 0.1575, 0.056 -0.248 0.1575, 0.0523 -0.248 0.1562, 0.0523 -0.252 0.1562, 0.0489 -0.248 0.1539, 0.0489 -0.252 0.1539, 0.0478 -0.248 0.1529, 0.0478 -0.252 0.1529, 0.0454 -0.248 0.1498, 0.0454 -0.252 0.1498, 0.0444 -0.248 0.1475, 0.0437 -0.252 0.146, 0.0437 -0.248 0.146, 0.0429 -0.248 0.1415, 0.0429 -0.252 0.1415, 0.0428 -0.248 0.1396, 0.0428 -0.252 0.1396, 0.0433 -0.248 0.1348, 0.0433 -0.252 0.1348, 0.0444 -0.248 0.1317, 0.0446 -0.252 0.131, 0.0446 -0.248 0.131, 0.0465 -0.248 0.128, 0.0465 -0.252 0.128, 0.0472 -0.248 0.1272, 0.0472 -0.252 0.1272, 0.059 -0.248 0.1225, 0.059 -0.252 0.1225, 0.0571 -0.252 0.1226, 0.0501 -0.248 0.1248, 0.0501 -0.252 0.1248, 0.0533 -0.248 0.1233, 0.0533 -0.252 0.1233, 0.0561 -0.248 0.1228, 0.0571 -0.248 0.1226, 0.0621 -0.248 0.1228, 0.0643 -0.252 0.123, 0.0643 -0.248 0.123, 0.0679 -0.248 0.1242, 0.0679 -0.252 0.1242, 0.0685 -0.248 0.1245, 0.0685 -0.252 0.1245, 0.0685 -0.252 0.1287, 0.0685 -0.248 0.1287, 0.0651 -0.248 0.1272, 0.0651 -0.252 0.1272, 0.0612 -0.248 0.1265, 0.0612 -0.252 0.1265, 0.1828 -0.252 0.0819, 0.1813 -0.252 0.078, 0.1943 -0.252 0.0819, 0.1956 -0.252 0.078, 0.1879 -0.252 0.0961, 0.1862 -0.252 0.1029, 0.1732 -0.252 0.0686, 0.178 -0.252 0.0686, 0.1882 -0.252 0.0972, 0.1884 -0.252 0.0985, 0.191 -0.252 0.1029, 0.1885 -0.252 0.0985, 0.1888 -0.252 0.0971, 0.1891 -0.252 0.0961, 0.204 -0.252 0.0686, 0.1991 -0.252 0.0686, 0.1862 -0.248 0.1029, 0.191 -0.248 0.1029, 0.1732 -0.248 0.0686, 0.178 -0.248 0.0686, 0.1813 -0.248 0.078, 0.1956 -0.248 0.078, 0.1991 -0.248 0.0686, 0.204 -0.248 0.0686, 0.1879 -0.248 0.0961, 0.1882 -0.248 0.0972, 0.1884 -0.248 0.0985, 0.1828 -0.248 0.0819, 0.1943 -0.248 0.0819, 0.1891 -0.248 0.0961, 0.1885 -0.248 0.0985, 0.1888 -0.248 0.0971
            ]
        }
        coordIndex [
            0,1,2,-1,0,2,3,-1,3,2,4,-1,3,4,5,-1,5,4,6,-1,5,6,7,-1,7,6,8,-1,7,8,9,-1,9,8,10,-1,9,10,11,-1,11,10,12,-1,11,12,13,-1,13,12,14,-1,13,14,15,-1,15,14,16,-1,15,16,17,-1,17,16,18,-1,17,18,19,-1,19,18,20,-1,19,20,21,-1,21,20,22,-1,21,22,23,-1,23,22,24,-1,23,24,25,-1,25,24,26,-1,25,26,27,-1,27,26,28,-1,27,28,29,-1,29,28,30,-1,29,30,31,-1,31,30,32,-1,31,32,33,-1,33,32,34,-1,33,34,35,-1,35,34,36,-1,35,36,37,-1,37,36,38,-1,37,38,39,-1,40,39,41,-1,41,39,38,-1,42,43,44,-1,40,41,45,-1,40,45,46,-1,46,45,47,-1,46,47,44,-1,44,47,48,-1,44,48,42,-1,42,49,43,-1,43,49,50,-1,49,51,50,-1,50,51,52,-1,50,52,53,-1,53,52,54,-1,53,54,55,-1,55,54,56,-1,55,56,57,-1,57,56,58,-1,57,58,59,-1,59,58,60,-1,59,60,61,-1,60,62,61,-1,61,62,63,-1,61,63,64,-1,64,63,65,-1,64,65,66,-1,66,65,67,-1,66,67,68,-1,68,67,69,-1,68,69,70,-1,69,71,70,-1,70,71,72,-1,70,72,73,-1,73,72,74,-1,73,74,75,-1,76,77,78,-1,75,74,79,-1,75,79,80,-1,80,79,81,-1,80,81,82,-1,82,81,83,-1,82,83,78,-1,78,83,84,-1,78,84,76,-1,76,85,77,-1,77,85,86,-1,85,87,86,-1,86,87,88,-1,86,88,89,-1,89,88,90,-1,89,90,91,-1,92,91,93,-1,93,91,90,-1,92,93,94,-1,92,94,95,-1,95,94,96,-1,95,96,97,-1,97,96,1,-1,97,1,0,-1,37,39,40,-1,11,13,68,-1,19,21,59,-1,68,13,66,-1,59,21,57,-1,37,40,35,-1,35,40,46,-1,35,46,33,-1,33,46,44,-1,33,44,31,-1,31,44,43,-1,31,43,29,-1,29,43,50,-1,29,50,27,-1,50,53,27,-1,27,53,55,-1,27,55,25,-1,25,55,57,-1,25,57,23,-1,23,57,21,-1,68,70,11,-1,11,70,73,-1,11,73,9,-1,9,73,75,-1,9,75,7,-1,7,75,80,-1,7,80,5,-1,5,80,82,-1,5,82,3,-1,3,82,78,-1,3,78,0,-1,0,78,77,-1,0,77,97,-1,97,77,86,-1,97,86,95,-1,95,86,89,-1,95,89,92,-1,92,89,91,-1,13,15,66,-1,66,15,17,-1,66,17,64,-1,64,17,19,-1,64,19,61,-1,61,19,59,-1,98,99,100,-1,100,99,101,-1,102,103,98,-1,98,103,104,-1,98,104,99,-1,99,104,105,-1,102,106,103,-1,103,106,107,-1,103,107,108,-1,108,107,109,-1,108,109,110,-1,110,111,108,-1,108,111,100,-1,108,100,112,-1,112,100,101,-1,112,101,113,-1,103,108,114,-1,114,108,115,-1,104,103,116,-1,116,103,114,-1,105,104,117,-1,117,104,116,-1,99,105,118,-1,118,105,117,-1,101,99,119,-1,119,99,118,-1,113,101,120,-1,120,101,119,-1,112,113,121,-1,121,113,120,-1,108,112,115,-1,115,112,121,-1,102,122,123,-1,102,123,106,-1,106,123,124,-1,106,124,107,-1,102,98,122,-1,122,98,125,-1,98,100,125,-1,125,100,126,-1,100,111,126,-1,126,111,127,-1,109,128,129,-1,109,129,110,-1,110,129,127,-1,110,127,111,-1,109,107,128,-1,128,107,124,-1,
        ]
    }
}
Shape{
    appearance Appearance {
        material  Material 	{
            diffuseColor 0.20784313725490197 0.20784313725490197 0.20784313725490197
            specularColor 0.01568627450980392 0.01568627450980392 0.01568627450980392
            ambientIntensity 0.298
            transparency 0.0
            shininess 0.5
        }
    }
    geometry IndexedFaceSet {
        ccw TRUE
        solid FALSE
        coord DEF co Coordinate {
            point [
                0.1885 -0.248 0.0985, 0.1884 -0.248 0.0985, 0.1888 -0.248 0.0971, 0.1882 -0.248 0.0972, 0.1891 -0.248 0.0961, 0.1879 -0.248 0.0961, 0.1943 -0.248 0.0819, 0.1828 -0.248 0.0819
            ]
        }
        coordIndex [
            0,1,2,-1,2,1,3,-1,2,3,4,-1,4,3,5,-1,4,5,6,-1,6,5,7,-1,
        ]
    }
}
Shape{
    appearance Appearance {
        material  Material 	{
            diffuseColor 1.0 1.0 1.0
            specularColor 0.5019607843137255 0.5019607843137255 0.5019607843137255
            ambientIntensity 1.0
            transparency 0.0
            shininess 0.5
        }
    }
    geometry IndexedFaceSet {
        ccw TRUE
        solid FALSE
        coord DEF co Coordinate {
            point [
                0.1368 -0.252 0.0725, 0.1368 -0.248 0.0725, 0.1228 -0.252 0.0725, 0.1292 -0.248 0.0725, 0.1228 -0.248 0.0725, 0.1228 -0.252 0.0841, 0.1228 -0.248 0.0841, 0.1351 -0.252 0.0841, 0.1292 -0.248 0.0841, 0.1351 -0.248 0.0841, 0.1351 -0.252 0.088, 0.1351 -0.248 0.088, 0.1228 -0.248 0.088, 0.1228 -0.252 0.088, 0.1292 -0.248 0.088, 0.1228 -0.252 0.099, 0.1228 -0.248 0.099, 0.136 -0.248 0.099, 0.136 -0.252 0.099, 0.1292 -0.248 0.099, 0.136 -0.252 0.1029, 0.136 -0.248 0.1029, 0.1184 -0.248 0.1029, 0.1184 -0.252 0.1029, 0.1292 -0.248 0.1029, 0.1184 -0.252 0.0686, 0.1184 -0.248 0.0686, 0.1368 -0.252 0.0686, 0.1292 -0.248 0.0686, 0.1368 -0.248 0.0686, 0.0278 -0.252 0.0725, 0.0418 -0.252 0.0725, 0.0278 -0.248 0.0725, 0.0418 -0.248 0.0725, 0.0278 -0.252 0.0841, 0.0278 -0.248 0.0841, 0.04 -0.252 0.0841, 0.04 -0.248 0.0841, 0.04 -0.252 0.088, 0.04 -0.248 0.088, 0.0278 -0.252 0.088, 0.0278 -0.248 0.088, 0.0278 -0.252 0.099, 0.0278 -0.248 0.099, 0.041 -0.252 0.099, 0.041 -0.248 0.099, 0.041 -0.252 0.1029, 0.041 -0.248 0.1029, 0.0233 -0.252 0.1029, 0.0233 -0.248 0.1029, 0.0233 -0.252 0.0686, 0.0233 -0.248 0.0686, 0.0418 -0.252 0.0686, 0.0418 -0.248 0.0686, 0.1398 -0.252 0.1363, 0.1384 -0.252 0.1324, 0.1513 -0.252 0.1363, 0.1527 -0.252 0.1324, 0.1449 -0.252 0.1506, 0.1432 -0.252 0.1574, 0.1302 -0.252 0.1231, 0.1351 -0.252 0.1231, 0.1452 -0.252 0.1516, 0.1455 -0.252 0.153, 0.148 -0.252 0.1574, 0.1456 -0.252 0.153, 0.1459 -0.252 0.1515, 0.1461 -0.252 0.1506, 0.1611 -0.252 0.1231, 0.1562 -0.252 0.1231, 0.1432 -0.248 0.1574, 0.148 -0.248 0.1574, 0.1302 -0.248 0.1231, 0.1401 -0.248 0.149, 0.1351 -0.248 0.1231, 0.1384 -0.248 0.1324, 0.1527 -0.248 0.1324, 0.1401 -0.248 0.1324, 0.1562 -0.248 0.1231, 0.1611 -0.248 0.1231, 0.1449 -0.248 0.1506, 0.1452 -0.248 0.1516, 0.1455 -0.248 0.153, 0.1398 -0.248 0.1363, 0.1513 -0.248 0.1363, 0.1461 -0.248 0.1506, 0.1456 -0.248 0.153, 0.1459 -0.248 0.1515
            ]
        }
        coordIndex [
            0,1,2,-1,2,1,3,-1,2,3,4,-1,5,2,6,-1,6,2,4,-1,5,6,7,-1,7,6,8,-1,7,8,9,-1,10,7,11,-1,11,7,9,-1,12,13,14,-1,14,13,10,-1,14,10,11,-1,15,13,16,-1,16,13,12,-1,17,18,19,-1,19,18,15,-1,19,15,16,-1,20,18,21,-1,21,18,17,-1,22,23,24,-1,24,23,20,-1,24,20,21,-1,25,23,26,-1,26,23,22,-1,25,26,27,-1,27,26,28,-1,27,28,29,-1,0,27,1,-1,1,27,29,-1,25,27,0,-1,0,2,25,-1,25,2,5,-1,25,5,23,-1,18,20,15,-1,15,20,23,-1,15,23,13,-1,13,23,5,-1,13,5,10,-1,10,5,7,-1,30,31,32,-1,32,31,33,-1,34,30,35,-1,35,30,32,-1,36,34,37,-1,37,34,35,-1,38,36,39,-1,39,36,37,-1,40,38,41,-1,41,38,39,-1,42,40,43,-1,43,40,41,-1,44,42,45,-1,45,42,43,-1,46,44,47,-1,47,44,45,-1,48,46,49,-1,49,46,47,-1,50,48,51,-1,51,48,49,-1,52,50,53,-1,53,50,51,-1,31,52,33,-1,33,52,53,-1,50,52,31,-1,31,30,50,-1,50,30,34,-1,50,34,48,-1,44,46,42,-1,42,46,48,-1,42,48,40,-1,40,48,34,-1,40,34,38,-1,38,34,36,-1,54,55,56,-1,56,55,57,-1,58,59,54,-1,54,59,60,-1,54,60,55,-1,55,60,61,-1,58,62,59,-1,59,62,63,-1,59,63,64,-1,64,63,65,-1,64,65,66,-1,66,67,64,-1,64,67,56,-1,64,56,68,-1,68,56,57,-1,68,57,69,-1,59,64,70,-1,70,64,71,-1,72,60,73,-1,73,60,59,-1,73,59,70,-1,61,60,74,-1,74,60,72,-1,55,61,75,-1,75,61,74,-1,76,57,77,-1,77,57,55,-1,77,55,75,-1,69,57,78,-1,78,57,76,-1,68,69,79,-1,79,69,78,-1,64,68,71,-1,71,68,79,-1,58,80,81,-1,58,81,62,-1,62,81,82,-1,62,82,63,-1,58,54,80,-1,80,54,83,-1,54,56,83,-1,83,56,84,-1,56,67,84,-1,84,67,85,-1,65,86,87,-1,65,87,66,-1,66,87,85,-1,66,85,67,-1,65,63,86,-1,86,63,82,-1,
        ]
    }
}
Shape{
    appearance Appearance {
        material  Material 	{
            diffuseColor 0.20784313725490197 0.20784313725490197 0.20784313725490197
            specularColor 0.01568627450980392 0.01568627450980392 0.01568627450980392
            ambientIntensity 0.298
            transparency 0.0
            shininess 0.5
        }
    }
    geometry IndexedFaceSet {
        ccw TRUE
        solid FALSE
        coord DEF co Coordinate {
            point [
                0.1456 -0.248 0.153, 0.1455 -0.248 0.153, 0.1459 -0.248 0.1515, 0.1452 -0.248 0.1516, 0.1461 -0.248 0.1506, 0.1449 -0.248 0.1506, 0.1513 -0.248 0.1363, 0.1398 -0.248 0.1363
            ]
        }
        coordIndex [
            0,1,2,-1,2,1,3,-1,2,3,4,-1,4,3,5,-1,4,5,6,-1,6,5,7,-1,
        ]
    }
}
Shape{
    appearance Appearance {
        material  Material 	{
            diffuseColor 1.0 1.0 1.0
            specularColor 0.5019607843137255 0.5019607843137255 0.5019607843137255
            ambientIntensity 1.0
            transparency 0.0
            shininess 0.5
        }
    }
    geometry IndexedFaceSet {
        ccw TRUE
        solid FALSE
        coord DEF co Coordinate {
            point [
                0.0798 -0.248 0.127, 0.0798 -0.252 0.127, 0.0891 -0.248 0.127, 0.0939 -0.252 0.127, 0.0939 -0.248 0.127, 0.0798 -0.252 0.1385, 0.0798 -0.248 0.1385, 0.0921 -0.252 0.1385, 0.0891 -0.248 0.1385, 0.0921 -0.248 0.1385, 0.0921 -0.252 0.1424, 0.0921 -0.248 0.1424, 0.0798 -0.248 0.1424, 0.0798 -0.252 0.1424, 0.0891 -0.248 0.1424, 0.0798 -0.252 0.1534, 0.0798 -0.248 0.1534, 0.0931 -0.252 0.1534, 0.0891 -0.248 0.1534, 0.0931 -0.248 0.1534, 0.0931 -0.252 0.1574, 0.0931 -0.248 0.1574, 0.0754 -0.248 0.1574, 0.0754 -0.252 0.1574, 0.0891 -0.248 0.1574, 0.0754 -0.252 0.1231, 0.0754 -0.248 0.1231, 0.0939 -0.252 0.1231, 0.0891 -0.248 0.1231, 0.0939 -0.248 0.1231, 0.0278 -0.252 0.127, 0.0414 -0.252 0.127, 0.0278 -0.248 0.127, 0.0414 -0.248 0.127, 0.0278 -0.252 0.1574, 0.0278 -0.248 0.1574, 0.0233 -0.252 0.1574, 0.0233 -0.248 0.1574, 0.0233 -0.252 0.1231, 0.0233 -0.248 0.1231, 0.0414 -0.252 0.1231, 0.0414 -0.248 0.1231
            ]
        }
        coordIndex [
            0,1,2,-1,2,1,3,-1,2,3,4,-1,5,1,6,-1,6,1,0,-1,5,6,7,-1,7,6,8,-1,7,8,9,-1,10,7,11,-1,11,7,9,-1,12,13,14,-1,14,13,10,-1,14,10,11,-1,15,13,16,-1,16,13,12,-1,15,16,17,-1,17,16,18,-1,17,18,19,-1,20,17,21,-1,21,17,19,-1,22,23,24,-1,24,23,20,-1,24,20,21,-1,25,23,26,-1,26,23,22,-1,25,26,27,-1,27,26,28,-1,27,28,29,-1,3,27,4,-1,4,27,29,-1,25,27,3,-1,3,1,25,-1,25,1,5,-1,25,5,23,-1,17,20,15,-1,15,20,23,-1,15,23,13,-1,13,23,5,-1,13,5,10,-1,10,5,7,-1,30,31,32,-1,32,31,33,-1,34,30,35,-1,35,30,32,-1,36,34,37,-1,37,34,35,-1,38,36,39,-1,39,36,37,-1,40,38,41,-1,41,38,39,-1,31,40,33,-1,33,40,41,-1,34,36,30,-1,30,36,38,-1,30,38,31,-1,31,38,40,-1,
        ]
    }
}