#VRML V2.0 utf8
# 3D model generated by easyeda2kicad.py (https://github.com/uPesy/easyeda2kicad.py)

Shape{
    appearance Appearance {
        material  Material 	{
            diffuseColor 0.20784313725490197 0.20784313725490197 0.20784313725490197
            specularColor 0.01568627450980392 0.01568627450980392 0.01568627450980392
            ambientIntensity 0.298
            transparency 0.0
            shininess 0.5
        }
    }
    geometry IndexedFaceSet {
        ccw TRUE
        solid FALSE
        coord DEF co Coordinate {
            point [
                -0.3917 0.3051 0.0534, -0.3917 0.3051 0.0416, -0.3917 0.2998 0.0416, -0.3917 -0.0746 0.0039, -0.3917 -0.3858 0.0039, -0.3917 -0.3858 0.0135, -0.3917 0.2489 0.0039, -0.3917 -0.0746 0.0135, -0.3917 0.2614 0.0039, -0.3917 0.2489 0.0135, -0.3917 0.2552 0.0401, -0.3917 0.2565 0.0437, -0.3917 0.2614 0.0437, -0.3917 0.2699 0.0322, -0.3917 0.2657 0.0322, -0.3917 0.2657 0.036, -0.3917 0.3239 0.043, -0.3917 0.3213 0.0408, -0.3917 0.3123 0.0535, -0.3917 0.3123 0.0399, -0.3917 0.3365 0.0549, -0.3917 0.3345 0.0535, -0.3917 0.3323 0.052, -0.3917 0.3291 0.0484, -0.3917 0.3272 0.0446, -0.3917 0.3267 0.0444, -0.3917 0.3543 0.0547, -0.3917 0.3499 0.0564, -0.3917 0.3858 0.2244, -0.3917 0.3123 0.2244, -0.3917 0.3452 0.057, -0.3917 0.3413 0.0566, -0.3917 0.3858 0.0535, -0.3917 0.3667 0.0488, -0.3917 0.3629 0.0493, -0.3917 0.3858 0.0399, -0.3917 0.377 0.0399, -0.3917 0.3761 0.0418, -0.3917 0.3738 0.0447, -0.3917 0.3562 0.0535, -0.3917 0.3566 0.0533, -0.3917 0.3588 0.0514, -0.3917 0.3618 0.0492, -0.3917 0.3607 0.0491, -0.3917 0.3732 0.0453, -0.3917 0.3702 0.0475, -0.3917 0.3667 0.019, -0.3917 0.3679 0.0194, -0.3917 0.3858 0.0188, -0.3917 0.3714 0.0211, -0.3917 0.3743 0.0236, -0.3917 0.3765 0.0267, -0.3917 0.3778 0.0302, -0.3917 0.3858 0.036, -0.3917 0.3783 0.0339, -0.3917 0.3783 0.0348, -0.3917 0.3781 0.036, -0.3917 0.3776 0.0384, -0.3917 0.3625 0.0139, -0.3917 0.3644 0.0152, -0.3917 0.3858 0.0135, -0.3917 0.3658 0.017, -0.3917 0.3666 0.0188, -0.3917 0.3123 0.0039, -0.3917 0.3123 0.0135, -0.3917 0.3538 0.0135, -0.3917 0.3554 0.0129, -0.3917 0.3577 0.0126, -0.3917 0.3858 0.0039, -0.3917 0.3581 0.0126, -0.3917 0.3603 0.0129, -0.3917 0.3616 0.0135, -0.3917 0.3123 0.0188, -0.3917 0.3488 0.0188, -0.3917 0.3488 0.0187, -0.3917 0.35 0.0166, -0.3917 0.3514 0.015, -0.3917 0.3533 0.0137, -0.3917 0.3182 0.0352, -0.3917 0.3178 0.0321, -0.3917 0.3123 0.036, -0.3917 0.3367 0.0244, -0.3917 0.3361 0.0246, -0.3917 0.3349 0.03, -0.3917 0.3213 0.0231, -0.3917 0.3239 0.0209, -0.3917 0.3506 0.0284, -0.3917 0.3379 0.0351, -0.3917 0.3523 0.0299, -0.3917 0.3543 0.031, -0.3917 0.3373 0.024, -0.3917 0.3194 0.0257, -0.3917 0.3182 0.0287, -0.3917 0.3353 0.0247, -0.3917 0.3352 0.0247, -0.3917 0.3349 0.0247, -0.3917 0.3715 0.0303, -0.3917 0.3704 0.0284, -0.3917 0.3656 0.0274, -0.3917 0.3687 0.0267, -0.3917 0.3666 0.0254, -0.3917 0.3621 0.0306, -0.3917 0.3721 0.036, -0.3917 0.364 0.0292, -0.3917 0.3723 0.0341, -0.3917 0.3722 0.0326, -0.3917 0.36 0.0314, -0.3917 0.3577 0.0316, -0.3917 0.3566 0.0316, -0.3917 0.3348 0.0246, -0.3917 0.3305 0.0246, -0.3917 0.3296 0.0247, -0.3917 0.3383 0.0218, -0.3917 0.3382 0.0222, -0.3917 0.3482 0.023, -0.3917 0.338 0.0229, -0.3917 0.3377 0.0235, -0.3917 0.336 0.0189, -0.3917 0.3367 0.0192, -0.3917 0.3373 0.0196, -0.3917 0.3375 0.0198, -0.3917 0.3379 0.0204, -0.3917 0.3382 0.0211, -0.3917 0.3483 0.0211, -0.3917 0.3482 0.0221, -0.3917 0.3254 0.0272, -0.3917 0.3244 0.0287, -0.3917 0.3238 0.0305, -0.3917 0.3236 0.032, -0.3917 0.3237 0.0329, -0.3917 0.3268 0.0195, -0.3917 0.3299 0.0188, -0.3917 0.3355 0.0188, -0.3917 0.3279 0.0253, -0.3917 0.3263 0.0263, -0.3917 0.3311 0.0394, -0.3917 0.3318 0.0394, -0.3917 0.3249 0.036, -0.3917 0.3295 0.0393, -0.3917 0.3242 0.0347, -0.3917 0.372 0.0364, -0.3917 0.3712 0.0385, -0.3917 0.3251 0.0364, -0.3917 0.3263 0.0377, -0.3917 0.3278 0.0387, -0.3917 0.3339 0.0451, -0.3917 0.336 0.0477, -0.3917 0.3578 0.0422, -0.3917 0.3362 0.0479, -0.3917 0.3389 0.0498, -0.3917 0.3564 0.0452, -0.3917 0.3702 0.0399, -0.3917 0.3585 0.0425, -0.3917 0.3319 0.0399, -0.3917 0.3324 0.0421, -0.3917 0.3606 0.0433, -0.3917 0.3628 0.0436, -0.3917 0.3638 0.0436, -0.3917 0.3542 0.0477, -0.3917 0.3419 0.0509, -0.3917 0.3517 0.0496, -0.3917 0.3451 0.0513, -0.3917 0.3486 0.0508, -0.3917 0.3662 0.043, -0.3917 0.3683 0.0419, -0.3917 0.3699 0.0404, -0.3917 0.3207 0.0399, -0.3917 0.3194 0.0381, -0.3917 0.3185 0.036, -0.3917 0.2627 0.0204, -0.3917 0.2627 0.0189, -0.3917 0.2614 0.0188, -0.3917 0.2614 0.036, -0.3917 0.263 0.0322, -0.3917 0.263 0.0307, -0.3917 0.2682 0.0249, -0.3917 0.2682 0.0204, -0.3917 0.2657 0.0249, -0.3917 0.2657 0.0204, -0.3917 0.2634 0.0249, -0.3917 0.2634 0.0264, -0.3917 0.2682 0.0307, -0.3917 0.2682 0.0264, -0.3917 0.2657 0.0307, -0.3917 0.2657 0.0264, -0.3917 0.2734 0.0284, -0.3917 0.2717 0.0284, -0.3917 0.2782 0.036, -0.3917 0.2782 0.0261, -0.3917 0.2765 0.0213, -0.3917 0.276 0.0212, -0.3917 0.2657 0.0188, -0.3917 0.2657 0.0189, -0.3917 0.2699 0.0189, -0.3917 0.2763 0.0205, -0.3917 0.2762 0.0205, -0.3917 0.2761 0.0208, -0.3917 0.2881 0.0209, -0.3917 0.2898 0.036, -0.3917 0.2898 0.0188, -0.3917 0.2875 0.0205, -0.3917 0.2874 0.0205, -0.3917 0.2874 0.024, -0.3917 0.2877 0.0243, -0.3917 0.2879 0.0247, -0.3917 0.2881 0.0252, -0.3917 0.2881 0.0258, -0.3917 0.2881 0.0264, -0.3917 0.2874 0.0241, -0.3917 0.2867 0.0188, -0.3917 0.2869 0.0188, -0.3917 0.2874 0.0188, -0.3917 0.2874 0.019, -0.3917 0.2881 0.0192, -0.3917 0.2856 0.0187, -0.3917 0.2874 0.0135, -0.3917 0.2846 0.0188, -0.3917 0.2813 0.0135, -0.3917 0.2823 0.0231, -0.3917 0.2819 0.0226, -0.3917 0.2822 0.0266, -0.3917 0.2871 0.0279, -0.3917 0.2867 0.0281, -0.3917 0.2874 0.036, -0.3917 0.2879 0.027, -0.3917 0.2876 0.0274, -0.3917 0.2874 0.0276, -0.3917 0.2818 0.0221, -0.3917 0.2817 0.0215, -0.3917 0.2813 0.0188, -0.3917 0.2818 0.0208, -0.3917 0.282 0.0203, -0.3917 0.2823 0.0198, -0.3917 0.2858 0.0285, -0.3917 0.2844 0.0286, -0.3917 0.2813 0.036, -0.3917 0.2822 0.0282, -0.3917 0.2834 0.0286, -0.3917 0.2828 0.0194, -0.3917 0.2832 0.0192, -0.3917 0.2841 0.0188, -0.3917 0.2846 0.0273, -0.3917 0.2851 0.0272, -0.3917 0.2864 0.026, -0.3917 0.2855 0.0271, -0.3917 0.2859 0.0269, -0.3917 0.2864 0.0258, -0.3917 0.2863 0.0255, -0.3917 0.2862 0.0253, -0.3917 0.286 0.0251, -0.3917 0.2854 0.0247, -0.3917 0.2835 0.0272, -0.3917 0.2844 0.0243, -0.3917 0.2825 0.0268, -0.3917 0.2838 0.024, -0.3917 0.2827 0.0234, -0.3917 0.2861 0.0267, -0.3917 0.2863 0.0265, -0.3917 0.2864 0.0263, -0.3917 0.2864 0.0201, -0.3917 0.2856 0.0231, -0.3917 0.2866 0.0235, -0.3917 0.2854 0.02, -0.3917 0.2853 0.02, -0.3917 0.2845 0.0226, -0.3917 0.2845 0.0201, -0.3917 0.2834 0.0213, -0.3917 0.2834 0.0215, -0.3917 0.284 0.0203, -0.3917 0.2839 0.0204, -0.3917 0.2837 0.0205, -0.3917 0.2835 0.0208, -0.3917 0.2835 0.021, -0.3917 0.2835 0.0218, -0.3917 0.2836 0.022, -0.3917 0.2838 0.0222, -0.3917 0.2584 0.0534, -0.3917 0.2533 0.0401, -0.3917 0.2489 0.0399, -0.3917 0.2614 0.0399, -0.3917 0.2621 0.0437, -0.3917 0.2634 0.0401, -0.3917 0.2657 0.0399, -0.3917 0.2653 0.0401, -0.3917 0.2657 0.0535, -0.3917 0.2614 0.0502, -0.3917 0.2614 0.0535, -0.3917 0.2797 0.0519, -0.3917 0.2782 0.0535, -0.3917 0.2797 0.0534, -0.3917 0.2813 0.0535, -0.3917 0.2813 0.0534, -0.3917 0.2801 0.0476, -0.3917 0.2801 0.0461, -0.3917 0.2782 0.0399, -0.3917 0.2849 0.0519, -0.3917 0.2849 0.0476, -0.3917 0.2813 0.0519, -0.3917 0.2813 0.0476, -0.3917 0.2866 0.0401, -0.3917 0.2874 0.0399, -0.3917 0.2813 0.0399, -0.3917 0.2849 0.0461, -0.3917 0.2849 0.0416, -0.3917 0.2813 0.0461, -0.3917 0.2813 0.0416, -0.3917 0.2794 0.0416, -0.3917 0.2794 0.0401, -0.3917 0.2813 0.0401, -0.3917 0.2866 0.0534, -0.3917 0.2874 0.0535, -0.3917 0.2973 0.0482, -0.3917 0.2898 0.042, -0.3917 0.2969 0.0494, -0.3917 0.2962 0.0504, -0.3917 0.2974 0.0466, -0.3917 0.2974 0.0465, -0.3917 0.2905 0.0417, -0.3917 0.292 0.0414, -0.3917 0.2893 0.0513, -0.3917 0.2893 0.0423, -0.3917 0.2895 0.0514, -0.3917 0.2898 0.0515, -0.3917 0.2909 0.0519, -0.3917 0.2972 0.0448, -0.3917 0.2968 0.0437, -0.3917 0.2961 0.0428, -0.3917 0.2924 0.0521, -0.3917 0.293 0.052, -0.3917 0.2941 0.0518, -0.3917 0.2959 0.0425, -0.3917 0.295 0.0419, -0.3917 0.2952 0.0513, -0.3917 0.296 0.0506, -0.3917 0.2941 0.0415, -0.3917 0.2927 0.0414, -0.3917 0.2911 0.0535, -0.3917 0.2906 0.0535, -0.3917 0.2898 0.0535, -0.3917 0.2898 0.0533, -0.3917 0.2893 0.0531, -0.3917 0.2923 0.0536, -0.3917 0.2898 0.2244, -0.3917 0.2924 0.0536, -0.3917 0.2987 0.2244, -0.3917 0.2935 0.0535, -0.3917 0.2987 0.0535, -0.3917 0.2955 0.053, -0.3917 0.2941 0.0535, -0.3917 0.2982 0.0505, -0.3917 0.2973 0.0517, -0.3917 0.2969 0.0521, -0.3917 0.2995 0.0535, -0.3917 0.2989 0.049, -0.3917 0.2987 0.0496, -0.3917 0.2987 0.0434, -0.3917 0.299 0.0443, -0.3917 0.2995 0.0399, -0.3917 0.2993 0.0465, -0.3917 0.2992 0.0473, -0.3917 0.2952 0.0402, -0.3917 0.2965 0.0408, -0.3917 0.2987 0.0399, -0.3917 0.2975 0.0417, -0.3917 0.2977 0.0418, -0.3917 0.2985 0.0429, -0.3917 0.2941 0.0399, -0.3917 0.2987 0.036, -0.3917 0.2938 0.0399, -0.3917 0.293 0.0398, -0.3917 0.2918 0.0399, -0.3917 0.2893 0.0406, -0.3917 0.2895 0.0405, -0.3917 0.2898 0.0399, -0.3917 0.2898 0.0404, -0.3917 0.2909 0.04, -0.3917 0.2974 0.0234, -0.3917 0.2971 0.0261, -0.3917 0.2977 0.0229, -0.3917 0.298 0.0224, -0.3917 0.2911 0.0276, -0.3917 0.2908 0.0271, -0.3917 0.2934 0.0272, -0.3917 0.294 0.0273, -0.3917 0.2949 0.0245, -0.3917 0.2972 0.0194, -0.3917 0.2974 0.0196, -0.3917 0.2987 0.0188, -0.3917 0.2978 0.0201, -0.3917 0.298 0.0207, -0.3917 0.2969 0.0239, -0.3917 0.2962 0.0242, -0.3917 0.296 0.0269, -0.3917 0.2949 0.0272, -0.3917 0.2929 0.0285, -0.3917 0.2921 0.0283, -0.3917 0.2916 0.028, -0.3917 0.2921 0.0204, -0.3917 0.2921 0.0204, -0.3917 0.2921 0.0189, -0.3917 0.2924 0.02, -0.3917 0.2929 0.0194, -0.3917 0.2905 0.0263, -0.3917 0.2904 0.025, -0.3917 0.2904 0.0189, -0.3917 0.2981 0.0214, -0.3917 0.2981 0.0216, -0.3917 0.2971 0.0277, -0.3917 0.2921 0.0249, -0.3917 0.2921 0.0257, -0.3917 0.2923 0.0263, -0.3917 0.2925 0.0266, -0.3917 0.2967 0.028, -0.3917 0.2954 0.0285, -0.3917 0.2938 0.0286, -0.3917 0.2928 0.0269, -0.3917 0.2931 0.0271, -0.3917 0.2941 0.0188, -0.3917 0.2942 0.0188, -0.3917 0.2898 0.0135, -0.3917 0.2987 0.0135, -0.3917 0.295 0.0187, -0.3917 0.296 0.0188, -0.3917 0.2967 0.019, -0.3917 0.279 0.0284, -0.3917 0.2808 0.0284, -0.3917 0.2771 0.0188, -0.3917 0.2771 0.0189, -0.3917 0.2782 0.0216, -0.3917 0.2782 0.0188, -0.3917 0.2782 0.0166, -0.3917 0.2778 0.0172, -0.3917 0.2805 0.016, -0.3917 0.2805 0.0145, -0.3917 0.2801 0.0159, -0.3917 0.2795 0.0158, -0.3917 0.2791 0.0159, -0.3917 0.2782 0.0147, -0.3917 0.2787 0.0145, -0.3917 0.2782 0.0135, -0.3917 0.2794 0.0144, -0.3917 0.2798 0.0144, -0.3917 0.2788 0.016, -0.3917 0.2785 0.0162, -0.3917 0.276 0.0174, -0.3917 0.2768 0.016, -0.3917 0.2657 0.0135, -0.3917 0.2755 0.0188, -0.3917 0.2774 0.0152, -0.3917 0.2775 0.0151, -0.3917 0.2781 0.0147, -0.3917 0.2614 0.0135, -0.3917 0.2657 0.0039, -0.3917 0.2782 0.0039, -0.3917 0.2813 0.0039, -0.3917 0.2874 0.0039, -0.3917 0.2898 0.0039, -0.3917 0.2987 0.0039, -0.3917 0.2935 0.019, -0.3917 0.3068 0.0322, -0.3917 0.3068 0.0189, -0.3917 0.2995 0.0188, -0.3917 0.2995 0.0135, -0.3917 0.2995 0.0039, -0.3917 0.3 0.0322, -0.3917 0.2995 0.036, -0.3917 0.3 0.0307, -0.3917 0.2997 0.0204, -0.3917 0.2997 0.0189, -0.3917 0.3051 0.0249, -0.3917 0.3051 0.0204, -0.3917 0.3003 0.0249, -0.3917 0.3003 0.0264, -0.3917 0.3051 0.0264, -0.3917 0.3051 0.0307, -0.3917 0.2602 0.0189, -0.3917 0.2497 0.0232, -0.3917 0.2504 0.0219, -0.3917 0.2489 0.0188, -0.3917 0.2527 0.0197, -0.3917 0.2543 0.0192, -0.3917 0.2565 0.0189, -0.3917 0.2602 0.0322, -0.3917 0.2564 0.0322, -0.3917 0.2489 0.036, -0.3917 0.2542 0.032, -0.3917 0.2526 0.0313, -0.3917 0.2499 0.0287, -0.3917 0.2495 0.0273, -0.3917 0.2493 0.0257, -0.3917 0.2494 0.0248, -0.3917 0.2513 0.0208, -0.3917 0.2515 0.0206, -0.3917 0.2513 0.0305, -0.3917 0.2507 0.0299, -0.3917 0.2417 0.0322, -0.3917 -0.0746 0.036, -0.3917 0.2366 0.0189, -0.3917 -0.0746 0.0188, -0.3917 0.2398 0.0225, -0.3917 0.2454 0.0225, -0.3917 0.2385 0.0189, -0.3917 0.2467 0.0189, -0.3917 0.2486 0.0189, -0.3917 0.2435 0.0322, -0.3917 -0.0746 0.0399, -0.3917 0.3068 0.0401, -0.3917 0.3068 0.0534, -0.3917 0.2998 0.0401, -0.3917 0.2732 0.0401, -0.3917 0.2769 0.0401, -0.3917 0.2695 0.0409, -0.3917 0.271 0.0403, -0.3917 0.2664 0.0444, -0.3917 0.2671 0.043, -0.3917 0.2769 0.0534, -0.3917 0.2731 0.0534, -0.3917 0.2709 0.0531, -0.3917 0.2693 0.0525, -0.3917 0.2667 0.0498, -0.3917 0.2662 0.0485, -0.3917 0.266 0.0469, -0.3917 0.2661 0.046, -0.3917 0.268 0.0419, -0.3917 0.2682 0.0418, -0.3917 0.268 0.0516, -0.3917 0.2674 0.051, -0.3917 -0.0746 0.0535, -0.3917 0.2489 0.0535, -0.3917 0.2602 0.0534, -0.3917 -0.3858 0.0188, -0.3917 -0.3858 0.036, -0.3917 -0.3858 0.0399, -0.3917 -0.3858 0.0535, -0.3917 0.2995 0.2244, -0.3917 -0.3858 0.2244, -0.3917 -0.0746 0.2244, -0.3917 0.2489 0.2244, -0.3917 0.2614 0.2244, -0.3917 0.2657 0.2244, -0.3917 0.2782 0.2244, -0.3917 0.2813 0.2244, -0.3917 0.2874 0.2244, 0.3957 -0.3858 0.0039, 0.3957 0.3858 0.0039, 0.3957 -0.3858 0.2244, 0.3957 0.3858 0.2244, 0.189 0.3937 0.063, 0.189 0.3937 0.0039, 0.0709 0.3937 0.0039, 0.3878 0.3937 0.2244, 0.3878 0.3937 0.0039, 0.3268 0.3937 0.0039, -0.0669 0.3937 0.0039, -0.185 0.3937 0.0039, -0.0669 0.3937 0.063, -0.185 0.3937 0.063, 0.0709 0.3937 0.063, 0.3268 0.3937 0.063, -0.3228 0.3937 0.0039, -0.3839 0.3937 0.0039, -0.3228 0.3937 0.063, -0.3839 0.3937 0.2244, -0.3839 -0.3937 0.2244, -0.3839 -0.3937 0.0039, -0.3228 -0.3937 0.0039, -0.185 -0.3937 0.0039, -0.0669 -0.3937 0.0039, -0.185 -0.3937 0.063, -0.0669 -0.3937 0.063, -0.3228 -0.3937 0.063, 0.3878 -0.3937 0.2244, 0.0709 -0.3937 0.063, 0.3268 -0.3937 0.0039, 0.3878 -0.3937 0.0039, 0.3268 -0.3937 0.063, 0.189 -0.3937 0.063, 0.189 -0.3937 0.0039, 0.0709 -0.3937 0.0039, 0.3878 -0.3858 0.2323, -0.2779 -0.3266 0.2323, -0.2794 -0.3381 0.2323, -0.3839 -0.3858 0.2323, -0.3653 -0.3381 0.2323, -0.3668 -0.3266 0.2323, -0.2838 -0.3488 0.2323, -0.2909 -0.358 0.2323, -0.3001 -0.3651 0.2323, -0.3839 0.3858 0.2323, -0.3653 -0.3151 0.2323, -0.3609 -0.3043 0.2323, -0.3538 -0.2951 0.2323, -0.3446 -0.2881 0.2323, -0.3339 -0.2836 0.2323, -0.3108 -0.3696 0.2323, -0.3223 -0.3711 0.2323, -0.3339 -0.3696 0.2323, -0.3446 -0.3651 0.2323, -0.3538 -0.358 0.2323, -0.3609 -0.3488 0.2323, -0.3001 -0.2881 0.2323, 0.3878 0.3858 0.2323, -0.3108 -0.2836 0.2323, -0.3223 -0.2821 0.2323, -0.2909 -0.2951 0.2323, -0.2838 -0.3043 0.2323, -0.2794 -0.3151 0.2323, -0.0669 -0.2598 0.0039, -0.185 -0.2598 0.0039, -0.3228 -0.2598 0.0039, -0.2835 -0.1791 0.0039, 0.3465 -0.1791 0.0039, 0.3465 0.1791 0.0039, -0.3425 0.1791 0.0039, -0.185 0.2598 0.0039, -0.3228 0.2598 0.0039, 0.189 -0.2598 0.0039, 0.0709 -0.2598 0.0039, -0.2855 -0.1638 0.0039, 0.3268 -0.2598 0.0039, -0.3915 0.3879 0.0039, -0.3425 -0.1201 0.0039, -0.3915 -0.3876 0.0039, 0.3954 -0.3879 0.0039, 0.3898 -0.3934 0.0039, -0.3907 0.3898 0.0039, -0.3894 0.3914 0.0039, 0.0709 0.2598 0.0039, -0.3878 0.3926 0.0039, -0.3859 0.3934 0.0039, 0.189 0.2598 0.0039, 0.3268 0.2598 0.0039, -0.313 -0.128 0.0039, -0.3272 -0.1221 0.0039, -0.3008 -0.1374 0.0039, -0.2914 -0.1496 0.0039, 0.3946 -0.3898 0.0039, 0.3934 -0.3914 0.0039, 0.3917 -0.3926 0.0039, -0.0669 0.2598 0.0039, -0.3873 -0.3929 0.0039, -0.3888 -0.392 0.0039, 0.3898 0.3934 0.0039, -0.3856 -0.3935 0.0039, -0.39 -0.3907 0.0039, -0.391 -0.3892 0.0039, 0.3917 0.3926 0.0039, 0.3934 0.3914 0.0039, 0.3946 0.3898 0.0039, 0.3954 0.3879 0.0039
            ]
        }
        coordIndex [
            0,1,2,-1,3,4,5,-1,6,3,7,-1,8,6,9,-1,10,11,12,-1,13,14,15,-1,16,17,18,-1,18,17,19,-1,20,21,18,-1,18,21,22,-1,18,22,23,-1,23,24,18,-1,18,24,25,-1,18,25,16,-1,26,27,28,-1,28,27,29,-1,29,27,30,-1,29,30,31,-1,32,33,34,-1,35,36,32,-1,32,36,37,-1,32,37,38,-1,26,28,39,-1,39,28,32,-1,39,32,40,-1,40,32,34,-1,40,34,41,-1,41,34,42,-1,41,42,43,-1,38,44,32,-1,32,44,45,-1,32,45,33,-1,46,47,48,-1,48,47,49,-1,48,49,50,-1,50,51,48,-1,48,51,52,-1,48,52,53,-1,53,52,54,-1,54,55,53,-1,53,55,56,-1,53,56,35,-1,35,56,57,-1,35,57,36,-1,58,59,60,-1,60,59,61,-1,60,61,48,-1,48,61,62,-1,48,62,46,-1,63,64,65,-1,65,66,63,-1,63,66,67,-1,63,67,68,-1,67,69,68,-1,68,69,70,-1,68,70,60,-1,60,70,71,-1,60,71,58,-1,72,73,64,-1,64,73,74,-1,64,74,75,-1,75,76,64,-1,64,76,77,-1,64,77,65,-1,78,79,80,-1,81,82,83,-1,84,85,72,-1,86,87,88,-1,88,87,89,-1,81,83,90,-1,84,72,91,-1,80,79,72,-1,72,79,92,-1,72,92,91,-1,82,93,83,-1,83,93,94,-1,83,94,95,-1,96,97,98,-1,98,97,99,-1,98,99,100,-1,101,102,103,-1,103,102,104,-1,103,104,98,-1,98,104,105,-1,98,105,96,-1,101,106,102,-1,102,106,107,-1,102,107,87,-1,87,107,108,-1,87,108,89,-1,95,109,83,-1,83,109,110,-1,83,110,111,-1,112,113,114,-1,114,113,115,-1,114,115,83,-1,83,115,116,-1,83,116,90,-1,117,118,73,-1,73,118,119,-1,73,119,120,-1,120,121,73,-1,73,121,122,-1,73,122,123,-1,123,122,112,-1,123,112,124,-1,124,112,114,-1,125,126,83,-1,83,126,127,-1,83,127,87,-1,87,127,128,-1,87,128,129,-1,85,130,72,-1,72,130,131,-1,72,131,73,-1,73,131,132,-1,73,132,117,-1,111,133,83,-1,83,133,134,-1,83,134,125,-1,135,136,137,-1,135,137,138,-1,129,139,87,-1,87,139,137,-1,87,137,102,-1,102,137,136,-1,102,136,140,-1,140,136,141,-1,142,143,137,-1,137,143,144,-1,137,144,138,-1,145,146,147,-1,146,148,147,-1,147,148,149,-1,147,149,150,-1,151,147,152,-1,141,136,151,-1,151,136,153,-1,151,153,147,-1,147,153,154,-1,147,154,145,-1,152,155,151,-1,151,155,156,-1,151,156,157,-1,150,149,158,-1,158,149,159,-1,158,159,160,-1,160,159,161,-1,160,161,162,-1,163,164,157,-1,157,164,165,-1,157,165,151,-1,17,166,19,-1,19,166,167,-1,19,167,80,-1,80,167,168,-1,80,168,78,-1,169,170,171,-1,15,14,172,-1,172,14,173,-1,172,173,174,-1,175,176,177,-1,177,176,178,-1,177,178,179,-1,179,178,169,-1,179,169,180,-1,181,182,183,-1,183,182,184,-1,183,184,174,-1,185,186,187,-1,188,189,190,-1,171,170,191,-1,191,170,192,-1,191,192,193,-1,194,195,189,-1,189,195,196,-1,189,196,190,-1,197,198,199,-1,200,201,202,-1,203,204,197,-1,204,205,197,-1,197,205,206,-1,197,206,198,-1,198,206,207,-1,200,202,197,-1,197,202,208,-1,197,208,203,-1,209,210,211,-1,211,210,212,-1,211,212,199,-1,199,212,213,-1,199,213,197,-1,214,215,216,-1,216,215,217,-1,218,219,220,-1,221,222,223,-1,207,224,198,-1,198,224,225,-1,198,225,223,-1,223,225,226,-1,223,226,221,-1,227,228,229,-1,228,230,229,-1,229,230,231,-1,229,231,232,-1,222,233,223,-1,223,233,234,-1,223,234,235,-1,219,227,220,-1,220,227,229,-1,220,229,236,-1,236,229,235,-1,236,235,237,-1,237,235,234,-1,232,238,229,-1,229,238,239,-1,229,239,240,-1,241,242,243,-1,243,242,244,-1,243,244,245,-1,243,246,241,-1,241,246,247,-1,241,247,248,-1,248,249,241,-1,241,249,250,-1,241,250,251,-1,251,250,252,-1,251,252,253,-1,253,252,254,-1,253,254,220,-1,220,254,255,-1,220,255,218,-1,256,257,245,-1,245,257,258,-1,245,258,243,-1,259,260,201,-1,201,260,261,-1,201,261,202,-1,259,262,260,-1,260,262,263,-1,260,263,264,-1,264,263,265,-1,264,266,267,-1,265,268,264,-1,264,268,269,-1,264,269,270,-1,270,271,264,-1,264,271,272,-1,264,272,266,-1,267,273,264,-1,264,273,274,-1,264,274,275,-1,276,277,278,-1,278,277,10,-1,278,10,279,-1,279,10,12,-1,12,280,279,-1,279,280,281,-1,279,281,282,-1,282,281,283,-1,282,283,284,-1,284,283,285,-1,284,285,286,-1,287,288,289,-1,289,288,290,-1,289,290,291,-1,292,293,294,-1,295,296,297,-1,297,296,298,-1,297,298,287,-1,299,300,301,-1,302,303,304,-1,304,303,305,-1,304,305,293,-1,293,305,306,-1,293,306,294,-1,294,306,307,-1,294,307,301,-1,301,307,308,-1,301,308,299,-1,291,290,309,-1,309,290,310,-1,309,310,299,-1,311,312,313,-1,313,312,314,-1,311,315,312,-1,312,315,316,-1,312,316,317,-1,317,316,318,-1,299,310,300,-1,300,310,319,-1,300,319,320,-1,320,319,321,-1,320,321,312,-1,312,321,322,-1,312,322,323,-1,324,325,326,-1,323,327,312,-1,312,327,328,-1,312,328,329,-1,324,326,316,-1,316,326,330,-1,316,330,331,-1,329,332,312,-1,312,332,333,-1,312,333,314,-1,331,334,316,-1,316,334,335,-1,316,335,318,-1,336,337,338,-1,338,337,339,-1,338,339,310,-1,310,339,340,-1,310,340,319,-1,341,342,343,-1,343,342,344,-1,343,344,345,-1,346,347,348,-1,349,350,346,-1,346,350,351,-1,346,351,347,-1,352,353,346,-1,346,353,354,-1,346,354,349,-1,355,356,357,-1,357,356,358,-1,357,358,352,-1,352,358,359,-1,352,359,353,-1,360,361,362,-1,362,361,363,-1,363,364,362,-1,362,364,365,-1,362,365,355,-1,360,362,366,-1,366,362,367,-1,366,367,368,-1,368,367,369,-1,369,367,198,-1,369,198,370,-1,320,371,300,-1,300,371,372,-1,300,372,373,-1,373,372,374,-1,373,374,375,-1,376,377,378,-1,378,377,379,-1,198,380,381,-1,382,383,384,-1,385,386,387,-1,387,386,388,-1,387,388,389,-1,376,390,377,-1,377,390,391,-1,377,391,392,-1,392,391,384,-1,392,384,393,-1,393,384,383,-1,394,395,198,-1,198,395,396,-1,198,396,380,-1,397,398,399,-1,399,398,400,-1,399,400,401,-1,381,402,198,-1,198,402,403,-1,198,403,199,-1,199,403,404,-1,199,404,399,-1,389,405,387,-1,387,405,406,-1,387,406,367,-1,367,406,379,-1,367,379,407,-1,407,379,377,-1,408,409,384,-1,384,409,410,-1,384,410,411,-1,407,412,367,-1,367,412,413,-1,367,413,198,-1,198,413,414,-1,198,414,394,-1,411,415,384,-1,384,415,416,-1,384,416,382,-1,417,418,419,-1,419,418,420,-1,418,421,420,-1,420,421,422,-1,420,422,387,-1,387,422,423,-1,387,423,385,-1,190,185,188,-1,188,185,187,-1,188,187,424,-1,424,187,425,-1,426,427,428,-1,429,430,431,-1,429,229,432,-1,240,216,229,-1,229,216,217,-1,229,217,432,-1,432,217,433,-1,432,434,429,-1,429,434,435,-1,429,435,436,-1,437,438,439,-1,439,438,440,-1,439,440,217,-1,217,440,441,-1,217,441,433,-1,436,442,429,-1,429,442,443,-1,429,443,430,-1,444,445,446,-1,444,446,447,-1,445,448,446,-1,446,448,449,-1,446,449,439,-1,439,449,450,-1,439,450,437,-1,8,451,452,-1,452,451,446,-1,452,446,453,-1,453,446,439,-1,453,439,454,-1,454,439,217,-1,454,217,455,-1,455,217,215,-1,455,215,456,-1,456,215,419,-1,456,419,457,-1,457,419,420,-1,214,209,215,-1,215,209,211,-1,215,211,419,-1,419,211,199,-1,419,199,417,-1,417,199,399,-1,417,399,458,-1,458,399,401,-1,451,171,446,-1,446,171,191,-1,446,191,447,-1,447,191,193,-1,447,193,186,-1,186,193,13,-1,186,13,187,-1,187,13,15,-1,459,80,460,-1,460,80,72,-1,460,72,461,-1,461,72,64,-1,461,64,462,-1,462,64,63,-1,462,63,463,-1,459,464,465,-1,464,466,465,-1,465,466,467,-1,465,467,461,-1,461,467,468,-1,461,468,460,-1,469,470,471,-1,471,470,467,-1,471,467,472,-1,472,467,466,-1,472,466,473,-1,473,466,474,-1,184,180,174,-1,174,180,169,-1,174,169,172,-1,172,169,171,-1,172,171,475,-1,476,477,478,-1,479,480,478,-1,478,480,481,-1,8,9,451,-1,451,9,478,-1,451,478,171,-1,171,478,481,-1,171,481,475,-1,475,482,172,-1,172,482,483,-1,172,483,484,-1,484,483,485,-1,484,485,486,-1,487,488,484,-1,484,488,489,-1,484,489,478,-1,478,489,490,-1,478,490,476,-1,477,491,478,-1,478,491,492,-1,478,492,479,-1,486,493,484,-1,484,493,494,-1,484,494,487,-1,484,495,496,-1,496,495,497,-1,496,497,498,-1,499,500,501,-1,501,500,502,-1,501,502,478,-1,478,502,503,-1,478,503,484,-1,484,503,504,-1,484,504,495,-1,6,7,9,-1,9,7,498,-1,9,498,478,-1,478,498,497,-1,478,497,501,-1,355,357,362,-1,362,357,465,-1,362,465,367,-1,367,465,461,-1,367,461,387,-1,387,461,462,-1,387,462,420,-1,420,462,463,-1,420,463,457,-1,375,370,373,-1,373,370,198,-1,373,198,300,-1,300,198,223,-1,300,223,301,-1,301,223,235,-1,301,235,294,-1,496,505,484,-1,484,505,278,-1,484,278,172,-1,172,278,279,-1,172,279,15,-1,15,279,282,-1,15,282,187,-1,459,465,80,-1,80,465,357,-1,80,357,19,-1,19,357,506,-1,19,506,18,-1,506,507,18,-1,18,507,0,-1,18,0,352,-1,352,0,2,-1,352,2,357,-1,357,2,508,-1,357,508,506,-1,509,510,294,-1,511,512,282,-1,298,292,287,-1,287,292,294,-1,287,294,288,-1,288,294,510,-1,513,514,282,-1,512,509,282,-1,282,509,294,-1,282,294,187,-1,187,294,235,-1,187,235,425,-1,425,235,229,-1,425,229,428,-1,428,229,429,-1,428,429,426,-1,426,429,431,-1,510,515,288,-1,288,515,516,-1,288,516,284,-1,284,516,517,-1,284,517,518,-1,519,520,284,-1,284,520,521,-1,284,521,282,-1,282,521,522,-1,282,522,513,-1,514,523,282,-1,282,523,524,-1,282,524,511,-1,518,525,284,-1,284,525,526,-1,284,526,519,-1,505,527,278,-1,278,527,528,-1,278,528,276,-1,276,528,286,-1,276,286,529,-1,529,286,285,-1,3,5,7,-1,7,5,530,-1,7,530,498,-1,498,530,531,-1,498,531,496,-1,496,531,532,-1,496,532,505,-1,505,532,533,-1,505,533,527,-1,348,345,346,-1,346,345,344,-1,346,344,352,-1,352,344,534,-1,352,534,18,-1,18,534,29,-1,18,29,20,-1,20,29,31,-1,533,535,527,-1,527,535,536,-1,527,536,528,-1,528,536,537,-1,528,537,286,-1,286,537,538,-1,286,538,284,-1,284,538,539,-1,284,539,288,-1,288,539,540,-1,288,540,290,-1,290,540,541,-1,290,541,310,-1,310,541,542,-1,310,542,338,-1,338,542,342,-1,338,342,336,-1,336,342,341,-1,543,544,545,-1,545,544,546,-1,547,548,549,-1,550,551,552,-1,553,554,555,-1,555,554,556,-1,549,557,547,-1,547,557,550,-1,547,550,558,-1,558,550,552,-1,559,560,561,-1,561,560,562,-1,561,562,556,-1,556,562,550,-1,556,550,555,-1,555,550,557,-1,563,564,565,-1,566,567,568,-1,568,567,569,-1,565,570,563,-1,563,570,568,-1,563,568,571,-1,571,568,569,-1,571,569,572,-1,573,574,575,-1,575,574,571,-1,575,571,576,-1,576,571,572,-1,576,572,577,-1,577,572,578,-1,579,580,581,-1,582,583,584,-1,581,585,579,-1,579,585,586,-1,579,586,587,-1,582,584,588,-1,588,584,589,-1,588,589,590,-1,590,591,588,-1,588,591,592,-1,588,592,593,-1,587,594,579,-1,579,594,595,-1,579,595,582,-1,582,595,596,-1,582,596,597,-1,597,598,582,-1,582,598,599,-1,582,599,583,-1,600,601,602,-1,602,601,588,-1,602,588,603,-1,603,588,593,-1,600,604,601,-1,601,604,605,-1,601,605,579,-1,579,605,606,-1,579,606,580,-1,607,567,566,-1,608,609,610,-1,543,611,612,-1,612,613,614,-1,614,613,615,-1,577,578,616,-1,616,578,617,-1,610,609,618,-1,611,574,619,-1,619,574,573,-1,68,620,560,-1,566,608,607,-1,607,608,610,-1,607,610,617,-1,617,610,611,-1,617,611,616,-1,616,611,619,-1,559,615,560,-1,560,615,613,-1,560,613,68,-1,68,613,621,-1,68,621,4,-1,4,621,622,-1,609,565,564,-1,611,543,574,-1,574,543,623,-1,574,623,624,-1,620,625,626,-1,627,549,548,-1,626,628,620,-1,620,628,629,-1,620,629,560,-1,630,631,612,-1,632,609,633,-1,633,609,621,-1,632,634,609,-1,609,634,635,-1,609,635,618,-1,636,637,623,-1,623,637,638,-1,623,638,624,-1,548,630,627,-1,627,630,612,-1,627,612,639,-1,639,612,614,-1,639,614,553,-1,553,614,554,-1,640,641,621,-1,642,612,551,-1,551,612,631,-1,551,631,552,-1,609,564,621,-1,621,564,643,-1,621,643,640,-1,641,644,621,-1,621,644,645,-1,621,645,622,-1,642,646,647,-1,647,648,642,-1,642,648,649,-1,642,649,612,-1,612,649,544,-1,612,544,543,-1,
        ]
    }
}
Shape{
    appearance Appearance {
        material  Material 	{
            diffuseColor 1.0 1.0 1.0
            specularColor 0.5019607843137255 0.5019607843137255 0.5019607843137255
            ambientIntensity 1.0
            transparency 0.0
            shininess 0.5
        }
    }
    geometry IndexedFaceSet {
        ccw TRUE
        solid FALSE
        coord DEF co Coordinate {
            point [
                -0.185 0.3976 0.063, -0.3228 0.3976 0.063, -0.185 0.3937 0.063, -0.3228 0.3937 0.063, -0.3228 0.3937 0.0039, -0.3228 0.3976 0.0, -0.3228 0.2598 0.0039, -0.3228 0.2598 0.0, -0.185 0.2598 0.0, -0.185 0.2598 0.0039, -0.185 0.3937 0.0039, -0.185 0.3976 0.0, 0.0709 0.3937 0.063, 0.0709 0.3976 0.063, -0.0669 0.3937 0.063, -0.0669 0.3976 0.063, -0.0669 0.3937 0.0039, -0.0669 0.3976 0.0, -0.0669 0.2598 0.0039, -0.0669 0.2598 0.0, 0.0709 0.2598 0.0, 0.0709 0.2598 0.0039, 0.0709 0.3937 0.0039, 0.0709 0.3976 0.0, 0.3268 0.3937 0.063, 0.3268 0.3976 0.063, 0.189 0.3937 0.063, 0.189 0.3976 0.063, 0.189 0.3937 0.0039, 0.189 0.3976 0.0, 0.189 0.2598 0.0039, 0.189 0.2598 0.0, 0.3268 0.2598 0.0, 0.3268 0.2598 0.0039, 0.3268 0.3937 0.0039, 0.3268 0.3976 0.0, 0.189 -0.3937 0.063, 0.189 -0.3976 0.063, 0.3268 -0.3937 0.063, 0.3268 -0.3976 0.063, 0.189 -0.2598 0.0039, 0.189 -0.2598 0.0, 0.189 -0.3937 0.0039, 0.189 -0.3976 0.0, 0.3268 -0.3937 0.0039, 0.3268 -0.3976 0.0, 0.3268 -0.2598 0.0039, 0.3268 -0.2598 0.0, -0.0669 -0.3937 0.063, -0.0669 -0.3976 0.063, 0.0709 -0.3937 0.063, 0.0709 -0.3976 0.063, -0.0669 -0.2598 0.0039, -0.0669 -0.2598 0.0, -0.0669 -0.3937 0.0039, -0.0669 -0.3976 0.0, 0.0709 -0.3937 0.0039, 0.0709 -0.3976 0.0, 0.0709 -0.2598 0.0039, 0.0709 -0.2598 0.0, -0.3228 -0.3976 0.063, -0.185 -0.3976 0.063, -0.3228 -0.3937 0.063, -0.185 -0.3937 0.063, -0.185 -0.3937 0.0039, -0.185 -0.3976 0.0, -0.185 -0.2598 0.0039, -0.185 -0.2598 0.0, -0.3228 -0.2598 0.0, -0.3228 -0.2598 0.0039, -0.3228 -0.3937 0.0039, -0.3228 -0.3976 0.0, -0.3425 0.1791 0.0, -0.3425 -0.1201 0.0, -0.3425 0.1791 0.0039, -0.3425 -0.1201 0.0039, -0.3272 -0.1221 0.0039, -0.3272 -0.1221 0.0, -0.313 -0.128 0.0039, -0.313 -0.128 0.0, -0.3008 -0.1374 0.0039, -0.3008 -0.1374 0.0, -0.2914 -0.1496 0.0039, -0.2914 -0.1496 0.0, -0.2855 -0.1638 0.0039, -0.2855 -0.1638 0.0, -0.2835 -0.1791 0.0039, -0.2835 -0.1791 0.0, 0.3465 -0.1791 0.0, 0.3465 -0.1791 0.0039, 0.3465 0.1791 0.0, 0.3465 0.1791 0.0039
            ]
        }
        coordIndex [
            0,1,2,-1,2,1,3,-1,3,1,4,-1,4,1,5,-1,4,5,6,-1,6,5,7,-1,7,8,6,-1,6,8,9,-1,9,8,10,-1,10,8,11,-1,10,11,2,-1,2,11,0,-1,5,1,11,-1,11,1,0,-1,11,8,5,-1,5,8,7,-1,12,13,14,-1,14,13,15,-1,14,15,16,-1,16,15,17,-1,16,17,18,-1,18,17,19,-1,19,20,18,-1,18,20,21,-1,21,20,22,-1,22,20,23,-1,22,23,12,-1,12,23,13,-1,17,15,23,-1,23,15,13,-1,20,19,23,-1,23,19,17,-1,24,25,26,-1,26,25,27,-1,26,27,28,-1,28,27,29,-1,28,29,30,-1,30,29,31,-1,31,32,30,-1,30,32,33,-1,33,32,34,-1,34,32,35,-1,34,35,24,-1,24,35,25,-1,29,27,35,-1,35,27,25,-1,32,31,35,-1,35,31,29,-1,36,37,38,-1,38,37,39,-1,40,41,42,-1,42,41,43,-1,42,43,36,-1,36,43,37,-1,38,39,44,-1,44,39,45,-1,44,45,46,-1,46,45,47,-1,47,41,46,-1,46,41,40,-1,45,39,43,-1,43,39,37,-1,47,45,41,-1,41,45,43,-1,48,49,50,-1,50,49,51,-1,52,53,54,-1,54,53,55,-1,54,55,48,-1,48,55,49,-1,50,51,56,-1,56,51,57,-1,56,57,58,-1,58,57,59,-1,59,53,58,-1,58,53,52,-1,57,51,55,-1,55,51,49,-1,59,57,53,-1,53,57,55,-1,60,61,62,-1,62,61,63,-1,63,61,64,-1,64,61,65,-1,64,65,66,-1,66,65,67,-1,67,68,66,-1,66,68,69,-1,69,68,70,-1,70,68,71,-1,70,71,62,-1,62,71,60,-1,65,61,71,-1,71,61,60,-1,68,67,71,-1,71,67,65,-1,72,73,74,-1,74,73,75,-1,75,73,76,-1,76,73,77,-1,76,77,78,-1,78,77,79,-1,78,79,80,-1,80,79,81,-1,80,81,82,-1,82,81,83,-1,82,83,84,-1,84,83,85,-1,84,85,86,-1,86,85,87,-1,87,88,86,-1,86,88,89,-1,88,90,89,-1,89,90,91,-1,90,72,91,-1,91,72,74,-1,88,87,90,-1,90,87,85,-1,90,85,83,-1,83,81,90,-1,90,81,79,-1,90,79,72,-1,72,79,77,-1,72,77,73,-1,
        ]
    }
}
Shape{
    appearance Appearance {
        material  Material 	{
            diffuseColor 0.20784313725490197 0.20784313725490197 0.20784313725490197
            specularColor 0.01568627450980392 0.01568627450980392 0.01568627450980392
            ambientIntensity 0.298
            transparency 0.0
            shininess 0.5
        }
    }
    geometry IndexedFaceSet {
        ccw TRUE
        solid FALSE
        coord DEF co Coordinate {
            point [
                -0.3839 0.3937 0.2244, -0.3839 0.3937 0.0039, -0.3859 0.3934 0.0039, -0.3859 0.3934 0.2244, -0.3878 0.3926 0.0039, -0.3878 0.3926 0.2244, -0.3894 0.3914 0.0039, -0.3894 0.3914 0.2244, -0.3907 0.3898 0.0039, -0.3907 0.3898 0.2244, -0.3915 0.3879 0.0039, -0.3915 0.3879 0.2244, -0.3917 0.3858 0.0039, -0.3917 0.3858 0.2244, -0.3839 0.3858 0.2323, 0.3878 0.3858 0.2323, 0.3878 0.3879 0.232, -0.3839 0.3879 0.232, 0.3878 0.3898 0.2312, -0.3839 0.3898 0.2312, 0.3878 0.3914 0.23, -0.3839 0.3914 0.23, 0.3878 0.3926 0.2283, -0.3839 0.3926 0.2283, 0.3878 0.3934 0.2264, -0.3839 0.3934 0.2264, 0.3878 0.3937 0.2244, 0.3957 0.3858 0.2244, 0.3957 0.3858 0.0039, 0.3954 0.3879 0.0039, 0.3954 0.3879 0.2244, 0.3946 0.3898 0.0039, 0.3946 0.3898 0.2244, 0.3934 0.3914 0.0039, 0.3934 0.3914 0.2244, 0.3917 0.3926 0.0039, 0.3917 0.3926 0.2244, 0.3898 0.3934 0.0039, 0.3898 0.3934 0.2244, 0.3878 0.3937 0.0039, -0.3915 0.3858 0.2264, -0.3912 0.3878 0.2264, -0.3873 0.3878 0.2312, -0.3856 0.3868 0.232, -0.3853 0.3873 0.232, -0.3844 0.3878 0.232, -0.3858 0.3864 0.232, -0.3877 0.3868 0.2312, -0.3892 0.3873 0.23, -0.3859 0.3858 0.232, -0.3866 0.3886 0.2312, -0.3849 0.3876 0.232, -0.3858 0.3892 0.2312, -0.3849 0.3896 0.2312, -0.3878 0.3858 0.2312, -0.3894 0.3858 0.23, -0.3907 0.3858 0.2283, -0.3887 0.3886 0.23, -0.3878 0.3898 0.23, -0.3866 0.3906 0.23, -0.3853 0.3912 0.23, -0.3904 0.3876 0.2283, -0.3898 0.3892 0.2283, -0.3887 0.3906 0.2283, -0.3873 0.3917 0.2283, -0.3856 0.3924 0.2283, -0.3904 0.3896 0.2264, -0.3892 0.3912 0.2264, -0.3877 0.3924 0.2264, -0.3858 0.3932 0.2264, 0.3898 0.3932 0.2264, 0.3898 0.3892 0.2312, 0.3888 0.3876 0.232, 0.3892 0.3873 0.232, 0.3898 0.3858 0.232, 0.3898 0.3864 0.232, 0.3883 0.3878 0.232, 0.3888 0.3896 0.2312, 0.3892 0.3912 0.23, 0.3906 0.3886 0.2312, 0.3896 0.3868 0.232, 0.3912 0.3878 0.2312, 0.3916 0.3868 0.2312, 0.3917 0.3858 0.2312, 0.3906 0.3906 0.23, 0.3917 0.3898 0.23, 0.3926 0.3886 0.23, 0.3932 0.3873 0.23, 0.3934 0.3858 0.23, 0.3896 0.3924 0.2283, 0.3912 0.3917 0.2283, 0.3926 0.3906 0.2283, 0.3937 0.3892 0.2283, 0.3944 0.3876 0.2283, 0.3946 0.3858 0.2283, 0.3916 0.3924 0.2264, 0.3932 0.3912 0.2264, 0.3944 0.3896 0.2264, 0.3951 0.3878 0.2264, 0.3954 0.3858 0.2264, -0.3917 -0.3858 0.0039, -0.3915 -0.3876 0.0039, -0.3917 -0.3858 0.2244, -0.3915 -0.3876 0.2244, -0.3915 -0.3879 0.2244, -0.391 -0.3892 0.0039, -0.3909 -0.3892 0.2244, -0.3907 -0.3898 0.2244, -0.39 -0.3907 0.0039, -0.39 -0.3907 0.2244, -0.3888 -0.392 0.0039, -0.3887 -0.3919 0.2244, -0.3894 -0.3914 0.2244, -0.3856 -0.3935 0.2244, -0.3859 -0.3934 0.2244, -0.3873 -0.3929 0.0039, -0.3873 -0.3929 0.2244, -0.3878 -0.3926 0.2244, -0.3856 -0.3935 0.0039, -0.3839 -0.3937 0.0039, -0.3839 -0.3937 0.2244, -0.3839 -0.3858 0.2323, -0.3859 -0.3858 0.232, -0.3878 -0.3858 0.2312, -0.3894 -0.3858 0.23, -0.3907 -0.3858 0.2283, -0.3915 -0.3858 0.2264, 0.3878 -0.3858 0.2323, 0.3898 -0.3858 0.232, 0.3917 -0.3858 0.2312, 0.3934 -0.3858 0.23, 0.3946 -0.3858 0.2283, 0.3954 -0.3858 0.2264, 0.3957 -0.3858 0.2244, 0.3878 -0.3937 0.2244, 0.3878 -0.3937 0.0039, 0.3898 -0.3934 0.0039, 0.3898 -0.3934 0.2244, 0.3917 -0.3926 0.0039, 0.3917 -0.3926 0.2244, 0.3934 -0.3914 0.0039, 0.3934 -0.3914 0.2244, 0.3946 -0.3898 0.0039, 0.3946 -0.3898 0.2244, 0.3954 -0.3879 0.0039, 0.3954 -0.3879 0.2244, 0.3957 -0.3858 0.0039, -0.3912 -0.3878 0.2264, -0.3904 -0.3896 0.2264, -0.3892 -0.3912 0.2264, -0.3877 -0.3924 0.2264, -0.3858 -0.3932 0.2264, -0.3839 -0.3934 0.2264, -0.3856 -0.3924 0.2283, -0.3839 -0.3926 0.2283, -0.3853 -0.3912 0.23, -0.3839 -0.3914 0.23, -0.3849 -0.3896 0.2312, -0.3839 -0.3898 0.2312, -0.3844 -0.3878 0.232, -0.3839 -0.3879 0.232, -0.3873 -0.3917 0.2283, -0.3866 -0.3906 0.23, -0.3858 -0.3892 0.2312, -0.3849 -0.3876 0.232, -0.3887 -0.3906 0.2283, -0.3878 -0.3898 0.23, -0.3866 -0.3886 0.2312, -0.3853 -0.3873 0.232, -0.3898 -0.3892 0.2283, -0.3887 -0.3886 0.23, -0.3873 -0.3878 0.2312, -0.3856 -0.3868 0.232, -0.3904 -0.3876 0.2283, -0.3892 -0.3873 0.23, -0.3877 -0.3868 0.2312, -0.3858 -0.3864 0.232, 0.3951 -0.3878 0.2264, 0.3912 -0.3878 0.2312, 0.3896 -0.3868 0.232, 0.3892 -0.3873 0.232, 0.3878 -0.3879 0.232, 0.3883 -0.3878 0.232, 0.3898 -0.3864 0.232, 0.3916 -0.3868 0.2312, 0.3932 -0.3873 0.23, 0.3906 -0.3886 0.2312, 0.3888 -0.3876 0.232, 0.3898 -0.3892 0.2312, 0.3888 -0.3896 0.2312, 0.3878 -0.3898 0.2312, 0.3926 -0.3886 0.23, 0.3917 -0.3898 0.23, 0.3906 -0.3906 0.23, 0.3892 -0.3912 0.23, 0.3878 -0.3914 0.23, 0.3944 -0.3876 0.2283, 0.3937 -0.3892 0.2283, 0.3926 -0.3906 0.2283, 0.3912 -0.3917 0.2283, 0.3896 -0.3924 0.2283, 0.3878 -0.3926 0.2283, 0.3944 -0.3896 0.2264, 0.3932 -0.3912 0.2264, 0.3916 -0.3924 0.2264, 0.3898 -0.3932 0.2264, 0.3878 -0.3934 0.2264
            ]
        }
        coordIndex [
            0,1,2,-1,0,2,3,-1,3,2,4,-1,3,4,5,-1,5,4,6,-1,5,6,7,-1,7,6,8,-1,7,8,9,-1,9,8,10,-1,9,10,11,-1,11,10,12,-1,11,12,13,-1,14,15,16,-1,14,16,17,-1,17,16,18,-1,17,18,19,-1,19,18,20,-1,19,20,21,-1,21,20,22,-1,21,22,23,-1,23,22,24,-1,23,24,25,-1,25,24,26,-1,25,26,0,-1,27,28,29,-1,27,29,30,-1,30,29,31,-1,30,31,32,-1,32,31,33,-1,32,33,34,-1,34,33,35,-1,34,35,36,-1,36,35,37,-1,36,37,38,-1,38,37,39,-1,38,39,26,-1,13,40,41,-1,42,43,44,-1,14,17,45,-1,44,43,14,-1,46,14,43,-1,46,43,47,-1,47,43,42,-1,47,42,48,-1,49,14,46,-1,50,51,52,-1,52,51,45,-1,52,45,53,-1,53,45,17,-1,53,17,19,-1,49,46,54,-1,54,46,47,-1,54,47,55,-1,55,47,48,-1,55,48,56,-1,57,50,58,-1,58,50,52,-1,58,52,59,-1,59,52,53,-1,59,53,60,-1,60,53,19,-1,60,19,21,-1,61,57,62,-1,62,57,58,-1,62,58,63,-1,63,58,59,-1,63,59,64,-1,64,59,60,-1,64,60,65,-1,65,60,21,-1,65,21,23,-1,40,61,41,-1,41,61,62,-1,41,62,66,-1,66,62,63,-1,66,63,67,-1,67,63,64,-1,67,64,68,-1,68,64,65,-1,68,65,69,-1,69,65,23,-1,69,23,25,-1,13,41,11,-1,11,41,66,-1,11,66,9,-1,9,66,67,-1,9,67,7,-1,7,67,68,-1,7,68,5,-1,5,68,69,-1,5,69,3,-1,3,69,25,-1,3,25,0,-1,51,14,45,-1,40,56,61,-1,61,56,48,-1,61,48,57,-1,57,48,42,-1,57,42,50,-1,50,42,44,-1,50,44,51,-1,51,44,14,-1,26,24,70,-1,71,72,73,-1,15,74,75,-1,73,72,15,-1,76,15,72,-1,76,72,77,-1,77,72,71,-1,77,71,78,-1,16,15,76,-1,79,80,81,-1,81,80,75,-1,81,75,82,-1,82,75,74,-1,82,74,83,-1,16,76,18,-1,18,76,77,-1,18,77,20,-1,20,77,78,-1,20,78,22,-1,84,79,85,-1,85,79,81,-1,85,81,86,-1,86,81,82,-1,86,82,87,-1,87,82,83,-1,87,83,88,-1,89,84,90,-1,90,84,85,-1,90,85,91,-1,91,85,86,-1,91,86,92,-1,92,86,87,-1,92,87,93,-1,93,87,88,-1,93,88,94,-1,24,89,70,-1,70,89,90,-1,70,90,95,-1,95,90,91,-1,95,91,96,-1,96,91,92,-1,96,92,97,-1,97,92,93,-1,97,93,98,-1,98,93,94,-1,98,94,99,-1,26,70,38,-1,38,70,95,-1,38,95,36,-1,36,95,96,-1,36,96,34,-1,34,96,97,-1,34,97,32,-1,32,97,98,-1,32,98,30,-1,30,98,99,-1,30,99,27,-1,80,15,75,-1,24,22,89,-1,89,22,78,-1,89,78,84,-1,84,78,71,-1,84,71,79,-1,79,71,73,-1,79,73,80,-1,80,73,15,-1,100,101,102,-1,102,101,103,-1,103,101,104,-1,104,101,105,-1,104,105,106,-1,106,105,107,-1,107,105,108,-1,107,108,109,-1,110,111,108,-1,108,111,112,-1,108,112,109,-1,113,114,115,-1,115,114,116,-1,115,116,110,-1,110,116,117,-1,110,117,111,-1,115,118,113,-1,113,118,119,-1,113,119,120,-1,121,14,49,-1,121,49,122,-1,122,49,54,-1,122,54,123,-1,123,54,55,-1,123,55,124,-1,124,55,56,-1,124,56,125,-1,125,56,40,-1,125,40,126,-1,126,40,13,-1,126,13,102,-1,15,127,128,-1,15,128,74,-1,74,128,129,-1,74,129,83,-1,83,129,130,-1,83,130,88,-1,88,130,131,-1,88,131,94,-1,94,131,132,-1,94,132,99,-1,99,132,133,-1,99,133,27,-1,134,135,136,-1,134,136,137,-1,137,136,138,-1,137,138,139,-1,139,138,140,-1,139,140,141,-1,141,140,142,-1,141,142,143,-1,143,142,144,-1,143,144,145,-1,145,144,146,-1,145,146,133,-1,103,104,147,-1,106,107,148,-1,109,112,149,-1,111,117,150,-1,116,114,151,-1,113,120,152,-1,114,113,151,-1,151,113,152,-1,151,152,153,-1,153,152,154,-1,153,154,155,-1,155,154,156,-1,155,156,157,-1,157,156,158,-1,157,158,159,-1,159,158,160,-1,159,160,121,-1,117,116,150,-1,150,116,151,-1,150,151,161,-1,161,151,153,-1,161,153,162,-1,162,153,155,-1,162,155,163,-1,163,155,157,-1,163,157,164,-1,164,157,159,-1,164,159,121,-1,112,111,149,-1,149,111,150,-1,149,150,165,-1,165,150,161,-1,165,161,166,-1,166,161,162,-1,166,162,167,-1,167,162,163,-1,167,163,168,-1,168,163,164,-1,168,164,121,-1,107,109,148,-1,148,109,149,-1,148,149,169,-1,169,149,165,-1,169,165,170,-1,170,165,166,-1,170,166,171,-1,171,166,167,-1,171,167,172,-1,172,167,168,-1,172,168,121,-1,104,106,147,-1,147,106,148,-1,147,148,173,-1,173,148,169,-1,173,169,174,-1,174,169,170,-1,174,170,175,-1,175,170,171,-1,175,171,176,-1,176,171,172,-1,176,172,121,-1,102,103,126,-1,126,103,147,-1,126,147,125,-1,125,147,173,-1,125,173,124,-1,124,173,174,-1,124,174,123,-1,123,174,175,-1,123,175,122,-1,122,175,176,-1,122,176,121,-1,133,132,177,-1,178,179,180,-1,127,181,182,-1,180,179,127,-1,183,127,179,-1,183,179,184,-1,184,179,178,-1,184,178,185,-1,128,127,183,-1,186,187,188,-1,188,187,182,-1,188,182,189,-1,189,182,181,-1,189,181,190,-1,128,183,129,-1,129,183,184,-1,129,184,130,-1,130,184,185,-1,130,185,131,-1,191,186,192,-1,192,186,188,-1,192,188,193,-1,193,188,189,-1,193,189,194,-1,194,189,190,-1,194,190,195,-1,196,191,197,-1,197,191,192,-1,197,192,198,-1,198,192,193,-1,198,193,199,-1,199,193,194,-1,199,194,200,-1,200,194,195,-1,200,195,201,-1,132,196,177,-1,177,196,197,-1,177,197,202,-1,202,197,198,-1,202,198,203,-1,203,198,199,-1,203,199,204,-1,204,199,200,-1,204,200,205,-1,205,200,201,-1,205,201,206,-1,133,177,145,-1,145,177,202,-1,145,202,143,-1,143,202,203,-1,143,203,141,-1,141,203,204,-1,141,204,139,-1,139,204,205,-1,139,205,137,-1,137,205,206,-1,137,206,134,-1,187,127,182,-1,132,131,196,-1,196,131,185,-1,196,185,191,-1,191,185,178,-1,191,178,186,-1,186,178,180,-1,186,180,187,-1,187,180,127,-1,127,121,160,-1,127,160,181,-1,181,160,158,-1,181,158,190,-1,190,158,156,-1,190,156,195,-1,195,156,154,-1,195,154,201,-1,201,154,152,-1,201,152,206,-1,206,152,120,-1,206,120,134,-1,
        ]
    }
}
Shape{
    appearance Appearance {
        material  Material 	{
            diffuseColor 1.0 1.0 1.0
            specularColor 0.5019607843137255 0.5019607843137255 0.5019607843137255
            ambientIntensity 1.0
            transparency 0.0
            shininess 0.5
        }
    }
    geometry IndexedFaceSet {
        ccw TRUE
        solid FALSE
        coord DEF co Coordinate {
            point [
                -0.3957 0.2998 0.0416, -0.3957 0.2998 0.0401, -0.3917 0.2998 0.0416, -0.3917 0.2998 0.0401, -0.3957 0.3051 0.0416, -0.3917 0.3051 0.0416, -0.3957 0.3051 0.0534, -0.3917 0.3051 0.0534, -0.3957 0.3068 0.0534, -0.3917 0.3068 0.0534, -0.3957 0.3068 0.0401, -0.3917 0.3068 0.0401, -0.3917 0.2893 0.0406, -0.3957 0.2893 0.0406, -0.3957 0.2895 0.0405, -0.3917 0.293 0.0398, -0.3917 0.2918 0.0399, -0.3957 0.293 0.0398, -0.3957 0.2909 0.04, -0.3917 0.2909 0.04, -0.3917 0.2898 0.0404, -0.3917 0.2895 0.0405, -0.3957 0.2893 0.0423, -0.3917 0.2893 0.0423, -0.3917 0.2898 0.042, -0.3957 0.2905 0.0417, -0.3917 0.2905 0.0417, -0.3917 0.292 0.0414, -0.3957 0.292 0.0414, -0.3917 0.2927 0.0414, -0.3957 0.2927 0.0414, -0.3917 0.2941 0.0415, -0.3957 0.2941 0.0415, -0.3917 0.295 0.0419, -0.3957 0.295 0.0419, -0.3917 0.2959 0.0425, -0.3957 0.2959 0.0425, -0.3917 0.2961 0.0428, -0.3957 0.2961 0.0428, -0.3917 0.2968 0.0437, -0.3957 0.2968 0.0437, -0.3917 0.2972 0.0448, -0.3957 0.2972 0.0448, -0.3917 0.2974 0.0465, -0.3957 0.2974 0.0465, -0.3917 0.2974 0.0466, -0.3957 0.2974 0.0466, -0.3917 0.2973 0.0482, -0.3957 0.2973 0.0482, -0.3917 0.2969 0.0494, -0.3957 0.2969 0.0494, -0.3917 0.2962 0.0504, -0.3957 0.2962 0.0504, -0.3917 0.296 0.0506, -0.3957 0.296 0.0506, -0.3917 0.2952 0.0513, -0.3957 0.2952 0.0513, -0.3917 0.2941 0.0518, -0.3957 0.2941 0.0518, -0.3917 0.293 0.052, -0.3957 0.293 0.052, -0.3917 0.2924 0.0521, -0.3957 0.2924 0.0521, -0.3917 0.2893 0.0513, -0.3957 0.2893 0.0513, -0.3957 0.2895 0.0514, -0.3917 0.2909 0.0519, -0.3957 0.2909 0.0519, -0.3917 0.2898 0.0515, -0.3917 0.2895 0.0514, -0.3957 0.2893 0.0531, -0.3917 0.2893 0.0531, -0.3917 0.2924 0.0536, -0.3957 0.2924 0.0536, -0.3957 0.2923 0.0536, -0.3917 0.2898 0.0533, -0.3957 0.2906 0.0535, -0.3917 0.2906 0.0535, -0.3917 0.2911 0.0535, -0.3917 0.2923 0.0536, -0.3917 0.2935 0.0535, -0.3957 0.2941 0.0535, -0.3917 0.2941 0.0535, -0.3917 0.2955 0.053, -0.3957 0.2955 0.053, -0.3917 0.2969 0.0521, -0.3957 0.2969 0.0521, -0.3917 0.2973 0.0517, -0.3957 0.2973 0.0517, -0.3917 0.2982 0.0505, -0.3957 0.2982 0.0505, -0.3917 0.2987 0.0496, -0.3957 0.2989 0.049, -0.3917 0.2989 0.049, -0.3917 0.2992 0.0473, -0.3957 0.2992 0.0473, -0.3917 0.2993 0.0465, -0.3957 0.2993 0.0465, -0.3917 0.299 0.0443, -0.3957 0.299 0.0443, -0.3917 0.2987 0.0434, -0.3957 0.2985 0.0429, -0.3917 0.2985 0.0429, -0.3917 0.2977 0.0418, -0.3957 0.2977 0.0418, -0.3917 0.2975 0.0417, -0.3957 0.2975 0.0417, -0.3957 0.2938 0.0399, -0.3917 0.2965 0.0408, -0.3957 0.2965 0.0408, -0.3917 0.2952 0.0402, -0.3957 0.2952 0.0402, -0.3917 0.2941 0.0399, -0.3917 0.2938 0.0399, -0.3957 0.2794 0.0416, -0.3957 0.2794 0.0401, -0.3917 0.2794 0.0416, -0.3917 0.2794 0.0401, -0.3917 0.2849 0.0416, -0.3957 0.2849 0.0416, -0.3917 0.2813 0.0416, -0.3957 0.2849 0.0461, -0.3917 0.2849 0.0461, -0.3917 0.2801 0.0461, -0.3957 0.2801 0.0461, -0.3917 0.2813 0.0461, -0.3957 0.2801 0.0476, -0.3917 0.2801 0.0476, -0.3917 0.2849 0.0476, -0.3957 0.2849 0.0476, -0.3917 0.2813 0.0476, -0.3957 0.2849 0.0519, -0.3917 0.2849 0.0519, -0.3917 0.2797 0.0519, -0.3957 0.2797 0.0519, -0.3917 0.2813 0.0519, -0.3957 0.2797 0.0534, -0.3917 0.2797 0.0534, -0.3917 0.2866 0.0534, -0.3957 0.2866 0.0534, -0.3917 0.2813 0.0534, -0.3957 0.2866 0.0401, -0.3917 0.2866 0.0401, -0.3917 0.2813 0.0401, -0.3957 0.2679 0.0461, -0.3957 0.2661 0.046, -0.3957 0.2678 0.0469, -0.3957 0.266 0.0469, -0.3957 0.268 0.0484, -0.3957 0.2662 0.0485, -0.3957 0.2684 0.0494, -0.3957 0.2667 0.0498, -0.3957 0.2689 0.0502, -0.3957 0.2674 0.051, -0.3957 0.2693 0.0506, -0.3957 0.268 0.0516, -0.3957 0.2703 0.0513, -0.3957 0.2693 0.0525, -0.3957 0.2715 0.0517, -0.3957 0.2709 0.0531, -0.3957 0.2732 0.0519, -0.3957 0.2731 0.0534, -0.3957 0.2752 0.0519, -0.3957 0.2769 0.0534, -0.3957 0.2752 0.0416, -0.3957 0.2769 0.0401, -0.3957 0.2732 0.0416, -0.3957 0.2732 0.0401, -0.3957 0.2716 0.0417, -0.3957 0.271 0.0403, -0.3957 0.2704 0.0421, -0.3957 0.2695 0.0409, -0.3957 0.2695 0.0427, -0.3957 0.2682 0.0418, -0.3957 0.2693 0.043, -0.3957 0.268 0.0419, -0.3957 0.2686 0.0438, -0.3957 0.2671 0.043, -0.3957 0.2681 0.0449, -0.3957 0.2664 0.0444, -0.3917 0.2732 0.0401, -0.3917 0.2769 0.0401, -0.3917 0.271 0.0403, -0.3917 0.2695 0.0409, -0.3917 0.2682 0.0418, -0.3917 0.268 0.0419, -0.3917 0.2671 0.043, -0.3917 0.2664 0.0444, -0.3917 0.2661 0.046, -0.3917 0.266 0.0469, -0.3917 0.2662 0.0485, -0.3917 0.2667 0.0498, -0.3917 0.2674 0.051, -0.3917 0.268 0.0516, -0.3917 0.2693 0.0525, -0.3917 0.2709 0.0531, -0.3917 0.2731 0.0534, -0.3917 0.2769 0.0534, -0.3917 0.2732 0.0519, -0.3917 0.2752 0.0519, -0.3917 0.2752 0.0416, -0.3917 0.2732 0.0416, -0.3917 0.2693 0.043, -0.3917 0.2695 0.0427, -0.3917 0.2704 0.0421, -0.3917 0.2716 0.0417, -0.3917 0.2678 0.0469, -0.3917 0.2679 0.0461, -0.3917 0.2681 0.0449, -0.3917 0.2686 0.0438, -0.3917 0.2693 0.0506, -0.3917 0.2689 0.0502, -0.3917 0.2684 0.0494, -0.3917 0.268 0.0484, -0.3917 0.2715 0.0517, -0.3917 0.2703 0.0513
            ]
        }
        coordIndex [
            0,1,2,-1,2,1,3,-1,4,0,5,-1,5,0,2,-1,6,4,7,-1,7,4,5,-1,8,6,9,-1,9,6,7,-1,10,8,11,-1,11,8,9,-1,1,10,3,-1,3,10,11,-1,6,8,4,-1,4,8,10,-1,4,10,0,-1,0,10,1,-1,12,13,14,-1,15,16,17,-1,17,16,18,-1,16,19,18,-1,18,19,20,-1,18,20,14,-1,14,20,21,-1,14,21,12,-1,22,13,23,-1,23,13,12,-1,22,23,24,-1,22,24,25,-1,24,26,25,-1,25,26,27,-1,25,27,28,-1,28,27,29,-1,28,29,30,-1,30,29,31,-1,30,31,32,-1,32,31,33,-1,32,33,34,-1,34,33,35,-1,34,35,36,-1,36,35,37,-1,36,37,38,-1,38,37,39,-1,38,39,40,-1,40,39,41,-1,40,41,42,-1,42,41,43,-1,42,43,44,-1,44,43,45,-1,44,45,46,-1,46,45,47,-1,46,47,48,-1,48,47,49,-1,48,49,50,-1,50,49,51,-1,50,51,52,-1,52,51,53,-1,52,53,54,-1,54,53,55,-1,54,55,56,-1,56,55,57,-1,56,57,58,-1,58,57,59,-1,58,59,60,-1,60,59,61,-1,60,61,62,-1,63,64,65,-1,62,61,66,-1,62,66,67,-1,67,66,68,-1,67,68,65,-1,65,68,69,-1,65,69,63,-1,70,64,71,-1,71,64,63,-1,72,73,74,-1,70,71,75,-1,70,75,76,-1,75,77,76,-1,76,77,78,-1,76,78,74,-1,74,78,79,-1,74,79,72,-1,72,80,73,-1,73,80,81,-1,80,82,81,-1,81,82,83,-1,81,83,84,-1,84,83,85,-1,84,85,86,-1,86,85,87,-1,86,87,88,-1,88,87,89,-1,88,89,90,-1,90,89,91,-1,90,91,92,-1,91,93,92,-1,92,93,94,-1,92,94,95,-1,95,94,96,-1,95,96,97,-1,97,96,98,-1,97,98,99,-1,99,98,100,-1,99,100,101,-1,100,102,101,-1,101,102,103,-1,101,103,104,-1,104,103,105,-1,104,105,106,-1,15,17,107,-1,106,105,108,-1,106,108,109,-1,109,108,110,-1,109,110,111,-1,111,110,112,-1,111,112,107,-1,107,112,113,-1,107,113,15,-1,65,64,70,-1,48,50,90,-1,13,22,14,-1,14,22,25,-1,14,25,18,-1,18,25,28,-1,18,28,17,-1,17,28,30,-1,17,30,107,-1,107,30,32,-1,107,32,111,-1,111,32,34,-1,111,34,109,-1,109,34,36,-1,109,36,106,-1,106,36,38,-1,106,38,104,-1,104,38,40,-1,104,40,101,-1,101,40,99,-1,99,40,42,-1,99,42,97,-1,90,50,88,-1,65,70,67,-1,67,70,76,-1,67,76,62,-1,62,76,74,-1,62,74,60,-1,60,74,73,-1,60,73,58,-1,58,73,81,-1,58,81,56,-1,81,84,56,-1,56,84,86,-1,56,86,54,-1,54,86,88,-1,54,88,52,-1,52,88,50,-1,42,44,97,-1,97,44,46,-1,97,46,95,-1,95,46,48,-1,95,48,92,-1,92,48,90,-1,114,115,116,-1,116,115,117,-1,118,119,120,-1,120,119,114,-1,120,114,116,-1,121,119,122,-1,122,119,118,-1,123,124,125,-1,125,124,121,-1,125,121,122,-1,126,124,127,-1,127,124,123,-1,128,129,130,-1,130,129,126,-1,130,126,127,-1,131,129,132,-1,132,129,128,-1,133,134,135,-1,135,134,131,-1,135,131,132,-1,136,134,137,-1,137,134,133,-1,138,139,140,-1,140,139,136,-1,140,136,137,-1,141,139,142,-1,142,139,138,-1,117,115,143,-1,143,115,141,-1,143,141,142,-1,134,136,131,-1,131,136,139,-1,131,139,129,-1,115,114,141,-1,141,114,119,-1,141,119,121,-1,124,126,121,-1,121,126,129,-1,121,129,141,-1,141,129,139,-1,144,145,146,-1,146,145,147,-1,146,147,148,-1,148,147,149,-1,148,149,150,-1,150,149,151,-1,150,151,152,-1,152,151,153,-1,152,153,154,-1,154,153,155,-1,154,155,156,-1,156,155,157,-1,156,157,158,-1,158,157,159,-1,158,159,160,-1,160,159,161,-1,160,161,162,-1,162,161,163,-1,162,163,164,-1,164,163,165,-1,164,165,166,-1,166,165,167,-1,166,167,168,-1,168,167,169,-1,168,169,170,-1,170,169,171,-1,170,171,172,-1,172,171,173,-1,172,173,174,-1,174,173,175,-1,174,175,176,-1,176,175,177,-1,176,177,178,-1,178,177,179,-1,178,179,144,-1,144,179,145,-1,167,165,180,-1,180,165,181,-1,167,180,182,-1,167,182,169,-1,169,182,183,-1,169,183,171,-1,171,183,184,-1,171,184,173,-1,173,184,185,-1,173,185,175,-1,175,185,186,-1,175,186,177,-1,177,186,187,-1,177,187,179,-1,179,187,188,-1,179,188,145,-1,145,188,189,-1,145,189,147,-1,147,189,190,-1,147,190,149,-1,149,190,191,-1,149,191,151,-1,151,191,192,-1,151,192,153,-1,153,192,193,-1,153,193,155,-1,155,193,194,-1,155,194,157,-1,157,194,195,-1,157,195,159,-1,159,195,196,-1,159,196,161,-1,163,161,197,-1,197,161,196,-1,165,163,181,-1,181,163,197,-1,160,162,198,-1,198,162,199,-1,162,164,199,-1,199,164,200,-1,164,166,200,-1,200,166,201,-1,174,202,203,-1,174,203,172,-1,172,203,204,-1,172,204,170,-1,170,204,205,-1,170,205,168,-1,168,205,201,-1,168,201,166,-1,146,206,207,-1,146,207,144,-1,144,207,208,-1,144,208,178,-1,178,208,209,-1,178,209,176,-1,176,209,202,-1,176,202,174,-1,154,210,211,-1,154,211,152,-1,152,211,212,-1,152,212,150,-1,150,212,213,-1,150,213,148,-1,148,213,206,-1,148,206,146,-1,160,198,214,-1,160,214,158,-1,158,214,215,-1,158,215,156,-1,156,215,210,-1,156,210,154,-1,
        ]
    }
}
Shape{
    appearance Appearance {
        material  Material 	{
            diffuseColor 0.20784313725490197 0.20784313725490197 0.20784313725490197
            specularColor 0.01568627450980392 0.01568627450980392 0.01568627450980392
            ambientIntensity 0.298
            transparency 0.0
            shininess 0.5
        }
    }
    geometry IndexedFaceSet {
        ccw TRUE
        solid FALSE
        coord DEF co Coordinate {
            point [
                -0.3917 0.2752 0.0519, -0.3917 0.2752 0.0416, -0.3917 0.2732 0.0519, -0.3917 0.2732 0.0416, -0.3917 0.2716 0.0417, -0.3917 0.2704 0.0421, -0.3917 0.2695 0.0427, -0.3917 0.2693 0.043, -0.3917 0.2686 0.0438, -0.3917 0.2681 0.0449, -0.3917 0.2679 0.0461, -0.3917 0.2678 0.0469, -0.3917 0.268 0.0484, -0.3917 0.2684 0.0494, -0.3917 0.2689 0.0502, -0.3917 0.2693 0.0506, -0.3917 0.2715 0.0517, -0.3917 0.2703 0.0513
            ]
        }
        coordIndex [
            0,1,2,-1,2,1,3,-1,2,3,4,-1,4,5,2,-1,2,5,6,-1,2,6,7,-1,7,8,2,-1,2,8,9,-1,2,9,10,-1,10,11,2,-1,2,11,12,-1,2,12,13,-1,13,14,2,-1,2,14,15,-1,2,15,16,-1,16,15,17,-1,
        ]
    }
}
Shape{
    appearance Appearance {
        material  Material 	{
            diffuseColor 1.0 1.0 1.0
            specularColor 0.5019607843137255 0.5019607843137255 0.5019607843137255
            ambientIntensity 1.0
            transparency 0.0
            shininess 0.5
        }
    }
    geometry IndexedFaceSet {
        ccw TRUE
        solid FALSE
        coord DEF co Coordinate {
            point [
                -0.3957 0.2616 0.0452, -0.3957 0.2596 0.0508, -0.3957 0.2602 0.0534, -0.3957 0.2653 0.0401, -0.3957 0.2634 0.0401, -0.3957 0.2621 0.0437, -0.3957 0.2594 0.0512, -0.3957 0.2593 0.0517, -0.3957 0.2584 0.0534, -0.3957 0.2593 0.0517, -0.3957 0.2592 0.0511, -0.3957 0.2591 0.0508, -0.3957 0.2571 0.0452, -0.3957 0.2533 0.0401, -0.3957 0.2552 0.0401, -0.3957 0.2565 0.0437, -0.3917 0.2584 0.0534, -0.3917 0.2533 0.0401, -0.3917 0.2602 0.0534, -0.3917 0.2653 0.0401, -0.3917 0.2614 0.0502, -0.3917 0.2634 0.0401, -0.3917 0.2621 0.0437, -0.3917 0.2565 0.0437, -0.3917 0.2614 0.0437, -0.3917 0.2552 0.0401, -0.3917 0.2616 0.0452, -0.3917 0.2571 0.0452, -0.3917 0.2591 0.0508, -0.3917 0.2593 0.0517, -0.3917 0.2592 0.0511, -0.3917 0.2593 0.0517, -0.3917 0.2596 0.0508, -0.3917 0.2594 0.0512
            ]
        }
        coordIndex [
            0,1,2,-1,3,4,5,-1,1,6,2,-1,2,6,7,-1,2,7,8,-1,8,7,9,-1,8,9,10,-1,10,11,8,-1,8,11,12,-1,8,12,13,-1,14,13,15,-1,15,13,12,-1,15,12,5,-1,5,12,0,-1,5,0,3,-1,3,0,2,-1,8,13,16,-1,16,13,17,-1,2,8,18,-1,18,8,16,-1,19,3,20,-1,20,3,2,-1,20,2,18,-1,4,3,21,-1,21,3,19,-1,5,4,22,-1,22,4,21,-1,23,15,24,-1,24,15,5,-1,24,5,22,-1,14,15,25,-1,25,15,23,-1,13,14,17,-1,17,14,25,-1,0,12,26,-1,26,12,27,-1,12,11,27,-1,27,11,28,-1,9,29,30,-1,9,30,10,-1,10,30,28,-1,10,28,11,-1,9,7,29,-1,29,7,31,-1,1,32,33,-1,1,33,6,-1,6,33,31,-1,6,31,7,-1,1,0,32,-1,32,0,26,-1,
        ]
    }
}
Shape{
    appearance Appearance {
        material  Material 	{
            diffuseColor 0.20784313725490197 0.20784313725490197 0.20784313725490197
            specularColor 0.01568627450980392 0.01568627450980392 0.01568627450980392
            ambientIntensity 0.298
            transparency 0.0
            shininess 0.5
        }
    }
    geometry IndexedFaceSet {
        ccw TRUE
        solid FALSE
        coord DEF co Coordinate {
            point [
                -0.3917 0.2593 0.0517, -0.3917 0.2593 0.0517, -0.3917 0.2592 0.0511, -0.3917 0.2594 0.0512, -0.3917 0.2591 0.0508, -0.3917 0.2596 0.0508, -0.3917 0.2571 0.0452, -0.3917 0.2616 0.0452
            ]
        }
        coordIndex [
            0,1,2,-1,2,1,3,-1,2,3,4,-1,4,3,5,-1,4,5,6,-1,6,5,7,-1,
        ]
    }
}
Shape{
    appearance Appearance {
        material  Material 	{
            diffuseColor 1.0 1.0 1.0
            specularColor 0.5019607843137255 0.5019607843137255 0.5019607843137255
            ambientIntensity 1.0
            transparency 0.0
            shininess 0.5
        }
    }
    geometry IndexedFaceSet {
        ccw TRUE
        solid FALSE
        coord DEF co Coordinate {
            point [
                -0.3957 0.2997 0.0204, -0.3957 0.2997 0.0189, -0.3917 0.2997 0.0204, -0.3917 0.2997 0.0189, -0.3957 0.3051 0.0204, -0.3917 0.3051 0.0204, -0.3957 0.3051 0.0249, -0.3917 0.3051 0.0249, -0.3957 0.3003 0.0249, -0.3917 0.3003 0.0249, -0.3957 0.3003 0.0264, -0.3917 0.3003 0.0264, -0.3957 0.3051 0.0264, -0.3917 0.3051 0.0264, -0.3957 0.3051 0.0307, -0.3917 0.3051 0.0307, -0.3957 0.3 0.0307, -0.3917 0.3 0.0307, -0.3957 0.3 0.0322, -0.3917 0.3 0.0322, -0.3957 0.3068 0.0322, -0.3917 0.3068 0.0322, -0.3957 0.3068 0.0189, -0.3917 0.3068 0.0189, -0.3957 0.2921 0.0189, -0.3957 0.2904 0.0189, -0.3957 0.2921 0.0204, -0.3957 0.2904 0.025, -0.3957 0.2921 0.0249, -0.3957 0.2957 0.023, -0.3957 0.2953 0.0232, -0.3957 0.2921 0.0204, -0.3957 0.293 0.0206, -0.3957 0.2924 0.02, -0.3957 0.2935 0.0203, -0.3957 0.2943 0.0234, -0.3957 0.2921 0.0237, -0.3957 0.2921 0.0228, -0.3957 0.2921 0.0226, -0.3957 0.2922 0.0219, -0.3957 0.2924 0.0213, -0.3957 0.2928 0.0208, -0.3957 0.2921 0.0257, -0.3957 0.2905 0.0263, -0.3957 0.2923 0.0263, -0.3957 0.2908 0.0271, -0.3957 0.2925 0.0266, -0.3957 0.2911 0.0276, -0.3957 0.2928 0.0269, -0.3957 0.2916 0.028, -0.3957 0.2931 0.0271, -0.3957 0.2921 0.0283, -0.3957 0.2934 0.0272, -0.3957 0.2929 0.0285, -0.3957 0.294 0.0273, -0.3957 0.2938 0.0286, -0.3957 0.2949 0.0272, -0.3957 0.2954 0.0285, -0.3957 0.296 0.0269, -0.3957 0.2967 0.028, -0.3957 0.2971 0.0261, -0.3957 0.2971 0.0277, -0.3957 0.296 0.0206, -0.3957 0.2972 0.0194, -0.3957 0.2959 0.0205, -0.3957 0.2967 0.019, -0.3957 0.2955 0.0202, -0.3957 0.296 0.0188, -0.3957 0.2952 0.0201, -0.3957 0.295 0.0187, -0.3957 0.2946 0.02, -0.3957 0.2942 0.0188, -0.3957 0.294 0.0201, -0.3957 0.2935 0.019, -0.3957 0.2929 0.0194, -0.3957 0.2964 0.0218, -0.3957 0.2981 0.0216, -0.3957 0.2964 0.0216, -0.3957 0.2981 0.0214, -0.3957 0.2963 0.0212, -0.3957 0.298 0.0207, -0.3957 0.2962 0.0209, -0.3957 0.2978 0.0201, -0.3957 0.2974 0.0196, -0.3957 0.2949 0.0245, -0.3957 0.2962 0.0242, -0.3957 0.2959 0.0228, -0.3957 0.2969 0.0239, -0.3957 0.2961 0.0225, -0.3957 0.2974 0.0234, -0.3957 0.2963 0.0222, -0.3957 0.2977 0.0229, -0.3957 0.298 0.0224, -0.3917 0.2938 0.0286, -0.3917 0.2954 0.0285, -0.3917 0.2967 0.028, -0.3917 0.2971 0.0277, -0.3917 0.2971 0.0261, -0.3917 0.296 0.0269, -0.3917 0.2949 0.0272, -0.3917 0.294 0.0273, -0.3917 0.2934 0.0272, -0.3917 0.2931 0.0271, -0.3917 0.2928 0.0269, -0.3917 0.2925 0.0266, -0.3917 0.2923 0.0263, -0.3917 0.2921 0.0257, -0.3917 0.2921 0.0249, -0.3917 0.2949 0.0245, -0.3917 0.2962 0.0242, -0.3917 0.2969 0.0239, -0.3917 0.2974 0.0234, -0.3917 0.2977 0.0229, -0.3917 0.298 0.0224, -0.3917 0.2981 0.0216, -0.3917 0.2981 0.0214, -0.3917 0.298 0.0207, -0.3917 0.2978 0.0201, -0.3917 0.2974 0.0196, -0.3917 0.2972 0.0194, -0.3917 0.2967 0.019, -0.3917 0.296 0.0188, -0.3917 0.295 0.0187, -0.3917 0.2942 0.0188, -0.3917 0.2941 0.0188, -0.3917 0.2935 0.019, -0.3917 0.2929 0.0194, -0.3917 0.2924 0.02, -0.3917 0.2921 0.0204, -0.3917 0.2921 0.0204, -0.3917 0.2921 0.0189, -0.3917 0.2904 0.0189, -0.3917 0.2904 0.025, -0.3917 0.2905 0.0263, -0.3917 0.2908 0.0271, -0.3917 0.2911 0.0276, -0.3917 0.2916 0.028, -0.3917 0.2921 0.0283, -0.3917 0.2929 0.0285, -0.3917 0.2959 0.0228, -0.3917 0.2957 0.023, -0.3917 0.2953 0.0232, -0.3917 0.2943 0.0234, -0.3917 0.2964 0.0216, -0.3917 0.2964 0.0218, -0.3917 0.2963 0.0222, -0.3917 0.2961 0.0225, -0.3917 0.2959 0.0205, -0.3917 0.296 0.0206, -0.3917 0.2962 0.0209, -0.3917 0.2963 0.0212, -0.3917 0.2946 0.02, -0.3917 0.2952 0.0201, -0.3917 0.2955 0.0202, -0.3917 0.2928 0.0208, -0.3917 0.293 0.0206, -0.3917 0.2935 0.0203, -0.3917 0.294 0.0201, -0.3917 0.2921 0.0228, -0.3917 0.2921 0.0226, -0.3917 0.2922 0.0219, -0.3917 0.2924 0.0213, -0.3917 0.2921 0.0237
            ]
        }
        coordIndex [
            0,1,2,-1,2,1,3,-1,4,0,5,-1,5,0,2,-1,6,4,7,-1,7,4,5,-1,8,6,9,-1,9,6,7,-1,10,8,11,-1,11,8,9,-1,12,10,13,-1,13,10,11,-1,14,12,15,-1,15,12,13,-1,16,14,17,-1,17,14,15,-1,18,16,19,-1,19,16,17,-1,20,18,21,-1,21,18,19,-1,22,20,23,-1,23,20,21,-1,1,22,3,-1,3,22,23,-1,22,1,0,-1,0,4,22,-1,22,4,6,-1,22,6,20,-1,16,18,14,-1,14,18,20,-1,14,20,12,-1,12,20,6,-1,12,6,10,-1,10,6,8,-1,24,25,26,-1,26,25,27,-1,28,29,30,-1,31,32,33,-1,33,32,34,-1,35,36,27,-1,27,36,37,-1,37,38,27,-1,27,38,39,-1,27,39,26,-1,26,39,40,-1,26,40,31,-1,31,40,41,-1,31,41,32,-1,30,35,28,-1,28,35,27,-1,28,27,42,-1,42,27,43,-1,42,43,44,-1,44,43,45,-1,44,45,46,-1,46,45,47,-1,46,47,48,-1,48,47,49,-1,48,49,50,-1,50,49,51,-1,50,51,52,-1,52,51,53,-1,52,53,54,-1,54,53,55,-1,54,55,56,-1,56,55,57,-1,56,57,58,-1,58,57,59,-1,58,59,60,-1,60,59,61,-1,62,63,64,-1,64,63,65,-1,64,65,66,-1,66,65,67,-1,66,67,68,-1,68,67,69,-1,68,69,70,-1,70,69,71,-1,70,71,72,-1,72,71,73,-1,72,73,34,-1,34,73,74,-1,34,74,33,-1,75,76,77,-1,77,76,78,-1,77,78,79,-1,79,78,80,-1,79,80,81,-1,81,80,82,-1,81,82,62,-1,62,82,83,-1,62,83,63,-1,28,84,29,-1,29,84,85,-1,29,85,86,-1,86,85,87,-1,86,87,88,-1,88,87,89,-1,88,89,90,-1,90,89,91,-1,90,91,75,-1,75,91,92,-1,75,92,76,-1,55,93,94,-1,55,94,57,-1,57,94,95,-1,57,95,59,-1,59,95,96,-1,59,96,61,-1,60,61,97,-1,97,61,96,-1,60,97,98,-1,60,98,58,-1,58,98,99,-1,58,99,56,-1,56,99,100,-1,56,100,54,-1,54,100,101,-1,54,101,52,-1,52,101,102,-1,52,102,50,-1,50,102,103,-1,50,103,48,-1,48,103,104,-1,48,104,46,-1,46,104,105,-1,46,105,44,-1,44,105,106,-1,44,106,42,-1,42,106,107,-1,42,107,28,-1,84,28,108,-1,108,28,107,-1,84,108,109,-1,84,109,85,-1,85,109,110,-1,85,110,87,-1,87,110,111,-1,87,111,89,-1,89,111,112,-1,89,112,91,-1,91,112,113,-1,91,113,92,-1,92,113,114,-1,92,114,76,-1,76,114,115,-1,76,115,78,-1,78,115,116,-1,78,116,80,-1,80,116,117,-1,80,117,82,-1,82,117,118,-1,82,118,83,-1,83,118,119,-1,83,119,63,-1,63,119,120,-1,63,120,65,-1,65,120,121,-1,65,121,67,-1,67,121,122,-1,67,122,69,-1,69,122,123,-1,69,123,71,-1,71,123,124,-1,71,124,73,-1,124,125,73,-1,73,125,126,-1,73,126,74,-1,74,126,127,-1,74,127,33,-1,33,127,128,-1,33,128,31,-1,26,31,129,-1,129,31,128,-1,24,26,130,-1,130,26,129,-1,25,24,131,-1,131,24,130,-1,27,25,132,-1,132,25,131,-1,27,132,133,-1,27,133,43,-1,43,133,134,-1,43,134,45,-1,45,134,135,-1,45,135,47,-1,47,135,136,-1,47,136,49,-1,49,136,137,-1,49,137,51,-1,51,137,138,-1,51,138,53,-1,53,138,93,-1,53,93,55,-1,86,139,140,-1,86,140,29,-1,29,140,141,-1,29,141,30,-1,30,141,142,-1,30,142,35,-1,77,143,144,-1,77,144,75,-1,75,144,145,-1,75,145,90,-1,90,145,146,-1,90,146,88,-1,88,146,139,-1,88,139,86,-1,64,147,148,-1,64,148,62,-1,62,148,149,-1,62,149,81,-1,81,149,150,-1,81,150,79,-1,79,150,143,-1,79,143,77,-1,70,151,152,-1,70,152,68,-1,68,152,153,-1,68,153,66,-1,66,153,147,-1,66,147,64,-1,41,154,155,-1,41,155,32,-1,32,155,156,-1,32,156,34,-1,34,156,157,-1,34,157,72,-1,72,157,151,-1,72,151,70,-1,37,158,159,-1,37,159,38,-1,38,159,160,-1,38,160,39,-1,39,160,161,-1,39,161,40,-1,40,161,154,-1,40,154,41,-1,37,36,158,-1,158,36,162,-1,36,35,162,-1,162,35,142,-1,
        ]
    }
}
Shape{
    appearance Appearance {
        material  Material 	{
            diffuseColor 0.20784313725490197 0.20784313725490197 0.20784313725490197
            specularColor 0.01568627450980392 0.01568627450980392 0.01568627450980392
            ambientIntensity 0.298
            transparency 0.0
            shininess 0.5
        }
    }
    geometry IndexedFaceSet {
        ccw TRUE
        solid FALSE
        coord DEF co Coordinate {
            point [
                -0.3917 0.2921 0.0237, -0.3917 0.2943 0.0234, -0.3917 0.2921 0.0228, -0.3917 0.2953 0.0232, -0.3917 0.2957 0.023, -0.3917 0.2959 0.0228, -0.3917 0.2921 0.0226, -0.3917 0.2922 0.0219, -0.3917 0.2961 0.0225, -0.3917 0.2924 0.0213, -0.3917 0.296 0.0206, -0.3917 0.2959 0.0205, -0.3917 0.293 0.0206, -0.3917 0.2962 0.0209, -0.3917 0.2935 0.0203, -0.3917 0.294 0.0201, -0.3917 0.2946 0.02, -0.3917 0.2963 0.0222, -0.3917 0.2964 0.0218, -0.3917 0.2928 0.0208, -0.3917 0.2964 0.0216, -0.3917 0.2963 0.0212, -0.3917 0.2955 0.0202, -0.3917 0.2952 0.0201
            ]
        }
        coordIndex [
            0,1,2,-1,2,1,3,-1,3,4,2,-1,2,4,5,-1,2,5,6,-1,6,5,7,-1,7,5,8,-1,7,8,9,-1,10,11,12,-1,10,12,13,-1,14,12,15,-1,15,12,16,-1,8,17,9,-1,9,17,18,-1,9,18,19,-1,19,18,20,-1,19,20,12,-1,12,20,21,-1,12,21,13,-1,11,22,12,-1,12,22,23,-1,12,23,16,-1,
        ]
    }
}
Shape{
    appearance Appearance {
        material  Material 	{
            diffuseColor 1.0 1.0 1.0
            specularColor 0.5019607843137255 0.5019607843137255 0.5019607843137255
            ambientIntensity 1.0
            transparency 0.0
            shininess 0.5
        }
    }
    geometry IndexedFaceSet {
        ccw TRUE
        solid FALSE
        coord DEF co Coordinate {
            point [
                -0.3917 0.2881 0.0209, -0.3957 0.2881 0.0209, -0.3957 0.2875 0.0205, -0.3957 0.2854 0.02, -0.3917 0.2854 0.02, -0.3917 0.2864 0.0201, -0.3957 0.2864 0.0201, -0.3917 0.2874 0.0205, -0.3917 0.2875 0.0205, -0.3957 0.2881 0.0192, -0.3917 0.2881 0.0192, -0.3917 0.2874 0.019, -0.3957 0.2869 0.0188, -0.3917 0.2856 0.0187, -0.3957 0.2856 0.0187, -0.3917 0.2867 0.0188, -0.3917 0.2869 0.0188, -0.3917 0.2846 0.0188, -0.3957 0.2841 0.0188, -0.3917 0.2841 0.0188, -0.3917 0.2832 0.0192, -0.3957 0.2832 0.0192, -0.3917 0.2828 0.0194, -0.3957 0.2828 0.0194, -0.3917 0.2823 0.0198, -0.3957 0.2823 0.0198, -0.3917 0.282 0.0203, -0.3957 0.282 0.0203, -0.3917 0.2818 0.0208, -0.3957 0.2818 0.0208, -0.3917 0.2817 0.0215, -0.3957 0.2817 0.0215, -0.3917 0.2818 0.0221, -0.3957 0.2818 0.0221, -0.3917 0.2819 0.0226, -0.3957 0.2819 0.0226, -0.3917 0.2823 0.0231, -0.3957 0.2823 0.0231, -0.3917 0.2827 0.0234, -0.3957 0.2827 0.0234, -0.3917 0.2838 0.024, -0.3957 0.2838 0.024, -0.3917 0.2844 0.0243, -0.3957 0.2844 0.0243, -0.3917 0.2854 0.0247, -0.3957 0.2854 0.0247, -0.3917 0.286 0.0251, -0.3957 0.286 0.0251, -0.3917 0.2862 0.0253, -0.3957 0.2862 0.0253, -0.3917 0.2863 0.0255, -0.3957 0.2863 0.0255, -0.3917 0.2864 0.0258, -0.3957 0.2864 0.0258, -0.3917 0.2864 0.026, -0.3957 0.2864 0.026, -0.3917 0.2864 0.0263, -0.3957 0.2864 0.0263, -0.3917 0.2863 0.0265, -0.3957 0.2863 0.0265, -0.3917 0.2861 0.0267, -0.3957 0.2861 0.0267, -0.3917 0.2859 0.0269, -0.3957 0.2859 0.0269, -0.3917 0.2855 0.0271, -0.3957 0.2855 0.0271, -0.3917 0.2851 0.0272, -0.3957 0.2851 0.0272, -0.3917 0.2846 0.0273, -0.3957 0.2846 0.0273, -0.3917 0.2835 0.0272, -0.3957 0.2835 0.0272, -0.3917 0.2825 0.0268, -0.3957 0.2825 0.0268, -0.3917 0.2822 0.0266, -0.3957 0.2822 0.0266, -0.3957 0.2822 0.0282, -0.3917 0.2822 0.0282, -0.3917 0.2834 0.0286, -0.3957 0.2834 0.0286, -0.3917 0.2844 0.0286, -0.3957 0.2844 0.0286, -0.3917 0.2858 0.0285, -0.3957 0.2858 0.0285, -0.3917 0.2867 0.0281, -0.3957 0.2867 0.0281, -0.3917 0.2871 0.0279, -0.3957 0.2871 0.0279, -0.3917 0.2874 0.0276, -0.3957 0.2876 0.0274, -0.3917 0.2876 0.0274, -0.3917 0.2879 0.027, -0.3957 0.2879 0.027, -0.3917 0.2881 0.0264, -0.3957 0.2881 0.0264, -0.3917 0.2881 0.0258, -0.3957 0.2881 0.0258, -0.3917 0.2881 0.0252, -0.3957 0.2881 0.0252, -0.3917 0.2879 0.0247, -0.3957 0.2879 0.0247, -0.3917 0.2877 0.0243, -0.3957 0.2877 0.0243, -0.3917 0.2874 0.0241, -0.3917 0.2874 0.024, -0.3957 0.2866 0.0235, -0.3957 0.2874 0.0241, -0.3917 0.2866 0.0235, -0.3917 0.2856 0.0231, -0.3957 0.2856 0.0231, -0.3917 0.2845 0.0226, -0.3957 0.2845 0.0226, -0.3917 0.2838 0.0222, -0.3957 0.2838 0.0222, -0.3917 0.2836 0.022, -0.3957 0.2836 0.022, -0.3917 0.2835 0.0218, -0.3957 0.2835 0.0218, -0.3917 0.2834 0.0215, -0.3957 0.2834 0.0215, -0.3917 0.2834 0.0213, -0.3957 0.2834 0.0213, -0.3917 0.2835 0.021, -0.3957 0.2835 0.021, -0.3917 0.2835 0.0208, -0.3957 0.2835 0.0208, -0.3917 0.2837 0.0205, -0.3957 0.2837 0.0205, -0.3917 0.2839 0.0204, -0.3957 0.2839 0.0204, -0.3917 0.284 0.0203, -0.3957 0.284 0.0203, -0.3917 0.2845 0.0201, -0.3957 0.2845 0.0201, -0.3917 0.2853 0.02, -0.3957 0.2853 0.02, -0.3957 0.2734 0.0284, -0.3957 0.2717 0.0284, -0.3917 0.2734 0.0284, -0.3917 0.2717 0.0284, -0.3957 0.276 0.0212, -0.3917 0.276 0.0212, -0.3917 0.2761 0.0208, -0.3957 0.2761 0.0208, -0.3917 0.2762 0.0205, -0.3957 0.2762 0.0205, -0.3957 0.2763 0.0205, -0.3917 0.2763 0.0205, -0.3957 0.2765 0.0213, -0.3917 0.2765 0.0213, -0.3957 0.279 0.0284, -0.3917 0.2782 0.0261, -0.3917 0.279 0.0284, -0.3957 0.2808 0.0284, -0.3917 0.2808 0.0284, -0.3957 0.2771 0.0189, -0.3917 0.2782 0.0216, -0.3917 0.2771 0.0189, -0.3917 0.2778 0.0172, -0.3957 0.2778 0.0172, -0.3917 0.2771 0.0188, -0.3917 0.2782 0.0166, -0.3957 0.2782 0.0166, -0.3917 0.2785 0.0162, -0.3957 0.2785 0.0162, -0.3917 0.2788 0.016, -0.3957 0.2788 0.016, -0.3917 0.2791 0.0159, -0.3957 0.2791 0.0159, -0.3917 0.2795 0.0158, -0.3957 0.2795 0.0158, -0.3917 0.2801 0.0159, -0.3957 0.2801 0.0159, -0.3917 0.2805 0.016, -0.3957 0.2805 0.016, -0.3957 0.2805 0.0145, -0.3917 0.2805 0.0145, -0.3917 0.2798 0.0144, -0.3957 0.2798 0.0144, -0.3917 0.2794 0.0144, -0.3957 0.2794 0.0144, -0.3917 0.2787 0.0145, -0.3957 0.2787 0.0145, -0.3917 0.2782 0.0147, -0.3957 0.2781 0.0147, -0.3917 0.2781 0.0147, -0.3917 0.2775 0.0151, -0.3957 0.2775 0.0151, -0.3917 0.2774 0.0152, -0.3957 0.2774 0.0152, -0.3917 0.2768 0.016, -0.3957 0.2768 0.016, -0.3917 0.276 0.0174, -0.3957 0.276 0.0174, -0.3917 0.2755 0.0188, -0.3957 0.2627 0.0204, -0.3957 0.2627 0.0189, -0.3917 0.2627 0.0204, -0.3917 0.2627 0.0189, -0.3957 0.2682 0.0204, -0.3917 0.2657 0.0204, -0.3917 0.2682 0.0204, -0.3957 0.2682 0.0249, -0.3917 0.2682 0.0249, -0.3957 0.2634 0.0249, -0.3917 0.2657 0.0249, -0.3917 0.2634 0.0249, -0.3957 0.2634 0.0264, -0.3917 0.2634 0.0264, -0.3917 0.2682 0.0264, -0.3957 0.2682 0.0264, -0.3917 0.2657 0.0264, -0.3957 0.2682 0.0307, -0.3917 0.2682 0.0307, -0.3917 0.263 0.0307, -0.3957 0.263 0.0307, -0.3917 0.2657 0.0307, -0.3957 0.263 0.0322, -0.3917 0.263 0.0322, -0.3917 0.2699 0.0322, -0.3957 0.2699 0.0322, -0.3917 0.2657 0.0322, -0.3957 0.2699 0.0189, -0.3917 0.2699 0.0189, -0.3917 0.2657 0.0189, -0.3957 0.2512 0.0249, -0.3957 0.2494 0.0248, -0.3957 0.2511 0.0257, -0.3957 0.2493 0.0257, -0.3957 0.2513 0.0272, -0.3957 0.2495 0.0273, -0.3957 0.2517 0.0282, -0.3957 0.2499 0.0287, -0.3957 0.2522 0.029, -0.3957 0.2507 0.0299, -0.3957 0.2526 0.0294, -0.3957 0.2513 0.0305, -0.3957 0.2536 0.0301, -0.3957 0.2526 0.0313, -0.3957 0.2548 0.0305, -0.3957 0.2542 0.032, -0.3957 0.2564 0.0307, -0.3957 0.2564 0.0322, -0.3957 0.2585 0.0307, -0.3957 0.2602 0.0322, -0.3957 0.2585 0.0204, -0.3957 0.2602 0.0189, -0.3957 0.2565 0.0204, -0.3957 0.2565 0.0189, -0.3957 0.2549 0.0206, -0.3957 0.2543 0.0192, -0.3957 0.2537 0.021, -0.3957 0.2527 0.0197, -0.3957 0.2528 0.0215, -0.3957 0.2515 0.0206, -0.3957 0.2526 0.0218, -0.3957 0.2513 0.0208, -0.3957 0.2519 0.0227, -0.3957 0.2504 0.0219, -0.3957 0.2514 0.0237, -0.3957 0.2497 0.0232, -0.3917 0.2565 0.0189, -0.3917 0.2602 0.0189, -0.3917 0.2543 0.0192, -0.3917 0.2527 0.0197, -0.3917 0.2515 0.0206, -0.3917 0.2513 0.0208, -0.3917 0.2504 0.0219, -0.3917 0.2497 0.0232, -0.3917 0.2494 0.0248, -0.3917 0.2493 0.0257, -0.3917 0.2495 0.0273, -0.3917 0.2499 0.0287, -0.3917 0.2507 0.0299, -0.3917 0.2513 0.0305, -0.3917 0.2526 0.0313, -0.3917 0.2542 0.032, -0.3917 0.2564 0.0322, -0.3917 0.2602 0.0322, -0.3917 0.2564 0.0307, -0.3917 0.2585 0.0307, -0.3917 0.2585 0.0204, -0.3917 0.2565 0.0204, -0.3917 0.2526 0.0218, -0.3917 0.2528 0.0215, -0.3917 0.2537 0.021, -0.3917 0.2549 0.0206, -0.3917 0.2511 0.0257, -0.3917 0.2512 0.0249, -0.3917 0.2514 0.0237, -0.3917 0.2519 0.0227, -0.3917 0.2526 0.0294, -0.3917 0.2522 0.029, -0.3917 0.2517 0.0282, -0.3917 0.2513 0.0272, -0.3917 0.2548 0.0305, -0.3917 0.2536 0.0301
            ]
        }
        coordIndex [
            0,1,2,-1,3,4,5,-1,3,5,6,-1,6,5,7,-1,6,7,2,-1,2,7,8,-1,2,8,0,-1,9,1,10,-1,10,1,0,-1,10,11,9,-1,9,11,12,-1,13,14,15,-1,15,14,12,-1,15,12,16,-1,16,12,11,-1,13,17,14,-1,14,17,18,-1,17,19,18,-1,18,19,20,-1,18,20,21,-1,21,20,22,-1,21,22,23,-1,23,22,24,-1,23,24,25,-1,25,24,26,-1,25,26,27,-1,27,26,28,-1,27,28,29,-1,29,28,30,-1,29,30,31,-1,31,30,32,-1,31,32,33,-1,33,32,34,-1,33,34,35,-1,35,34,36,-1,35,36,37,-1,37,36,38,-1,37,38,39,-1,39,38,40,-1,39,40,41,-1,41,40,42,-1,41,42,43,-1,43,42,44,-1,43,44,45,-1,45,44,46,-1,45,46,47,-1,47,46,48,-1,47,48,49,-1,49,48,50,-1,49,50,51,-1,51,50,52,-1,51,52,53,-1,53,52,54,-1,53,54,55,-1,55,54,56,-1,55,56,57,-1,57,56,58,-1,57,58,59,-1,59,58,60,-1,59,60,61,-1,61,60,62,-1,61,62,63,-1,63,62,64,-1,63,64,65,-1,65,64,66,-1,65,66,67,-1,67,66,68,-1,67,68,69,-1,69,68,70,-1,69,70,71,-1,71,70,72,-1,71,72,73,-1,73,72,74,-1,73,74,75,-1,76,75,77,-1,77,75,74,-1,76,77,78,-1,76,78,79,-1,79,78,80,-1,79,80,81,-1,81,80,82,-1,81,82,83,-1,83,82,84,-1,83,84,85,-1,85,84,86,-1,85,86,87,-1,86,88,87,-1,87,88,89,-1,88,90,89,-1,89,90,91,-1,89,91,92,-1,92,91,93,-1,92,93,94,-1,94,93,95,-1,94,95,96,-1,96,95,97,-1,96,97,98,-1,98,97,99,-1,98,99,100,-1,100,99,101,-1,100,101,102,-1,102,101,103,-1,104,105,103,-1,103,105,106,-1,103,106,102,-1,104,107,105,-1,105,107,108,-1,105,108,109,-1,109,108,110,-1,109,110,111,-1,111,110,112,-1,111,112,113,-1,113,112,114,-1,113,114,115,-1,115,114,116,-1,115,116,117,-1,117,116,118,-1,117,118,119,-1,119,118,120,-1,119,120,121,-1,121,120,122,-1,121,122,123,-1,123,122,124,-1,123,124,125,-1,125,124,126,-1,125,126,127,-1,127,126,128,-1,127,128,129,-1,129,128,130,-1,129,130,131,-1,131,130,132,-1,131,132,133,-1,133,132,134,-1,133,134,135,-1,135,134,4,-1,135,4,3,-1,61,63,85,-1,85,63,83,-1,111,43,109,-1,109,43,45,-1,21,23,127,-1,127,23,25,-1,127,25,125,-1,125,25,27,-1,125,27,123,-1,123,27,29,-1,123,29,121,-1,121,29,31,-1,121,31,119,-1,119,31,33,-1,119,33,117,-1,117,33,35,-1,117,35,115,-1,115,35,37,-1,115,37,113,-1,113,37,39,-1,113,39,111,-1,111,39,41,-1,111,41,43,-1,14,3,12,-1,12,3,6,-1,12,6,9,-1,9,6,2,-1,9,2,1,-1,63,65,83,-1,83,65,67,-1,83,67,81,-1,81,67,69,-1,81,69,79,-1,79,69,71,-1,79,71,76,-1,76,71,73,-1,76,73,75,-1,127,129,21,-1,21,129,131,-1,21,131,18,-1,18,131,133,-1,18,133,14,-1,14,133,135,-1,14,135,3,-1,85,87,61,-1,61,87,89,-1,61,89,59,-1,59,89,92,-1,59,92,57,-1,57,92,94,-1,57,94,55,-1,55,94,96,-1,55,96,53,-1,53,96,98,-1,53,98,51,-1,51,98,100,-1,51,100,49,-1,49,100,102,-1,49,102,47,-1,47,102,106,-1,47,106,45,-1,45,106,105,-1,45,105,109,-1,136,137,138,-1,138,137,139,-1,140,136,141,-1,141,136,138,-1,140,141,142,-1,140,142,143,-1,143,142,144,-1,143,144,145,-1,146,145,147,-1,147,145,144,-1,148,146,149,-1,149,146,147,-1,148,149,150,-1,150,149,151,-1,150,151,152,-1,153,150,154,-1,154,150,152,-1,153,154,155,-1,155,154,156,-1,155,156,157,-1,158,159,160,-1,160,159,155,-1,160,155,157,-1,159,158,161,-1,159,161,162,-1,162,161,163,-1,162,163,164,-1,164,163,165,-1,164,165,166,-1,166,165,167,-1,166,167,168,-1,168,167,169,-1,168,169,170,-1,170,169,171,-1,170,171,172,-1,172,171,173,-1,172,173,174,-1,175,174,176,-1,176,174,173,-1,175,176,177,-1,175,177,178,-1,178,177,179,-1,178,179,180,-1,180,179,181,-1,180,181,182,-1,182,181,183,-1,182,183,184,-1,183,185,184,-1,184,185,186,-1,184,186,187,-1,187,186,188,-1,187,188,189,-1,189,188,190,-1,189,190,191,-1,191,190,192,-1,191,192,193,-1,139,137,194,-1,194,137,193,-1,194,193,192,-1,143,145,193,-1,137,136,193,-1,193,136,140,-1,193,140,143,-1,150,153,148,-1,148,153,155,-1,148,155,146,-1,191,162,189,-1,189,162,164,-1,174,175,172,-1,172,175,178,-1,172,178,170,-1,170,178,180,-1,170,180,168,-1,168,180,182,-1,168,182,166,-1,166,182,184,-1,166,184,164,-1,164,184,187,-1,164,187,189,-1,145,146,193,-1,193,146,155,-1,193,155,191,-1,191,155,159,-1,191,159,162,-1,195,196,197,-1,197,196,198,-1,195,197,199,-1,199,197,200,-1,199,200,201,-1,202,199,203,-1,203,199,201,-1,202,203,204,-1,204,203,205,-1,204,205,206,-1,207,204,208,-1,208,204,206,-1,209,210,211,-1,211,210,207,-1,211,207,208,-1,212,210,213,-1,213,210,209,-1,214,215,216,-1,216,215,212,-1,216,212,213,-1,217,215,218,-1,218,215,214,-1,219,220,221,-1,221,220,217,-1,221,217,218,-1,222,220,223,-1,223,220,219,-1,222,223,196,-1,196,223,224,-1,196,224,198,-1,215,217,212,-1,212,217,220,-1,212,220,210,-1,196,195,222,-1,222,195,199,-1,222,199,202,-1,204,207,202,-1,202,207,210,-1,202,210,222,-1,222,210,220,-1,225,226,227,-1,227,226,228,-1,227,228,229,-1,229,228,230,-1,229,230,231,-1,231,230,232,-1,231,232,233,-1,233,232,234,-1,233,234,235,-1,235,234,236,-1,235,236,237,-1,237,236,238,-1,237,238,239,-1,239,238,240,-1,239,240,241,-1,241,240,242,-1,241,242,243,-1,243,242,244,-1,243,244,245,-1,245,244,246,-1,245,246,247,-1,247,246,248,-1,247,248,249,-1,249,248,250,-1,249,250,251,-1,251,250,252,-1,251,252,253,-1,253,252,254,-1,253,254,255,-1,255,254,256,-1,255,256,257,-1,257,256,258,-1,257,258,259,-1,259,258,260,-1,259,260,225,-1,225,260,226,-1,248,246,261,-1,261,246,262,-1,248,261,263,-1,248,263,250,-1,250,263,264,-1,250,264,252,-1,252,264,265,-1,252,265,254,-1,254,265,266,-1,254,266,256,-1,256,266,267,-1,256,267,258,-1,258,267,268,-1,258,268,260,-1,260,268,269,-1,260,269,226,-1,226,269,270,-1,226,270,228,-1,228,270,271,-1,228,271,230,-1,230,271,272,-1,230,272,232,-1,232,272,273,-1,232,273,234,-1,234,273,274,-1,234,274,236,-1,236,274,275,-1,236,275,238,-1,238,275,276,-1,238,276,240,-1,240,276,277,-1,240,277,242,-1,244,242,278,-1,278,242,277,-1,246,244,262,-1,262,244,278,-1,241,243,279,-1,279,243,280,-1,243,245,280,-1,280,245,281,-1,245,247,281,-1,281,247,282,-1,255,283,284,-1,255,284,253,-1,253,284,285,-1,253,285,251,-1,251,285,286,-1,251,286,249,-1,249,286,282,-1,249,282,247,-1,227,287,288,-1,227,288,225,-1,225,288,289,-1,225,289,259,-1,259,289,290,-1,259,290,257,-1,257,290,283,-1,257,283,255,-1,235,291,292,-1,235,292,233,-1,233,292,293,-1,233,293,231,-1,231,293,294,-1,231,294,229,-1,229,294,287,-1,229,287,227,-1,241,279,295,-1,241,295,239,-1,239,295,296,-1,239,296,237,-1,237,296,291,-1,237,291,235,-1,
        ]
    }
}
Shape{
    appearance Appearance {
        material  Material 	{
            diffuseColor 0.20784313725490197 0.20784313725490197 0.20784313725490197
            specularColor 0.01568627450980392 0.01568627450980392 0.01568627450980392
            ambientIntensity 0.298
            transparency 0.0
            shininess 0.5
        }
    }
    geometry IndexedFaceSet {
        ccw TRUE
        solid FALSE
        coord DEF co Coordinate {
            point [
                -0.3917 0.2585 0.0307, -0.3917 0.2585 0.0204, -0.3917 0.2564 0.0307, -0.3917 0.2565 0.0204, -0.3917 0.2549 0.0206, -0.3917 0.2537 0.021, -0.3917 0.2528 0.0215, -0.3917 0.2526 0.0218, -0.3917 0.2519 0.0227, -0.3917 0.2514 0.0237, -0.3917 0.2512 0.0249, -0.3917 0.2511 0.0257, -0.3917 0.2513 0.0272, -0.3917 0.2517 0.0282, -0.3917 0.2522 0.029, -0.3917 0.2526 0.0294, -0.3917 0.2548 0.0305, -0.3917 0.2536 0.0301
            ]
        }
        coordIndex [
            0,1,2,-1,2,1,3,-1,2,3,4,-1,4,5,2,-1,2,5,6,-1,2,6,7,-1,7,8,2,-1,2,8,9,-1,2,9,10,-1,10,11,2,-1,2,11,12,-1,2,12,13,-1,13,14,2,-1,2,14,15,-1,2,15,16,-1,16,15,17,-1,
        ]
    }
}
Shape{
    appearance Appearance {
        material  Material 	{
            diffuseColor 1.0 1.0 1.0
            specularColor 0.5019607843137255 0.5019607843137255 0.5019607843137255
            ambientIntensity 1.0
            transparency 0.0
            shininess 0.5
        }
    }
    geometry IndexedFaceSet {
        ccw TRUE
        solid FALSE
        coord DEF co Coordinate {
            point [
                -0.3957 0.2448 0.024, -0.3957 0.2428 0.0296, -0.3957 0.2435 0.0322, -0.3957 0.2486 0.0189, -0.3957 0.2467 0.0189, -0.3957 0.2454 0.0225, -0.3957 0.2427 0.03, -0.3957 0.2426 0.0305, -0.3957 0.2417 0.0322, -0.3957 0.2426 0.0305, -0.3957 0.2425 0.03, -0.3957 0.2424 0.0296, -0.3957 0.2404 0.024, -0.3957 0.2366 0.0189, -0.3957 0.2385 0.0189, -0.3957 0.2398 0.0225, -0.3917 0.2417 0.0322, -0.3917 0.2366 0.0189, -0.3917 0.2435 0.0322, -0.3917 0.2486 0.0189, -0.3917 0.2467 0.0189, -0.3917 0.2454 0.0225, -0.3917 0.2398 0.0225, -0.3917 0.2385 0.0189, -0.3917 0.2448 0.024, -0.3917 0.2404 0.024, -0.3917 0.2424 0.0296, -0.3917 0.2426 0.0305, -0.3917 0.2425 0.03, -0.3917 0.2426 0.0305, -0.3917 0.2428 0.0296, -0.3917 0.2427 0.03
            ]
        }
        coordIndex [
            0,1,2,-1,3,4,5,-1,1,6,2,-1,2,6,7,-1,2,7,8,-1,8,7,9,-1,8,9,10,-1,10,11,8,-1,8,11,12,-1,8,12,13,-1,14,13,15,-1,15,13,12,-1,15,12,5,-1,5,12,0,-1,5,0,3,-1,3,0,2,-1,8,13,16,-1,16,13,17,-1,2,8,18,-1,18,8,16,-1,3,2,19,-1,19,2,18,-1,4,3,20,-1,20,3,19,-1,5,4,21,-1,21,4,20,-1,15,5,22,-1,22,5,21,-1,14,15,23,-1,23,15,22,-1,13,14,17,-1,17,14,23,-1,0,12,24,-1,24,12,25,-1,12,11,25,-1,25,11,26,-1,9,27,28,-1,9,28,10,-1,10,28,26,-1,10,26,11,-1,9,7,27,-1,27,7,29,-1,1,30,31,-1,1,31,6,-1,6,31,29,-1,6,29,7,-1,1,0,30,-1,30,0,24,-1,
        ]
    }
}
Shape{
    appearance Appearance {
        material  Material 	{
            diffuseColor 0.20784313725490197 0.20784313725490197 0.20784313725490197
            specularColor 0.01568627450980392 0.01568627450980392 0.01568627450980392
            ambientIntensity 0.298
            transparency 0.0
            shininess 0.5
        }
    }
    geometry IndexedFaceSet {
        ccw TRUE
        solid FALSE
        coord DEF co Coordinate {
            point [
                -0.3917 0.2426 0.0305, -0.3917 0.2426 0.0305, -0.3917 0.2425 0.03, -0.3917 0.2427 0.03, -0.3917 0.2424 0.0296, -0.3917 0.2428 0.0296, -0.3917 0.2404 0.024, -0.3917 0.2448 0.024
            ]
        }
        coordIndex [
            0,1,2,-1,2,1,3,-1,2,3,4,-1,4,3,5,-1,4,5,6,-1,6,5,7,-1,
        ]
    }
}
Shape{
    appearance Appearance {
        material  Material 	{
            diffuseColor 1.0 1.0 1.0
            specularColor 0.5019607843137255 0.5019607843137255 0.5019607843137255
            ambientIntensity 1.0
            transparency 0.0
            shininess 0.5
        }
    }
    geometry IndexedFaceSet {
        ccw TRUE
        solid FALSE
        coord DEF co Coordinate {
            point [
                -0.3957 0.3658 0.017, -0.3957 0.3644 0.0152, -0.3957 0.3666 0.0254, -0.3957 0.3349 0.03, -0.3957 0.3379 0.0351, -0.3957 0.3506 0.0284, -0.3957 0.357 0.0256, -0.3957 0.3561 0.0253, -0.3957 0.3683 0.0419, -0.3957 0.3662 0.043, -0.3957 0.3667 0.0488, -0.3957 0.3607 0.0491, -0.3957 0.3578 0.0422, -0.3957 0.3564 0.0452, -0.3957 0.3687 0.0267, -0.3957 0.3679 0.0194, -0.3957 0.3667 0.019, -0.3957 0.3629 0.0493, -0.3957 0.3554 0.0248, -0.3957 0.3548 0.0241, -0.3957 0.3482 0.023, -0.3957 0.3587 0.0256, -0.3957 0.36 0.0314, -0.3957 0.3596 0.0252, -0.3957 0.3621 0.0306, -0.3957 0.3603 0.0247, -0.3957 0.364 0.0292, -0.3957 0.3607 0.0243, -0.3957 0.3656 0.0274, -0.3957 0.3612 0.0235, -0.3957 0.3615 0.0226, -0.3957 0.3615 0.0217, -0.3957 0.3543 0.031, -0.3957 0.3566 0.0316, -0.3957 0.3577 0.0316, -0.3957 0.3588 0.0514, -0.3957 0.3542 0.0477, -0.3957 0.3566 0.0533, -0.3957 0.3517 0.0496, -0.3957 0.3543 0.0547, -0.3957 0.3638 0.0436, -0.3957 0.3628 0.0436, -0.3957 0.3618 0.0492, -0.3957 0.3606 0.0433, -0.3957 0.3585 0.0425, -0.3957 0.3543 0.0233, -0.3957 0.3541 0.0224, -0.3957 0.3482 0.0221, -0.3957 0.3541 0.0215, -0.3957 0.3483 0.0211, -0.3957 0.3299 0.0188, -0.3957 0.3305 0.0246, -0.3957 0.3355 0.0188, -0.3957 0.3348 0.0246, -0.3957 0.336 0.0189, -0.3957 0.3578 0.0257, -0.3957 0.3523 0.0299, -0.3957 0.3318 0.0394, -0.3957 0.3311 0.0394, -0.3957 0.3272 0.0446, -0.3957 0.3295 0.0393, -0.3957 0.3267 0.0444, -0.3957 0.3278 0.0387, -0.3957 0.3239 0.043, -0.3957 0.3263 0.0377, -0.3957 0.3213 0.0408, -0.3957 0.3251 0.0364, -0.3957 0.3194 0.0381, -0.3957 0.3242 0.0347, -0.3957 0.3182 0.0352, -0.3957 0.3237 0.0329, -0.3957 0.3178 0.0321, -0.3957 0.3236 0.032, -0.3957 0.3182 0.0287, -0.3957 0.3238 0.0305, -0.3957 0.3194 0.0257, -0.3957 0.3244 0.0287, -0.3957 0.3213 0.0231, -0.3957 0.3254 0.0272, -0.3957 0.3239 0.0209, -0.3957 0.3263 0.0263, -0.3957 0.3268 0.0195, -0.3957 0.3279 0.0253, -0.3957 0.3296 0.0247, -0.3957 0.3323 0.052, -0.3957 0.336 0.0477, -0.3957 0.3291 0.0484, -0.3957 0.3339 0.0451, -0.3957 0.3324 0.0421, -0.3957 0.372 0.0364, -0.3957 0.3783 0.0348, -0.3957 0.3723 0.0341, -0.3957 0.3783 0.0339, -0.3957 0.3722 0.0326, -0.3957 0.3778 0.0302, -0.3957 0.3715 0.0303, -0.3957 0.3765 0.0267, -0.3957 0.3704 0.0284, -0.3957 0.3743 0.0236, -0.3957 0.3714 0.0211, -0.3957 0.3613 0.0208, -0.3957 0.3609 0.02, -0.3957 0.3352 0.0247, -0.3957 0.3375 0.0198, -0.3957 0.3373 0.0196, -0.3957 0.3499 0.0564, -0.3957 0.3486 0.0508, -0.3957 0.3452 0.057, -0.3957 0.3451 0.0513, -0.3957 0.3413 0.0566, -0.3957 0.3419 0.0509, -0.3957 0.3365 0.0549, -0.3957 0.3389 0.0498, -0.3957 0.3362 0.0479, -0.3957 0.3702 0.0475, -0.3957 0.3732 0.0453, -0.3957 0.3699 0.0404, -0.3957 0.3738 0.0447, -0.3957 0.3712 0.0385, -0.3957 0.3761 0.0418, -0.3957 0.3776 0.0384, -0.3957 0.3488 0.0187, -0.3957 0.3544 0.0206, -0.3957 0.35 0.0166, -0.3957 0.3548 0.0198, -0.3957 0.3514 0.015, -0.3957 0.3553 0.0192, -0.3957 0.3533 0.0137, -0.3957 0.356 0.0187, -0.3957 0.3554 0.0129, -0.3957 0.3569 0.0184, -0.3957 0.3577 0.0126, -0.3957 0.3578 0.0183, -0.3957 0.3581 0.0126, -0.3957 0.358 0.0183, -0.3957 0.3603 0.0129, -0.3957 0.3588 0.0184, -0.3957 0.3625 0.0139, -0.3957 0.3597 0.0188, -0.3957 0.3604 0.0193, -0.3957 0.3349 0.0247, -0.3957 0.3367 0.0192, -0.3957 0.3383 0.0218, -0.3957 0.3382 0.0211, -0.3957 0.3379 0.0204, -0.3957 0.3361 0.0246, -0.3957 0.3367 0.0244, -0.3957 0.3382 0.0222, -0.3957 0.3373 0.024, -0.3957 0.3377 0.0235, -0.3957 0.338 0.0229, -0.3957 0.3353 0.0247, -0.3917 0.3178 0.0321, -0.3917 0.3182 0.0352, -0.3917 0.3185 0.036, -0.3917 0.3194 0.0381, -0.3917 0.3207 0.0399, -0.3917 0.3213 0.0408, -0.3917 0.3239 0.043, -0.3917 0.3267 0.0444, -0.3917 0.3272 0.0446, -0.3917 0.3291 0.0484, -0.3917 0.3323 0.052, -0.3917 0.3345 0.0535, -0.3917 0.3365 0.0549, -0.3917 0.3413 0.0566, -0.3917 0.3452 0.057, -0.3917 0.3566 0.0533, -0.3917 0.3562 0.0535, -0.3917 0.3543 0.0547, -0.3917 0.3499 0.0564, -0.3917 0.3588 0.0514, -0.3917 0.3607 0.0491, -0.3917 0.3618 0.0492, -0.3917 0.3629 0.0493, -0.3917 0.3667 0.0488, -0.3917 0.3702 0.0475, -0.3917 0.3732 0.0453, -0.3917 0.3738 0.0447, -0.3917 0.3783 0.0339, -0.3917 0.3761 0.0418, -0.3917 0.377 0.0399, -0.3917 0.3776 0.0384, -0.3917 0.3781 0.036, -0.3917 0.3783 0.0348, -0.3917 0.3778 0.0302, -0.3917 0.3765 0.0267, -0.3917 0.3743 0.0236, -0.3917 0.3714 0.0211, -0.3917 0.3679 0.0194, -0.3917 0.3667 0.019, -0.3917 0.3666 0.0188, -0.3917 0.3658 0.017, -0.3917 0.3644 0.0152, -0.3917 0.3625 0.0139, -0.3917 0.3616 0.0135, -0.3917 0.3603 0.0129, -0.3917 0.3581 0.0126, -0.3917 0.3577 0.0126, -0.3917 0.3482 0.0221, -0.3917 0.3554 0.0129, -0.3917 0.3538 0.0135, -0.3917 0.3533 0.0137, -0.3917 0.3514 0.015, -0.3917 0.35 0.0166, -0.3917 0.3488 0.0187, -0.3917 0.3488 0.0188, -0.3917 0.3483 0.0211, -0.3917 0.3482 0.023, -0.3917 0.3349 0.03, -0.3917 0.3379 0.0351, -0.3917 0.3506 0.0284, -0.3917 0.3523 0.0299, -0.3917 0.3543 0.031, -0.3917 0.3566 0.0316, -0.3917 0.3577 0.0316, -0.3917 0.36 0.0314, -0.3917 0.3621 0.0306, -0.3917 0.364 0.0292, -0.3917 0.3656 0.0274, -0.3917 0.3666 0.0254, -0.3917 0.3687 0.0267, -0.3917 0.3704 0.0284, -0.3917 0.3715 0.0303, -0.3917 0.3722 0.0326, -0.3917 0.3723 0.0341, -0.3917 0.3721 0.036, -0.3917 0.372 0.0364, -0.3917 0.3712 0.0385, -0.3917 0.3702 0.0399, -0.3917 0.3699 0.0404, -0.3917 0.3683 0.0419, -0.3917 0.3662 0.043, -0.3917 0.3638 0.0436, -0.3917 0.3628 0.0436, -0.3917 0.3606 0.0433, -0.3917 0.3585 0.0425, -0.3917 0.3578 0.0422, -0.3917 0.3564 0.0452, -0.3917 0.3542 0.0477, -0.3917 0.3517 0.0496, -0.3917 0.3486 0.0508, -0.3917 0.3451 0.0513, -0.3917 0.3318 0.0394, -0.3917 0.3319 0.0399, -0.3917 0.3324 0.0421, -0.3917 0.3339 0.0451, -0.3917 0.336 0.0477, -0.3917 0.3362 0.0479, -0.3917 0.3389 0.0498, -0.3917 0.3419 0.0509, -0.3917 0.3311 0.0394, -0.3917 0.3295 0.0393, -0.3917 0.3278 0.0387, -0.3917 0.3263 0.0377, -0.3917 0.3251 0.0364, -0.3917 0.3249 0.036, -0.3917 0.3242 0.0347, -0.3917 0.3237 0.0329, -0.3917 0.3236 0.032, -0.3917 0.3238 0.0305, -0.3917 0.3244 0.0287, -0.3917 0.3254 0.0272, -0.3917 0.3263 0.0263, -0.3917 0.3279 0.0253, -0.3917 0.3296 0.0247, -0.3917 0.3305 0.0246, -0.3917 0.3348 0.0246, -0.3917 0.3349 0.0247, -0.3917 0.3352 0.0247, -0.3917 0.3353 0.0247, -0.3917 0.3361 0.0246, -0.3917 0.3367 0.0244, -0.3917 0.3373 0.024, -0.3917 0.3377 0.0235, -0.3917 0.338 0.0229, -0.3917 0.3382 0.0222, -0.3917 0.3383 0.0218, -0.3917 0.3382 0.0211, -0.3917 0.3379 0.0204, -0.3917 0.3375 0.0198, -0.3917 0.3373 0.0196, -0.3917 0.3367 0.0192, -0.3917 0.336 0.0189, -0.3917 0.3355 0.0188, -0.3917 0.3299 0.0188, -0.3917 0.3268 0.0195, -0.3917 0.3239 0.0209, -0.3917 0.3213 0.0231, -0.3917 0.3194 0.0257, -0.3917 0.3182 0.0287, -0.3917 0.3578 0.0257, -0.3917 0.357 0.0256, -0.3917 0.3561 0.0253, -0.3917 0.3554 0.0248, -0.3917 0.3548 0.0241, -0.3917 0.3543 0.0233, -0.3917 0.3541 0.0224, -0.3917 0.3541 0.0215, -0.3917 0.3544 0.0206, -0.3917 0.3548 0.0198, -0.3917 0.3553 0.0192, -0.3917 0.356 0.0187, -0.3917 0.3569 0.0184, -0.3917 0.3578 0.0183, -0.3917 0.358 0.0183, -0.3917 0.3588 0.0184, -0.3917 0.3597 0.0188, -0.3917 0.3604 0.0193, -0.3917 0.3609 0.02, -0.3917 0.3613 0.0208, -0.3917 0.3615 0.0217, -0.3917 0.3615 0.0226, -0.3917 0.3612 0.0235, -0.3917 0.3607 0.0243, -0.3917 0.3603 0.0247, -0.3917 0.3596 0.0252, -0.3917 0.3587 0.0256
            ]
        }
        coordIndex [
            0,1,2,-1,3,4,5,-1,6,7,3,-1,8,9,10,-1,11,12,13,-1,14,15,2,-1,2,15,16,-1,2,16,0,-1,10,9,17,-1,7,18,3,-1,3,18,19,-1,3,19,20,-1,21,22,23,-1,23,22,24,-1,23,24,25,-1,25,24,26,-1,25,26,27,-1,27,26,28,-1,27,28,29,-1,29,28,2,-1,29,2,30,-1,30,2,31,-1,32,33,21,-1,21,33,34,-1,21,34,22,-1,11,13,35,-1,35,13,36,-1,35,36,37,-1,37,36,38,-1,37,38,39,-1,9,40,17,-1,17,40,41,-1,17,41,42,-1,42,41,43,-1,42,43,11,-1,11,43,44,-1,11,44,12,-1,19,45,20,-1,20,45,46,-1,20,46,47,-1,47,46,48,-1,47,48,49,-1,50,51,52,-1,52,51,53,-1,52,53,54,-1,6,3,55,-1,55,3,5,-1,55,5,21,-1,21,5,56,-1,21,56,32,-1,57,58,59,-1,59,58,60,-1,59,60,61,-1,61,60,62,-1,61,62,63,-1,63,62,64,-1,63,64,65,-1,65,64,66,-1,65,66,67,-1,67,66,68,-1,67,68,69,-1,69,68,70,-1,69,70,71,-1,71,70,72,-1,71,72,73,-1,73,72,74,-1,73,74,75,-1,75,74,76,-1,75,76,77,-1,77,76,78,-1,77,78,79,-1,79,78,80,-1,79,80,81,-1,81,80,82,-1,81,82,50,-1,50,82,83,-1,50,83,51,-1,84,85,86,-1,86,85,87,-1,86,87,59,-1,59,87,88,-1,59,88,57,-1,89,90,91,-1,91,90,92,-1,91,92,93,-1,93,92,94,-1,93,94,95,-1,95,94,96,-1,95,96,97,-1,97,96,98,-1,97,98,14,-1,14,98,99,-1,14,99,15,-1,31,2,100,-1,100,2,1,-1,100,1,101,-1,102,103,104,-1,39,38,105,-1,105,38,106,-1,105,106,107,-1,107,106,108,-1,107,108,109,-1,109,108,110,-1,109,110,111,-1,111,110,112,-1,111,112,84,-1,84,112,113,-1,84,113,85,-1,10,114,8,-1,8,114,115,-1,8,115,116,-1,116,115,117,-1,116,117,118,-1,118,117,119,-1,118,119,89,-1,89,119,120,-1,89,120,90,-1,49,48,121,-1,121,48,122,-1,121,122,123,-1,123,122,124,-1,123,124,125,-1,125,124,126,-1,125,126,127,-1,127,126,128,-1,127,128,129,-1,129,128,130,-1,129,130,131,-1,131,130,132,-1,131,132,133,-1,133,132,134,-1,133,134,135,-1,135,134,136,-1,135,136,137,-1,137,136,138,-1,137,138,1,-1,1,138,139,-1,1,139,101,-1,53,140,54,-1,54,140,102,-1,54,102,141,-1,141,102,104,-1,142,143,102,-1,102,143,144,-1,102,144,103,-1,145,146,147,-1,146,148,147,-1,147,148,149,-1,147,149,150,-1,142,102,147,-1,147,102,151,-1,147,151,145,-1,71,152,153,-1,71,153,69,-1,69,153,154,-1,69,154,67,-1,154,155,67,-1,67,155,156,-1,67,156,65,-1,156,157,65,-1,65,157,158,-1,65,158,63,-1,63,158,159,-1,63,159,61,-1,61,159,160,-1,61,160,59,-1,59,160,161,-1,59,161,86,-1,86,161,162,-1,86,162,84,-1,84,162,111,-1,111,162,163,-1,163,164,111,-1,111,164,165,-1,111,165,109,-1,109,165,166,-1,109,166,107,-1,167,37,168,-1,168,37,39,-1,168,39,169,-1,169,39,105,-1,169,105,170,-1,170,105,107,-1,170,107,166,-1,37,167,171,-1,37,171,35,-1,35,171,172,-1,35,172,11,-1,11,172,173,-1,11,173,42,-1,42,173,174,-1,42,174,17,-1,17,174,175,-1,17,175,10,-1,10,175,176,-1,10,176,114,-1,114,176,177,-1,114,177,115,-1,115,177,178,-1,115,178,117,-1,179,92,90,-1,117,178,180,-1,117,180,119,-1,119,180,181,-1,119,181,120,-1,181,182,120,-1,120,182,183,-1,120,183,90,-1,90,183,184,-1,90,184,179,-1,92,179,185,-1,92,185,94,-1,94,185,186,-1,94,186,96,-1,96,186,187,-1,96,187,98,-1,98,187,188,-1,98,188,99,-1,99,188,189,-1,99,189,15,-1,15,189,190,-1,15,190,16,-1,16,190,191,-1,16,191,0,-1,191,192,0,-1,0,192,193,-1,0,193,1,-1,1,193,194,-1,1,194,137,-1,137,194,195,-1,137,195,135,-1,195,196,135,-1,135,196,197,-1,135,197,133,-1,133,197,198,-1,133,198,131,-1,199,47,49,-1,131,198,200,-1,131,200,129,-1,129,200,201,-1,129,201,127,-1,201,202,127,-1,127,202,203,-1,127,203,125,-1,125,203,204,-1,125,204,123,-1,123,204,205,-1,123,205,121,-1,121,205,206,-1,121,206,49,-1,49,206,207,-1,49,207,199,-1,20,47,208,-1,208,47,199,-1,3,20,209,-1,209,20,208,-1,4,3,210,-1,210,3,209,-1,5,4,211,-1,211,4,210,-1,5,211,212,-1,5,212,56,-1,56,212,213,-1,56,213,32,-1,32,213,214,-1,32,214,33,-1,33,214,215,-1,33,215,34,-1,34,215,216,-1,34,216,22,-1,22,216,217,-1,22,217,24,-1,24,217,218,-1,24,218,26,-1,26,218,219,-1,26,219,28,-1,28,219,220,-1,28,220,2,-1,2,220,221,-1,2,221,14,-1,14,221,222,-1,14,222,97,-1,97,222,223,-1,97,223,95,-1,95,223,224,-1,95,224,93,-1,93,224,225,-1,93,225,91,-1,225,226,91,-1,91,226,89,-1,226,227,89,-1,89,227,228,-1,89,228,118,-1,118,228,229,-1,118,229,116,-1,229,230,116,-1,116,230,231,-1,116,231,8,-1,8,231,232,-1,8,232,9,-1,9,232,233,-1,9,233,40,-1,40,233,234,-1,40,234,41,-1,41,234,235,-1,41,235,43,-1,43,235,236,-1,43,236,44,-1,44,236,237,-1,44,237,12,-1,12,237,238,-1,12,238,13,-1,13,238,239,-1,13,239,36,-1,36,239,240,-1,36,240,38,-1,38,240,241,-1,38,241,106,-1,106,241,242,-1,106,242,108,-1,243,57,244,-1,244,57,88,-1,244,88,245,-1,245,88,87,-1,245,87,246,-1,246,87,85,-1,246,85,247,-1,247,85,113,-1,247,113,248,-1,248,113,112,-1,248,112,249,-1,249,112,110,-1,249,110,250,-1,250,110,108,-1,250,108,242,-1,58,57,251,-1,251,57,243,-1,58,251,252,-1,58,252,60,-1,60,252,253,-1,60,253,62,-1,62,253,254,-1,62,254,64,-1,64,254,255,-1,64,255,66,-1,66,255,256,-1,66,256,68,-1,256,257,68,-1,68,257,258,-1,68,258,70,-1,70,258,259,-1,70,259,72,-1,72,259,260,-1,72,260,74,-1,74,260,261,-1,74,261,76,-1,76,261,262,-1,76,262,78,-1,78,262,263,-1,78,263,80,-1,80,263,264,-1,80,264,82,-1,82,264,265,-1,82,265,83,-1,83,265,266,-1,83,266,51,-1,53,51,267,-1,267,51,266,-1,53,267,268,-1,53,268,140,-1,140,268,269,-1,140,269,102,-1,102,269,270,-1,102,270,151,-1,151,270,271,-1,151,271,145,-1,145,271,272,-1,145,272,146,-1,146,272,273,-1,146,273,148,-1,148,273,274,-1,148,274,149,-1,149,274,275,-1,149,275,150,-1,150,275,276,-1,150,276,147,-1,147,276,277,-1,147,277,142,-1,142,277,278,-1,142,278,143,-1,143,278,279,-1,143,279,144,-1,144,279,280,-1,144,280,103,-1,103,280,281,-1,103,281,104,-1,104,281,282,-1,104,282,141,-1,141,282,283,-1,141,283,54,-1,54,283,284,-1,54,284,52,-1,50,52,285,-1,285,52,284,-1,50,285,286,-1,50,286,81,-1,81,286,287,-1,81,287,79,-1,79,287,288,-1,79,288,77,-1,77,288,289,-1,77,289,75,-1,75,289,290,-1,75,290,73,-1,73,290,152,-1,73,152,71,-1,55,291,292,-1,55,292,6,-1,6,292,293,-1,6,293,7,-1,7,293,294,-1,7,294,18,-1,18,294,295,-1,18,295,19,-1,19,295,296,-1,19,296,45,-1,45,296,297,-1,45,297,46,-1,46,297,298,-1,46,298,48,-1,48,298,299,-1,48,299,122,-1,122,299,300,-1,122,300,124,-1,124,300,301,-1,124,301,126,-1,126,301,302,-1,126,302,128,-1,128,302,303,-1,128,303,130,-1,130,303,304,-1,130,304,132,-1,132,304,305,-1,132,305,134,-1,134,305,306,-1,134,306,136,-1,136,306,307,-1,136,307,138,-1,138,307,308,-1,138,308,139,-1,139,308,309,-1,139,309,101,-1,101,309,310,-1,101,310,100,-1,100,310,311,-1,100,311,31,-1,31,311,312,-1,31,312,30,-1,30,312,313,-1,30,313,29,-1,29,313,314,-1,29,314,27,-1,27,314,315,-1,27,315,25,-1,25,315,316,-1,25,316,23,-1,23,316,317,-1,23,317,21,-1,21,317,291,-1,21,291,55,-1,
        ]
    }
}
Shape{
    appearance Appearance {
        material  Material 	{
            diffuseColor 0.20784313725490197 0.20784313725490197 0.20784313725490197
            specularColor 0.01568627450980392 0.01568627450980392 0.01568627450980392
            ambientIntensity 0.298
            transparency 0.0
            shininess 0.5
        }
    }
    geometry IndexedFaceSet {
        ccw TRUE
        solid FALSE
        coord DEF co Coordinate {
            point [
                -0.3917 0.358 0.0183, -0.3917 0.3603 0.0247, -0.3917 0.3607 0.0243, -0.3917 0.3569 0.0184, -0.3917 0.356 0.0187, -0.3917 0.357 0.0256, -0.3917 0.3578 0.0257, -0.3917 0.3587 0.0256, -0.3917 0.3596 0.0252, -0.3917 0.3613 0.0208, -0.3917 0.3609 0.02, -0.3917 0.3604 0.0193, -0.3917 0.3578 0.0183, -0.3917 0.3612 0.0235, -0.3917 0.3615 0.0226, -0.3917 0.3615 0.0217, -0.3917 0.3597 0.0188, -0.3917 0.3588 0.0184, -0.3917 0.3553 0.0192, -0.3917 0.3548 0.0198, -0.3917 0.3544 0.0206, -0.3917 0.3541 0.0215, -0.3917 0.3541 0.0224, -0.3917 0.3543 0.0233, -0.3917 0.3548 0.0241, -0.3917 0.3554 0.0248, -0.3917 0.3561 0.0253
            ]
        }
        coordIndex [
            0,1,2,-1,3,4,5,-1,6,7,0,-1,0,7,8,-1,0,8,1,-1,9,10,2,-1,2,10,11,-1,6,0,5,-1,5,0,12,-1,5,12,3,-1,13,14,2,-1,2,14,15,-1,2,15,9,-1,11,16,2,-1,2,16,17,-1,2,17,0,-1,4,18,5,-1,5,18,19,-1,5,19,20,-1,20,21,5,-1,5,21,22,-1,5,22,23,-1,23,24,5,-1,5,24,25,-1,5,25,26,-1,
        ]
    }
}
Shape{
    appearance Appearance {
        material  Material 	{
            diffuseColor 1.0 1.0 1.0
            specularColor 0.5019607843137255 0.5019607843137255 0.5019607843137255
            ambientIntensity 1.0
            transparency 0.0
            shininess 0.5
        }
    }
    geometry IndexedFaceSet {
        ccw TRUE
        solid FALSE
        coord DEF co Coordinate {
            point [
                -0.2779 -0.3266 0.2283, -0.2779 -0.3266 0.2323, -0.2794 -0.3151 0.2283, -0.2794 -0.3151 0.2323, -0.2838 -0.3043 0.2283, -0.2838 -0.3043 0.2323, -0.2909 -0.2951 0.2283, -0.2909 -0.2951 0.2323, -0.3001 -0.2881 0.2283, -0.3001 -0.2881 0.2323, -0.3108 -0.2836 0.2283, -0.3108 -0.2836 0.2323, -0.3223 -0.2821 0.2283, -0.3223 -0.2821 0.2323, -0.3339 -0.2836 0.2283, -0.3339 -0.2836 0.2323, -0.3446 -0.2881 0.2283, -0.3446 -0.2881 0.2323, -0.3538 -0.2951 0.2283, -0.3538 -0.2951 0.2323, -0.3609 -0.3043 0.2283, -0.3609 -0.3043 0.2323, -0.3653 -0.3151 0.2283, -0.3653 -0.3151 0.2323, -0.3668 -0.3266 0.2283, -0.3668 -0.3266 0.2323, -0.3653 -0.3381 0.2283, -0.3653 -0.3381 0.2323, -0.3609 -0.3488 0.2283, -0.3609 -0.3488 0.2323, -0.3538 -0.358 0.2283, -0.3538 -0.358 0.2323, -0.3446 -0.3651 0.2283, -0.3446 -0.3651 0.2323, -0.3339 -0.3696 0.2283, -0.3339 -0.3696 0.2323, -0.3223 -0.3711 0.2283, -0.3223 -0.3711 0.2323, -0.3108 -0.3696 0.2283, -0.3108 -0.3696 0.2323, -0.3001 -0.3651 0.2283, -0.3001 -0.3651 0.2323, -0.2909 -0.358 0.2283, -0.2909 -0.358 0.2323, -0.2838 -0.3488 0.2283, -0.2838 -0.3488 0.2323, -0.2794 -0.3381 0.2283, -0.2794 -0.3381 0.2323, -0.3223 -0.3266 0.2283
            ]
        }
        coordIndex [
            0,1,2,-1,2,1,3,-1,2,3,4,-1,4,3,5,-1,4,5,6,-1,6,5,7,-1,6,7,8,-1,8,7,9,-1,8,9,10,-1,10,9,11,-1,10,11,12,-1,12,11,13,-1,12,13,14,-1,14,13,15,-1,14,15,16,-1,16,15,17,-1,16,17,18,-1,18,17,19,-1,18,19,20,-1,20,19,21,-1,20,21,22,-1,22,21,23,-1,22,23,24,-1,24,23,25,-1,24,25,26,-1,26,25,27,-1,26,27,28,-1,28,27,29,-1,28,29,30,-1,30,29,31,-1,30,31,32,-1,32,31,33,-1,32,33,34,-1,34,33,35,-1,34,35,36,-1,36,35,37,-1,36,37,38,-1,38,37,39,-1,38,39,40,-1,40,39,41,-1,40,41,42,-1,42,41,43,-1,42,43,44,-1,44,43,45,-1,44,45,46,-1,46,45,47,-1,46,47,0,-1,0,47,1,-1,44,46,48,-1,48,46,0,-1,48,0,2,-1,38,40,48,-1,48,40,42,-1,48,42,44,-1,32,34,48,-1,48,34,36,-1,48,36,38,-1,26,28,48,-1,48,28,30,-1,48,30,32,-1,20,22,48,-1,48,22,24,-1,48,24,26,-1,14,16,48,-1,48,16,18,-1,48,18,20,-1,8,10,48,-1,48,10,12,-1,48,12,14,-1,2,4,48,-1,48,4,6,-1,48,6,8,-1,
        ]
    }
}