#VRML V2.0 utf8
# 3D model generated by easyeda2kicad.py (https://github.com/uPesy/easyeda2kicad.py)

Shape{
    appearance Appearance {
        material  Material 	{
            diffuseColor 0.2235294117647059 0.2235294117647059 0.2235294117647059
            specularColor 0.11372549019607843 0.11372549019607843 0.11372549019607843
            ambientIntensity 0.2235
            transparency 0.0
            shininess 0.5
        }
    }
    geometry IndexedFaceSet {
        ccw TRUE
        solid FALSE
        coord DEF co Coordinate {
            point [
                0.7874 -0.7874 0.0079, 0.5394 -0.7874 0.0079, 0.5394 -0.6303 0.0079, 0.248 -0.6303 0.0079, 0.248 -0.7874 0.0079, 0.1457 -0.7874 0.0079, -0.7874 -0.248 0.0079, -0.7874 -0.1457 0.0079, -0.6303 -0.248 0.0079, -0.6303 -0.1457 0.0079, 0.4921 -0.4921 0.0079, 0.4449 -0.6303 0.0079, -0.4921 -0.4921 0.0079, 0.1457 -0.6303 0.0079, 0.0512 -0.6303 0.0079, 0.7874 0.7874 0.0079, 0.7874 0.5394 0.0079, 0.6303 0.5394 0.0079, 0.4921 0.4921 0.0079, 0.6303 0.4449 0.0079, -0.6303 0.5394 0.0079, -0.7874 0.5394 0.0079, -0.5394 0.6303 0.0079, -0.7874 0.7874 0.0079, -0.5394 0.7874 0.0079, -0.7874 -0.4449 0.0079, -0.7874 -0.3425 0.0079, -0.6303 -0.4449 0.0079, -0.6303 -0.3425 0.0079, -0.4921 0.3543 0.0079, -0.6303 -0.0512 0.0079, 0.3425 -0.6303 0.0079, 0.3425 -0.7874 0.0079, 0.4449 -0.7874 0.0079, 0.6303 0.248 0.0079, 0.7874 0.248 0.0079, 0.7874 0.1457 0.0079, -0.3425 0.7874 0.0079, -0.3425 0.6303 0.0079, -0.4449 0.7874 0.0079, -0.4449 0.6303 0.0079, 0.6303 0.1457 0.0079, 0.6303 0.0512 0.0079, -0.6303 0.1457 0.0079, -0.7874 0.1457 0.0079, -0.7874 0.248 0.0079, -0.1457 -0.6303 0.0079, -0.1457 -0.7874 0.0079, -0.248 -0.7874 0.0079, 0.6303 0.3425 0.0079, 0.7874 0.3425 0.0079, 0.7874 0.4449 0.0079, -0.248 0.7874 0.0079, -0.1457 0.7874 0.0079, -0.248 0.6303 0.0079, -0.1457 0.6303 0.0079, -0.6303 0.248 0.0079, -0.6303 0.3425 0.0079, -0.248 -0.6303 0.0079, -0.3425 -0.6303 0.0079, -0.3543 0.4921 0.0079, -0.0512 0.6303 0.0079, -0.6303 0.0512 0.0079, -0.7874 0.0512 0.0079, -0.7874 -0.0512 0.0079, -0.6303 0.4449 0.0079, -0.7874 0.4449 0.0079, -0.7874 0.3425 0.0079, -0.0512 -0.6303 0.0079, -0.0512 -0.7874 0.0079, 0.0512 -0.7874 0.0079, 0.6303 -0.1457 0.0079, 0.7874 -0.1457 0.0079, 0.7874 -0.248 0.0079, 0.6303 -0.248 0.0079, 0.6303 -0.3425 0.0079, 0.1457 0.6303 0.0079, 0.1457 0.7874 0.0079, 0.248 0.7874 0.0079, 0.6303 -0.0512 0.0079, 0.7874 -0.0512 0.0079, 0.7874 0.0512 0.0079, 0.248 0.6303 0.0079, 0.3425 0.6303 0.0079, -0.5394 -0.6303 0.0079, -0.5394 -0.7874 0.0079, -0.6303 -0.5394 0.0079, -0.7874 -0.7874 0.0079, -0.7874 -0.5394 0.0079, 0.0512 0.6303 0.0079, 0.0512 0.7874 0.0079, -0.0512 0.7874 0.0079, -0.4449 -0.6303 0.0079, -0.4449 -0.7874 0.0079, -0.3425 -0.7874 0.0079, 0.7874 -0.5394 0.0079, 0.6303 -0.5394 0.0079, 0.6303 -0.4449 0.0079, 0.7874 -0.4449 0.0079, 0.7874 -0.3425 0.0079, 0.5394 0.7874 0.0079, 0.5394 0.6303 0.0079, 0.4449 0.6303 0.0079, 0.4449 0.7874 0.0079, 0.3425 0.7874 0.0079, -0.7874 0.248 0.0787, -0.7874 0.1457 0.0787, -0.7874 0.7874 0.3622, -0.7874 0.5394 0.0787, -0.7874 0.4449 0.0787, -0.7874 0.3425 0.0787, -0.7874 -0.7874 0.3622, -0.7874 0.0512 0.0787, -0.7874 -0.1457 0.0787, -0.7874 -0.248 0.0787, -0.7874 -0.3425 0.0787, -0.7874 -0.0512 0.0787, -0.7874 -0.5394 0.0787, -0.7874 -0.4449 0.0787, -0.5394 -0.7874 0.0787, -0.4449 -0.7874 0.0787, -0.3425 -0.7874 0.0787, -0.248 -0.7874 0.0787, 0.7874 -0.7874 0.3622, -0.0512 -0.7874 0.0787, 0.0512 -0.7874 0.0787, 0.1457 -0.7874 0.0787, -0.1457 -0.7874 0.0787, 0.248 -0.7874 0.0787, 0.3425 -0.7874 0.0787, 0.5394 -0.7874 0.0787, 0.4449 -0.7874 0.0787, 0.7874 -0.5394 0.0787, 0.7874 -0.4449 0.0787, 0.7874 -0.248 0.0787, 0.7874 -0.1457 0.0787, 0.7874 0.1457 0.0787, 0.7874 -0.3425 0.0787, 0.7874 0.7874 0.3622, 0.7874 -0.0512 0.0787, 0.7874 0.248 0.0787, 0.7874 0.3425 0.0787, 0.7874 0.0512 0.0787, 0.7874 0.5394 0.0787, 0.7874 0.4449 0.0787, -0.3425 0.7874 0.0787, -0.5394 0.7874 0.0787, -0.4449 0.7874 0.0787, 0.5394 0.7874 0.0787, 0.4449 0.7874 0.0787, 0.3425 0.7874 0.0787, 0.248 0.7874 0.0787, 0.0512 0.7874 0.0787, -0.0512 0.7874 0.0787, -0.1457 0.7874 0.0787, 0.1457 0.7874 0.0787, -0.248 0.7874 0.0787, 0.3862 -0.4923 0.3622, 0.3862 0.0137 0.3622, 0.34 0.0137 0.3622, -0.494 0.5945 0.3622, -0.4917 0.5765 0.3622, -0.1946 0.7874 0.3622, 0.3862 0.7874 0.3622, 0.34 0.7874 0.3622, 0.7874 0.0137 0.3622, 0.5231 0.7874 0.3622, 0.4417 -0.6171 0.3622, 0.4397 -0.6174 0.3622, 0.4517 -0.6174 0.3622, 0.4045 -0.4927 0.3622, 0.4082 -0.4923 0.3622, 0.3891 -0.4923 0.3622, 0.4169 -0.5408 0.3622, 0.4138 -0.5411 0.3622, 0.4297 -0.5411 0.3622, 0.1025 -0.5589 0.3622, 0.1032 -0.5552 0.3622, -0.1946 -0.5552 0.3622, 0.2985 -0.5303 0.3622, 0.3077 -0.5382 0.3622, 0.34 -0.4923 0.3622, 0.34 -0.5411 0.3622, 0.2528 -0.4873 0.3622, 0.2602 -0.4923 0.3622, 0.268 -0.4976 0.3622, 0.2792 -0.5104 0.3622, 0.2865 -0.5245 0.3622, 0.2884 -0.5252 0.3622, 0.1889 -0.488 0.3622, 0.2046 -0.4819 0.3622, -0.1946 0.0137 0.3622, 0.2216 -0.4798 0.3622, 0.2357 -0.4813 0.3622, 0.1184 -0.5239 0.3622, 0.1214 -0.5211 0.3622, -0.1946 -0.4923 0.3622, 0.1819 -0.4923 0.3622, 0.1806 -0.4931 0.3622, 0.1328 -0.5134 0.3622, 0.1455 -0.5088 0.3622, 0.1577 -0.5075 0.3622, 0.1726 -0.5 0.3622, 0.1616 -0.5077 0.3622, 0.1656 -0.5082 0.3622, -0.1946 -0.5411 0.3622, 0.1051 -0.5455 0.3622, 0.1072 -0.5411 0.3622, 0.1109 -0.5333 0.3622, 0.1383 -0.6146 0.3622, 0.1261 -0.6083 0.3622, -0.1946 -0.6174 0.3622, 0.1167 -0.6 0.3622, 0.1155 -0.5987 0.3622, 0.1083 -0.5877 0.3622, 0.1037 -0.5749 0.3622, 0.1024 -0.5628 0.3622, 0.144 -0.6164 0.3622, 0.1445 -0.6174 0.3622, 0.1475 -0.6237 0.3622, 0.1525 -0.63 0.3622, 0.1906 -0.6364 0.3622, 0.1847 -0.6386 0.3622, 0.34 -0.7874 0.3622, 0.1765 -0.6397 0.3622, -0.1946 -0.7874 0.3622, 0.1752 -0.6396 0.3622, 0.1671 -0.6384 0.3622, -0.1946 -0.6364 0.3622, 0.1624 -0.6364 0.3622, 0.1592 -0.6351 0.3622, 0.2085 -0.6174 0.3622, 0.2085 -0.6174 0.3622, 0.34 -0.6364 0.3622, 0.2044 -0.6251 0.3622, 0.1992 -0.631 0.3622, 0.1924 -0.6357 0.3622, 0.3076 -0.6017 0.3622, 0.2981 -0.6098 0.3622, 0.34 -0.6174 0.3622, 0.3143 -0.5926 0.3622, 0.2021 -0.5826 0.3622, 0.2479 -0.5587 0.3622, 0.1961 -0.5772 0.3622, 0.1889 -0.5733 0.3622, 0.2522 -0.5972 0.3622, 0.2546 -0.5963 0.3622, 0.2585 -0.5768 0.3622, 0.2989 -0.5667 0.3622, 0.2974 -0.5601 0.3622, 0.2947 -0.5552 0.3622, 0.1247 -0.5552 0.3622, 0.2501 -0.5986 0.3622, 0.2547 -0.6168 0.3622, 0.2524 -0.616 0.3622, 0.2501 -0.6145 0.3622, 0.2492 -0.6135 0.3622, 0.1267 -0.5757 0.3622, 0.1308 -0.5827 0.3622, 0.1482 -0.5862 0.3622, 0.1369 -0.589 0.3622, 0.1444 -0.5935 0.3622, 0.1608 -0.5749 0.3622, 0.1538 -0.5797 0.3622, 0.1239 -0.5621 0.3622, 0.1243 -0.5673 0.3622, 0.2571 -0.5959 0.3622, 0.2574 -0.596 0.3622, 0.2585 -0.5962 0.3622, 0.2876 -0.6148 0.3622, 0.2766 -0.6171 0.3622, 0.2564 -0.6171 0.3622, 0.1683 -0.572 0.3622, 0.1765 -0.571 0.3622, 0.1807 -0.5713 0.3622, 0.3188 -0.5584 0.3622, 0.3203 -0.5693 0.3622, 0.34 -0.5552 0.3622, 0.3203 -0.5707 0.3622, 0.3186 -0.5818 0.3622, 0.2465 -0.6065 0.3622, 0.2466 -0.6055 0.3622, 0.2106 -0.6021 0.3622, 0.2472 -0.6029 0.3622, 0.2484 -0.6005 0.3622, 0.2477 -0.6113 0.3622, 0.2468 -0.609 0.3622, 0.2105 -0.609 0.3622, 0.2106 -0.6055 0.3622, 0.2922 -0.5877 0.3622, 0.2959 -0.5824 0.3622, 0.2983 -0.5763 0.3622, 0.2991 -0.5696 0.3622, 0.2591 -0.5963 0.3622, 0.2745 -0.5963 0.3622, 0.2806 -0.5951 0.3622, 0.2866 -0.5923 0.3622, 0.2917 -0.5882 0.3622, 0.2697 -0.543 0.3622, 0.1278 -0.5463 0.3622, 0.1249 -0.5539 0.3622, 0.2725 -0.543 0.3622, 0.2942 -0.5542 0.3622, 0.2902 -0.5498 0.3622, 0.2849 -0.5461 0.3622, 0.279 -0.5438 0.3622, 0.2556 -0.5142 0.3622, 0.2535 -0.5122 0.3622, 0.1761 -0.5331 0.3622, 0.2631 -0.5236 0.3622, 0.1314 -0.5411 0.3622, 0.1736 -0.5317 0.3622, 0.2694 -0.5411 0.3622, 0.2681 -0.5348 0.3622, 0.2438 -0.5056 0.3622, 0.2331 -0.5016 0.3622, 0.1811 -0.5227 0.3622, 0.2219 -0.5003 0.3622, 0.166 -0.5289 0.3622, 0.158 -0.528 0.3622, 0.1545 -0.5281 0.3622, 0.2093 -0.5019 0.3622, 0.1981 -0.5065 0.3622, 0.1886 -0.5135 0.3622, 0.1461 -0.5301 0.3622, 0.1385 -0.5342 0.3622, 0.1326 -0.5394 0.3622, 0.3098 -0.5411 0.3622, 0.3147 -0.5479 0.3622, 0.3175 -0.5552 0.3622, 0.5407 -0.5276 0.3622, 0.5231 -0.5276 0.3622, 0.5456 -0.5407 0.3622, 0.5231 -0.5411 0.3622, 0.5524 -0.5407 0.3622, 0.7874 -0.5411 0.3622, 0.7874 -0.4923 0.3622, 0.5341 -0.4927 0.3622, 0.5231 -0.4923 0.3622, 0.5207 -0.5276 0.3622, 0.5161 -0.5407 0.3622, 0.5079 -0.5411 0.3622, 0.5092 -0.5407 0.3622, 0.5079 -0.4923 0.3622, 0.5231 -0.5044 0.3622, 0.5275 -0.4927 0.3622, 0.4517 -0.5191 0.3622, 0.4387 -0.5191 0.3622, 0.4517 -0.5353 0.3622, 0.4387 -0.5353 0.3622, 0.4629 -0.4923 0.3622, 0.4517 -0.4923 0.3622, 0.4573 -0.4927 0.3622, 0.4517 -0.4927 0.3622, 0.4573 -0.4982 0.3622, 0.4584 -0.5353 0.3622, 0.4629 -0.5411 0.3622, 0.4584 -0.5407 0.3622, 0.4517 -0.5411 0.3622, 0.4559 -0.5191 0.3622, 0.4559 -0.5136 0.3622, 0.4517 -0.5136 0.3622, 0.4517 -0.4982 0.3622, 0.4387 -0.4982 0.3622, 0.4387 -0.5136 0.3622, 0.4325 -0.4927 0.3622, 0.4297 -0.4923 0.3622, 0.4325 -0.5407 0.3622, 0.4229 -0.4938 0.3622, 0.4179 -0.4924 0.3622, 0.4166 -0.4923 0.3622, 0.4517 -0.5407 0.3622, 0.4229 -0.5003 0.3622, 0.4221 -0.5392 0.3622, 0.4128 -0.5359 0.3622, 0.4182 -0.5349 0.3622, 0.4229 -0.5328 0.3622, 0.4229 -0.5387 0.3622, 0.4175 -0.4982 0.3622, 0.4116 -0.4975 0.3622, 0.3934 -0.5173 0.3622, 0.3958 -0.5277 0.3622, 0.3982 -0.531 0.3622, 0.3991 -0.5319 0.3622, 0.4022 -0.5341 0.3622, 0.4057 -0.5354 0.3622, 0.4105 -0.536 0.3622, 0.3985 -0.5028 0.3622, 0.3959 -0.5065 0.3622, 0.4018 -0.5001 0.3622, 0.4055 -0.4984 0.3622, 0.4097 -0.4976 0.3622, 0.3942 -0.5106 0.3622, 0.4224 -0.5 0.3622, 0.3935 -0.519 0.3622, 0.3943 -0.5238 0.3622, 0.3891 0.0137 0.3622, 0.4115 -0.4919 0.3622, 0.4297 0.0137 0.3622, 0.4116 -0.4919 0.3622, 0.3881 -0.5088 0.3622, 0.3891 -0.5066 0.3622, 0.3904 -0.5035 0.3622, 0.3939 -0.499 0.3622, 0.395 -0.4979 0.3622, 0.3995 -0.4947 0.3622, 0.3891 -0.5285 0.3622, 0.3879 -0.5255 0.3622, 0.3862 -0.5411 0.3622, 0.3869 -0.5176 0.3622, 0.387 -0.5151 0.3622, 0.397 -0.5382 0.3622, 0.3931 -0.535 0.3622, 0.3891 -0.5411 0.3622, 0.3899 -0.5305 0.3622, 0.4096 -0.5415 0.3622, 0.4067 -0.5414 0.3622, 0.3891 -0.5552 0.3622, 0.4054 -0.5411 0.3622, 0.4015 -0.5403 0.3622, 0.5052 -0.5248 0.3622, 0.5029 -0.5297 0.3622, 0.4894 -0.4923 0.3622, 0.4894 -0.4939 0.3622, 0.4943 -0.4956 0.3622, 0.4894 -0.5395 0.3622, 0.4894 -0.5411 0.3622, 0.4943 -0.5376 0.3622, 0.4993 -0.534 0.3622, 0.4993 -0.4991 0.3622, 0.501 -0.5007 0.3622, 0.5039 -0.5049 0.3622, 0.5057 -0.5094 0.3622, 0.5065 -0.5161 0.3622, 0.5064 -0.5192 0.3622, 0.4811 -0.4927 0.3622, 0.4885 -0.4935 0.3622, 0.4889 -0.5397 0.3622, 0.4806 -0.5407 0.3622, 0.4674 -0.5407 0.3622, 0.4674 -0.4927 0.3622, 0.4076 -0.6166 0.3622, 0.4054 -0.6174 0.3622, 0.4128 -0.6169 0.3622, 0.3936 -0.6006 0.3622, 0.3946 -0.5909 0.3622, 0.3924 -0.6023 0.3622, 0.3916 -0.6045 0.3622, 0.4098 -0.6151 0.3622, 0.3985 -0.6173 0.3622, 0.3962 -0.6165 0.3622, 0.3891 -0.6174 0.3622, 0.4079 -0.587 0.3622, 0.4058 -0.5867 0.3622, 0.4026 -0.5966 0.3622, 0.3955 -0.599 0.3622, 0.398 -0.5977 0.3622, 0.3987 -0.5883 0.3622, 0.4025 -0.5871 0.3622, 0.3942 -0.6151 0.3622, 0.3936 -0.6145 0.3622, 0.3923 -0.6126 0.3622, 0.4128 -0.6116 0.3622, 0.4126 -0.6116 0.3622, 0.4117 -0.6131 0.3622, 0.3916 -0.6106 0.3622, 0.3912 -0.6078 0.3622, 0.3946 -0.585 0.3622, 0.3958 -0.5843 0.3622, 0.4003 -0.5826 0.3622, 0.4064 -0.5819 0.3622, 0.4297 -0.5984 0.3622, 0.427 -0.6095 0.3622, 0.4297 -0.5984 0.3622, 0.4291 -0.6109 0.3622, 0.4297 -0.6111 0.3622, 0.4287 -0.5973 0.3622, 0.4279 -0.5961 0.3622, 0.4188 -0.5949 0.3622, 0.4273 -0.5942 0.3622, 0.4182 -0.5898 0.3622, 0.427 -0.5919 0.3622, 0.4128 -0.5951 0.3622, 0.4126 -0.5925 0.3622, 0.412 -0.5904 0.3622, 0.4113 -0.5891 0.3622, 0.4064 -0.5819 0.3622, 0.4106 -0.5823 0.3622, 0.413 -0.5832 0.3622, 0.4103 -0.5881 0.3622, 0.4093 -0.5874 0.3622, 0.4297 -0.5552 0.3622, 0.4289 -0.5864 0.3622, 0.4149 -0.5844 0.3622, 0.4272 -0.59 0.3622, 0.4278 -0.588 0.3622, 0.4172 -0.5872 0.3622, 0.4159 -0.5854 0.3622, 0.4052 -0.6174 0.3622, 0.4297 -0.6364 0.3622, 0.3891 -0.6364 0.3622, 0.4021 -0.6178 0.3622, 0.3986 -0.6174 0.3622, 0.427 -0.6157 0.3622, 0.4188 -0.6169 0.3622, 0.4297 -0.6167 0.3622, 0.4297 -0.6174 0.3622, 0.4312 -0.6172 0.3622, 0.4324 -0.6174 0.3622, 0.4363 -0.6178 0.3622, 0.4485 -0.5834 0.3622, 0.4485 -0.5892 0.3622, 0.4297 -0.5856 0.3622, 0.4308 -0.5846 0.3622, 0.4323 -0.5837 0.3622, 0.4498 -0.61 0.3622, 0.4491 -0.6119 0.3622, 0.448 -0.6135 0.3622, 0.4355 -0.5824 0.3622, 0.4404 -0.5819 0.3622, 0.4517 -0.5552 0.3622, 0.4446 -0.5822 0.3622, 0.4481 -0.6019 0.3622, 0.4492 -0.6036 0.3622, 0.4499 -0.6054 0.3622, 0.4501 -0.6076 0.3622, 0.4463 -0.615 0.3622, 0.4449 -0.6159 0.3622, 0.4398 -0.5867 0.3622, 0.438 -0.5869 0.3622, 0.4332 -0.5914 0.3622, 0.4364 -0.5873 0.3622, 0.435 -0.588 0.3622, 0.4332 -0.5922 0.3622, 0.4335 -0.5931 0.3622, 0.4339 -0.5939 0.3622, 0.4345 -0.5945 0.3622, 0.4366 -0.5959 0.3622, 0.444 -0.5872 0.3622, 0.4404 -0.5975 0.3622, 0.4474 -0.5886 0.3622, 0.4427 -0.5984 0.3622, 0.4467 -0.6007 0.3622, 0.4341 -0.5888 0.3622, 0.4336 -0.5896 0.3622, 0.4333 -0.5904 0.3622, 0.4329 -0.6124 0.3622, 0.4361 -0.6019 0.3622, 0.4325 -0.6002 0.3622, 0.4369 -0.6128 0.3622, 0.4371 -0.6128 0.3622, 0.4401 -0.6035 0.3622, 0.4402 -0.6125 0.3622, 0.444 -0.6082 0.3622, 0.4439 -0.6075 0.3622, 0.4418 -0.6119 0.3622, 0.4423 -0.6116 0.3622, 0.443 -0.611 0.3622, 0.4435 -0.6102 0.3622, 0.4438 -0.6094 0.3622, 0.4436 -0.6065 0.3622, 0.4432 -0.6057 0.3622, 0.4424 -0.6049 0.3622, 0.48 -0.5826 0.3622, 0.4862 -0.5826 0.3622, 0.4894 -0.5552 0.3622, 0.469 -0.6084 0.3622, 0.4697 -0.6113 0.3622, 0.4699 -0.6113 0.3622, 0.4629 -0.5552 0.3622, 0.4629 -0.591 0.3622, 0.4706 -0.6085 0.3622, 0.4701 -0.6101 0.3622, 0.4629 -0.6174 0.3622, 0.4629 -0.6071 0.3622, 0.4533 -0.5826 0.3622, 0.46 -0.5826 0.3622, 0.4667 -0.6169 0.3622, 0.4665 -0.6174 0.3622, 0.4641 -0.6231 0.3622, 0.4517 -0.6364 0.3622, 0.4545 -0.6326 0.3622, 0.4545 -0.6273 0.3622, 0.4557 -0.6277 0.3622, 0.4579 -0.628 0.3622, 0.4581 -0.628 0.3622, 0.4595 -0.6277 0.3622, 0.4608 -0.6272 0.3622, 0.4617 -0.6266 0.3622, 0.4629 -0.6253 0.3622, 0.4629 -0.6253 0.3622, 0.4629 -0.632 0.3622, 0.461 -0.6328 0.3622, 0.4629 -0.6364 0.3622, 0.4584 -0.6331 0.3622, 0.4571 -0.6331 0.3622, 0.4894 -0.6364 0.3622, 0.4654 -0.6304 0.3622, 0.4634 -0.6318 0.3622, 0.4725 -0.6174 0.3622, 0.4706 -0.6221 0.3622, 0.4679 -0.6275 0.3622, 0.5079 -0.5953 0.3622, 0.4989 -0.5953 0.3622, 0.5079 -0.6115 0.3622, 0.4989 -0.6115 0.3622, 0.5174 -0.5689 0.3622, 0.5174 -0.5744 0.3622, 0.5231 -0.5552 0.3622, 0.5185 -0.6115 0.3622, 0.5231 -0.6174 0.3622, 0.5185 -0.6169 0.3622, 0.5079 -0.6174 0.3622, 0.5161 -0.5953 0.3622, 0.5161 -0.5898 0.3622, 0.5079 -0.5898 0.3622, 0.5079 -0.5744 0.3622, 0.4989 -0.5744 0.3622, 0.4989 -0.5898 0.3622, 0.5079 -0.6169 0.3622, 0.4927 -0.6169 0.3622, 0.4894 -0.6174 0.3622, 0.4927 -0.5689 0.3622, 0.5079 -0.5689 0.3622, 0.5079 -0.5552 0.3622, 0.5231 0.0137 0.3622, 0.5079 0.7874 0.3622, 0.5079 0.0137 0.3622, 0.4894 0.7874 0.3622, 0.4894 0.0137 0.3622, 0.4629 0.7874 0.3622, 0.4629 0.0137 0.3622, 0.4517 0.7874 0.3622, 0.4517 0.0137 0.3622, 0.4297 0.7874 0.3622, 0.3891 0.7874 0.3622, -0.6099 0.6255 0.3622, -0.5956 0.6366 0.3622, -0.6302 0.5765 0.3622, -0.6279 0.5945 0.3622, -0.6209 0.6112 0.3622, -0.5263 0.6366 0.3622, -0.5119 0.6255 0.3622, -0.5009 0.6112 0.3622, -0.494 0.5586 0.3622, -0.6279 0.5586 0.3622, -0.7874 0.0137 0.3622, -0.6209 0.5419 0.3622, -0.5789 0.6435 0.3622, -0.5609 0.6458 0.3622, -0.543 0.6435 0.3622, -0.5009 0.5419 0.3622, -0.5119 0.5276 0.3622, -0.5263 0.5165 0.3622, -0.543 0.5096 0.3622, -0.5609 0.5073 0.3622, -0.5789 0.5096 0.3622, -0.5956 0.5165 0.3622, -0.6099 0.5276 0.3622, 0.385 -0.5353 0.3622, 0.385 -0.5407 0.3622, 0.3596 -0.5407 0.3622, 0.3596 -0.4927 0.3622, 0.3658 -0.4927 0.3622, 0.3658 -0.5353 0.3622, 0.3862 -0.5552 0.3622, 0.5762 -0.6169 0.3622, 0.5694 -0.6169 0.3622, 0.6057 -0.6169 0.3622, 0.6008 -0.6038 0.3622, 0.5808 -0.6038 0.3622, 0.6126 -0.6169 0.3622, 0.7874 -0.6174 0.3622, 0.5943 -0.5689 0.3622, 0.7874 -0.5552 0.3622, 0.5654 -0.601 0.3622, 0.5666 -0.5954 0.3622, 0.5877 -0.5689 0.3622, 0.5667 -0.5923 0.3622, 0.5659 -0.5857 0.3622, 0.563 -0.606 0.3622, 0.5595 -0.6102 0.3622, 0.5545 -0.6138 0.3622, 0.5276 -0.5689 0.3622, 0.5276 -0.6169 0.3622, 0.5408 -0.6169 0.3622, 0.549 -0.6159 0.3622, 0.5595 -0.5753 0.3622, 0.5611 -0.5769 0.3622, 0.5641 -0.5811 0.3622, 0.5413 -0.5689 0.3622, 0.5486 -0.5697 0.3622, 0.5544 -0.5718 0.3622, 0.3862 -0.6174 0.3622, 0.3596 -0.6169 0.3622, 0.3855 -0.6169 0.3622, 0.3855 -0.6115 0.3622, 0.3844 -0.5744 0.3622, 0.3596 -0.5689 0.3622, 0.3844 -0.5689 0.3622, 0.3658 -0.5953 0.3622, 0.3658 -0.6115 0.3622, 0.383 -0.5953 0.3622, 0.383 -0.5898 0.3622, 0.3658 -0.5898 0.3622, 0.3658 -0.5744 0.3622, 0.5079 -0.6364 0.3622, 0.5231 -0.6364 0.3622, 0.7874 -0.6364 0.3622, 0.3862 -0.6364 0.3622, 0.3862 -0.7874 0.3622, 0.3891 -0.7874 0.3622, 0.4297 -0.7874 0.3622, 0.4517 -0.7874 0.3622, 0.4629 -0.7874 0.3622, 0.4894 -0.7874 0.3622, 0.5079 -0.7874 0.3622, 0.5231 -0.7874 0.3622, -0.7874 -0.4923 0.3622, -0.7874 -0.5411 0.3622, -0.7874 -0.5552 0.3622, -0.7874 -0.6174 0.3622, -0.7874 -0.6364 0.3622
            ]
        }
        coordIndex [
            0,1,2,-1,3,4,5,-1,6,7,8,-1,8,7,9,-1,0,2,10,-1,10,2,11,-1,10,11,12,-1,13,14,12,-1,15,16,17,-1,15,17,18,-1,18,17,19,-1,18,19,10,-1,20,21,22,-1,22,21,23,-1,22,23,24,-1,25,26,27,-1,27,26,28,-1,27,28,12,-1,12,28,8,-1,12,8,29,-1,29,8,9,-1,29,9,30,-1,5,13,3,-1,3,13,12,-1,3,12,31,-1,31,12,11,-1,31,11,32,-1,32,11,33,-1,34,35,36,-1,37,38,39,-1,39,38,40,-1,41,42,10,-1,43,44,45,-1,46,47,48,-1,36,41,34,-1,34,41,10,-1,34,10,49,-1,49,10,19,-1,49,19,50,-1,50,19,51,-1,52,53,54,-1,54,53,55,-1,56,57,29,-1,58,59,12,-1,40,38,60,-1,60,38,54,-1,60,54,18,-1,18,54,55,-1,18,55,61,-1,45,56,43,-1,43,56,29,-1,43,29,62,-1,62,29,30,-1,62,30,63,-1,63,30,64,-1,22,40,20,-1,20,40,60,-1,20,60,65,-1,65,60,29,-1,65,29,66,-1,66,29,57,-1,66,57,67,-1,48,58,46,-1,46,58,12,-1,46,12,68,-1,68,12,14,-1,68,14,69,-1,69,14,70,-1,71,72,73,-1,74,75,10,-1,76,77,78,-1,73,74,71,-1,71,74,10,-1,71,10,79,-1,79,10,42,-1,79,42,80,-1,80,42,81,-1,82,83,18,-1,84,85,86,-1,86,85,87,-1,86,87,88,-1,78,82,76,-1,76,82,18,-1,76,18,89,-1,89,18,61,-1,89,61,90,-1,90,61,91,-1,86,27,84,-1,84,27,12,-1,84,12,92,-1,92,12,59,-1,92,59,93,-1,93,59,94,-1,95,0,96,-1,96,0,10,-1,96,10,97,-1,97,10,75,-1,97,75,98,-1,98,75,99,-1,100,15,101,-1,101,15,18,-1,101,18,102,-1,102,18,83,-1,102,83,103,-1,103,83,104,-1,45,44,105,-1,105,44,106,-1,23,21,107,-1,107,21,108,-1,107,108,109,-1,66,67,109,-1,109,67,110,-1,109,110,107,-1,107,110,105,-1,107,105,111,-1,111,105,106,-1,111,106,112,-1,113,7,6,-1,114,115,111,-1,6,114,113,-1,113,114,111,-1,113,111,116,-1,116,111,112,-1,116,112,64,-1,64,112,63,-1,88,87,117,-1,117,87,111,-1,117,111,118,-1,118,111,115,-1,118,115,25,-1,25,115,26,-1,87,85,111,-1,111,85,119,-1,111,119,120,-1,93,94,120,-1,120,94,121,-1,120,121,111,-1,111,121,122,-1,111,122,123,-1,124,69,70,-1,125,126,123,-1,70,125,124,-1,124,125,123,-1,124,123,127,-1,127,123,122,-1,127,122,47,-1,47,122,48,-1,5,4,126,-1,126,4,128,-1,126,128,123,-1,123,128,129,-1,1,0,130,-1,130,0,123,-1,130,123,131,-1,131,123,129,-1,131,129,33,-1,33,129,32,-1,0,95,123,-1,123,95,132,-1,123,132,133,-1,73,72,134,-1,134,72,135,-1,136,36,35,-1,98,99,133,-1,133,99,137,-1,133,137,123,-1,123,137,134,-1,123,134,138,-1,138,134,135,-1,138,135,139,-1,140,141,138,-1,35,140,136,-1,136,140,138,-1,136,138,142,-1,142,138,139,-1,142,139,81,-1,81,139,80,-1,16,15,143,-1,143,15,138,-1,143,138,144,-1,144,138,141,-1,144,141,51,-1,51,141,50,-1,145,37,39,-1,24,23,146,-1,146,23,107,-1,146,107,147,-1,15,100,138,-1,138,100,148,-1,138,148,149,-1,103,104,149,-1,149,104,150,-1,149,150,138,-1,138,150,151,-1,138,151,107,-1,152,90,91,-1,153,154,107,-1,91,153,152,-1,152,153,107,-1,152,107,155,-1,155,107,151,-1,155,151,77,-1,77,151,78,-1,39,147,145,-1,145,147,107,-1,145,107,156,-1,156,107,154,-1,156,154,52,-1,52,154,53,-1,157,158,159,-1,160,161,162,-1,158,163,164,-1,165,138,166,-1,167,168,169,-1,170,171,172,-1,173,174,175,-1,176,177,178,-1,179,180,181,-1,181,180,182,-1,183,184,181,-1,181,184,185,-1,181,185,186,-1,186,187,181,-1,181,187,188,-1,181,188,179,-1,189,190,191,-1,191,190,159,-1,159,190,192,-1,159,192,193,-1,194,195,196,-1,189,191,197,-1,197,191,196,-1,197,196,198,-1,195,199,196,-1,196,199,200,-1,196,200,198,-1,198,200,201,-1,198,201,202,-1,202,201,203,-1,202,203,204,-1,178,177,205,-1,177,206,205,-1,205,206,207,-1,205,207,196,-1,196,207,208,-1,196,208,194,-1,209,210,211,-1,211,210,212,-1,211,212,213,-1,213,214,211,-1,211,214,215,-1,211,215,178,-1,178,215,216,-1,178,216,176,-1,217,209,218,-1,218,209,211,-1,218,211,219,-1,219,211,220,-1,221,222,223,-1,223,222,224,-1,223,224,225,-1,224,226,225,-1,225,226,227,-1,225,227,228,-1,228,227,229,-1,228,229,211,-1,211,229,230,-1,211,230,220,-1,231,232,233,-1,233,232,234,-1,234,235,233,-1,233,235,236,-1,233,236,221,-1,237,238,239,-1,237,239,240,-1,241,242,243,-1,243,242,244,-1,245,246,247,-1,248,249,242,-1,242,249,250,-1,242,250,251,-1,245,247,252,-1,253,254,231,-1,231,254,255,-1,231,255,256,-1,257,258,259,-1,259,258,260,-1,259,260,261,-1,262,251,263,-1,263,251,264,-1,263,264,259,-1,259,264,265,-1,259,265,257,-1,246,266,247,-1,247,266,267,-1,247,267,268,-1,238,269,239,-1,239,269,270,-1,239,270,231,-1,231,270,271,-1,231,271,253,-1,262,272,251,-1,251,272,273,-1,251,273,242,-1,242,273,274,-1,242,274,244,-1,275,276,277,-1,277,276,278,-1,277,278,239,-1,239,278,279,-1,239,279,240,-1,280,281,282,-1,282,281,283,-1,282,283,247,-1,247,283,284,-1,247,284,252,-1,256,285,231,-1,231,285,286,-1,231,286,287,-1,287,286,280,-1,287,280,288,-1,288,280,282,-1,289,290,247,-1,247,290,291,-1,247,291,242,-1,242,291,292,-1,242,292,248,-1,268,293,247,-1,247,293,294,-1,247,294,295,-1,295,296,247,-1,247,296,297,-1,247,297,289,-1,298,299,300,-1,300,251,298,-1,298,251,250,-1,298,250,301,-1,301,250,302,-1,302,303,301,-1,301,303,304,-1,301,304,305,-1,306,307,308,-1,306,308,309,-1,310,308,311,-1,299,298,310,-1,310,298,312,-1,310,312,308,-1,308,312,313,-1,308,313,309,-1,307,314,308,-1,308,314,315,-1,308,315,316,-1,316,315,317,-1,311,318,310,-1,310,318,319,-1,310,319,320,-1,321,322,317,-1,317,322,323,-1,317,323,316,-1,324,325,320,-1,320,325,326,-1,320,326,310,-1,180,327,182,-1,182,327,328,-1,182,328,277,-1,277,328,329,-1,277,329,275,-1,330,331,332,-1,332,331,333,-1,332,333,334,-1,335,336,337,-1,337,336,338,-1,331,339,333,-1,333,339,340,-1,333,340,341,-1,341,340,342,-1,341,342,343,-1,343,342,344,-1,343,344,338,-1,338,344,345,-1,338,345,337,-1,346,347,348,-1,348,347,349,-1,350,351,352,-1,352,351,353,-1,352,354,350,-1,350,354,355,-1,350,355,356,-1,356,355,357,-1,356,357,358,-1,346,348,359,-1,359,348,355,-1,359,355,360,-1,360,355,354,-1,360,354,361,-1,354,362,361,-1,361,362,363,-1,361,363,364,-1,353,351,365,-1,365,351,366,-1,365,366,367,-1,368,366,369,-1,369,366,370,-1,357,371,358,-1,358,371,367,-1,358,367,175,-1,175,367,366,-1,175,366,372,-1,372,366,368,-1,173,175,373,-1,374,375,372,-1,372,375,376,-1,372,376,175,-1,175,376,377,-1,175,377,373,-1,378,379,380,-1,381,382,372,-1,372,382,383,-1,372,383,384,-1,384,385,372,-1,372,385,386,-1,372,386,374,-1,387,388,389,-1,389,388,390,-1,379,391,380,-1,380,391,390,-1,380,390,392,-1,392,390,388,-1,378,380,393,-1,393,380,394,-1,393,394,372,-1,372,394,395,-1,372,395,381,-1,172,171,396,-1,396,171,397,-1,396,397,398,-1,398,397,399,-1,398,399,370,-1,400,401,172,-1,172,401,402,-1,172,402,403,-1,403,404,172,-1,172,404,405,-1,172,405,170,-1,406,407,408,-1,408,407,409,-1,409,410,157,-1,411,412,413,-1,413,412,414,-1,415,416,417,-1,417,416,418,-1,417,418,413,-1,413,418,419,-1,413,419,411,-1,420,421,341,-1,422,423,343,-1,343,423,424,-1,425,426,427,-1,427,426,341,-1,427,341,428,-1,428,341,421,-1,424,429,343,-1,343,429,430,-1,343,430,431,-1,431,432,343,-1,343,432,433,-1,343,433,341,-1,341,433,434,-1,341,434,420,-1,350,435,422,-1,422,435,436,-1,422,436,423,-1,425,437,426,-1,426,437,438,-1,426,438,356,-1,356,438,439,-1,356,439,350,-1,350,439,440,-1,350,440,435,-1,441,442,443,-1,444,445,446,-1,446,445,447,-1,441,443,448,-1,449,450,451,-1,452,453,454,-1,444,455,445,-1,445,455,456,-1,445,456,457,-1,457,456,454,-1,457,454,458,-1,458,454,453,-1,450,459,451,-1,451,459,460,-1,451,460,461,-1,462,463,443,-1,443,463,464,-1,443,464,448,-1,461,465,451,-1,451,465,466,-1,451,466,417,-1,417,466,447,-1,417,447,467,-1,467,447,445,-1,467,468,417,-1,417,468,469,-1,417,469,470,-1,471,472,473,-1,473,472,474,-1,473,474,475,-1,476,477,478,-1,478,477,479,-1,478,479,480,-1,480,479,481,-1,482,483,454,-1,454,483,484,-1,454,484,485,-1,470,486,417,-1,417,486,487,-1,417,487,488,-1,485,489,454,-1,454,489,490,-1,454,490,452,-1,174,415,491,-1,491,415,417,-1,491,417,492,-1,492,417,488,-1,492,488,493,-1,481,494,480,-1,480,494,495,-1,480,495,496,-1,496,495,492,-1,496,492,497,-1,497,492,493,-1,442,498,499,-1,499,498,500,-1,500,498,501,-1,500,501,502,-1,471,476,472,-1,472,476,478,-1,472,478,503,-1,503,478,504,-1,503,504,505,-1,505,504,506,-1,505,506,507,-1,507,506,508,-1,509,508,499,-1,499,508,506,-1,499,506,442,-1,442,506,504,-1,442,504,443,-1,510,511,169,-1,492,512,491,-1,491,512,513,-1,491,513,514,-1,515,516,169,-1,169,516,517,-1,514,518,491,-1,491,518,519,-1,491,519,520,-1,520,519,521,-1,520,521,510,-1,522,523,511,-1,511,523,524,-1,511,524,169,-1,169,524,525,-1,169,525,515,-1,517,526,169,-1,169,526,527,-1,169,527,167,-1,528,529,530,-1,530,529,531,-1,530,531,532,-1,530,533,528,-1,528,533,534,-1,528,534,535,-1,535,536,528,-1,528,536,537,-1,528,537,538,-1,538,537,539,-1,538,539,540,-1,540,539,541,-1,540,541,511,-1,511,541,542,-1,511,542,522,-1,543,544,532,-1,532,544,545,-1,532,545,530,-1,546,547,475,-1,475,547,548,-1,475,548,473,-1,546,549,547,-1,547,549,550,-1,547,550,551,-1,551,550,552,-1,551,553,554,-1,552,555,551,-1,551,555,556,-1,551,556,557,-1,557,558,551,-1,551,558,559,-1,551,559,553,-1,554,560,551,-1,551,560,561,-1,551,561,562,-1,563,564,565,-1,566,567,568,-1,565,569,563,-1,563,569,570,-1,563,570,571,-1,571,570,566,-1,571,566,572,-1,572,566,568,-1,573,574,169,-1,169,574,575,-1,510,169,520,-1,520,169,575,-1,520,575,569,-1,569,575,576,-1,569,576,570,-1,577,574,578,-1,578,574,573,-1,578,573,579,-1,580,581,582,-1,583,584,169,-1,509,499,168,-1,168,499,580,-1,168,580,169,-1,169,580,582,-1,169,582,583,-1,584,585,169,-1,169,585,586,-1,169,586,587,-1,587,588,169,-1,169,588,589,-1,169,589,573,-1,573,589,590,-1,573,590,579,-1,591,592,593,-1,593,592,594,-1,593,594,580,-1,580,594,595,-1,580,595,581,-1,596,597,593,-1,593,597,598,-1,593,598,591,-1,599,600,596,-1,596,600,601,-1,596,601,597,-1,602,603,604,-1,604,603,605,-1,606,607,608,-1,608,607,609,-1,608,609,610,-1,610,609,611,-1,610,611,612,-1,602,604,613,-1,613,604,609,-1,613,609,614,-1,614,609,607,-1,614,607,615,-1,607,616,615,-1,615,616,617,-1,615,617,618,-1,611,619,612,-1,612,619,620,-1,612,620,621,-1,621,620,622,-1,606,608,623,-1,623,608,624,-1,623,624,622,-1,622,624,565,-1,622,565,621,-1,621,565,564,-1,621,564,599,-1,165,166,625,-1,625,166,626,-1,625,626,627,-1,627,626,628,-1,627,628,629,-1,629,628,630,-1,629,630,631,-1,631,630,632,-1,631,632,633,-1,633,632,634,-1,633,634,398,-1,398,634,635,-1,398,635,396,-1,636,637,107,-1,638,639,107,-1,107,639,640,-1,107,640,636,-1,641,642,162,-1,162,642,643,-1,162,643,160,-1,158,164,159,-1,159,164,162,-1,159,162,191,-1,191,162,161,-1,191,161,644,-1,638,107,645,-1,645,107,646,-1,645,646,647,-1,637,648,107,-1,107,648,649,-1,107,649,162,-1,162,649,650,-1,162,650,641,-1,644,651,191,-1,191,651,652,-1,191,652,653,-1,654,655,646,-1,646,655,656,-1,656,657,646,-1,646,657,658,-1,646,658,647,-1,370,366,398,-1,398,366,351,-1,398,351,633,-1,633,351,350,-1,633,350,631,-1,631,350,422,-1,631,422,629,-1,629,422,343,-1,629,343,627,-1,627,343,338,-1,627,338,625,-1,625,338,336,-1,625,336,165,-1,635,163,396,-1,396,163,158,-1,396,158,172,-1,172,158,157,-1,172,157,400,-1,400,157,410,-1,409,157,408,-1,408,157,659,-1,408,659,660,-1,182,661,181,-1,181,661,662,-1,181,662,663,-1,664,659,663,-1,663,659,157,-1,663,157,181,-1,181,157,159,-1,181,159,183,-1,183,159,193,-1,174,491,175,-1,175,491,520,-1,175,520,358,-1,358,520,569,-1,358,569,356,-1,356,569,565,-1,356,565,426,-1,426,565,624,-1,426,624,341,-1,341,624,608,-1,341,608,333,-1,660,661,408,-1,408,661,182,-1,408,182,665,-1,665,182,277,-1,666,667,610,-1,668,669,670,-1,670,666,668,-1,668,666,610,-1,668,610,671,-1,671,610,672,-1,671,672,673,-1,673,672,674,-1,675,667,676,-1,676,667,677,-1,676,677,678,-1,678,677,679,-1,675,680,667,-1,667,680,681,-1,667,681,682,-1,683,608,684,-1,684,608,610,-1,684,610,685,-1,685,610,667,-1,685,667,686,-1,686,667,682,-1,337,334,335,-1,335,334,333,-1,335,333,674,-1,674,333,608,-1,674,608,673,-1,673,608,677,-1,687,688,677,-1,677,688,689,-1,677,689,679,-1,683,690,608,-1,608,690,691,-1,608,691,677,-1,677,691,692,-1,677,692,687,-1,414,406,413,-1,413,406,408,-1,413,408,417,-1,417,408,665,-1,417,665,451,-1,451,665,693,-1,239,693,694,-1,694,693,695,-1,695,693,696,-1,696,693,665,-1,696,665,697,-1,239,694,277,-1,277,694,698,-1,277,698,665,-1,665,698,699,-1,665,699,697,-1,700,701,702,-1,702,701,696,-1,702,696,703,-1,703,696,697,-1,703,697,704,-1,704,697,705,-1,599,596,621,-1,621,596,706,-1,621,706,612,-1,612,706,707,-1,612,707,610,-1,610,707,708,-1,610,708,672,-1,231,233,239,-1,239,233,709,-1,239,709,693,-1,693,709,500,-1,693,500,451,-1,451,500,502,-1,451,502,449,-1,221,223,233,-1,233,223,710,-1,233,710,709,-1,709,710,711,-1,709,711,500,-1,500,711,712,-1,500,712,499,-1,499,712,713,-1,499,713,580,-1,580,713,714,-1,580,714,593,-1,593,714,715,-1,593,715,596,-1,596,715,716,-1,596,716,706,-1,706,716,717,-1,706,717,707,-1,707,717,123,-1,707,123,708,-1,653,654,191,-1,191,654,646,-1,191,646,196,-1,196,646,718,-1,196,718,205,-1,205,718,719,-1,205,719,178,-1,178,719,720,-1,178,720,211,-1,211,720,721,-1,211,721,228,-1,228,721,722,-1,228,722,225,-1,225,722,111,-1,
        ]
    }
}
Shape{
    appearance Appearance {
        material  Material 	{
            diffuseColor 1.0 1.0 1.0
            specularColor 0.5019607843137255 0.5019607843137255 0.5019607843137255
            ambientIntensity 1.0
            transparency 0.0
            shininess 0.5
        }
    }
    geometry IndexedFaceSet {
        ccw TRUE
        solid FALSE
        coord DEF co Coordinate {
            point [
                -0.4917 0.5765 0.3618, -0.4917 0.5765 0.3622, -0.494 0.5945 0.3618, -0.494 0.5945 0.3622, -0.5009 0.6112 0.3618, -0.5009 0.6112 0.3622, -0.5119 0.6255 0.3618, -0.5119 0.6255 0.3622, -0.5263 0.6366 0.3618, -0.5263 0.6366 0.3622, -0.543 0.6435 0.3618, -0.543 0.6435 0.3622, -0.5609 0.6458 0.3618, -0.5609 0.6458 0.3622, -0.5789 0.6435 0.3618, -0.5789 0.6435 0.3622, -0.5956 0.6366 0.3618, -0.5956 0.6366 0.3622, -0.6099 0.6255 0.3618, -0.6099 0.6255 0.3622, -0.6209 0.6112 0.3618, -0.6209 0.6112 0.3622, -0.6279 0.5945 0.3618, -0.6279 0.5945 0.3622, -0.6302 0.5765 0.3618, -0.6302 0.5765 0.3622, -0.6279 0.5586 0.3618, -0.6279 0.5586 0.3622, -0.6209 0.5419 0.3618, -0.6209 0.5419 0.3622, -0.6099 0.5276 0.3618, -0.6099 0.5276 0.3622, -0.5956 0.5165 0.3618, -0.5956 0.5165 0.3622, -0.5789 0.5096 0.3618, -0.5789 0.5096 0.3622, -0.5609 0.5073 0.3618, -0.5609 0.5073 0.3622, -0.543 0.5096 0.3618, -0.543 0.5096 0.3622, -0.5263 0.5165 0.3618, -0.5263 0.5165 0.3622, -0.5119 0.5276 0.3618, -0.5119 0.5276 0.3622, -0.5009 0.5419 0.3618, -0.5009 0.5419 0.3622, -0.494 0.5586 0.3618, -0.494 0.5586 0.3622, -0.5609 0.5765 0.3618, 0.385 -0.5353 0.3626, 0.385 -0.5407 0.3626, 0.385 -0.5353 0.3622, 0.385 -0.5407 0.3622, 0.3658 -0.5353 0.3626, 0.3658 -0.5353 0.3622, 0.3658 -0.4927 0.3626, 0.3658 -0.4927 0.3622, 0.3596 -0.4927 0.3626, 0.3596 -0.4927 0.3622, 0.3596 -0.5407 0.3626, 0.3596 -0.5407 0.3622, 0.4169 -0.5408 0.3626, 0.4096 -0.5415 0.3626, 0.4138 -0.5411 0.3622, 0.4096 -0.5415 0.3622, 0.4169 -0.5408 0.3622, 0.4221 -0.5392 0.3622, 0.4221 -0.5392 0.3626, 0.4229 -0.5387 0.3622, 0.4229 -0.5387 0.3626, 0.4229 -0.5328 0.3626, 0.4229 -0.5328 0.3622, 0.4182 -0.5349 0.3622, 0.4182 -0.5349 0.3626, 0.4128 -0.5359 0.3622, 0.4128 -0.5359 0.3626, 0.4105 -0.536 0.3622, 0.4105 -0.536 0.3626, 0.4057 -0.5354 0.3622, 0.4057 -0.5354 0.3626, 0.4022 -0.5341 0.3622, 0.4022 -0.5341 0.3626, 0.3991 -0.5319 0.3622, 0.3991 -0.5319 0.3626, 0.3982 -0.531 0.3622, 0.3982 -0.531 0.3626, 0.3958 -0.5277 0.3622, 0.3958 -0.5277 0.3626, 0.3943 -0.5238 0.3622, 0.3943 -0.5238 0.3626, 0.3935 -0.519 0.3622, 0.3935 -0.519 0.3626, 0.3934 -0.5173 0.3622, 0.3934 -0.5173 0.3626, 0.3942 -0.5106 0.3622, 0.3942 -0.5106 0.3626, 0.3959 -0.5065 0.3622, 0.3959 -0.5065 0.3626, 0.3985 -0.5028 0.3622, 0.3985 -0.5028 0.3626, 0.4018 -0.5001 0.3622, 0.4018 -0.5001 0.3626, 0.4055 -0.4984 0.3622, 0.4055 -0.4984 0.3626, 0.4097 -0.4976 0.3622, 0.4097 -0.4976 0.3626, 0.4116 -0.4975 0.3622, 0.4116 -0.4975 0.3626, 0.4175 -0.4982 0.3622, 0.4175 -0.4982 0.3626, 0.4224 -0.5 0.3622, 0.4224 -0.5 0.3626, 0.4229 -0.5003 0.3622, 0.4229 -0.5003 0.3626, 0.4229 -0.4938 0.3626, 0.4229 -0.4938 0.3622, 0.4115 -0.4919 0.3622, 0.4115 -0.4919 0.3626, 0.4116 -0.4919 0.3626, 0.4179 -0.4924 0.3622, 0.4179 -0.4924 0.3626, 0.4166 -0.4923 0.3622, 0.4116 -0.4919 0.3622, 0.4082 -0.4923 0.3622, 0.4045 -0.4927 0.3626, 0.4045 -0.4927 0.3622, 0.3995 -0.4947 0.3622, 0.3995 -0.4947 0.3626, 0.395 -0.4979 0.3622, 0.395 -0.4979 0.3626, 0.3939 -0.499 0.3622, 0.3939 -0.499 0.3626, 0.3904 -0.5035 0.3622, 0.3904 -0.5035 0.3626, 0.3891 -0.5066 0.3622, 0.3881 -0.5088 0.3626, 0.3881 -0.5088 0.3622, 0.387 -0.5151 0.3622, 0.387 -0.5151 0.3626, 0.3869 -0.5176 0.3622, 0.3869 -0.5176 0.3626, 0.3931 -0.535 0.3622, 0.3931 -0.535 0.3626, 0.3899 -0.5305 0.3626, 0.3879 -0.5255 0.3622, 0.3879 -0.5255 0.3626, 0.3891 -0.5285 0.3622, 0.3899 -0.5305 0.3622, 0.4067 -0.5414 0.3626, 0.397 -0.5382 0.3622, 0.397 -0.5382 0.3626, 0.4015 -0.5403 0.3622, 0.4015 -0.5403 0.3626, 0.4054 -0.5411 0.3622, 0.4067 -0.5414 0.3622, 0.4584 -0.5353 0.3626, 0.4584 -0.5407 0.3626, 0.4584 -0.5353 0.3622, 0.4584 -0.5407 0.3622, 0.4387 -0.5353 0.3622, 0.4387 -0.5353 0.3626, 0.4517 -0.5353 0.3622, 0.4387 -0.5191 0.3626, 0.4387 -0.5191 0.3622, 0.4559 -0.5191 0.3622, 0.4559 -0.5191 0.3626, 0.4517 -0.5191 0.3622, 0.4559 -0.5136 0.3626, 0.4559 -0.5136 0.3622, 0.4387 -0.5136 0.3622, 0.4387 -0.5136 0.3626, 0.4517 -0.5136 0.3622, 0.4387 -0.4982 0.3626, 0.4387 -0.4982 0.3622, 0.4573 -0.4982 0.3622, 0.4573 -0.4982 0.3626, 0.4517 -0.4982 0.3622, 0.4573 -0.4927 0.3626, 0.4573 -0.4927 0.3622, 0.4325 -0.4927 0.3622, 0.4325 -0.4927 0.3626, 0.4517 -0.4927 0.3622, 0.4325 -0.5407 0.3626, 0.4325 -0.5407 0.3622, 0.4517 -0.5407 0.3622, 0.4973 -0.5273 0.3626, 0.4949 -0.5302 0.3626, 0.4993 -0.534 0.3626, 0.494 -0.531 0.3626, 0.4943 -0.5376 0.3626, 0.4908 -0.5331 0.3626, 0.4889 -0.5397 0.3626, 0.4867 -0.5346 0.3626, 0.4806 -0.5407 0.3626, 0.4806 -0.5353 0.3626, 0.4674 -0.5407 0.3626, 0.4736 -0.5353 0.3626, 0.4674 -0.4927 0.3626, 0.4736 -0.4982 0.3626, 0.4811 -0.4927 0.3626, 0.4809 -0.4982 0.3626, 0.4885 -0.4935 0.3626, 0.4871 -0.4989 0.3626, 0.4943 -0.4956 0.3626, 0.4912 -0.5004 0.3626, 0.4993 -0.4991 0.3626, 0.4948 -0.5027 0.3626, 0.501 -0.5007 0.3626, 0.4961 -0.504 0.3626, 0.5039 -0.5049 0.3626, 0.4979 -0.5067 0.3626, 0.5057 -0.5094 0.3626, 0.4993 -0.5102 0.3626, 0.5065 -0.5161 0.3626, 0.5 -0.5163 0.3626, 0.5064 -0.5192 0.3626, 0.4999 -0.5193 0.3626, 0.5052 -0.5248 0.3626, 0.4989 -0.5237 0.3626, 0.5029 -0.5297 0.3626, 0.4806 -0.5407 0.3622, 0.4674 -0.5407 0.3622, 0.4993 -0.534 0.3622, 0.4889 -0.5397 0.3622, 0.4894 -0.5395 0.3622, 0.4943 -0.5376 0.3622, 0.5029 -0.5297 0.3622, 0.5052 -0.5248 0.3622, 0.5064 -0.5192 0.3622, 0.5065 -0.5161 0.3622, 0.5057 -0.5094 0.3622, 0.5039 -0.5049 0.3622, 0.501 -0.5007 0.3622, 0.4993 -0.4991 0.3622, 0.4943 -0.4956 0.3622, 0.4894 -0.4939 0.3622, 0.4885 -0.4935 0.3622, 0.4811 -0.4927 0.3622, 0.4674 -0.4927 0.3622, 0.4809 -0.4982 0.3622, 0.4736 -0.4982 0.3622, 0.4736 -0.5353 0.3622, 0.4806 -0.5353 0.3622, 0.4949 -0.5302 0.3622, 0.494 -0.531 0.3622, 0.4908 -0.5331 0.3622, 0.4867 -0.5346 0.3622, 0.5 -0.5163 0.3622, 0.4999 -0.5193 0.3622, 0.4989 -0.5237 0.3622, 0.4973 -0.5273 0.3622, 0.4948 -0.5027 0.3622, 0.4961 -0.504 0.3622, 0.4979 -0.5067 0.3622, 0.4993 -0.5102 0.3622, 0.4871 -0.4989 0.3622, 0.4912 -0.5004 0.3622
            ]
        }
        coordIndex [
            0,1,2,-1,2,1,3,-1,2,3,4,-1,4,3,5,-1,4,5,6,-1,6,5,7,-1,6,7,8,-1,8,7,9,-1,8,9,10,-1,10,9,11,-1,10,11,12,-1,12,11,13,-1,12,13,14,-1,14,13,15,-1,14,15,16,-1,16,15,17,-1,16,17,18,-1,18,17,19,-1,18,19,20,-1,20,19,21,-1,20,21,22,-1,22,21,23,-1,22,23,24,-1,24,23,25,-1,24,25,26,-1,26,25,27,-1,26,27,28,-1,28,27,29,-1,28,29,30,-1,30,29,31,-1,30,31,32,-1,32,31,33,-1,32,33,34,-1,34,33,35,-1,34,35,36,-1,36,35,37,-1,36,37,38,-1,38,37,39,-1,38,39,40,-1,40,39,41,-1,40,41,42,-1,42,41,43,-1,42,43,44,-1,44,43,45,-1,44,45,46,-1,46,45,47,-1,46,47,0,-1,0,47,1,-1,44,46,48,-1,48,46,0,-1,48,0,2,-1,38,40,48,-1,48,40,42,-1,48,42,44,-1,32,34,48,-1,48,34,36,-1,48,36,38,-1,26,28,48,-1,48,28,30,-1,48,30,32,-1,20,22,48,-1,48,22,24,-1,48,24,26,-1,14,16,48,-1,48,16,18,-1,48,18,20,-1,8,10,48,-1,48,10,12,-1,48,12,14,-1,2,4,48,-1,48,4,6,-1,48,6,8,-1,49,50,51,-1,51,50,52,-1,53,49,54,-1,54,49,51,-1,55,53,56,-1,56,53,54,-1,57,55,58,-1,58,55,56,-1,59,57,60,-1,60,57,58,-1,50,59,52,-1,52,59,60,-1,55,57,53,-1,53,57,59,-1,53,59,49,-1,49,59,50,-1,61,62,63,-1,63,62,64,-1,63,65,61,-1,61,65,66,-1,61,66,67,-1,67,66,68,-1,67,68,69,-1,70,69,71,-1,71,69,68,-1,70,71,72,-1,70,72,73,-1,73,72,74,-1,73,74,75,-1,75,74,76,-1,75,76,77,-1,77,76,78,-1,77,78,79,-1,79,78,80,-1,79,80,81,-1,81,80,82,-1,81,82,83,-1,83,82,84,-1,83,84,85,-1,85,84,86,-1,85,86,87,-1,87,86,88,-1,87,88,89,-1,89,88,90,-1,89,90,91,-1,91,90,92,-1,91,92,93,-1,93,92,94,-1,93,94,95,-1,95,94,96,-1,95,96,97,-1,97,96,98,-1,97,98,99,-1,99,98,100,-1,99,100,101,-1,101,100,102,-1,101,102,103,-1,103,102,104,-1,103,104,105,-1,105,104,106,-1,105,106,107,-1,107,106,108,-1,107,108,109,-1,109,108,110,-1,109,110,111,-1,111,110,112,-1,111,112,113,-1,114,113,115,-1,115,113,112,-1,116,117,118,-1,114,115,119,-1,114,119,120,-1,120,119,121,-1,120,121,118,-1,118,121,122,-1,118,122,116,-1,117,116,123,-1,117,123,124,-1,123,125,124,-1,124,125,126,-1,124,126,127,-1,127,126,128,-1,127,128,129,-1,129,128,130,-1,129,130,131,-1,131,130,132,-1,131,132,133,-1,133,132,134,-1,133,134,135,-1,134,136,135,-1,135,136,137,-1,135,137,138,-1,138,137,139,-1,138,139,140,-1,141,142,143,-1,140,139,144,-1,140,144,145,-1,145,144,146,-1,145,146,143,-1,143,146,147,-1,143,147,141,-1,64,62,148,-1,142,141,149,-1,142,149,150,-1,150,149,151,-1,150,151,152,-1,152,151,153,-1,152,153,148,-1,148,153,154,-1,148,154,64,-1,111,113,114,-1,101,129,99,-1,99,129,131,-1,99,131,97,-1,97,131,133,-1,97,133,95,-1,111,114,109,-1,109,114,120,-1,109,120,107,-1,107,120,118,-1,107,118,105,-1,105,118,117,-1,105,117,103,-1,103,117,124,-1,103,124,101,-1,101,124,127,-1,101,127,129,-1,140,93,138,-1,138,93,95,-1,138,95,135,-1,135,95,133,-1,69,70,67,-1,67,70,73,-1,67,73,61,-1,61,73,75,-1,61,75,62,-1,62,75,77,-1,62,77,148,-1,148,77,79,-1,148,79,152,-1,152,79,81,-1,152,81,150,-1,150,81,83,-1,150,83,142,-1,142,83,85,-1,142,85,143,-1,143,85,87,-1,143,87,145,-1,145,87,89,-1,145,89,140,-1,140,89,91,-1,140,91,93,-1,155,156,157,-1,157,156,158,-1,159,160,161,-1,161,160,155,-1,161,155,157,-1,162,160,163,-1,163,160,159,-1,164,165,166,-1,166,165,162,-1,166,162,163,-1,167,165,168,-1,168,165,164,-1,169,170,171,-1,171,170,167,-1,171,167,168,-1,172,170,173,-1,173,170,169,-1,174,175,176,-1,176,175,172,-1,176,172,173,-1,177,175,178,-1,178,175,174,-1,179,180,181,-1,181,180,177,-1,181,177,178,-1,182,180,183,-1,183,180,179,-1,158,156,184,-1,184,156,182,-1,184,182,183,-1,182,156,155,-1,155,160,182,-1,182,160,162,-1,182,162,180,-1,175,177,172,-1,172,177,180,-1,172,180,170,-1,170,180,162,-1,170,162,167,-1,167,162,165,-1,185,186,187,-1,187,186,188,-1,187,188,189,-1,189,188,190,-1,189,190,191,-1,191,190,192,-1,191,192,193,-1,193,192,194,-1,193,194,195,-1,195,194,196,-1,195,196,197,-1,197,196,198,-1,197,198,199,-1,199,198,200,-1,199,200,201,-1,201,200,202,-1,201,202,203,-1,203,202,204,-1,203,204,205,-1,205,204,206,-1,205,206,207,-1,207,206,208,-1,207,208,209,-1,209,208,210,-1,209,210,211,-1,211,210,212,-1,211,212,213,-1,213,212,214,-1,213,214,215,-1,215,214,216,-1,215,216,217,-1,217,216,218,-1,217,218,219,-1,219,218,185,-1,219,185,187,-1,193,195,220,-1,220,195,221,-1,222,187,189,-1,193,220,223,-1,193,223,191,-1,191,223,224,-1,191,224,189,-1,189,224,225,-1,189,225,222,-1,187,222,226,-1,187,226,219,-1,219,226,227,-1,219,227,217,-1,217,227,228,-1,217,228,215,-1,215,228,229,-1,215,229,213,-1,213,229,230,-1,213,230,211,-1,211,230,231,-1,211,231,209,-1,209,231,232,-1,209,232,207,-1,207,232,233,-1,207,233,205,-1,205,233,234,-1,235,201,234,-1,234,201,203,-1,234,203,205,-1,235,236,201,-1,201,236,237,-1,201,237,199,-1,197,199,238,-1,238,199,237,-1,195,197,221,-1,221,197,238,-1,200,198,239,-1,239,198,240,-1,198,196,240,-1,240,196,241,-1,196,194,241,-1,241,194,242,-1,186,243,244,-1,186,244,188,-1,188,244,245,-1,188,245,190,-1,190,245,246,-1,190,246,192,-1,192,246,242,-1,192,242,194,-1,214,247,248,-1,214,248,216,-1,216,248,249,-1,216,249,218,-1,218,249,250,-1,218,250,185,-1,185,250,243,-1,185,243,186,-1,206,251,252,-1,206,252,208,-1,208,252,253,-1,208,253,210,-1,210,253,254,-1,210,254,212,-1,212,254,247,-1,212,247,214,-1,200,239,255,-1,200,255,202,-1,202,255,256,-1,202,256,204,-1,204,256,251,-1,204,251,206,-1,
        ]
    }
}
Shape{
    appearance Appearance {
        material  Material 	{
            diffuseColor 0.2235294117647059 0.2235294117647059 0.2235294117647059
            specularColor 0.11372549019607843 0.11372549019607843 0.11372549019607843
            ambientIntensity 0.2235
            transparency 0.0
            shininess 0.5
        }
    }
    geometry IndexedFaceSet {
        ccw TRUE
        solid FALSE
        coord DEF co Coordinate {
            point [
                0.4736 -0.4982 0.3622, 0.4736 -0.5353 0.3622, 0.4809 -0.4982 0.3622, 0.4806 -0.5353 0.3622, 0.4867 -0.5346 0.3622, 0.4908 -0.5331 0.3622, 0.494 -0.531 0.3622, 0.4949 -0.5302 0.3622, 0.4973 -0.5273 0.3622, 0.4989 -0.5237 0.3622, 0.4999 -0.5193 0.3622, 0.5 -0.5163 0.3622, 0.4993 -0.5102 0.3622, 0.4979 -0.5067 0.3622, 0.4961 -0.504 0.3622, 0.4948 -0.5027 0.3622, 0.4871 -0.4989 0.3622, 0.4912 -0.5004 0.3622
            ]
        }
        coordIndex [
            0,1,2,-1,2,1,3,-1,2,3,4,-1,4,5,2,-1,2,5,6,-1,2,6,7,-1,7,8,2,-1,2,8,9,-1,2,9,10,-1,10,11,2,-1,2,11,12,-1,2,12,13,-1,13,14,2,-1,2,14,15,-1,2,15,16,-1,16,15,17,-1,
        ]
    }
}
Shape{
    appearance Appearance {
        material  Material 	{
            diffuseColor 1.0 1.0 1.0
            specularColor 0.5019607843137255 0.5019607843137255 0.5019607843137255
            ambientIntensity 1.0
            transparency 0.0
            shininess 0.5
        }
    }
    geometry IndexedFaceSet {
        ccw TRUE
        solid FALSE
        coord DEF co Coordinate {
            point [
                0.5226 -0.5222 0.3626, 0.5207 -0.5276 0.3626, 0.5388 -0.5222 0.3626, 0.5407 -0.5276 0.3626, 0.5298 -0.5022 0.3626, 0.5275 -0.4927 0.3626, 0.5092 -0.5407 0.3626, 0.5161 -0.5407 0.3626, 0.5302 -0.5008 0.3626, 0.5306 -0.4988 0.3626, 0.5341 -0.4927 0.3626, 0.5308 -0.4988 0.3626, 0.5312 -0.5009 0.3626, 0.5315 -0.5022 0.3626, 0.5524 -0.5407 0.3626, 0.5456 -0.5407 0.3626, 0.5341 -0.4927 0.3622, 0.5524 -0.5407 0.3622, 0.5275 -0.4927 0.3622, 0.5092 -0.5407 0.3622, 0.5231 -0.5044 0.3622, 0.5161 -0.5407 0.3622, 0.5207 -0.5276 0.3622, 0.5407 -0.5276 0.3622, 0.5231 -0.5276 0.3622, 0.5456 -0.5407 0.3622, 0.5226 -0.5222 0.3622, 0.5388 -0.5222 0.3622, 0.5315 -0.5022 0.3622, 0.5308 -0.4988 0.3622, 0.5312 -0.5009 0.3622, 0.5306 -0.4988 0.3622, 0.5298 -0.5022 0.3622, 0.5302 -0.5008 0.3622
            ]
        }
        coordIndex [
            0,1,2,-1,2,1,3,-1,4,5,0,-1,0,5,6,-1,0,6,1,-1,1,6,7,-1,4,8,5,-1,5,8,9,-1,5,9,10,-1,10,9,11,-1,10,11,12,-1,12,13,10,-1,10,13,2,-1,10,2,14,-1,14,2,3,-1,14,3,15,-1,10,14,16,-1,16,14,17,-1,5,10,18,-1,18,10,16,-1,19,6,20,-1,20,6,5,-1,20,5,18,-1,7,6,21,-1,21,6,19,-1,1,7,22,-1,22,7,21,-1,23,3,24,-1,24,3,1,-1,24,1,22,-1,15,3,25,-1,25,3,23,-1,14,15,17,-1,17,15,25,-1,0,2,26,-1,26,2,27,-1,2,13,27,-1,27,13,28,-1,11,29,30,-1,11,30,12,-1,12,30,28,-1,12,28,13,-1,11,9,29,-1,29,9,31,-1,4,32,33,-1,4,33,8,-1,8,33,31,-1,8,31,9,-1,4,0,32,-1,32,0,26,-1,
        ]
    }
}
Shape{
    appearance Appearance {
        material  Material 	{
            diffuseColor 0.2235294117647059 0.2235294117647059 0.2235294117647059
            specularColor 0.11372549019607843 0.11372549019607843 0.11372549019607843
            ambientIntensity 0.2235
            transparency 0.0
            shininess 0.5
        }
    }
    geometry IndexedFaceSet {
        ccw TRUE
        solid FALSE
        coord DEF co Coordinate {
            point [
                0.5308 -0.4988 0.3622, 0.5306 -0.4988 0.3622, 0.5312 -0.5009 0.3622, 0.5302 -0.5008 0.3622, 0.5315 -0.5022 0.3622, 0.5298 -0.5022 0.3622, 0.5388 -0.5222 0.3622, 0.5226 -0.5222 0.3622
            ]
        }
        coordIndex [
            0,1,2,-1,2,1,3,-1,2,3,4,-1,4,3,5,-1,4,5,6,-1,6,5,7,-1,
        ]
    }
}
Shape{
    appearance Appearance {
        material  Material 	{
            diffuseColor 1.0 1.0 1.0
            specularColor 0.5019607843137255 0.5019607843137255 0.5019607843137255
            ambientIntensity 1.0
            transparency 0.0
            shininess 0.5
        }
    }
    geometry IndexedFaceSet {
        ccw TRUE
        solid FALSE
        coord DEF co Coordinate {
            point [
                0.3855 -0.6115 0.3626, 0.3855 -0.6169 0.3626, 0.3855 -0.6115 0.3622, 0.3855 -0.6169 0.3622, 0.3658 -0.6115 0.3626, 0.3658 -0.6115 0.3622, 0.3658 -0.5953 0.3626, 0.3658 -0.5953 0.3622, 0.383 -0.5953 0.3626, 0.383 -0.5953 0.3622, 0.383 -0.5898 0.3626, 0.383 -0.5898 0.3622, 0.3658 -0.5898 0.3626, 0.3658 -0.5898 0.3622, 0.3658 -0.5744 0.3626, 0.3658 -0.5744 0.3622, 0.3844 -0.5744 0.3626, 0.3844 -0.5744 0.3622, 0.3844 -0.5689 0.3626, 0.3844 -0.5689 0.3622, 0.3596 -0.5689 0.3626, 0.3596 -0.5689 0.3622, 0.3596 -0.6169 0.3626, 0.3596 -0.6169 0.3622, 0.4128 -0.6169 0.3626, 0.4188 -0.6169 0.3626, 0.4128 -0.6116 0.3626, 0.4188 -0.5949 0.3626, 0.4128 -0.5951 0.3626, 0.3997 -0.6024 0.3626, 0.4011 -0.6017 0.3626, 0.4126 -0.6116 0.3626, 0.4095 -0.6108 0.3626, 0.4117 -0.6131 0.3626, 0.4078 -0.6119 0.3626, 0.4048 -0.6008 0.3626, 0.4128 -0.5997 0.3626, 0.4128 -0.603 0.3626, 0.4128 -0.6034 0.3626, 0.4124 -0.6061 0.3626, 0.4115 -0.6083 0.3626, 0.4102 -0.61 0.3626, 0.4126 -0.5925 0.3626, 0.4182 -0.5898 0.3626, 0.412 -0.5904 0.3626, 0.4172 -0.5872 0.3626, 0.4113 -0.5891 0.3626, 0.4159 -0.5854 0.3626, 0.4103 -0.5881 0.3626, 0.3946 -0.585 0.3626, 0.3946 -0.5909 0.3626, 0.3958 -0.5843 0.3626, 0.3987 -0.5883 0.3626, 0.4003 -0.5826 0.3626, 0.4025 -0.5871 0.3626, 0.4064 -0.5819 0.3626, 0.4058 -0.5867 0.3626, 0.4064 -0.5819 0.3626, 0.4079 -0.587 0.3626, 0.4106 -0.5823 0.3626, 0.4093 -0.5874 0.3626, 0.413 -0.5832 0.3626, 0.4149 -0.5844 0.3626, 0.3986 -0.6108 0.3626, 0.3942 -0.6151 0.3626, 0.3991 -0.6113 0.3626, 0.3962 -0.6165 0.3626, 0.4003 -0.6121 0.3626, 0.3985 -0.6173 0.3626, 0.4016 -0.6126 0.3626, 0.4021 -0.6178 0.3626, 0.4037 -0.6128 0.3626, 0.4052 -0.6174 0.3626, 0.4059 -0.6126 0.3626, 0.4076 -0.6166 0.3626, 0.4098 -0.6151 0.3626, 0.4026 -0.5966 0.3626, 0.398 -0.5977 0.3626, 0.3989 -0.6029 0.3626, 0.3955 -0.599 0.3626, 0.3982 -0.6038 0.3626, 0.3936 -0.6006 0.3626, 0.3977 -0.6049 0.3626, 0.3924 -0.6023 0.3626, 0.3974 -0.6063 0.3626, 0.3916 -0.6045 0.3626, 0.3973 -0.6073 0.3626, 0.3912 -0.6078 0.3626, 0.3975 -0.6087 0.3626, 0.3916 -0.6106 0.3626, 0.3979 -0.6097 0.3626, 0.3923 -0.6126 0.3626, 0.3936 -0.6145 0.3626, 0.4064 -0.5819 0.3622, 0.4003 -0.5826 0.3622, 0.3958 -0.5843 0.3622, 0.3946 -0.585 0.3622, 0.3946 -0.5909 0.3622, 0.3987 -0.5883 0.3622, 0.4025 -0.5871 0.3622, 0.4058 -0.5867 0.3622, 0.4079 -0.587 0.3622, 0.4093 -0.5874 0.3622, 0.4103 -0.5881 0.3622, 0.4113 -0.5891 0.3622, 0.412 -0.5904 0.3622, 0.4126 -0.5925 0.3622, 0.4128 -0.5951 0.3622, 0.4026 -0.5966 0.3622, 0.398 -0.5977 0.3622, 0.3955 -0.599 0.3622, 0.3936 -0.6006 0.3622, 0.3924 -0.6023 0.3622, 0.3916 -0.6045 0.3622, 0.3912 -0.6078 0.3622, 0.3916 -0.6106 0.3622, 0.3923 -0.6126 0.3622, 0.3936 -0.6145 0.3622, 0.3942 -0.6151 0.3622, 0.4021 -0.6178 0.3622, 0.3986 -0.6174 0.3622, 0.3985 -0.6173 0.3622, 0.3962 -0.6165 0.3622, 0.4052 -0.6174 0.3622, 0.4054 -0.6174 0.3622, 0.4076 -0.6166 0.3622, 0.4098 -0.6151 0.3622, 0.4117 -0.6131 0.3622, 0.4126 -0.6116 0.3622, 0.4128 -0.6116 0.3622, 0.4128 -0.6169 0.3622, 0.4188 -0.6169 0.3622, 0.4188 -0.5949 0.3622, 0.4182 -0.5898 0.3622, 0.4172 -0.5872 0.3622, 0.4159 -0.5854 0.3622, 0.4149 -0.5844 0.3622, 0.413 -0.5832 0.3622, 0.4106 -0.5823 0.3622, 0.4064 -0.5819 0.3622, 0.3989 -0.6029 0.3622, 0.3997 -0.6024 0.3622, 0.4011 -0.6017 0.3622, 0.4048 -0.6008 0.3622, 0.3973 -0.6073 0.3622, 0.3974 -0.6063 0.3622, 0.3977 -0.6049 0.3622, 0.3982 -0.6038 0.3622, 0.3991 -0.6113 0.3622, 0.3986 -0.6108 0.3622, 0.3979 -0.6097 0.3622, 0.3975 -0.6087 0.3622, 0.4037 -0.6128 0.3622, 0.4016 -0.6126 0.3622, 0.4003 -0.6121 0.3622, 0.4102 -0.61 0.3622, 0.4095 -0.6108 0.3622, 0.4078 -0.6119 0.3622, 0.4059 -0.6126 0.3622, 0.4128 -0.603 0.3622, 0.4128 -0.6034 0.3622, 0.4124 -0.6061 0.3622, 0.4115 -0.6083 0.3622, 0.4128 -0.5997 0.3622
            ]
        }
        coordIndex [
            0,1,2,-1,2,1,3,-1,4,0,5,-1,5,0,2,-1,6,4,7,-1,7,4,5,-1,8,6,9,-1,9,6,7,-1,10,8,11,-1,11,8,9,-1,12,10,13,-1,13,10,11,-1,14,12,15,-1,15,12,13,-1,16,14,17,-1,17,14,15,-1,18,16,19,-1,19,16,17,-1,20,18,21,-1,21,18,19,-1,22,20,23,-1,23,20,21,-1,1,22,3,-1,3,22,23,-1,22,1,0,-1,0,4,22,-1,22,4,6,-1,22,6,20,-1,16,18,14,-1,14,18,20,-1,14,20,12,-1,12,20,6,-1,12,6,10,-1,10,6,8,-1,24,25,26,-1,26,25,27,-1,28,29,30,-1,31,32,33,-1,33,32,34,-1,35,36,27,-1,27,36,37,-1,37,38,27,-1,27,38,39,-1,27,39,26,-1,26,39,40,-1,26,40,31,-1,31,40,41,-1,31,41,32,-1,30,35,28,-1,28,35,27,-1,28,27,42,-1,42,27,43,-1,42,43,44,-1,44,43,45,-1,44,45,46,-1,46,45,47,-1,46,47,48,-1,49,50,51,-1,51,50,52,-1,51,52,53,-1,53,52,54,-1,53,54,55,-1,55,54,56,-1,55,56,57,-1,57,56,58,-1,57,58,59,-1,59,58,60,-1,59,60,61,-1,61,60,48,-1,61,48,62,-1,62,48,47,-1,63,64,65,-1,65,64,66,-1,65,66,67,-1,67,66,68,-1,67,68,69,-1,69,68,70,-1,69,70,71,-1,71,70,72,-1,71,72,73,-1,73,72,74,-1,73,74,34,-1,34,74,75,-1,34,75,33,-1,28,76,29,-1,29,76,77,-1,29,77,78,-1,78,77,79,-1,78,79,80,-1,80,79,81,-1,80,81,82,-1,82,81,83,-1,82,83,84,-1,84,83,85,-1,84,85,86,-1,86,85,87,-1,86,87,88,-1,88,87,89,-1,88,89,90,-1,90,89,91,-1,90,91,63,-1,63,91,92,-1,63,92,64,-1,55,93,94,-1,55,94,53,-1,53,94,95,-1,53,95,51,-1,51,95,96,-1,51,96,49,-1,50,49,97,-1,97,49,96,-1,50,97,98,-1,50,98,52,-1,52,98,99,-1,52,99,54,-1,54,99,100,-1,54,100,56,-1,56,100,101,-1,56,101,58,-1,58,101,102,-1,58,102,60,-1,60,102,103,-1,60,103,48,-1,48,103,104,-1,48,104,46,-1,46,104,105,-1,46,105,44,-1,44,105,106,-1,44,106,42,-1,42,106,107,-1,42,107,28,-1,76,28,108,-1,108,28,107,-1,76,108,109,-1,76,109,77,-1,77,109,110,-1,77,110,79,-1,79,110,111,-1,79,111,81,-1,81,111,112,-1,81,112,83,-1,83,112,113,-1,83,113,85,-1,85,113,114,-1,85,114,87,-1,87,114,115,-1,87,115,89,-1,89,115,116,-1,89,116,91,-1,91,116,117,-1,91,117,92,-1,92,117,118,-1,92,118,64,-1,119,70,120,-1,120,70,68,-1,120,68,121,-1,121,68,66,-1,121,66,122,-1,122,66,64,-1,122,64,118,-1,70,119,123,-1,70,123,72,-1,72,123,124,-1,72,124,74,-1,124,125,74,-1,74,125,126,-1,74,126,75,-1,75,126,127,-1,75,127,33,-1,33,127,128,-1,33,128,31,-1,26,31,129,-1,129,31,128,-1,24,26,130,-1,130,26,129,-1,25,24,131,-1,131,24,130,-1,27,25,132,-1,132,25,131,-1,27,132,133,-1,27,133,43,-1,43,133,134,-1,43,134,45,-1,45,134,135,-1,45,135,47,-1,47,135,136,-1,47,136,62,-1,62,136,137,-1,62,137,61,-1,61,137,138,-1,61,138,59,-1,59,138,139,-1,59,139,57,-1,57,139,93,-1,57,93,55,-1,78,140,141,-1,78,141,29,-1,29,141,142,-1,29,142,30,-1,30,142,143,-1,30,143,35,-1,86,144,145,-1,86,145,84,-1,84,145,146,-1,84,146,82,-1,82,146,147,-1,82,147,80,-1,80,147,140,-1,80,140,78,-1,65,148,149,-1,65,149,63,-1,63,149,150,-1,63,150,90,-1,90,150,151,-1,90,151,88,-1,88,151,144,-1,88,144,86,-1,71,152,153,-1,71,153,69,-1,69,153,154,-1,69,154,67,-1,67,154,148,-1,67,148,65,-1,41,155,156,-1,41,156,32,-1,32,156,157,-1,32,157,34,-1,34,157,158,-1,34,158,73,-1,73,158,152,-1,73,152,71,-1,37,159,160,-1,37,160,38,-1,38,160,161,-1,38,161,39,-1,39,161,162,-1,39,162,40,-1,40,162,155,-1,40,155,41,-1,37,36,159,-1,159,36,163,-1,36,35,163,-1,163,35,143,-1,
        ]
    }
}
Shape{
    appearance Appearance {
        material  Material 	{
            diffuseColor 0.2235294117647059 0.2235294117647059 0.2235294117647059
            specularColor 0.11372549019607843 0.11372549019607843 0.11372549019607843
            ambientIntensity 0.2235
            transparency 0.0
            shininess 0.5
        }
    }
    geometry IndexedFaceSet {
        ccw TRUE
        solid FALSE
        coord DEF co Coordinate {
            point [
                0.4128 -0.6034 0.3622, 0.4128 -0.603 0.3622, 0.3989 -0.6029 0.3622, 0.4128 -0.5997 0.3622, 0.4048 -0.6008 0.3622, 0.4011 -0.6017 0.3622, 0.3997 -0.6024 0.3622, 0.4124 -0.6061 0.3622, 0.3982 -0.6038 0.3622, 0.4115 -0.6083 0.3622, 0.3986 -0.6108 0.3622, 0.3991 -0.6113 0.3622, 0.4095 -0.6108 0.3622, 0.3979 -0.6097 0.3622, 0.4078 -0.6119 0.3622, 0.4059 -0.6126 0.3622, 0.4037 -0.6128 0.3622, 0.3977 -0.6049 0.3622, 0.3974 -0.6063 0.3622, 0.4102 -0.61 0.3622, 0.3973 -0.6073 0.3622, 0.3975 -0.6087 0.3622, 0.4003 -0.6121 0.3622, 0.4016 -0.6126 0.3622
            ]
        }
        coordIndex [
            0,1,2,-1,1,3,4,-1,4,5,1,-1,1,5,6,-1,1,6,2,-1,0,2,7,-1,7,2,8,-1,7,8,9,-1,10,11,12,-1,10,12,13,-1,14,12,15,-1,15,12,16,-1,8,17,9,-1,9,17,18,-1,9,18,19,-1,19,18,20,-1,19,20,12,-1,12,20,21,-1,12,21,13,-1,11,22,12,-1,12,22,23,-1,12,23,16,-1,
        ]
    }
}
Shape{
    appearance Appearance {
        material  Material 	{
            diffuseColor 1.0 1.0 1.0
            specularColor 0.5019607843137255 0.5019607843137255 0.5019607843137255
            ambientIntensity 1.0
            transparency 0.0
            shininess 0.5
        }
    }
    geometry IndexedFaceSet {
        ccw TRUE
        solid FALSE
        coord DEF co Coordinate {
            point [
                0.4369 -0.6128 0.3626, 0.4369 -0.6128 0.3622, 0.4329 -0.6124 0.3622, 0.4297 -0.6111 0.3622, 0.4291 -0.6109 0.3626, 0.4329 -0.6124 0.3626, 0.4291 -0.6109 0.3622, 0.427 -0.6095 0.3622, 0.427 -0.6095 0.3626, 0.427 -0.6157 0.3626, 0.427 -0.6157 0.3622, 0.4312 -0.6172 0.3626, 0.4297 -0.6167 0.3622, 0.4363 -0.6178 0.3622, 0.4363 -0.6178 0.3626, 0.4324 -0.6174 0.3622, 0.4312 -0.6172 0.3622, 0.4417 -0.6171 0.3626, 0.4397 -0.6174 0.3622, 0.4417 -0.6171 0.3622, 0.4449 -0.6159 0.3622, 0.4449 -0.6159 0.3626, 0.4463 -0.615 0.3622, 0.4463 -0.615 0.3626, 0.448 -0.6135 0.3622, 0.448 -0.6135 0.3626, 0.4491 -0.6119 0.3622, 0.4491 -0.6119 0.3626, 0.4498 -0.61 0.3622, 0.4498 -0.61 0.3626, 0.4501 -0.6076 0.3622, 0.4501 -0.6076 0.3626, 0.4499 -0.6054 0.3622, 0.4499 -0.6054 0.3626, 0.4492 -0.6036 0.3622, 0.4492 -0.6036 0.3626, 0.4481 -0.6019 0.3622, 0.4481 -0.6019 0.3626, 0.4467 -0.6007 0.3622, 0.4467 -0.6007 0.3626, 0.4427 -0.5984 0.3622, 0.4427 -0.5984 0.3626, 0.4404 -0.5975 0.3622, 0.4404 -0.5975 0.3626, 0.4366 -0.5959 0.3622, 0.4366 -0.5959 0.3626, 0.4345 -0.5945 0.3622, 0.4345 -0.5945 0.3626, 0.4339 -0.5939 0.3622, 0.4339 -0.5939 0.3626, 0.4335 -0.5931 0.3622, 0.4335 -0.5931 0.3626, 0.4332 -0.5922 0.3622, 0.4332 -0.5922 0.3626, 0.4332 -0.5914 0.3622, 0.4332 -0.5914 0.3626, 0.4333 -0.5904 0.3622, 0.4333 -0.5904 0.3626, 0.4336 -0.5896 0.3622, 0.4336 -0.5896 0.3626, 0.4341 -0.5888 0.3622, 0.4341 -0.5888 0.3626, 0.435 -0.588 0.3622, 0.435 -0.588 0.3626, 0.4364 -0.5873 0.3622, 0.4364 -0.5873 0.3626, 0.438 -0.5869 0.3622, 0.438 -0.5869 0.3626, 0.4398 -0.5867 0.3622, 0.4398 -0.5867 0.3626, 0.444 -0.5872 0.3622, 0.444 -0.5872 0.3626, 0.4474 -0.5886 0.3622, 0.4474 -0.5886 0.3626, 0.4485 -0.5892 0.3622, 0.4485 -0.5892 0.3626, 0.4485 -0.5834 0.3626, 0.4485 -0.5834 0.3622, 0.4446 -0.5822 0.3622, 0.4446 -0.5822 0.3626, 0.4404 -0.5819 0.3622, 0.4404 -0.5819 0.3626, 0.4355 -0.5824 0.3622, 0.4355 -0.5824 0.3626, 0.4323 -0.5837 0.3622, 0.4323 -0.5837 0.3626, 0.4308 -0.5846 0.3622, 0.4308 -0.5846 0.3626, 0.4289 -0.5864 0.3626, 0.4297 -0.5856 0.3622, 0.4289 -0.5864 0.3622, 0.4278 -0.588 0.3622, 0.4278 -0.588 0.3626, 0.4272 -0.59 0.3622, 0.4272 -0.59 0.3626, 0.427 -0.5919 0.3622, 0.427 -0.5919 0.3626, 0.4273 -0.5942 0.3622, 0.4273 -0.5942 0.3626, 0.4279 -0.5961 0.3622, 0.4279 -0.5961 0.3626, 0.4287 -0.5973 0.3622, 0.4287 -0.5973 0.3626, 0.4361 -0.6019 0.3622, 0.4361 -0.6019 0.3626, 0.4325 -0.6002 0.3626, 0.4297 -0.5984 0.3622, 0.4297 -0.5984 0.3626, 0.4297 -0.5984 0.3622, 0.4325 -0.6002 0.3622, 0.4401 -0.6035 0.3622, 0.4401 -0.6035 0.3626, 0.4424 -0.6049 0.3622, 0.4424 -0.6049 0.3626, 0.4432 -0.6057 0.3622, 0.4432 -0.6057 0.3626, 0.4436 -0.6065 0.3622, 0.4436 -0.6065 0.3626, 0.4439 -0.6075 0.3622, 0.4439 -0.6075 0.3626, 0.444 -0.6082 0.3622, 0.444 -0.6082 0.3626, 0.4438 -0.6094 0.3622, 0.4438 -0.6094 0.3626, 0.4435 -0.6102 0.3622, 0.4435 -0.6102 0.3626, 0.443 -0.611 0.3622, 0.443 -0.611 0.3626, 0.4423 -0.6116 0.3622, 0.4423 -0.6116 0.3626, 0.4418 -0.6119 0.3622, 0.4418 -0.6119 0.3626, 0.4402 -0.6125 0.3622, 0.4402 -0.6125 0.3626, 0.4371 -0.6128 0.3622, 0.4371 -0.6128 0.3626, 0.48 -0.5826 0.3626, 0.4862 -0.5826 0.3626, 0.48 -0.5826 0.3622, 0.4862 -0.5826 0.3622, 0.4706 -0.6085 0.3626, 0.4706 -0.6085 0.3622, 0.4701 -0.6101 0.3622, 0.4701 -0.6101 0.3626, 0.4699 -0.6113 0.3622, 0.4699 -0.6113 0.3626, 0.4697 -0.6113 0.3626, 0.4697 -0.6113 0.3622, 0.469 -0.6084 0.3626, 0.469 -0.6084 0.3622, 0.46 -0.5826 0.3622, 0.46 -0.5826 0.3626, 0.4629 -0.591 0.3622, 0.4533 -0.5826 0.3626, 0.4533 -0.5826 0.3622, 0.4667 -0.6169 0.3622, 0.4667 -0.6169 0.3626, 0.4629 -0.6071 0.3622, 0.4641 -0.6231 0.3622, 0.4641 -0.6231 0.3626, 0.4665 -0.6174 0.3622, 0.4629 -0.6253 0.3622, 0.4629 -0.6253 0.3626, 0.4629 -0.6253 0.3622, 0.4617 -0.6266 0.3622, 0.4617 -0.6266 0.3626, 0.4608 -0.6272 0.3622, 0.4608 -0.6272 0.3626, 0.4595 -0.6277 0.3622, 0.4595 -0.6277 0.3626, 0.4581 -0.628 0.3622, 0.4581 -0.628 0.3626, 0.4579 -0.628 0.3622, 0.4579 -0.628 0.3626, 0.4557 -0.6277 0.3622, 0.4557 -0.6277 0.3626, 0.4545 -0.6273 0.3622, 0.4545 -0.6273 0.3626, 0.4545 -0.6326 0.3626, 0.4545 -0.6326 0.3622, 0.4571 -0.6331 0.3622, 0.4571 -0.6331 0.3626, 0.4584 -0.6331 0.3622, 0.4584 -0.6331 0.3626, 0.461 -0.6328 0.3622, 0.4629 -0.632 0.3622, 0.4634 -0.6318 0.3626, 0.461 -0.6328 0.3626, 0.4634 -0.6318 0.3622, 0.4654 -0.6304 0.3622, 0.4654 -0.6304 0.3626, 0.4679 -0.6275 0.3622, 0.4679 -0.6275 0.3626, 0.4706 -0.6221 0.3622, 0.4706 -0.6221 0.3626, 0.4725 -0.6174 0.3622, 0.5185 -0.6115 0.3626, 0.5185 -0.6169 0.3626, 0.5185 -0.6115 0.3622, 0.5185 -0.6169 0.3622, 0.4989 -0.6115 0.3622, 0.4989 -0.6115 0.3626, 0.5079 -0.6115 0.3622, 0.4989 -0.5953 0.3626, 0.4989 -0.5953 0.3622, 0.5161 -0.5953 0.3622, 0.5161 -0.5953 0.3626, 0.5079 -0.5953 0.3622, 0.5161 -0.5898 0.3626, 0.5161 -0.5898 0.3622, 0.4989 -0.5898 0.3622, 0.4989 -0.5898 0.3626, 0.5079 -0.5898 0.3622, 0.4989 -0.5744 0.3626, 0.4989 -0.5744 0.3622, 0.5174 -0.5744 0.3622, 0.5174 -0.5744 0.3626, 0.5079 -0.5744 0.3622, 0.5174 -0.5689 0.3626, 0.5174 -0.5689 0.3622, 0.4927 -0.5689 0.3622, 0.4927 -0.5689 0.3626, 0.5079 -0.5689 0.3622, 0.4927 -0.6169 0.3626, 0.4927 -0.6169 0.3622, 0.5079 -0.6169 0.3622, 0.5574 -0.6035 0.3626, 0.5551 -0.6065 0.3626, 0.5595 -0.6102 0.3626, 0.5542 -0.6073 0.3626, 0.5545 -0.6138 0.3626, 0.551 -0.6093 0.3626, 0.549 -0.6159 0.3626, 0.5469 -0.6108 0.3626, 0.5408 -0.6169 0.3626, 0.5408 -0.6115 0.3626, 0.5276 -0.6169 0.3626, 0.5338 -0.6115 0.3626, 0.5276 -0.5689 0.3626, 0.5338 -0.5744 0.3626, 0.5413 -0.5689 0.3626, 0.5411 -0.5744 0.3626, 0.5486 -0.5697 0.3626, 0.5472 -0.5751 0.3626, 0.5544 -0.5718 0.3626, 0.5514 -0.5766 0.3626, 0.5595 -0.5753 0.3626, 0.5549 -0.579 0.3626, 0.5611 -0.5769 0.3626, 0.5562 -0.5802 0.3626, 0.5641 -0.5811 0.3626, 0.5581 -0.5829 0.3626, 0.5659 -0.5857 0.3626, 0.5595 -0.5864 0.3626, 0.5667 -0.5923 0.3626, 0.5602 -0.5925 0.3626, 0.5666 -0.5954 0.3626, 0.56 -0.5955 0.3626, 0.5654 -0.601 0.3626, 0.5591 -0.5999 0.3626, 0.563 -0.606 0.3626, 0.5408 -0.6169 0.3622, 0.5276 -0.6169 0.3622, 0.549 -0.6159 0.3622, 0.5545 -0.6138 0.3622, 0.5595 -0.6102 0.3622, 0.563 -0.606 0.3622, 0.5654 -0.601 0.3622, 0.5666 -0.5954 0.3622, 0.5667 -0.5923 0.3622, 0.5659 -0.5857 0.3622, 0.5641 -0.5811 0.3622, 0.5611 -0.5769 0.3622, 0.5595 -0.5753 0.3622, 0.5544 -0.5718 0.3622, 0.5486 -0.5697 0.3622, 0.5413 -0.5689 0.3622, 0.5276 -0.5689 0.3622, 0.5411 -0.5744 0.3622, 0.5338 -0.5744 0.3622, 0.5338 -0.6115 0.3622, 0.5408 -0.6115 0.3622, 0.5551 -0.6065 0.3622, 0.5542 -0.6073 0.3622, 0.551 -0.6093 0.3622, 0.5469 -0.6108 0.3622, 0.5602 -0.5925 0.3622, 0.56 -0.5955 0.3622, 0.5591 -0.5999 0.3622, 0.5574 -0.6035 0.3622, 0.5549 -0.579 0.3622, 0.5562 -0.5802 0.3622, 0.5581 -0.5829 0.3622, 0.5595 -0.5864 0.3622, 0.5472 -0.5751 0.3622, 0.5514 -0.5766 0.3622
            ]
        }
        coordIndex [
            0,1,2,-1,3,4,2,-1,2,4,5,-1,2,5,0,-1,3,6,4,-1,4,6,7,-1,4,7,8,-1,9,8,10,-1,10,8,7,-1,11,9,12,-1,12,9,10,-1,13,14,15,-1,15,14,11,-1,15,11,16,-1,16,11,12,-1,17,14,18,-1,18,14,13,-1,18,19,17,-1,17,19,20,-1,17,20,21,-1,21,20,22,-1,21,22,23,-1,23,22,24,-1,23,24,25,-1,25,24,26,-1,25,26,27,-1,27,26,28,-1,27,28,29,-1,29,28,30,-1,29,30,31,-1,31,30,32,-1,31,32,33,-1,33,32,34,-1,33,34,35,-1,35,34,36,-1,35,36,37,-1,37,36,38,-1,37,38,39,-1,39,38,40,-1,39,40,41,-1,41,40,42,-1,41,42,43,-1,43,42,44,-1,43,44,45,-1,45,44,46,-1,45,46,47,-1,47,46,48,-1,47,48,49,-1,49,48,50,-1,49,50,51,-1,51,50,52,-1,51,52,53,-1,53,52,54,-1,53,54,55,-1,55,54,56,-1,55,56,57,-1,57,56,58,-1,57,58,59,-1,59,58,60,-1,59,60,61,-1,61,60,62,-1,61,62,63,-1,63,62,64,-1,63,64,65,-1,65,64,66,-1,65,66,67,-1,67,66,68,-1,67,68,69,-1,69,68,70,-1,69,70,71,-1,71,70,72,-1,71,72,73,-1,73,72,74,-1,73,74,75,-1,76,75,77,-1,77,75,74,-1,76,77,78,-1,76,78,79,-1,79,78,80,-1,79,80,81,-1,81,80,82,-1,81,82,83,-1,83,82,84,-1,83,84,85,-1,85,84,86,-1,85,86,87,-1,87,86,88,-1,88,86,89,-1,89,90,88,-1,88,90,91,-1,88,91,92,-1,92,91,93,-1,92,93,94,-1,94,93,95,-1,94,95,96,-1,96,95,97,-1,96,97,98,-1,98,97,99,-1,98,99,100,-1,100,99,101,-1,100,101,102,-1,103,104,105,-1,102,101,106,-1,102,106,107,-1,107,106,108,-1,107,108,105,-1,105,108,109,-1,105,109,103,-1,104,103,110,-1,104,110,111,-1,111,110,112,-1,111,112,113,-1,113,112,114,-1,113,114,115,-1,115,114,116,-1,115,116,117,-1,117,116,118,-1,117,118,119,-1,119,118,120,-1,119,120,121,-1,121,120,122,-1,121,122,123,-1,123,122,124,-1,123,124,125,-1,125,124,126,-1,125,126,127,-1,127,126,128,-1,127,128,129,-1,129,128,130,-1,129,130,131,-1,131,130,132,-1,131,132,133,-1,133,132,134,-1,133,134,135,-1,135,134,1,-1,135,1,0,-1,59,61,87,-1,87,61,85,-1,85,61,63,-1,85,63,83,-1,125,25,27,-1,111,43,104,-1,104,43,45,-1,125,27,123,-1,123,27,29,-1,123,29,121,-1,121,29,31,-1,121,31,119,-1,119,31,33,-1,119,33,117,-1,117,33,35,-1,117,35,115,-1,115,35,37,-1,115,37,113,-1,113,37,39,-1,113,39,111,-1,111,39,41,-1,111,41,43,-1,25,125,23,-1,23,125,127,-1,23,127,21,-1,14,0,11,-1,11,0,5,-1,11,5,9,-1,9,5,4,-1,9,4,8,-1,63,65,83,-1,83,65,67,-1,83,67,81,-1,81,67,69,-1,81,69,79,-1,79,69,71,-1,79,71,76,-1,76,71,73,-1,76,73,75,-1,127,129,21,-1,21,129,131,-1,21,131,17,-1,17,131,133,-1,17,133,14,-1,14,133,135,-1,14,135,0,-1,87,88,59,-1,59,88,92,-1,59,92,57,-1,57,92,94,-1,57,94,55,-1,55,94,96,-1,55,96,53,-1,53,96,98,-1,53,98,51,-1,51,98,100,-1,51,100,49,-1,49,100,102,-1,49,102,47,-1,47,102,107,-1,47,107,45,-1,45,107,105,-1,45,105,104,-1,136,137,138,-1,138,137,139,-1,140,136,141,-1,141,136,138,-1,140,141,142,-1,140,142,143,-1,143,142,144,-1,143,144,145,-1,146,145,147,-1,147,145,144,-1,148,146,149,-1,149,146,147,-1,150,151,152,-1,152,151,148,-1,152,148,149,-1,153,151,154,-1,154,151,150,-1,155,156,157,-1,157,156,153,-1,157,153,154,-1,158,159,160,-1,160,159,156,-1,160,156,155,-1,158,161,159,-1,159,161,162,-1,161,163,162,-1,162,163,164,-1,162,164,165,-1,165,164,166,-1,165,166,167,-1,167,166,168,-1,167,168,169,-1,169,168,170,-1,169,170,171,-1,171,170,172,-1,171,172,173,-1,173,172,174,-1,173,174,175,-1,175,174,176,-1,175,176,177,-1,178,177,179,-1,179,177,176,-1,178,179,180,-1,178,180,181,-1,181,180,182,-1,181,182,183,-1,183,182,184,-1,185,186,184,-1,184,186,187,-1,184,187,183,-1,185,188,186,-1,186,188,189,-1,186,189,190,-1,190,189,191,-1,190,191,192,-1,192,191,193,-1,192,193,194,-1,139,137,195,-1,195,137,194,-1,195,194,193,-1,143,145,194,-1,137,136,194,-1,194,136,140,-1,194,140,143,-1,151,153,148,-1,148,153,156,-1,148,156,146,-1,145,146,194,-1,194,146,156,-1,194,156,192,-1,156,159,192,-1,192,159,162,-1,192,162,190,-1,190,162,165,-1,190,165,186,-1,186,165,167,-1,186,167,187,-1,187,167,169,-1,187,169,183,-1,183,169,171,-1,183,171,181,-1,181,171,173,-1,181,173,178,-1,178,173,175,-1,178,175,177,-1,196,197,198,-1,198,197,199,-1,200,201,202,-1,202,201,196,-1,202,196,198,-1,203,201,204,-1,204,201,200,-1,205,206,207,-1,207,206,203,-1,207,203,204,-1,208,206,209,-1,209,206,205,-1,210,211,212,-1,212,211,208,-1,212,208,209,-1,213,211,214,-1,214,211,210,-1,215,216,217,-1,217,216,213,-1,217,213,214,-1,218,216,219,-1,219,216,215,-1,220,221,222,-1,222,221,218,-1,222,218,219,-1,223,221,224,-1,224,221,220,-1,199,197,225,-1,225,197,223,-1,225,223,224,-1,223,197,196,-1,196,201,223,-1,223,201,203,-1,223,203,221,-1,216,218,213,-1,213,218,221,-1,213,221,211,-1,211,221,203,-1,211,203,208,-1,208,203,206,-1,226,227,228,-1,228,227,229,-1,228,229,230,-1,230,229,231,-1,230,231,232,-1,232,231,233,-1,232,233,234,-1,234,233,235,-1,234,235,236,-1,236,235,237,-1,236,237,238,-1,238,237,239,-1,238,239,240,-1,240,239,241,-1,240,241,242,-1,242,241,243,-1,242,243,244,-1,244,243,245,-1,244,245,246,-1,246,245,247,-1,246,247,248,-1,248,247,249,-1,248,249,250,-1,250,249,251,-1,250,251,252,-1,252,251,253,-1,252,253,254,-1,254,253,255,-1,254,255,256,-1,256,255,257,-1,256,257,258,-1,258,257,259,-1,258,259,260,-1,260,259,226,-1,260,226,228,-1,234,236,261,-1,261,236,262,-1,234,261,263,-1,234,263,232,-1,232,263,264,-1,232,264,230,-1,230,264,265,-1,230,265,228,-1,228,265,266,-1,228,266,260,-1,260,266,267,-1,260,267,258,-1,258,267,268,-1,258,268,256,-1,256,268,269,-1,256,269,254,-1,254,269,270,-1,254,270,252,-1,252,270,271,-1,252,271,250,-1,250,271,272,-1,250,272,248,-1,248,272,273,-1,248,273,246,-1,246,273,274,-1,246,274,244,-1,244,274,275,-1,244,275,242,-1,242,275,276,-1,242,276,240,-1,238,240,277,-1,277,240,276,-1,236,238,262,-1,262,238,277,-1,241,239,278,-1,278,239,279,-1,239,237,279,-1,279,237,280,-1,237,235,280,-1,280,235,281,-1,227,282,283,-1,227,283,229,-1,229,283,284,-1,229,284,231,-1,231,284,285,-1,231,285,233,-1,233,285,281,-1,233,281,235,-1,255,286,287,-1,255,287,257,-1,257,287,288,-1,257,288,259,-1,259,288,289,-1,259,289,226,-1,226,289,282,-1,226,282,227,-1,247,290,291,-1,247,291,249,-1,249,291,292,-1,249,292,251,-1,251,292,293,-1,251,293,253,-1,253,293,286,-1,253,286,255,-1,241,278,294,-1,241,294,243,-1,243,294,295,-1,243,295,245,-1,245,295,290,-1,245,290,247,-1,
        ]
    }
}
Shape{
    appearance Appearance {
        material  Material 	{
            diffuseColor 0.2235294117647059 0.2235294117647059 0.2235294117647059
            specularColor 0.11372549019607843 0.11372549019607843 0.11372549019607843
            ambientIntensity 0.2235
            transparency 0.0
            shininess 0.5
        }
    }
    geometry IndexedFaceSet {
        ccw TRUE
        solid FALSE
        coord DEF co Coordinate {
            point [
                0.5338 -0.5744 0.3622, 0.5338 -0.6115 0.3622, 0.5411 -0.5744 0.3622, 0.5408 -0.6115 0.3622, 0.5469 -0.6108 0.3622, 0.551 -0.6093 0.3622, 0.5542 -0.6073 0.3622, 0.5551 -0.6065 0.3622, 0.5574 -0.6035 0.3622, 0.5591 -0.5999 0.3622, 0.56 -0.5955 0.3622, 0.5602 -0.5925 0.3622, 0.5595 -0.5864 0.3622, 0.5581 -0.5829 0.3622, 0.5562 -0.5802 0.3622, 0.5549 -0.579 0.3622, 0.5472 -0.5751 0.3622, 0.5514 -0.5766 0.3622
            ]
        }
        coordIndex [
            0,1,2,-1,2,1,3,-1,2,3,4,-1,4,5,2,-1,2,5,6,-1,2,6,7,-1,7,8,2,-1,2,8,9,-1,2,9,10,-1,10,11,2,-1,2,11,12,-1,2,12,13,-1,13,14,2,-1,2,14,15,-1,2,15,16,-1,16,15,17,-1,
        ]
    }
}
Shape{
    appearance Appearance {
        material  Material 	{
            diffuseColor 1.0 1.0 1.0
            specularColor 0.5019607843137255 0.5019607843137255 0.5019607843137255
            ambientIntensity 1.0
            transparency 0.0
            shininess 0.5
        }
    }
    geometry IndexedFaceSet {
        ccw TRUE
        solid FALSE
        coord DEF co Coordinate {
            point [
                0.5828 -0.5984 0.3626, 0.5808 -0.6038 0.3626, 0.5989 -0.5984 0.3626, 0.6008 -0.6038 0.3626, 0.59 -0.5784 0.3626, 0.5877 -0.5689 0.3626, 0.5694 -0.6169 0.3626, 0.5762 -0.6169 0.3626, 0.5904 -0.577 0.3626, 0.5908 -0.575 0.3626, 0.5943 -0.5689 0.3626, 0.5909 -0.575 0.3626, 0.5913 -0.5771 0.3626, 0.5917 -0.5784 0.3626, 0.6126 -0.6169 0.3626, 0.6057 -0.6169 0.3626, 0.5943 -0.5689 0.3622, 0.6126 -0.6169 0.3622, 0.5877 -0.5689 0.3622, 0.5694 -0.6169 0.3622, 0.5762 -0.6169 0.3622, 0.5808 -0.6038 0.3622, 0.6008 -0.6038 0.3622, 0.6057 -0.6169 0.3622, 0.5828 -0.5984 0.3622, 0.5989 -0.5984 0.3622, 0.5917 -0.5784 0.3622, 0.5909 -0.575 0.3622, 0.5913 -0.5771 0.3622, 0.5908 -0.575 0.3622, 0.59 -0.5784 0.3622, 0.5904 -0.577 0.3622
            ]
        }
        coordIndex [
            0,1,2,-1,2,1,3,-1,4,5,0,-1,0,5,6,-1,0,6,1,-1,1,6,7,-1,4,8,5,-1,5,8,9,-1,5,9,10,-1,10,9,11,-1,10,11,12,-1,12,13,10,-1,10,13,2,-1,10,2,14,-1,14,2,3,-1,14,3,15,-1,10,14,16,-1,16,14,17,-1,5,10,18,-1,18,10,16,-1,6,5,19,-1,19,5,18,-1,7,6,20,-1,20,6,19,-1,1,7,21,-1,21,7,20,-1,3,1,22,-1,22,1,21,-1,15,3,23,-1,23,3,22,-1,14,15,17,-1,17,15,23,-1,0,2,24,-1,24,2,25,-1,2,13,25,-1,25,13,26,-1,11,27,28,-1,11,28,12,-1,12,28,26,-1,12,26,13,-1,11,9,27,-1,27,9,29,-1,4,30,31,-1,4,31,8,-1,8,31,29,-1,8,29,9,-1,4,0,30,-1,30,0,24,-1,
        ]
    }
}
Shape{
    appearance Appearance {
        material  Material 	{
            diffuseColor 0.2235294117647059 0.2235294117647059 0.2235294117647059
            specularColor 0.11372549019607843 0.11372549019607843 0.11372549019607843
            ambientIntensity 0.2235
            transparency 0.0
            shininess 0.5
        }
    }
    geometry IndexedFaceSet {
        ccw TRUE
        solid FALSE
        coord DEF co Coordinate {
            point [
                0.5909 -0.575 0.3622, 0.5908 -0.575 0.3622, 0.5913 -0.5771 0.3622, 0.5904 -0.577 0.3622, 0.5917 -0.5784 0.3622, 0.59 -0.5784 0.3622, 0.5989 -0.5984 0.3622, 0.5828 -0.5984 0.3622
            ]
        }
        coordIndex [
            0,1,2,-1,2,1,3,-1,2,3,4,-1,4,3,5,-1,4,5,6,-1,6,5,7,-1,
        ]
    }
}
Shape{
    appearance Appearance {
        material  Material 	{
            diffuseColor 1.0 1.0 1.0
            specularColor 0.5019607843137255 0.5019607843137255 0.5019607843137255
            ambientIntensity 1.0
            transparency 0.0
            shininess 0.5
        }
    }
    geometry IndexedFaceSet {
        ccw TRUE
        solid FALSE
        coord DEF co Coordinate {
            point [
                0.1475 -0.6237 0.3626, 0.1525 -0.63 0.3626, 0.1444 -0.5935 0.3626, 0.2991 -0.5696 0.3626, 0.2983 -0.5763 0.3626, 0.3186 -0.5818 0.3626, 0.179 -0.5928 0.3626, 0.1822 -0.594 0.3626, 0.2106 -0.6021 0.3626, 0.1849 -0.5958 0.3626, 0.1871 -0.5983 0.3626, 0.2585 -0.5768 0.3626, 0.2479 -0.5587 0.3626, 0.2021 -0.5826 0.3626, 0.1761 -0.5925 0.3626, 0.1673 -0.6158 0.3626, 0.17 -0.6176 0.3626, 0.1592 -0.6351 0.3626, 0.1731 -0.6188 0.3626, 0.1369 -0.589 0.3626, 0.1383 -0.6146 0.3626, 0.144 -0.6164 0.3626, 0.1886 -0.6011 0.3626, 0.1894 -0.6042 0.3626, 0.2106 -0.6055 0.3626, 0.1894 -0.6074 0.3626, 0.1733 -0.5928 0.3626, 0.1683 -0.572 0.3626, 0.1702 -0.5939 0.3626, 0.1608 -0.5749 0.3626, 0.1675 -0.5957 0.3626, 0.1538 -0.5797 0.3626, 0.1653 -0.5981 0.3626, 0.1482 -0.5862 0.3626, 0.1637 -0.6011 0.3626, 0.1629 -0.6044 0.3626, 0.2697 -0.543 0.3626, 0.2725 -0.543 0.3626, 0.2865 -0.5245 0.3626, 0.279 -0.5438 0.3626, 0.2884 -0.5252 0.3626, 0.2849 -0.5461 0.3626, 0.2985 -0.5303 0.3626, 0.3077 -0.5382 0.3626, 0.1736 -0.5317 0.3626, 0.1761 -0.5331 0.3626, 0.1656 -0.5082 0.3626, 0.1811 -0.5227 0.3626, 0.1726 -0.5 0.3626, 0.1886 -0.5135 0.3626, 0.1806 -0.4931 0.3626, 0.1981 -0.5065 0.3626, 0.1889 -0.488 0.3626, 0.1889 -0.5733 0.3626, 0.1807 -0.5713 0.3626, 0.1765 -0.571 0.3626, 0.3143 -0.5926 0.3626, 0.2959 -0.5824 0.3626, 0.3076 -0.6017 0.3626, 0.268 -0.4976 0.3626, 0.2556 -0.5142 0.3626, 0.2792 -0.5104 0.3626, 0.2631 -0.5236 0.3626, 0.2681 -0.5348 0.3626, 0.1308 -0.5827 0.3626, 0.1167 -0.6 0.3626, 0.1261 -0.6083 0.3626, 0.1249 -0.5539 0.3626, 0.1025 -0.5589 0.3626, 0.1239 -0.5621 0.3626, 0.1024 -0.5628 0.3626, 0.1243 -0.5673 0.3626, 0.1037 -0.5749 0.3626, 0.1267 -0.5757 0.3626, 0.1083 -0.5877 0.3626, 0.1155 -0.5987 0.3626, 0.2902 -0.5498 0.3626, 0.2942 -0.5542 0.3626, 0.3147 -0.5479 0.3626, 0.2974 -0.5601 0.3626, 0.3188 -0.5584 0.3626, 0.2989 -0.5667 0.3626, 0.3203 -0.5693 0.3626, 0.3203 -0.5707 0.3626, 0.2922 -0.5877 0.3626, 0.2917 -0.5882 0.3626, 0.2981 -0.6098 0.3626, 0.2866 -0.5923 0.3626, 0.2876 -0.6148 0.3626, 0.2806 -0.5951 0.3626, 0.2766 -0.6171 0.3626, 0.2745 -0.5963 0.3626, 0.2564 -0.6171 0.3626, 0.2591 -0.5963 0.3626, 0.2547 -0.6168 0.3626, 0.2046 -0.4819 0.3626, 0.2093 -0.5019 0.3626, 0.2216 -0.4798 0.3626, 0.2219 -0.5003 0.3626, 0.2357 -0.4813 0.3626, 0.2331 -0.5016 0.3626, 0.2528 -0.4873 0.3626, 0.2438 -0.5056 0.3626, 0.2535 -0.5122 0.3626, 0.166 -0.5289 0.3626, 0.1616 -0.5077 0.3626, 0.158 -0.528 0.3626, 0.1577 -0.5075 0.3626, 0.1545 -0.5281 0.3626, 0.1455 -0.5088 0.3626, 0.1461 -0.5301 0.3626, 0.1328 -0.5134 0.3626, 0.1385 -0.5342 0.3626, 0.1214 -0.5211 0.3626, 0.1326 -0.5394 0.3626, 0.1184 -0.5239 0.3626, 0.1278 -0.5463 0.3626, 0.1109 -0.5333 0.3626, 0.1051 -0.5455 0.3626, 0.1651 -0.6133 0.3626, 0.1636 -0.6104 0.3626, 0.1629 -0.6073 0.3626, 0.1961 -0.5772 0.3626, 0.1671 -0.6384 0.3626, 0.1752 -0.6396 0.3626, 0.1761 -0.6192 0.3626, 0.1765 -0.6397 0.3626, 0.1791 -0.6188 0.3626, 0.1847 -0.6386 0.3626, 0.1821 -0.6178 0.3626, 0.1924 -0.6357 0.3626, 0.1847 -0.616 0.3626, 0.1992 -0.631 0.3626, 0.187 -0.6136 0.3626, 0.2044 -0.6251 0.3626, 0.1886 -0.6107 0.3626, 0.2085 -0.6174 0.3626, 0.2105 -0.609 0.3626, 0.2574 -0.596 0.3626, 0.2492 -0.6135 0.3626, 0.2501 -0.6145 0.3626, 0.2465 -0.6065 0.3626, 0.2468 -0.609 0.3626, 0.2477 -0.6113 0.3626, 0.2585 -0.5962 0.3626, 0.2524 -0.616 0.3626, 0.2546 -0.5963 0.3626, 0.2522 -0.5972 0.3626, 0.2466 -0.6055 0.3626, 0.2501 -0.5986 0.3626, 0.2484 -0.6005 0.3626, 0.2472 -0.6029 0.3626, 0.2571 -0.5959 0.3626, 0.3203 -0.5693 0.3622, 0.3188 -0.5584 0.3622, 0.3098 -0.5411 0.3622, 0.3175 -0.5552 0.3622, 0.3147 -0.5479 0.3622, 0.3077 -0.5382 0.3622, 0.2985 -0.5303 0.3622, 0.2884 -0.5252 0.3622, 0.2865 -0.5245 0.3622, 0.2792 -0.5104 0.3622, 0.268 -0.4976 0.3622, 0.2602 -0.4923 0.3622, 0.2528 -0.4873 0.3622, 0.2357 -0.4813 0.3622, 0.2216 -0.4798 0.3622, 0.1806 -0.4931 0.3622, 0.1819 -0.4923 0.3622, 0.1889 -0.488 0.3622, 0.2046 -0.4819 0.3622, 0.1726 -0.5 0.3622, 0.1656 -0.5082 0.3622, 0.1616 -0.5077 0.3622, 0.1577 -0.5075 0.3622, 0.1455 -0.5088 0.3622, 0.1328 -0.5134 0.3622, 0.1214 -0.5211 0.3622, 0.1184 -0.5239 0.3622, 0.1024 -0.5628 0.3622, 0.1109 -0.5333 0.3622, 0.1072 -0.5411 0.3622, 0.1051 -0.5455 0.3622, 0.1032 -0.5552 0.3622, 0.1025 -0.5589 0.3622, 0.1037 -0.5749 0.3622, 0.1083 -0.5877 0.3622, 0.1155 -0.5987 0.3622, 0.1167 -0.6 0.3622, 0.1261 -0.6083 0.3622, 0.1383 -0.6146 0.3622, 0.144 -0.6164 0.3622, 0.1445 -0.6174 0.3622, 0.1475 -0.6237 0.3622, 0.1525 -0.63 0.3622, 0.1592 -0.6351 0.3622, 0.1624 -0.6364 0.3622, 0.1671 -0.6384 0.3622, 0.1752 -0.6396 0.3622, 0.1765 -0.6397 0.3622, 0.2106 -0.6055 0.3622, 0.1847 -0.6386 0.3622, 0.1906 -0.6364 0.3622, 0.1924 -0.6357 0.3622, 0.1992 -0.631 0.3622, 0.2044 -0.6251 0.3622, 0.2085 -0.6174 0.3622, 0.2085 -0.6174 0.3622, 0.2105 -0.609 0.3622, 0.2106 -0.6021 0.3622, 0.2585 -0.5768 0.3622, 0.2479 -0.5587 0.3622, 0.2021 -0.5826 0.3622, 0.1961 -0.5772 0.3622, 0.1889 -0.5733 0.3622, 0.1807 -0.5713 0.3622, 0.1765 -0.571 0.3622, 0.1683 -0.572 0.3622, 0.1608 -0.5749 0.3622, 0.1538 -0.5797 0.3622, 0.1482 -0.5862 0.3622, 0.1444 -0.5935 0.3622, 0.1369 -0.589 0.3622, 0.1308 -0.5827 0.3622, 0.1267 -0.5757 0.3622, 0.1243 -0.5673 0.3622, 0.1239 -0.5621 0.3622, 0.1247 -0.5552 0.3622, 0.1249 -0.5539 0.3622, 0.1278 -0.5463 0.3622, 0.1314 -0.5411 0.3622, 0.1326 -0.5394 0.3622, 0.1385 -0.5342 0.3622, 0.1461 -0.5301 0.3622, 0.1545 -0.5281 0.3622, 0.158 -0.528 0.3622, 0.166 -0.5289 0.3622, 0.1736 -0.5317 0.3622, 0.1761 -0.5331 0.3622, 0.1811 -0.5227 0.3622, 0.1886 -0.5135 0.3622, 0.1981 -0.5065 0.3622, 0.2093 -0.5019 0.3622, 0.2219 -0.5003 0.3622, 0.2697 -0.543 0.3622, 0.2694 -0.5411 0.3622, 0.2681 -0.5348 0.3622, 0.2631 -0.5236 0.3622, 0.2556 -0.5142 0.3622, 0.2535 -0.5122 0.3622, 0.2438 -0.5056 0.3622, 0.2331 -0.5016 0.3622, 0.2725 -0.543 0.3622, 0.279 -0.5438 0.3622, 0.2849 -0.5461 0.3622, 0.2902 -0.5498 0.3622, 0.2942 -0.5542 0.3622, 0.2947 -0.5552 0.3622, 0.2974 -0.5601 0.3622, 0.2989 -0.5667 0.3622, 0.2991 -0.5696 0.3622, 0.2983 -0.5763 0.3622, 0.2959 -0.5824 0.3622, 0.2922 -0.5877 0.3622, 0.2917 -0.5882 0.3622, 0.2866 -0.5923 0.3622, 0.2806 -0.5951 0.3622, 0.2745 -0.5963 0.3622, 0.2591 -0.5963 0.3622, 0.2585 -0.5962 0.3622, 0.2574 -0.596 0.3622, 0.2571 -0.5959 0.3622, 0.2546 -0.5963 0.3622, 0.2522 -0.5972 0.3622, 0.2501 -0.5986 0.3622, 0.2484 -0.6005 0.3622, 0.2472 -0.6029 0.3622, 0.2466 -0.6055 0.3622, 0.2465 -0.6065 0.3622, 0.2468 -0.609 0.3622, 0.2477 -0.6113 0.3622, 0.2492 -0.6135 0.3622, 0.2501 -0.6145 0.3622, 0.2524 -0.616 0.3622, 0.2547 -0.6168 0.3622, 0.2564 -0.6171 0.3622, 0.2766 -0.6171 0.3622, 0.2876 -0.6148 0.3622, 0.2981 -0.6098 0.3622, 0.3076 -0.6017 0.3622, 0.3143 -0.5926 0.3622, 0.3186 -0.5818 0.3622, 0.3203 -0.5707 0.3622, 0.1761 -0.5925 0.3622, 0.179 -0.5928 0.3622, 0.1822 -0.594 0.3622, 0.1849 -0.5958 0.3622, 0.1871 -0.5983 0.3622, 0.1886 -0.6011 0.3622, 0.1894 -0.6042 0.3622, 0.1894 -0.6074 0.3622, 0.1886 -0.6107 0.3622, 0.187 -0.6136 0.3622, 0.1847 -0.616 0.3622, 0.1821 -0.6178 0.3622, 0.1791 -0.6188 0.3622, 0.1761 -0.6192 0.3622, 0.1731 -0.6188 0.3622, 0.17 -0.6176 0.3622, 0.1673 -0.6158 0.3622, 0.1651 -0.6133 0.3622, 0.1636 -0.6104 0.3622, 0.1629 -0.6073 0.3622, 0.1629 -0.6044 0.3622, 0.1637 -0.6011 0.3622, 0.1653 -0.5981 0.3622, 0.1675 -0.5957 0.3622, 0.1702 -0.5939 0.3622, 0.1733 -0.5928 0.3622
            ]
        }
        coordIndex [
            0,1,2,-1,3,4,5,-1,6,7,8,-1,8,7,9,-1,8,9,10,-1,11,12,8,-1,8,12,13,-1,8,13,6,-1,6,13,14,-1,15,1,16,-1,16,1,17,-1,16,17,18,-1,19,20,2,-1,2,20,21,-1,2,21,0,-1,10,22,8,-1,8,22,23,-1,8,23,24,-1,24,23,25,-1,26,27,28,-1,28,27,29,-1,28,29,30,-1,30,29,31,-1,30,31,32,-1,32,31,33,-1,32,33,34,-1,34,33,2,-1,34,2,35,-1,36,37,38,-1,38,37,39,-1,38,39,40,-1,40,39,41,-1,40,41,42,-1,42,41,43,-1,44,45,46,-1,46,45,47,-1,46,47,48,-1,48,47,49,-1,48,49,50,-1,50,49,51,-1,50,51,52,-1,53,54,26,-1,26,54,55,-1,26,55,27,-1,5,4,56,-1,56,4,57,-1,56,57,58,-1,59,60,61,-1,61,60,62,-1,61,62,38,-1,38,62,63,-1,38,63,36,-1,64,65,19,-1,19,65,66,-1,19,66,20,-1,67,68,69,-1,69,68,70,-1,69,70,71,-1,71,70,72,-1,71,72,73,-1,73,72,74,-1,73,74,64,-1,64,74,75,-1,64,75,65,-1,41,76,43,-1,43,76,77,-1,43,77,78,-1,78,77,79,-1,78,79,80,-1,80,79,81,-1,80,81,82,-1,82,81,3,-1,82,3,83,-1,83,3,5,-1,57,84,58,-1,58,84,85,-1,58,85,86,-1,86,85,87,-1,86,87,88,-1,88,87,89,-1,88,89,90,-1,90,89,91,-1,90,91,92,-1,92,91,93,-1,92,93,94,-1,52,51,95,-1,95,51,96,-1,95,96,97,-1,97,96,98,-1,97,98,99,-1,99,98,100,-1,99,100,101,-1,101,100,102,-1,101,102,59,-1,59,102,103,-1,59,103,60,-1,44,46,104,-1,104,46,105,-1,104,105,106,-1,106,105,107,-1,106,107,108,-1,108,107,109,-1,108,109,110,-1,110,109,111,-1,110,111,112,-1,112,111,113,-1,112,113,114,-1,114,113,115,-1,114,115,116,-1,116,115,117,-1,116,117,67,-1,67,117,118,-1,67,118,68,-1,15,119,1,-1,1,119,120,-1,1,120,2,-1,2,120,121,-1,2,121,35,-1,14,13,26,-1,26,13,122,-1,26,122,53,-1,17,123,18,-1,18,123,124,-1,18,124,125,-1,125,124,126,-1,125,126,127,-1,127,126,128,-1,127,128,129,-1,129,128,130,-1,129,130,131,-1,131,130,132,-1,131,132,133,-1,133,132,134,-1,133,134,135,-1,135,134,136,-1,135,136,25,-1,25,136,137,-1,25,137,24,-1,138,139,140,-1,141,142,138,-1,138,142,143,-1,138,143,139,-1,93,144,94,-1,94,144,138,-1,94,138,145,-1,145,138,140,-1,146,147,148,-1,147,149,148,-1,148,149,150,-1,148,150,151,-1,141,138,148,-1,148,138,152,-1,148,152,146,-1,82,153,154,-1,155,43,78,-1,82,154,80,-1,80,154,156,-1,80,156,78,-1,78,156,157,-1,78,157,155,-1,155,158,43,-1,43,158,159,-1,43,159,42,-1,42,159,160,-1,42,160,40,-1,40,160,161,-1,40,161,38,-1,38,161,162,-1,38,162,61,-1,61,162,163,-1,61,163,59,-1,101,59,164,-1,164,59,163,-1,164,165,101,-1,101,165,166,-1,101,166,99,-1,99,166,167,-1,99,167,97,-1,168,50,169,-1,169,50,52,-1,169,52,170,-1,170,52,95,-1,170,95,171,-1,171,95,97,-1,171,97,167,-1,50,168,172,-1,50,172,48,-1,48,172,173,-1,48,173,46,-1,46,173,174,-1,46,174,105,-1,105,174,175,-1,105,175,107,-1,107,175,176,-1,107,176,109,-1,109,176,177,-1,109,177,111,-1,111,177,178,-1,111,178,113,-1,113,178,179,-1,113,179,115,-1,180,70,68,-1,115,179,181,-1,115,181,117,-1,117,181,182,-1,117,182,118,-1,182,183,118,-1,118,183,184,-1,118,184,68,-1,68,184,185,-1,68,185,180,-1,70,180,186,-1,70,186,72,-1,72,186,187,-1,72,187,74,-1,74,187,188,-1,74,188,75,-1,75,188,189,-1,75,189,65,-1,65,189,190,-1,65,190,66,-1,66,190,191,-1,66,191,20,-1,20,191,192,-1,20,192,21,-1,21,192,193,-1,21,193,0,-1,193,194,0,-1,0,194,195,-1,0,195,1,-1,1,195,196,-1,1,196,17,-1,17,196,197,-1,17,197,123,-1,197,198,123,-1,123,198,199,-1,123,199,124,-1,124,199,200,-1,124,200,126,-1,201,24,137,-1,126,200,202,-1,126,202,128,-1,128,202,203,-1,128,203,130,-1,203,204,130,-1,130,204,205,-1,130,205,132,-1,132,205,206,-1,132,206,134,-1,134,206,207,-1,134,207,136,-1,136,207,208,-1,136,208,137,-1,137,208,209,-1,137,209,201,-1,8,24,210,-1,210,24,201,-1,11,8,211,-1,211,8,210,-1,12,11,212,-1,212,11,211,-1,13,12,213,-1,213,12,212,-1,13,213,214,-1,13,214,122,-1,122,214,215,-1,122,215,53,-1,53,215,216,-1,53,216,54,-1,54,216,217,-1,54,217,55,-1,55,217,218,-1,55,218,27,-1,27,218,219,-1,27,219,29,-1,29,219,220,-1,29,220,31,-1,31,220,221,-1,31,221,33,-1,33,221,222,-1,33,222,2,-1,2,222,223,-1,2,223,19,-1,19,223,224,-1,19,224,64,-1,64,224,225,-1,64,225,73,-1,73,225,226,-1,73,226,71,-1,71,226,227,-1,71,227,69,-1,67,69,228,-1,228,69,227,-1,228,229,67,-1,67,229,230,-1,67,230,116,-1,116,230,231,-1,116,231,114,-1,231,232,114,-1,114,232,233,-1,114,233,112,-1,112,233,234,-1,112,234,110,-1,110,234,235,-1,110,235,108,-1,108,235,236,-1,108,236,106,-1,106,236,237,-1,106,237,104,-1,104,237,238,-1,104,238,44,-1,44,238,239,-1,44,239,45,-1,45,239,240,-1,45,240,47,-1,47,240,241,-1,47,241,49,-1,49,241,242,-1,49,242,51,-1,51,242,243,-1,51,243,96,-1,96,243,244,-1,96,244,98,-1,245,36,246,-1,246,36,63,-1,246,63,247,-1,247,63,62,-1,247,62,248,-1,248,62,60,-1,248,60,249,-1,249,60,103,-1,249,103,250,-1,250,103,102,-1,250,102,251,-1,251,102,100,-1,251,100,252,-1,252,100,98,-1,252,98,244,-1,37,36,253,-1,253,36,245,-1,37,253,254,-1,37,254,39,-1,39,254,255,-1,39,255,41,-1,41,255,256,-1,41,256,76,-1,76,256,257,-1,76,257,77,-1,77,257,258,-1,77,258,79,-1,258,259,79,-1,79,259,260,-1,79,260,81,-1,81,260,261,-1,81,261,3,-1,3,261,262,-1,3,262,4,-1,4,262,263,-1,4,263,57,-1,57,263,264,-1,57,264,84,-1,84,264,265,-1,84,265,85,-1,85,265,266,-1,85,266,87,-1,87,266,267,-1,87,267,89,-1,89,267,268,-1,89,268,91,-1,93,91,269,-1,269,91,268,-1,93,269,270,-1,93,270,144,-1,144,270,271,-1,144,271,138,-1,138,271,272,-1,138,272,152,-1,152,272,273,-1,152,273,146,-1,146,273,274,-1,146,274,147,-1,147,274,275,-1,147,275,149,-1,149,275,276,-1,149,276,150,-1,150,276,277,-1,150,277,151,-1,151,277,278,-1,151,278,148,-1,148,278,279,-1,148,279,141,-1,141,279,280,-1,141,280,142,-1,142,280,281,-1,142,281,143,-1,143,281,282,-1,143,282,139,-1,139,282,283,-1,139,283,140,-1,140,283,284,-1,140,284,145,-1,145,284,285,-1,145,285,94,-1,94,285,286,-1,94,286,92,-1,90,92,287,-1,287,92,286,-1,90,287,288,-1,90,288,88,-1,88,288,289,-1,88,289,86,-1,86,289,290,-1,86,290,58,-1,58,290,291,-1,58,291,56,-1,56,291,292,-1,56,292,5,-1,5,292,293,-1,5,293,83,-1,83,293,153,-1,83,153,82,-1,14,294,295,-1,14,295,6,-1,6,295,296,-1,6,296,7,-1,7,296,297,-1,7,297,9,-1,9,297,298,-1,9,298,10,-1,10,298,299,-1,10,299,22,-1,22,299,300,-1,22,300,23,-1,23,300,301,-1,23,301,25,-1,25,301,302,-1,25,302,135,-1,135,302,303,-1,135,303,133,-1,133,303,304,-1,133,304,131,-1,131,304,305,-1,131,305,129,-1,129,305,306,-1,129,306,127,-1,127,306,307,-1,127,307,125,-1,125,307,308,-1,125,308,18,-1,18,308,309,-1,18,309,16,-1,16,309,310,-1,16,310,15,-1,15,310,311,-1,15,311,119,-1,119,311,312,-1,119,312,120,-1,120,312,313,-1,120,313,121,-1,121,313,314,-1,121,314,35,-1,35,314,315,-1,35,315,34,-1,34,315,316,-1,34,316,32,-1,32,316,317,-1,32,317,30,-1,30,317,318,-1,30,318,28,-1,28,318,319,-1,28,319,26,-1,26,319,294,-1,26,294,14,-1,
        ]
    }
}
Shape{
    appearance Appearance {
        material  Material 	{
            diffuseColor 0.2235294117647059 0.2235294117647059 0.2235294117647059
            specularColor 0.11372549019607843 0.11372549019607843 0.11372549019607843
            ambientIntensity 0.2235
            transparency 0.0
            shininess 0.5
        }
    }
    geometry IndexedFaceSet {
        ccw TRUE
        solid FALSE
        coord DEF co Coordinate {
            point [
                0.1761 -0.5925 0.3622, 0.1761 -0.6192 0.3622, 0.1791 -0.6188 0.3622, 0.1702 -0.5939 0.3622, 0.1629 -0.6044 0.3622, 0.1733 -0.5928 0.3622, 0.1629 -0.6073 0.3622, 0.1894 -0.6042 0.3622, 0.1886 -0.6011 0.3622, 0.1871 -0.5983 0.3622, 0.1849 -0.5958 0.3622, 0.1636 -0.6104 0.3622, 0.1651 -0.6133 0.3622, 0.1673 -0.6158 0.3622, 0.1822 -0.594 0.3622, 0.179 -0.5928 0.3622, 0.1675 -0.5957 0.3622, 0.1653 -0.5981 0.3622, 0.1637 -0.6011 0.3622, 0.17 -0.6176 0.3622, 0.1731 -0.6188 0.3622, 0.1821 -0.6178 0.3622, 0.1847 -0.616 0.3622, 0.1894 -0.6074 0.3622, 0.187 -0.6136 0.3622, 0.1886 -0.6107 0.3622
            ]
        }
        coordIndex [
            0,1,2,-1,3,4,5,-1,5,4,6,-1,5,6,0,-1,7,8,2,-1,2,8,9,-1,2,9,10,-1,6,11,0,-1,0,11,12,-1,0,12,13,-1,10,14,2,-1,2,14,15,-1,2,15,0,-1,3,16,4,-1,4,16,17,-1,4,17,18,-1,13,19,0,-1,0,19,20,-1,0,20,1,-1,2,21,7,-1,7,21,22,-1,7,22,23,-1,23,22,24,-1,23,24,25,-1,
        ]
    }
}
Shape{
    appearance Appearance {
        material  Material 	{
            diffuseColor 0.8509803921568627 0.8509803921568627 0.8509803921568627
            specularColor 0.4235294117647059 0.4235294117647059 0.4235294117647059
            ambientIntensity 0.851
            transparency 0.0
            shininess 0.5
        }
    }
    geometry IndexedFaceSet {
        ccw TRUE
        solid FALSE
        coord DEF co Coordinate {
            point [
                0.4921 -0.4921 0.0079, 0.4921 -0.4921 0.0, 0.4921 0.4921 0.0079, 0.4921 0.4921 0.0, -0.3543 0.4921 0.0079, -0.3543 0.4921 0.0, -0.4921 0.3543 0.0, -0.4921 -0.4921 0.0, -0.4921 0.3543 0.0079, -0.4921 -0.4921 0.0079, 0.4449 0.6303 0.0079, 0.4449 0.6303 0.0, 0.5394 0.6303 0.0079, 0.5394 0.6303 0.0, 0.5394 0.7878 0.0787, 0.5394 0.7874 0.0787, 0.5394 0.7874 0.0079, 0.5394 0.7878 0.0, 0.4449 0.7874 0.0787, 0.4449 0.7878 0.0787, 0.4449 0.7874 0.0079, 0.4449 0.7878 0.0, 0.248 0.6303 0.0079, 0.248 0.6303 0.0, 0.3425 0.6303 0.0079, 0.3425 0.6303 0.0, 0.248 0.7874 0.0787, 0.248 0.7878 0.0787, 0.248 0.7874 0.0079, 0.248 0.7878 0.0, 0.3425 0.7878 0.0787, 0.3425 0.7874 0.0787, 0.3425 0.7874 0.0079, 0.3425 0.7878 0.0, 0.0512 0.6303 0.0079, 0.0512 0.6303 0.0, 0.1457 0.6303 0.0079, 0.1457 0.6303 0.0, 0.0512 0.7874 0.0787, 0.0512 0.7878 0.0787, 0.0512 0.7874 0.0079, 0.0512 0.7878 0.0, 0.1457 0.7878 0.0787, 0.1457 0.7874 0.0787, 0.1457 0.7874 0.0079, 0.1457 0.7878 0.0, -0.1457 0.6303 0.0079, -0.1457 0.6303 0.0, -0.0512 0.6303 0.0079, -0.0512 0.6303 0.0, -0.1457 0.7874 0.0787, -0.1457 0.7878 0.0787, -0.1457 0.7874 0.0079, -0.1457 0.7878 0.0, -0.0512 0.7878 0.0787, -0.0512 0.7874 0.0787, -0.0512 0.7874 0.0079, -0.0512 0.7878 0.0, -0.3425 0.6303 0.0079, -0.3425 0.6303 0.0, -0.248 0.6303 0.0079, -0.248 0.6303 0.0, -0.3425 0.7874 0.0787, -0.3425 0.7878 0.0787, -0.3425 0.7874 0.0079, -0.3425 0.7878 0.0, -0.248 0.7878 0.0787, -0.248 0.7874 0.0787, -0.248 0.7874 0.0079, -0.248 0.7878 0.0, -0.5394 0.6303 0.0079, -0.5394 0.6303 0.0, -0.4449 0.6303 0.0079, -0.4449 0.6303 0.0, -0.5394 0.7874 0.0787, -0.5394 0.7878 0.0787, -0.5394 0.7874 0.0079, -0.5394 0.7878 0.0, -0.4449 0.7878 0.0787, -0.4449 0.7874 0.0787, -0.4449 0.7874 0.0079, -0.4449 0.7878 0.0, 0.6303 -0.4449 0.0079, 0.6303 -0.4449 0.0, 0.6303 -0.5394 0.0079, 0.6303 -0.5394 0.0, 0.7878 -0.5394 0.0787, 0.7874 -0.5394 0.0787, 0.7874 -0.5394 0.0079, 0.7878 -0.5394 0.0, 0.7874 -0.4449 0.0787, 0.7878 -0.4449 0.0787, 0.7874 -0.4449 0.0079, 0.7878 -0.4449 0.0, 0.6303 -0.248 0.0079, 0.6303 -0.248 0.0, 0.6303 -0.3425 0.0079, 0.6303 -0.3425 0.0, 0.7874 -0.248 0.0787, 0.7878 -0.248 0.0787, 0.7874 -0.248 0.0079, 0.7878 -0.248 0.0, 0.7878 -0.3425 0.0787, 0.7874 -0.3425 0.0787, 0.7874 -0.3425 0.0079, 0.7878 -0.3425 0.0, 0.6303 -0.0512 0.0079, 0.6303 -0.0512 0.0, 0.6303 -0.1457 0.0079, 0.6303 -0.1457 0.0, 0.7874 -0.0512 0.0787, 0.7878 -0.0512 0.0787, 0.7874 -0.0512 0.0079, 0.7878 -0.0512 0.0, 0.7878 -0.1457 0.0787, 0.7874 -0.1457 0.0787, 0.7874 -0.1457 0.0079, 0.7878 -0.1457 0.0, 0.6303 0.1457 0.0079, 0.6303 0.1457 0.0, 0.6303 0.0512 0.0079, 0.6303 0.0512 0.0, 0.7874 0.1457 0.0787, 0.7878 0.1457 0.0787, 0.7874 0.1457 0.0079, 0.7878 0.1457 0.0, 0.7878 0.0512 0.0787, 0.7874 0.0512 0.0787, 0.7874 0.0512 0.0079, 0.7878 0.0512 0.0, 0.6303 0.3425 0.0079, 0.6303 0.3425 0.0, 0.6303 0.248 0.0079, 0.6303 0.248 0.0, 0.7874 0.3425 0.0787, 0.7878 0.3425 0.0787, 0.7874 0.3425 0.0079, 0.7878 0.3425 0.0, 0.7878 0.248 0.0787, 0.7874 0.248 0.0787, 0.7874 0.248 0.0079, 0.7878 0.248 0.0, 0.6303 0.5394 0.0079, 0.6303 0.5394 0.0, 0.6303 0.4449 0.0079, 0.6303 0.4449 0.0, 0.7874 0.5394 0.0787, 0.7878 0.5394 0.0787, 0.7874 0.5394 0.0079, 0.7878 0.5394 0.0, 0.7878 0.4449 0.0787, 0.7874 0.4449 0.0787, 0.7874 0.4449 0.0079, 0.7878 0.4449 0.0, -0.4449 -0.6303 0.0079, -0.4449 -0.6303 0.0, -0.5394 -0.6303 0.0079, -0.5394 -0.6303 0.0, -0.5394 -0.7878 0.0787, -0.5394 -0.7874 0.0787, -0.5394 -0.7874 0.0079, -0.5394 -0.7878 0.0, -0.4449 -0.7874 0.0787, -0.4449 -0.7878 0.0787, -0.4449 -0.7874 0.0079, -0.4449 -0.7878 0.0, -0.248 -0.6303 0.0079, -0.248 -0.6303 0.0, -0.3425 -0.6303 0.0079, -0.3425 -0.6303 0.0, -0.248 -0.7874 0.0787, -0.248 -0.7878 0.0787, -0.248 -0.7874 0.0079, -0.248 -0.7878 0.0, -0.3425 -0.7878 0.0787, -0.3425 -0.7874 0.0787, -0.3425 -0.7874 0.0079, -0.3425 -0.7878 0.0, -0.0512 -0.6303 0.0079, -0.0512 -0.6303 0.0, -0.1457 -0.6303 0.0079, -0.1457 -0.6303 0.0, -0.0512 -0.7874 0.0787, -0.0512 -0.7878 0.0787, -0.0512 -0.7874 0.0079, -0.0512 -0.7878 0.0, -0.1457 -0.7878 0.0787, -0.1457 -0.7874 0.0787, -0.1457 -0.7874 0.0079, -0.1457 -0.7878 0.0, 0.1457 -0.6303 0.0079, 0.1457 -0.6303 0.0, 0.0512 -0.6303 0.0079, 0.0512 -0.6303 0.0, 0.1457 -0.7874 0.0787, 0.1457 -0.7878 0.0787, 0.1457 -0.7874 0.0079, 0.1457 -0.7878 0.0, 0.0512 -0.7878 0.0787, 0.0512 -0.7874 0.0787, 0.0512 -0.7874 0.0079, 0.0512 -0.7878 0.0, 0.3425 -0.6303 0.0079, 0.3425 -0.6303 0.0, 0.248 -0.6303 0.0079, 0.248 -0.6303 0.0, 0.3425 -0.7874 0.0787, 0.3425 -0.7878 0.0787, 0.3425 -0.7874 0.0079, 0.3425 -0.7878 0.0, 0.248 -0.7878 0.0787, 0.248 -0.7874 0.0787, 0.248 -0.7874 0.0079, 0.248 -0.7878 0.0, 0.5394 -0.6303 0.0079, 0.5394 -0.6303 0.0, 0.4449 -0.6303 0.0079, 0.4449 -0.6303 0.0, 0.5394 -0.7874 0.0787, 0.5394 -0.7878 0.0787, 0.5394 -0.7874 0.0079, 0.5394 -0.7878 0.0, 0.4449 -0.7878 0.0787, 0.4449 -0.7874 0.0787, 0.4449 -0.7874 0.0079, 0.4449 -0.7878 0.0, -0.6303 0.4449 0.0079, -0.6303 0.4449 0.0, -0.6303 0.5394 0.0079, -0.6303 0.5394 0.0, -0.7878 0.5394 0.0787, -0.7874 0.5394 0.0787, -0.7874 0.5394 0.0079, -0.7878 0.5394 0.0, -0.7874 0.4449 0.0787, -0.7878 0.4449 0.0787, -0.7874 0.4449 0.0079, -0.7878 0.4449 0.0, -0.6303 0.248 0.0079, -0.6303 0.248 0.0, -0.6303 0.3425 0.0079, -0.6303 0.3425 0.0, -0.7874 0.248 0.0787, -0.7878 0.248 0.0787, -0.7874 0.248 0.0079, -0.7878 0.248 0.0, -0.7878 0.3425 0.0787, -0.7874 0.3425 0.0787, -0.7874 0.3425 0.0079, -0.7878 0.3425 0.0, -0.6303 0.0512 0.0079, -0.6303 0.0512 0.0, -0.6303 0.1457 0.0079, -0.6303 0.1457 0.0, -0.7874 0.0512 0.0787, -0.7878 0.0512 0.0787, -0.7874 0.0512 0.0079, -0.7878 0.0512 0.0, -0.7878 0.1457 0.0787, -0.7874 0.1457 0.0787, -0.7874 0.1457 0.0079, -0.7878 0.1457 0.0, -0.6303 -0.1457 0.0079, -0.6303 -0.1457 0.0, -0.6303 -0.0512 0.0079, -0.6303 -0.0512 0.0, -0.7874 -0.1457 0.0787, -0.7878 -0.1457 0.0787, -0.7874 -0.1457 0.0079, -0.7878 -0.1457 0.0, -0.7878 -0.0512 0.0787, -0.7874 -0.0512 0.0787, -0.7874 -0.0512 0.0079, -0.7878 -0.0512 0.0, -0.6303 -0.3425 0.0079, -0.6303 -0.3425 0.0, -0.6303 -0.248 0.0079, -0.6303 -0.248 0.0, -0.7874 -0.3425 0.0787, -0.7878 -0.3425 0.0787, -0.7874 -0.3425 0.0079, -0.7878 -0.3425 0.0, -0.7878 -0.248 0.0787, -0.7874 -0.248 0.0787, -0.7874 -0.248 0.0079, -0.7878 -0.248 0.0, -0.6303 -0.5394 0.0079, -0.6303 -0.5394 0.0, -0.6303 -0.4449 0.0079, -0.6303 -0.4449 0.0, -0.7874 -0.5394 0.0787, -0.7878 -0.5394 0.0787, -0.7874 -0.5394 0.0079, -0.7878 -0.5394 0.0, -0.7878 -0.4449 0.0787, -0.7874 -0.4449 0.0787, -0.7874 -0.4449 0.0079, -0.7878 -0.4449 0.0
            ]
        }
        coordIndex [
            0,1,2,-1,2,1,3,-1,4,2,5,-1,5,2,3,-1,6,7,8,-1,8,7,9,-1,9,7,0,-1,0,7,1,-1,7,6,1,-1,1,6,5,-1,1,5,3,-1,10,11,12,-1,12,11,13,-1,14,15,16,-1,12,13,16,-1,16,13,17,-1,16,17,14,-1,18,19,20,-1,20,19,21,-1,20,21,10,-1,10,21,11,-1,15,14,18,-1,18,14,19,-1,19,14,21,-1,21,14,17,-1,11,21,13,-1,13,21,17,-1,22,23,24,-1,24,23,25,-1,26,27,28,-1,28,27,29,-1,28,29,22,-1,22,29,23,-1,30,31,32,-1,24,25,32,-1,32,25,33,-1,32,33,30,-1,30,27,31,-1,31,27,26,-1,27,30,29,-1,29,30,33,-1,25,23,33,-1,33,23,29,-1,34,35,36,-1,36,35,37,-1,38,39,40,-1,40,39,41,-1,40,41,34,-1,34,41,35,-1,42,43,44,-1,36,37,44,-1,44,37,45,-1,44,45,42,-1,42,39,43,-1,43,39,38,-1,39,42,41,-1,41,42,45,-1,37,35,45,-1,45,35,41,-1,46,47,48,-1,48,47,49,-1,50,51,52,-1,52,51,53,-1,52,53,46,-1,46,53,47,-1,54,55,56,-1,48,49,56,-1,56,49,57,-1,56,57,54,-1,54,51,55,-1,55,51,50,-1,51,54,53,-1,53,54,57,-1,49,47,57,-1,57,47,53,-1,58,59,60,-1,60,59,61,-1,62,63,64,-1,64,63,65,-1,64,65,58,-1,58,65,59,-1,66,67,68,-1,60,61,68,-1,68,61,69,-1,68,69,66,-1,66,63,67,-1,67,63,62,-1,63,66,65,-1,65,66,69,-1,61,59,69,-1,69,59,65,-1,70,71,72,-1,72,71,73,-1,74,75,76,-1,76,75,77,-1,76,77,70,-1,70,77,71,-1,78,79,80,-1,72,73,80,-1,80,73,81,-1,80,81,78,-1,78,75,79,-1,79,75,74,-1,75,78,77,-1,77,78,81,-1,73,71,81,-1,81,71,77,-1,82,83,84,-1,84,83,85,-1,86,87,88,-1,84,85,88,-1,88,85,89,-1,88,89,86,-1,90,91,92,-1,92,91,93,-1,92,93,82,-1,82,93,83,-1,87,86,90,-1,90,86,91,-1,91,86,93,-1,93,86,89,-1,83,93,85,-1,85,93,89,-1,94,95,96,-1,96,95,97,-1,98,99,100,-1,100,99,101,-1,100,101,94,-1,94,101,95,-1,102,103,104,-1,96,97,104,-1,104,97,105,-1,104,105,102,-1,102,99,103,-1,103,99,98,-1,99,102,101,-1,101,102,105,-1,97,95,105,-1,105,95,101,-1,106,107,108,-1,108,107,109,-1,110,111,112,-1,112,111,113,-1,112,113,106,-1,106,113,107,-1,114,115,116,-1,108,109,116,-1,116,109,117,-1,116,117,114,-1,114,111,115,-1,115,111,110,-1,111,114,113,-1,113,114,117,-1,109,107,117,-1,117,107,113,-1,118,119,120,-1,120,119,121,-1,122,123,124,-1,124,123,125,-1,124,125,118,-1,118,125,119,-1,126,127,128,-1,120,121,128,-1,128,121,129,-1,128,129,126,-1,126,123,127,-1,127,123,122,-1,123,126,125,-1,125,126,129,-1,121,119,129,-1,129,119,125,-1,130,131,132,-1,132,131,133,-1,134,135,136,-1,136,135,137,-1,136,137,130,-1,130,137,131,-1,138,139,140,-1,132,133,140,-1,140,133,141,-1,140,141,138,-1,138,135,139,-1,139,135,134,-1,135,138,137,-1,137,138,141,-1,133,131,141,-1,141,131,137,-1,142,143,144,-1,144,143,145,-1,146,147,148,-1,148,147,149,-1,148,149,142,-1,142,149,143,-1,150,151,152,-1,144,145,152,-1,152,145,153,-1,152,153,150,-1,150,147,151,-1,151,147,146,-1,147,150,149,-1,149,150,153,-1,145,143,153,-1,153,143,149,-1,154,155,156,-1,156,155,157,-1,158,159,160,-1,156,157,160,-1,160,157,161,-1,160,161,158,-1,162,163,164,-1,164,163,165,-1,164,165,154,-1,154,165,155,-1,159,158,162,-1,162,158,163,-1,163,158,165,-1,165,158,161,-1,155,165,157,-1,157,165,161,-1,166,167,168,-1,168,167,169,-1,170,171,172,-1,172,171,173,-1,172,173,166,-1,166,173,167,-1,174,175,176,-1,168,169,176,-1,176,169,177,-1,176,177,174,-1,174,171,175,-1,175,171,170,-1,171,174,173,-1,173,174,177,-1,169,167,177,-1,177,167,173,-1,178,179,180,-1,180,179,181,-1,182,183,184,-1,184,183,185,-1,184,185,178,-1,178,185,179,-1,186,187,188,-1,180,181,188,-1,188,181,189,-1,188,189,186,-1,186,183,187,-1,187,183,182,-1,183,186,185,-1,185,186,189,-1,181,179,189,-1,189,179,185,-1,190,191,192,-1,192,191,193,-1,194,195,196,-1,196,195,197,-1,196,197,190,-1,190,197,191,-1,198,199,200,-1,192,193,200,-1,200,193,201,-1,200,201,198,-1,198,195,199,-1,199,195,194,-1,195,198,197,-1,197,198,201,-1,193,191,201,-1,201,191,197,-1,202,203,204,-1,204,203,205,-1,206,207,208,-1,208,207,209,-1,208,209,202,-1,202,209,203,-1,210,211,212,-1,204,205,212,-1,212,205,213,-1,212,213,210,-1,210,207,211,-1,211,207,206,-1,207,210,209,-1,209,210,213,-1,205,203,213,-1,213,203,209,-1,214,215,216,-1,216,215,217,-1,218,219,220,-1,220,219,221,-1,220,221,214,-1,214,221,215,-1,222,223,224,-1,216,217,224,-1,224,217,225,-1,224,225,222,-1,222,219,223,-1,223,219,218,-1,219,222,221,-1,221,222,225,-1,217,215,225,-1,225,215,221,-1,226,227,228,-1,228,227,229,-1,230,231,232,-1,228,229,232,-1,232,229,233,-1,232,233,230,-1,234,235,236,-1,236,235,237,-1,236,237,226,-1,226,237,227,-1,231,230,234,-1,234,230,235,-1,235,230,237,-1,237,230,233,-1,227,237,229,-1,229,237,233,-1,238,239,240,-1,240,239,241,-1,242,243,244,-1,244,243,245,-1,244,245,238,-1,238,245,239,-1,246,247,248,-1,240,241,248,-1,248,241,249,-1,248,249,246,-1,246,243,247,-1,247,243,242,-1,243,246,245,-1,245,246,249,-1,241,239,249,-1,249,239,245,-1,250,251,252,-1,252,251,253,-1,254,255,256,-1,256,255,257,-1,256,257,250,-1,250,257,251,-1,258,259,260,-1,252,253,260,-1,260,253,261,-1,260,261,258,-1,258,255,259,-1,259,255,254,-1,255,258,257,-1,257,258,261,-1,253,251,261,-1,261,251,257,-1,262,263,264,-1,264,263,265,-1,266,267,268,-1,268,267,269,-1,268,269,262,-1,262,269,263,-1,270,271,272,-1,264,265,272,-1,272,265,273,-1,272,273,270,-1,270,267,271,-1,271,267,266,-1,267,270,269,-1,269,270,273,-1,265,263,273,-1,273,263,269,-1,274,275,276,-1,276,275,277,-1,278,279,280,-1,280,279,281,-1,280,281,274,-1,274,281,275,-1,282,283,284,-1,276,277,284,-1,284,277,285,-1,284,285,282,-1,282,279,283,-1,283,279,278,-1,279,282,281,-1,281,282,285,-1,277,275,285,-1,285,275,281,-1,286,287,288,-1,288,287,289,-1,290,291,292,-1,292,291,293,-1,292,293,286,-1,286,293,287,-1,294,295,296,-1,288,289,296,-1,296,289,297,-1,296,297,294,-1,294,291,295,-1,295,291,290,-1,291,294,293,-1,293,294,297,-1,289,287,297,-1,297,287,293,-1,5,6,4,-1,4,6,8,-1,
        ]
    }
}