#VRML V2.0 utf8
# 3D model generated by easyeda2kicad.py (https://github.com/uPesy/easyeda2kicad.py)

Shape{
    appearance Appearance {
        material  Material 	{
            diffuseColor 0.20784313725490197 0.20784313725490197 0.20784313725490197
            specularColor 0.01568627450980392 0.01568627450980392 0.01568627450980392
            ambientIntensity 0.298
            transparency 0.0
            shininess 0.5
        }
    }
    geometry IndexedFaceSet {
        ccw TRUE
        solid FALSE
        coord DEF co Coordinate {
            point [
                0.0447 -0.0137 0.1181, 0.0447 -0.0252 0.1181, 0.0498 -0.0252 0.1181, 0.1146 -0.0591 0.1181, 0.1181 -0.0591 0.1181, 0.1181 -0.0524 0.1181, 0.0991 -0.0591 0.1181, 0.1146 -0.0524 0.1181, 0.087 -0.0591 0.1181, 0.0991 -0.0524 0.1181, 0.0146 -0.0125 0.1181, 0.0163 -0.0136 0.1181, 0.0377 -0.0136 0.1181, 0.065 -0.0473 0.1181, 0.0646 -0.0473 0.1181, 0.0678 -0.0473 0.1181, 0.0931 -0.0267 0.1181, 0.0917 -0.0231 0.1181, 0.087 -0.0231 0.1181, 0.09 -0.0137 0.1181, 0.0949 -0.0267 0.1181, 0.0991 -0.0268 0.1181, 0.087 -0.0268 0.1181, 0.0864 -0.0231 0.1181, 0.0851 -0.0267 0.1181, 0.0829 -0.0268 0.1181, 0.0833 -0.0267 0.1181, 0.0829 -0.0136 0.1181, 0.087 -0.0169 0.1181, 0.087 -0.0136 0.1181, 0.0595 -0.0156 0.1181, 0.0536 -0.0243 0.1181, 0.0544 -0.0249 0.1181, 0.0585 -0.0152 0.1181, 0.0533 -0.0166 0.1181, 0.0527 -0.0175 0.1181, 0.0523 -0.0187 0.1181, 0.057 -0.015 0.1181, 0.0565 -0.015 0.1181, 0.0534 -0.0165 0.1181, 0.0554 -0.0153 0.1181, 0.0543 -0.0157 0.1181, 0.0521 -0.0204 0.1181, 0.0521 -0.0208 0.1181, 0.0523 -0.0221 0.1181, 0.0554 -0.0252 0.1181, 0.0567 -0.0254 0.1181, 0.0573 -0.0254 0.1181, 0.0527 -0.0232 0.1181, 0.0534 -0.024 0.1181, 0.0588 -0.0251 0.1181, 0.0595 -0.0248 0.1181, 0.0599 -0.0157 0.1181, 0.06 -0.0245 0.1181, 0.06 -0.0158 0.1181, 0.0619 -0.0268 0.1181, 0.0619 -0.0136 0.1181, 0.0583 -0.0136 0.1181, 0.0587 -0.0137 0.1181, 0.0595 -0.0136 0.1181, 0.0595 -0.0139 0.1181, 0.06 -0.0141 0.1181, 0.057 -0.0135 0.1181, 0.0595 0.0591 0.1181, 0.057 -0.0135 0.1181, 0.0509 0.0591 0.1181, 0.0559 -0.0136 0.1181, 0.0509 -0.0136 0.1181, 0.0539 -0.0142 0.1181, 0.0553 -0.0137 0.1181, 0.0513 -0.0166 0.1181, 0.0522 -0.0154 0.1181, 0.0526 -0.015 0.1181, 0.0501 -0.0136 0.1181, 0.0507 -0.0181 0.1181, 0.0509 -0.0175 0.1181, 0.0509 -0.0234 0.1181, 0.0505 -0.0223 0.1181, 0.0501 -0.0268 0.1181, 0.0503 -0.0205 0.1181, 0.0504 -0.0197 0.1181, 0.0543 -0.0266 0.1181, 0.053 -0.026 0.1181, 0.0509 -0.0268 0.1181, 0.052 -0.0251 0.1181, 0.0517 -0.0248 0.1181, 0.051 -0.0237 0.1181, 0.0553 -0.0268 0.1181, 0.0509 -0.0306 0.1181, 0.0557 -0.0269 0.1181, 0.0564 -0.0269 0.1181, 0.0595 -0.0306 0.1181, 0.0576 -0.0268 0.1181, 0.06 -0.0261 0.1181, 0.0598 -0.0263 0.1181, 0.0595 -0.0268 0.1181, 0.0595 -0.0264 0.1181, 0.0584 -0.0267 0.1181, 0.0788 -0.0343 0.1181, 0.0829 -0.0343 0.1181, 0.0829 -0.0306 0.1181, 0.0829 -0.0473 0.1181, 0.0829 -0.0472 0.1181, 0.0788 -0.0472 0.1181, 0.0724 -0.0449 0.1181, 0.0726 -0.0457 0.1181, 0.0727 -0.0457 0.1181, 0.0771 -0.038 0.1181, 0.0708 -0.0306 0.1181, 0.0754 -0.038 0.1181, 0.0708 -0.0402 0.1181, 0.0729 -0.0449 0.1181, 0.0727 -0.0453 0.1181, 0.0708 -0.0473 0.1181, 0.0708 -0.0446 0.1181, 0.0682 -0.038 0.1181, 0.0678 -0.0306 0.1181, 0.07 -0.038 0.1181, 0.0718 -0.0472 0.1181, 0.0718 -0.0473 0.1181, 0.0711 -0.0489 0.1181, 0.0678 -0.0524 0.1181, 0.0685 -0.0514 0.1181, 0.0685 -0.05 0.1181, 0.0694 -0.0502 0.1181, 0.0695 -0.0502 0.1181, 0.0705 -0.0498 0.1181, 0.0708 -0.0495 0.1181, 0.0708 -0.0494 0.1181, 0.0708 -0.0513 0.1181, 0.0703 -0.0515 0.1181, 0.0708 -0.0524 0.1181, 0.0696 -0.0516 0.1181, 0.069 -0.0515 0.1181, 0.0699 -0.0501 0.1181, 0.0702 -0.05 0.1181, 0.0829 -0.0524 0.1181, 0.0715 -0.0508 0.1181, 0.0709 -0.0512 0.1181, 0.0734 -0.0473 0.1181, 0.0729 -0.0486 0.1181, 0.0721 -0.05 0.1181, 0.0669 -0.0397 0.1181, 0.0668 -0.0432 0.1181, 0.0671 -0.0436 0.1181, 0.0671 -0.0458 0.1181, 0.0668 -0.0462 0.1181, 0.0619 -0.0388 0.1181, 0.0622 -0.0385 0.1181, 0.0619 -0.0306 0.1181, 0.0626 -0.0382 0.1181, 0.0635 -0.0379 0.1181, 0.0647 -0.0377 0.1181, 0.0673 -0.044 0.1181, 0.0674 -0.0447 0.1181, 0.0673 -0.0453 0.1181, 0.0663 -0.0467 0.1181, 0.0658 -0.047 0.1181, 0.0669 -0.0382 0.1181, 0.0659 -0.0378 0.1181, 0.0646 -0.0391 0.1181, 0.064 -0.0391 0.1181, 0.0628 -0.0403 0.1181, 0.0636 -0.0392 0.1181, 0.0633 -0.0394 0.1181, 0.0628 -0.0405 0.1181, 0.0629 -0.0408 0.1181, 0.063 -0.041 0.1181, 0.0631 -0.0412 0.1181, 0.0637 -0.0415 0.1181, 0.0657 -0.0392 0.1181, 0.0647 -0.042 0.1181, 0.0666 -0.0396 0.1181, 0.0652 -0.0422 0.1181, 0.0664 -0.0428 0.1181, 0.063 -0.0396 0.1181, 0.0629 -0.0398 0.1181, 0.0628 -0.04 0.1181, 0.0611 -0.0452 0.1181, 0.0595 -0.0473 0.1181, 0.0616 -0.039 0.1181, 0.0614 -0.0394 0.1181, 0.0617 -0.0456 0.1181, 0.0619 -0.0456 0.1181, 0.0619 -0.0422 0.1181, 0.0616 -0.0419 0.1181, 0.0614 -0.0416 0.1181, 0.0618 -0.0422 0.1181, 0.0612 -0.0411 0.1181, 0.0611 -0.0405 0.1181, 0.0612 -0.0399 0.1181, 0.0627 -0.046 0.1181, 0.0636 -0.0431 0.1181, 0.0626 -0.0427 0.1181, 0.0638 -0.0461 0.1181, 0.0639 -0.0461 0.1181, 0.0646 -0.0436 0.1181, 0.0647 -0.046 0.1181, 0.0657 -0.0448 0.1181, 0.0657 -0.0446 0.1181, 0.0651 -0.0458 0.1181, 0.0652 -0.0458 0.1181, 0.0654 -0.0456 0.1181, 0.0656 -0.0454 0.1181, 0.0657 -0.0452 0.1181, 0.0656 -0.0444 0.1181, 0.0655 -0.0442 0.1181, 0.0653 -0.044 0.1181, 0.0626 -0.0473 0.1181, 0.0622 -0.0473 0.1181, 0.0619 -0.0473 0.1181, 0.0619 -0.0471 0.1181, 0.0611 -0.0469 0.1181, 0.0636 -0.0474 0.1181, 0.0619 -0.0524 0.1181, 0.069 -0.0501 0.1181, 0.0521 -0.0428 0.1181, 0.0524 -0.0402 0.1181, 0.0518 -0.0433 0.1181, 0.0516 -0.0438 0.1181, 0.0518 -0.0461 0.1181, 0.0516 -0.0455 0.1181, 0.0509 -0.0473 0.1181, 0.0565 -0.0378 0.1181, 0.0572 -0.038 0.1181, 0.0578 -0.0383 0.1181, 0.0582 -0.0388 0.1181, 0.0585 -0.0393 0.1181, 0.0573 -0.0458 0.1181, 0.0573 -0.0458 0.1181, 0.0573 -0.0472 0.1181, 0.0569 -0.0463 0.1181, 0.0563 -0.0468 0.1181, 0.0526 -0.0424 0.1181, 0.0533 -0.042 0.1181, 0.0535 -0.0395 0.1181, 0.0546 -0.0417 0.1181, 0.0546 -0.0391 0.1181, 0.0528 -0.0471 0.1181, 0.0523 -0.0467 0.1181, 0.0521 -0.0466 0.1181, 0.0515 -0.0447 0.1181, 0.0515 -0.0445 0.1181, 0.0524 -0.0386 0.1181, 0.0528 -0.0384 0.1181, 0.054 -0.0379 0.1181, 0.0556 -0.0377 0.1181, 0.0573 -0.0413 0.1181, 0.0573 -0.0407 0.1181, 0.0571 -0.0401 0.1181, 0.0588 -0.04 0.1181, 0.0589 -0.0413 0.1181, 0.0589 -0.0472 0.1181, 0.0569 -0.0397 0.1181, 0.0567 -0.0395 0.1181, 0.0564 -0.0393 0.1181, 0.056 -0.0391 0.1181, 0.0554 -0.0391 0.1181, 0.0544 -0.0474 0.1181, 0.0509 -0.0524 0.1181, 0.0553 -0.0473 0.1181, 0.0595 -0.0524 0.1181, 0.0542 -0.0474 0.1181, 0.0535 -0.0473 0.1181, 0.0534 -0.0473 0.1181, 0.0265 -0.0238 0.1181, 0.029 -0.0259 0.1181, 0.0377 -0.0268 0.1181, 0.0183 -0.0151 0.1181, 0.0187 -0.0154 0.1181, 0.0214 -0.0187 0.1181, 0.0233 -0.0223 0.1181, 0.0237 -0.0225 0.1181, 0.0015 -0.0108 0.1181, 0.0058 -0.0103 0.1181, 0.0377 0.0591 0.1181, 0.0065 -0.0103 0.1181, 0.0105 -0.0109 0.1181, -0.0024 -0.0122 0.1181, -0.1181 0.0591 0.1181, -0.0049 -0.0136 0.1181, -0.1181 -0.0136 0.1181, -0.0052 -0.0139 0.1181, -0.1181 -0.0268 0.1181, -0.025 -0.0268 0.1181, -0.0242 -0.025 0.1181, -0.022 -0.0221 0.1181, -0.015 -0.0182 0.1181, -0.0114 -0.0177 0.1181, -0.0074 -0.0157 0.1181, -0.0103 -0.0178 0.1181, -0.0093 -0.0179 0.1181, -0.0214 -0.0215 0.1181, -0.0184 -0.0195 0.1181, -0.0196 -0.0451 0.1181, -0.0224 -0.0426 0.1181, -0.1181 -0.0473 0.1181, -0.0162 -0.0467 0.1181, -0.0245 -0.0397 0.1181, -0.0258 -0.0362 0.1181, -0.1181 -0.0306 0.1181, -0.0263 -0.0326 0.1181, -0.0263 -0.0317 0.1181, -0.0261 -0.0306 0.1181, -0.0257 -0.0283 0.1181, -0.0151 -0.0471 0.1181, -0.015 -0.0473 0.1181, -0.0141 -0.049 0.1181, -0.0128 -0.0507 0.1181, 0.0377 -0.0524 0.1181, -0.0025 -0.0524 0.1181, 0.0377 -0.0591 0.1181, -0.0041 -0.053 0.1181, -0.0063 -0.0533 0.1181, -0.0067 -0.0533 0.1181, -0.1181 -0.0591 0.1181, -0.0089 -0.053 0.1181, -0.1181 -0.0524 0.1181, -0.0101 -0.0524 0.1181, -0.011 -0.0521 0.1181, 0.0377 -0.0473 0.1181, 0.0023 -0.0473 0.1181, 0.0023 -0.0474 0.1181, 0.0012 -0.0494 0.1181, -0.0002 -0.051 0.1181, -0.0021 -0.0522 0.1181, 0.032 -0.0314 0.1181, 0.0324 -0.0344 0.1181, 0.0377 -0.0306 0.1181, 0.029 -0.0431 0.1181, 0.0265 -0.0452 0.1181, 0.0006 -0.038 0.1181, 0.0129 -0.0315 0.1181, -0.0011 -0.0365 0.1181, -0.003 -0.0354 0.1181, 0.0141 -0.0419 0.1181, 0.0147 -0.0416 0.1181, 0.0157 -0.0364 0.1181, 0.0308 -0.0406 0.1181, 0.0135 -0.0423 0.1181, 0.032 -0.0376 0.1181, -0.0197 -0.0361 0.1181, -0.0186 -0.038 0.1181, -0.014 -0.0389 0.1181, -0.017 -0.0397 0.1181, -0.015 -0.0409 0.1181, -0.0106 -0.0359 0.1181, -0.0203 -0.0306 0.1181, -0.0125 -0.0372 0.1181, -0.0205 -0.0324 0.1181, -0.0204 -0.0339 0.1181, 0.0154 -0.0415 0.1181, 0.0155 -0.0415 0.1181, 0.0157 -0.0416 0.1181, -0.0085 -0.0351 0.1181, -0.0063 -0.0348 0.1181, -0.0052 -0.0349 0.1181, 0.0237 -0.0466 0.1181, 0.0206 -0.0472 0.1181, 0.0152 -0.0472 0.1181, 0.0147 -0.0472 0.1181, 0.0141 -0.047 0.1181, 0.0135 -0.0465 0.1181, 0.0132 -0.0463 0.1181, 0.0249 -0.0392 0.1181, 0.0259 -0.0377 0.1181, 0.0265 -0.0361 0.1181, 0.0267 -0.0345 0.1181, 0.0266 -0.0337 0.1181, 0.0125 -0.0444 0.1181, 0.0125 -0.0441 0.1181, 0.0029 -0.0432 0.1181, 0.0127 -0.0434 0.1181, 0.013 -0.0428 0.1181, 0.0159 -0.0416 0.1181, 0.0201 -0.0416 0.1181, 0.0211 -0.0415 0.1181, 0.0128 -0.0457 0.1181, 0.0126 -0.0451 0.1181, 0.0028 -0.0451 0.1181, 0.0029 -0.0441 0.1181, 0.0228 -0.0409 0.1181, 0.0243 -0.0399 0.1181, 0.0195 -0.0273 0.1181, 0.0188 -0.0273 0.1181, 0.0255 -0.0306 0.1181, 0.0211 -0.0275 0.1181, 0.0262 -0.0319 0.1181, -0.0202 -0.0302 0.1181, -0.0194 -0.0282 0.1181, 0.0254 -0.0303 0.1181, 0.0242 -0.029 0.1181, 0.0227 -0.028 0.1181, 0.0168 -0.0217 0.1181, 0.0147 -0.0193 0.1181, -0.0064 -0.0246 0.1181, 0.0145 -0.0191 0.1181, 0.0119 -0.0173 0.1181, -0.005 -0.0217 0.1181, -0.0185 -0.0268 0.1181, -0.0071 -0.0243 0.1181, 0.0187 -0.0268 0.1181, 0.0182 -0.0247 0.1181, -0.0091 -0.0235 0.1181, -0.0113 -0.0232 0.1181, -0.0123 -0.0233 0.1181, -0.003 -0.0192 0.1181, 0.009 -0.0162 0.1181, -0.0005 -0.0174 0.1181, 0.0059 -0.0158 0.1181, 0.0025 -0.0162 0.1181, -0.0146 -0.0238 0.1181, -0.0166 -0.0249 0.1181, -0.0182 -0.0263 0.1181, 0.0296 -0.0268 0.1181, 0.0308 -0.0285 0.1181, 0.0317 -0.0306 0.1181, 0.0858 -0.0472 0.1181, 0.087 -0.0473 0.1181, 0.0858 -0.0457 0.1181, 0.087 -0.0306 0.1181, 0.0855 -0.0343 0.1181, 0.0855 -0.0358 0.1181, 0.0805 -0.0414 0.1181, 0.0805 -0.0457 0.1181, 0.0829 -0.0414 0.1181, 0.0829 -0.0457 0.1181, 0.0851 -0.0414 0.1181, 0.0851 -0.0399 0.1181, 0.0805 -0.0358 0.1181, 0.0805 -0.0399 0.1181, 0.0829 -0.0358 0.1181, 0.0829 -0.0399 0.1181, 0.0708 -0.0136 0.1181, 0.0678 -0.0136 0.1181, 0.0693 -0.0137 0.1181, 0.0678 -0.0137 0.1181, 0.0643 -0.0209 0.1181, 0.0643 -0.0252 0.1181, 0.0678 -0.0209 0.1181, 0.0678 -0.0252 0.1181, 0.0689 -0.0209 0.1181, 0.0696 -0.0252 0.1181, 0.0689 -0.0194 0.1181, 0.0693 -0.0152 0.1181, 0.0678 -0.0194 0.1181, 0.0678 -0.0152 0.1181, 0.0643 -0.0194 0.1181, 0.0643 -0.0152 0.1181, 0.0708 -0.0268 0.1181, 0.0696 -0.0267 0.1181, 0.0678 -0.0268 0.1181, 0.0678 -0.0267 0.1181, 0.0626 -0.0267 0.1181, 0.0626 -0.0137 0.1181, 0.087 -0.0524 0.1181, 0.0829 -0.0591 0.1181, 0.0708 -0.0591 0.1181, 0.0678 -0.0591 0.1181, 0.0619 -0.0591 0.1181, 0.0595 -0.0591 0.1181, 0.0509 -0.0591 0.1181, 0.056 -0.0471 0.1181, 0.1146 -0.0473 0.1181, 0.0991 -0.0473 0.1181, 0.043 -0.0343 0.1181, 0.043 -0.0472 0.1181, 0.0501 -0.0473 0.1181, 0.0501 -0.0524 0.1181, 0.0501 -0.0591 0.1181, 0.0496 -0.0343 0.1181, 0.0501 -0.0306 0.1181, 0.0496 -0.0358 0.1181, 0.0499 -0.0457 0.1181, 0.0499 -0.0472 0.1181, 0.0447 -0.0414 0.1181, 0.0447 -0.0457 0.1181, 0.0493 -0.0414 0.1181, 0.0493 -0.0399 0.1181, 0.0447 -0.0399 0.1181, 0.0447 -0.0358 0.1181, 0.0882 -0.0472 0.1181, 0.0981 -0.0377 0.1181, 0.0986 -0.0389 0.1181, 0.0991 -0.0306 0.1181, 0.0987 -0.0406 0.1181, 0.0987 -0.0414 0.1181, 0.0984 -0.0429 0.1181, 0.0978 -0.0442 0.1181, 0.0968 -0.0454 0.1181, 0.0965 -0.0457 0.1181, 0.0952 -0.0465 0.1181, 0.0936 -0.047 0.1181, 0.0918 -0.0472 0.1181, 0.0882 -0.0343 0.1181, 0.0919 -0.0343 0.1181, 0.094 -0.0345 0.1181, 0.0955 -0.0351 0.1181, 0.0968 -0.036 0.1181, 0.0973 -0.0365 0.1181, 0.1079 -0.0437 0.1181, 0.1026 -0.0437 0.1181, 0.1093 -0.0472 0.1181, 0.1013 -0.0472 0.1181, 0.1111 -0.0472 0.1181, 0.0995 -0.0472 0.1181, 0.1044 -0.0343 0.1181, 0.1146 -0.0306 0.1181, 0.1062 -0.0343 0.1181, 0.1146 -0.0268 0.1181, 0.043 -0.0267 0.1181, 0.043 -0.0137 0.1181, 0.0498 -0.0267 0.1181, 0.0822 -0.0224 0.1181, 0.0816 -0.0237 0.1181, 0.0819 -0.0171 0.1181, 0.0824 -0.0184 0.1181, 0.0825 -0.02 0.1181, 0.0825 -0.0209 0.1181, 0.0806 -0.0249 0.1181, 0.0802 -0.0252 0.1181, 0.079 -0.026 0.1181, 0.0757 -0.0137 0.1181, 0.0778 -0.014 0.1181, 0.0793 -0.0146 0.1181, 0.0774 -0.0265 0.1181, 0.0756 -0.0267 0.1181, 0.072 -0.0267 0.1181, 0.072 -0.0137 0.1181, 0.0806 -0.0155 0.1181, 0.0811 -0.016 0.1181, 0.1146 -0.0136 0.1181, 0.0991 -0.0136 0.1181, 0.0882 -0.0137 0.1181, 0.1181 -0.0473 0.1181, 0.1181 -0.0306 0.1181, 0.1181 -0.0268 0.1181, 0.1181 -0.0136 0.1181, 0.0501 0.0591 0.1181, 0.1181 0.0591 0.1181, 0.1146 0.0591 0.1181, 0.0991 0.0591 0.1181, 0.087 0.0591 0.1181, 0.0829 0.0591 0.1181, 0.0708 0.0591 0.1181, 0.0678 0.0591 0.1181, 0.0619 0.0591 0.1181, -0.1215 0.061 0.0079, -0.1209 0.0618 0.0079, -0.1063 0.0472 0.0079, -0.1219 0.0601 0.0079, -0.0512 0.0472 0.0079, 0.0512 0.0472 0.0079, -0.0512 -0.0472 0.0079, 0.0512 -0.0472 0.0079, -0.0866 -0.0472 0.0079, -0.1191 -0.0629 0.0079, -0.1201 -0.0625 0.0079, -0.1219 -0.0601 0.0079, -0.1063 -0.0276 0.0079, -0.122 -0.0591 0.0079, -0.122 0.0591 0.0079, -0.1209 -0.0618 0.0079, -0.1215 -0.061 0.0079, -0.1181 -0.063 0.0079, 0.1181 -0.063 0.0079, 0.1191 -0.0629 0.0079, 0.1063 -0.0472 0.0079, 0.1201 -0.0625 0.0079, 0.1201 0.0625 0.0079, 0.1209 0.0618 0.0079, 0.1063 0.0472 0.0079, 0.1215 0.061 0.0079, 0.1219 -0.0601 0.0079, 0.1215 -0.061 0.0079, 0.1209 -0.0618 0.0079, -0.1201 0.0625 0.0079, -0.1191 0.0629 0.0079, -0.1181 0.063 0.0079, 0.1181 0.063 0.0079, 0.1191 0.0629 0.0079, 0.1219 0.0601 0.0079, 0.122 0.0591 0.0079, 0.122 -0.0591 0.0079, 0.122 0.0591 0.1142, 0.122 -0.0591 0.1142, -0.1181 0.063 0.1142, 0.1181 0.063 0.1142, -0.122 0.0591 0.1142, -0.122 -0.0591 0.1142, 0.1181 -0.063 0.1142, -0.1181 -0.063 0.1142
            ]
        }
        coordIndex [
            0,1,2,-1,3,4,5,-1,6,3,7,-1,8,6,9,-1,10,11,12,-1,13,14,15,-1,16,17,18,-1,19,20,21,-1,21,20,16,-1,21,16,22,-1,22,16,18,-1,18,23,22,-1,22,23,24,-1,22,24,25,-1,25,24,26,-1,25,26,27,-1,27,26,28,-1,27,28,29,-1,30,31,32,-1,33,34,30,-1,30,34,35,-1,30,35,36,-1,33,37,34,-1,34,37,38,-1,34,38,39,-1,39,38,40,-1,39,40,41,-1,36,42,30,-1,30,42,43,-1,30,43,44,-1,32,45,30,-1,30,45,46,-1,30,46,47,-1,44,48,30,-1,30,48,49,-1,30,49,31,-1,47,50,30,-1,30,50,51,-1,30,51,52,-1,52,51,53,-1,52,53,54,-1,54,53,55,-1,54,55,56,-1,57,58,59,-1,59,58,60,-1,59,60,56,-1,56,60,61,-1,56,61,54,-1,62,63,64,-1,64,63,65,-1,64,65,66,-1,67,68,69,-1,70,71,67,-1,67,71,72,-1,67,72,68,-1,73,74,67,-1,67,74,75,-1,67,75,70,-1,76,77,78,-1,78,77,79,-1,78,79,73,-1,73,79,80,-1,73,80,74,-1,81,82,83,-1,83,82,84,-1,84,85,83,-1,83,85,86,-1,83,86,76,-1,81,83,87,-1,87,83,88,-1,87,88,89,-1,89,88,90,-1,90,88,91,-1,90,91,92,-1,53,93,55,-1,55,93,94,-1,55,94,95,-1,95,94,96,-1,95,96,97,-1,98,99,100,-1,101,102,103,-1,104,105,106,-1,107,108,109,-1,109,108,110,-1,109,110,111,-1,111,110,104,-1,111,104,112,-1,112,104,106,-1,113,114,15,-1,15,114,115,-1,15,115,116,-1,116,115,108,-1,108,115,117,-1,108,117,110,-1,118,114,119,-1,119,114,113,-1,119,113,120,-1,121,122,123,-1,113,124,125,-1,126,127,113,-1,113,127,128,-1,113,128,120,-1,129,130,131,-1,131,130,132,-1,131,132,121,-1,121,132,133,-1,121,133,122,-1,125,134,113,-1,113,134,135,-1,113,135,126,-1,136,137,131,-1,131,137,138,-1,131,138,129,-1,139,140,136,-1,136,140,141,-1,136,141,137,-1,142,143,144,-1,145,146,15,-1,147,148,149,-1,149,148,150,-1,150,151,149,-1,149,151,152,-1,149,152,116,-1,153,154,15,-1,15,154,155,-1,15,155,145,-1,146,156,15,-1,15,156,157,-1,15,157,13,-1,144,153,142,-1,142,153,15,-1,142,15,158,-1,158,15,116,-1,158,116,159,-1,159,116,152,-1,160,161,162,-1,162,161,163,-1,162,163,164,-1,162,165,160,-1,160,165,166,-1,160,166,167,-1,167,168,160,-1,160,168,169,-1,160,169,170,-1,170,169,171,-1,170,171,172,-1,172,171,173,-1,172,173,142,-1,142,173,174,-1,142,174,143,-1,175,176,164,-1,164,176,177,-1,164,177,162,-1,178,91,179,-1,147,149,180,-1,180,149,91,-1,180,91,181,-1,182,183,184,-1,185,186,178,-1,182,184,178,-1,178,184,187,-1,178,187,185,-1,186,188,178,-1,178,188,189,-1,178,189,91,-1,91,189,190,-1,91,190,181,-1,191,192,183,-1,183,192,193,-1,183,193,184,-1,191,194,192,-1,192,194,195,-1,192,195,196,-1,196,195,197,-1,196,198,199,-1,197,200,196,-1,196,200,201,-1,196,201,202,-1,202,203,196,-1,196,203,204,-1,196,204,198,-1,199,205,196,-1,196,205,206,-1,196,206,207,-1,208,209,210,-1,210,209,211,-1,210,211,179,-1,179,211,212,-1,179,212,178,-1,213,214,14,-1,14,214,121,-1,14,121,15,-1,15,121,123,-1,15,123,113,-1,113,123,215,-1,113,215,124,-1,216,217,218,-1,218,217,219,-1,220,221,222,-1,223,224,91,-1,224,225,91,-1,91,225,226,-1,91,226,227,-1,228,229,230,-1,230,229,231,-1,230,231,232,-1,216,233,217,-1,217,233,234,-1,217,234,235,-1,235,234,236,-1,235,236,237,-1,238,239,222,-1,222,239,240,-1,222,240,220,-1,221,241,222,-1,222,241,242,-1,222,242,88,-1,88,242,219,-1,88,219,243,-1,243,219,217,-1,243,244,88,-1,88,244,245,-1,88,245,91,-1,91,245,246,-1,91,246,223,-1,247,248,236,-1,236,248,249,-1,227,250,91,-1,91,250,251,-1,91,251,179,-1,179,251,252,-1,179,252,230,-1,249,253,236,-1,236,253,254,-1,236,254,255,-1,255,256,236,-1,236,256,257,-1,236,257,237,-1,258,259,260,-1,260,259,261,-1,258,262,259,-1,259,262,263,-1,259,263,222,-1,222,263,264,-1,222,264,238,-1,265,266,12,-1,12,266,267,-1,11,268,12,-1,12,268,269,-1,12,269,270,-1,270,271,12,-1,12,271,272,-1,12,272,265,-1,273,274,275,-1,275,274,276,-1,275,276,277,-1,273,275,278,-1,278,275,279,-1,278,279,280,-1,280,279,281,-1,280,281,282,-1,283,284,281,-1,281,284,285,-1,281,285,286,-1,281,287,282,-1,282,287,288,-1,282,288,289,-1,289,288,290,-1,289,290,291,-1,286,292,281,-1,281,292,293,-1,281,293,287,-1,294,295,296,-1,294,296,297,-1,295,298,296,-1,296,298,299,-1,296,299,300,-1,300,299,301,-1,301,302,300,-1,300,302,303,-1,300,303,283,-1,283,303,304,-1,283,304,284,-1,305,297,306,-1,306,297,296,-1,306,296,307,-1,307,296,308,-1,309,310,311,-1,311,310,312,-1,312,313,311,-1,311,313,314,-1,311,314,315,-1,315,314,316,-1,315,316,317,-1,317,316,318,-1,317,318,296,-1,296,318,319,-1,296,319,308,-1,320,321,309,-1,309,321,322,-1,309,322,323,-1,323,324,309,-1,309,324,325,-1,309,325,310,-1,326,327,328,-1,329,330,320,-1,331,332,333,-1,333,332,334,-1,335,336,337,-1,329,320,338,-1,335,337,339,-1,328,327,320,-1,320,327,340,-1,320,340,338,-1,341,342,343,-1,343,342,344,-1,343,344,345,-1,346,347,348,-1,348,347,349,-1,348,349,343,-1,343,349,350,-1,343,350,341,-1,336,351,337,-1,337,351,352,-1,337,352,353,-1,346,354,347,-1,347,354,355,-1,347,355,332,-1,332,355,356,-1,332,356,334,-1,330,357,320,-1,320,357,358,-1,320,358,321,-1,321,358,359,-1,321,359,360,-1,360,361,321,-1,321,361,362,-1,321,362,363,-1,364,365,337,-1,337,365,366,-1,337,366,332,-1,332,366,367,-1,332,367,368,-1,369,370,371,-1,371,370,372,-1,371,372,337,-1,337,372,373,-1,337,373,339,-1,353,374,337,-1,337,374,375,-1,337,375,376,-1,363,377,321,-1,321,377,378,-1,321,378,379,-1,379,378,369,-1,379,369,380,-1,380,369,371,-1,376,381,337,-1,337,381,382,-1,337,382,364,-1,383,384,385,-1,383,385,386,-1,368,387,332,-1,332,387,385,-1,332,385,347,-1,347,385,384,-1,347,384,388,-1,388,384,389,-1,390,391,385,-1,385,391,392,-1,385,392,386,-1,393,394,395,-1,394,396,395,-1,395,396,397,-1,395,397,398,-1,399,395,400,-1,389,384,399,-1,399,384,401,-1,399,401,395,-1,395,401,402,-1,395,402,393,-1,400,403,399,-1,399,403,404,-1,399,404,405,-1,398,397,406,-1,406,397,407,-1,406,407,408,-1,408,407,409,-1,408,409,410,-1,411,412,405,-1,405,412,413,-1,405,413,399,-1,266,414,267,-1,267,414,415,-1,267,415,328,-1,328,415,416,-1,328,416,326,-1,102,101,417,-1,417,101,418,-1,417,418,419,-1,100,99,420,-1,420,99,421,-1,420,421,422,-1,423,424,425,-1,425,424,426,-1,425,426,427,-1,427,426,419,-1,427,419,428,-1,429,430,431,-1,431,430,432,-1,431,432,422,-1,433,434,435,-1,435,434,436,-1,437,438,439,-1,439,438,440,-1,439,440,441,-1,441,440,442,-1,441,442,443,-1,443,442,444,-1,443,444,445,-1,445,444,446,-1,445,446,447,-1,447,446,448,-1,435,444,433,-1,433,444,442,-1,433,442,449,-1,449,442,450,-1,449,450,451,-1,451,450,452,-1,451,452,453,-1,436,434,454,-1,454,434,56,-1,454,56,453,-1,453,56,55,-1,453,55,451,-1,8,455,456,-1,456,455,136,-1,456,136,457,-1,457,136,131,-1,457,131,458,-1,458,131,121,-1,458,121,459,-1,459,121,214,-1,459,214,460,-1,460,214,261,-1,460,261,461,-1,461,261,259,-1,213,208,214,-1,214,208,210,-1,214,210,261,-1,261,210,179,-1,261,179,260,-1,260,179,230,-1,260,230,462,-1,462,230,232,-1,455,418,136,-1,136,418,101,-1,136,101,139,-1,139,101,103,-1,139,103,107,-1,107,103,98,-1,107,98,108,-1,108,98,100,-1,6,7,9,-1,9,7,463,-1,9,463,464,-1,465,328,466,-1,466,328,320,-1,466,320,467,-1,467,320,309,-1,467,309,468,-1,468,309,311,-1,468,311,469,-1,465,470,471,-1,470,472,471,-1,471,472,473,-1,471,473,467,-1,467,473,474,-1,467,474,466,-1,475,476,477,-1,477,476,473,-1,477,473,478,-1,478,473,472,-1,478,472,479,-1,479,472,480,-1,432,428,422,-1,422,428,419,-1,422,419,420,-1,420,419,418,-1,420,418,481,-1,482,483,484,-1,484,483,485,-1,484,485,464,-1,464,485,486,-1,464,486,487,-1,487,488,464,-1,464,488,489,-1,464,489,490,-1,490,491,464,-1,464,491,492,-1,464,492,493,-1,8,9,455,-1,455,9,464,-1,455,464,418,-1,418,464,493,-1,418,493,481,-1,481,494,420,-1,420,494,495,-1,420,495,484,-1,484,495,496,-1,484,496,497,-1,497,498,484,-1,484,498,499,-1,484,499,482,-1,500,501,502,-1,502,501,503,-1,504,502,463,-1,463,502,503,-1,463,503,464,-1,464,503,505,-1,464,505,484,-1,484,505,506,-1,484,506,507,-1,507,506,508,-1,507,508,463,-1,463,508,504,-1,76,78,83,-1,83,78,471,-1,83,471,88,-1,88,471,467,-1,88,467,222,-1,222,467,468,-1,222,468,259,-1,259,468,469,-1,259,469,461,-1,507,509,484,-1,484,509,21,-1,484,21,420,-1,420,21,22,-1,420,22,100,-1,100,22,25,-1,100,25,108,-1,108,25,449,-1,108,449,116,-1,116,449,451,-1,116,451,149,-1,149,451,55,-1,149,55,91,-1,91,55,95,-1,91,95,92,-1,92,95,97,-1,465,471,328,-1,328,471,78,-1,328,78,267,-1,267,78,510,-1,267,510,12,-1,510,511,12,-1,12,511,0,-1,12,0,73,-1,73,0,2,-1,73,2,78,-1,78,2,512,-1,78,512,510,-1,513,514,25,-1,515,516,27,-1,27,516,517,-1,27,517,25,-1,25,517,518,-1,25,518,513,-1,514,519,25,-1,25,519,520,-1,25,520,521,-1,433,522,27,-1,27,522,523,-1,27,523,524,-1,521,525,25,-1,25,525,526,-1,25,526,449,-1,449,526,527,-1,449,527,433,-1,433,527,528,-1,433,528,522,-1,524,529,27,-1,27,529,530,-1,27,530,515,-1,509,531,21,-1,21,531,532,-1,21,532,19,-1,19,532,29,-1,19,29,533,-1,533,29,28,-1,3,5,7,-1,7,5,534,-1,7,534,463,-1,463,534,535,-1,463,535,507,-1,507,535,536,-1,507,536,509,-1,509,536,537,-1,509,537,531,-1,69,66,67,-1,67,66,65,-1,67,65,73,-1,73,65,538,-1,73,538,12,-1,12,538,275,-1,12,275,10,-1,10,275,277,-1,537,539,531,-1,531,539,540,-1,531,540,532,-1,532,540,541,-1,532,541,29,-1,29,541,542,-1,29,542,27,-1,27,542,543,-1,27,543,433,-1,433,543,544,-1,433,544,434,-1,434,544,545,-1,434,545,56,-1,56,545,546,-1,56,546,59,-1,59,546,63,-1,59,63,57,-1,57,63,62,-1,547,548,549,-1,547,549,550,-1,551,552,553,-1,553,552,554,-1,555,556,557,-1,555,558,559,-1,559,558,560,-1,559,560,549,-1,549,560,561,-1,549,561,550,-1,557,562,555,-1,555,562,563,-1,555,563,558,-1,556,555,564,-1,564,555,553,-1,564,553,565,-1,565,553,554,-1,565,554,566,-1,566,554,567,-1,566,567,568,-1,569,570,571,-1,571,570,572,-1,573,574,567,-1,567,574,575,-1,567,575,568,-1,548,576,549,-1,549,576,577,-1,549,577,551,-1,551,577,578,-1,551,578,552,-1,552,578,579,-1,552,579,571,-1,571,579,580,-1,571,580,569,-1,572,581,571,-1,571,581,582,-1,571,582,567,-1,567,582,583,-1,567,583,573,-1,584,585,582,-1,582,585,583,-1,586,587,578,-1,578,587,579,-1,561,560,588,-1,588,560,589,-1,590,591,565,-1,565,591,564,-1,
        ]
    }
}
Shape{
    appearance Appearance {
        material  Material 	{
            diffuseColor 0.6666666666666666 0.6666666666666666 0.6666666666666666
            specularColor 0.4666666666666667 0.4666666666666667 0.4666666666666667
            ambientIntensity 0.6667
            transparency 0.0
            shininess 0.5
        }
    }
    geometry IndexedFaceSet {
        ccw TRUE
        solid FALSE
        coord DEF co Coordinate {
            point [
                0.0512 0.0472 0.0, 0.0512 -0.0472 0.0, 0.0512 0.0472 0.0079, 0.0512 -0.0472 0.0079, 0.1063 0.0472 0.0, 0.1063 0.0472 0.0079, 0.1063 -0.0472 0.0, 0.1063 -0.0472 0.0079, -0.1063 0.0472 0.0, -0.1063 -0.0276 0.0, -0.1063 0.0472 0.0079, -0.1063 -0.0276 0.0079, -0.0512 0.0472 0.0, -0.0512 0.0472 0.0079, -0.0512 -0.0472 0.0, -0.0512 -0.0472 0.0079, -0.0866 -0.0472 0.0, -0.0866 -0.0472 0.0079
            ]
        }
        coordIndex [
            0,1,2,-1,2,1,3,-1,4,0,5,-1,5,0,2,-1,6,4,7,-1,7,4,5,-1,1,6,3,-1,3,6,7,-1,4,6,0,-1,0,6,1,-1,8,9,10,-1,10,9,11,-1,12,8,13,-1,13,8,10,-1,14,12,15,-1,15,12,13,-1,16,14,17,-1,17,14,15,-1,9,16,11,-1,11,16,17,-1,9,8,16,-1,16,8,12,-1,16,12,14,-1,
        ]
    }
}
Shape{
    appearance Appearance {
        material  Material 	{
            diffuseColor 0.20784313725490197 0.20784313725490197 0.20784313725490197
            specularColor 0.01568627450980392 0.01568627450980392 0.01568627450980392
            ambientIntensity 0.298
            transparency 0.0
            shininess 0.5
        }
    }
    geometry IndexedFaceSet {
        ccw TRUE
        solid FALSE
        coord DEF co Coordinate {
            point [
                -0.1181 0.063 0.1142, -0.1181 0.063 0.0079, -0.1191 0.0629 0.0079, -0.1191 0.0629 0.1142, -0.1201 0.0625 0.0079, -0.1201 0.0625 0.1142, -0.1209 0.0618 0.0079, -0.1209 0.0618 0.1142, -0.1215 0.061 0.0079, -0.1215 0.061 0.1142, -0.1219 0.0601 0.0079, -0.1219 0.0601 0.1142, -0.122 0.0591 0.0079, -0.122 0.0591 0.1142, 0.1181 0.063 0.1142, -0.1181 0.0629 0.1152, 0.1181 0.0629 0.1152, -0.1181 0.0625 0.1161, 0.1181 0.0625 0.1161, -0.1181 0.0618 0.117, 0.1181 0.0618 0.117, -0.1181 0.061 0.1176, 0.1181 0.061 0.1176, -0.1181 0.0601 0.118, 0.1181 0.0601 0.118, -0.1181 0.0591 0.1181, 0.1181 0.0591 0.1181, 0.122 0.0591 0.1142, 0.122 0.0591 0.0079, 0.1219 0.0601 0.0079, 0.1219 0.0601 0.1142, 0.1215 0.061 0.0079, 0.1215 0.061 0.1142, 0.1209 0.0618 0.0079, 0.1209 0.0618 0.1142, 0.1201 0.0625 0.0079, 0.1201 0.0625 0.1142, 0.1191 0.0629 0.0079, 0.1191 0.0629 0.1142, 0.1181 0.063 0.0079, -0.1219 0.0591 0.1152, -0.1218 0.06 0.1152, -0.1198 0.06 0.1176, -0.119 0.0596 0.118, -0.1188 0.0598 0.118, -0.1184 0.06 0.118, -0.1191 0.0593 0.118, -0.12 0.0596 0.1176, -0.1208 0.0598 0.117, -0.1191 0.0591 0.118, -0.1195 0.0604 0.1176, -0.1186 0.0599 0.118, -0.1191 0.0608 0.1176, -0.1186 0.061 0.1176, -0.1201 0.0591 0.1176, -0.1209 0.0591 0.117, -0.1215 0.0591 0.1161, -0.1205 0.0604 0.117, -0.1201 0.061 0.117, -0.1195 0.0615 0.117, -0.1188 0.0617 0.117, -0.1214 0.0599 0.1161, -0.1211 0.0608 0.1161, -0.1205 0.0615 0.1161, -0.1198 0.062 0.1161, -0.119 0.0623 0.1161, -0.1214 0.061 0.1152, -0.1208 0.0617 0.1152, -0.12 0.0623 0.1152, -0.1191 0.0627 0.1152, 0.1191 0.0627 0.1152, 0.1191 0.0608 0.1176, 0.1186 0.0599 0.118, 0.1188 0.0598 0.118, 0.1191 0.0591 0.118, 0.1191 0.0593 0.118, 0.1184 0.06 0.118, 0.1186 0.061 0.1176, 0.1188 0.0617 0.117, 0.1195 0.0604 0.1176, 0.119 0.0596 0.118, 0.1198 0.06 0.1176, 0.12 0.0596 0.1176, 0.1201 0.0591 0.1176, 0.1195 0.0615 0.117, 0.1201 0.061 0.117, 0.1205 0.0604 0.117, 0.1208 0.0598 0.117, 0.1209 0.0591 0.117, 0.119 0.0623 0.1161, 0.1198 0.062 0.1161, 0.1205 0.0615 0.1161, 0.1211 0.0608 0.1161, 0.1214 0.0599 0.1161, 0.1215 0.0591 0.1161, 0.12 0.0623 0.1152, 0.1208 0.0617 0.1152, 0.1214 0.061 0.1152, 0.1218 0.06 0.1152, 0.1219 0.0591 0.1152, -0.122 -0.0591 0.1142, -0.122 -0.0591 0.0079, -0.1219 -0.0601 0.0079, -0.1219 -0.0601 0.1142, -0.1215 -0.061 0.0079, -0.1215 -0.061 0.1142, -0.1209 -0.0618 0.0079, -0.1209 -0.0618 0.1142, -0.1201 -0.0625 0.0079, -0.1201 -0.0625 0.1142, -0.1191 -0.0629 0.0079, -0.1191 -0.0629 0.1142, -0.1181 -0.063 0.0079, -0.1181 -0.063 0.1142, -0.1219 -0.0591 0.1152, -0.1215 -0.0591 0.1161, -0.1209 -0.0591 0.117, -0.1201 -0.0591 0.1176, -0.1191 -0.0591 0.118, -0.1181 -0.0591 0.1181, 0.122 -0.0591 0.1142, 0.1219 -0.0591 0.1152, 0.1215 -0.0591 0.1161, 0.1209 -0.0591 0.117, 0.1201 -0.0591 0.1176, 0.1191 -0.0591 0.118, 0.1181 -0.0591 0.1181, 0.1181 -0.063 0.1142, 0.1181 -0.063 0.0079, 0.1191 -0.0629 0.0079, 0.1191 -0.0629 0.1142, 0.1201 -0.0625 0.0079, 0.1201 -0.0625 0.1142, 0.1209 -0.0618 0.0079, 0.1209 -0.0618 0.1142, 0.1215 -0.061 0.0079, 0.1215 -0.061 0.1142, 0.1219 -0.0601 0.0079, 0.1219 -0.0601 0.1142, 0.122 -0.0591 0.0079, -0.1181 -0.0629 0.1152, -0.1191 -0.0627 0.1152, -0.1191 -0.0608 0.1176, -0.1186 -0.0599 0.118, -0.1188 -0.0598 0.118, -0.1191 -0.0593 0.118, -0.1184 -0.06 0.118, -0.1186 -0.061 0.1176, -0.1188 -0.0617 0.117, -0.1181 -0.0601 0.118, -0.1195 -0.0604 0.1176, -0.119 -0.0596 0.118, -0.1198 -0.06 0.1176, -0.12 -0.0596 0.1176, -0.1181 -0.061 0.1176, -0.1181 -0.0618 0.117, -0.1181 -0.0625 0.1161, -0.1195 -0.0615 0.117, -0.1201 -0.061 0.117, -0.1205 -0.0604 0.117, -0.1208 -0.0598 0.117, -0.119 -0.0623 0.1161, -0.1198 -0.062 0.1161, -0.1205 -0.0615 0.1161, -0.1211 -0.0608 0.1161, -0.1214 -0.0599 0.1161, -0.12 -0.0623 0.1152, -0.1208 -0.0617 0.1152, -0.1214 -0.061 0.1152, -0.1218 -0.06 0.1152, 0.1218 -0.06 0.1152, 0.1198 -0.06 0.1176, 0.119 -0.0596 0.118, 0.1188 -0.0598 0.118, 0.1181 -0.0601 0.118, 0.1184 -0.06 0.118, 0.1191 -0.0593 0.118, 0.12 -0.0596 0.1176, 0.1208 -0.0598 0.117, 0.1195 -0.0604 0.1176, 0.1186 -0.0599 0.118, 0.1191 -0.0608 0.1176, 0.1186 -0.061 0.1176, 0.1181 -0.061 0.1176, 0.1205 -0.0604 0.117, 0.1201 -0.061 0.117, 0.1195 -0.0615 0.117, 0.1188 -0.0617 0.117, 0.1181 -0.0618 0.117, 0.1214 -0.0599 0.1161, 0.1211 -0.0608 0.1161, 0.1205 -0.0615 0.1161, 0.1198 -0.062 0.1161, 0.119 -0.0623 0.1161, 0.1181 -0.0625 0.1161, 0.1214 -0.061 0.1152, 0.1208 -0.0617 0.1152, 0.12 -0.0623 0.1152, 0.1191 -0.0627 0.1152, 0.1181 -0.0629 0.1152
            ]
        }
        coordIndex [
            0,1,2,-1,0,2,3,-1,3,2,4,-1,3,4,5,-1,5,4,6,-1,5,6,7,-1,7,6,8,-1,7,8,9,-1,9,8,10,-1,9,10,11,-1,11,10,12,-1,11,12,13,-1,14,0,15,-1,14,15,16,-1,16,15,17,-1,16,17,18,-1,18,17,19,-1,18,19,20,-1,20,19,21,-1,20,21,22,-1,22,21,23,-1,22,23,24,-1,24,23,25,-1,24,25,26,-1,27,28,29,-1,27,29,30,-1,30,29,31,-1,30,31,32,-1,32,31,33,-1,32,33,34,-1,34,33,35,-1,34,35,36,-1,36,35,37,-1,36,37,38,-1,38,37,39,-1,38,39,14,-1,13,40,41,-1,42,43,44,-1,25,23,45,-1,44,43,25,-1,46,25,43,-1,46,43,47,-1,47,43,42,-1,47,42,48,-1,49,25,46,-1,50,51,52,-1,52,51,45,-1,52,45,53,-1,53,45,23,-1,53,23,21,-1,49,46,54,-1,54,46,47,-1,54,47,55,-1,55,47,48,-1,55,48,56,-1,57,50,58,-1,58,50,52,-1,58,52,59,-1,59,52,53,-1,59,53,60,-1,60,53,21,-1,60,21,19,-1,61,57,62,-1,62,57,58,-1,62,58,63,-1,63,58,59,-1,63,59,64,-1,64,59,60,-1,64,60,65,-1,65,60,19,-1,65,19,17,-1,40,61,41,-1,41,61,62,-1,41,62,66,-1,66,62,63,-1,66,63,67,-1,67,63,64,-1,67,64,68,-1,68,64,65,-1,68,65,69,-1,69,65,17,-1,69,17,15,-1,13,41,11,-1,11,41,66,-1,11,66,9,-1,9,66,67,-1,9,67,7,-1,7,67,68,-1,7,68,5,-1,5,68,69,-1,5,69,3,-1,3,69,15,-1,3,15,0,-1,51,25,45,-1,40,56,61,-1,61,56,48,-1,61,48,57,-1,57,48,42,-1,57,42,50,-1,50,42,44,-1,50,44,51,-1,51,44,25,-1,14,16,70,-1,71,72,73,-1,26,74,75,-1,73,72,26,-1,76,26,72,-1,76,72,77,-1,77,72,71,-1,77,71,78,-1,24,26,76,-1,79,80,81,-1,81,80,75,-1,81,75,82,-1,82,75,74,-1,82,74,83,-1,24,76,22,-1,22,76,77,-1,22,77,20,-1,20,77,78,-1,20,78,18,-1,84,79,85,-1,85,79,81,-1,85,81,86,-1,86,81,82,-1,86,82,87,-1,87,82,83,-1,87,83,88,-1,89,84,90,-1,90,84,85,-1,90,85,91,-1,91,85,86,-1,91,86,92,-1,92,86,87,-1,92,87,93,-1,93,87,88,-1,93,88,94,-1,16,89,70,-1,70,89,90,-1,70,90,95,-1,95,90,91,-1,95,91,96,-1,96,91,92,-1,96,92,97,-1,97,92,93,-1,97,93,98,-1,98,93,94,-1,98,94,99,-1,14,70,38,-1,38,70,95,-1,38,95,36,-1,36,95,96,-1,36,96,34,-1,34,96,97,-1,34,97,32,-1,32,97,98,-1,32,98,30,-1,30,98,99,-1,30,99,27,-1,80,26,75,-1,16,18,89,-1,89,18,78,-1,89,78,84,-1,84,78,71,-1,84,71,79,-1,79,71,73,-1,79,73,80,-1,80,73,26,-1,100,101,102,-1,100,102,103,-1,103,102,104,-1,103,104,105,-1,105,104,106,-1,105,106,107,-1,107,106,108,-1,107,108,109,-1,109,108,110,-1,109,110,111,-1,111,110,112,-1,111,112,113,-1,13,100,114,-1,13,114,40,-1,40,114,115,-1,40,115,56,-1,56,115,116,-1,56,116,55,-1,55,116,117,-1,55,117,54,-1,54,117,118,-1,54,118,49,-1,49,118,119,-1,49,119,25,-1,120,27,99,-1,120,99,121,-1,121,99,94,-1,121,94,122,-1,122,94,88,-1,122,88,123,-1,123,88,83,-1,123,83,124,-1,124,83,74,-1,124,74,125,-1,125,74,26,-1,125,26,126,-1,127,128,129,-1,127,129,130,-1,130,129,131,-1,130,131,132,-1,132,131,133,-1,132,133,134,-1,134,133,135,-1,134,135,136,-1,136,135,137,-1,136,137,138,-1,138,137,139,-1,138,139,120,-1,113,140,141,-1,142,143,144,-1,119,118,145,-1,144,143,119,-1,146,119,143,-1,146,143,147,-1,147,143,142,-1,147,142,148,-1,149,119,146,-1,150,151,152,-1,152,151,145,-1,152,145,153,-1,153,145,118,-1,153,118,117,-1,149,146,154,-1,154,146,147,-1,154,147,155,-1,155,147,148,-1,155,148,156,-1,157,150,158,-1,158,150,152,-1,158,152,159,-1,159,152,153,-1,159,153,160,-1,160,153,117,-1,160,117,116,-1,161,157,162,-1,162,157,158,-1,162,158,163,-1,163,158,159,-1,163,159,164,-1,164,159,160,-1,164,160,165,-1,165,160,116,-1,165,116,115,-1,140,161,141,-1,141,161,162,-1,141,162,166,-1,166,162,163,-1,166,163,167,-1,167,163,164,-1,167,164,168,-1,168,164,165,-1,168,165,169,-1,169,165,115,-1,169,115,114,-1,113,141,111,-1,111,141,166,-1,111,166,109,-1,109,166,167,-1,109,167,107,-1,107,167,168,-1,107,168,105,-1,105,168,169,-1,105,169,103,-1,103,169,114,-1,103,114,100,-1,151,119,145,-1,140,156,161,-1,161,156,148,-1,161,148,157,-1,157,148,142,-1,157,142,150,-1,150,142,144,-1,150,144,151,-1,151,144,119,-1,120,121,170,-1,171,172,173,-1,126,174,175,-1,173,172,126,-1,176,126,172,-1,176,172,177,-1,177,172,171,-1,177,171,178,-1,125,126,176,-1,179,180,181,-1,181,180,175,-1,181,175,182,-1,182,175,174,-1,182,174,183,-1,125,176,124,-1,124,176,177,-1,124,177,123,-1,123,177,178,-1,123,178,122,-1,184,179,185,-1,185,179,181,-1,185,181,186,-1,186,181,182,-1,186,182,187,-1,187,182,183,-1,187,183,188,-1,189,184,190,-1,190,184,185,-1,190,185,191,-1,191,185,186,-1,191,186,192,-1,192,186,187,-1,192,187,193,-1,193,187,188,-1,193,188,194,-1,121,189,170,-1,170,189,190,-1,170,190,195,-1,195,190,191,-1,195,191,196,-1,196,191,192,-1,196,192,197,-1,197,192,193,-1,197,193,198,-1,198,193,194,-1,198,194,199,-1,120,170,138,-1,138,170,195,-1,138,195,136,-1,136,195,196,-1,136,196,134,-1,134,196,197,-1,134,197,132,-1,132,197,198,-1,132,198,130,-1,130,198,199,-1,130,199,127,-1,180,126,175,-1,121,122,189,-1,189,122,178,-1,189,178,184,-1,184,178,171,-1,184,171,179,-1,179,171,173,-1,179,173,180,-1,180,173,126,-1,113,127,199,-1,113,199,140,-1,140,199,194,-1,140,194,156,-1,156,194,188,-1,156,188,155,-1,155,188,183,-1,155,183,154,-1,154,183,174,-1,154,174,149,-1,149,174,126,-1,149,126,119,-1,
        ]
    }
}
Shape{
    appearance Appearance {
        material  Material 	{
            diffuseColor 1.0 1.0 1.0
            specularColor 0.8784313725490196 0.8784313725490196 0.8784313725490196
            ambientIntensity 1.0
            transparency 0.0
            shininess 0.5
        }
    }
    geometry IndexedFaceSet {
        ccw TRUE
        solid FALSE
        coord DEF co Coordinate {
            point [
                0.0959 -0.0373 0.122, 0.0973 -0.0365 0.122, 0.0956 -0.037 0.122, 0.0968 -0.036 0.122, 0.0946 -0.0363 0.122, 0.0955 -0.0351 0.122, 0.0935 -0.0359 0.122, 0.094 -0.0345 0.122, 0.0918 -0.0358 0.122, 0.0919 -0.0343 0.122, 0.0899 -0.0358 0.122, 0.0882 -0.0343 0.122, 0.0899 -0.0457 0.122, 0.0882 -0.0472 0.122, 0.0918 -0.0457 0.122, 0.0918 -0.0472 0.122, 0.0934 -0.0455 0.122, 0.0936 -0.047 0.122, 0.0945 -0.0451 0.122, 0.0952 -0.0465 0.122, 0.0954 -0.0446 0.122, 0.0965 -0.0457 0.122, 0.0956 -0.0444 0.122, 0.0968 -0.0454 0.122, 0.0963 -0.0436 0.122, 0.0978 -0.0442 0.122, 0.0967 -0.0426 0.122, 0.0984 -0.0429 0.122, 0.0969 -0.0414 0.122, 0.0987 -0.0414 0.122, 0.097 -0.0406 0.122, 0.0987 -0.0406 0.122, 0.0968 -0.039 0.122, 0.0986 -0.0389 0.122, 0.0964 -0.0381 0.122, 0.0981 -0.0377 0.122, 0.0968 -0.0454 0.1181, 0.0978 -0.0442 0.1181, 0.0984 -0.0429 0.1181, 0.0987 -0.0414 0.1181, 0.0987 -0.0406 0.1181, 0.0986 -0.0389 0.1181, 0.0981 -0.0377 0.1181, 0.0973 -0.0365 0.1181, 0.0968 -0.036 0.1181, 0.0955 -0.0351 0.1181, 0.094 -0.0345 0.1181, 0.0919 -0.0343 0.1181, 0.0882 -0.0343 0.1181, 0.0882 -0.0472 0.1181, 0.0918 -0.0472 0.1181, 0.0936 -0.047 0.1181, 0.0952 -0.0465 0.1181, 0.0965 -0.0457 0.1181, 0.0956 -0.037 0.1181, 0.0959 -0.0373 0.1181, 0.0964 -0.0381 0.1181, 0.0968 -0.039 0.1181, 0.097 -0.0406 0.1181, 0.0918 -0.0358 0.1181, 0.0935 -0.0359 0.1181, 0.0946 -0.0363 0.1181, 0.0899 -0.0358 0.1181, 0.0899 -0.0457 0.1181, 0.0918 -0.0457 0.1181, 0.0956 -0.0444 0.1181, 0.0954 -0.0446 0.1181, 0.0945 -0.0451 0.1181, 0.0934 -0.0455 0.1181, 0.0969 -0.0414 0.1181, 0.0967 -0.0426 0.1181, 0.0963 -0.0436 0.1181
            ]
        }
        coordIndex [
            0,1,2,-1,2,1,3,-1,2,3,4,-1,4,3,5,-1,4,5,6,-1,6,5,7,-1,6,7,8,-1,8,7,9,-1,8,9,10,-1,10,9,11,-1,10,11,12,-1,12,11,13,-1,12,13,14,-1,14,13,15,-1,14,15,16,-1,16,15,17,-1,16,17,18,-1,18,17,19,-1,18,19,20,-1,20,19,21,-1,20,21,22,-1,22,21,23,-1,22,23,24,-1,24,23,25,-1,24,25,26,-1,26,25,27,-1,26,27,28,-1,28,27,29,-1,28,29,30,-1,30,29,31,-1,30,31,32,-1,32,31,33,-1,32,33,34,-1,34,33,35,-1,34,35,0,-1,0,35,1,-1,23,36,37,-1,23,37,25,-1,25,37,38,-1,25,38,27,-1,27,38,39,-1,27,39,29,-1,29,39,40,-1,29,40,31,-1,31,40,41,-1,31,41,33,-1,33,41,42,-1,33,42,35,-1,35,42,43,-1,35,43,1,-1,1,43,44,-1,1,44,3,-1,3,44,45,-1,3,45,5,-1,5,45,46,-1,5,46,7,-1,7,46,47,-1,7,47,9,-1,11,9,48,-1,48,9,47,-1,13,11,49,-1,49,11,48,-1,15,13,50,-1,50,13,49,-1,15,50,51,-1,15,51,17,-1,17,51,52,-1,17,52,19,-1,19,52,53,-1,19,53,21,-1,21,53,36,-1,21,36,23,-1,2,54,55,-1,2,55,0,-1,0,55,56,-1,0,56,34,-1,34,56,57,-1,34,57,32,-1,32,57,58,-1,32,58,30,-1,8,59,60,-1,8,60,6,-1,6,60,61,-1,6,61,4,-1,4,61,54,-1,4,54,2,-1,8,10,59,-1,59,10,62,-1,10,12,62,-1,62,12,63,-1,12,14,63,-1,63,14,64,-1,22,65,66,-1,22,66,20,-1,20,66,67,-1,20,67,18,-1,18,67,68,-1,18,68,16,-1,16,68,64,-1,16,64,14,-1,30,58,69,-1,30,69,28,-1,28,69,70,-1,28,70,26,-1,26,70,71,-1,26,71,24,-1,24,71,65,-1,24,65,22,-1,
        ]
    }
}
Shape{
    appearance Appearance {
        material  Material 	{
            diffuseColor 0.20784313725490197 0.20784313725490197 0.20784313725490197
            specularColor 0.01568627450980392 0.01568627450980392 0.01568627450980392
            ambientIntensity 0.298
            transparency 0.0
            shininess 0.5
        }
    }
    geometry IndexedFaceSet {
        ccw TRUE
        solid FALSE
        coord DEF co Coordinate {
            point [
                0.0899 -0.0358 0.1181, 0.0899 -0.0457 0.1181, 0.0918 -0.0358 0.1181, 0.0918 -0.0457 0.1181, 0.0954 -0.0446 0.1181, 0.0956 -0.0444 0.1181, 0.0934 -0.0455 0.1181, 0.0945 -0.0451 0.1181, 0.0963 -0.0436 0.1181, 0.0967 -0.0426 0.1181, 0.0969 -0.0414 0.1181, 0.097 -0.0406 0.1181, 0.0968 -0.039 0.1181, 0.0964 -0.0381 0.1181, 0.0959 -0.0373 0.1181, 0.0956 -0.037 0.1181, 0.0935 -0.0359 0.1181, 0.0946 -0.0363 0.1181
            ]
        }
        coordIndex [
            0,1,2,-1,2,1,3,-1,4,5,2,-1,3,6,2,-1,2,6,7,-1,2,7,4,-1,5,8,2,-1,2,8,9,-1,2,9,10,-1,10,11,2,-1,2,11,12,-1,2,12,13,-1,13,14,2,-1,2,14,15,-1,2,15,16,-1,16,15,17,-1,
        ]
    }
}
Shape{
    appearance Appearance {
        material  Material 	{
            diffuseColor 1.0 1.0 1.0
            specularColor 0.8784313725490196 0.8784313725490196 0.8784313725490196
            ambientIntensity 1.0
            transparency 0.0
            shininess 0.5
        }
    }
    geometry IndexedFaceSet {
        ccw TRUE
        solid FALSE
        coord DEF co Coordinate {
            point [
                0.0729 -0.0449 0.122, 0.0729 -0.0449 0.1181, 0.0727 -0.0453 0.1181, 0.0727 -0.0453 0.122, 0.0727 -0.0457 0.1181, 0.0727 -0.0457 0.122, 0.0726 -0.0457 0.122, 0.0726 -0.0457 0.1181, 0.0724 -0.0449 0.122, 0.0724 -0.0449 0.1181, 0.07 -0.038 0.122, 0.0708 -0.0402 0.1181, 0.07 -0.038 0.1181, 0.0682 -0.038 0.122, 0.0682 -0.038 0.1181, 0.0718 -0.0472 0.122, 0.0708 -0.0446 0.1181, 0.0718 -0.0472 0.1181, 0.0711 -0.0489 0.1181, 0.0711 -0.0489 0.122, 0.0718 -0.0473 0.1181, 0.0708 -0.0494 0.1181, 0.0708 -0.0495 0.122, 0.0708 -0.0495 0.1181, 0.0705 -0.0498 0.1181, 0.0705 -0.0498 0.122, 0.0702 -0.05 0.1181, 0.0702 -0.05 0.122, 0.0699 -0.0501 0.1181, 0.0699 -0.0501 0.122, 0.0695 -0.0502 0.1181, 0.0695 -0.0502 0.122, 0.0694 -0.0502 0.1181, 0.0694 -0.0502 0.122, 0.069 -0.0501 0.1181, 0.069 -0.0501 0.122, 0.0685 -0.05 0.1181, 0.0685 -0.05 0.122, 0.0685 -0.0514 0.122, 0.0685 -0.0514 0.1181, 0.069 -0.0515 0.1181, 0.069 -0.0515 0.122, 0.0696 -0.0516 0.1181, 0.0696 -0.0516 0.122, 0.0703 -0.0515 0.1181, 0.0703 -0.0515 0.122, 0.0708 -0.0513 0.1181, 0.0709 -0.0512 0.122, 0.0709 -0.0512 0.1181, 0.0715 -0.0508 0.1181, 0.0715 -0.0508 0.122, 0.0721 -0.05 0.1181, 0.0721 -0.05 0.122, 0.0729 -0.0486 0.1181, 0.0729 -0.0486 0.122, 0.0771 -0.038 0.1181, 0.0771 -0.038 0.122, 0.0734 -0.0473 0.1181, 0.0754 -0.038 0.122, 0.0754 -0.038 0.1181, 0.0636 -0.0474 0.1181, 0.0646 -0.0473 0.1181, 0.0636 -0.0474 0.122, 0.065 -0.0473 0.122, 0.065 -0.0473 0.1181, 0.0658 -0.047 0.1181, 0.0658 -0.047 0.122, 0.0663 -0.0467 0.1181, 0.0663 -0.0467 0.122, 0.0668 -0.0462 0.1181, 0.0668 -0.0462 0.122, 0.0671 -0.0458 0.1181, 0.0671 -0.0458 0.122, 0.0673 -0.0453 0.1181, 0.0673 -0.0453 0.122, 0.0674 -0.0447 0.1181, 0.0674 -0.0447 0.122, 0.0673 -0.044 0.1181, 0.0673 -0.044 0.122, 0.0671 -0.0436 0.1181, 0.0671 -0.0436 0.122, 0.0668 -0.0432 0.1181, 0.0668 -0.0432 0.122, 0.0664 -0.0428 0.1181, 0.0664 -0.0428 0.122, 0.0652 -0.0422 0.1181, 0.0652 -0.0422 0.122, 0.0647 -0.042 0.1181, 0.0647 -0.042 0.122, 0.0637 -0.0415 0.1181, 0.0637 -0.0415 0.122, 0.0631 -0.0412 0.1181, 0.0631 -0.0412 0.122, 0.063 -0.041 0.1181, 0.063 -0.041 0.122, 0.0629 -0.0408 0.1181, 0.0629 -0.0408 0.122, 0.0628 -0.0405 0.1181, 0.0628 -0.0405 0.122, 0.0628 -0.0403 0.1181, 0.0628 -0.0403 0.122, 0.0628 -0.04 0.1181, 0.0628 -0.04 0.122, 0.0629 -0.0398 0.1181, 0.0629 -0.0398 0.122, 0.063 -0.0396 0.1181, 0.063 -0.0396 0.122, 0.0633 -0.0394 0.1181, 0.0633 -0.0394 0.122, 0.0636 -0.0392 0.1181, 0.0636 -0.0392 0.122, 0.064 -0.0391 0.1181, 0.064 -0.0391 0.122, 0.0646 -0.0391 0.1181, 0.0646 -0.0391 0.122, 0.0657 -0.0392 0.1181, 0.0657 -0.0392 0.122, 0.0666 -0.0396 0.1181, 0.0666 -0.0396 0.122, 0.0669 -0.0397 0.1181, 0.0669 -0.0397 0.122, 0.0669 -0.0382 0.122, 0.0669 -0.0382 0.1181, 0.0659 -0.0378 0.1181, 0.0659 -0.0378 0.122, 0.0647 -0.0377 0.1181, 0.0647 -0.0377 0.122, 0.0635 -0.0379 0.1181, 0.0635 -0.0379 0.122, 0.0626 -0.0382 0.1181, 0.0626 -0.0382 0.122, 0.0622 -0.0385 0.1181, 0.0622 -0.0385 0.122, 0.0619 -0.0388 0.1181, 0.0616 -0.039 0.122, 0.0616 -0.039 0.1181, 0.0614 -0.0394 0.1181, 0.0614 -0.0394 0.122, 0.0612 -0.0399 0.1181, 0.0612 -0.0399 0.122, 0.0611 -0.0405 0.1181, 0.0611 -0.0405 0.122, 0.0612 -0.0411 0.1181, 0.0612 -0.0411 0.122, 0.0614 -0.0416 0.1181, 0.0614 -0.0416 0.122, 0.0616 -0.0419 0.1181, 0.0616 -0.0419 0.122, 0.0636 -0.0431 0.1181, 0.0636 -0.0431 0.122, 0.0626 -0.0427 0.122, 0.0618 -0.0422 0.1181, 0.0618 -0.0422 0.122, 0.0619 -0.0422 0.1181, 0.0626 -0.0427 0.1181, 0.0646 -0.0436 0.1181, 0.0646 -0.0436 0.122, 0.0653 -0.044 0.1181, 0.0653 -0.044 0.122, 0.0655 -0.0442 0.1181, 0.0655 -0.0442 0.122, 0.0656 -0.0444 0.1181, 0.0656 -0.0444 0.122, 0.0657 -0.0446 0.1181, 0.0657 -0.0446 0.122, 0.0657 -0.0448 0.1181, 0.0657 -0.0448 0.122, 0.0657 -0.0452 0.1181, 0.0657 -0.0452 0.122, 0.0656 -0.0454 0.1181, 0.0656 -0.0454 0.122, 0.0654 -0.0456 0.1181, 0.0654 -0.0456 0.122, 0.0652 -0.0458 0.1181, 0.0652 -0.0458 0.122, 0.0651 -0.0458 0.1181, 0.0651 -0.0458 0.122, 0.0647 -0.046 0.1181, 0.0647 -0.046 0.122, 0.0639 -0.0461 0.1181, 0.0639 -0.0461 0.122, 0.0638 -0.0461 0.1181, 0.0638 -0.0461 0.122, 0.0611 -0.0452 0.1181, 0.0611 -0.0452 0.122, 0.0617 -0.0456 0.122, 0.0627 -0.046 0.1181, 0.0627 -0.046 0.122, 0.0619 -0.0456 0.1181, 0.0617 -0.0456 0.1181, 0.0611 -0.0469 0.122, 0.0611 -0.0469 0.1181, 0.0619 -0.0471 0.1181, 0.0622 -0.0473 0.122, 0.0626 -0.0473 0.1181, 0.0622 -0.0473 0.1181, 0.0551 -0.0429 0.122, 0.0573 -0.0426 0.122, 0.0589 -0.0413 0.122, 0.0573 -0.0472 0.122, 0.0589 -0.0472 0.122, 0.0573 -0.0458 0.122, 0.0573 -0.0413 0.122, 0.0538 -0.0433 0.122, 0.0542 -0.0431 0.122, 0.0546 -0.0417 0.122, 0.0533 -0.042 0.122, 0.0536 -0.0434 0.122, 0.0526 -0.0424 0.122, 0.0534 -0.0437 0.122, 0.0521 -0.0428 0.122, 0.0532 -0.044 0.122, 0.0573 -0.0435 0.122, 0.0572 -0.0442 0.122, 0.057 -0.0448 0.122, 0.0573 -0.0458 0.122, 0.0573 -0.0407 0.122, 0.0588 -0.04 0.122, 0.0571 -0.0401 0.122, 0.0585 -0.0393 0.122, 0.0569 -0.0397 0.122, 0.0582 -0.0388 0.122, 0.0567 -0.0395 0.122, 0.0578 -0.0383 0.122, 0.0564 -0.0393 0.122, 0.0572 -0.038 0.122, 0.056 -0.0391 0.122, 0.0565 -0.0378 0.122, 0.0554 -0.0391 0.122, 0.0556 -0.0377 0.122, 0.0546 -0.0391 0.122, 0.054 -0.0379 0.122, 0.0535 -0.0395 0.122, 0.0528 -0.0384 0.122, 0.0524 -0.0402 0.122, 0.0524 -0.0386 0.122, 0.0566 -0.0453 0.122, 0.0564 -0.0455 0.122, 0.0569 -0.0463 0.122, 0.056 -0.0458 0.122, 0.0535 -0.0455 0.122, 0.0523 -0.0467 0.122, 0.0536 -0.0457 0.122, 0.0528 -0.0471 0.122, 0.0539 -0.0459 0.122, 0.0534 -0.0473 0.122, 0.0543 -0.046 0.122, 0.0542 -0.0474 0.122, 0.0547 -0.0461 0.122, 0.0544 -0.0474 0.122, 0.0548 -0.0461 0.122, 0.0553 -0.0473 0.122, 0.0555 -0.046 0.122, 0.056 -0.0471 0.122, 0.0563 -0.0468 0.122, 0.0518 -0.0433 0.122, 0.0516 -0.0438 0.122, 0.0531 -0.0444 0.122, 0.0515 -0.0445 0.122, 0.0531 -0.0446 0.122, 0.0515 -0.0447 0.122, 0.0532 -0.045 0.122, 0.0516 -0.0455 0.122, 0.0533 -0.0453 0.122, 0.0518 -0.0461 0.122, 0.0521 -0.0466 0.122, 0.0554 -0.0391 0.1181, 0.056 -0.0391 0.1181, 0.0564 -0.0393 0.1181, 0.0567 -0.0395 0.1181, 0.0569 -0.0397 0.1181, 0.0571 -0.0401 0.1181, 0.0573 -0.0407 0.1181, 0.0573 -0.0413 0.1181, 0.0546 -0.0417 0.1181, 0.0533 -0.042 0.1181, 0.0526 -0.0424 0.1181, 0.0521 -0.0428 0.1181, 0.0518 -0.0433 0.1181, 0.0516 -0.0438 0.1181, 0.0515 -0.0445 0.1181, 0.0515 -0.0447 0.1181, 0.0516 -0.0455 0.1181, 0.0518 -0.0461 0.1181, 0.0521 -0.0466 0.1181, 0.0523 -0.0467 0.1181, 0.0544 -0.0474 0.1181, 0.0528 -0.0471 0.1181, 0.0534 -0.0473 0.1181, 0.0535 -0.0473 0.1181, 0.0542 -0.0474 0.1181, 0.0553 -0.0473 0.1181, 0.056 -0.0471 0.1181, 0.0563 -0.0468 0.1181, 0.0569 -0.0463 0.1181, 0.0573 -0.0458 0.1181, 0.0573 -0.0458 0.1181, 0.0573 -0.0472 0.1181, 0.0589 -0.0472 0.1181, 0.0589 -0.0413 0.1181, 0.0588 -0.04 0.1181, 0.0585 -0.0393 0.1181, 0.0582 -0.0388 0.1181, 0.0578 -0.0383 0.1181, 0.0572 -0.038 0.1181, 0.0565 -0.0378 0.1181, 0.0556 -0.0377 0.1181, 0.054 -0.0379 0.1181, 0.0528 -0.0384 0.1181, 0.0524 -0.0386 0.1181, 0.0524 -0.0402 0.1181, 0.0535 -0.0395 0.1181, 0.0546 -0.0391 0.1181, 0.0566 -0.0453 0.1181, 0.0564 -0.0455 0.1181, 0.056 -0.0458 0.1181, 0.0555 -0.046 0.1181, 0.0548 -0.0461 0.1181, 0.0573 -0.0435 0.1181, 0.0572 -0.0442 0.1181, 0.057 -0.0448 0.1181, 0.0573 -0.0426 0.1181, 0.0551 -0.0429 0.1181, 0.0536 -0.0434 0.1181, 0.0538 -0.0433 0.1181, 0.0542 -0.0431 0.1181, 0.0531 -0.0446 0.1181, 0.0531 -0.0444 0.1181, 0.0532 -0.044 0.1181, 0.0534 -0.0437 0.1181, 0.0536 -0.0457 0.1181, 0.0535 -0.0455 0.1181, 0.0533 -0.0453 0.1181, 0.0532 -0.045 0.1181, 0.0547 -0.0461 0.1181, 0.0543 -0.046 0.1181, 0.0539 -0.0459 0.1181
            ]
        }
        coordIndex [
            0,1,2,-1,0,2,3,-1,3,2,4,-1,3,4,5,-1,6,5,7,-1,7,5,4,-1,8,6,9,-1,9,6,7,-1,8,9,10,-1,10,9,11,-1,10,11,12,-1,13,10,14,-1,14,10,12,-1,13,14,15,-1,15,14,16,-1,15,16,17,-1,18,19,20,-1,20,19,15,-1,20,15,17,-1,18,21,19,-1,19,21,22,-1,21,23,22,-1,22,23,24,-1,22,24,25,-1,25,24,26,-1,25,26,27,-1,27,26,28,-1,27,28,29,-1,29,28,30,-1,29,30,31,-1,31,30,32,-1,31,32,33,-1,33,32,34,-1,33,34,35,-1,35,34,36,-1,35,36,37,-1,38,37,39,-1,39,37,36,-1,38,39,40,-1,38,40,41,-1,41,40,42,-1,41,42,43,-1,43,42,44,-1,43,44,45,-1,45,44,46,-1,45,46,47,-1,46,48,47,-1,47,48,49,-1,47,49,50,-1,50,49,51,-1,50,51,52,-1,52,51,53,-1,52,53,54,-1,55,56,57,-1,57,56,54,-1,57,54,53,-1,58,56,59,-1,59,56,55,-1,0,58,1,-1,1,58,59,-1,3,5,54,-1,56,58,54,-1,54,58,0,-1,54,0,3,-1,10,13,8,-1,8,13,15,-1,8,15,6,-1,5,6,54,-1,54,6,15,-1,54,15,52,-1,15,19,52,-1,52,19,22,-1,52,22,50,-1,50,22,25,-1,50,25,47,-1,47,25,27,-1,47,27,45,-1,45,27,29,-1,45,29,43,-1,29,31,43,-1,43,31,33,-1,43,33,41,-1,41,33,35,-1,41,35,38,-1,38,35,37,-1,60,61,62,-1,62,61,63,-1,61,64,63,-1,63,64,65,-1,63,65,66,-1,66,65,67,-1,66,67,68,-1,68,67,69,-1,68,69,70,-1,70,69,71,-1,70,71,72,-1,72,71,73,-1,72,73,74,-1,74,73,75,-1,74,75,76,-1,76,75,77,-1,76,77,78,-1,78,77,79,-1,78,79,80,-1,80,79,81,-1,80,81,82,-1,82,81,83,-1,82,83,84,-1,84,83,85,-1,84,85,86,-1,86,85,87,-1,86,87,88,-1,88,87,89,-1,88,89,90,-1,90,89,91,-1,90,91,92,-1,92,91,93,-1,92,93,94,-1,94,93,95,-1,94,95,96,-1,96,95,97,-1,96,97,98,-1,98,97,99,-1,98,99,100,-1,100,99,101,-1,100,101,102,-1,102,101,103,-1,102,103,104,-1,104,103,105,-1,104,105,106,-1,106,105,107,-1,106,107,108,-1,108,107,109,-1,108,109,110,-1,110,109,111,-1,110,111,112,-1,112,111,113,-1,112,113,114,-1,114,113,115,-1,114,115,116,-1,116,115,117,-1,116,117,118,-1,118,117,119,-1,118,119,120,-1,121,120,122,-1,122,120,119,-1,121,122,123,-1,121,123,124,-1,124,123,125,-1,124,125,126,-1,126,125,127,-1,126,127,128,-1,128,127,129,-1,128,129,130,-1,130,129,131,-1,130,131,132,-1,131,133,132,-1,132,133,134,-1,133,135,134,-1,134,135,136,-1,134,136,137,-1,137,136,138,-1,137,138,139,-1,139,138,140,-1,139,140,141,-1,141,140,142,-1,141,142,143,-1,143,142,144,-1,143,144,145,-1,145,144,146,-1,145,146,147,-1,148,149,150,-1,147,146,151,-1,147,151,152,-1,152,151,153,-1,152,153,150,-1,150,153,154,-1,150,154,148,-1,149,148,155,-1,149,155,156,-1,156,155,157,-1,156,157,158,-1,158,157,159,-1,158,159,160,-1,160,159,161,-1,160,161,162,-1,162,161,163,-1,162,163,164,-1,164,163,165,-1,164,165,166,-1,166,165,167,-1,166,167,168,-1,168,167,169,-1,168,169,170,-1,170,169,171,-1,170,171,172,-1,172,171,173,-1,172,173,174,-1,174,173,175,-1,174,175,176,-1,176,175,177,-1,176,177,178,-1,178,177,179,-1,178,179,180,-1,180,179,181,-1,180,181,182,-1,183,184,185,-1,182,181,186,-1,182,186,187,-1,187,186,188,-1,187,188,185,-1,185,188,189,-1,185,189,183,-1,190,184,191,-1,191,184,183,-1,191,192,190,-1,190,192,193,-1,60,62,194,-1,194,62,193,-1,194,193,195,-1,195,193,192,-1,104,106,132,-1,132,106,130,-1,130,106,108,-1,130,108,128,-1,170,70,72,-1,156,88,149,-1,149,88,90,-1,170,72,168,-1,168,72,74,-1,168,74,166,-1,166,74,76,-1,166,76,164,-1,164,76,78,-1,164,78,162,-1,162,78,80,-1,162,80,160,-1,160,80,82,-1,160,82,158,-1,158,82,84,-1,158,84,156,-1,156,84,86,-1,156,86,88,-1,70,170,68,-1,68,170,172,-1,68,172,66,-1,62,182,193,-1,193,182,187,-1,193,187,190,-1,190,187,185,-1,190,185,184,-1,108,110,128,-1,128,110,112,-1,128,112,126,-1,126,112,114,-1,126,114,124,-1,124,114,116,-1,124,116,121,-1,121,116,118,-1,121,118,120,-1,172,174,66,-1,66,174,176,-1,66,176,63,-1,63,176,178,-1,63,178,62,-1,62,178,180,-1,62,180,182,-1,132,134,104,-1,104,134,137,-1,104,137,102,-1,102,137,139,-1,102,139,100,-1,100,139,141,-1,100,141,98,-1,98,141,143,-1,98,143,96,-1,96,143,145,-1,96,145,94,-1,94,145,147,-1,94,147,92,-1,92,147,152,-1,92,152,90,-1,90,152,150,-1,90,150,149,-1,196,197,198,-1,199,200,201,-1,201,200,198,-1,202,203,204,-1,202,205,203,-1,203,205,206,-1,203,206,207,-1,207,206,208,-1,207,208,209,-1,209,208,210,-1,209,210,211,-1,197,212,198,-1,198,212,213,-1,198,213,201,-1,201,213,214,-1,201,214,215,-1,204,196,202,-1,202,196,198,-1,202,198,216,-1,216,198,217,-1,216,217,218,-1,218,217,219,-1,218,219,220,-1,220,219,221,-1,220,221,222,-1,222,221,223,-1,222,223,224,-1,224,223,225,-1,224,225,226,-1,226,225,227,-1,226,227,228,-1,228,227,229,-1,228,229,230,-1,230,229,231,-1,230,231,232,-1,232,231,233,-1,232,233,234,-1,234,233,235,-1,214,236,215,-1,215,236,237,-1,215,237,238,-1,238,237,239,-1,240,241,242,-1,242,241,243,-1,242,243,244,-1,244,243,245,-1,244,245,246,-1,246,245,247,-1,246,247,248,-1,248,247,249,-1,248,249,250,-1,250,249,251,-1,250,251,252,-1,252,251,253,-1,252,253,239,-1,239,253,254,-1,239,254,238,-1,210,255,211,-1,211,255,256,-1,211,256,257,-1,257,256,258,-1,257,258,259,-1,259,258,260,-1,259,260,261,-1,261,260,262,-1,261,262,263,-1,263,262,264,-1,263,264,240,-1,240,264,265,-1,240,265,241,-1,228,266,267,-1,228,267,226,-1,226,267,268,-1,226,268,224,-1,224,268,269,-1,224,269,222,-1,222,269,270,-1,222,270,220,-1,220,270,271,-1,220,271,218,-1,218,271,272,-1,218,272,216,-1,216,272,273,-1,216,273,202,-1,205,202,274,-1,274,202,273,-1,205,274,275,-1,205,275,206,-1,206,275,276,-1,206,276,208,-1,208,276,277,-1,208,277,210,-1,210,277,278,-1,210,278,255,-1,255,278,279,-1,255,279,256,-1,256,279,280,-1,256,280,258,-1,258,280,281,-1,258,281,260,-1,260,281,282,-1,260,282,262,-1,262,282,283,-1,262,283,264,-1,264,283,284,-1,264,284,265,-1,265,284,285,-1,265,285,241,-1,286,249,247,-1,241,285,287,-1,241,287,243,-1,243,287,288,-1,243,288,245,-1,245,288,289,-1,245,289,247,-1,247,289,290,-1,247,290,286,-1,249,286,291,-1,249,291,251,-1,251,291,292,-1,251,292,253,-1,253,292,293,-1,253,293,254,-1,254,293,294,-1,254,294,238,-1,238,294,295,-1,238,295,215,-1,201,215,296,-1,296,215,295,-1,199,201,297,-1,297,201,296,-1,200,199,298,-1,298,199,297,-1,198,200,299,-1,299,200,298,-1,198,299,300,-1,198,300,217,-1,217,300,301,-1,217,301,219,-1,219,301,302,-1,219,302,221,-1,221,302,303,-1,221,303,223,-1,223,303,304,-1,223,304,225,-1,225,304,305,-1,225,305,227,-1,227,305,306,-1,227,306,229,-1,229,306,307,-1,229,307,231,-1,231,307,308,-1,231,308,233,-1,233,308,309,-1,233,309,235,-1,234,235,310,-1,310,235,309,-1,234,310,311,-1,234,311,232,-1,232,311,312,-1,232,312,230,-1,230,312,266,-1,230,266,228,-1,236,313,314,-1,236,314,237,-1,237,314,315,-1,237,315,239,-1,239,315,316,-1,239,316,252,-1,252,316,317,-1,252,317,250,-1,212,318,319,-1,212,319,213,-1,213,319,320,-1,213,320,214,-1,214,320,313,-1,214,313,236,-1,212,197,318,-1,318,197,321,-1,197,196,321,-1,321,196,322,-1,207,323,324,-1,207,324,203,-1,203,324,325,-1,203,325,204,-1,204,325,322,-1,204,322,196,-1,259,326,327,-1,259,327,257,-1,257,327,328,-1,257,328,211,-1,211,328,329,-1,211,329,209,-1,209,329,323,-1,209,323,207,-1,242,330,331,-1,242,331,240,-1,240,331,332,-1,240,332,263,-1,263,332,333,-1,263,333,261,-1,261,333,326,-1,261,326,259,-1,250,317,334,-1,250,334,248,-1,248,334,335,-1,248,335,246,-1,246,335,336,-1,246,336,244,-1,244,336,330,-1,244,330,242,-1,
        ]
    }
}
Shape{
    appearance Appearance {
        material  Material 	{
            diffuseColor 0.20784313725490197 0.20784313725490197 0.20784313725490197
            specularColor 0.01568627450980392 0.01568627450980392 0.01568627450980392
            ambientIntensity 0.298
            transparency 0.0
            shininess 0.5
        }
    }
    geometry IndexedFaceSet {
        ccw TRUE
        solid FALSE
        coord DEF co Coordinate {
            point [
                0.0548 -0.0461 0.1181, 0.0555 -0.046 0.1181, 0.0551 -0.0429 0.1181, 0.0566 -0.0453 0.1181, 0.057 -0.0448 0.1181, 0.056 -0.0458 0.1181, 0.0564 -0.0455 0.1181, 0.0572 -0.0442 0.1181, 0.0573 -0.0435 0.1181, 0.0573 -0.0426 0.1181, 0.0547 -0.0461 0.1181, 0.0542 -0.0431 0.1181, 0.0538 -0.0433 0.1181, 0.0532 -0.045 0.1181, 0.0533 -0.0453 0.1181, 0.0535 -0.0455 0.1181, 0.0532 -0.044 0.1181, 0.0531 -0.0444 0.1181, 0.0531 -0.0446 0.1181, 0.0543 -0.046 0.1181, 0.0539 -0.0459 0.1181, 0.0536 -0.0457 0.1181, 0.0536 -0.0434 0.1181, 0.0534 -0.0437 0.1181
            ]
        }
        coordIndex [
            0,1,2,-1,2,3,4,-1,1,5,2,-1,2,5,6,-1,2,6,3,-1,4,7,2,-1,2,7,8,-1,2,8,9,-1,0,2,10,-1,10,2,11,-1,10,11,12,-1,13,14,15,-1,16,17,10,-1,10,17,18,-1,10,18,19,-1,19,18,20,-1,13,15,18,-1,18,15,21,-1,18,21,20,-1,12,22,10,-1,10,22,23,-1,10,23,16,-1,
        ]
    }
}
Shape{
    appearance Appearance {
        material  Material 	{
            diffuseColor 1.0 1.0 1.0
            specularColor 0.8784313725490196 0.8784313725490196 0.8784313725490196
            ambientIntensity 1.0
            transparency 0.0
            shininess 0.5
        }
    }
    geometry IndexedFaceSet {
        ccw TRUE
        solid FALSE
        coord DEF co Coordinate {
            point [
                -0.0141 -0.049 0.122, -0.0128 -0.0507 0.122, -0.015 -0.0409 0.122, 0.0182 -0.0247 0.122, 0.0188 -0.0273 0.122, 0.0233 -0.0223 0.122, -0.0166 -0.0249 0.122, -0.0146 -0.0238 0.122, -0.015 -0.0182 0.122, 0.0029 -0.0441 0.122, 0.0029 -0.0432 0.122, -0.0049 -0.0409 0.122, -0.0058 -0.0407 0.122, -0.017 -0.0397 0.122, -0.0162 -0.0467 0.122, -0.0151 -0.0471 0.122, -0.0114 -0.0177 0.122, -0.0036 -0.0421 0.122, -0.0031 -0.0428 0.122, 0.0028 -0.0451 0.122, 0.0157 -0.0364 0.122, 0.0129 -0.0315 0.122, 0.0006 -0.038 0.122, -0.0064 -0.0406 0.122, -0.0073 -0.0407 0.122, -0.0085 -0.0351 0.122, -0.0081 -0.041 0.122, -0.0106 -0.0359 0.122, -0.0088 -0.0415 0.122, -0.0125 -0.0372 0.122, -0.0093 -0.042 0.122, -0.014 -0.0389 0.122, -0.0097 -0.0428 0.122, -0.01 -0.0437 0.122, -0.003 -0.0354 0.122, -0.0052 -0.0349 0.122, -0.0063 -0.0348 0.122, -0.0042 -0.0414 0.122, -0.0088 -0.0469 0.122, -0.0081 -0.0474 0.122, -0.011 -0.0521 0.122, -0.0073 -0.0477 0.122, -0.0005 -0.0174 0.122, -0.0052 -0.0139 0.122, -0.003 -0.0192 0.122, -0.0074 -0.0157 0.122, -0.005 -0.0217 0.122, -0.0093 -0.0179 0.122, -0.0064 -0.0246 0.122, 0.009 -0.0162 0.122, 0.0065 -0.0103 0.122, 0.0059 -0.0158 0.122, 0.0058 -0.0103 0.122, 0.0025 -0.0162 0.122, 0.0015 -0.0108 0.122, -0.0024 -0.0122 0.122, -0.0123 -0.0233 0.122, -0.0113 -0.0232 0.122, -0.0103 -0.0178 0.122, -0.0091 -0.0235 0.122, -0.0071 -0.0243 0.122, -0.0011 -0.0365 0.122, 0.029 -0.0431 0.122, 0.0243 -0.0399 0.122, 0.0265 -0.0452 0.122, 0.0228 -0.0409 0.122, 0.0237 -0.0466 0.122, 0.0211 -0.0415 0.122, 0.0206 -0.0472 0.122, 0.0201 -0.0416 0.122, 0.0152 -0.0472 0.122, 0.0159 -0.0416 0.122, 0.0147 -0.0472 0.122, -0.0094 -0.0462 0.122, -0.0098 -0.0454 0.122, -0.01 -0.0446 0.122, 0.0195 -0.0273 0.122, 0.0211 -0.0275 0.122, 0.0237 -0.0225 0.122, 0.0227 -0.028 0.122, 0.0265 -0.0238 0.122, 0.0242 -0.029 0.122, 0.029 -0.0259 0.122, 0.0254 -0.0303 0.122, 0.0308 -0.0285 0.122, 0.0262 -0.0319 0.122, 0.032 -0.0314 0.122, 0.0266 -0.0337 0.122, 0.0324 -0.0344 0.122, 0.0267 -0.0345 0.122, 0.032 -0.0376 0.122, 0.0265 -0.0361 0.122, 0.0308 -0.0406 0.122, 0.0259 -0.0377 0.122, 0.0249 -0.0392 0.122, -0.0202 -0.0302 0.122, -0.0263 -0.0317 0.122, -0.0205 -0.0324 0.122, -0.0263 -0.0326 0.122, -0.0204 -0.0339 0.122, -0.0258 -0.0362 0.122, -0.0197 -0.0361 0.122, -0.0245 -0.0397 0.122, -0.0186 -0.038 0.122, -0.0224 -0.0426 0.122, -0.0196 -0.0451 0.122, -0.0184 -0.0195 0.122, -0.0214 -0.0215 0.122, -0.0182 -0.0263 0.122, -0.022 -0.0221 0.122, -0.0194 -0.0282 0.122, -0.0242 -0.025 0.122, -0.0257 -0.0283 0.122, -0.0029 -0.0436 0.122, -0.0029 -0.0445 0.122, 0.0023 -0.0474 0.122, -0.0031 -0.0454 0.122, 0.0012 -0.0494 0.122, -0.0035 -0.0462 0.122, -0.0002 -0.051 0.122, -0.004 -0.0469 0.122, -0.0021 -0.0522 0.122, -0.0047 -0.0474 0.122, -0.0041 -0.053 0.122, -0.0055 -0.0477 0.122, -0.0063 -0.0533 0.122, -0.0064 -0.0478 0.122, -0.0067 -0.0533 0.122, -0.0089 -0.053 0.122, 0.0168 -0.0217 0.122, 0.0214 -0.0187 0.122, 0.0147 -0.0193 0.122, 0.0187 -0.0154 0.122, 0.0145 -0.0191 0.122, 0.0183 -0.0151 0.122, 0.0119 -0.0173 0.122, 0.0146 -0.0125 0.122, 0.0105 -0.0109 0.122, 0.0155 -0.0415 0.122, 0.0132 -0.0463 0.122, 0.0135 -0.0465 0.122, 0.0125 -0.0444 0.122, 0.0126 -0.0451 0.122, 0.0128 -0.0457 0.122, 0.0157 -0.0416 0.122, 0.0141 -0.047 0.122, 0.0147 -0.0416 0.122, 0.0141 -0.0419 0.122, 0.0125 -0.0441 0.122, 0.0135 -0.0423 0.122, 0.013 -0.0428 0.122, 0.0127 -0.0434 0.122, 0.0154 -0.0415 0.122, 0.0324 -0.0344 0.1181, 0.032 -0.0314 0.1181, 0.0317 -0.0306 0.1181, 0.0308 -0.0285 0.1181, 0.0296 -0.0268 0.1181, 0.029 -0.0259 0.1181, 0.0265 -0.0238 0.1181, 0.0237 -0.0225 0.1181, 0.0233 -0.0223 0.1181, 0.0214 -0.0187 0.1181, 0.0187 -0.0154 0.1181, 0.0183 -0.0151 0.1181, 0.0163 -0.0136 0.1181, 0.0146 -0.0125 0.1181, 0.0105 -0.0109 0.1181, 0.0065 -0.0103 0.1181, 0.0058 -0.0103 0.1181, -0.0052 -0.0139 0.1181, -0.0049 -0.0136 0.1181, -0.0024 -0.0122 0.1181, 0.0015 -0.0108 0.1181, -0.0074 -0.0157 0.1181, -0.0093 -0.0179 0.1181, -0.0103 -0.0178 0.1181, -0.0114 -0.0177 0.1181, -0.015 -0.0182 0.1181, -0.0184 -0.0195 0.1181, -0.0214 -0.0215 0.1181, -0.022 -0.0221 0.1181, -0.0263 -0.0326 0.1181, -0.0242 -0.025 0.1181, -0.025 -0.0268 0.1181, -0.0257 -0.0283 0.1181, -0.0261 -0.0306 0.1181, -0.0263 -0.0317 0.1181, -0.0258 -0.0362 0.1181, -0.0245 -0.0397 0.1181, -0.0224 -0.0426 0.1181, -0.0196 -0.0451 0.1181, -0.0162 -0.0467 0.1181, -0.0151 -0.0471 0.1181, -0.015 -0.0473 0.1181, -0.0141 -0.049 0.1181, -0.0128 -0.0507 0.1181, -0.011 -0.0521 0.1181, -0.0101 -0.0524 0.1181, -0.0089 -0.053 0.1181, -0.0067 -0.0533 0.1181, -0.0063 -0.0533 0.1181, 0.0029 -0.0441 0.1181, -0.0041 -0.053 0.1181, -0.0025 -0.0524 0.1181, -0.0021 -0.0522 0.1181, -0.0002 -0.051 0.1181, 0.0012 -0.0494 0.1181, 0.0023 -0.0474 0.1181, 0.0023 -0.0473 0.1181, 0.0028 -0.0451 0.1181, 0.0029 -0.0432 0.1181, 0.0157 -0.0364 0.1181, 0.0129 -0.0315 0.1181, 0.0006 -0.038 0.1181, -0.0011 -0.0365 0.1181, -0.003 -0.0354 0.1181, -0.0052 -0.0349 0.1181, -0.0063 -0.0348 0.1181, -0.0085 -0.0351 0.1181, -0.0106 -0.0359 0.1181, -0.0125 -0.0372 0.1181, -0.014 -0.0389 0.1181, -0.015 -0.0409 0.1181, -0.017 -0.0397 0.1181, -0.0186 -0.038 0.1181, -0.0197 -0.0361 0.1181, -0.0204 -0.0339 0.1181, -0.0205 -0.0324 0.1181, -0.0203 -0.0306 0.1181, -0.0202 -0.0302 0.1181, -0.0194 -0.0282 0.1181, -0.0185 -0.0268 0.1181, -0.0182 -0.0263 0.1181, -0.0166 -0.0249 0.1181, -0.0146 -0.0238 0.1181, -0.0123 -0.0233 0.1181, -0.0113 -0.0232 0.1181, -0.0091 -0.0235 0.1181, -0.0071 -0.0243 0.1181, -0.0064 -0.0246 0.1181, -0.005 -0.0217 0.1181, -0.003 -0.0192 0.1181, -0.0005 -0.0174 0.1181, 0.0025 -0.0162 0.1181, 0.0059 -0.0158 0.1181, 0.0188 -0.0273 0.1181, 0.0187 -0.0268 0.1181, 0.0182 -0.0247 0.1181, 0.0168 -0.0217 0.1181, 0.0147 -0.0193 0.1181, 0.0145 -0.0191 0.1181, 0.0119 -0.0173 0.1181, 0.009 -0.0162 0.1181, 0.0195 -0.0273 0.1181, 0.0211 -0.0275 0.1181, 0.0227 -0.028 0.1181, 0.0242 -0.029 0.1181, 0.0254 -0.0303 0.1181, 0.0255 -0.0306 0.1181, 0.0262 -0.0319 0.1181, 0.0266 -0.0337 0.1181, 0.0267 -0.0345 0.1181, 0.0265 -0.0361 0.1181, 0.0259 -0.0377 0.1181, 0.0249 -0.0392 0.1181, 0.0243 -0.0399 0.1181, 0.0228 -0.0409 0.1181, 0.0211 -0.0415 0.1181, 0.0201 -0.0416 0.1181, 0.0159 -0.0416 0.1181, 0.0157 -0.0416 0.1181, 0.0155 -0.0415 0.1181, 0.0154 -0.0415 0.1181, 0.0147 -0.0416 0.1181, 0.0141 -0.0419 0.1181, 0.0135 -0.0423 0.1181, 0.013 -0.0428 0.1181, 0.0127 -0.0434 0.1181, 0.0125 -0.0441 0.1181, 0.0125 -0.0444 0.1181, 0.0126 -0.0451 0.1181, 0.0128 -0.0457 0.1181, 0.0132 -0.0463 0.1181, 0.0135 -0.0465 0.1181, 0.0141 -0.047 0.1181, 0.0147 -0.0472 0.1181, 0.0152 -0.0472 0.1181, 0.0206 -0.0472 0.1181, 0.0237 -0.0466 0.1181, 0.0265 -0.0452 0.1181, 0.029 -0.0431 0.1181, 0.0308 -0.0406 0.1181, 0.032 -0.0376 0.1181, -0.0064 -0.0406 0.1181, -0.0058 -0.0407 0.1181, -0.0049 -0.0409 0.1181, -0.0042 -0.0414 0.1181, -0.0036 -0.0421 0.1181, -0.0031 -0.0428 0.1181, -0.0029 -0.0436 0.1181, -0.0029 -0.0445 0.1181, -0.0031 -0.0454 0.1181, -0.0035 -0.0462 0.1181, -0.004 -0.0469 0.1181, -0.0047 -0.0474 0.1181, -0.0055 -0.0477 0.1181, -0.0064 -0.0478 0.1181, -0.0073 -0.0477 0.1181, -0.0081 -0.0474 0.1181, -0.0088 -0.0469 0.1181, -0.0094 -0.0462 0.1181, -0.0098 -0.0454 0.1181, -0.01 -0.0446 0.1181, -0.01 -0.0437 0.1181, -0.0097 -0.0428 0.1181, -0.0093 -0.042 0.1181, -0.0088 -0.0415 0.1181, -0.0081 -0.041 0.1181, -0.0073 -0.0407 0.1181
            ]
        }
        coordIndex [
            0,1,2,-1,3,4,5,-1,6,7,8,-1,9,10,11,-1,11,10,12,-1,13,14,2,-1,2,14,15,-1,2,15,0,-1,8,7,16,-1,17,18,19,-1,20,21,10,-1,10,21,22,-1,10,22,12,-1,12,22,23,-1,24,25,26,-1,26,25,27,-1,26,27,28,-1,28,27,29,-1,28,29,30,-1,30,29,31,-1,30,31,32,-1,32,31,2,-1,32,2,33,-1,34,35,24,-1,24,35,36,-1,24,36,25,-1,9,11,19,-1,19,11,37,-1,19,37,17,-1,38,1,39,-1,39,1,40,-1,39,40,41,-1,42,43,44,-1,44,43,45,-1,44,45,46,-1,46,45,47,-1,46,47,48,-1,49,50,51,-1,51,50,52,-1,51,52,53,-1,53,52,54,-1,53,54,42,-1,42,54,55,-1,42,55,43,-1,7,56,16,-1,16,56,57,-1,16,57,58,-1,58,57,59,-1,58,59,47,-1,47,59,60,-1,47,60,48,-1,23,22,24,-1,24,22,61,-1,24,61,34,-1,62,63,64,-1,64,63,65,-1,64,65,66,-1,66,65,67,-1,66,67,68,-1,68,67,69,-1,68,69,70,-1,70,69,71,-1,70,71,72,-1,38,73,1,-1,1,73,74,-1,1,74,2,-1,2,74,75,-1,2,75,33,-1,4,76,5,-1,5,76,77,-1,5,77,78,-1,78,77,79,-1,78,79,80,-1,80,79,81,-1,80,81,82,-1,82,81,83,-1,82,83,84,-1,84,83,85,-1,84,85,86,-1,86,85,87,-1,86,87,88,-1,88,87,89,-1,88,89,90,-1,90,89,91,-1,90,91,92,-1,92,91,93,-1,92,93,62,-1,62,93,94,-1,62,94,63,-1,95,96,97,-1,97,96,98,-1,97,98,99,-1,99,98,100,-1,99,100,101,-1,101,100,102,-1,101,102,103,-1,103,102,104,-1,103,104,13,-1,13,104,105,-1,13,105,14,-1,8,106,6,-1,6,106,107,-1,6,107,108,-1,108,107,109,-1,108,109,110,-1,110,109,111,-1,110,111,95,-1,95,111,112,-1,95,112,96,-1,18,113,19,-1,19,113,114,-1,19,114,115,-1,115,114,116,-1,115,116,117,-1,117,116,118,-1,117,118,119,-1,119,118,120,-1,119,120,121,-1,121,120,122,-1,121,122,123,-1,123,122,124,-1,123,124,125,-1,125,124,126,-1,125,126,127,-1,127,126,41,-1,127,41,128,-1,128,41,40,-1,3,5,129,-1,129,5,130,-1,129,130,131,-1,131,130,132,-1,131,132,133,-1,133,132,134,-1,133,134,135,-1,135,134,136,-1,135,136,49,-1,49,136,137,-1,49,137,50,-1,138,139,140,-1,141,142,138,-1,138,142,143,-1,138,143,139,-1,71,144,72,-1,72,144,138,-1,72,138,145,-1,145,138,140,-1,146,147,148,-1,147,149,148,-1,148,149,150,-1,148,150,151,-1,141,138,148,-1,148,138,152,-1,148,152,146,-1,88,153,154,-1,88,154,86,-1,86,154,155,-1,86,155,84,-1,155,156,84,-1,84,156,157,-1,84,157,82,-1,157,158,82,-1,82,158,159,-1,82,159,80,-1,80,159,160,-1,80,160,78,-1,78,160,161,-1,78,161,5,-1,5,161,162,-1,5,162,130,-1,130,162,163,-1,130,163,132,-1,132,163,164,-1,132,164,134,-1,164,165,134,-1,134,165,136,-1,165,166,136,-1,136,166,167,-1,136,167,137,-1,137,167,168,-1,137,168,50,-1,50,168,169,-1,50,169,52,-1,170,43,171,-1,171,43,55,-1,171,55,172,-1,172,55,54,-1,172,54,173,-1,173,54,52,-1,173,52,169,-1,43,170,174,-1,43,174,45,-1,45,174,175,-1,45,175,47,-1,47,175,176,-1,47,176,58,-1,58,176,177,-1,58,177,16,-1,16,177,178,-1,16,178,8,-1,8,178,179,-1,8,179,106,-1,106,179,180,-1,106,180,107,-1,107,180,181,-1,107,181,109,-1,182,98,96,-1,109,181,183,-1,109,183,111,-1,111,183,184,-1,111,184,112,-1,184,185,112,-1,112,185,186,-1,112,186,96,-1,96,186,187,-1,96,187,182,-1,98,182,188,-1,98,188,100,-1,100,188,189,-1,100,189,102,-1,102,189,190,-1,102,190,104,-1,104,190,191,-1,104,191,105,-1,105,191,192,-1,105,192,14,-1,14,192,193,-1,14,193,15,-1,15,193,194,-1,15,194,0,-1,194,195,0,-1,0,195,196,-1,0,196,1,-1,1,196,197,-1,1,197,40,-1,40,197,198,-1,40,198,128,-1,198,199,128,-1,128,199,200,-1,128,200,127,-1,127,200,201,-1,127,201,125,-1,202,9,19,-1,125,201,203,-1,125,203,123,-1,123,203,204,-1,123,204,121,-1,204,205,121,-1,121,205,206,-1,121,206,119,-1,119,206,207,-1,119,207,117,-1,117,207,208,-1,117,208,115,-1,115,208,209,-1,115,209,19,-1,19,209,210,-1,19,210,202,-1,10,9,211,-1,211,9,202,-1,20,10,212,-1,212,10,211,-1,21,20,213,-1,213,20,212,-1,22,21,214,-1,214,21,213,-1,22,214,215,-1,22,215,61,-1,61,215,216,-1,61,216,34,-1,34,216,217,-1,34,217,35,-1,35,217,218,-1,35,218,36,-1,36,218,219,-1,36,219,25,-1,25,219,220,-1,25,220,27,-1,27,220,221,-1,27,221,29,-1,29,221,222,-1,29,222,31,-1,31,222,223,-1,31,223,2,-1,2,223,224,-1,2,224,13,-1,13,224,225,-1,13,225,103,-1,103,225,226,-1,103,226,101,-1,101,226,227,-1,101,227,99,-1,99,227,228,-1,99,228,97,-1,228,229,97,-1,97,229,95,-1,229,230,95,-1,95,230,231,-1,95,231,110,-1,110,231,232,-1,110,232,108,-1,232,233,108,-1,108,233,234,-1,108,234,6,-1,6,234,235,-1,6,235,7,-1,7,235,236,-1,7,236,56,-1,56,236,237,-1,56,237,57,-1,57,237,238,-1,57,238,59,-1,59,238,239,-1,59,239,60,-1,60,239,240,-1,60,240,48,-1,48,240,241,-1,48,241,46,-1,46,241,242,-1,46,242,44,-1,44,242,243,-1,44,243,42,-1,42,243,244,-1,42,244,53,-1,53,244,245,-1,53,245,51,-1,246,4,247,-1,247,4,3,-1,247,3,248,-1,248,3,129,-1,248,129,249,-1,249,129,131,-1,249,131,250,-1,250,131,133,-1,250,133,251,-1,251,133,135,-1,251,135,252,-1,252,135,49,-1,252,49,253,-1,253,49,51,-1,253,51,245,-1,76,4,254,-1,254,4,246,-1,76,254,255,-1,76,255,77,-1,77,255,256,-1,77,256,79,-1,79,256,257,-1,79,257,81,-1,81,257,258,-1,81,258,83,-1,83,258,259,-1,83,259,85,-1,259,260,85,-1,85,260,261,-1,85,261,87,-1,87,261,262,-1,87,262,89,-1,89,262,263,-1,89,263,91,-1,91,263,264,-1,91,264,93,-1,93,264,265,-1,93,265,94,-1,94,265,266,-1,94,266,63,-1,63,266,267,-1,63,267,65,-1,65,267,268,-1,65,268,67,-1,67,268,269,-1,67,269,69,-1,71,69,270,-1,270,69,269,-1,71,270,271,-1,71,271,144,-1,144,271,272,-1,144,272,138,-1,138,272,273,-1,138,273,152,-1,152,273,274,-1,152,274,146,-1,146,274,275,-1,146,275,147,-1,147,275,276,-1,147,276,149,-1,149,276,277,-1,149,277,150,-1,150,277,278,-1,150,278,151,-1,151,278,279,-1,151,279,148,-1,148,279,280,-1,148,280,141,-1,141,280,281,-1,141,281,142,-1,142,281,282,-1,142,282,143,-1,143,282,283,-1,143,283,139,-1,139,283,284,-1,139,284,140,-1,140,284,285,-1,140,285,145,-1,145,285,286,-1,145,286,72,-1,72,286,287,-1,72,287,70,-1,68,70,288,-1,288,70,287,-1,68,288,289,-1,68,289,66,-1,66,289,290,-1,66,290,64,-1,64,290,291,-1,64,291,62,-1,62,291,292,-1,62,292,92,-1,92,292,293,-1,92,293,90,-1,90,293,153,-1,90,153,88,-1,23,294,295,-1,23,295,12,-1,12,295,296,-1,12,296,11,-1,11,296,297,-1,11,297,37,-1,37,297,298,-1,37,298,17,-1,17,298,299,-1,17,299,18,-1,18,299,300,-1,18,300,113,-1,113,300,301,-1,113,301,114,-1,114,301,302,-1,114,302,116,-1,116,302,303,-1,116,303,118,-1,118,303,304,-1,118,304,120,-1,120,304,305,-1,120,305,122,-1,122,305,306,-1,122,306,124,-1,124,306,307,-1,124,307,126,-1,126,307,308,-1,126,308,41,-1,41,308,309,-1,41,309,39,-1,39,309,310,-1,39,310,38,-1,38,310,311,-1,38,311,73,-1,73,311,312,-1,73,312,74,-1,74,312,313,-1,74,313,75,-1,75,313,314,-1,75,314,33,-1,33,314,315,-1,33,315,32,-1,32,315,316,-1,32,316,30,-1,30,316,317,-1,30,317,28,-1,28,317,318,-1,28,318,26,-1,26,318,319,-1,26,319,24,-1,24,319,294,-1,24,294,23,-1,
        ]
    }
}
Shape{
    appearance Appearance {
        material  Material 	{
            diffuseColor 0.20784313725490197 0.20784313725490197 0.20784313725490197
            specularColor 0.01568627450980392 0.01568627450980392 0.01568627450980392
            ambientIntensity 0.298
            transparency 0.0
            shininess 0.5
        }
    }
    geometry IndexedFaceSet {
        ccw TRUE
        solid FALSE
        coord DEF co Coordinate {
            point [
                -0.0064 -0.0478 0.1181, -0.0088 -0.0415 0.1181, -0.0093 -0.042 0.1181, -0.0064 -0.0406 0.1181, -0.0058 -0.0407 0.1181, -0.0055 -0.0477 0.1181, -0.0073 -0.0407 0.1181, -0.0081 -0.041 0.1181, -0.004 -0.0469 0.1181, -0.0036 -0.0421 0.1181, -0.0042 -0.0414 0.1181, -0.0098 -0.0454 0.1181, -0.0094 -0.0462 0.1181, -0.0088 -0.0469 0.1181, -0.0047 -0.0474 0.1181, -0.0049 -0.0409 0.1181, -0.0081 -0.0474 0.1181, -0.0073 -0.0477 0.1181, -0.0097 -0.0428 0.1181, -0.01 -0.0437 0.1181, -0.01 -0.0446 0.1181, -0.0031 -0.0454 0.1181, -0.0029 -0.0445 0.1181, -0.0035 -0.0462 0.1181, -0.0029 -0.0436 0.1181, -0.0031 -0.0428 0.1181
            ]
        }
        coordIndex [
            0,1,2,-1,3,0,4,-1,4,0,5,-1,3,6,0,-1,0,6,7,-1,0,7,1,-1,8,9,10,-1,11,12,2,-1,2,12,13,-1,5,14,4,-1,4,14,8,-1,4,8,15,-1,15,8,10,-1,13,16,2,-1,2,16,17,-1,2,17,0,-1,18,19,2,-1,2,19,20,-1,2,20,11,-1,21,22,23,-1,23,22,24,-1,23,24,8,-1,8,24,25,-1,8,25,9,-1,
        ]
    }
}
Shape{
    appearance Appearance {
        material  Material 	{
            diffuseColor 1.0 1.0 1.0
            specularColor 0.8784313725490196 0.8784313725490196 0.8784313725490196
            ambientIntensity 1.0
            transparency 0.0
            shininess 0.5
        }
    }
    geometry IndexedFaceSet {
        ccw TRUE
        solid FALSE
        coord DEF co Coordinate {
            point [
                0.0797 -0.0168 0.122, 0.0811 -0.016 0.122, 0.0794 -0.0164 0.122, 0.0806 -0.0155 0.122, 0.0784 -0.0158 0.122, 0.0793 -0.0146 0.122, 0.0773 -0.0154 0.122, 0.0778 -0.014 0.122, 0.0756 -0.0152 0.122, 0.0757 -0.0137 0.122, 0.0737 -0.0152 0.122, 0.072 -0.0137 0.122, 0.0737 -0.0252 0.122, 0.072 -0.0267 0.122, 0.0756 -0.0252 0.122, 0.0756 -0.0267 0.122, 0.0772 -0.025 0.122, 0.0774 -0.0265 0.122, 0.0783 -0.0246 0.122, 0.079 -0.026 0.122, 0.0792 -0.0241 0.122, 0.0802 -0.0252 0.122, 0.0794 -0.0239 0.122, 0.0806 -0.0249 0.122, 0.08 -0.0231 0.122, 0.0816 -0.0237 0.122, 0.0805 -0.0221 0.122, 0.0822 -0.0224 0.122, 0.0807 -0.0209 0.122, 0.0825 -0.0209 0.122, 0.0808 -0.0201 0.122, 0.0825 -0.02 0.122, 0.0806 -0.0185 0.122, 0.0824 -0.0184 0.122, 0.0802 -0.0175 0.122, 0.0819 -0.0171 0.122, 0.0806 -0.0249 0.1181, 0.0816 -0.0237 0.1181, 0.0822 -0.0224 0.1181, 0.0825 -0.0209 0.1181, 0.0825 -0.02 0.1181, 0.0824 -0.0184 0.1181, 0.0819 -0.0171 0.1181, 0.0811 -0.016 0.1181, 0.0806 -0.0155 0.1181, 0.0793 -0.0146 0.1181, 0.0778 -0.014 0.1181, 0.0757 -0.0137 0.1181, 0.072 -0.0137 0.1181, 0.072 -0.0267 0.1181, 0.0756 -0.0267 0.1181, 0.0774 -0.0265 0.1181, 0.079 -0.026 0.1181, 0.0802 -0.0252 0.1181, 0.0794 -0.0164 0.1181, 0.0797 -0.0168 0.1181, 0.0802 -0.0175 0.1181, 0.0806 -0.0185 0.1181, 0.0808 -0.0201 0.1181, 0.0756 -0.0152 0.1181, 0.0773 -0.0154 0.1181, 0.0784 -0.0158 0.1181, 0.0737 -0.0152 0.1181, 0.0737 -0.0252 0.1181, 0.0756 -0.0252 0.1181, 0.0794 -0.0239 0.1181, 0.0792 -0.0241 0.1181, 0.0783 -0.0246 0.1181, 0.0772 -0.025 0.1181, 0.0807 -0.0209 0.1181, 0.0805 -0.0221 0.1181, 0.08 -0.0231 0.1181
            ]
        }
        coordIndex [
            0,1,2,-1,2,1,3,-1,2,3,4,-1,4,3,5,-1,4,5,6,-1,6,5,7,-1,6,7,8,-1,8,7,9,-1,8,9,10,-1,10,9,11,-1,10,11,12,-1,12,11,13,-1,12,13,14,-1,14,13,15,-1,14,15,16,-1,16,15,17,-1,16,17,18,-1,18,17,19,-1,18,19,20,-1,20,19,21,-1,20,21,22,-1,22,21,23,-1,22,23,24,-1,24,23,25,-1,24,25,26,-1,26,25,27,-1,26,27,28,-1,28,27,29,-1,28,29,30,-1,30,29,31,-1,30,31,32,-1,32,31,33,-1,32,33,34,-1,34,33,35,-1,34,35,0,-1,0,35,1,-1,23,36,37,-1,23,37,25,-1,25,37,38,-1,25,38,27,-1,27,38,39,-1,27,39,29,-1,29,39,40,-1,29,40,31,-1,31,40,41,-1,31,41,33,-1,33,41,42,-1,33,42,35,-1,35,42,43,-1,35,43,1,-1,1,43,44,-1,1,44,3,-1,3,44,45,-1,3,45,5,-1,5,45,46,-1,5,46,7,-1,7,46,47,-1,7,47,9,-1,11,9,48,-1,48,9,47,-1,13,11,49,-1,49,11,48,-1,15,13,50,-1,50,13,49,-1,15,50,51,-1,15,51,17,-1,17,51,52,-1,17,52,19,-1,19,52,53,-1,19,53,21,-1,21,53,36,-1,21,36,23,-1,2,54,55,-1,2,55,0,-1,0,55,56,-1,0,56,34,-1,34,56,57,-1,34,57,32,-1,32,57,58,-1,32,58,30,-1,8,59,60,-1,8,60,6,-1,6,60,61,-1,6,61,4,-1,4,61,54,-1,4,54,2,-1,8,10,59,-1,59,10,62,-1,10,12,62,-1,62,12,63,-1,12,14,63,-1,63,14,64,-1,22,65,66,-1,22,66,20,-1,20,66,67,-1,20,67,18,-1,18,67,68,-1,18,68,16,-1,16,68,64,-1,16,64,14,-1,30,58,69,-1,30,69,28,-1,28,69,70,-1,28,70,26,-1,26,70,71,-1,26,71,24,-1,24,71,65,-1,24,65,22,-1,
        ]
    }
}
Shape{
    appearance Appearance {
        material  Material 	{
            diffuseColor 0.20784313725490197 0.20784313725490197 0.20784313725490197
            specularColor 0.01568627450980392 0.01568627450980392 0.01568627450980392
            ambientIntensity 0.298
            transparency 0.0
            shininess 0.5
        }
    }
    geometry IndexedFaceSet {
        ccw TRUE
        solid FALSE
        coord DEF co Coordinate {
            point [
                0.0737 -0.0152 0.1181, 0.0737 -0.0252 0.1181, 0.0756 -0.0152 0.1181, 0.0756 -0.0252 0.1181, 0.0792 -0.0241 0.1181, 0.0794 -0.0239 0.1181, 0.0772 -0.025 0.1181, 0.0783 -0.0246 0.1181, 0.08 -0.0231 0.1181, 0.0805 -0.0221 0.1181, 0.0807 -0.0209 0.1181, 0.0808 -0.0201 0.1181, 0.0806 -0.0185 0.1181, 0.0802 -0.0175 0.1181, 0.0797 -0.0168 0.1181, 0.0794 -0.0164 0.1181, 0.0773 -0.0154 0.1181, 0.0784 -0.0158 0.1181
            ]
        }
        coordIndex [
            0,1,2,-1,2,1,3,-1,4,5,2,-1,3,6,2,-1,2,6,7,-1,2,7,4,-1,5,8,2,-1,2,8,9,-1,2,9,10,-1,10,11,2,-1,2,11,12,-1,2,12,13,-1,13,14,2,-1,2,14,15,-1,2,15,16,-1,16,15,17,-1,
        ]
    }
}
Shape{
    appearance Appearance {
        material  Material 	{
            diffuseColor 1.0 1.0 1.0
            specularColor 0.8784313725490196 0.8784313725490196 0.8784313725490196
            ambientIntensity 1.0
            transparency 0.0
            shininess 0.5
        }
    }
    geometry IndexedFaceSet {
        ccw TRUE
        solid FALSE
        coord DEF co Coordinate {
            point [
                0.0567 -0.0254 0.122, 0.0567 -0.0254 0.1181, 0.0554 -0.0252 0.1181, 0.0554 -0.0252 0.122, 0.0544 -0.0249 0.1181, 0.0544 -0.0249 0.122, 0.0536 -0.0243 0.1181, 0.0536 -0.0243 0.122, 0.0534 -0.024 0.1181, 0.0534 -0.024 0.122, 0.0527 -0.0232 0.1181, 0.0527 -0.0232 0.122, 0.0523 -0.0221 0.1181, 0.0523 -0.0221 0.122, 0.0521 -0.0208 0.1181, 0.0521 -0.0208 0.122, 0.0521 -0.0204 0.1181, 0.0521 -0.0204 0.122, 0.0523 -0.0187 0.1181, 0.0523 -0.0187 0.122, 0.0527 -0.0175 0.1181, 0.0527 -0.0175 0.122, 0.0533 -0.0166 0.1181, 0.0533 -0.0166 0.122, 0.0534 -0.0165 0.1181, 0.0534 -0.0165 0.122, 0.0543 -0.0157 0.1181, 0.0543 -0.0157 0.122, 0.0554 -0.0153 0.1181, 0.0554 -0.0153 0.122, 0.0565 -0.015 0.1181, 0.0565 -0.015 0.122, 0.057 -0.015 0.1181, 0.057 -0.015 0.122, 0.06 -0.0158 0.1181, 0.06 -0.0158 0.122, 0.0599 -0.0157 0.122, 0.0585 -0.0152 0.1181, 0.0585 -0.0152 0.122, 0.0595 -0.0156 0.1181, 0.0599 -0.0157 0.1181, 0.06 -0.0141 0.122, 0.06 -0.0141 0.1181, 0.057 -0.0135 0.1181, 0.057 -0.0135 0.122, 0.057 -0.0135 0.122, 0.0595 -0.0139 0.1181, 0.0587 -0.0137 0.122, 0.0587 -0.0137 0.1181, 0.0583 -0.0136 0.1181, 0.057 -0.0135 0.1181, 0.0559 -0.0136 0.1181, 0.0553 -0.0137 0.122, 0.0553 -0.0137 0.1181, 0.0539 -0.0142 0.1181, 0.0539 -0.0142 0.122, 0.0526 -0.015 0.1181, 0.0526 -0.015 0.122, 0.0522 -0.0154 0.1181, 0.0522 -0.0154 0.122, 0.0513 -0.0166 0.1181, 0.0513 -0.0166 0.122, 0.0509 -0.0175 0.1181, 0.0507 -0.0181 0.122, 0.0507 -0.0181 0.1181, 0.0504 -0.0197 0.1181, 0.0504 -0.0197 0.122, 0.0503 -0.0205 0.1181, 0.0503 -0.0205 0.122, 0.0505 -0.0223 0.1181, 0.0505 -0.0223 0.122, 0.0509 -0.0234 0.1181, 0.051 -0.0237 0.122, 0.051 -0.0237 0.1181, 0.0517 -0.0248 0.1181, 0.0517 -0.0248 0.122, 0.052 -0.0251 0.1181, 0.052 -0.0251 0.122, 0.0564 -0.0269 0.1181, 0.0564 -0.0269 0.122, 0.0557 -0.0269 0.122, 0.053 -0.026 0.1181, 0.053 -0.026 0.122, 0.0543 -0.0266 0.1181, 0.0543 -0.0266 0.122, 0.0553 -0.0268 0.1181, 0.0557 -0.0269 0.1181, 0.06 -0.0261 0.1181, 0.06 -0.0261 0.122, 0.0598 -0.0263 0.122, 0.0576 -0.0268 0.1181, 0.0584 -0.0267 0.122, 0.0584 -0.0267 0.1181, 0.0595 -0.0264 0.1181, 0.0598 -0.0263 0.1181, 0.06 -0.0245 0.122, 0.06 -0.0245 0.1181, 0.0595 -0.0248 0.1181, 0.0588 -0.0251 0.122, 0.0588 -0.0251 0.1181, 0.0573 -0.0254 0.1181, 0.0573 -0.0254 0.122, 0.1031 -0.0422 0.122, 0.1026 -0.0437 0.122, 0.1074 -0.0422 0.122, 0.1079 -0.0437 0.122, 0.105 -0.0368 0.122, 0.1044 -0.0343 0.122, 0.0995 -0.0472 0.122, 0.1013 -0.0472 0.122, 0.1051 -0.0364 0.122, 0.1052 -0.0359 0.122, 0.1062 -0.0343 0.122, 0.1053 -0.0359 0.122, 0.1054 -0.0365 0.122, 0.1055 -0.0368 0.122, 0.1111 -0.0472 0.122, 0.1093 -0.0472 0.122, 0.1044 -0.0343 0.1181, 0.1062 -0.0343 0.1181, 0.0995 -0.0472 0.1181, 0.1013 -0.0472 0.1181, 0.1026 -0.0437 0.1181, 0.1079 -0.0437 0.1181, 0.1093 -0.0472 0.1181, 0.1111 -0.0472 0.1181, 0.105 -0.0368 0.1181, 0.1051 -0.0364 0.1181, 0.1052 -0.0359 0.1181, 0.1031 -0.0422 0.1181, 0.1074 -0.0422 0.1181, 0.1055 -0.0368 0.1181, 0.1053 -0.0359 0.1181, 0.1054 -0.0365 0.1181
            ]
        }
        coordIndex [
            0,1,2,-1,0,2,3,-1,3,2,4,-1,3,4,5,-1,5,4,6,-1,5,6,7,-1,7,6,8,-1,7,8,9,-1,9,8,10,-1,9,10,11,-1,11,10,12,-1,11,12,13,-1,13,12,14,-1,13,14,15,-1,15,14,16,-1,15,16,17,-1,17,16,18,-1,17,18,19,-1,19,18,20,-1,19,20,21,-1,21,20,22,-1,21,22,23,-1,23,22,24,-1,23,24,25,-1,25,24,26,-1,25,26,27,-1,27,26,28,-1,27,28,29,-1,29,28,30,-1,29,30,31,-1,31,30,32,-1,31,32,33,-1,34,35,36,-1,33,32,37,-1,33,37,38,-1,38,37,39,-1,38,39,36,-1,36,39,40,-1,36,40,34,-1,41,35,42,-1,42,35,34,-1,43,44,45,-1,41,42,46,-1,41,46,47,-1,46,48,47,-1,47,48,49,-1,47,49,45,-1,45,49,50,-1,45,50,43,-1,43,51,44,-1,44,51,52,-1,51,53,52,-1,52,53,54,-1,52,54,55,-1,55,54,56,-1,55,56,57,-1,57,56,58,-1,57,58,59,-1,59,58,60,-1,59,60,61,-1,61,60,62,-1,61,62,63,-1,62,64,63,-1,63,64,65,-1,63,65,66,-1,66,65,67,-1,66,67,68,-1,68,67,69,-1,68,69,70,-1,70,69,71,-1,70,71,72,-1,71,73,72,-1,72,73,74,-1,72,74,75,-1,75,74,76,-1,75,76,77,-1,78,79,80,-1,77,76,81,-1,77,81,82,-1,82,81,83,-1,82,83,84,-1,84,83,85,-1,84,85,80,-1,80,85,86,-1,80,86,78,-1,87,88,89,-1,78,90,79,-1,79,90,91,-1,90,92,91,-1,91,92,93,-1,91,93,89,-1,89,93,94,-1,89,94,87,-1,95,88,96,-1,96,88,87,-1,95,96,97,-1,95,97,98,-1,97,99,98,-1,98,99,100,-1,98,100,101,-1,101,100,1,-1,101,1,0,-1,36,35,41,-1,88,95,89,-1,89,95,98,-1,89,98,91,-1,91,98,101,-1,91,101,79,-1,79,101,0,-1,79,0,80,-1,80,0,3,-1,80,3,84,-1,77,9,75,-1,75,9,11,-1,75,11,72,-1,36,41,38,-1,38,41,47,-1,38,47,33,-1,33,47,45,-1,33,45,31,-1,31,45,44,-1,31,44,29,-1,29,44,52,-1,29,52,27,-1,84,3,82,-1,82,3,5,-1,82,5,77,-1,77,5,7,-1,77,7,9,-1,68,17,66,-1,66,17,19,-1,66,19,63,-1,59,25,57,-1,57,25,27,-1,57,27,55,-1,55,27,52,-1,72,11,70,-1,70,11,13,-1,70,13,68,-1,68,13,15,-1,68,15,17,-1,63,19,61,-1,61,19,21,-1,61,21,59,-1,59,21,23,-1,59,23,25,-1,102,103,104,-1,104,103,105,-1,106,107,102,-1,102,107,108,-1,102,108,103,-1,103,108,109,-1,106,110,107,-1,107,110,111,-1,107,111,112,-1,112,111,113,-1,112,113,114,-1,114,115,112,-1,112,115,104,-1,112,104,116,-1,116,104,105,-1,116,105,117,-1,107,112,118,-1,118,112,119,-1,108,107,120,-1,120,107,118,-1,109,108,121,-1,121,108,120,-1,103,109,122,-1,122,109,121,-1,105,103,123,-1,123,103,122,-1,117,105,124,-1,124,105,123,-1,116,117,125,-1,125,117,124,-1,112,116,119,-1,119,116,125,-1,106,126,127,-1,106,127,110,-1,110,127,128,-1,110,128,111,-1,106,102,126,-1,126,102,129,-1,102,104,129,-1,129,104,130,-1,104,115,130,-1,130,115,131,-1,113,132,133,-1,113,133,114,-1,114,133,131,-1,114,131,115,-1,113,111,132,-1,132,111,128,-1,
        ]
    }
}
Shape{
    appearance Appearance {
        material  Material 	{
            diffuseColor 0.20784313725490197 0.20784313725490197 0.20784313725490197
            specularColor 0.01568627450980392 0.01568627450980392 0.01568627450980392
            ambientIntensity 0.298
            transparency 0.0
            shininess 0.5
        }
    }
    geometry IndexedFaceSet {
        ccw TRUE
        solid FALSE
        coord DEF co Coordinate {
            point [
                0.1053 -0.0359 0.1181, 0.1052 -0.0359 0.1181, 0.1054 -0.0365 0.1181, 0.1051 -0.0364 0.1181, 0.1055 -0.0368 0.1181, 0.105 -0.0368 0.1181, 0.1074 -0.0422 0.1181, 0.1031 -0.0422 0.1181
            ]
        }
        coordIndex [
            0,1,2,-1,2,1,3,-1,2,3,4,-1,4,3,5,-1,4,5,6,-1,6,5,7,-1,
        ]
    }
}
Shape{
    appearance Appearance {
        material  Material 	{
            diffuseColor 1.0 1.0 1.0
            specularColor 0.8784313725490196 0.8784313725490196 0.8784313725490196
            ambientIntensity 1.0
            transparency 0.0
            shininess 0.5
        }
    }
    geometry IndexedFaceSet {
        ccw TRUE
        solid FALSE
        coord DEF co Coordinate {
            point [
                0.0858 -0.0457 0.122, 0.0858 -0.0457 0.1181, 0.0805 -0.0457 0.122, 0.0829 -0.0457 0.1181, 0.0805 -0.0457 0.1181, 0.0805 -0.0414 0.122, 0.0805 -0.0414 0.1181, 0.0851 -0.0414 0.1181, 0.0851 -0.0414 0.122, 0.0829 -0.0414 0.1181, 0.0851 -0.0399 0.122, 0.0851 -0.0399 0.1181, 0.0805 -0.0399 0.1181, 0.0805 -0.0399 0.122, 0.0829 -0.0399 0.1181, 0.0805 -0.0358 0.122, 0.0805 -0.0358 0.1181, 0.0855 -0.0358 0.1181, 0.0855 -0.0358 0.122, 0.0829 -0.0358 0.1181, 0.0855 -0.0343 0.122, 0.0855 -0.0343 0.1181, 0.0788 -0.0343 0.1181, 0.0788 -0.0343 0.122, 0.0829 -0.0343 0.1181, 0.0788 -0.0472 0.122, 0.0788 -0.0472 0.1181, 0.0858 -0.0472 0.122, 0.0829 -0.0472 0.1181, 0.0858 -0.0472 0.1181, 0.0447 -0.0457 0.122, 0.0499 -0.0457 0.122, 0.0447 -0.0457 0.1181, 0.0499 -0.0457 0.1181, 0.0447 -0.0414 0.122, 0.0447 -0.0414 0.1181, 0.0493 -0.0414 0.122, 0.0493 -0.0414 0.1181, 0.0493 -0.0399 0.122, 0.0493 -0.0399 0.1181, 0.0447 -0.0399 0.122, 0.0447 -0.0399 0.1181, 0.0447 -0.0358 0.122, 0.0447 -0.0358 0.1181, 0.0496 -0.0358 0.122, 0.0496 -0.0358 0.1181, 0.0496 -0.0343 0.122, 0.0496 -0.0343 0.1181, 0.043 -0.0343 0.122, 0.043 -0.0343 0.1181, 0.043 -0.0472 0.122, 0.043 -0.0472 0.1181, 0.0499 -0.0472 0.122, 0.0499 -0.0472 0.1181, 0.0869 -0.0217 0.122, 0.0864 -0.0231 0.122, 0.0912 -0.0217 0.122, 0.0917 -0.0231 0.122, 0.0888 -0.0163 0.122, 0.0882 -0.0137 0.122, 0.0833 -0.0267 0.122, 0.0851 -0.0267 0.122, 0.0889 -0.0159 0.122, 0.089 -0.0154 0.122, 0.09 -0.0137 0.122, 0.0891 -0.0154 0.122, 0.0892 -0.0159 0.122, 0.0893 -0.0163 0.122, 0.0949 -0.0267 0.122, 0.0931 -0.0267 0.122, 0.0882 -0.0137 0.1181, 0.09 -0.0137 0.1181, 0.0833 -0.0267 0.1181, 0.087 -0.0169 0.1181, 0.0851 -0.0267 0.1181, 0.0864 -0.0231 0.1181, 0.0917 -0.0231 0.1181, 0.087 -0.0231 0.1181, 0.0931 -0.0267 0.1181, 0.0949 -0.0267 0.1181, 0.0888 -0.0163 0.1181, 0.0889 -0.0159 0.1181, 0.089 -0.0154 0.1181, 0.0869 -0.0217 0.1181, 0.0912 -0.0217 0.1181, 0.0893 -0.0163 0.1181, 0.0891 -0.0154 0.1181, 0.0892 -0.0159 0.1181
            ]
        }
        coordIndex [
            0,1,2,-1,2,1,3,-1,2,3,4,-1,5,2,6,-1,6,2,4,-1,7,8,9,-1,9,8,5,-1,9,5,6,-1,10,8,11,-1,11,8,7,-1,12,13,14,-1,14,13,10,-1,14,10,11,-1,15,13,16,-1,16,13,12,-1,17,18,19,-1,19,18,15,-1,19,15,16,-1,20,18,21,-1,21,18,17,-1,22,23,24,-1,24,23,20,-1,24,20,21,-1,25,23,26,-1,26,23,22,-1,25,26,27,-1,27,26,28,-1,27,28,29,-1,0,27,1,-1,1,27,29,-1,25,27,0,-1,0,2,25,-1,25,2,5,-1,25,5,23,-1,18,20,15,-1,15,20,23,-1,15,23,13,-1,13,23,5,-1,13,5,10,-1,10,5,8,-1,30,31,32,-1,32,31,33,-1,34,30,35,-1,35,30,32,-1,36,34,37,-1,37,34,35,-1,38,36,39,-1,39,36,37,-1,40,38,41,-1,41,38,39,-1,42,40,43,-1,43,40,41,-1,44,42,45,-1,45,42,43,-1,46,44,47,-1,47,44,45,-1,48,46,49,-1,49,46,47,-1,50,48,51,-1,51,48,49,-1,52,50,53,-1,53,50,51,-1,31,52,33,-1,33,52,53,-1,50,52,31,-1,31,30,50,-1,50,30,34,-1,50,34,48,-1,44,46,42,-1,42,46,48,-1,42,48,40,-1,40,48,34,-1,40,34,38,-1,38,34,36,-1,54,55,56,-1,56,55,57,-1,58,59,54,-1,54,59,60,-1,54,60,55,-1,55,60,61,-1,58,62,59,-1,59,62,63,-1,59,63,64,-1,64,63,65,-1,64,65,66,-1,66,67,64,-1,64,67,56,-1,64,56,68,-1,68,56,57,-1,68,57,69,-1,59,64,70,-1,70,64,71,-1,72,60,73,-1,73,60,59,-1,73,59,70,-1,61,60,74,-1,74,60,72,-1,55,61,75,-1,75,61,74,-1,76,57,77,-1,77,57,55,-1,77,55,75,-1,69,57,78,-1,78,57,76,-1,68,69,79,-1,79,69,78,-1,64,68,71,-1,71,68,79,-1,58,80,81,-1,58,81,62,-1,62,81,82,-1,62,82,63,-1,58,54,80,-1,80,54,83,-1,54,56,83,-1,83,56,84,-1,56,67,84,-1,84,67,85,-1,65,86,87,-1,65,87,66,-1,66,87,85,-1,66,85,67,-1,65,63,86,-1,86,63,82,-1,
        ]
    }
}
Shape{
    appearance Appearance {
        material  Material 	{
            diffuseColor 0.20784313725490197 0.20784313725490197 0.20784313725490197
            specularColor 0.01568627450980392 0.01568627450980392 0.01568627450980392
            ambientIntensity 0.298
            transparency 0.0
            shininess 0.5
        }
    }
    geometry IndexedFaceSet {
        ccw TRUE
        solid FALSE
        coord DEF co Coordinate {
            point [
                0.0891 -0.0154 0.1181, 0.089 -0.0154 0.1181, 0.0892 -0.0159 0.1181, 0.0889 -0.0159 0.1181, 0.0893 -0.0163 0.1181, 0.0888 -0.0163 0.1181, 0.0912 -0.0217 0.1181, 0.0869 -0.0217 0.1181
            ]
        }
        coordIndex [
            0,1,2,-1,2,1,3,-1,2,3,4,-1,4,3,5,-1,4,5,6,-1,6,5,7,-1,
        ]
    }
}
Shape{
    appearance Appearance {
        material  Material 	{
            diffuseColor 1.0 1.0 1.0
            specularColor 0.8784313725490196 0.8784313725490196 0.8784313725490196
            ambientIntensity 1.0
            transparency 0.0
            shininess 0.5
        }
    }
    geometry IndexedFaceSet {
        ccw TRUE
        solid FALSE
        coord DEF co Coordinate {
            point [
                0.0643 -0.0252 0.1181, 0.0643 -0.0252 0.122, 0.0678 -0.0252 0.1181, 0.0696 -0.0252 0.122, 0.0696 -0.0252 0.1181, 0.0643 -0.0209 0.122, 0.0643 -0.0209 0.1181, 0.0689 -0.0209 0.1181, 0.0689 -0.0209 0.122, 0.0678 -0.0209 0.1181, 0.0689 -0.0194 0.122, 0.0689 -0.0194 0.1181, 0.0643 -0.0194 0.1181, 0.0643 -0.0194 0.122, 0.0678 -0.0194 0.1181, 0.0643 -0.0152 0.122, 0.0643 -0.0152 0.1181, 0.0693 -0.0152 0.1181, 0.0693 -0.0152 0.122, 0.0678 -0.0152 0.1181, 0.0693 -0.0137 0.122, 0.0693 -0.0137 0.1181, 0.0626 -0.0137 0.1181, 0.0626 -0.0137 0.122, 0.0678 -0.0137 0.1181, 0.0626 -0.0267 0.122, 0.0626 -0.0267 0.1181, 0.0696 -0.0267 0.1181, 0.0696 -0.0267 0.122, 0.0678 -0.0267 0.1181, 0.0447 -0.0252 0.122, 0.0498 -0.0252 0.122, 0.0447 -0.0252 0.1181, 0.0498 -0.0252 0.1181, 0.0447 -0.0137 0.122, 0.0447 -0.0137 0.1181, 0.043 -0.0137 0.122, 0.043 -0.0137 0.1181, 0.043 -0.0267 0.122, 0.043 -0.0267 0.1181, 0.0498 -0.0267 0.122, 0.0498 -0.0267 0.1181
            ]
        }
        coordIndex [
            0,1,2,-1,2,1,3,-1,2,3,4,-1,5,1,6,-1,6,1,0,-1,7,8,9,-1,9,8,5,-1,9,5,6,-1,10,8,11,-1,11,8,7,-1,12,13,14,-1,14,13,10,-1,14,10,11,-1,15,13,16,-1,16,13,12,-1,17,18,19,-1,19,18,15,-1,19,15,16,-1,20,18,21,-1,21,18,17,-1,22,23,24,-1,24,23,20,-1,24,20,21,-1,25,23,26,-1,26,23,22,-1,27,28,29,-1,29,28,25,-1,29,25,26,-1,3,28,4,-1,4,28,27,-1,25,28,3,-1,3,1,25,-1,25,1,5,-1,25,5,23,-1,18,20,15,-1,15,20,23,-1,15,23,13,-1,13,23,5,-1,13,5,10,-1,10,5,8,-1,30,31,32,-1,32,31,33,-1,34,30,35,-1,35,30,32,-1,36,34,37,-1,37,34,35,-1,38,36,39,-1,39,36,37,-1,40,38,41,-1,41,38,39,-1,31,40,33,-1,33,40,41,-1,34,36,30,-1,30,36,38,-1,30,38,31,-1,31,38,40,-1,
        ]
    }
}