#VRML V2.0 utf8
# 3D model generated by easyeda2kicad.py (https://github.com/uPesy/easyeda2kicad.py)

Shape{
    appearance Appearance {
        material  Material 	{
            diffuseColor 1.0 1.0 1.0
            specularColor 0.5019607843137255 0.5019607843137255 0.5019607843137255
            ambientIntensity 1.0
            transparency 0.0
            shininess 0.5
        }
    }
    geometry IndexedFaceSet {
        ccw TRUE
        solid FALSE
        coord DEF co Coordinate {
            point [
                0.0984 -0.2382 0.0039, 0.0787 -0.2382 0.0039, 0.0787 -0.0297 0.0039, 0.0984 0.2382 0.0039, 0.0984 0.2559 0.0039, 0.2212 0.2559 0.0039, 0.1549 -0.0294 0.0039, 0.1636 -0.0294 0.0039, 0.2212 -0.0297 0.0039, 0.1708 -0.0132 0.0039, 0.1742 -0.0185 0.0039, 0.1791 -0.0231 0.0039, 0.1853 -0.0267 0.0039, 0.1413 0.0297 0.0039, 0.0787 0.2382 0.0039, 0.1333 0.0297 0.0039, 0.1103 -0.0294 0.0039, 0.1189 -0.0294 0.0039, 0.2154 0.0297 0.0039, 0.1988 0.0297 0.0039, 0.1902 0.0288 0.0039, 0.1727 0.0174 0.0039, 0.1699 0.0123 0.0039, 0.2154 -0.0294 0.0039, 0.1994 -0.0294 0.0039, 0.1921 -0.0287 0.0039, 0.1833 0.0263 0.0039, 0.1769 0.022 0.0039, 0.1768 0.022 0.0039, 0.1683 0.0065 0.0039, 0.1679 0.0009 0.0039, 0.1687 -0.007 0.0039, 0.2212 -0.2559 0.0039, 0.0984 -0.2559 0.0039, 0.1493 -0.0128 0.0039, 0.1249 -0.0128 0.0039, 0.2824 -0.0297 0.0039, 0.2848 -0.0301 0.0039, 0.374 -0.2382 0.0039, 0.3937 -0.0297 0.0039, 0.3937 -0.2382 0.0039, 0.2899 -0.0297 0.0039, 0.2864 -0.0301 0.0039, 0.227 -0.0229 0.0039, 0.227 -0.0294 0.0039, 0.2586 -0.0294 0.0039, 0.2284 0.0297 0.0039, 0.2284 0.0232 0.0039, 0.2702 -0.0263 0.0039, 0.2702 -0.0198 0.0039, 0.2586 0.0297 0.0039, 0.374 -0.2559 0.0039, 0.2765 -0.0289 0.0039, 0.374 0.2559 0.0039, 0.374 0.2382 0.0039, 0.2298 -0.0027 0.0039, 0.2507 -0.0027 0.0039, 0.2507 -0.0229 0.0039, 0.2298 0.0038 0.0039, 0.2507 0.0038 0.0039, 0.2507 0.0232 0.0039, 0.311 0.0141 0.0039, 0.3075 0.0197 0.0039, 0.3415 0.0297 0.0039, 0.3022 0.0248 0.0039, 0.2898 0.0233 0.0039, 0.2942 0.0217 0.0039, 0.2712 -0.0204 0.0039, 0.2983 0.0189 0.0039, 0.3019 0.015 0.0039, 0.3062 -0.0005 0.0039, 0.3056 -0.0069 0.0039, 0.304 -0.0119 0.0039, 0.2908 -0.023 0.0039, 0.2853 -0.0236 0.0039, 0.2951 -0.0214 0.0039, 0.2988 -0.019 0.0039, 0.3015 -0.016 0.0039, 0.2775 -0.0227 0.0039, 0.2841 0.0304 0.0039, 0.277 0.0299 0.0039, 0.2702 0.0281 0.0039, 0.2702 0.0201 0.0039, 0.2768 0.023 0.0039, 0.284 0.0239 0.0039, 0.3043 0.0104 0.0039, 0.3059 0.0041 0.0039, 0.2994 -0.0274 0.0039, 0.3042 -0.0243 0.0039, 0.3191 -0.0294 0.0039, 0.3086 -0.0197 0.0039, 0.3191 -0.0229 0.0039, 0.3117 -0.014 0.0039, 0.3415 -0.0229 0.0039, 0.2966 0.028 0.0039, 0.29 0.0299 0.0039, 0.3937 0.2382 0.0039, 0.3494 0.0297 0.0039, 0.3494 -0.0294 0.0039, 0.2937 -0.0293 0.0039, 0.3135 -0.0078 0.0039, 0.3141 -0.001 0.0039, 0.3132 0.0074 0.0039, 0.5709 0.2559 0.1614, 0.6299 0.2559 0.1614, 0.5709 0.2559 0.0039, 0.6299 0.2559 0.0039, 0.5709 -0.2559 0.0039, 0.6299 -0.2559 0.0039, 0.5709 -0.2559 0.1614, 0.6299 -0.2559 0.1614, 0.5709 -0.2382 0.0039, 0.5709 0.2382 0.0039, 0.5512 0.2382 0.0039, 0.5512 -0.2382 0.0039, 0.374 0.2559 0.1614, 0.0984 0.2559 0.1614, 0.374 -0.2559 0.1614, 0.0984 -0.2559 0.1614, -0.0984 0.2559 0.0039, -0.374 0.2559 0.0039, -0.0984 0.2559 0.1614, -0.374 0.2559 0.1614, -0.0984 -0.2559 0.1614, -0.374 -0.2559 0.1614, -0.0984 -0.2559 0.0039, -0.374 -0.2559 0.0039, -0.0787 0.2382 0.0039, -0.0787 -0.2382 0.0039, -0.0984 -0.2382 0.0039, -0.374 -0.2382 0.0039, -0.0984 0.2382 0.0039, -0.374 0.2382 0.0039, -0.3937 -0.2382 0.0039, -0.3937 0.2382 0.0039, -0.5709 0.2559 0.0039, -0.6299 0.2559 0.0039, -0.5709 0.2559 0.1614, -0.6299 0.2559 0.1614, -0.6299 -0.2559 0.1614, -0.6299 -0.2559 0.0039, -0.5709 -0.2559 0.1614, -0.5709 -0.2559 0.0039, 0.5709 0.2382 0.1614, 0.374 0.2382 0.1614, 0.5512 0.2362 0.1614, 0.0984 -0.2382 0.1614, 0.374 -0.2382 0.1614, 0.5709 -0.2382 0.1614, 0.588 -0.2233 0.1614, 0.5768 -0.2304 0.1614, 0.6102 -0.1772 0.1614, 0.6088 -0.1903 0.1614, 0.6044 -0.2028 0.1614, 0.5974 -0.214 0.1614, 0.5974 0.214 0.1614, 0.6044 0.2028 0.1614, -0.374 -0.2382 0.1614, 0.5643 -0.2347 0.1614, 0.5512 -0.2362 0.1614, 0.6088 0.1903 0.1614, 0.6102 0.1772 0.1614, -0.0984 0.2382 0.1614, -0.374 0.2382 0.1614, -0.5512 -0.2362 0.1614, -0.0984 -0.2382 0.1614, 0.5643 0.2347 0.1614, 0.5768 0.2304 0.1614, 0.588 0.2233 0.1614, -0.588 0.2233 0.1614, -0.5768 0.2304 0.1614, -0.5709 0.2382 0.1614, -0.5643 0.2347 0.1614, -0.5512 0.2362 0.1614, -0.5709 -0.2382 0.1614, -0.588 -0.2233 0.1614, -0.5768 -0.2304 0.1614, -0.5643 -0.2347 0.1614, -0.5974 -0.214 0.1614, -0.6044 -0.2028 0.1614, -0.6088 -0.1903 0.1614, 0.0984 0.2382 0.1614, -0.5974 0.214 0.1614, -0.6044 0.2028 0.1614, -0.6102 -0.1772 0.1614, -0.6102 0.1772 0.1614, -0.6088 0.1903 0.1614, -0.5709 0.2382 0.0039, -0.5709 -0.2382 0.0039, -0.5512 -0.2382 0.0039, -0.5512 0.2382 0.0039
            ]
        }
        coordIndex [
            0,1,2,-1,3,4,5,-1,6,7,8,-1,9,10,7,-1,7,10,11,-1,7,11,12,-1,3,13,14,-1,14,13,15,-1,14,15,2,-1,2,15,16,-1,2,16,17,-1,5,18,3,-1,3,18,19,-1,3,19,20,-1,13,21,22,-1,23,8,24,-1,24,8,7,-1,24,7,25,-1,25,7,12,-1,20,26,3,-1,3,26,27,-1,3,27,13,-1,13,27,28,-1,13,28,21,-1,22,29,13,-1,13,29,30,-1,13,30,7,-1,7,30,31,-1,7,31,9,-1,8,32,33,-1,33,0,8,-1,8,0,2,-1,8,2,6,-1,6,2,17,-1,6,17,34,-1,34,17,35,-1,36,37,38,-1,39,40,41,-1,41,40,38,-1,41,38,42,-1,42,38,37,-1,43,44,8,-1,8,44,45,-1,46,47,8,-1,48,45,49,-1,49,45,50,-1,51,32,38,-1,38,32,8,-1,38,8,36,-1,36,8,45,-1,36,45,52,-1,52,45,48,-1,5,53,54,-1,55,56,57,-1,23,18,8,-1,8,18,5,-1,8,5,46,-1,46,5,54,-1,46,54,50,-1,57,43,55,-1,55,43,8,-1,55,8,58,-1,58,8,47,-1,58,47,59,-1,59,47,60,-1,61,62,63,-1,63,62,64,-1,65,66,67,-1,67,66,68,-1,67,68,69,-1,70,71,67,-1,67,71,72,-1,73,74,75,-1,75,74,76,-1,72,77,67,-1,67,77,76,-1,67,76,78,-1,78,76,74,-1,79,80,54,-1,54,80,81,-1,54,81,50,-1,50,81,82,-1,50,82,49,-1,49,82,83,-1,49,83,67,-1,67,83,84,-1,67,84,65,-1,69,85,67,-1,67,85,86,-1,67,86,70,-1,87,88,89,-1,89,88,90,-1,89,90,91,-1,91,90,92,-1,91,92,93,-1,64,94,63,-1,63,94,95,-1,63,95,79,-1,79,54,63,-1,63,54,96,-1,63,96,97,-1,97,96,39,-1,97,39,98,-1,98,39,41,-1,98,41,89,-1,89,41,99,-1,89,99,87,-1,92,100,93,-1,93,100,101,-1,93,101,63,-1,63,101,102,-1,63,102,61,-1,103,104,105,-1,105,104,106,-1,107,108,109,-1,109,108,110,-1,106,108,111,-1,111,108,107,-1,105,106,112,-1,112,106,111,-1,112,111,113,-1,113,111,114,-1,115,53,116,-1,116,53,5,-1,116,5,4,-1,51,117,32,-1,32,117,118,-1,32,118,33,-1,119,120,121,-1,121,120,122,-1,123,124,125,-1,125,124,126,-1,127,128,129,-1,125,126,129,-1,129,126,130,-1,129,130,127,-1,127,130,131,-1,120,119,132,-1,132,119,131,-1,131,130,132,-1,132,130,133,-1,132,133,134,-1,104,110,106,-1,106,110,108,-1,135,136,137,-1,137,136,138,-1,139,138,140,-1,140,138,136,-1,141,139,142,-1,142,139,140,-1,143,144,145,-1,104,103,143,-1,118,117,146,-1,146,117,147,-1,148,149,150,-1,104,151,110,-1,110,151,152,-1,110,152,153,-1,148,109,149,-1,149,109,110,-1,149,110,154,-1,154,110,153,-1,155,156,104,-1,157,124,123,-1,150,158,148,-1,148,158,159,-1,148,159,147,-1,156,160,104,-1,104,160,161,-1,104,161,151,-1,121,122,162,-1,162,122,163,-1,147,159,146,-1,146,159,164,-1,146,164,165,-1,145,166,143,-1,143,166,167,-1,143,167,104,-1,104,167,168,-1,104,168,155,-1,169,170,171,-1,171,170,172,-1,171,172,173,-1,123,165,157,-1,157,165,164,-1,157,164,174,-1,139,141,174,-1,175,139,176,-1,176,139,174,-1,176,174,177,-1,177,174,164,-1,175,178,139,-1,139,178,179,-1,139,179,180,-1,115,116,144,-1,144,116,181,-1,144,181,145,-1,145,181,162,-1,145,162,173,-1,173,162,163,-1,173,163,171,-1,171,137,169,-1,169,137,138,-1,169,138,182,-1,182,138,183,-1,180,184,139,-1,139,184,185,-1,139,185,138,-1,138,185,186,-1,138,186,183,-1,140,136,187,-1,187,136,135,-1,142,140,188,-1,188,140,187,-1,188,187,189,-1,189,187,190,-1,
        ]
    }
}
Shape{
    appearance Appearance {
        material  Material 	{
            diffuseColor 0.7529411764705882 0.7529411764705882 0.7529411764705882
            specularColor 0.3764705882352941 0.3764705882352941 0.3764705882352941
            ambientIntensity 0.7529
            transparency 0.0
            shininess 0.5
        }
    }
    geometry IndexedFaceSet {
        ccw TRUE
        solid FALSE
        coord DEF co Coordinate {
            point [
                0.5906 0.1772 0.1811, 0.5906 0.1772 0.2402, 0.5906 -0.1772 0.1811, 0.5906 -0.1772 0.2402, -0.5512 0.2165 0.1811, -0.5512 0.2165 0.2402, 0.5512 0.2165 0.1811, 0.5512 0.2165 0.2402, -0.5906 -0.1772 0.1811, -0.5906 -0.1772 0.2402, -0.5906 0.1772 0.1811, -0.5906 0.1772 0.2402, 0.5512 -0.2165 0.1811, 0.5512 -0.2165 0.2402, -0.5512 -0.2165 0.1811, -0.5512 -0.2165 0.2402, -0.5512 0.1772 0.2795, -0.4527 0.0368 0.2795, -0.3091 0.0368 0.2795, -0.4527 -0.0368 0.2795, -0.5512 -0.1772 0.2795, -0.3091 -0.0368 0.2795, 0.5512 -0.1772 0.2795, 0.5512 0.1772 0.2795, -0.5599 0.2155 0.1811, -0.5614 0.2152 0.2402, -0.5613 0.2151 0.1811, -0.5683 0.2126 0.1811, -0.5709 0.2113 0.2402, -0.5707 0.2111 0.1811, -0.5757 0.2079 0.1811, -0.579 0.205 0.2402, -0.5788 0.2048 0.1811, -0.582 0.2017 0.1811, -0.5853 0.1969 0.2402, -0.5851 0.1967 0.1811, -0.5867 0.1942 0.1811, -0.5892 0.1874 0.2402, -0.5896 0.1859 0.1811, -0.5891 0.1873 0.1811, 0.5512 0.1874 0.2782, -0.5512 0.1874 0.2782, 0.5512 0.1969 0.2743, -0.5512 0.1969 0.2743, 0.5512 0.205 0.268, -0.5512 0.205 0.268, 0.5512 0.2113 0.2598, -0.5512 0.2113 0.2598, 0.5512 0.2152 0.2503, -0.5512 0.2152 0.2503, 0.5896 0.1859 0.1811, 0.5892 0.1874 0.2402, 0.5891 0.1873 0.1811, 0.5867 0.1942 0.1811, 0.5853 0.1969 0.2402, 0.5851 0.1967 0.1811, 0.582 0.2017 0.1811, 0.579 0.205 0.2402, 0.5788 0.2048 0.1811, 0.5757 0.2079 0.1811, 0.5709 0.2113 0.2402, 0.5707 0.2111 0.1811, 0.5683 0.2126 0.1811, 0.5614 0.2152 0.2402, 0.5599 0.2155 0.1811, 0.5613 0.2151 0.1811, -0.5892 0.1772 0.2503, -0.5879 0.187 0.2503, -0.5682 0.187 0.2743, -0.56 0.1823 0.2782, -0.5584 0.1844 0.2782, -0.5538 0.187 0.2782, -0.561 0.1798 0.2782, -0.5702 0.1823 0.2743, -0.5781 0.1844 0.268, -0.5614 0.1772 0.2782, -0.5651 0.1911 0.2743, -0.5563 0.186 0.2782, -0.561 0.1942 0.2743, -0.5563 0.1962 0.2743, -0.5709 0.1772 0.2743, -0.579 0.1772 0.268, -0.5853 0.1772 0.2598, -0.5753 0.1911 0.268, -0.5709 0.1969 0.268, -0.5651 0.2013 0.268, -0.5584 0.2041 0.268, -0.5841 0.186 0.2598, -0.5807 0.1942 0.2598, -0.5753 0.2013 0.2598, -0.5682 0.2067 0.2598, -0.56 0.2101 0.2598, -0.5841 0.1962 0.2503, -0.5781 0.2041 0.2503, -0.5702 0.2101 0.2503, -0.561 0.2139 0.2503, 0.561 0.2139 0.2503, 0.561 0.1942 0.2743, 0.5563 0.186 0.2782, 0.5584 0.1844 0.2782, 0.5614 0.1772 0.2782, 0.561 0.1798 0.2782, 0.5538 0.187 0.2782, 0.5563 0.1962 0.2743, 0.5584 0.2041 0.268, 0.5651 0.1911 0.2743, 0.56 0.1823 0.2782, 0.5682 0.187 0.2743, 0.5702 0.1823 0.2743, 0.5709 0.1772 0.2743, 0.5651 0.2013 0.268, 0.5709 0.1969 0.268, 0.5753 0.1911 0.268, 0.5781 0.1844 0.268, 0.579 0.1772 0.268, 0.56 0.2101 0.2598, 0.5682 0.2067 0.2598, 0.5753 0.2013 0.2598, 0.5807 0.1942 0.2598, 0.5841 0.186 0.2598, 0.5853 0.1772 0.2598, 0.5702 0.2101 0.2503, 0.5781 0.2041 0.2503, 0.5841 0.1962 0.2503, 0.5879 0.187 0.2503, 0.5892 0.1772 0.2503, -0.5896 -0.1859 0.1811, -0.5892 -0.1874 0.2402, -0.5891 -0.1873 0.1811, -0.5867 -0.1942 0.1811, -0.5853 -0.1969 0.2402, -0.5851 -0.1967 0.1811, -0.582 -0.2017 0.1811, -0.579 -0.205 0.2402, -0.5788 -0.2048 0.1811, -0.5757 -0.2079 0.1811, -0.5709 -0.2113 0.2402, -0.5707 -0.2111 0.1811, -0.5683 -0.2126 0.1811, -0.5614 -0.2152 0.2402, -0.5599 -0.2155 0.1811, -0.5613 -0.2151 0.1811, -0.5614 -0.1772 0.2782, -0.5709 -0.1772 0.2743, -0.579 -0.1772 0.268, -0.5853 -0.1772 0.2598, -0.5892 -0.1772 0.2503, 0.5614 -0.1772 0.2782, 0.5709 -0.1772 0.2743, 0.579 -0.1772 0.268, 0.5853 -0.1772 0.2598, 0.5892 -0.1772 0.2503, 0.5599 -0.2155 0.1811, 0.5614 -0.2152 0.2402, 0.5613 -0.2151 0.1811, 0.5683 -0.2126 0.1811, 0.5709 -0.2113 0.2402, 0.5707 -0.2111 0.1811, 0.5757 -0.2079 0.1811, 0.579 -0.205 0.2402, 0.5788 -0.2048 0.1811, 0.582 -0.2017 0.1811, 0.5853 -0.1969 0.2402, 0.5851 -0.1967 0.1811, 0.5867 -0.1942 0.1811, 0.5892 -0.1874 0.2402, 0.5896 -0.1859 0.1811, 0.5891 -0.1873 0.1811, -0.5512 -0.2152 0.2503, -0.561 -0.2139 0.2503, -0.561 -0.1942 0.2743, -0.5563 -0.186 0.2782, -0.5584 -0.1844 0.2782, -0.561 -0.1798 0.2782, -0.5538 -0.187 0.2782, -0.5563 -0.1962 0.2743, -0.5584 -0.2041 0.268, -0.5512 -0.1874 0.2782, -0.5651 -0.1911 0.2743, -0.56 -0.1823 0.2782, -0.5682 -0.187 0.2743, -0.5702 -0.1823 0.2743, -0.5512 -0.1969 0.2743, -0.5512 -0.205 0.268, -0.5512 -0.2113 0.2598, -0.5651 -0.2013 0.268, -0.5709 -0.1969 0.268, -0.5753 -0.1911 0.268, -0.5781 -0.1844 0.268, -0.56 -0.2101 0.2598, -0.5682 -0.2067 0.2598, -0.5753 -0.2013 0.2598, -0.5807 -0.1942 0.2598, -0.5841 -0.186 0.2598, -0.5702 -0.2101 0.2503, -0.5781 -0.2041 0.2503, -0.5841 -0.1962 0.2503, -0.5879 -0.187 0.2503, 0.5879 -0.187 0.2503, 0.5682 -0.187 0.2743, 0.56 -0.1823 0.2782, 0.5584 -0.1844 0.2782, 0.5512 -0.1874 0.2782, 0.5538 -0.187 0.2782, 0.561 -0.1798 0.2782, 0.5702 -0.1823 0.2743, 0.5781 -0.1844 0.268, 0.5651 -0.1911 0.2743, 0.5563 -0.186 0.2782, 0.561 -0.1942 0.2743, 0.5563 -0.1962 0.2743, 0.5512 -0.1969 0.2743, 0.5753 -0.1911 0.268, 0.5709 -0.1969 0.268, 0.5651 -0.2013 0.268, 0.5584 -0.2041 0.268, 0.5512 -0.205 0.268, 0.5841 -0.186 0.2598, 0.5807 -0.1942 0.2598, 0.5753 -0.2013 0.2598, 0.5682 -0.2067 0.2598, 0.56 -0.2101 0.2598, 0.5512 -0.2113 0.2598, 0.5841 -0.1962 0.2503, 0.5781 -0.2041 0.2503, 0.5702 -0.2101 0.2503, 0.561 -0.2139 0.2503, 0.5512 -0.2152 0.2503
            ]
        }
        coordIndex [
            0,1,2,-1,2,1,3,-1,4,5,6,-1,6,5,7,-1,8,9,10,-1,10,9,11,-1,12,13,14,-1,14,13,15,-1,16,17,18,-1,17,16,19,-1,19,16,20,-1,19,20,21,-1,21,20,22,-1,21,22,18,-1,18,22,23,-1,18,23,16,-1,4,24,5,-1,5,24,25,-1,24,26,25,-1,25,26,27,-1,25,27,28,-1,27,29,28,-1,28,29,30,-1,28,30,31,-1,30,32,31,-1,31,32,33,-1,31,33,34,-1,33,35,34,-1,34,35,36,-1,34,36,37,-1,10,11,38,-1,38,11,37,-1,38,37,39,-1,39,37,36,-1,16,23,40,-1,16,40,41,-1,41,40,42,-1,41,42,43,-1,43,42,44,-1,43,44,45,-1,45,44,46,-1,45,46,47,-1,47,46,48,-1,47,48,49,-1,49,48,7,-1,49,7,5,-1,0,50,1,-1,1,50,51,-1,50,52,51,-1,51,52,53,-1,51,53,54,-1,53,55,54,-1,54,55,56,-1,54,56,57,-1,56,58,57,-1,57,58,59,-1,57,59,60,-1,59,61,60,-1,60,61,62,-1,60,62,63,-1,6,7,64,-1,64,7,63,-1,64,63,65,-1,65,63,62,-1,11,66,67,-1,68,69,70,-1,16,41,71,-1,70,69,16,-1,72,16,69,-1,72,69,73,-1,73,69,68,-1,73,68,74,-1,75,16,72,-1,76,77,78,-1,78,77,71,-1,78,71,79,-1,79,71,41,-1,79,41,43,-1,75,72,80,-1,80,72,73,-1,80,73,81,-1,81,73,74,-1,81,74,82,-1,83,76,84,-1,84,76,78,-1,84,78,85,-1,85,78,79,-1,85,79,86,-1,86,79,43,-1,86,43,45,-1,87,83,88,-1,88,83,84,-1,88,84,89,-1,89,84,85,-1,89,85,90,-1,90,85,86,-1,90,86,91,-1,91,86,45,-1,91,45,47,-1,66,87,67,-1,67,87,88,-1,67,88,92,-1,92,88,89,-1,92,89,93,-1,93,89,90,-1,93,90,94,-1,94,90,91,-1,94,91,95,-1,95,91,47,-1,95,47,49,-1,11,67,37,-1,37,67,92,-1,37,92,34,-1,34,92,93,-1,34,93,31,-1,31,93,94,-1,31,94,28,-1,28,94,95,-1,28,95,25,-1,25,95,49,-1,25,49,5,-1,77,16,71,-1,66,82,87,-1,87,82,74,-1,87,74,83,-1,83,74,68,-1,83,68,76,-1,76,68,70,-1,76,70,77,-1,77,70,16,-1,7,48,96,-1,97,98,99,-1,23,100,101,-1,99,98,23,-1,102,23,98,-1,102,98,103,-1,103,98,97,-1,103,97,104,-1,40,23,102,-1,105,106,107,-1,107,106,101,-1,107,101,108,-1,108,101,100,-1,108,100,109,-1,40,102,42,-1,42,102,103,-1,42,103,44,-1,44,103,104,-1,44,104,46,-1,110,105,111,-1,111,105,107,-1,111,107,112,-1,112,107,108,-1,112,108,113,-1,113,108,109,-1,113,109,114,-1,115,110,116,-1,116,110,111,-1,116,111,117,-1,117,111,112,-1,117,112,118,-1,118,112,113,-1,118,113,119,-1,119,113,114,-1,119,114,120,-1,48,115,96,-1,96,115,116,-1,96,116,121,-1,121,116,117,-1,121,117,122,-1,122,117,118,-1,122,118,123,-1,123,118,119,-1,123,119,124,-1,124,119,120,-1,124,120,125,-1,7,96,63,-1,63,96,121,-1,63,121,60,-1,60,121,122,-1,60,122,57,-1,57,122,123,-1,57,123,54,-1,54,123,124,-1,54,124,51,-1,51,124,125,-1,51,125,1,-1,106,23,101,-1,48,46,115,-1,115,46,104,-1,115,104,110,-1,110,104,97,-1,110,97,105,-1,105,97,99,-1,105,99,106,-1,106,99,23,-1,8,126,9,-1,9,126,127,-1,126,128,127,-1,127,128,129,-1,127,129,130,-1,129,131,130,-1,130,131,132,-1,130,132,133,-1,132,134,133,-1,133,134,135,-1,133,135,136,-1,135,137,136,-1,136,137,138,-1,136,138,139,-1,14,15,140,-1,140,15,139,-1,140,139,141,-1,141,139,138,-1,20,16,75,-1,20,75,142,-1,142,75,80,-1,142,80,143,-1,143,80,81,-1,143,81,144,-1,144,81,82,-1,144,82,145,-1,145,82,66,-1,145,66,146,-1,146,66,11,-1,146,11,9,-1,23,22,147,-1,23,147,100,-1,100,147,148,-1,100,148,109,-1,109,148,149,-1,109,149,114,-1,114,149,150,-1,114,150,120,-1,120,150,151,-1,120,151,125,-1,125,151,3,-1,125,3,1,-1,12,152,13,-1,13,152,153,-1,152,154,153,-1,153,154,155,-1,153,155,156,-1,155,157,156,-1,156,157,158,-1,156,158,159,-1,158,160,159,-1,159,160,161,-1,159,161,162,-1,161,163,162,-1,162,163,164,-1,162,164,165,-1,2,3,166,-1,166,3,165,-1,166,165,167,-1,167,165,164,-1,15,168,169,-1,170,171,172,-1,20,142,173,-1,172,171,20,-1,174,20,171,-1,174,171,175,-1,175,171,170,-1,175,170,176,-1,177,20,174,-1,178,179,180,-1,180,179,173,-1,180,173,181,-1,181,173,142,-1,181,142,143,-1,177,174,182,-1,182,174,175,-1,182,175,183,-1,183,175,176,-1,183,176,184,-1,185,178,186,-1,186,178,180,-1,186,180,187,-1,187,180,181,-1,187,181,188,-1,188,181,143,-1,188,143,144,-1,189,185,190,-1,190,185,186,-1,190,186,191,-1,191,186,187,-1,191,187,192,-1,192,187,188,-1,192,188,193,-1,193,188,144,-1,193,144,145,-1,168,189,169,-1,169,189,190,-1,169,190,194,-1,194,190,191,-1,194,191,195,-1,195,191,192,-1,195,192,196,-1,196,192,193,-1,196,193,197,-1,197,193,145,-1,197,145,146,-1,15,169,139,-1,139,169,194,-1,139,194,136,-1,136,194,195,-1,136,195,133,-1,133,195,196,-1,133,196,130,-1,130,196,197,-1,130,197,127,-1,127,197,146,-1,127,146,9,-1,179,20,173,-1,168,184,189,-1,189,184,176,-1,189,176,185,-1,185,176,170,-1,185,170,178,-1,178,170,172,-1,178,172,179,-1,179,172,20,-1,3,151,198,-1,199,200,201,-1,22,202,203,-1,201,200,22,-1,204,22,200,-1,204,200,205,-1,205,200,199,-1,205,199,206,-1,147,22,204,-1,207,208,209,-1,209,208,203,-1,209,203,210,-1,210,203,202,-1,210,202,211,-1,147,204,148,-1,148,204,205,-1,148,205,149,-1,149,205,206,-1,149,206,150,-1,212,207,213,-1,213,207,209,-1,213,209,214,-1,214,209,210,-1,214,210,215,-1,215,210,211,-1,215,211,216,-1,217,212,218,-1,218,212,213,-1,218,213,219,-1,219,213,214,-1,219,214,220,-1,220,214,215,-1,220,215,221,-1,221,215,216,-1,221,216,222,-1,151,217,198,-1,198,217,218,-1,198,218,223,-1,223,218,219,-1,223,219,224,-1,224,219,220,-1,224,220,225,-1,225,220,221,-1,225,221,226,-1,226,221,222,-1,226,222,227,-1,3,198,165,-1,165,198,223,-1,165,223,162,-1,162,223,224,-1,162,224,159,-1,159,224,225,-1,159,225,156,-1,156,225,226,-1,156,226,153,-1,153,226,227,-1,153,227,13,-1,208,22,203,-1,151,150,217,-1,217,150,206,-1,217,206,212,-1,212,206,199,-1,212,199,207,-1,207,199,201,-1,207,201,208,-1,208,201,22,-1,22,20,177,-1,22,177,202,-1,202,177,182,-1,202,182,211,-1,211,182,183,-1,211,183,216,-1,216,183,184,-1,216,184,222,-1,222,184,168,-1,222,168,227,-1,227,168,15,-1,227,15,13,-1,
        ]
    }
}
Shape{
    appearance Appearance {
        material  Material 	{
            diffuseColor 0.9882352941176471 0.7372549019607844 0.5176470588235295
            specularColor 0.49411764705882355 0.3686274509803922 0.25882352941176473
            ambientIntensity 0.7873
            transparency 0.0
            shininess 0.5
        }
    }
    geometry IndexedFaceSet {
        ccw TRUE
        solid FALSE
        coord DEF co Coordinate {
            point [
                -0.3937 -0.2382 0.0039, -0.3937 -0.2382 0.0, -0.3937 0.2382 0.0039, -0.3937 0.2382 0.0, -0.5709 0.2382 0.1654, -0.374 0.2382 0.1654, -0.5709 0.2598 0.1654, -0.374 0.2598 0.1654, -0.374 -0.2382 0.1654, -0.5709 -0.2382 0.1654, -0.374 -0.2598 0.1654, -0.5709 -0.2598 0.1654, -0.374 0.2598 0.0, -0.5709 0.2598 0.0, -0.5512 -0.2382 0.0, -0.5512 -0.2382 0.0039, -0.5512 0.2382 0.0, -0.5512 0.2382 0.0039, -0.5709 -0.2598 0.0, -0.374 -0.2598 0.0, -0.5709 0.2382 0.0, -0.374 -0.2382 0.0, -0.374 0.2382 0.0, -0.5709 -0.2382 0.0, -0.5709 0.2382 0.1614, -0.374 0.2382 0.1614, -0.374 -0.2382 0.1614, -0.5709 -0.2382 0.1614, -0.5709 -0.2382 0.0039, -0.5709 -0.2559 0.0039, -0.5709 -0.2559 0.1614, -0.374 -0.2559 0.1614, -0.374 -0.2559 0.0039, -0.374 -0.2382 0.0039, -0.5709 0.2382 0.0039, -0.5709 0.2559 0.1614, -0.5709 0.2559 0.0039, -0.374 0.2382 0.0039, -0.374 0.2559 0.0039, -0.374 0.2559 0.1614, 0.0787 -0.2382 0.0039, 0.0787 -0.2382 0.0, 0.0787 -0.0297 0.0039, 0.0787 0.2382 0.0, 0.0787 0.2382 0.0039, -0.0787 -0.2382 0.0, -0.0787 -0.2382 0.0039, -0.0787 0.2382 0.0, -0.0787 0.2382 0.0039, -0.0984 0.2382 0.1654, 0.0984 0.2382 0.1654, -0.0984 0.2598 0.1654, 0.0984 0.2598 0.1654, 0.0984 -0.2382 0.1654, -0.0984 -0.2382 0.1654, 0.0984 -0.2598 0.1654, -0.0984 -0.2598 0.1654, 0.0984 0.2598 0.0, -0.0984 0.2598 0.0, -0.0984 -0.2598 0.0, 0.0984 -0.2598 0.0, -0.0984 0.2382 0.0, 0.0984 -0.2382 0.0, 0.0984 0.2382 0.0, -0.0984 -0.2382 0.0, 0.3937 0.2382 0.0039, 0.3937 0.2382 0.0, 0.3937 -0.0297 0.0039, 0.3937 -0.2382 0.0, 0.3937 -0.2382 0.0039, 0.374 0.2382 0.1654, 0.5709 0.2382 0.1654, 0.374 0.2598 0.1654, 0.5709 0.2598 0.1654, 0.5709 -0.2382 0.1654, 0.374 -0.2382 0.1654, 0.5709 -0.2598 0.1654, 0.374 -0.2598 0.1654, 0.5512 -0.2382 0.0039, 0.5512 -0.2382 0.0, 0.5512 0.2382 0.0039, 0.5512 0.2382 0.0, 0.5709 0.2598 0.0, 0.374 0.2598 0.0, 0.374 -0.2598 0.0, 0.5709 -0.2598 0.0, 0.374 0.2382 0.0, 0.5709 -0.2382 0.0, 0.5709 0.2382 0.0, 0.374 -0.2382 0.0, 0.374 0.2382 0.1614, 0.5709 0.2382 0.1614, 0.5709 -0.2382 0.1614, 0.374 -0.2382 0.1614, 0.0984 -0.2382 0.1614, -0.0984 -0.2382 0.1614, -0.0984 0.2382 0.1614, 0.0984 0.2382 0.1614, -0.0984 -0.2382 0.0039, -0.0984 -0.2559 0.0039, -0.0984 -0.2559 0.1614, 0.0984 -0.2559 0.1614, 0.0984 -0.2559 0.0039, 0.0984 -0.2382 0.0039, -0.0984 0.2382 0.0039, -0.0984 0.2559 0.1614, -0.0984 0.2559 0.0039, 0.0984 0.2382 0.0039, 0.0984 0.2559 0.0039, 0.0984 0.2559 0.1614, 0.5709 -0.2382 0.0039, 0.5709 -0.2559 0.1614, 0.5709 -0.2559 0.0039, 0.374 -0.2382 0.0039, 0.374 -0.2559 0.0039, 0.374 -0.2559 0.1614, 0.5709 0.2382 0.0039, 0.5709 0.2559 0.0039, 0.5709 0.2559 0.1614, 0.374 0.2559 0.1614, 0.374 0.2559 0.0039, 0.374 0.2382 0.0039
            ]
        }
        coordIndex [
            0,1,2,-1,2,1,3,-1,4,5,6,-1,6,5,7,-1,8,9,10,-1,10,9,11,-1,12,13,7,-1,7,13,6,-1,14,15,16,-1,16,15,17,-1,18,19,11,-1,11,19,10,-1,16,20,13,-1,1,21,19,-1,12,22,3,-1,18,23,14,-1,13,12,16,-1,16,12,3,-1,16,3,14,-1,14,3,1,-1,14,1,18,-1,18,1,19,-1,24,25,4,-1,4,25,5,-1,26,27,8,-1,8,27,9,-1,14,23,15,-1,15,23,28,-1,28,23,29,-1,29,23,18,-1,29,18,30,-1,30,18,11,-1,30,11,27,-1,27,11,9,-1,26,8,31,-1,31,8,10,-1,31,10,32,-1,32,10,19,-1,32,19,33,-1,33,19,21,-1,21,1,33,-1,33,1,0,-1,20,16,34,-1,34,16,17,-1,24,4,35,-1,35,4,6,-1,35,6,36,-1,36,6,13,-1,36,13,34,-1,34,13,20,-1,37,22,38,-1,38,22,12,-1,38,12,39,-1,39,12,7,-1,39,7,25,-1,25,7,5,-1,3,22,2,-1,2,22,37,-1,40,41,42,-1,42,41,43,-1,42,43,44,-1,45,46,47,-1,47,46,48,-1,49,50,51,-1,51,50,52,-1,53,54,55,-1,55,54,56,-1,57,58,52,-1,52,58,51,-1,59,60,56,-1,56,60,55,-1,47,61,58,-1,41,62,60,-1,57,63,43,-1,59,64,45,-1,58,57,47,-1,47,57,43,-1,47,43,45,-1,45,43,41,-1,45,41,59,-1,59,41,60,-1,65,66,67,-1,67,66,68,-1,67,68,69,-1,70,71,72,-1,72,71,73,-1,74,75,76,-1,76,75,77,-1,78,79,80,-1,80,79,81,-1,82,83,73,-1,73,83,72,-1,84,85,77,-1,77,85,76,-1,66,86,83,-1,79,87,85,-1,82,88,81,-1,84,89,68,-1,83,82,66,-1,66,82,81,-1,66,81,68,-1,68,81,79,-1,68,79,84,-1,84,79,85,-1,90,91,70,-1,70,91,71,-1,92,93,74,-1,74,93,75,-1,94,95,53,-1,53,95,54,-1,96,97,49,-1,49,97,50,-1,45,64,46,-1,46,64,98,-1,98,64,99,-1,99,64,59,-1,99,59,100,-1,100,59,56,-1,100,56,95,-1,95,56,54,-1,94,53,101,-1,101,53,55,-1,101,55,102,-1,102,55,60,-1,102,60,103,-1,103,60,62,-1,62,41,103,-1,103,41,40,-1,61,47,104,-1,104,47,48,-1,96,49,105,-1,105,49,51,-1,105,51,106,-1,106,51,58,-1,106,58,104,-1,104,58,61,-1,107,63,108,-1,108,63,57,-1,108,57,109,-1,109,57,52,-1,109,52,97,-1,97,52,50,-1,43,63,44,-1,44,63,107,-1,87,79,110,-1,110,79,78,-1,92,74,111,-1,111,74,76,-1,111,76,112,-1,112,76,85,-1,112,85,110,-1,110,85,87,-1,113,89,114,-1,114,89,84,-1,114,84,115,-1,115,84,77,-1,115,77,93,-1,93,77,75,-1,68,89,69,-1,69,89,113,-1,81,88,80,-1,80,88,116,-1,116,88,117,-1,117,88,82,-1,117,82,118,-1,118,82,73,-1,118,73,91,-1,91,73,71,-1,90,70,119,-1,119,70,72,-1,119,72,120,-1,120,72,83,-1,120,83,121,-1,121,83,86,-1,86,66,121,-1,121,66,65,-1,
        ]
    }
}
Shape{
    appearance Appearance {
        material  Material 	{
            diffuseColor 0.7529411764705882 0.7529411764705882 0.7529411764705882
            specularColor 0.3764705882352941 0.3764705882352941 0.3764705882352941
            ambientIntensity 0.7529
            transparency 0.0
            shininess 0.5
        }
    }
    geometry IndexedFaceSet {
        ccw TRUE
        solid FALSE
        coord DEF co Coordinate {
            point [
                0.5601 0.2162 0.176, 0.5512 0.2172 0.176, 0.5512 0.2165 0.1811, 0.5599 0.2155 0.1811, 0.5613 0.2151 0.1811, 0.5686 0.2132 0.176, 0.5683 0.2126 0.1811, 0.5707 0.2111 0.1811, 0.5761 0.2085 0.176, 0.5757 0.2079 0.1811, 0.5825 0.2021 0.176, 0.5788 0.2048 0.1811, 0.582 0.2017 0.1811, 0.5873 0.1945 0.176, 0.5851 0.1967 0.1811, 0.5906 0.1772 0.1811, 0.5912 0.1772 0.176, 0.5896 0.1859 0.1811, 0.5902 0.1861 0.176, 0.5891 0.1873 0.1811, 0.5867 0.1942 0.1811, 0.5932 0.1772 0.1713, 0.5921 0.1865 0.1713, 0.589 0.1954 0.1713, 0.584 0.2034 0.1713, 0.5774 0.21 0.1713, 0.5694 0.215 0.1713, 0.5605 0.2181 0.1713, 0.5512 0.2192 0.1713, 0.5963 0.1772 0.1672, 0.5952 0.1872 0.1672, 0.5918 0.1967 0.1672, 0.5865 0.2053 0.1672, 0.5793 0.2125 0.1672, 0.5708 0.2178 0.1672, 0.5612 0.2212 0.1672, 0.5512 0.2223 0.1672, 0.6004 0.1772 0.1641, 0.5992 0.1881 0.1641, 0.5955 0.1985 0.1641, 0.5897 0.2078 0.1641, 0.5819 0.2156 0.1641, 0.5725 0.2215 0.1641, 0.5621 0.2251 0.1641, 0.5512 0.2264 0.1641, 0.6051 0.1772 0.1621, 0.6038 0.1892 0.1621, 0.5998 0.2006 0.1621, 0.5934 0.2108 0.1621, 0.5848 0.2194 0.1621, 0.5746 0.2258 0.1621, 0.5632 0.2298 0.1621, 0.5512 0.2311 0.1621, 0.6102 0.1772 0.1614, 0.6088 0.1903 0.1614, 0.6044 0.2028 0.1614, 0.5974 0.214 0.1614, 0.588 0.2233 0.1614, 0.5768 0.2304 0.1614, 0.5643 0.2347 0.1614, 0.5512 0.2362 0.1614, 0.6102 -0.1772 0.1614, 0.6051 -0.1772 0.1621, 0.6004 -0.1772 0.1641, 0.5963 -0.1772 0.1672, 0.5932 -0.1772 0.1713, 0.5912 -0.1772 0.176, 0.5906 -0.1772 0.1811, -0.5512 0.2362 0.1614, -0.5512 0.2311 0.1621, -0.5512 0.2264 0.1641, -0.5512 0.2223 0.1672, -0.5512 0.2192 0.1713, -0.5512 0.2172 0.176, -0.5512 0.2165 0.1811, 0.5902 -0.1861 0.176, 0.5896 -0.1859 0.1811, 0.5891 -0.1873 0.1811, 0.5873 -0.1945 0.176, 0.5867 -0.1942 0.1811, 0.5851 -0.1967 0.1811, 0.5825 -0.2021 0.176, 0.582 -0.2017 0.1811, 0.5788 -0.2048 0.1811, 0.5761 -0.2085 0.176, 0.5757 -0.2079 0.1811, 0.5686 -0.2132 0.176, 0.5707 -0.2111 0.1811, 0.5512 -0.2165 0.1811, 0.5512 -0.2172 0.176, 0.5599 -0.2155 0.1811, 0.5601 -0.2162 0.176, 0.5613 -0.2151 0.1811, 0.5683 -0.2126 0.1811, 0.5512 -0.2192 0.1713, 0.5605 -0.2181 0.1713, 0.5694 -0.215 0.1713, 0.5774 -0.21 0.1713, 0.584 -0.2034 0.1713, 0.589 -0.1954 0.1713, 0.5921 -0.1865 0.1713, 0.5512 -0.2223 0.1672, 0.5612 -0.2212 0.1672, 0.5708 -0.2178 0.1672, 0.5793 -0.2125 0.1672, 0.5865 -0.2053 0.1672, 0.5918 -0.1967 0.1672, 0.5952 -0.1872 0.1672, 0.5512 -0.2264 0.1641, 0.5621 -0.2251 0.1641, 0.5725 -0.2215 0.1641, 0.5819 -0.2156 0.1641, 0.5897 -0.2078 0.1641, 0.5955 -0.1985 0.1641, 0.5992 -0.1881 0.1641, 0.5512 -0.2311 0.1621, 0.5632 -0.2298 0.1621, 0.5746 -0.2258 0.1621, 0.5848 -0.2194 0.1621, 0.5934 -0.2108 0.1621, 0.5998 -0.2006 0.1621, 0.6038 -0.1892 0.1621, 0.5512 -0.2362 0.1614, 0.5643 -0.2347 0.1614, 0.5768 -0.2304 0.1614, 0.588 -0.2233 0.1614, 0.5974 -0.214 0.1614, 0.6044 -0.2028 0.1614, 0.6088 -0.1903 0.1614, -0.5902 0.1861 0.176, -0.5912 0.1772 0.176, -0.5906 0.1772 0.1811, -0.5896 0.1859 0.1811, -0.5891 0.1873 0.1811, -0.5873 0.1945 0.176, -0.5867 0.1942 0.1811, -0.5851 0.1967 0.1811, -0.5825 0.2021 0.176, -0.582 0.2017 0.1811, -0.5788 0.2048 0.1811, -0.5761 0.2085 0.176, -0.5757 0.2079 0.1811, -0.5686 0.2132 0.176, -0.5707 0.2111 0.1811, -0.5599 0.2155 0.1811, -0.5601 0.2162 0.176, -0.5613 0.2151 0.1811, -0.5683 0.2126 0.1811, -0.5605 0.2181 0.1713, -0.5694 0.215 0.1713, -0.5774 0.21 0.1713, -0.584 0.2034 0.1713, -0.589 0.1954 0.1713, -0.5921 0.1865 0.1713, -0.5932 0.1772 0.1713, -0.5612 0.2212 0.1672, -0.5708 0.2178 0.1672, -0.5793 0.2125 0.1672, -0.5865 0.2053 0.1672, -0.5918 0.1967 0.1672, -0.5952 0.1872 0.1672, -0.5963 0.1772 0.1672, -0.5621 0.2251 0.1641, -0.5725 0.2215 0.1641, -0.5819 0.2156 0.1641, -0.5897 0.2078 0.1641, -0.5955 0.1985 0.1641, -0.5992 0.1881 0.1641, -0.6004 0.1772 0.1641, -0.5632 0.2298 0.1621, -0.5746 0.2258 0.1621, -0.5848 0.2194 0.1621, -0.5934 0.2108 0.1621, -0.5998 0.2006 0.1621, -0.6038 0.1892 0.1621, -0.6051 0.1772 0.1621, -0.5643 0.2347 0.1614, -0.5768 0.2304 0.1614, -0.588 0.2233 0.1614, -0.5974 0.214 0.1614, -0.6044 0.2028 0.1614, -0.6088 0.1903 0.1614, -0.6102 0.1772 0.1614, -0.5512 -0.2362 0.1614, -0.5512 -0.2311 0.1621, -0.5512 -0.2264 0.1641, -0.5512 -0.2223 0.1672, -0.5512 -0.2192 0.1713, -0.5512 -0.2172 0.176, -0.5512 -0.2165 0.1811, -0.6102 -0.1772 0.1614, -0.6051 -0.1772 0.1621, -0.6004 -0.1772 0.1641, -0.5963 -0.1772 0.1672, -0.5932 -0.1772 0.1713, -0.5912 -0.1772 0.176, -0.5906 -0.1772 0.1811, -0.5601 -0.2162 0.176, -0.5599 -0.2155 0.1811, -0.5613 -0.2151 0.1811, -0.5686 -0.2132 0.176, -0.5683 -0.2126 0.1811, -0.5707 -0.2111 0.1811, -0.5761 -0.2085 0.176, -0.5757 -0.2079 0.1811, -0.5825 -0.2021 0.176, -0.5788 -0.2048 0.1811, -0.582 -0.2017 0.1811, -0.5873 -0.1945 0.176, -0.5851 -0.1967 0.1811, -0.5896 -0.1859 0.1811, -0.5902 -0.1861 0.176, -0.5891 -0.1873 0.1811, -0.5867 -0.1942 0.1811, -0.5921 -0.1865 0.1713, -0.589 -0.1954 0.1713, -0.584 -0.2034 0.1713, -0.5774 -0.21 0.1713, -0.5694 -0.215 0.1713, -0.5605 -0.2181 0.1713, -0.5952 -0.1872 0.1672, -0.5918 -0.1967 0.1672, -0.5865 -0.2053 0.1672, -0.5793 -0.2125 0.1672, -0.5708 -0.2178 0.1672, -0.5612 -0.2212 0.1672, -0.5992 -0.1881 0.1641, -0.5955 -0.1985 0.1641, -0.5897 -0.2078 0.1641, -0.5819 -0.2156 0.1641, -0.5725 -0.2215 0.1641, -0.5621 -0.2251 0.1641, -0.6038 -0.1892 0.1621, -0.5998 -0.2006 0.1621, -0.5934 -0.2108 0.1621, -0.5848 -0.2194 0.1621, -0.5746 -0.2258 0.1621, -0.5632 -0.2298 0.1621, -0.6088 -0.1903 0.1614, -0.6044 -0.2028 0.1614, -0.5974 -0.214 0.1614, -0.588 -0.2233 0.1614, -0.5768 -0.2304 0.1614, -0.5643 -0.2347 0.1614
            ]
        }
        coordIndex [
            0,1,2,-1,2,3,0,-1,0,3,4,-1,0,4,5,-1,4,6,5,-1,5,6,7,-1,5,7,8,-1,8,7,9,-1,8,9,10,-1,9,11,10,-1,10,11,12,-1,10,12,13,-1,13,12,14,-1,15,16,17,-1,17,16,18,-1,17,18,19,-1,19,18,13,-1,19,13,20,-1,20,13,14,-1,16,21,18,-1,18,21,22,-1,18,22,13,-1,13,22,23,-1,13,23,10,-1,10,23,24,-1,10,24,8,-1,8,24,25,-1,8,25,5,-1,5,25,26,-1,5,26,0,-1,0,26,27,-1,0,27,1,-1,1,27,28,-1,21,29,22,-1,22,29,30,-1,22,30,23,-1,23,30,31,-1,23,31,24,-1,24,31,32,-1,24,32,25,-1,25,32,33,-1,25,33,26,-1,26,33,34,-1,26,34,27,-1,27,34,35,-1,27,35,28,-1,28,35,36,-1,29,37,30,-1,30,37,38,-1,30,38,31,-1,31,38,39,-1,31,39,32,-1,32,39,40,-1,32,40,33,-1,33,40,41,-1,33,41,34,-1,34,41,42,-1,34,42,35,-1,35,42,43,-1,35,43,36,-1,36,43,44,-1,37,45,38,-1,38,45,46,-1,38,46,39,-1,39,46,47,-1,39,47,40,-1,40,47,48,-1,40,48,41,-1,41,48,49,-1,41,49,42,-1,42,49,50,-1,42,50,43,-1,43,50,51,-1,43,51,44,-1,44,51,52,-1,45,53,46,-1,46,53,54,-1,46,54,47,-1,47,54,55,-1,47,55,48,-1,48,55,56,-1,48,56,49,-1,49,56,57,-1,49,57,50,-1,50,57,58,-1,50,58,51,-1,51,58,59,-1,51,59,52,-1,52,59,60,-1,61,53,62,-1,62,53,45,-1,62,45,63,-1,63,45,37,-1,63,37,64,-1,64,37,29,-1,64,29,65,-1,65,29,21,-1,65,21,66,-1,66,21,16,-1,66,16,67,-1,67,16,15,-1,60,68,52,-1,52,68,69,-1,52,69,44,-1,44,69,70,-1,44,70,36,-1,36,70,71,-1,36,71,28,-1,28,71,72,-1,28,72,1,-1,1,72,73,-1,1,73,2,-1,2,73,74,-1,75,66,67,-1,67,76,75,-1,75,76,77,-1,75,77,78,-1,77,79,78,-1,78,79,80,-1,78,80,81,-1,80,82,81,-1,81,82,83,-1,81,83,84,-1,84,83,85,-1,84,85,86,-1,86,85,87,-1,88,89,90,-1,90,89,91,-1,90,91,92,-1,92,91,86,-1,92,86,93,-1,93,86,87,-1,89,94,91,-1,91,94,95,-1,91,95,86,-1,86,95,96,-1,86,96,84,-1,84,96,97,-1,84,97,81,-1,81,97,98,-1,81,98,78,-1,78,98,99,-1,78,99,75,-1,75,99,100,-1,75,100,66,-1,66,100,65,-1,94,101,95,-1,95,101,102,-1,95,102,96,-1,96,102,103,-1,96,103,97,-1,97,103,104,-1,97,104,98,-1,98,104,105,-1,98,105,99,-1,99,105,106,-1,99,106,100,-1,100,106,107,-1,100,107,65,-1,65,107,64,-1,101,108,102,-1,102,108,109,-1,102,109,103,-1,103,109,110,-1,103,110,104,-1,104,110,111,-1,104,111,105,-1,105,111,112,-1,105,112,106,-1,106,112,113,-1,106,113,107,-1,107,113,114,-1,107,114,64,-1,64,114,63,-1,108,115,109,-1,109,115,116,-1,109,116,110,-1,110,116,117,-1,110,117,111,-1,111,117,118,-1,111,118,112,-1,112,118,119,-1,112,119,113,-1,113,119,120,-1,113,120,114,-1,114,120,121,-1,114,121,63,-1,63,121,62,-1,115,122,116,-1,116,122,123,-1,116,123,117,-1,117,123,124,-1,117,124,118,-1,118,124,125,-1,118,125,119,-1,119,125,126,-1,119,126,120,-1,120,126,127,-1,120,127,121,-1,121,127,128,-1,121,128,62,-1,62,128,61,-1,129,130,131,-1,131,132,129,-1,129,132,133,-1,129,133,134,-1,133,135,134,-1,134,135,136,-1,134,136,137,-1,136,138,137,-1,137,138,139,-1,137,139,140,-1,140,139,141,-1,140,141,142,-1,142,141,143,-1,74,73,144,-1,144,73,145,-1,144,145,146,-1,146,145,142,-1,146,142,147,-1,147,142,143,-1,73,72,145,-1,145,72,148,-1,145,148,142,-1,142,148,149,-1,142,149,140,-1,140,149,150,-1,140,150,137,-1,137,150,151,-1,137,151,134,-1,134,151,152,-1,134,152,129,-1,129,152,153,-1,129,153,130,-1,130,153,154,-1,72,71,148,-1,148,71,155,-1,148,155,149,-1,149,155,156,-1,149,156,150,-1,150,156,157,-1,150,157,151,-1,151,157,158,-1,151,158,152,-1,152,158,159,-1,152,159,153,-1,153,159,160,-1,153,160,154,-1,154,160,161,-1,71,70,155,-1,155,70,162,-1,155,162,156,-1,156,162,163,-1,156,163,157,-1,157,163,164,-1,157,164,158,-1,158,164,165,-1,158,165,159,-1,159,165,166,-1,159,166,160,-1,160,166,167,-1,160,167,161,-1,161,167,168,-1,70,69,162,-1,162,69,169,-1,162,169,163,-1,163,169,170,-1,163,170,164,-1,164,170,171,-1,164,171,165,-1,165,171,172,-1,165,172,166,-1,166,172,173,-1,166,173,167,-1,167,173,174,-1,167,174,168,-1,168,174,175,-1,69,68,169,-1,169,68,176,-1,169,176,170,-1,170,176,177,-1,170,177,171,-1,171,177,178,-1,171,178,172,-1,172,178,179,-1,172,179,173,-1,173,179,180,-1,173,180,174,-1,174,180,181,-1,174,181,175,-1,175,181,182,-1,183,122,184,-1,184,122,115,-1,184,115,185,-1,185,115,108,-1,185,108,186,-1,186,108,101,-1,186,101,187,-1,187,101,94,-1,187,94,188,-1,188,94,89,-1,188,89,189,-1,189,89,88,-1,182,190,175,-1,175,190,191,-1,175,191,168,-1,168,191,192,-1,168,192,161,-1,161,192,193,-1,161,193,154,-1,154,193,194,-1,154,194,130,-1,130,194,195,-1,130,195,131,-1,131,195,196,-1,197,188,189,-1,189,198,197,-1,197,198,199,-1,197,199,200,-1,199,201,200,-1,200,201,202,-1,200,202,203,-1,203,202,204,-1,203,204,205,-1,204,206,205,-1,205,206,207,-1,205,207,208,-1,208,207,209,-1,196,195,210,-1,210,195,211,-1,210,211,212,-1,212,211,208,-1,212,208,213,-1,213,208,209,-1,195,194,211,-1,211,194,214,-1,211,214,208,-1,208,214,215,-1,208,215,205,-1,205,215,216,-1,205,216,203,-1,203,216,217,-1,203,217,200,-1,200,217,218,-1,200,218,197,-1,197,218,219,-1,197,219,188,-1,188,219,187,-1,194,193,214,-1,214,193,220,-1,214,220,215,-1,215,220,221,-1,215,221,216,-1,216,221,222,-1,216,222,217,-1,217,222,223,-1,217,223,218,-1,218,223,224,-1,218,224,219,-1,219,224,225,-1,219,225,187,-1,187,225,186,-1,193,192,220,-1,220,192,226,-1,220,226,221,-1,221,226,227,-1,221,227,222,-1,222,227,228,-1,222,228,223,-1,223,228,229,-1,223,229,224,-1,224,229,230,-1,224,230,225,-1,225,230,231,-1,225,231,186,-1,186,231,185,-1,192,191,226,-1,226,191,232,-1,226,232,227,-1,227,232,233,-1,227,233,228,-1,228,233,234,-1,228,234,229,-1,229,234,235,-1,229,235,230,-1,230,235,236,-1,230,236,231,-1,231,236,237,-1,231,237,185,-1,185,237,184,-1,191,190,232,-1,232,190,238,-1,232,238,233,-1,233,238,239,-1,233,239,234,-1,234,239,240,-1,234,240,235,-1,235,240,241,-1,235,241,236,-1,236,241,242,-1,236,242,237,-1,237,242,243,-1,237,243,184,-1,184,243,183,-1,
        ]
    }
}
Shape{
    appearance Appearance {
        material  Material 	{
            diffuseColor 0.0 0.0 0.0
            specularColor 0.0 0.0 0.0
            ambientIntensity 0.0
            transparency 0.0
            shininess 0.5
        }
    }
    geometry IndexedFaceSet {
        ccw TRUE
        solid FALSE
        coord DEF co Coordinate {
            point [
                0.1473 -0.0063 0.0079, 0.1493 -0.0128 0.0079, 0.1276 -0.0063 0.0079, 0.1249 -0.0128 0.0079, 0.1385 0.0183 0.0079, 0.1413 0.0297 0.0079, 0.1636 -0.0294 0.0079, 0.1549 -0.0294 0.0079, 0.1379 0.0204 0.0079, 0.1375 0.0225 0.0079, 0.1333 0.0297 0.0079, 0.1374 0.0225 0.0079, 0.137 0.0204 0.0079, 0.1364 0.0183 0.0079, 0.1103 -0.0294 0.0079, 0.1189 -0.0294 0.0079, 0.1249 -0.0128 0.0039, 0.1189 -0.0294 0.0039, 0.1493 -0.0128 0.0039, 0.1549 -0.0294 0.0039, 0.1636 -0.0294 0.0039, 0.1413 0.0297 0.0039, 0.1333 0.0297 0.0039, 0.1103 -0.0294 0.0039, 0.1364 0.0183 0.0039, 0.137 0.0204 0.0039, 0.1374 0.0225 0.0039, 0.1375 0.0225 0.0039, 0.1379 0.0204 0.0039, 0.1385 0.0183 0.0039, 0.1473 -0.0063 0.0039, 0.1276 -0.0063 0.0039, 0.1988 0.0297 0.0079, 0.1988 0.0297 0.0039, 0.2154 0.0297 0.0079, 0.2154 0.0297 0.0039, 0.1902 0.0288 0.0079, 0.1902 0.0288 0.0039, 0.1833 0.0263 0.0079, 0.1833 0.0263 0.0039, 0.1769 0.022 0.0079, 0.1769 0.022 0.0039, 0.1768 0.022 0.0079, 0.1768 0.022 0.0039, 0.1727 0.0174 0.0079, 0.1727 0.0174 0.0039, 0.1699 0.0123 0.0079, 0.1699 0.0123 0.0039, 0.1683 0.0065 0.0079, 0.1683 0.0065 0.0039, 0.1679 0.0009 0.0079, 0.1679 0.0009 0.0039, 0.1687 -0.007 0.0079, 0.1687 -0.007 0.0039, 0.1708 -0.0132 0.0079, 0.1708 -0.0132 0.0039, 0.1742 -0.0185 0.0079, 0.1742 -0.0185 0.0039, 0.1791 -0.0231 0.0079, 0.1791 -0.0231 0.0039, 0.1853 -0.0267 0.0079, 0.1853 -0.0267 0.0039, 0.1921 -0.0287 0.0079, 0.1921 -0.0287 0.0039, 0.1994 -0.0294 0.0079, 0.1994 -0.0294 0.0039, 0.2154 -0.0294 0.0079, 0.2154 -0.0294 0.0039, 0.1798 0.0149 0.0079, 0.1826 0.018 0.0079, 0.1869 0.0208 0.0079, 0.1918 0.0225 0.0079, 0.1988 0.0232 0.0079, 0.2075 0.0232 0.0079, 0.2075 -0.0229 0.0079, 0.1991 -0.0229 0.0079, 0.1929 -0.0223 0.0079, 0.1879 -0.0208 0.0079, 0.1839 -0.0184 0.0079, 0.1806 -0.0151 0.0079, 0.1781 -0.011 0.0079, 0.1764 -0.0055 0.0079, 0.1758 0.0007 0.0079, 0.1763 0.0066 0.0079, 0.1777 0.0113 0.0079, 0.1991 -0.0229 0.0039, 0.2075 -0.0229 0.0039, 0.1929 -0.0223 0.0039, 0.1879 -0.0208 0.0039, 0.1839 -0.0184 0.0039, 0.1806 -0.0151 0.0039, 0.1781 -0.011 0.0039, 0.1764 -0.0055 0.0039, 0.1758 0.0007 0.0039, 0.1763 0.0066 0.0039, 0.1777 0.0113 0.0039, 0.1798 0.0149 0.0039, 0.1826 0.018 0.0039, 0.1869 0.0208 0.0039, 0.1918 0.0225 0.0039, 0.1988 0.0232 0.0039, 0.2075 0.0232 0.0039, 0.2586 0.0297 0.0079, 0.2586 0.0297 0.0039, 0.2586 -0.0294 0.0079, 0.2586 -0.0294 0.0039, 0.2284 0.0297 0.0079, 0.2284 0.0297 0.0039, 0.2284 0.0232 0.0079, 0.2284 0.0232 0.0039, 0.2507 0.0232 0.0079, 0.2507 0.0232 0.0039, 0.2507 0.0038 0.0079, 0.2507 0.0038 0.0039, 0.2298 0.0038 0.0079, 0.2298 0.0038 0.0039, 0.2298 -0.0027 0.0079, 0.2298 -0.0027 0.0039, 0.2507 -0.0027 0.0079, 0.2507 -0.0027 0.0039, 0.2507 -0.0229 0.0079, 0.2507 -0.0229 0.0039, 0.227 -0.0229 0.0079, 0.227 -0.0229 0.0039, 0.227 -0.0294 0.0079, 0.227 -0.0294 0.0039, 0.2899 -0.0297 0.0039, 0.2864 -0.0301 0.0039, 0.2864 -0.0301 0.0079, 0.2937 -0.0293 0.0039, 0.2937 -0.0293 0.0079, 0.2994 -0.0274 0.0079, 0.2994 -0.0274 0.0039, 0.3042 -0.0243 0.0079, 0.3042 -0.0243 0.0039, 0.3086 -0.0197 0.0079, 0.3086 -0.0197 0.0039, 0.3117 -0.014 0.0079, 0.3117 -0.014 0.0039, 0.3135 -0.0078 0.0079, 0.3135 -0.0078 0.0039, 0.3141 -0.001 0.0079, 0.3141 -0.001 0.0039, 0.3132 0.0074 0.0079, 0.3132 0.0074 0.0039, 0.311 0.0141 0.0079, 0.311 0.0141 0.0039, 0.3075 0.0197 0.0079, 0.3075 0.0197 0.0039, 0.3022 0.0248 0.0079, 0.3022 0.0248 0.0039, 0.2966 0.028 0.0079, 0.2966 0.028 0.0039, 0.29 0.0299 0.0079, 0.29 0.0299 0.0039, 0.2841 0.0304 0.0079, 0.2841 0.0304 0.0039, 0.277 0.0299 0.0079, 0.277 0.0299 0.0039, 0.2702 0.0281 0.0079, 0.2702 0.0281 0.0039, 0.2702 0.0201 0.0079, 0.2702 0.0201 0.0039, 0.2768 0.023 0.0079, 0.2768 0.023 0.0039, 0.284 0.0239 0.0079, 0.284 0.0239 0.0039, 0.2898 0.0233 0.0079, 0.2898 0.0233 0.0039, 0.2942 0.0217 0.0079, 0.2942 0.0217 0.0039, 0.2983 0.0189 0.0079, 0.2983 0.0189 0.0039, 0.3019 0.015 0.0079, 0.3019 0.015 0.0039, 0.3043 0.0104 0.0079, 0.3043 0.0104 0.0039, 0.3059 0.0041 0.0079, 0.3059 0.0041 0.0039, 0.3062 -0.0005 0.0079, 0.3062 -0.0005 0.0039, 0.3056 -0.0069 0.0079, 0.3056 -0.0069 0.0039, 0.304 -0.0119 0.0079, 0.304 -0.0119 0.0039, 0.3015 -0.016 0.0079, 0.3015 -0.016 0.0039, 0.2988 -0.019 0.0079, 0.2988 -0.019 0.0039, 0.2951 -0.0214 0.0079, 0.2951 -0.0214 0.0039, 0.2908 -0.023 0.0079, 0.2908 -0.023 0.0039, 0.2853 -0.0236 0.0079, 0.2853 -0.0236 0.0039, 0.2775 -0.0227 0.0079, 0.2775 -0.0227 0.0039, 0.2712 -0.0204 0.0079, 0.2712 -0.0204 0.0039, 0.2702 -0.0198 0.0079, 0.2702 -0.0198 0.0039, 0.2702 -0.0263 0.0079, 0.2702 -0.0263 0.0039, 0.2765 -0.0289 0.0039, 0.2765 -0.0289 0.0079, 0.2824 -0.0297 0.0039, 0.2848 -0.0301 0.0079, 0.2848 -0.0301 0.0039, 0.3494 0.0297 0.0079, 0.3494 0.0297 0.0039, 0.3494 -0.0294 0.0079, 0.3494 -0.0294 0.0039, 0.3415 0.0297 0.0079, 0.3415 0.0297 0.0039, 0.3415 -0.0229 0.0079, 0.3415 -0.0229 0.0039, 0.3191 -0.0229 0.0079, 0.3191 -0.0229 0.0039, 0.3191 -0.0294 0.0079, 0.3191 -0.0294 0.0039
            ]
        }
        coordIndex [
            0,1,2,-1,2,1,3,-1,4,5,0,-1,0,5,6,-1,0,6,1,-1,1,6,7,-1,4,8,5,-1,5,8,9,-1,5,9,10,-1,10,9,11,-1,10,11,12,-1,12,13,10,-1,10,13,2,-1,10,2,14,-1,14,2,3,-1,14,3,15,-1,3,16,15,-1,15,16,17,-1,1,18,3,-1,3,18,16,-1,7,19,1,-1,1,19,18,-1,6,20,7,-1,7,20,19,-1,5,21,6,-1,6,21,20,-1,10,22,5,-1,5,22,21,-1,14,23,10,-1,10,23,22,-1,14,15,23,-1,23,15,17,-1,24,13,12,-1,24,12,25,-1,25,12,11,-1,25,11,26,-1,9,27,11,-1,11,27,26,-1,27,9,8,-1,27,8,28,-1,28,8,4,-1,28,4,29,-1,0,30,4,-1,4,30,29,-1,2,31,0,-1,0,31,30,-1,24,31,13,-1,13,31,2,-1,32,33,34,-1,34,33,35,-1,33,32,36,-1,33,36,37,-1,37,36,38,-1,37,38,39,-1,39,38,40,-1,39,40,41,-1,41,40,42,-1,41,42,43,-1,43,42,44,-1,43,44,45,-1,45,44,46,-1,45,46,47,-1,47,46,48,-1,47,48,49,-1,49,48,50,-1,49,50,51,-1,51,50,52,-1,51,52,53,-1,53,52,54,-1,53,54,55,-1,55,54,56,-1,55,56,57,-1,57,56,58,-1,57,58,59,-1,59,58,60,-1,59,60,61,-1,61,60,62,-1,61,62,63,-1,63,62,64,-1,63,64,65,-1,66,67,64,-1,64,67,65,-1,66,34,67,-1,67,34,35,-1,46,44,68,-1,68,44,42,-1,68,42,69,-1,69,42,40,-1,69,40,70,-1,70,40,38,-1,70,38,71,-1,71,38,36,-1,71,36,72,-1,72,36,32,-1,72,32,73,-1,73,32,34,-1,73,34,74,-1,74,34,66,-1,74,66,75,-1,75,66,64,-1,75,64,76,-1,76,64,62,-1,76,62,77,-1,77,62,60,-1,77,60,78,-1,78,60,58,-1,78,58,79,-1,79,58,56,-1,79,56,80,-1,80,56,54,-1,80,54,81,-1,81,54,52,-1,81,52,82,-1,82,52,50,-1,82,50,83,-1,83,50,48,-1,83,48,84,-1,84,48,46,-1,84,46,68,-1,75,85,74,-1,74,85,86,-1,85,75,76,-1,85,76,87,-1,87,76,77,-1,87,77,88,-1,88,77,78,-1,88,78,89,-1,89,78,79,-1,89,79,90,-1,90,79,80,-1,90,80,91,-1,91,80,81,-1,91,81,92,-1,92,81,82,-1,92,82,93,-1,93,82,83,-1,93,83,94,-1,94,83,84,-1,94,84,95,-1,95,84,68,-1,95,68,96,-1,96,68,69,-1,96,69,97,-1,97,69,70,-1,97,70,98,-1,98,70,71,-1,98,71,99,-1,99,71,72,-1,99,72,100,-1,73,101,72,-1,72,101,100,-1,86,101,74,-1,74,101,73,-1,102,103,104,-1,104,103,105,-1,106,107,102,-1,102,107,103,-1,108,109,106,-1,106,109,107,-1,110,111,108,-1,108,111,109,-1,112,113,110,-1,110,113,111,-1,114,115,112,-1,112,115,113,-1,116,117,114,-1,114,117,115,-1,118,119,116,-1,116,119,117,-1,120,121,118,-1,118,121,119,-1,122,123,120,-1,120,123,121,-1,124,125,122,-1,122,125,123,-1,124,104,125,-1,125,104,105,-1,104,124,122,-1,122,120,104,-1,104,120,118,-1,104,118,102,-1,108,106,110,-1,110,106,102,-1,110,102,112,-1,112,102,118,-1,112,118,114,-1,114,118,116,-1,126,127,128,-1,126,128,129,-1,128,130,129,-1,129,130,131,-1,129,131,132,-1,132,131,133,-1,132,133,134,-1,134,133,135,-1,134,135,136,-1,136,135,137,-1,136,137,138,-1,138,137,139,-1,138,139,140,-1,140,139,141,-1,140,141,142,-1,142,141,143,-1,142,143,144,-1,144,143,145,-1,144,145,146,-1,146,145,147,-1,146,147,148,-1,148,147,149,-1,148,149,150,-1,150,149,151,-1,150,151,152,-1,152,151,153,-1,152,153,154,-1,154,153,155,-1,154,155,156,-1,156,155,157,-1,156,157,158,-1,158,157,159,-1,158,159,160,-1,161,162,159,-1,159,162,160,-1,162,161,163,-1,162,163,164,-1,164,163,165,-1,164,165,166,-1,166,165,167,-1,166,167,168,-1,168,167,169,-1,168,169,170,-1,170,169,171,-1,170,171,172,-1,172,171,173,-1,172,173,174,-1,174,173,175,-1,174,175,176,-1,176,175,177,-1,176,177,178,-1,178,177,179,-1,178,179,180,-1,180,179,181,-1,180,181,182,-1,182,181,183,-1,182,183,184,-1,184,183,185,-1,184,185,186,-1,186,185,187,-1,186,187,188,-1,188,187,189,-1,188,189,190,-1,190,189,191,-1,190,191,192,-1,192,191,193,-1,192,193,194,-1,194,193,195,-1,194,195,196,-1,196,195,197,-1,196,197,198,-1,198,197,199,-1,198,199,200,-1,201,202,199,-1,199,202,200,-1,203,202,204,-1,204,202,201,-1,203,204,205,-1,205,204,206,-1,205,206,207,-1,207,206,128,-1,207,128,127,-1,191,128,193,-1,193,128,206,-1,193,206,195,-1,195,206,204,-1,195,204,197,-1,197,204,201,-1,197,201,199,-1,161,159,163,-1,163,159,157,-1,163,157,165,-1,165,157,155,-1,165,155,167,-1,167,155,153,-1,167,153,169,-1,169,153,151,-1,169,151,171,-1,171,151,149,-1,171,149,173,-1,173,149,147,-1,173,147,175,-1,175,147,145,-1,175,145,177,-1,177,145,143,-1,177,143,179,-1,179,143,141,-1,179,141,181,-1,181,141,139,-1,181,139,183,-1,183,139,137,-1,183,137,185,-1,185,137,135,-1,185,135,187,-1,187,135,133,-1,187,133,189,-1,189,133,131,-1,189,131,191,-1,191,131,130,-1,191,130,128,-1,208,209,210,-1,210,209,211,-1,212,213,208,-1,208,213,209,-1,214,215,212,-1,212,215,213,-1,216,217,214,-1,214,217,215,-1,218,219,216,-1,216,219,217,-1,218,210,219,-1,219,210,211,-1,212,208,214,-1,214,208,210,-1,214,210,216,-1,216,210,218,-1,
        ]
    }
}
Shape{
    appearance Appearance {
        material  Material 	{
            diffuseColor 1.0 1.0 1.0
            specularColor 0.5019607843137255 0.5019607843137255 0.5019607843137255
            ambientIntensity 1.0
            transparency 0.0
            shininess 0.5
        }
    }
    geometry IndexedFaceSet {
        ccw TRUE
        solid FALSE
        coord DEF co Coordinate {
            point [
                0.1473 -0.0063 0.0039, 0.1276 -0.0063 0.0039, 0.1385 0.0183 0.0039, 0.1364 0.0183 0.0039, 0.1379 0.0204 0.0039, 0.137 0.0204 0.0039, 0.1375 0.0225 0.0039, 0.1374 0.0225 0.0039, 0.2075 0.0232 0.0039, 0.2075 -0.0229 0.0039, 0.1988 0.0232 0.0039, 0.1991 -0.0229 0.0039, 0.1929 -0.0223 0.0039, 0.1758 0.0007 0.0039, 0.1763 0.0066 0.0039, 0.1777 0.0113 0.0039, 0.1918 0.0225 0.0039, 0.1879 -0.0208 0.0039, 0.1839 -0.0184 0.0039, 0.1806 -0.0151 0.0039, 0.1781 -0.011 0.0039, 0.1764 -0.0055 0.0039, 0.1798 0.0149 0.0039, 0.1826 0.018 0.0039, 0.1869 0.0208 0.0039
            ]
        }
        coordIndex [
            0,1,2,-1,2,1,3,-1,2,3,4,-1,4,3,5,-1,4,5,6,-1,6,5,7,-1,8,9,10,-1,10,9,11,-1,10,11,12,-1,13,14,10,-1,10,14,15,-1,10,15,16,-1,12,17,10,-1,10,17,18,-1,10,18,19,-1,19,20,10,-1,10,20,21,-1,10,21,13,-1,22,23,15,-1,15,23,24,-1,15,24,16,-1,
        ]
    }
}
Shape{
    appearance Appearance {
        material  Material 	{
            diffuseColor 0.25098039215686274 0.25098039215686274 0.25098039215686274
            specularColor 0.12549019607843137 0.12549019607843137 0.12549019607843137
            ambientIntensity 0.251
            transparency 0.0
            shininess 0.5
        }
    }
    geometry IndexedFaceSet {
        ccw TRUE
        solid FALSE
        coord DEF co Coordinate {
            point [
                -0.4527 -0.0368 0.2795, -0.4527 -0.0368 0.2756, -0.4527 0.0368 0.2795, -0.4527 0.0368 0.2756, -0.3091 -0.0368 0.2795, -0.3091 -0.0368 0.2756, -0.3091 0.0368 0.2795, -0.3091 0.0368 0.2756
            ]
        }
        coordIndex [
            0,1,2,-1,2,1,3,-1,4,5,0,-1,0,5,1,-1,6,7,4,-1,4,7,5,-1,6,2,7,-1,7,2,3,-1,3,1,7,-1,7,1,5,-1,
        ]
    }
}